<svg width="374" height="303" viewBox="0 0 374 303" fill="none" xmlns="http://www.w3.org/2000/svg">
<g clip-path="url(#clip0)">
<path d="M114.369 96.1863C113.282 137.036 167.752 178.736 235.743 178.736C303.734 178.736 412.01 98.2028 360.586 96.1863C261.498 92.3007 227.542 51.2767 237.477 22.1955C255.271 -29.8866 116.508 15.7534 114.369 96.1863Z" fill="white"/>
<path d="M204.809 63.8327L203.98 63.3052L204.508 62.4765L204.281 62.333L203.754 63.1617L202.925 62.6342L202.781 62.8601L203.61 63.3875L203.083 64.2162L203.309 64.3602L203.836 63.5315L204.665 64.0585L204.809 63.8327Z" fill="#6C63FF"/>
<path d="M266.454 123.836L265.625 123.309L266.152 122.48L265.926 122.336L265.399 123.165L264.57 122.638L264.426 122.863L265.255 123.391L264.727 124.22L264.953 124.364L265.481 123.535L266.31 124.062L266.454 123.836Z" fill="#6C63FF"/>
<path d="M166.686 116.539L165.857 116.011L166.385 115.182L166.158 115.039L165.631 115.868L164.802 115.34L164.658 115.566L165.487 116.093L164.96 116.922L165.186 117.066L165.713 116.237L166.542 116.764L166.686 116.539Z" fill="#6C63FF"/>
<path d="M241.309 155.46L240.48 154.932L241.008 154.103L240.781 153.96L240.254 154.789L239.425 154.261L239.281 154.487L240.11 155.014L239.583 155.843L239.809 155.987L240.336 155.158L241.165 155.685L241.309 155.46Z" fill="#6C63FF"/>
<path d="M171.958 140.459L171.129 139.931L171.657 139.103L171.431 138.959L170.904 139.788L170.075 139.26L169.931 139.486L170.76 140.014L170.232 140.842L170.458 140.986L170.986 140.158L171.814 140.685L171.958 140.459Z" fill="#6C63FF"/>
<path d="M339.048 120.593L338.219 120.065L338.747 119.237L338.521 119.093L337.993 119.922L337.164 119.394L337.021 119.62L337.849 120.148L337.322 120.976L337.548 121.12L338.075 120.292L338.904 120.819L339.048 120.593Z" fill="#6C63FF"/>
<path d="M154.925 71.5361L154.096 71.0086L154.624 70.1799L154.398 70.0364L153.87 70.8651L153.041 70.3376L152.897 70.5634L153.726 71.0909L153.199 71.9196L153.425 72.0635L153.952 71.2348L154.781 71.7619L154.925 71.5361Z" fill="#6C63FF"/>
<path d="M224.275 80.6496L223.115 79.9117L223.853 78.7514L223.537 78.5503L222.798 79.7102L221.638 78.9719L221.437 79.2886L222.597 80.0265L221.859 81.1868L222.175 81.3883L222.914 80.228L224.074 80.9663L224.275 80.6496Z" fill="white"/>
<path d="M182.503 95.9836C183.175 95.9836 183.719 95.439 183.719 94.7673C183.719 94.0956 183.175 93.551 182.503 93.551C181.831 93.551 181.286 94.0956 181.286 94.7673C181.286 95.439 181.831 95.9836 182.503 95.9836Z" fill="#6C63FF"/>
<path d="M135.053 95.9836C135.725 95.9836 136.269 95.439 136.269 94.7673C136.269 94.0956 135.725 93.551 135.053 93.551C134.381 93.551 133.836 94.0956 133.836 94.7673C133.836 95.439 134.381 95.9836 135.053 95.9836Z" fill="#6C63FF"/>
<path d="M217.787 51.3864C218.459 51.3864 219.004 50.8419 219.004 50.1701C219.004 49.4984 218.459 48.9539 217.787 48.9539C217.115 48.9539 216.57 49.4984 216.57 50.1701C216.57 50.8419 217.115 51.3864 217.787 51.3864Z" fill="#6C63FF"/>
<path d="M206.432 125.58C207.103 125.58 207.648 125.035 207.648 124.363C207.648 123.692 207.103 123.147 206.432 123.147C205.76 123.147 205.215 123.692 205.215 124.363C205.215 125.035 205.76 125.58 206.432 125.58Z" fill="#6C63FF"/>
<path d="M205.62 99.6324C206.068 99.6324 206.431 99.2694 206.431 98.8216C206.431 98.3738 206.068 98.0107 205.62 98.0107C205.172 98.0107 204.809 98.3738 204.809 98.8216C204.809 99.2694 205.172 99.6324 205.62 99.6324Z" fill="#6C63FF"/>
<path d="M288.759 135.31C289.207 135.31 289.57 134.947 289.57 134.499C289.57 134.052 289.207 133.688 288.759 133.688C288.311 133.688 287.948 134.052 287.948 134.499C287.948 134.947 288.311 135.31 288.759 135.31Z" fill="#FF6584"/>
<path d="M164.659 91.1183C165.107 91.1183 165.47 90.7553 165.47 90.3074C165.47 89.8596 165.107 89.4966 164.659 89.4966C164.211 89.4966 163.848 89.8596 163.848 90.3074C163.848 90.7553 164.211 91.1183 164.659 91.1183Z" fill="#FF6584"/>
<path d="M215.353 25.4389C215.801 25.4389 216.164 25.0758 216.164 24.628C216.164 24.1802 215.801 23.8171 215.353 23.8171C214.905 23.8171 214.542 24.1802 214.542 24.628C214.542 25.0758 214.905 25.4389 215.353 25.4389Z" fill="#FF6584"/>
<path d="M182.097 63.1437C182.545 63.1437 182.908 62.7807 182.908 62.3328C182.908 61.885 182.545 61.522 182.097 61.522C181.649 61.522 181.286 61.885 181.286 62.3328C181.286 62.7807 181.649 63.1437 182.097 63.1437Z" fill="#6C63FF"/>
<path d="M192.236 35.9801C192.684 35.9801 193.047 35.6171 193.047 35.1693C193.047 34.7214 192.684 34.3584 192.236 34.3584C191.788 34.3584 191.425 34.7214 191.425 35.1693C191.425 35.6171 191.788 35.9801 192.236 35.9801Z" fill="white"/>
<path d="M313.499 109.363C314.171 109.363 314.716 108.818 314.716 108.146C314.716 107.475 314.171 106.93 313.499 106.93C312.827 106.93 312.282 107.475 312.282 108.146C312.282 108.818 312.827 109.363 313.499 109.363Z" fill="#6C63FF"/>
<path d="M232.792 113.822C233.464 113.822 234.009 113.278 234.009 112.606C234.009 111.934 233.464 111.39 232.792 111.39C232.12 111.39 231.575 111.934 231.575 112.606C231.575 113.278 232.12 113.822 232.792 113.822Z" fill="#6C63FF"/>
<path d="M212.108 145.446C214.348 145.446 216.164 143.631 216.164 141.391C216.164 139.152 214.348 137.337 212.108 137.337C209.868 137.337 208.053 139.152 208.053 141.391C208.053 143.631 209.868 145.446 212.108 145.446Z" fill="#6C63FF"/>
<path d="M261.182 98.416C261.853 98.416 262.398 97.8714 262.398 97.1997C262.398 96.528 261.853 95.9834 261.182 95.9834C260.51 95.9834 259.965 96.528 259.965 97.1997C259.965 97.8714 260.51 98.416 261.182 98.416Z" fill="white"/>
<g filter="url(#filter0_i)">
<path d="M37.2828 292.158C37.2828 292.158 35.0129 301.647 37.0765 302.06C39.1401 302.472 49.2514 302.339 51.7277 302.752C54.2039 303.164 59.3628 302.472 59.3628 300.616C59.3628 298.759 53.9976 297.521 53.9976 297.521C53.9976 297.521 46.3624 293.396 46.1561 293.189C45.9497 292.983 37.2828 292.158 37.2828 292.158Z" fill="#D0CDE1"/>
</g>
<g filter="url(#filter1_d)">
<path d="M39.7135 224.401C39.7135 224.401 40.4536 232.787 40.4536 233.527C40.4536 234.267 36.0127 273.236 36.9995 281.129C37.9864 289.021 36.9082 291.542 36.9082 293.022C36.9082 294.502 44.8946 293.954 44.8946 293.954L53.5298 239.446L49.0888 223.168L39.7135 224.401Z" fill="#F9F6F6"/>
</g>
<path d="M40.171 294.235C40.171 294.235 38.1075 301.661 40.171 302.074C42.2346 302.487 52.346 301.601 54.8222 302.014C57.2984 302.426 62.4573 302.487 62.4573 300.63C62.4573 298.773 57.0921 297.536 57.0921 297.536C57.0921 297.536 49.457 293.41 49.2506 293.204C49.0443 292.997 40.171 294.235 40.171 294.235Z" fill="#D0CDE1"/>
<path d="M37.4925 214.536C37.4925 214.536 34.5319 221.688 37.9859 225.388C41.44 229.088 45.3875 236.487 45.3875 236.98C45.3875 237.473 38.4794 286.555 39.4663 289.761C40.4531 292.968 40.2064 294.941 39.9597 295.434C39.713 295.927 42.4269 298.64 45.3875 298.64C48.3482 298.64 52.7891 296.421 53.2825 294.448C53.776 292.474 52.5424 275.456 52.7891 272.25C53.0358 269.044 62.9046 217.742 61.671 216.509C60.4375 215.276 37.4925 214.536 37.4925 214.536Z" fill="white"/>
<path d="M56.243 157.808C60.8758 157.808 64.6315 154.054 64.6315 149.423C64.6315 144.791 60.8758 141.037 56.243 141.037C51.6101 141.037 47.8545 144.791 47.8545 149.423C47.8545 154.054 51.6101 157.808 56.243 157.808Z" fill="#9F616A"/>
<path d="M51.0615 153.616C51.0615 153.616 52.7886 162.741 51.555 163.728C50.3214 164.715 60.9303 166.194 60.9303 166.194C60.9303 166.194 62.1639 154.109 62.4106 152.876C62.6574 151.642 51.0615 153.616 51.0615 153.616Z" fill="#9F616A"/>
<path d="M62.4109 165.665C62.4109 165.665 64.0023 156.974 51.9131 159.441C51.9131 159.441 40.8751 168.488 41.3686 176.874C41.862 185.26 37.4922 209.567 37.9857 211.293C38.4791 213.02 35.025 215.239 36.5054 215.979C37.9857 216.719 64.6314 221.159 65.3716 215.979C66.1117 210.8 65.1248 197.728 65.6183 195.261C66.1117 192.795 65.6183 172.077 64.138 169.611C62.6576 167.144 62.4109 165.665 62.4109 165.665Z" fill="#7075A5"/>
<path d="M57.229 225.635C57.229 225.635 53.5282 239.693 58.2159 239.693C62.9036 239.693 62.6569 225.141 62.6569 225.141L57.229 225.635Z" fill="#9F616A"/>
<path d="M59.6602 150.822C59.5532 151.529 58.4607 151.823 56.8572 151.685L56.8547 151.685C56.1756 151.621 55.5024 151.506 54.8408 151.34C53.84 151.094 53.2761 151.984 52.9125 153.217C52.3155 155.249 52.2704 158.218 51.7453 158.605C48.0791 160.631 37.2463 147.049 42.7973 143.532C44.7744 142.28 51.4297 137.604 56.0278 138.549C60.6258 139.493 58.7644 145.199 58.7644 145.199C58.7644 145.199 58.9331 145.948 59.1244 146.909C59.3967 148.121 59.5808 149.351 59.6754 150.59C59.6753 150.667 59.6703 150.745 59.6602 150.822Z" fill="#2F2E41"/>
<path d="M60.1908 167.921C60.1908 167.921 51.8024 167.427 51.0622 179.759C50.322 192.092 50.5688 203.684 50.5688 203.93C50.5688 204.177 54.0228 227.608 57.2302 227.608C60.4376 227.608 62.9048 227.115 63.6449 225.881C64.3851 224.648 61.6712 206.89 61.6712 206.89C61.6712 206.89 60.4376 188.145 62.4113 182.226C64.385 176.306 64.6318 168.661 60.1908 167.921Z" fill="#7075A5"/>
<path opacity="0.1" d="M50.697 183.151L48.2637 209.504L56.3748 227.748L51.1026 209.098L50.697 182.746" fill="black"/>
<path opacity="0.1" d="M62.4572 185.989L63.0769 217.057L60.835 200.179L62.4572 185.989Z" fill="black"/>
<path d="M104.528 303H0V302.146H104.683L104.528 303Z" fill="#3F3D56"/>
</g>
<defs>
<filter id="filter0_i" x="36.21" y="292.158" width="23.1528" height="14.709" filterUnits="userSpaceOnUse" color-interpolation-filters="sRGB">
<feFlood flood-opacity="0" result="BackgroundImageFix"/>
<feBlend mode="normal" in="SourceGraphic" in2="BackgroundImageFix" result="shape"/>
<feColorMatrix in="SourceAlpha" type="matrix" values="0 0 0 0 0 0 0 0 0 0 0 0 0 0 0 0 0 0 127 0" result="hardAlpha"/>
<feOffset dy="4"/>
<feGaussianBlur stdDeviation="2"/>
<feComposite in2="hardAlpha" operator="arithmetic" k2="-1" k3="1"/>
<feColorMatrix type="matrix" values="0 0 0 0 0 0 0 0 0 0 0 0 0 0 0 0 0 0 0.25 0"/>
<feBlend mode="normal" in2="shape" result="effect1_innerShadow"/>
</filter>
<filter id="filter1_d" x="32.8564" y="223.168" width="24.6733" height="78.885" filterUnits="userSpaceOnUse" color-interpolation-filters="sRGB">
<feFlood flood-opacity="0" result="BackgroundImageFix"/>
<feColorMatrix in="SourceAlpha" type="matrix" values="0 0 0 0 0 0 0 0 0 0 0 0 0 0 0 0 0 0 127 0"/>
<feOffset dy="4"/>
<feGaussianBlur stdDeviation="2"/>
<feColorMatrix type="matrix" values="0 0 0 0 0 0 0 0 0 0 0 0 0 0 0 0 0 0 0.25 0"/>
<feBlend mode="normal" in2="BackgroundImageFix" result="effect1_dropShadow"/>
<feBlend mode="normal" in="SourceGraphic" in2="effect1_dropShadow" result="shape"/>
</filter>
<clipPath id="clip0">
<rect width="374" height="303" fill="white"/>
</clipPath>
</defs>
</svg>
