<svg width="414" height="764" viewBox="0 0 414 764" fill="none" xmlns="http://www.w3.org/2000/svg">
<path d="M0 -1H414V764H0V-1Z" fill="#181826"/>
<path d="M41.7928 584.858C28.6729 584.858 18 574.123 18 560.93C18 547.734 28.6735 537 41.7928 537C44.4337 537 47.0291 537.434 49.5103 538.289L54.3232 539.947L49.5109 541.607C41.3056 544.435 35.7926 552.201 35.7926 560.93C35.7926 569.659 41.3056 577.423 49.5103 580.252L54.3238 581.911L49.5103 583.569C47.0297 584.425 44.4331 584.858 41.7928 584.858ZM41.7928 540.506C30.5959 540.506 21.4871 549.668 21.4871 560.929C21.4871 572.19 30.5959 581.35 41.7928 581.35C42.3847 581.35 42.9749 581.325 43.5609 581.274C36.669 576.977 32.3049 569.335 32.3049 560.929C32.3049 552.523 36.669 544.879 43.5609 540.583C42.9749 540.533 42.3847 540.506 41.7928 540.506Z" fill="#A32E87"/>
<path d="M72.0667 223.702C72.0676 223.702 72.6931 223.172 73.7861 222.245C74.3329 221.782 74.997 221.221 75.758 220.576C76.1388 220.253 76.5442 219.91 76.9713 219.548C77.0779 219.458 77.186 219.366 77.2956 219.274C77.3462 219.231 77.3984 219.188 77.45 219.144C77.4587 219.143 77.4587 219.133 77.4688 219.132C77.4958 219.111 77.5571 219.089 77.6334 219.081C77.7077 219.075 77.796 219.086 77.8486 219.111C77.8785 219.12 77.895 219.136 77.9094 219.144C77.9114 219.147 77.9147 219.149 77.9191 219.15L78.0098 219.23L78.1942 219.394C78.6888 219.834 79.2004 220.289 79.7259 220.757C80.2514 221.225 80.7915 221.705 81.3436 222.196C81.6191 222.442 81.8985 222.69 82.1799 222.94L82.3913 223.129L82.4979 223.223L82.5245 223.247L82.5645 223.281L82.6702 223.368C82.9545 223.594 83.272 223.769 83.6007 223.888C84.2599 224.121 84.9582 224.155 85.6377 223.983C85.9769 223.895 86.3114 223.752 86.6222 223.55C86.7003 223.5 86.7771 223.448 86.85 223.388L86.96 223.299L87.0121 223.255L87.0396 223.231L87.2606 223.034C87.8504 222.509 88.4478 221.978 89.0496 221.442C89.6519 220.906 90.259 220.367 90.868 219.824L91.325 219.418L91.5543 219.214L91.6112 219.163L91.6257 219.151C91.6286 219.148 91.6276 219.15 91.6286 219.149L91.632 219.148C91.6368 219.147 91.6358 219.139 91.6426 219.139C91.6725 219.112 91.7652 219.082 91.8583 219.089C91.9529 219.094 92.0224 219.13 92.0436 219.149C92.3491 219.421 92.6541 219.692 92.9586 219.963C93.5672 220.505 94.1743 221.045 94.7765 221.581C95.3783 222.116 95.9758 222.647 96.566 223.172L96.691 223.282C96.7629 223.342 96.8372 223.401 96.9115 223.458C97.065 223.566 97.2223 223.663 97.3859 223.742C97.7122 223.902 98.0543 224.004 98.3974 224.055C99.0818 224.155 99.781 224.05 100.42 223.736C100.58 223.658 100.733 223.562 100.882 223.459C100.954 223.404 101.026 223.347 101.096 223.288L101.167 223.226L101.22 223.179C101.362 223.052 101.503 222.926 101.644 222.801C101.926 222.55 102.205 222.303 102.481 222.057C103.033 221.566 103.573 221.086 104.098 220.618C104.624 220.151 105.134 219.695 105.63 219.255L105.722 219.173L105.745 219.152C105.753 219.145 105.749 219.149 105.751 219.148L105.757 219.145C105.759 219.138 105.771 219.138 105.776 219.13C105.795 219.122 105.817 219.11 105.847 219.101C105.908 219.087 105.989 219.08 106.049 219.097C106.114 219.108 106.146 219.137 106.165 219.148C106.383 219.341 106.596 219.531 106.803 219.715C107.221 220.087 107.618 220.439 107.991 220.772C108.737 221.434 109.387 222.013 109.922 222.489C110.994 223.442 111.606 223.986 111.607 223.987C111.857 224.154 112.477 223.808 113.019 223.192C113.561 222.575 113.827 221.914 113.632 221.685C113.631 221.684 113.019 221.139 111.949 220.186C111.413 219.71 110.763 219.131 110.018 218.468C109.645 218.136 109.249 217.784 108.83 217.411C108.619 217.223 108.403 217.032 108.182 216.835C107.755 216.464 107.24 216.206 106.703 216.093C106.167 215.973 105.605 215.984 105.05 216.131C104.772 216.207 104.497 216.323 104.233 216.474C104.103 216.556 103.972 216.637 103.852 216.738L103.761 216.812L103.696 216.868L103.604 216.951C103.109 217.39 102.597 217.846 102.072 218.313C101.546 218.781 101.006 219.261 100.454 219.752C100.179 219.998 99.8993 220.246 99.6179 220.496C99.477 220.621 99.3356 220.748 99.1937 220.873L99.1402 220.921C99.1237 220.936 99.0987 220.959 99.1035 220.953C99.0991 220.954 99.0962 220.957 99.0938 220.961C99.0837 220.965 99.0765 220.972 99.0639 220.978C99.0166 221.001 98.9191 221.026 98.8342 221.008C98.7927 221.002 98.7565 220.99 98.7309 220.978C98.7179 220.972 98.7102 220.965 98.7 220.961C98.6976 220.956 98.6947 220.953 98.6904 220.952H98.6884L98.6764 220.94L98.6484 220.916L98.5929 220.867C98.0027 220.341 97.4057 219.81 96.8039 219.275C96.2016 218.739 95.595 218.199 94.986 217.657C94.681 217.386 94.375 217.114 94.07 216.842C93.476 216.317 92.7381 216.052 92.0195 216.015C91.2999 215.978 90.5572 216.156 89.9149 216.598C89.8333 216.649 89.7581 216.714 89.6823 216.774L89.6253 216.822L89.5843 216.857L89.5269 216.907L89.2982 217.111L88.8407 217.518C88.2321 218.06 87.625 218.6 87.0227 219.136C86.4204 219.672 85.8235 220.203 85.2333 220.727L85.0122 220.924L84.9847 220.949C84.9789 220.953 84.9809 220.951 84.9789 220.951C84.977 220.952 84.9751 220.953 84.9736 220.955C84.9722 220.96 84.9664 220.961 84.962 220.964C84.9442 220.975 84.9162 220.989 84.879 221C84.8038 221.02 84.7 221.012 84.6368 220.99C84.6059 220.978 84.5861 220.964 84.5731 220.954C84.5716 220.953 84.5697 220.952 84.5673 220.951L84.5654 220.951L84.5533 220.94L84.5263 220.916L84.4201 220.822L84.2087 220.634C83.9274 220.382 83.6479 220.135 83.3729 219.889C82.8203 219.398 82.2808 218.918 81.7547 218.45C81.2292 217.982 80.7181 217.527 80.2235 217.087L80.0381 216.923L79.9455 216.84C79.8861 216.79 79.8258 216.741 79.7645 216.692C79.5194 216.507 79.2554 216.356 78.9875 216.251C78.4504 216.034 77.8993 215.968 77.3655 216.013C76.8323 216.062 76.3067 216.227 75.8386 216.525C75.7209 216.595 75.6108 216.684 75.5027 216.769C75.4434 216.819 75.3845 216.868 75.3256 216.918C75.2161 217.01 75.1084 217.102 75.0013 217.192C74.5742 217.553 74.1693 217.897 73.7881 218.219C73.027 218.864 72.3635 219.426 71.8167 219.889C70.7226 220.816 70.0977 221.345 70.0972 221.346C69.8593 221.547 70.1073 222.238 70.6512 222.889C71.1946 223.54 71.8283 223.903 72.0667 223.702Z" fill="#26ABC4"/>
<path d="M111.942 228.909C111.407 228.433 110.757 227.854 110.011 227.191C109.638 226.859 109.242 226.506 108.823 226.133C108.612 225.946 108.396 225.754 108.175 225.557C107.749 225.186 107.233 224.928 106.697 224.815C106.16 224.695 105.598 224.706 105.043 224.854C104.765 224.929 104.49 225.045 104.226 225.195C104.096 225.277 103.966 225.359 103.845 225.46L103.754 225.535L103.689 225.59L103.597 225.672C103.102 226.113 102.591 226.567 102.065 227.035C101.54 227.503 101 227.983 100.447 228.474C100.172 228.719 99.8924 228.968 99.6111 229.218C99.4702 229.344 99.3288 229.47 99.1869 229.596L99.1333 229.643C99.1169 229.658 99.0918 229.681 99.0966 229.675C99.0923 229.676 99.0894 229.679 99.087 229.683C99.0769 229.686 99.0696 229.695 99.0571 229.7C99.0098 229.724 98.9123 229.748 98.8274 229.73C98.7859 229.724 98.7497 229.712 98.7241 229.7C98.7111 229.695 98.7033 229.687 98.6932 229.683C98.6908 229.678 98.6879 229.676 98.6836 229.675L98.6816 229.674L98.6696 229.663L98.6416 229.639L98.5861 229.589C97.9959 229.064 97.3989 228.533 96.7971 227.998C96.1948 227.462 95.5882 226.921 94.9792 226.379C94.6742 226.108 94.3682 225.837 94.0632 225.565C93.4691 225.04 92.7312 224.775 92.0127 224.738C91.2931 224.7 90.5504 224.878 89.9081 225.321C89.8265 225.371 89.7512 225.436 89.6755 225.497L89.6185 225.544L89.5775 225.579L89.5201 225.63L89.2913 225.834L88.8338 226.241C88.2253 226.782 87.6182 227.323 87.0159 227.858C86.4136 228.394 85.8166 228.925 85.2264 229.45L85.0054 229.646L84.9779 229.671C84.9721 229.675 84.974 229.673 84.9721 229.674C84.9702 229.675 84.9682 229.676 84.9668 229.678C84.9654 229.682 84.9596 229.684 84.9552 229.686C84.9374 229.698 84.9094 229.712 84.8722 229.723C84.7969 229.742 84.6932 229.735 84.6299 229.712C84.5991 229.701 84.5793 229.687 84.5663 229.677C84.5648 229.675 84.5629 229.674 84.5604 229.674L84.5585 229.673L84.5465 229.662L84.5194 229.639L84.4133 229.545L84.2019 229.356C83.9205 229.105 83.6411 228.857 83.366 228.611C82.8135 228.12 82.2739 227.64 81.7479 227.173C81.2224 226.705 80.7113 226.25 80.2166 225.81L80.0313 225.645L79.9387 225.563C79.8793 225.512 79.819 225.463 79.7577 225.415C79.5125 225.229 79.2486 225.078 78.9807 224.974C78.4436 224.756 77.8925 224.69 77.3587 224.736C76.8255 224.784 76.2999 224.95 75.8318 225.248C75.714 225.319 75.604 225.406 75.4959 225.492C75.4365 225.541 75.3777 225.591 75.3188 225.64C75.2092 225.733 75.1016 225.824 74.9945 225.915C74.5674 226.277 74.1625 226.62 73.7812 226.942C73.0202 227.587 72.3566 228.149 71.8099 228.611C70.7158 229.538 70.0909 230.068 70.0904 230.068C69.8525 230.27 70.1005 230.961 70.6444 231.611C71.1892 232.261 71.8229 232.625 72.0618 232.423C72.0627 232.422 72.6882 231.893 73.7812 230.967C74.328 230.504 74.9921 229.942 75.7531 229.297C76.1339 228.974 76.5393 228.631 76.9664 228.269C77.073 228.179 77.1811 228.087 77.2907 227.995C77.3413 227.952 77.3935 227.908 77.4451 227.865C77.4538 227.864 77.4538 227.855 77.4639 227.853C77.4909 227.833 77.5522 227.809 77.6285 227.803C77.7028 227.796 77.7911 227.807 77.8437 227.832C77.8736 227.841 77.89 227.856 77.9045 227.865C77.9065 227.868 77.9098 227.87 77.9142 227.871L78.0049 227.951L78.1893 228.116C78.6839 228.555 79.1955 229.011 79.721 229.479C80.2466 229.946 80.7866 230.426 81.3387 230.917C81.6142 231.163 81.8936 231.411 82.175 231.661L82.3864 231.849L82.493 231.944L82.5196 231.968L82.5596 232.002L82.6653 232.088C82.9496 232.315 83.2671 232.49 83.5957 232.61C84.255 232.843 84.9533 232.876 85.6328 232.704C85.972 232.616 86.3065 232.473 86.6173 232.271C86.6955 232.221 86.7722 232.169 86.8451 232.109L86.9551 232.02L87.0072 231.976L87.0347 231.952L87.2557 231.755C87.8455 231.23 88.4429 230.699 89.0447 230.163C89.647 229.628 90.2541 229.088 90.8631 228.546L91.3201 228.139L91.5494 227.935L91.6063 227.885L91.6208 227.872C91.6237 227.87 91.6227 227.871 91.6237 227.87L91.6271 227.869C91.6319 227.868 91.6309 227.861 91.6377 227.86C91.6676 227.834 91.7603 227.804 91.8534 227.81C91.948 227.815 92.0175 227.851 92.0387 227.87C92.3442 228.142 92.6492 228.413 92.9537 228.683C93.5623 229.226 94.1694 229.765 94.7717 230.302C95.3735 230.837 95.9709 231.368 96.5611 231.893L96.6861 232.003C96.758 232.064 96.8323 232.122 96.9066 232.18C97.0601 232.286 97.2174 232.384 97.381 232.463C97.7073 232.623 98.0494 232.725 98.3926 232.776C99.0769 232.876 99.7761 232.771 100.416 232.457C100.575 232.38 100.728 232.283 100.877 232.18C100.949 232.125 101.021 232.068 101.091 232.009L101.162 231.948L101.215 231.9C101.357 231.773 101.499 231.648 101.639 231.522C101.921 231.272 102.2 231.023 102.476 230.778C103.028 230.287 103.568 229.807 104.093 229.339C104.619 228.871 105.13 228.417 105.625 227.976L105.717 227.894L105.74 227.873C105.748 227.866 105.744 227.871 105.746 227.869L105.752 227.867C105.754 227.859 105.766 227.858 105.771 227.851C105.79 227.843 105.812 227.831 105.842 227.822C105.903 227.807 105.984 227.802 106.045 227.818C106.109 227.829 106.142 227.858 106.16 227.869C106.379 228.062 106.591 228.252 106.798 228.436C107.216 228.808 107.613 229.16 107.986 229.493C108.732 230.156 109.382 230.734 109.917 231.21C110.989 232.163 111.601 232.707 111.602 232.708C111.852 232.875 112.472 232.529 113.014 231.913C113.557 231.296 113.822 230.636 113.628 230.406C113.625 230.407 113.013 229.862 111.942 228.909Z" fill="#26ABC4"/>
<path d="M125.661 413.497C125.658 413.497 122.229 413.497 117.573 413.496C117.625 411.432 117.883 409.398 118.306 407.507C118.449 406.929 118.556 406.352 118.737 405.806C118.819 405.532 118.9 405.259 118.98 404.991C119.02 404.857 119.06 404.723 119.1 404.59C119.14 404.458 119.193 404.33 119.238 404.201C119.427 403.687 119.61 403.188 119.789 402.704C119.995 402.231 120.195 401.774 120.387 401.335C120.566 400.891 120.796 400.49 120.991 400.098C121.195 399.71 121.373 399.335 121.565 398.995C121.966 398.322 122.314 397.734 122.601 397.25C123.234 396.316 123.597 395.781 123.597 395.781C123.693 395.564 123.238 395.028 122.555 394.561C121.871 394.094 121.199 393.88 121.021 394.069C121.02 394.069 120.629 394.647 119.943 395.658C119.631 396.184 119.253 396.821 118.818 397.552C118.609 397.922 118.412 398.331 118.192 398.754C117.979 399.181 117.731 399.618 117.533 400.104C117.323 400.583 117.105 401.082 116.879 401.599C116.684 402.129 116.483 402.676 116.275 403.239C116.225 403.38 116.168 403.521 116.123 403.666C116.079 403.812 116.036 403.957 115.992 404.105C115.903 404.4 115.815 404.698 115.725 404.999C115.529 405.598 115.407 406.23 115.252 406.865C114.782 408.96 114.499 411.217 114.447 413.496C111.098 413.495 107.42 413.495 104.042 413.495C103.99 411.216 103.706 408.959 103.237 406.864C103.082 406.229 102.96 405.598 102.764 404.999C102.674 404.697 102.585 404.399 102.497 404.105C102.452 403.957 102.408 403.811 102.365 403.665C102.32 403.52 102.263 403.38 102.213 403.239C102.006 402.676 101.805 402.129 101.609 401.599C101.384 401.082 101.165 400.583 100.956 400.103C100.758 399.617 100.51 399.18 100.297 398.753C100.076 398.331 99.8789 397.922 99.6704 397.552C99.2365 396.821 98.8579 396.183 98.5458 395.658C97.86 394.647 97.4686 394.069 97.4681 394.068C97.2891 393.88 96.6166 394.094 95.9333 394.561C95.25 395.028 94.7954 395.563 94.8906 395.78C94.8911 395.781 95.2534 396.315 95.887 397.25C96.1744 397.733 96.523 398.321 96.9228 398.995C97.1156 399.335 97.2935 399.71 97.4967 400.098C97.6914 400.489 97.9216 400.891 98.1006 401.335C98.2929 401.774 98.4926 402.23 98.6996 402.703C98.8771 403.187 99.061 403.687 99.2498 404.201C99.2957 404.33 99.3479 404.457 99.3889 404.59C99.4283 404.722 99.4677 404.856 99.5082 404.991C99.588 405.259 99.6694 405.531 99.7512 405.806C99.9322 406.352 100.04 406.929 100.183 407.507C100.605 409.397 100.863 411.431 100.915 413.495C96.022 413.494 92.3604 413.494 92.3589 413.494C92.1607 413.494 92 414.174 92 415.012C92 415.85 92.1602 416.53 92.3589 416.53C92.3609 416.53 95.9856 416.53 100.842 416.53C100.698 418.527 100.383 420.496 99.9465 422.339C99.3741 424.674 98.6281 426.807 97.8704 428.586C97.1082 430.364 96.3563 431.795 95.7948 432.768C95.5137 433.253 95.285 433.629 95.1253 433.879C94.9665 434.131 94.8797 434.26 94.8797 434.26C94.7486 434.46 95.2303 434.977 95.9343 435.464C96.6373 435.951 97.3616 436.13 97.5095 435.902C97.5095 435.902 97.6115 435.751 97.7885 435.47C97.967 435.19 98.2184 434.777 98.5251 434.248C99.135 433.19 99.9425 431.653 100.759 429.745C101.572 427.837 102.373 425.548 102.99 423.029C103.477 420.979 103.826 418.774 103.973 416.53C107.394 416.53 111.125 416.53 114.514 416.53C114.663 418.774 115.011 420.979 115.497 423.029C116.114 425.548 116.915 427.837 117.728 429.745C118.546 431.653 119.353 433.19 119.963 434.248C120.269 434.777 120.521 435.19 120.7 435.47C120.877 435.751 120.979 435.902 120.979 435.902C121.127 436.13 121.851 435.951 122.554 435.464C123.257 434.977 123.739 434.46 123.608 434.26C123.608 434.26 123.522 434.131 123.363 433.879C123.203 433.629 122.974 433.253 122.693 432.768C122.131 431.795 121.38 430.364 120.617 428.586C119.859 426.807 119.114 424.674 118.541 422.339C118.104 420.496 117.789 418.526 117.646 416.529C122.264 416.528 125.658 416.528 125.66 416.528C125.85 416.487 126 415.824 126 415.012C126 414.201 125.851 413.539 125.661 413.497Z" fill="#B28F58"/>
<path d="M57.5549 265.663C56.463 264.99 55.2975 264.651 54.0894 264.651C52.0234 264.651 50.1064 265.636 48.6677 267.346C48.5695 266.624 48.4549 265.865 48.3171 265.071C47.8291 262.245 47.079 258.99 45.9793 255.643C45.8482 255.221 45.6891 254.814 45.544 254.392C45.3922 253.971 45.2519 253.561 45.087 253.122C44.749 252.223 44.3273 251.303 43.79 250.444C42.7304 248.735 41.1064 247.139 38.907 247.001C38.818 246.995 38.73 247.015 38.641 247.021L38.4456 247.043C38.3189 247.055 38.1956 247.089 38.0708 247.113C37.9461 247.136 37.8242 247.175 37.7023 247.213C37.5805 247.251 37.4596 247.289 37.342 247.341C36.8657 247.527 36.4188 247.795 36.0107 248.109C35.1842 248.734 34.5274 249.555 33.9863 250.41C33.4471 251.268 33.022 252.187 32.682 253.086C32.6356 253.201 32.5964 253.308 32.5601 253.412L32.4479 253.729C32.3725 253.94 32.2975 254.149 32.223 254.358C32.0765 254.778 31.9193 255.187 31.7868 255.608C31.0677 257.792 30.5004 259.933 30.0555 261.945C29.8485 261.002 29.6183 260.052 29.363 259.109C29.231 258.633 29.0984 258.157 28.9674 257.682C28.83 257.211 28.6763 256.749 28.5341 256.285C28.256 255.353 27.9199 254.475 27.6176 253.611C27.5789 253.504 27.5412 253.396 27.5035 253.291C27.4643 253.183 27.4145 253.065 27.3724 252.954C27.2815 252.73 27.1979 252.506 27.1011 252.287C27.0001 252.069 26.9 251.853 26.8018 251.64C26.7027 251.426 26.5847 251.224 26.4778 251.02C26.0309 250.213 25.5207 249.487 24.9646 248.892C24.407 248.296 23.7962 247.849 23.2139 247.55C22.9271 247.39 22.6365 247.293 22.371 247.201C22.0992 247.128 21.8496 247.062 21.617 247.041C21.3878 247.003 21.1808 247.002 21.0004 247.002C20.82 246.995 20.6677 247.017 20.5444 247.029C20.2953 247.05 20.1657 247.086 20.1657 247.086C20.0656 247.107 20.0052 247.341 20.0003 247.698C19.9955 248.055 20.0463 248.534 20.1381 249.056C20.2305 249.577 20.3413 250.043 20.4302 250.379C20.5207 250.715 20.5913 250.92 20.6363 250.909C20.6363 250.909 20.6957 250.889 20.8094 250.884C20.866 250.879 20.9361 250.863 21.0183 250.871C21.1005 250.871 21.1948 250.867 21.3007 250.888C21.5126 250.91 21.7684 250.981 22.0556 251.131C22.3429 251.281 22.6645 251.504 22.9919 251.854C23.3179 252.204 23.6487 252.667 23.9611 253.231C24.036 253.377 24.1197 253.514 24.1927 253.671C24.2657 253.829 24.3388 253.988 24.4132 254.148C24.4853 254.313 24.5511 254.493 24.6226 254.667C24.6575 254.757 24.6933 254.838 24.7286 254.937C24.7643 255.036 24.8001 255.136 24.8354 255.236C25.1169 256.042 25.4332 256.863 25.6885 257.726C25.8215 258.155 25.9642 258.584 26.0919 259.022C26.2137 259.462 26.3366 259.903 26.4589 260.347C27.4218 263.894 28.0108 267.595 28.2778 270.379C28.4098 271.771 28.4741 272.933 28.5017 273.739C28.5128 274.141 28.5215 274.457 28.5215 274.666C28.5225 274.875 28.5229 274.985 28.5229 274.985C28.5491 275.087 28.817 275.171 29.2126 275.234C29.4549 275.301 29.7441 275.334 30.0545 275.317C30.8723 275.363 31.5436 275.205 31.5866 275.012C31.5866 275.012 31.5876 274.908 31.5866 274.723C31.5876 274.712 31.5905 274.702 31.5905 274.69C31.5905 274.69 31.5914 274.636 31.5924 274.531C31.5924 274.427 31.5953 274.27 31.6021 274.063C31.6069 273.858 31.6127 273.604 31.6287 273.303C31.6403 273.002 31.6572 272.656 31.6838 272.268C31.7859 270.717 31.9856 268.484 32.4445 265.854C32.8986 263.226 33.5984 260.2 34.6188 257.097C34.7417 256.708 34.8901 256.325 35.026 255.934C35.0962 255.739 35.1658 255.543 35.2359 255.346L35.3409 255.051C35.3762 254.95 35.4115 254.854 35.4463 254.77C35.7181 254.048 36.0295 253.39 36.3932 252.812C36.7554 252.238 37.1626 251.745 37.6022 251.417C37.8198 251.249 38.0442 251.113 38.2725 251.027C38.3291 251 38.3862 250.984 38.4437 250.966C38.5012 250.948 38.5578 250.927 38.6159 250.92C38.6734 250.91 38.7305 250.889 38.788 250.887L38.8683 250.878C38.8712 250.877 38.8751 250.876 38.8785 250.876L38.8838 250.877C38.8862 250.878 38.8828 250.877 38.9026 250.88L38.9897 250.888C39.0472 250.898 39.1048 250.913 39.1619 250.924C39.2204 250.93 39.2765 250.958 39.334 250.973C39.3916 250.986 39.4482 251.01 39.5052 251.035C39.6203 251.076 39.7311 251.144 39.8447 251.201C39.955 251.276 40.0681 251.339 40.176 251.431C40.6151 251.759 41.0204 252.26 41.3826 252.834C41.7458 253.414 42.0558 254.074 42.3266 254.797C42.4664 255.17 42.6071 255.579 42.7459 255.964C42.8808 256.356 43.0312 256.739 43.1521 257.13C44.1711 260.233 44.8694 263.259 45.3235 265.887C45.7012 268.066 45.9034 269.972 46.0189 271.443C45.9865 271.493 45.9551 271.541 45.9222 271.591C45.5518 272.167 45.1494 272.792 44.7243 273.453C44.5125 273.783 44.2939 274.122 44.0705 274.469C43.8485 274.825 43.6212 275.189 43.3905 275.558C43.1599 275.929 42.9258 276.308 42.6888 276.689C42.4465 277.071 42.2183 277.457 41.991 277.844C41.5311 278.62 41.0682 279.397 40.6006 280.156C39.6682 281.679 38.7063 283.072 37.7173 284.184C36.7337 285.302 35.6929 286.103 34.7417 286.698C33.7943 287.299 32.9223 287.653 32.3207 287.916C32.0175 288.041 31.7689 288.121 31.6055 288.185C31.4391 288.246 31.3511 288.278 31.3511 288.278C31.2341 288.376 31.3037 289.23 31.5136 290.23C31.7244 291.229 32.0103 292.002 32.1679 292C32.1684 292 32.2675 291.964 32.4537 291.896C32.6399 291.825 32.9132 291.737 33.2594 291.593C33.949 291.295 34.9448 290.891 36.0958 290.165C37.2419 289.454 38.5564 288.435 39.7523 287.077C40.9517 285.729 42.0427 284.127 43.0196 282.534C43.5109 281.736 43.9873 280.938 44.4477 280.16C44.5628 279.965 44.6779 279.771 44.7925 279.578C44.9057 279.387 45.0217 279.207 45.1354 279.023C45.3632 278.656 45.588 278.295 45.8091 277.939C46.0107 277.617 46.2076 277.301 46.4024 276.988C46.9417 279.773 48.4205 282.249 50.6185 283.601C51.7105 284.274 52.8765 284.614 54.0841 284.614C57.1366 284.614 59.8632 282.465 61.2018 279.007C63.1111 274.063 61.4775 268.075 57.5549 265.663ZM58.4061 277.291C57.5927 279.392 55.9363 280.697 54.0807 280.697C53.349 280.697 52.6415 280.489 51.9775 280.081C49.5952 278.615 48.6024 274.979 49.7645 271.974C49.8448 271.768 49.9357 271.57 50.0314 271.379C50.5005 270.66 50.7714 270.245 50.7723 270.244C50.7752 270.239 50.7762 270.232 50.7781 270.227C51.6539 269.175 52.8257 268.569 54.0899 268.569C54.8221 268.569 55.5296 268.775 56.1936 269.184C58.5754 270.65 59.5677 274.286 58.4061 277.291Z" fill="#2E4094"/>
<path d="M68.9861 82.8963C68.9214 81.6459 68.5435 80.4111 67.9146 79.3261C67.2815 78.2433 66.4033 77.3077 65.3686 76.5978C64.3335 75.8878 63.1467 75.3978 61.9118 75.1635C61.2911 75.0482 60.6723 74.9936 60.0342 75.0027C59.3759 75.014 58.7203 75.1183 58.0984 75.3015C56.8496 75.6686 55.7468 76.338 54.8283 77.1522C53.9071 77.9691 53.1555 78.9335 52.5739 79.9867C52.5483 80.033 52.5251 80.0804 52.5003 80.1278C52.4651 80.0622 52.4317 79.9966 52.3957 79.9321C51.8087 78.8835 51.0528 77.9236 50.1274 77.112C49.2046 76.3039 48.0963 75.6417 46.8448 75.2837C46.2222 75.1051 45.5662 75.0057 44.9083 75.0004C44.2768 74.9947 43.6533 75.0512 43.0361 75.1726C41.8043 75.413 40.621 75.9083 39.5906 76.6228C38.5632 77.3403 37.6865 78.2755 37.0631 79.3632C36.4405 80.4498 36.066 81.6853 36.0106 82.935C35.9967 83.2562 35.9975 83.5402 36.0071 83.8288C36.0161 84.1182 36.035 84.406 36.0586 84.692C36.1082 85.2643 36.1884 85.8301 36.2898 86.3899C36.3886 86.9508 36.5233 87.5014 36.6658 88.0491C36.818 88.5937 36.9806 89.1345 37.1715 89.6647C37.5464 90.7273 37.9948 91.7588 38.5009 92.7589C39.5108 94.7606 40.7592 96.6227 42.1412 98.3645C43.5263 100.105 45.0601 101.716 46.6764 103.227C47.0799 103.607 47.4985 103.969 47.9089 104.341L49.1717 105.415L50.465 106.452L52.5003 108C53.1795 107.484 53.8579 106.967 54.5371 106.45L55.8308 105.413C56.2525 105.054 56.6777 104.699 57.0963 104.337C57.5067 103.965 57.9265 103.603 58.3288 103.223C59.9474 101.709 61.4832 100.096 62.869 98.352C64.2514 96.6079 65.5002 94.7427 66.5097 92.7384C67.0158 91.7365 67.4635 90.703 67.8379 89.6385C68.0277 89.1075 68.1907 88.566 68.3429 88.0206C68.4834 87.4715 68.6178 86.9201 68.7158 86.3584C68.8161 85.7975 68.8955 85.2309 68.9435 84.6586C68.9675 84.3715 68.9853 84.0837 68.9934 83.7943C68.9981 83.6491 69 83.5038 69 83.3593C68.9992 83.2148 68.9903 83.0499 68.9861 82.8963ZM52.4995 105.051L52.5003 105.052L52.4995 105.051ZM66.6147 83.7276C66.6085 83.9729 66.5926 84.2202 66.5729 84.4671C66.5314 84.9616 66.4621 85.4573 66.3731 85.9515C66.2875 86.4464 66.1671 86.9379 66.042 87.4275C65.9049 87.916 65.7601 88.4025 65.5878 88.8826C65.2501 89.844 64.842 90.7865 64.3777 91.705C63.4518 93.5451 62.2909 95.2828 60.9918 96.9207C59.6903 98.5591 58.2336 100.089 56.6893 101.535C56.3048 101.897 55.9032 102.244 55.5106 102.6L54.2982 103.631L53.0536 104.63L52.4995 105.051L51.9466 104.631L50.7039 103.634L49.4923 102.603C49.1004 102.248 48.6993 101.901 48.3148 101.54C46.7728 100.097 45.318 98.5678 44.0161 96.9325C42.7178 95.2961 41.5577 93.561 40.6314 91.7239C40.1667 90.8066 39.7582 89.866 39.4198 88.9054C39.2471 88.4264 39.1023 87.9398 38.9648 87.4529C38.8389 86.964 38.7173 86.4733 38.6314 85.9791C38.5419 85.4854 38.4715 84.9901 38.4296 84.4959C38.4091 84.2498 38.3929 84.0021 38.3859 83.7572C38.3758 83.5122 38.3774 83.2603 38.3874 83.0468C38.4258 82.1567 38.6918 81.2852 39.1359 80.5066C39.5828 79.7269 40.2179 79.0477 40.9683 78.5228C41.7222 78.0014 42.5908 77.6369 43.5015 77.4583C43.955 77.3688 44.4262 77.3263 44.8866 77.3305C45.3207 77.3346 45.7548 77.4003 46.1804 77.5212C47.0299 77.7643 47.8392 78.2346 48.542 78.8505C49.9457 80.0834 50.9525 81.8734 51.2364 83.684C51.2735 83.9426 51.4261 84.1599 51.6507 84.3287C51.8428 84.4743 52.0979 84.5835 52.3787 84.6097C52.4182 84.6135 52.4589 84.6158 52.4995 84.6154C52.5394 84.6154 52.5789 84.6135 52.618 84.6101C52.6242 84.6097 52.63 84.6082 52.6362 84.6078C52.9011 84.5809 53.1419 84.4796 53.3278 84.3446C53.5485 84.1849 53.7034 83.9775 53.7553 83.7336C53.8862 82.8276 54.2072 81.9227 54.6657 81.0922C55.1241 80.2617 55.7216 79.4998 56.4229 78.8785C57.1234 78.2577 57.9315 77.7806 58.7815 77.5311C59.2067 77.4063 59.6411 77.3381 60.076 77.3308C60.5317 77.3236 61.0069 77.3642 61.4611 77.4496C62.3742 77.6225 63.2454 77.9843 64.0032 78.5031C64.7599 79.0219 65.3953 79.703 65.8495 80.4786C66.2987 81.2572 66.5667 82.1287 66.6128 83.0191C66.6151 83.1333 66.622 83.2361 66.6216 83.3593C66.6209 83.4822 66.6189 83.6047 66.6147 83.7276Z" fill="#FC7B8F"/>
<path d="M18.2188 418.158C18.2188 417.221 18.4922 416.439 19.0391 415.814C19.6055 415.189 20.4453 414.877 21.5586 414.877C22.6719 414.877 23.5117 415.189 24.0781 415.814C24.6641 416.439 24.957 417.221 24.957 418.158C24.957 419.057 24.6641 419.809 24.0781 420.414C23.5117 421.02 22.6719 421.322 21.5586 421.322C20.4453 421.322 19.6055 421.02 19.0391 420.414C18.4922 419.809 18.2188 419.057 18.2188 418.158Z" fill="#F5FDFC"/>
<path d="M303.219 477.158C303.219 476.221 303.492 475.439 304.039 474.814C304.605 474.189 305.445 473.877 306.559 473.877C307.672 473.877 308.512 474.189 309.078 474.814C309.664 475.439 309.957 476.221 309.957 477.158C309.957 478.057 309.664 478.809 309.078 479.414C308.512 480.02 307.672 480.322 306.559 480.322C305.445 480.322 304.605 480.02 304.039 479.414C303.492 478.809 303.219 478.057 303.219 477.158Z" fill="#F5FDFC"/>
<path d="M353.219 422.158C353.219 421.221 353.492 420.439 354.039 419.814C354.605 419.189 355.445 418.877 356.559 418.877C357.672 418.877 358.512 419.189 359.078 419.814C359.664 420.439 359.957 421.221 359.957 422.158C359.957 423.057 359.664 423.809 359.078 424.414C358.512 425.02 357.672 425.322 356.559 425.322C355.445 425.322 354.605 425.02 354.039 424.414C353.492 423.809 353.219 423.057 353.219 422.158Z" fill="#F5FDFC"/>
<path d="M116.219 487.158C116.219 486.221 116.492 485.439 117.039 484.814C117.605 484.189 118.445 483.877 119.559 483.877C120.672 483.877 121.512 484.189 122.078 484.814C122.664 485.439 122.957 486.221 122.957 487.158C122.957 488.057 122.664 488.809 122.078 489.414C121.512 490.02 120.672 490.322 119.559 490.322C118.445 490.322 117.605 490.02 117.039 489.414C116.492 488.809 116.219 488.057 116.219 487.158Z" fill="#F5FDFC"/>
<path d="M324.219 715.158C324.219 714.221 324.492 713.439 325.039 712.814C325.605 712.189 326.445 711.877 327.559 711.877C328.672 711.877 329.512 712.189 330.078 712.814C330.664 713.439 330.957 714.221 330.957 715.158C330.957 716.057 330.664 716.809 330.078 717.414C329.512 718.02 328.672 718.322 327.559 718.322C326.445 718.322 325.605 718.02 325.039 717.414C324.492 716.809 324.219 716.057 324.219 715.158Z" fill="#F5FDFC"/>
<path d="M88.2188 181.158C88.2188 180.221 88.4922 179.439 89.0391 178.814C89.6055 178.189 90.4453 177.877 91.5586 177.877C92.6719 177.877 93.5117 178.189 94.0781 178.814C94.6641 179.439 94.957 180.221 94.957 181.158C94.957 182.057 94.6641 182.809 94.0781 183.414C93.5117 184.02 92.6719 184.322 91.5586 184.322C90.4453 184.322 89.6055 184.02 89.0391 183.414C88.4922 182.809 88.2188 182.057 88.2188 181.158Z" fill="#F5FDFC"/>
<path d="M65.2188 336.158C65.2188 335.221 65.4922 334.439 66.0391 333.814C66.6055 333.189 67.4453 332.877 68.5586 332.877C69.6719 332.877 70.5117 333.189 71.0781 333.814C71.6641 334.439 71.957 335.221 71.957 336.158C71.957 337.057 71.6641 337.809 71.0781 338.414C70.5117 339.02 69.6719 339.322 68.5586 339.322C67.4453 339.322 66.6055 339.02 66.0391 338.414C65.4922 337.809 65.2188 337.057 65.2188 336.158Z" fill="#F5FDFC"/>
<path d="M250.219 459.158C250.219 458.221 250.492 457.439 251.039 456.814C251.605 456.189 252.445 455.877 253.559 455.877C254.672 455.877 255.512 456.189 256.078 456.814C256.664 457.439 256.957 458.221 256.957 459.158C256.957 460.057 256.664 460.809 256.078 461.414C255.512 462.02 254.672 462.322 253.559 462.322C252.445 462.322 251.605 462.02 251.039 461.414C250.492 460.809 250.219 460.057 250.219 459.158Z" fill="#F5FDFC"/>
<path d="M230.219 529.158C230.219 528.221 230.492 527.439 231.039 526.814C231.605 526.189 232.445 525.877 233.559 525.877C234.672 525.877 235.512 526.189 236.078 526.814C236.664 527.439 236.957 528.221 236.957 529.158C236.957 530.057 236.664 530.809 236.078 531.414C235.512 532.02 234.672 532.322 233.559 532.322C232.445 532.322 231.605 532.02 231.039 531.414C230.492 530.809 230.219 530.057 230.219 529.158Z" fill="#F5FDFC"/>
<path d="M124.219 529.158C124.219 528.221 124.492 527.439 125.039 526.814C125.605 526.189 126.445 525.877 127.559 525.877C128.672 525.877 129.512 526.189 130.078 526.814C130.664 527.439 130.957 528.221 130.957 529.158C130.957 530.057 130.664 530.809 130.078 531.414C129.512 532.02 128.672 532.322 127.559 532.322C126.445 532.322 125.605 532.02 125.039 531.414C124.492 530.809 124.219 530.057 124.219 529.158Z" fill="#F5FDFC"/>
<path d="M332.219 527.158C332.219 526.221 332.492 525.439 333.039 524.814C333.605 524.189 334.445 523.877 335.559 523.877C336.672 523.877 337.512 524.189 338.078 524.814C338.664 525.439 338.957 526.221 338.957 527.158C338.957 528.057 338.664 528.809 338.078 529.414C337.512 530.02 336.672 530.322 335.559 530.322C334.445 530.322 333.605 530.02 333.039 529.414C332.492 528.809 332.219 528.057 332.219 527.158Z" fill="#F5FDFC"/>
<path d="M196.219 433.158C196.219 432.221 196.492 431.439 197.039 430.814C197.605 430.189 198.445 429.877 199.559 429.877C200.672 429.877 201.512 430.189 202.078 430.814C202.664 431.439 202.957 432.221 202.957 433.158C202.957 434.057 202.664 434.809 202.078 435.414C201.512 436.02 200.672 436.322 199.559 436.322C198.445 436.322 197.605 436.02 197.039 435.414C196.492 434.809 196.219 434.057 196.219 433.158Z" fill="#F5FDFC"/>
<path d="M376.219 301.158C376.219 300.221 376.492 299.439 377.039 298.814C377.605 298.189 378.445 297.877 379.559 297.877C380.672 297.877 381.512 298.189 382.078 298.814C382.664 299.439 382.957 300.221 382.957 301.158C382.957 302.057 382.664 302.809 382.078 303.414C381.512 304.02 380.672 304.322 379.559 304.322C378.445 304.322 377.605 304.02 377.039 303.414C376.492 302.809 376.219 302.057 376.219 301.158Z" fill="#F5FDFC"/>
<path d="M347.219 273.158C347.219 272.221 347.492 271.439 348.039 270.814C348.605 270.189 349.445 269.877 350.559 269.877C351.672 269.877 352.512 270.189 353.078 270.814C353.664 271.439 353.957 272.221 353.957 273.158C353.957 274.057 353.664 274.809 353.078 275.414C352.512 276.02 351.672 276.322 350.559 276.322C349.445 276.322 348.605 276.02 348.039 275.414C347.492 274.809 347.219 274.057 347.219 273.158Z" fill="#F5FDFC"/>
<path d="M377.219 243.158C377.219 242.221 377.492 241.439 378.039 240.814C378.605 240.189 379.445 239.877 380.559 239.877C381.672 239.877 382.512 240.189 383.078 240.814C383.664 241.439 383.957 242.221 383.957 243.158C383.957 244.057 383.664 244.809 383.078 245.414C382.512 246.02 381.672 246.322 380.559 246.322C379.445 246.322 378.605 246.02 378.039 245.414C377.492 244.809 377.219 244.057 377.219 243.158Z" fill="#F5FDFC"/>
<path d="M373.219 506.158C373.219 505.221 373.492 504.439 374.039 503.814C374.605 503.189 375.445 502.877 376.559 502.877C377.672 502.877 378.512 503.189 379.078 503.814C379.664 504.439 379.957 505.221 379.957 506.158C379.957 507.057 379.664 507.809 379.078 508.414C378.512 509.02 377.672 509.322 376.559 509.322C375.445 509.322 374.605 509.02 374.039 508.414C373.492 507.809 373.219 507.057 373.219 506.158Z" fill="#F5FDFC"/>
<path d="M363.219 612.158C363.219 611.221 363.492 610.439 364.039 609.814C364.605 609.189 365.445 608.877 366.559 608.877C367.672 608.877 368.512 609.189 369.078 609.814C369.664 610.439 369.957 611.221 369.957 612.158C369.957 613.057 369.664 613.809 369.078 614.414C368.512 615.02 367.672 615.322 366.559 615.322C365.445 615.322 364.605 615.02 364.039 614.414C363.492 613.809 363.219 613.057 363.219 612.158Z" fill="#F5FDFC"/>
<path d="M378.219 570.158C378.219 569.221 378.492 568.439 379.039 567.814C379.605 567.189 380.445 566.877 381.559 566.877C382.672 566.877 383.512 567.189 384.078 567.814C384.664 568.439 384.957 569.221 384.957 570.158C384.957 571.057 384.664 571.809 384.078 572.414C383.512 573.02 382.672 573.322 381.559 573.322C380.445 573.322 379.605 573.02 379.039 572.414C378.492 571.809 378.219 571.057 378.219 570.158Z" fill="#F5FDFC"/>
<path d="M271.219 501.158C271.219 500.221 271.492 499.439 272.039 498.814C272.605 498.189 273.445 497.877 274.559 497.877C275.672 497.877 276.512 498.189 277.078 498.814C277.664 499.439 277.957 500.221 277.957 501.158C277.957 502.057 277.664 502.809 277.078 503.414C276.512 504.02 275.672 504.322 274.559 504.322C273.445 504.322 272.605 504.02 272.039 503.414C271.492 502.809 271.219 502.057 271.219 501.158Z" fill="#F5FDFC"/>
<path d="M197.219 480.158C197.219 479.221 197.492 478.439 198.039 477.814C198.605 477.189 199.445 476.877 200.559 476.877C201.672 476.877 202.512 477.189 203.078 477.814C203.664 478.439 203.957 479.221 203.957 480.158C203.957 481.057 203.664 481.809 203.078 482.414C202.512 483.02 201.672 483.322 200.559 483.322C199.445 483.322 198.605 483.02 198.039 482.414C197.492 481.809 197.219 481.057 197.219 480.158Z" fill="#F5FDFC"/>
<path d="M287.219 432.158C287.219 431.221 287.492 430.439 288.039 429.814C288.605 429.189 289.445 428.877 290.559 428.877C291.672 428.877 292.512 429.189 293.078 429.814C293.664 430.439 293.957 431.221 293.957 432.158C293.957 433.057 293.664 433.809 293.078 434.414C292.512 435.02 291.672 435.322 290.559 435.322C289.445 435.322 288.605 435.02 288.039 434.414C287.492 433.809 287.219 433.057 287.219 432.158Z" fill="#F5FDFC"/>
<path d="M88.2188 710.158C88.2188 709.221 88.4922 708.439 89.0391 707.814C89.6055 707.189 90.4453 706.877 91.5586 706.877C92.6719 706.877 93.5117 707.189 94.0781 707.814C94.6641 708.439 94.957 709.221 94.957 710.158C94.957 711.057 94.6641 711.809 94.0781 712.414C93.5117 713.02 92.6719 713.322 91.5586 713.322C90.4453 713.322 89.6055 713.02 89.0391 712.414C88.4922 711.809 88.2188 711.057 88.2188 710.158Z" fill="#F5FDFC"/>
<path d="M266.219 625.158C266.219 624.221 266.492 623.439 267.039 622.814C267.605 622.189 268.445 621.877 269.559 621.877C270.672 621.877 271.512 622.189 272.078 622.814C272.664 623.439 272.957 624.221 272.957 625.158C272.957 626.057 272.664 626.809 272.078 627.414C271.512 628.02 270.672 628.322 269.559 628.322C268.445 628.322 267.605 628.02 267.039 627.414C266.492 626.809 266.219 626.057 266.219 625.158Z" fill="#F5FDFC"/>
<path d="M286.219 694.158C286.219 693.221 286.492 692.439 287.039 691.814C287.605 691.189 288.445 690.877 289.559 690.877C290.672 690.877 291.512 691.189 292.078 691.814C292.664 692.439 292.957 693.221 292.957 694.158C292.957 695.057 292.664 695.809 292.078 696.414C291.512 697.02 290.672 697.322 289.559 697.322C288.445 697.322 287.605 697.02 287.039 696.414C286.492 695.809 286.219 695.057 286.219 694.158Z" fill="#F5FDFC"/>
<path d="M80.2188 519.158C80.2188 518.221 80.4922 517.439 81.0391 516.814C81.6055 516.189 82.4453 515.877 83.5586 515.877C84.6719 515.877 85.5117 516.189 86.0781 516.814C86.6641 517.439 86.957 518.221 86.957 519.158C86.957 520.057 86.6641 520.809 86.0781 521.414C85.5117 522.02 84.6719 522.322 83.5586 522.322C82.4453 522.322 81.6055 522.02 81.0391 521.414C80.4922 520.809 80.2188 520.057 80.2188 519.158Z" fill="#F5FDFC"/>
<path d="M153.219 702.158C153.219 701.221 153.492 700.439 154.039 699.814C154.605 699.189 155.445 698.877 156.559 698.877C157.672 698.877 158.512 699.189 159.078 699.814C159.664 700.439 159.957 701.221 159.957 702.158C159.957 703.057 159.664 703.809 159.078 704.414C158.512 705.02 157.672 705.322 156.559 705.322C155.445 705.322 154.605 705.02 154.039 704.414C153.492 703.809 153.219 703.057 153.219 702.158Z" fill="#F5FDFC"/>
<path d="M202.219 535.158C202.219 534.221 202.492 533.439 203.039 532.814C203.605 532.189 204.445 531.877 205.559 531.877C206.672 531.877 207.512 532.189 208.078 532.814C208.664 533.439 208.957 534.221 208.957 535.158C208.957 536.057 208.664 536.809 208.078 537.414C207.512 538.02 206.672 538.322 205.559 538.322C204.445 538.322 203.605 538.02 203.039 537.414C202.492 536.809 202.219 536.057 202.219 535.158Z" fill="#F5FDFC"/>
<path d="M24.2188 603.158C24.2188 602.221 24.4922 601.439 25.0391 600.814C25.6055 600.189 26.4453 599.877 27.5586 599.877C28.6719 599.877 29.5117 600.189 30.0781 600.814C30.6641 601.439 30.957 602.221 30.957 603.158C30.957 604.057 30.6641 604.809 30.0781 605.414C29.5117 606.02 28.6719 606.322 27.5586 606.322C26.4453 606.322 25.6055 606.02 25.0391 605.414C24.4922 604.809 24.2188 604.057 24.2188 603.158Z" fill="#F5FDFC"/>
<path d="M57.1896 490.081C57.1962 490.026 57.1849 489.96 57.1557 489.886L56.9326 488.607L34.9431 487C34.7017 487.013 34.4585 487.484 34.392 488.077C34.3254 488.67 34.4598 489.168 34.6947 489.216L52.8045 490.541C48.7852 493.788 40.4334 500.534 33.4473 506.177C30.0404 503.424 26.964 500.938 26.9627 500.937C26.8705 500.863 26.3586 501.155 25.8205 501.591C25.2816 502.025 24.9198 502.439 25.012 502.513C25.0133 502.515 28.0901 504.999 31.4979 507.752C26.1746 512.052 22.0661 515.371 22.0635 515.373C21.8664 515.532 22.1435 516.014 22.682 516.449C23.2204 516.884 23.8172 517.108 24.0142 516.949C24.0164 516.947 28.1253 513.627 33.4477 509.327C37.0621 512.247 40.4686 514.998 40.4704 514.999C40.5847 515.049 41.081 514.761 41.6025 514.34C42.124 513.919 42.4798 513.518 42.4185 513.425C42.4172 513.424 39.0115 510.672 35.3972 507.752C42.385 502.107 50.7403 495.357 54.7579 492.111L57.2666 506.561C57.3014 506.76 57.9412 506.853 58.6954 506.768C59.4496 506.682 60.0333 506.451 59.9985 506.251L57.1896 490.081Z" fill="#F67791"/>
<path d="M363.112 142.59C363.022 142.492 362.324 143.094 361.554 143.936C360.782 144.777 360.229 145.537 360.319 145.636L364.433 150.122C363.709 150.103 362.892 150.063 362.008 149.963C361.71 149.921 361.398 149.893 361.088 149.835C360.933 149.809 360.775 149.782 360.614 149.754C360.457 149.722 360.297 149.688 360.136 149.654C359.495 149.513 358.833 149.334 358.2 149.078C357.566 148.826 356.942 148.513 356.422 148.11C355.893 147.716 355.472 147.238 355.218 146.734C355.091 146.487 355.006 146.213 354.978 146.009C354.977 146.003 354.976 145.996 354.976 145.991C355.211 145.995 355.312 145.995 354.975 145.982C354.973 145.968 354.971 145.955 354.972 145.948C354.971 145.942 354.969 145.931 354.97 145.933C354.97 145.933 354.972 145.933 354.97 145.933L354.97 145.898L354.97 145.849V145.752V145.557C354.97 145.296 354.97 145.034 354.97 144.771C354.968 143.717 354.967 142.64 354.965 141.544C354.954 137.164 354.932 132.488 354.857 127.803C354.818 125.459 354.765 123.114 354.684 120.797C354.602 118.48 354.494 116.193 354.311 113.953C354.222 112.835 354.106 111.725 353.954 110.621C353.802 109.518 353.608 108.419 353.285 107.284C353.197 106.996 353.104 106.71 353.001 106.42C352.876 106.12 352.778 105.836 352.61 105.527C352.528 105.374 352.467 105.23 352.364 105.075C352.266 104.921 352.167 104.769 352.066 104.618C351.949 104.467 351.822 104.317 351.698 104.173C351.576 104.027 351.412 103.892 351.267 103.758C351.123 103.621 350.947 103.514 350.781 103.403C350.614 103.286 350.44 103.205 350.265 103.123C350.088 103.034 349.918 102.978 349.748 102.925C349.662 102.9 349.576 102.871 349.493 102.85L349.253 102.801L349.015 102.756C348.936 102.742 348.867 102.738 348.794 102.729C348.652 102.716 348.495 102.695 348.368 102.695C348.235 102.691 348.103 102.688 347.972 102.684C347.804 102.692 347.638 102.702 347.471 102.717C346.815 102.797 346.206 103.001 345.697 103.271C345.192 103.543 344.746 103.855 344.377 104.184C343.621 104.838 343.07 105.522 342.604 106.17C342.326 106.562 342.081 106.941 341.858 107.309C341.843 107.259 341.831 107.21 341.817 107.159C341.741 106.925 341.667 106.694 341.587 106.463C341.488 106.22 341.399 105.986 341.288 105.745L341.101 105.376L341.006 105.192C340.971 105.131 340.929 105.067 340.89 105.006L340.646 104.637C340.557 104.513 340.451 104.39 340.351 104.271L340.197 104.093C340.14 104.036 340.078 103.98 340.018 103.924C339.896 103.814 339.779 103.7 339.646 103.603C339.511 103.507 339.374 103.416 339.236 103.329C339.098 103.244 338.954 103.181 338.811 103.113C338.243 102.861 337.678 102.748 337.221 102.714L337.042 102.699L336.879 102.693C336.77 102.689 336.662 102.687 336.554 102.684C336.418 102.689 336.278 102.698 336.141 102.709C336.003 102.717 335.868 102.731 335.738 102.762C335.606 102.789 335.475 102.816 335.345 102.846C335.217 102.879 335.099 102.924 334.976 102.965C334.727 103.045 334.512 103.153 334.291 103.26C333.429 103.703 332.801 104.276 332.27 104.83C331.88 105.247 331.544 105.661 331.246 106.068C331.228 106.012 331.21 105.957 331.192 105.902C331.167 105.832 331.142 105.764 331.117 105.696C331.066 105.558 331.01 105.435 330.957 105.311C330.845 105.067 330.73 104.841 330.609 104.635C330.369 104.223 330.123 103.874 329.885 103.585C329.408 103 328.985 102.625 328.696 102.384C328.549 102.264 328.437 102.175 328.361 102.113C328.283 102.058 328.243 102.028 328.243 102.027C328.121 101.941 327.889 102.064 327.625 102.344C327.36 102.621 327.064 103.054 326.784 103.565C326.503 104.074 326.287 104.563 326.149 104.932C326.014 105.3 325.96 105.548 326.032 105.599C326.032 105.599 326.058 105.614 326.102 105.649C326.145 105.683 326.21 105.736 326.293 105.804C326.46 105.941 326.69 106.149 326.926 106.439C327.045 106.582 327.159 106.748 327.264 106.927C327.318 107.019 327.365 107.111 327.41 107.208C327.428 107.255 327.453 107.304 327.469 107.35L327.495 107.42C327.501 107.437 327.512 107.475 327.509 107.464C327.51 107.463 327.509 107.463 327.509 107.463C327.509 107.663 327.509 107.871 327.509 108.083C327.509 108.538 327.509 109.016 327.509 109.516C327.509 113.512 327.509 118.84 327.51 124.169C327.51 134.825 327.512 145.48 327.512 145.484C327.566 145.727 328.428 145.921 329.484 145.921C330.541 145.921 331.403 145.729 331.457 145.486C331.457 145.482 331.457 134.825 331.459 124.169C331.459 120.869 331.459 117.566 331.459 114.583C331.487 114.562 331.507 114.538 331.518 114.509C331.518 114.508 331.584 114.322 331.71 113.973C331.839 113.625 332.033 113.113 332.306 112.479C332.578 111.846 332.929 111.089 333.374 110.281C333.82 109.485 334.37 108.608 335.017 107.926C335.336 107.589 335.679 107.301 335.977 107.157C336.05 107.125 336.124 107.079 336.189 107.065C336.223 107.056 336.256 107.037 336.288 107.03C336.319 107.026 336.349 107.021 336.379 107.013C336.41 107.001 336.439 107.001 336.467 107.003C336.496 107.001 336.522 106.997 336.553 106.992L336.732 106.997L336.821 107L336.895 107.008C337.114 107.02 337.231 107.066 337.308 107.097C337.383 107.123 337.407 107.151 337.487 107.239C337.505 107.264 337.526 107.278 337.547 107.308C337.569 107.347 337.591 107.382 337.616 107.418C337.628 107.437 337.64 107.45 337.654 107.473L337.689 107.548L337.767 107.698C337.818 107.809 337.866 107.945 337.921 108.067C337.969 108.212 338.016 108.358 338.064 108.504C338.247 109.123 338.391 109.845 338.518 110.593C338.635 111.354 338.739 112.14 338.819 112.952C338.984 114.572 339.094 116.257 339.181 117.948C339.346 121.337 339.427 124.759 339.479 127.971C339.531 131.184 339.552 134.187 339.568 136.764C339.582 141.919 339.591 145.356 339.591 145.359C339.646 145.672 340.508 145.921 341.564 145.921C342.62 145.921 343.483 145.672 343.536 145.357C343.536 145.355 343.528 141.908 343.516 136.738C343.501 134.151 343.479 131.133 343.426 127.894C343.373 124.655 343.293 121.196 343.124 117.712C343.068 116.629 343.002 115.543 342.918 114.457C342.962 114.421 342.995 114.377 343.013 114.327C343.013 114.327 343.1 114.073 343.281 113.603C343.463 113.132 343.735 112.442 344.131 111.604C344.525 110.772 345.04 109.773 345.715 108.826C346.051 108.355 346.432 107.901 346.826 107.564C347.022 107.386 347.218 107.265 347.399 107.162C347.58 107.063 347.736 107.028 347.876 107.005C347.91 107.005 347.944 107.002 347.978 106.995C348.05 106.996 348.121 106.999 348.194 107.001C348.273 106.999 348.32 107.013 348.384 107.016C348.413 107.019 348.448 107.019 348.472 107.024L348.541 107.039C348.73 107.081 348.779 107.114 348.845 107.165C348.86 107.19 348.881 107.185 348.903 107.221C348.924 107.251 348.947 107.274 348.975 107.305C349 107.352 349.028 107.396 349.059 107.439C349.091 107.477 349.119 107.556 349.151 107.612C349.217 107.719 349.274 107.9 349.341 108.047C349.401 108.218 349.46 108.401 349.519 108.59C349.741 109.37 349.916 110.299 350.049 111.276C350.183 112.255 350.293 113.284 350.376 114.345C350.55 116.464 350.656 118.694 350.737 120.968C350.817 123.242 350.869 125.561 350.907 127.884C350.982 132.533 351.005 137.19 351.015 141.56C351.016 142.653 351.018 143.727 351.02 144.779C351.02 145.042 351.02 145.302 351.02 145.563V145.916L351.021 146.064L351.025 146.16C351.028 146.226 351.033 146.279 351.038 146.336C351.046 146.454 351.06 146.552 351.073 146.66C351.191 147.473 351.436 148.167 351.75 148.798C352.384 150.056 353.276 150.981 354.169 151.653C355.067 152.337 355.981 152.782 356.852 153.131C357.726 153.481 358.563 153.706 359.354 153.88C359.552 153.921 359.747 153.962 359.939 154.002C360.131 154.035 360.32 154.067 360.507 154.099C360.881 154.169 361.24 154.201 361.589 154.249C362.665 154.373 363.621 154.415 364.455 154.433C363.073 155.941 361.691 157.448 360.31 158.954C360.263 159.089 360.805 159.828 361.552 160.642C362.299 161.457 362.976 162.048 363.1 161.997L372 152.293C369.038 149.053 366.075 145.821 363.112 142.59Z" fill="#25B0C5"/>
<path d="M64.9074 690.097C64.8403 689.754 64.7144 689.418 64.5644 689.086C64.4062 688.755 64.2085 688.435 63.9781 688.126C63.7411 687.822 63.4743 687.527 63.1732 687.253C62.8686 686.982 62.5383 686.723 62.1763 686.49C61.8113 686.258 61.4237 686.043 61.0084 685.857C60.5917 685.673 60.1529 685.51 59.6926 685.38C59.2307 685.252 58.7515 685.151 58.2579 685.085C57.7633 685.024 57.2574 684.993 56.7475 685.001C56.238 685.014 55.726 685.059 55.2211 685.144C54.7199 685.234 54.2207 685.349 53.7455 685.508C52.7891 685.818 51.9197 686.266 51.1471 686.781C49.6105 687.827 48.4923 689.14 47.6382 690.485C47.5363 690.652 47.4283 690.823 47.3321 690.987L47.0581 691.473C46.8753 691.798 46.6931 692.122 46.5108 692.446C46.1314 693.087 45.8221 693.752 45.4939 694.403C45.3347 694.731 45.1616 695.053 45.0167 695.381C44.8729 695.709 44.729 696.036 44.5871 696.36C44.4453 696.686 44.305 697.009 44.1652 697.329C44.0408 697.654 43.9174 697.976 43.794 698.296C43.281 699.63 42.855 700.93 42.5002 702.171C42.1454 700.93 41.7183 699.629 41.2058 698.296C41.0834 697.976 40.9595 697.654 40.8346 697.329C40.6953 697.009 40.5545 696.686 40.4127 696.361C40.2709 696.036 40.127 695.709 39.9831 695.381C39.8382 695.053 39.6652 694.731 39.5064 694.403C39.1777 693.752 38.8685 693.087 38.4891 692.446C38.3073 692.122 38.1245 691.798 37.9422 691.473L37.6678 690.987C37.5715 690.823 37.463 690.652 37.3616 690.485C36.5076 689.14 35.3893 687.826 33.8528 686.781C33.0802 686.266 32.2108 685.818 31.2538 685.508C30.7792 685.349 30.28 685.234 29.7787 685.144C29.2739 685.059 28.7618 685.014 28.2524 685.001C27.7424 684.993 27.2366 685.024 26.7419 685.085C26.2479 685.151 25.7686 685.252 25.3073 685.38C24.847 685.51 24.4082 685.673 23.9914 685.857C23.5757 686.043 23.1881 686.258 22.824 686.49C22.461 686.723 22.1308 686.982 21.8261 687.253C21.5245 687.527 21.2583 687.822 21.0217 688.126C20.7908 688.435 20.5932 688.755 20.435 689.086C20.2849 689.418 20.159 689.754 20.0919 690.097C19.9419 690.779 19.9849 691.464 20.1528 692.083C20.3244 692.704 20.6331 693.252 20.9823 693.717C21.333 694.183 21.7309 694.566 22.1205 694.884C22.3125 695.049 22.5117 695.186 22.6976 695.323C22.887 695.453 23.0739 695.57 23.249 695.682C23.9612 696.115 24.5582 696.372 24.9607 696.552C25.1639 696.635 25.3206 696.699 25.4261 696.742C25.531 696.786 25.5868 696.805 25.5868 696.805C25.9273 696.93 26.487 696.496 26.8367 695.837C27.1864 695.179 27.256 694.565 26.9908 694.469C26.9908 694.469 26.9447 694.454 26.8628 694.419C26.7798 694.385 26.6564 694.335 26.4957 694.268C26.1854 694.13 25.7205 693.929 25.2167 693.621C25.0953 693.542 24.9637 693.46 24.8342 693.372C24.7113 693.279 24.5731 693.188 24.4538 693.082C24.2003 692.876 23.9592 692.642 23.7641 692.379C23.3647 691.857 23.1461 691.226 23.2941 690.529C23.4297 689.836 23.9786 689.073 24.868 688.502C25.7486 687.929 26.9462 687.565 28.1787 687.591C28.4869 687.6 28.7972 687.626 29.1059 687.678C29.4131 687.735 29.7224 687.803 30.0234 687.906C30.6297 688.101 31.2103 688.397 31.7556 688.759C32.8426 689.496 33.7478 690.52 34.4641 691.654C34.5522 691.799 34.6423 691.939 34.7299 692.09L34.9915 692.555C35.1666 692.865 35.3402 693.175 35.5148 693.483C35.8788 694.097 36.1707 694.728 36.4835 695.348C36.6346 695.66 36.8004 695.965 36.9377 696.278C37.0749 696.59 37.2111 696.901 37.3463 697.21C37.4809 697.52 37.6156 697.827 37.7487 698.132C37.8665 698.442 37.9847 698.748 38.1015 699.053C39.0379 701.488 39.6805 703.816 40.0968 705.825C40.5146 707.835 40.7097 709.526 40.7982 710.704C40.8448 711.292 40.8597 711.753 40.871 712.066C40.8761 712.378 40.8781 712.543 40.8781 712.543C40.8802 712.553 40.8843 712.562 40.8884 712.571C40.9319 712.696 41.1126 712.805 41.3835 712.881C41.6733 712.968 42.065 713.01 42.493 712.998C42.4966 712.998 42.5002 712.997 42.5038 712.998C42.5048 712.998 42.5058 712.998 42.5073 712.998C42.9354 713.01 43.3266 712.968 43.6164 712.881C43.8867 712.805 44.0675 712.696 44.112 712.571C44.1156 712.563 44.1207 712.553 44.1217 712.543C44.1217 712.543 44.1248 712.378 44.1299 712.066C44.1407 711.754 44.155 711.293 44.2021 710.704C44.2907 709.525 44.4853 707.836 44.9036 705.826C45.3198 703.816 45.9624 701.488 46.8989 699.054C47.0156 698.749 47.1329 698.442 47.2517 698.132C47.3848 697.827 47.5184 697.52 47.6541 697.21C47.7898 696.901 47.925 696.59 48.0627 696.278C48.2004 695.965 48.3658 695.66 48.5168 695.348C48.8292 694.728 49.122 694.097 49.4861 693.483C49.6602 693.175 49.8348 692.865 50.0089 692.555L50.271 692.09C50.3586 691.939 50.4482 691.799 50.5367 691.654C51.253 690.52 52.1583 689.497 53.2453 688.759C53.7901 688.397 54.3712 688.101 54.9774 687.906C55.2785 687.803 55.5867 687.736 55.8944 687.678C56.2037 687.626 56.5135 687.601 56.8217 687.591C58.0546 687.565 59.2517 687.929 60.1329 688.502C61.0218 689.073 61.5711 689.836 61.7073 690.529C61.8553 691.226 61.6367 691.857 61.2373 692.379C61.0417 692.642 60.8011 692.876 60.5476 693.081C60.4288 693.188 60.2896 693.279 60.1667 693.372C60.0377 693.461 59.9061 693.542 59.7847 693.621C59.2814 693.929 58.816 694.13 58.5057 694.268C58.3455 694.335 58.2221 694.385 58.1386 694.419C58.0567 694.454 58.0106 694.469 58.0106 694.469C57.7454 694.565 57.8145 695.178 58.1647 695.837C58.5144 696.496 59.074 696.93 59.4135 696.805C59.4135 696.805 59.4693 696.786 59.5748 696.742C59.6803 696.699 59.8364 696.635 60.0402 696.552C60.4427 696.372 61.0392 696.115 61.7519 695.682C61.9275 695.571 62.1134 695.453 62.3028 695.323C62.4892 695.186 62.6884 695.049 62.8804 694.884C63.2705 694.566 63.6683 694.183 64.0186 693.717C64.3683 693.252 64.6765 692.704 64.8475 692.083C65.0149 691.464 65.0585 690.778 64.9074 690.097Z" fill="#3E2A70"/>
<path d="M349.617 598.741C350.751 599.297 351.961 599.58 353.214 599.58C356.382 599.58 359.212 597.802 360.601 594.939C361.563 592.956 361.699 590.715 360.985 588.629C360.271 586.542 358.792 584.86 356.82 583.893C356.788 583.878 356.756 583.864 356.724 583.849C356.773 583.835 356.82 583.821 356.87 583.807C357.79 583.578 358.77 583.355 359.805 583.225C359.934 583.206 360.064 583.187 360.193 583.168C360.324 583.155 360.456 583.141 360.588 583.127C360.852 583.102 361.118 583.071 361.386 583.048C361.925 583.017 362.468 582.971 363.02 582.967C363.571 582.944 364.129 582.959 364.688 582.964C364.968 582.971 365.248 582.988 365.529 583L365.95 583.019L366.372 583.053C368.622 583.215 370.862 583.609 372.932 584.108C375.002 584.616 376.899 585.239 378.496 585.847C380.093 586.455 381.387 587.053 382.284 587.487C382.731 587.706 383.083 587.878 383.317 588.006C383.554 588.13 383.68 588.196 383.68 588.196C383.882 588.255 384.332 587.764 384.704 587.069C385.077 586.373 385.226 585.724 385.048 585.584C385.047 585.584 384.913 585.514 384.661 585.381C384.411 585.245 384.037 585.062 383.561 584.829C382.608 584.367 381.233 583.732 379.538 583.086C377.843 582.441 375.83 581.779 373.625 581.237C371.418 580.705 369.022 580.282 366.589 580.107L366.134 580.071L365.677 580.049C365.372 580.037 365.068 580.019 364.764 580.011C364.155 580.004 363.548 579.989 362.944 580.013C362.341 580.018 361.743 580.067 361.151 580.102C360.855 580.128 360.562 580.161 360.27 580.19C360.125 580.205 359.979 580.22 359.835 580.235C359.69 580.256 359.547 580.277 359.403 580.297C358.255 580.443 357.155 580.69 356.119 580.949C355.862 581.023 355.608 581.096 355.358 581.168C355.233 581.205 355.109 581.238 354.987 581.277C354.865 581.319 354.745 581.36 354.625 581.401C354.386 581.483 354.152 581.563 353.921 581.642C353.692 581.728 353.47 581.82 353.252 581.907C351.505 582.607 350.141 583.421 349.224 584.035C348.851 584.294 348.542 584.504 348.317 584.677C348.191 584.771 348.068 584.868 347.947 584.969C347.866 585.033 347.823 585.068 347.823 585.068C347.809 585.078 347.798 585.092 347.789 585.107C346.991 585.816 346.324 586.688 345.836 587.695C344.874 589.678 344.737 591.919 345.451 594.005C346.166 596.092 347.646 597.774 349.617 598.741ZM358.171 589.603C358.626 590.933 358.539 592.362 357.926 593.627C357.04 595.452 355.235 596.587 353.214 596.587C352.416 596.587 351.646 596.406 350.923 596.052C349.666 595.435 348.722 594.362 348.267 593.032C347.812 591.702 347.899 590.273 348.512 589.008C349.398 587.183 351.203 586.049 353.224 586.049C354.021 586.049 354.793 586.229 355.515 586.584C356.772 587.2 357.716 588.273 358.171 589.603Z" fill="#CAA060"/>
<path d="M386.598 595.993C385.883 593.906 384.404 592.224 382.433 591.257C381.299 590.701 380.089 590.419 378.836 590.419C375.668 590.419 372.837 592.197 371.449 595.059C369.463 599.153 371.159 604.108 375.23 606.106C375.262 606.121 375.294 606.135 375.326 606.15C375.277 606.164 375.229 606.178 375.18 606.192C374.26 606.421 373.28 606.644 372.245 606.774C372.116 606.793 371.986 606.811 371.857 606.831C371.726 606.844 371.594 606.858 371.462 606.871C371.198 606.897 370.932 606.928 370.664 606.952C370.125 606.982 369.582 607.028 369.03 607.033C368.479 607.055 367.921 607.04 367.362 607.035C367.082 607.028 366.801 607.011 366.521 607L366.099 606.98L365.678 606.946C363.429 606.785 361.188 606.39 359.117 605.891C357.048 605.383 355.15 604.76 353.554 604.152C351.957 603.544 350.663 602.947 349.766 602.512C349.319 602.293 348.967 602.121 348.733 601.994C348.496 601.87 348.37 601.804 348.37 601.804C348.168 601.744 347.718 602.236 347.345 602.932C346.972 603.626 346.824 604.276 347.002 604.416C347.002 604.416 347.137 604.486 347.388 604.618C347.639 604.754 348.013 604.938 348.488 605.172C349.442 605.633 350.817 606.268 352.512 606.913C354.206 607.56 356.22 608.221 358.425 608.764C360.632 609.295 363.028 609.718 365.461 609.894L365.916 609.929L366.373 609.951C366.677 609.964 366.981 609.982 367.286 609.99C367.895 609.996 368.501 610.011 369.105 609.988C369.708 609.982 370.307 609.933 370.899 609.898C371.195 609.873 371.488 609.839 371.78 609.81C371.925 609.795 372.071 609.78 372.215 609.765C372.36 609.744 372.503 609.723 372.647 609.703C373.795 609.557 374.895 609.31 375.93 609.051C376.188 608.977 376.442 608.904 376.691 608.832C376.816 608.795 376.941 608.762 377.063 608.723C377.185 608.681 377.305 608.64 377.424 608.599C377.664 608.517 377.898 608.437 378.129 608.357C378.357 608.272 378.579 608.179 378.797 608.093C380.544 607.393 381.908 606.58 382.825 605.965C383.203 605.703 383.515 605.49 383.741 605.316C383.863 605.225 383.983 605.131 384.1 605.033C384.182 604.967 384.226 604.932 384.226 604.932C384.24 604.921 384.251 604.907 384.26 604.892C385.057 604.184 385.724 603.311 386.213 602.305C387.175 600.32 387.311 598.079 386.598 595.993ZM374.124 596.371C375.009 594.546 376.815 593.412 378.836 593.412C379.633 593.412 380.404 593.592 381.127 593.947C382.385 594.564 383.328 595.636 383.783 596.966C384.238 598.297 384.151 599.726 383.538 600.99C382.653 602.816 380.847 603.95 378.826 603.95C378.028 603.95 377.257 603.77 376.534 603.415C373.939 602.142 372.858 598.982 374.124 596.371Z" fill="#CAA060"/>
<path d="M125.219 92.1582C125.219 91.2207 125.492 90.4395 126.039 89.8145C126.605 89.1895 127.445 88.877 128.559 88.877C129.672 88.877 130.512 89.1895 131.078 89.8145C131.664 90.4395 131.957 91.2207 131.957 92.1582C131.957 93.0566 131.664 93.8086 131.078 94.4141C130.512 95.0195 129.672 95.3223 128.559 95.3223C127.445 95.3223 126.605 95.0195 126.039 94.4141C125.492 93.8086 125.219 93.0566 125.219 92.1582Z" fill="#E5FAF5"/>
<path d="M43.2188 140.158C43.2188 139.221 43.4922 138.439 44.0391 137.814C44.6055 137.189 45.4453 136.877 46.5586 136.877C47.6719 136.877 48.5117 137.189 49.0781 137.814C49.6641 138.439 49.957 139.221 49.957 140.158C49.957 141.057 49.6641 141.809 49.0781 142.414C48.5117 143.02 47.6719 143.322 46.5586 143.322C45.4453 143.322 44.6055 143.02 44.0391 142.414C43.4922 141.809 43.2188 141.057 43.2188 140.158Z" fill="#F5FDFC"/>
<path d="M148.219 75.1582C148.219 74.2207 148.492 73.4395 149.039 72.8145C149.605 72.1895 150.445 71.877 151.559 71.877C152.672 71.877 153.512 72.1895 154.078 72.8145C154.664 73.4395 154.957 74.2207 154.957 75.1582C154.957 76.0566 154.664 76.8086 154.078 77.4141C153.512 78.0195 152.672 78.3223 151.559 78.3223C150.445 78.3223 149.605 78.0195 149.039 77.4141C148.492 76.8086 148.219 76.0566 148.219 75.1582Z" fill="#E5FAF5"/>
<path d="M316.219 90.1582C316.219 89.2207 316.492 88.4395 317.039 87.8145C317.605 87.1895 318.445 86.877 319.559 86.877C320.672 86.877 321.512 87.1895 322.078 87.8145C322.664 88.4395 322.957 89.2207 322.957 90.1582C322.957 91.0566 322.664 91.8086 322.078 92.4141C321.512 93.0195 320.672 93.3223 319.559 93.3223C318.445 93.3223 317.605 93.0195 317.039 92.4141C316.492 91.8086 316.219 91.0566 316.219 90.1582Z" fill="#E5F7F4"/>
<path d="M295.219 53.1582C295.219 52.2207 295.492 51.4395 296.039 50.8145C296.605 50.1895 297.445 49.877 298.559 49.877C299.672 49.877 300.512 50.1895 301.078 50.8145C301.664 51.4395 301.957 52.2207 301.957 53.1582C301.957 54.0566 301.664 54.8086 301.078 55.4141C300.512 56.0195 299.672 56.3223 298.559 56.3223C297.445 56.3223 296.605 56.0195 296.039 55.4141C295.492 54.8086 295.219 54.0566 295.219 53.1582Z" fill="#E5F7F4"/>
<path d="M369.219 66.1582C369.219 65.2207 369.492 64.4395 370.039 63.8145C370.605 63.1895 371.445 62.877 372.559 62.877C373.672 62.877 374.512 63.1895 375.078 63.8145C375.664 64.4395 375.957 65.2207 375.957 66.1582C375.957 67.0566 375.664 67.8086 375.078 68.4141C374.512 69.0195 373.672 69.3223 372.559 69.3223C371.445 69.3223 370.605 69.0195 370.039 68.4141C369.492 67.8086 369.219 67.0566 369.219 66.1582Z" fill="#E5F7F4"/>
<path d="M128.219 51.1582C128.219 50.2207 128.492 49.4395 129.039 48.8145C129.605 48.1895 130.445 47.877 131.559 47.877C132.672 47.877 133.512 48.1895 134.078 48.8145C134.664 49.4395 134.957 50.2207 134.957 51.1582C134.957 52.0566 134.664 52.8086 134.078 53.4141C133.512 54.0195 132.672 54.3223 131.559 54.3223C130.445 54.3223 129.605 54.0195 129.039 53.4141C128.492 52.8086 128.219 52.0566 128.219 51.1582Z" fill="#E5FAF5"/>
<path d="M386.872 195.069C386.872 195.069 386.429 194.978 385.654 194.818C385.265 194.747 384.793 194.661 384.251 194.563C383.979 194.52 383.689 194.474 383.384 194.426C383.231 194.401 383.075 194.377 382.915 194.352C382.754 194.33 382.59 194.307 382.422 194.285C381.433 194.141 380.318 194.014 379.124 193.909C379.124 189.968 379.126 177.964 379.126 176.089C380.319 175.985 381.434 175.857 382.422 175.714C382.59 175.692 382.754 175.669 382.915 175.647C383.075 175.622 383.231 175.597 383.384 175.573C383.689 175.525 383.979 175.479 384.251 175.436C384.793 175.338 385.265 175.252 385.654 175.181C386.429 175.022 386.872 174.931 386.872 174.931C387.027 174.871 387.044 174.422 386.907 173.907C386.771 173.391 386.537 172.994 386.375 173C386.375 173 385.95 173.087 385.205 173.241C384.831 173.308 384.377 173.391 383.856 173.485C383.594 173.526 383.316 173.57 383.022 173.617C382.875 173.64 382.724 173.664 382.57 173.688C382.416 173.709 382.257 173.731 382.095 173.753C379.51 174.126 376.018 174.397 372.519 174.38C369.018 174.373 365.521 174.082 362.927 173.73C361.629 173.559 360.556 173.376 359.811 173.238C359.064 173.1 358.65 173.007 358.65 173.007C358.492 172.973 358.255 173.376 358.101 173.907C357.946 174.437 357.975 174.902 358.147 174.94C358.147 174.94 358.261 174.964 358.471 175.008C358.681 175.051 358.988 175.113 359.378 175.185C360.158 175.329 361.271 175.518 362.613 175.695C363.71 175.844 364.963 175.982 366.306 176.094C366.306 177.98 366.308 189.964 366.308 193.907C364.964 194.018 363.711 194.156 362.613 194.305C361.271 194.481 360.158 194.671 359.378 194.815C358.988 194.887 358.681 194.949 358.471 194.992C358.261 195.037 358.147 195.061 358.147 195.061C357.975 195.097 357.947 195.563 358.101 196.093C358.254 196.623 358.492 197.027 358.65 196.993C358.65 196.993 359.064 196.9 359.811 196.762C360.556 196.624 361.629 196.441 362.927 196.27C365.521 195.917 369.018 195.627 372.519 195.62C376.018 195.603 379.51 195.874 382.095 196.247C382.257 196.269 382.416 196.291 382.57 196.312C382.724 196.336 382.875 196.36 383.022 196.383C383.315 196.43 383.594 196.474 383.856 196.515C384.377 196.61 384.831 196.691 385.205 196.759C385.949 196.912 386.375 197 386.375 197C386.536 197.006 386.771 196.61 386.907 196.093C387.044 195.577 387.027 195.129 386.872 195.069ZM372.51 193.634C371.149 193.636 369.789 193.681 368.479 193.754C368.48 189.764 368.48 178.518 368.48 176.245C369.79 176.318 371.149 176.363 372.51 176.365C374.013 176.373 375.516 176.328 376.952 176.246C376.952 178.521 376.953 189.763 376.954 193.754C375.517 193.671 374.014 193.626 372.51 193.634Z" fill="#B68DCB"/>
<path d="M64.6999 167.677C64.5105 167.589 64.2467 167.54 63.9545 167.541C63.6622 167.541 63.396 167.587 63.2023 167.65C63.0086 167.716 62.8874 167.799 62.885 167.897C62.885 167.898 62.884 167.93 62.8827 167.992C62.8793 168.055 62.8697 168.147 62.86 168.268C62.855 168.328 62.8496 168.395 62.8436 168.469C62.8333 168.543 62.8216 168.623 62.8092 168.709C62.7952 168.796 62.7878 168.89 62.7668 168.988C62.7474 169.086 62.7267 169.19 62.7043 169.3C62.6065 169.739 62.4572 170.265 62.2117 170.837C61.9672 171.409 61.6272 172.026 61.1793 172.639C60.7355 173.254 60.17 173.849 59.5167 174.4C58.8625 174.951 58.105 175.434 57.2844 175.842C55.6365 176.642 53.713 177.076 51.7859 177.033C49.8594 177.009 47.9477 176.507 46.3292 175.637C45.5206 175.202 44.7855 174.678 44.1512 174.102C43.521 173.521 42.9823 172.898 42.5668 172.26C42.1486 171.625 41.8407 170.99 41.6269 170.404C41.4122 169.818 41.293 169.283 41.2198 168.84C41.2041 168.728 41.1887 168.623 41.1747 168.523C41.1607 168.424 41.1577 168.329 41.1487 168.242C41.1413 168.155 41.1346 168.074 41.1283 168C41.1263 167.925 41.1243 167.858 41.123 167.797C41.1203 167.676 41.1153 167.584 41.1156 167.52C41.1176 167.458 41.1186 167.425 41.1186 167.425C41.0949 167.242 40.6367 167.056 40.0716 167.008C39.5071 166.961 39.0389 167.126 39.0035 167.384C39.0035 167.385 39.0025 167.428 39.0001 167.513C38.9991 167.598 39.0048 167.723 39.0085 167.887C39.0108 167.969 39.0135 168.059 39.0165 168.16C39.0245 168.26 39.0332 168.37 39.0425 168.488C39.0539 168.605 39.0609 168.733 39.0786 168.867C39.0976 169.001 39.1173 169.144 39.1391 169.294C39.2356 169.892 39.3979 170.612 39.6818 171.386C39.9637 172.159 40.3655 172.983 40.8958 173.788C41.4232 174.595 42.0892 175.365 42.8547 176.07C43.6232 176.769 44.4993 177.39 45.4498 177.902C45.9685 178.18 46.5099 178.424 47.067 178.634C43.9602 180.678 41.8554 184.585 41.8554 189.061C41.8554 195.644 46.4087 201 52.0053 201C57.6023 201 62.1559 195.644 62.1559 189.061C62.1559 184.586 60.0515 180.679 56.9457 178.635C57.3378 178.488 57.7215 178.323 58.0949 178.142C59.0565 177.666 59.9526 177.094 60.7415 176.431C61.5294 175.768 62.2231 175.039 62.7818 174.266C63.3443 173.498 63.7831 172.705 64.1034 171.957C64.4247 171.207 64.6258 170.504 64.7564 169.916C64.7858 169.767 64.8138 169.627 64.8399 169.494C64.8666 169.363 64.8796 169.236 64.8976 169.119C64.914 169.002 64.9287 168.894 64.9427 168.794C64.9514 168.694 64.9594 168.603 64.9661 168.522C64.9795 168.359 64.9912 168.234 64.9958 168.149C64.9985 168.065 64.9998 168.021 64.9998 168.02C65.0049 167.889 64.8896 167.764 64.6999 167.677ZM60.1239 189.063C60.1239 194.327 56.4825 198.61 52.006 198.61C47.5302 198.61 43.8884 194.328 43.8884 189.063C43.8884 183.913 47.3732 179.705 51.7148 179.524C51.7278 179.524 51.7415 179.524 51.7545 179.524C51.9402 179.529 52.1252 179.527 52.3109 179.524C56.6464 179.713 60.1239 183.918 60.1239 189.063Z" fill="#A32E87"/>
<path d="M238.661 58.4969C238.658 58.4969 235.229 58.4969 230.573 58.4964C230.625 56.4324 230.883 54.3982 231.306 52.507C231.449 51.9293 231.556 51.3525 231.737 50.8063C231.819 50.5316 231.9 50.2592 231.98 49.9912C232.02 49.8567 232.06 49.7226 232.1 49.5901C232.14 49.458 232.193 49.3302 232.238 49.2014C232.427 48.6873 232.61 48.1876 232.789 47.7037C232.995 47.2312 233.195 46.7741 233.387 46.3352C233.566 45.891 233.796 45.4899 233.991 45.0984C234.195 44.7102 234.373 44.3354 234.565 43.9951C234.966 43.3221 235.314 42.7343 235.601 42.2504C236.234 41.3155 236.597 40.7814 236.597 40.7809C236.693 40.5641 236.238 40.0284 235.555 39.5613C234.871 39.0941 234.199 38.8801 234.021 39.0687C234.02 39.0692 233.629 39.6474 232.943 40.6583C232.631 41.1839 232.253 41.8215 231.818 42.5524C231.609 42.9224 231.412 43.3312 231.192 43.7538C230.979 44.1808 230.731 44.6183 230.533 45.1036C230.323 45.5832 230.105 46.0825 229.879 46.5994C229.684 47.1288 229.483 47.6764 229.275 48.2393C229.225 48.3805 229.168 48.5207 229.123 48.6658C229.079 48.8118 229.036 48.9573 228.992 49.1052C228.903 49.3996 228.815 49.6978 228.725 49.9993C228.529 50.5981 228.407 51.2299 228.252 51.8646C227.782 53.9597 227.499 56.217 227.447 58.4959C224.098 58.4954 220.42 58.4954 217.042 58.4954C216.99 56.2161 216.706 53.9592 216.237 51.8642C216.082 51.2295 215.96 50.5976 215.764 49.9988C215.674 49.6973 215.585 49.3991 215.497 49.1047C215.452 48.9568 215.408 48.8113 215.365 48.6653C215.32 48.5203 215.263 48.38 215.213 48.2388C215.006 47.6759 214.805 47.1288 214.609 46.5989C214.384 46.082 214.165 45.5828 213.956 45.1031C213.758 44.6173 213.51 44.1803 213.297 43.7533C213.076 43.3307 212.879 42.9224 212.67 42.5519C212.237 41.821 211.858 41.1834 211.546 40.6579C210.86 39.6474 210.469 39.0692 210.468 39.0683C210.289 38.8797 209.617 39.0941 208.933 39.5608C208.25 40.028 207.795 40.5631 207.891 40.7799C207.891 40.7809 208.253 41.3151 208.887 42.2499C209.174 42.7333 209.523 43.3206 209.923 43.9946C210.116 44.3349 210.294 44.7097 210.497 45.0979C210.691 45.4894 210.922 45.8905 211.101 46.3347C211.293 46.7737 211.493 47.2303 211.7 47.7032C211.877 48.1871 212.061 48.6868 212.25 49.2009C212.296 49.3302 212.348 49.4575 212.389 49.5896C212.428 49.7222 212.468 49.8562 212.508 49.9907C212.588 50.2592 212.669 50.5311 212.751 50.8058C212.932 51.352 213.04 51.9288 213.183 52.5065C213.605 54.3967 213.863 56.431 213.915 58.495C209.022 58.4945 205.36 58.4945 205.359 58.4945C205.161 58.4945 205 59.1742 205 60.0123C205 60.8504 205.16 61.5301 205.359 61.5301C205.361 61.5301 208.986 61.5301 213.842 61.5301C213.698 63.5271 213.383 65.4958 212.946 67.3386C212.374 69.674 211.628 71.8073 210.87 73.5855C210.108 75.3637 209.356 76.7949 208.795 77.768C208.514 78.2534 208.285 78.6291 208.125 78.8785C207.966 79.1308 207.88 79.26 207.88 79.26C207.749 79.4601 208.23 79.977 208.934 80.4643C209.637 80.9506 210.362 81.1301 210.509 80.9018C210.509 80.9018 210.612 80.7505 210.789 80.47C210.967 80.1896 211.218 79.7774 211.525 79.248C212.135 78.1897 212.943 76.6528 213.759 74.7453C214.572 72.8374 215.373 70.548 215.99 68.0293C216.477 65.9787 216.826 63.7741 216.973 61.5296C220.394 61.5296 224.125 61.5296 227.514 61.5296C227.663 63.7741 228.011 65.9787 228.497 68.0293C229.114 70.5485 229.915 72.8374 230.728 74.7453C231.546 76.6528 232.353 78.1897 232.963 79.248C233.269 79.777 233.521 80.1896 233.7 80.47C233.877 80.7505 233.979 80.9018 233.979 80.9018C234.127 81.1301 234.851 80.9506 235.554 80.4643C236.257 79.977 236.739 79.4601 236.608 79.26C236.608 79.26 236.522 79.1308 236.363 78.8785C236.203 78.6291 235.974 78.2529 235.693 77.768C235.131 76.7949 234.38 75.3637 233.617 73.5855C232.859 71.8073 232.114 69.674 231.541 67.3386C231.104 65.4958 230.789 63.5261 230.646 61.5287C235.264 61.5282 238.658 61.5282 238.66 61.5282C238.85 61.487 239 60.8241 239 60.0123C239 59.2015 238.851 58.539 238.661 58.4969Z" fill="#1CA8BE"/>
</svg>
