<svg width="370" height="680" viewBox="0 0 370 680" fill="none" xmlns="http://www.w3.org/2000/svg">
<path d="M23.7928 545.858C10.6729 545.858 0 535.123 0 521.93C0 508.734 10.6735 498 23.7928 498C26.4337 498 29.0291 498.434 31.5103 499.289L36.3232 500.947L31.5109 502.607C23.3056 505.435 17.7926 513.201 17.7926 521.93C17.7926 530.659 23.3056 538.423 31.5103 541.252L36.3238 542.911L31.5103 544.569C29.0297 545.425 26.4331 545.858 23.7928 545.858ZM23.7928 501.506C12.5959 501.506 3.48709 510.668 3.48709 521.929C3.48709 533.19 12.5959 542.35 23.7928 542.35C24.3847 542.35 24.9749 542.325 25.5609 542.274C18.669 537.977 14.3049 530.335 14.3049 521.929C14.3049 513.523 18.669 505.879 25.5609 501.583C24.9749 501.533 24.3847 501.506 23.7928 501.506Z" fill="#A32E87"/>
<path d="M54.0667 184.702C54.0676 184.702 54.6931 184.172 55.7861 183.245C56.3329 182.782 56.997 182.221 57.758 181.576C58.1388 181.253 58.5442 180.91 58.9713 180.548C59.0779 180.458 59.186 180.366 59.2956 180.274C59.3462 180.231 59.3984 180.188 59.45 180.144C59.4587 180.143 59.4587 180.133 59.4688 180.132C59.4958 180.111 59.5571 180.089 59.6334 180.081C59.7077 180.075 59.796 180.086 59.8486 180.111C59.8785 180.12 59.895 180.136 59.9094 180.144C59.9114 180.147 59.9147 180.149 59.9191 180.15L60.0098 180.23L60.1942 180.394C60.6888 180.834 61.2004 181.289 61.7259 181.757C62.2514 182.225 62.7915 182.705 63.3436 183.196C63.6191 183.442 63.8985 183.69 64.1799 183.94L64.3913 184.129L64.4979 184.223L64.5245 184.247L64.5645 184.281L64.6702 184.368C64.9545 184.594 65.272 184.769 65.6007 184.888C66.2599 185.121 66.9582 185.155 67.6377 184.983C67.9769 184.895 68.3114 184.752 68.6222 184.55C68.7003 184.5 68.7771 184.448 68.85 184.388L68.96 184.299L69.0121 184.255L69.0396 184.231L69.2606 184.034C69.8504 183.509 70.4478 182.978 71.0496 182.442C71.6519 181.906 72.259 181.367 72.868 180.824L73.325 180.418L73.5543 180.214L73.6112 180.163L73.6257 180.151C73.6286 180.148 73.6276 180.15 73.6286 180.149L73.632 180.148C73.6368 180.147 73.6358 180.139 73.6426 180.139C73.6725 180.112 73.7652 180.082 73.8583 180.089C73.9529 180.094 74.0224 180.13 74.0436 180.149C74.3491 180.421 74.6541 180.692 74.9586 180.963C75.5672 181.505 76.1743 182.045 76.7765 182.581C77.3783 183.116 77.9758 183.647 78.566 184.172L78.691 184.282C78.7629 184.342 78.8372 184.401 78.9115 184.458C79.065 184.566 79.2223 184.663 79.3859 184.742C79.7122 184.902 80.0543 185.004 80.3974 185.055C81.0818 185.155 81.781 185.05 82.4205 184.736C82.5802 184.658 82.7332 184.562 82.8818 184.459C82.9542 184.404 83.0256 184.347 83.0956 184.288L83.167 184.226L83.2201 184.179C83.362 184.052 83.5034 183.926 83.6443 183.801C83.9262 183.55 84.2051 183.303 84.4807 183.057C85.0327 182.566 85.5728 182.086 86.0983 181.618C86.6244 181.151 87.1345 180.695 87.6296 180.255L87.7222 180.173L87.7449 180.152C87.7526 180.145 87.7488 180.149 87.7512 180.148L87.7565 180.145C87.7589 180.138 87.7705 180.138 87.7758 180.13C87.7951 180.122 87.8173 180.11 87.8472 180.101C87.908 180.087 87.9886 180.08 88.0494 180.097C88.1141 180.108 88.1464 180.137 88.1653 180.148C88.3834 180.341 88.5962 180.531 88.8032 180.715C89.2212 181.087 89.6179 181.439 89.9909 181.772C90.737 182.434 91.3871 183.013 91.9218 183.489C92.9936 184.442 93.6055 184.986 93.6065 184.987C93.857 185.154 94.4771 184.808 95.0191 184.192C95.5615 183.575 95.8269 182.914 95.6324 182.685C95.6315 182.684 95.0191 182.139 93.9492 181.186C93.4135 180.71 92.7634 180.131 92.0178 179.468C91.6452 179.136 91.2486 178.784 90.8302 178.411C90.6193 178.223 90.4031 178.032 90.1815 177.835C89.7554 177.464 89.2395 177.206 88.7034 177.093C88.1667 176.973 87.605 176.984 87.0495 177.131C86.772 177.207 86.4969 177.323 86.233 177.474C86.1027 177.556 85.9724 177.637 85.8517 177.738L85.7605 177.812L85.6958 177.868L85.6037 177.951C85.109 178.39 84.5975 178.846 84.0719 179.313C83.5464 179.781 83.0064 180.261 82.4543 180.752C82.1787 180.998 81.8993 181.246 81.6179 181.496C81.477 181.621 81.3356 181.748 81.1937 181.873L81.1402 181.921C81.1237 181.936 81.0987 181.959 81.1035 181.953C81.0991 181.954 81.0962 181.957 81.0938 181.961C81.0837 181.965 81.0765 181.972 81.0639 181.978C81.0166 182.001 80.9191 182.026 80.8342 182.008C80.7927 182.002 80.7565 181.99 80.7309 181.978C80.7179 181.972 80.7102 181.965 80.7 181.961C80.6976 181.956 80.6947 181.953 80.6904 181.952H80.6884L80.6764 181.94L80.6484 181.916L80.5929 181.867C80.0027 181.341 79.4057 180.81 78.8039 180.275C78.2016 179.739 77.595 179.199 76.986 178.657C76.681 178.386 76.375 178.114 76.07 177.842C75.476 177.317 74.7381 177.052 74.0195 177.015C73.2999 176.978 72.5572 177.156 71.9149 177.598C71.8333 177.649 71.7581 177.714 71.6823 177.774L71.6253 177.822L71.5843 177.857L71.5269 177.907L71.2982 178.111L70.8407 178.518C70.2321 179.06 69.625 179.6 69.0227 180.136C68.4204 180.672 67.8235 181.203 67.2333 181.727L67.0122 181.924L66.9847 181.949C66.9789 181.953 66.9809 181.951 66.9789 181.951C66.977 181.952 66.9751 181.953 66.9736 181.955C66.9722 181.96 66.9664 181.961 66.962 181.964C66.9442 181.975 66.9162 181.989 66.879 182C66.8038 182.02 66.7 182.012 66.6368 181.99C66.6059 181.978 66.5861 181.964 66.5731 181.954C66.5716 181.953 66.5697 181.952 66.5673 181.951L66.5654 181.951L66.5533 181.94L66.5263 181.916L66.4201 181.822L66.2087 181.634C65.9274 181.382 65.6479 181.135 65.3729 180.889C64.8203 180.398 64.2808 179.918 63.7547 179.45C63.2292 178.982 62.7181 178.527 62.2235 178.087L62.0381 177.923L61.9455 177.84C61.8861 177.79 61.8258 177.741 61.7645 177.692C61.5194 177.507 61.2554 177.356 60.9875 177.251C60.4504 177.034 59.8993 176.968 59.3655 177.013C58.8323 177.062 58.3067 177.227 57.8386 177.525C57.7209 177.595 57.6108 177.684 57.5027 177.769C57.4434 177.819 57.3845 177.868 57.3256 177.918C57.2161 178.01 57.1084 178.102 57.0013 178.192C56.5742 178.553 56.1693 178.897 55.7881 179.219C55.027 179.864 54.3635 180.426 53.8167 180.889C52.7226 181.816 52.0977 182.345 52.0972 182.346C51.8593 182.547 52.1073 183.238 52.6512 183.889C53.1946 184.54 53.8283 184.903 54.0667 184.702Z" fill="#26ABC4"/>
<path d="M93.9423 189.909C93.4066 189.433 92.7566 188.854 92.011 188.191C91.6384 187.859 91.2417 187.506 90.8233 187.133C90.6124 186.946 90.3962 186.754 90.1747 186.557C89.7486 186.186 89.2327 185.928 88.6965 185.815C88.1599 185.695 87.5982 185.706 87.0427 185.854C86.7652 185.929 86.4901 186.045 86.2261 186.195C86.0958 186.277 85.9655 186.359 85.8449 186.46L85.7537 186.535L85.689 186.59L85.5968 186.672C85.1022 187.113 84.5906 187.567 84.0651 188.035C83.5395 188.503 82.9995 188.983 82.4474 189.474C82.1719 189.719 81.8924 189.968 81.6111 190.218C81.4702 190.344 81.3288 190.47 81.1869 190.596L81.1333 190.643C81.1169 190.658 81.0918 190.681 81.0966 190.675C81.0923 190.676 81.0894 190.679 81.087 190.683C81.0769 190.686 81.0696 190.695 81.0571 190.7C81.0098 190.724 80.9123 190.748 80.8274 190.73C80.7859 190.724 80.7497 190.712 80.7241 190.7C80.7111 190.695 80.7033 190.687 80.6932 190.683C80.6908 190.678 80.6879 190.676 80.6836 190.675L80.6816 190.674L80.6696 190.663L80.6416 190.639L80.5861 190.589C79.9959 190.064 79.3989 189.533 78.7971 188.998C78.1948 188.462 77.5882 187.921 76.9792 187.379C76.6742 187.108 76.3682 186.837 76.0632 186.565C75.4691 186.04 74.7312 185.775 74.0127 185.738C73.2931 185.7 72.5504 185.878 71.9081 186.321C71.8265 186.371 71.7512 186.436 71.6755 186.497L71.6185 186.544L71.5775 186.579L71.5201 186.63L71.2913 186.834L70.8338 187.241C70.2253 187.782 69.6182 188.323 69.0159 188.858C68.4136 189.394 67.8166 189.925 67.2264 190.45L67.0054 190.646L66.9779 190.671C66.9721 190.675 66.974 190.673 66.9721 190.674C66.9702 190.675 66.9682 190.676 66.9668 190.678C66.9654 190.682 66.9596 190.684 66.9552 190.686C66.9374 190.698 66.9094 190.712 66.8722 190.723C66.7969 190.742 66.6932 190.735 66.6299 190.712C66.5991 190.701 66.5793 190.687 66.5663 190.677C66.5648 190.675 66.5629 190.674 66.5604 190.674L66.5585 190.673L66.5465 190.662L66.5194 190.639L66.4133 190.545L66.2019 190.356C65.9205 190.105 65.6411 189.857 65.366 189.611C64.8135 189.12 64.2739 188.64 63.7479 188.173C63.2224 187.705 62.7113 187.25 62.2166 186.81L62.0313 186.645L61.9387 186.563C61.8793 186.512 61.819 186.463 61.7577 186.415C61.5125 186.229 61.2486 186.078 60.9807 185.974C60.4436 185.756 59.8925 185.69 59.3587 185.736C58.8255 185.784 58.2999 185.95 57.8318 186.248C57.714 186.319 57.604 186.406 57.4959 186.492C57.4365 186.541 57.3777 186.591 57.3188 186.64C57.2092 186.733 57.1016 186.824 56.9945 186.915C56.5674 187.277 56.1625 187.62 55.7812 187.942C55.0202 188.587 54.3566 189.149 53.8099 189.611C52.7158 190.538 52.0909 191.068 52.0904 191.068C51.8525 191.27 52.1005 191.961 52.6444 192.611C53.1892 193.261 53.8229 193.625 54.0618 193.423C54.0627 193.422 54.6882 192.893 55.7812 191.967C56.328 191.504 56.9921 190.942 57.7531 190.297C58.1339 189.974 58.5393 189.631 58.9664 189.269C59.073 189.179 59.1811 189.087 59.2907 188.995C59.3413 188.952 59.3935 188.908 59.4451 188.865C59.4538 188.864 59.4538 188.855 59.4639 188.853C59.4909 188.833 59.5522 188.809 59.6285 188.803C59.7028 188.796 59.7911 188.807 59.8437 188.832C59.8736 188.841 59.89 188.856 59.9045 188.865C59.9065 188.868 59.9098 188.87 59.9142 188.871L60.0049 188.951L60.1893 189.116C60.6839 189.555 61.1955 190.011 61.721 190.479C62.2466 190.946 62.7866 191.426 63.3387 191.917C63.6142 192.163 63.8936 192.411 64.175 192.661L64.3864 192.849L64.493 192.944L64.5196 192.968L64.5596 193.002L64.6653 193.088C64.9496 193.315 65.2671 193.49 65.5957 193.61C66.255 193.843 66.9533 193.876 67.6328 193.704C67.972 193.616 68.3065 193.473 68.6173 193.271C68.6955 193.221 68.7722 193.169 68.8451 193.109L68.9551 193.02L69.0072 192.976L69.0347 192.952L69.2557 192.755C69.8455 192.23 70.4429 191.699 71.0447 191.163C71.647 190.628 72.2541 190.088 72.8631 189.546L73.3201 189.139L73.5494 188.935L73.6063 188.885L73.6208 188.872C73.6237 188.87 73.6227 188.871 73.6237 188.87L73.6271 188.869C73.6319 188.868 73.6309 188.861 73.6377 188.86C73.6676 188.834 73.7603 188.804 73.8534 188.81C73.948 188.815 74.0175 188.851 74.0387 188.87C74.3442 189.142 74.6492 189.413 74.9537 189.683C75.5623 190.226 76.1694 190.765 76.7717 191.302C77.3735 191.837 77.9709 192.368 78.5611 192.893L78.6861 193.003C78.758 193.064 78.8323 193.122 78.9066 193.18C79.0601 193.286 79.2174 193.384 79.381 193.463C79.7073 193.623 80.0494 193.725 80.3926 193.776C81.0769 193.876 81.7761 193.771 82.4156 193.457C82.5753 193.38 82.7283 193.283 82.8769 193.18C82.9493 193.125 83.0208 193.068 83.0907 193.009L83.1621 192.948L83.2152 192.9C83.3571 192.773 83.4985 192.648 83.6394 192.522C83.9213 192.272 84.2002 192.023 84.4758 191.778C85.0279 191.287 85.5679 190.807 86.0934 190.339C86.6194 189.871 87.1296 189.417 87.6247 188.976L87.7174 188.894L87.74 188.873C87.7478 188.866 87.7439 188.871 87.7463 188.869L87.7516 188.867C87.754 188.859 87.7656 188.858 87.7709 188.851C87.7902 188.843 87.8124 188.831 87.8423 188.822C87.9031 188.807 87.9837 188.802 88.0445 188.818C88.1092 188.829 88.1416 188.858 88.1604 188.869C88.3785 189.062 88.5913 189.252 88.7984 189.436C89.2163 189.808 89.613 190.16 89.986 190.493C90.7321 191.156 91.3822 191.734 91.9169 192.21C92.9887 193.163 93.6007 193.707 93.6016 193.708C93.8521 193.875 94.4722 193.529 95.0142 192.913C95.5566 192.296 95.822 191.636 95.6275 191.406C95.6246 191.407 95.0127 190.862 93.9423 189.909Z" fill="#26ABC4"/>
<path d="M107.661 374.497C107.658 374.497 104.229 374.497 99.5728 374.496C99.6251 372.432 99.8829 370.398 100.306 368.507C100.449 367.929 100.556 367.352 100.737 366.806C100.819 366.532 100.9 366.259 100.98 365.991C101.02 365.857 101.06 365.723 101.1 365.59C101.14 365.458 101.193 365.33 101.238 365.201C101.427 364.687 101.61 364.188 101.789 363.704C101.995 363.231 102.195 362.774 102.387 362.335C102.566 361.891 102.796 361.49 102.991 361.098C103.195 360.71 103.373 360.335 103.565 359.995C103.966 359.322 104.314 358.734 104.601 358.25C105.234 357.316 105.597 356.781 105.597 356.781C105.693 356.564 105.238 356.028 104.555 355.561C103.871 355.094 103.199 354.88 103.021 355.069C103.02 355.069 102.629 355.647 101.943 356.658C101.631 357.184 101.253 357.821 100.818 358.552C100.609 358.922 100.412 359.331 100.192 359.754C99.9786 360.181 99.7306 360.618 99.5329 361.104C99.3234 361.583 99.105 362.082 98.8792 362.599C98.6839 363.129 98.4828 363.676 98.2752 364.239C98.2254 364.38 98.1682 364.521 98.1234 364.666C98.0795 364.812 98.0361 364.957 97.9917 365.105C97.9035 365.4 97.8147 365.698 97.7245 365.999C97.5288 366.598 97.407 367.23 97.2517 367.865C96.7819 369.96 96.4994 372.217 96.4466 374.496C93.0975 374.495 89.4201 374.495 86.042 374.495C85.9897 372.216 85.7062 369.959 85.2369 367.864C85.0816 367.229 84.9598 366.598 84.7641 365.999C84.6738 365.697 84.5846 365.399 84.4969 365.105C84.4525 364.957 84.4081 364.811 84.3647 364.665C84.3199 364.52 84.2627 364.38 84.2129 364.239C84.0058 363.676 83.8046 363.129 83.6094 362.599C83.3836 362.082 83.1652 361.583 82.9557 361.103C82.758 360.617 82.51 360.18 82.297 359.753C82.0761 359.331 81.8789 358.922 81.6704 358.552C81.2365 357.821 80.8579 357.183 80.5458 356.658C79.86 355.647 79.4686 355.069 79.4681 355.068C79.2891 354.88 78.6166 355.094 77.9333 355.561C77.25 356.028 76.7954 356.563 76.8906 356.78C76.8911 356.781 77.2534 357.315 77.887 358.25C78.1744 358.733 78.523 359.321 78.9228 359.995C79.1156 360.335 79.2935 360.71 79.4967 361.098C79.6914 361.489 79.9216 361.891 80.1006 362.335C80.2929 362.774 80.4926 363.23 80.6996 363.703C80.8771 364.187 81.061 364.687 81.2498 365.201C81.2957 365.33 81.3479 365.457 81.3889 365.59C81.4283 365.722 81.4677 365.856 81.5082 365.991C81.588 366.259 81.6694 366.531 81.7512 366.806C81.9322 367.352 82.0397 367.929 82.1826 368.507C82.6051 370.397 82.8635 372.431 82.9152 374.495C78.022 374.494 74.3604 374.494 74.3589 374.494C74.1607 374.494 74 375.174 74 376.012C74 376.85 74.1602 377.53 74.3589 377.53C74.3609 377.53 77.9856 377.53 82.8423 377.53C82.6983 379.527 82.3833 381.496 81.9465 383.339C81.3741 385.674 80.6281 387.807 79.8704 389.586C79.1082 391.364 78.3563 392.795 77.7948 393.768C77.5137 394.253 77.285 394.629 77.1253 394.879C76.9665 395.131 76.8797 395.26 76.8797 395.26C76.7486 395.46 77.2303 395.977 77.9343 396.464C78.6373 396.951 79.3616 397.13 79.5095 396.902C79.5095 396.902 79.6115 396.751 79.7885 396.47C79.967 396.19 80.2184 395.777 80.5251 395.248C81.135 394.19 81.9425 392.653 82.7594 390.745C83.5724 388.837 84.3731 386.548 84.9904 384.029C85.4775 381.979 85.8255 379.774 85.9734 377.53C89.3935 377.53 93.1247 377.53 96.5137 377.53C96.6626 379.774 97.0106 381.979 97.4972 384.029C98.114 386.548 98.9147 388.837 99.7281 390.745C100.546 392.653 101.353 394.19 101.963 395.248C102.269 395.777 102.521 396.19 102.7 396.47C102.877 396.751 102.979 396.902 102.979 396.902C103.127 397.13 103.851 396.951 104.554 396.464C105.257 395.977 105.739 395.46 105.608 395.26C105.608 395.26 105.522 395.131 105.363 394.879C105.203 394.629 104.974 394.253 104.693 393.768C104.131 392.795 103.38 391.364 102.617 389.586C101.859 387.807 101.114 385.674 100.541 383.339C100.104 381.496 99.7893 379.526 99.6458 377.529C104.264 377.528 107.658 377.528 107.66 377.528C107.85 377.487 108 376.824 108 376.012C108 375.201 107.851 374.539 107.661 374.497Z" fill="#B28F58"/>
<path d="M39.5549 226.663C38.463 225.99 37.2975 225.651 36.0894 225.651C34.0234 225.651 32.1064 226.636 30.6677 228.346C30.5695 227.624 30.4549 226.865 30.3171 226.071C29.8291 223.245 29.079 219.99 27.9793 216.643C27.8482 216.221 27.6891 215.814 27.544 215.392C27.3922 214.971 27.2519 214.561 27.087 214.122C26.749 213.223 26.3273 212.303 25.79 211.444C24.7304 209.735 23.1064 208.139 20.907 208.001C20.818 207.995 20.73 208.015 20.641 208.021L20.4456 208.043C20.3189 208.055 20.1956 208.089 20.0708 208.113C19.9461 208.136 19.8242 208.175 19.7023 208.213C19.5805 208.251 19.4596 208.289 19.342 208.341C18.8657 208.527 18.4188 208.795 18.0107 209.109C17.1842 209.734 16.5274 210.555 15.9863 211.41C15.4471 212.268 15.022 213.187 14.682 214.086C14.6356 214.201 14.5964 214.308 14.5601 214.412L14.4479 214.729C14.3725 214.94 14.2975 215.149 14.223 215.358C14.0765 215.778 13.9193 216.187 13.7868 216.608C13.0677 218.792 12.5004 220.933 12.0555 222.945C11.8485 222.002 11.6183 221.052 11.363 220.109C11.231 219.633 11.0984 219.157 10.9674 218.682C10.83 218.211 10.6763 217.749 10.5341 217.285C10.256 216.353 9.91989 215.475 9.61764 214.611C9.57895 214.504 9.54122 214.396 9.5035 214.291C9.46433 214.183 9.41452 214.065 9.37244 213.954C9.28153 213.73 9.19786 213.506 9.10114 213.287C9.00006 213.069 8.89996 212.853 8.80179 212.64C8.70265 212.426 8.58465 212.224 8.47777 212.02C8.03092 211.213 7.5207 210.487 6.96455 209.892C6.40695 209.296 5.79616 208.849 5.21389 208.55C4.92711 208.39 4.63647 208.293 4.37097 208.201C4.09918 208.128 3.84963 208.062 3.61702 208.041C3.38779 208.003 3.18081 208.002 3.00042 208.002C2.82003 207.995 2.6677 208.017 2.54438 208.029C2.29532 208.05 2.16571 208.086 2.16571 208.086C2.0656 208.107 2.00515 208.341 2.00032 208.698C1.99548 209.055 2.04626 209.534 2.13814 210.056C2.23051 210.577 2.34126 211.043 2.43024 211.379C2.52068 211.715 2.59128 211.92 2.63626 211.909C2.63626 211.909 2.69574 211.889 2.80939 211.884C2.86597 211.879 2.9361 211.863 3.01831 211.871C3.10053 211.871 3.19483 211.867 3.30074 211.888C3.51256 211.91 3.76839 211.981 4.05565 212.131C4.34291 212.281 4.66452 212.504 4.99192 212.854C5.31787 213.204 5.64866 213.667 5.96107 214.231C6.03603 214.377 6.11969 214.514 6.19272 214.671C6.26574 214.829 6.33877 214.988 6.41324 215.148C6.4853 215.313 6.55107 215.493 6.62264 215.667C6.65746 215.757 6.69325 215.838 6.72856 215.937C6.76435 216.036 6.80013 216.136 6.83543 216.236C7.11689 217.042 7.43318 217.863 7.68852 218.726C7.82151 219.155 7.96418 219.584 8.09185 220.022C8.21372 220.462 8.33656 220.903 8.45891 221.347C9.42178 224.894 10.0108 228.595 10.2778 231.379C10.4098 232.771 10.4741 233.933 10.5017 234.739C10.5128 235.141 10.5215 235.457 10.5215 235.666C10.5225 235.875 10.5229 235.985 10.5229 235.985C10.5491 236.087 10.817 236.171 11.2126 236.234C11.4549 236.301 11.7441 236.334 12.0545 236.317C12.8723 236.363 13.5436 236.205 13.5866 236.012C13.5866 236.012 13.5876 235.908 13.5866 235.723C13.5876 235.712 13.5905 235.702 13.5905 235.69C13.5905 235.69 13.5914 235.636 13.5924 235.531C13.5924 235.427 13.5953 235.27 13.6021 235.063C13.6069 234.858 13.6127 234.604 13.6287 234.303C13.6403 234.002 13.6572 233.656 13.6838 233.268C13.7859 231.717 13.9856 229.484 14.4445 226.854C14.8986 224.226 15.5984 221.2 16.6188 218.097C16.7417 217.708 16.8901 217.325 17.026 216.934C17.0962 216.739 17.1658 216.543 17.2359 216.346L17.3409 216.051C17.3762 215.95 17.4115 215.854 17.4463 215.77C17.7181 215.048 18.0295 214.39 18.3932 213.812C18.7554 213.238 19.1626 212.745 19.6022 212.417C19.8198 212.249 20.0442 212.113 20.2725 212.027C20.3291 212 20.3862 211.984 20.4437 211.966C20.5012 211.948 20.5578 211.927 20.6159 211.92C20.6734 211.91 20.7305 211.889 20.788 211.887L20.8683 211.878C20.8712 211.877 20.8751 211.876 20.8785 211.876L20.8838 211.877C20.8862 211.878 20.8828 211.877 20.9026 211.88L20.9897 211.888C21.0472 211.898 21.1048 211.913 21.1619 211.924C21.2204 211.93 21.2765 211.958 21.334 211.973C21.3916 211.986 21.4482 212.01 21.5052 212.035C21.6203 212.076 21.7311 212.144 21.8447 212.201C21.955 212.276 22.0681 212.339 22.176 212.431C22.6151 212.759 23.0204 213.26 23.3826 213.834C23.7458 214.414 24.0558 215.074 24.3266 215.797C24.4664 216.17 24.6071 216.579 24.7459 216.964C24.8808 217.356 25.0312 217.739 25.1521 218.13C26.1711 221.233 26.8694 224.259 27.3235 226.887C27.7012 229.066 27.9034 230.972 28.0189 232.443C27.9865 232.493 27.9551 232.541 27.9222 232.591C27.5518 233.167 27.1494 233.792 26.7243 234.453C26.5125 234.783 26.2939 235.122 26.0705 235.469C25.8485 235.825 25.6212 236.189 25.3905 236.558C25.1599 236.929 24.9258 237.308 24.6888 237.689C24.4465 238.071 24.2183 238.457 23.991 238.844C23.5311 239.62 23.0682 240.397 22.6006 241.156C21.6682 242.679 20.7063 244.072 19.7173 245.184C18.7337 246.302 17.6929 247.103 16.7417 247.698C15.7943 248.299 14.9223 248.653 14.3207 248.916C14.0175 249.041 13.7689 249.121 13.6055 249.185C13.4391 249.246 13.3511 249.278 13.3511 249.278C13.2341 249.376 13.3037 250.23 13.5136 251.23C13.7244 252.229 14.0103 253.002 14.1679 253C14.1684 253 14.2675 252.964 14.4537 252.896C14.6399 252.825 14.9132 252.737 15.2594 252.593C15.949 252.295 16.9448 251.891 18.0958 251.165C19.2419 250.454 20.5564 249.435 21.7523 248.077C22.9517 246.729 24.0427 245.127 25.0196 243.534C25.5109 242.736 25.9873 241.938 26.4477 241.16C26.5628 240.965 26.6779 240.771 26.7925 240.578C26.9057 240.387 27.0217 240.207 27.1354 240.023C27.3632 239.656 27.588 239.295 27.8091 238.939C28.0107 238.617 28.2076 238.301 28.4024 237.988C28.9417 240.773 30.4205 243.249 32.6185 244.601C33.7105 245.274 34.8765 245.614 36.0841 245.614C39.1366 245.614 41.8632 243.465 43.2018 240.007C45.1111 235.063 43.4775 229.075 39.5549 226.663ZM40.4061 238.291C39.5927 240.392 37.9363 241.697 36.0807 241.697C35.349 241.697 34.6415 241.489 33.9775 241.081C31.5952 239.615 30.6024 235.979 31.7645 232.974C31.8448 232.768 31.9357 232.57 32.0314 232.379C32.5005 231.66 32.7714 231.245 32.7723 231.244C32.7752 231.239 32.7762 231.232 32.7781 231.227C33.6539 230.175 34.8257 229.569 36.0899 229.569C36.8221 229.569 37.5296 229.775 38.1936 230.184C40.5754 231.65 41.5677 235.286 40.4061 238.291Z" fill="#2E4094"/>
<path d="M50.9861 43.8963C50.9214 42.6459 50.5435 41.4111 49.9146 40.3261C49.2815 39.2433 48.4033 38.3077 47.3686 37.5978C46.3335 36.8878 45.1467 36.3978 43.9118 36.1635C43.2911 36.0482 42.6723 35.9936 42.0342 36.0027C41.3759 36.014 40.7203 36.1183 40.0984 36.3015C38.8496 36.6686 37.7468 37.338 36.8283 38.1522C35.9071 38.9691 35.1555 39.9335 34.5739 40.9867C34.5483 41.033 34.5251 41.0804 34.5003 41.1278C34.4651 41.0622 34.4317 40.9966 34.3957 40.9321C33.8087 39.8835 33.0528 38.9236 32.1274 38.112C31.2046 37.3039 30.0963 36.6417 28.8448 36.2837C28.2222 36.1051 27.5662 36.0057 26.9083 36.0004C26.2768 35.9947 25.6533 36.0512 25.0361 36.1726C23.8043 36.413 22.621 36.9083 21.5906 37.6228C20.5632 38.3403 19.6865 39.2755 19.0631 40.3632C18.4405 41.4498 18.066 42.6853 18.0106 43.935C17.9967 44.2562 17.9975 44.5402 18.0071 44.8288C18.0161 45.1182 18.035 45.406 18.0586 45.692C18.1082 46.2643 18.1884 46.8301 18.2898 47.3899C18.3886 47.9508 18.5233 48.5014 18.6658 49.0491C18.818 49.5937 18.9806 50.1345 19.1715 50.6647C19.5464 51.7273 19.9948 52.7588 20.5009 53.7589C21.5108 55.7606 22.7592 57.6227 24.1412 59.3645C25.5263 61.1053 27.0601 62.7163 28.6764 64.2272C29.0799 64.6072 29.4985 64.969 29.9089 65.3407L31.1717 66.4147L32.465 67.4515L34.5003 69C35.1795 68.4842 35.8579 67.9673 36.5371 67.45L37.8308 66.4128C38.2525 66.054 38.6777 65.6994 39.0963 65.3369C39.5067 64.9652 39.9265 64.6034 40.3288 64.2227C41.9474 62.7087 43.4832 61.0962 44.869 59.352C46.2514 57.6079 47.5002 55.7427 48.5097 53.7384C49.0158 52.7365 49.4635 51.703 49.8379 50.6385C50.0277 50.1075 50.1907 49.566 50.3429 49.0206C50.4834 48.4715 50.6178 47.9201 50.7158 47.3584C50.8161 46.7975 50.8955 46.2309 50.9435 45.6586C50.9675 45.3715 50.9853 45.0837 50.9934 44.7943C50.9981 44.6491 51 44.5038 51 44.3593C50.9992 44.2148 50.9903 44.0499 50.9861 43.8963ZM34.4995 66.051L34.5003 66.0521L34.4995 66.051ZM48.6147 44.7276C48.6085 44.9729 48.5926 45.2202 48.5729 45.4671C48.5314 45.9616 48.4621 46.4573 48.3731 46.9515C48.2875 47.4464 48.1671 47.9379 48.042 48.4275C47.9049 48.916 47.7601 49.4025 47.5878 49.8826C47.2501 50.844 46.842 51.7865 46.3777 52.705C45.4518 54.5451 44.2909 56.2828 42.9918 57.9207C41.6903 59.5591 40.2336 61.0893 38.6893 62.5346C38.3048 62.8972 37.9032 63.2438 37.5106 63.5999L36.2982 64.6311L35.0536 65.6297L34.4995 66.051L33.9466 65.6308L32.7039 64.6338L31.4923 63.6033C31.1004 63.248 30.6993 62.9014 30.3148 62.5399C28.7728 61.0965 27.318 59.5678 26.0161 57.9325C24.7178 56.2961 23.5577 54.561 22.6314 52.7239C22.1667 51.8066 21.7582 50.866 21.4198 49.9054C21.2471 49.4264 21.1023 48.9398 20.9648 48.4529C20.8389 47.964 20.7173 47.4733 20.6314 46.9791C20.5419 46.4854 20.4715 45.9901 20.4296 45.4959C20.4091 45.2498 20.3929 45.0021 20.3859 44.7572C20.3758 44.5122 20.3774 44.2603 20.3874 44.0468C20.4258 43.1567 20.6918 42.2852 21.1359 41.5066C21.5828 40.7269 22.2179 40.0477 22.9683 39.5228C23.7222 39.0014 24.5908 38.6369 25.5015 38.4583C25.955 38.3688 26.4262 38.3263 26.8866 38.3305C27.3207 38.3346 27.7548 38.4003 28.1804 38.5212C29.0299 38.7643 29.8392 39.2346 30.542 39.8505C31.9457 41.0834 32.9525 42.8734 33.2364 44.684C33.2735 44.9426 33.4261 45.1599 33.6507 45.3287C33.8428 45.4743 34.0979 45.5835 34.3787 45.6097C34.4182 45.6135 34.4589 45.6158 34.4995 45.6154C34.5394 45.6154 34.5789 45.6135 34.618 45.6101C34.6242 45.6097 34.63 45.6082 34.6362 45.6078C34.9011 45.5809 35.1419 45.4796 35.3278 45.3446C35.5485 45.1849 35.7034 44.9775 35.7553 44.7336C35.8862 43.8276 36.2072 42.9227 36.6657 42.0922C37.1241 41.2617 37.7216 40.4998 38.4229 39.8785C39.1234 39.2577 39.9315 38.7806 40.7815 38.5311C41.2067 38.4063 41.6411 38.3381 42.076 38.3308C42.5317 38.3236 43.0069 38.3642 43.4611 38.4496C44.3742 38.6225 45.2454 38.9843 46.0032 39.5031C46.7599 40.0219 47.3953 40.703 47.8495 41.4786C48.2987 42.2572 48.5667 43.1287 48.6128 44.0191C48.6151 44.1333 48.622 44.2361 48.6216 44.3593C48.6209 44.4822 48.6189 44.6047 48.6147 44.7276Z" fill="#FC7B8F"/>
<path d="M0.21875 379.158C0.21875 378.221 0.492188 377.439 1.03906 376.814C1.60547 376.189 2.44531 375.877 3.55859 375.877C4.67188 375.877 5.51172 376.189 6.07812 376.814C6.66406 377.439 6.95703 378.221 6.95703 379.158C6.95703 380.057 6.66406 380.809 6.07812 381.414C5.51172 382.02 4.67188 382.322 3.55859 382.322C2.44531 382.322 1.60547 382.02 1.03906 381.414C0.492188 380.809 0.21875 380.057 0.21875 379.158Z" fill="#F5FDFC"/>
<path d="M285.219 438.158C285.219 437.221 285.492 436.439 286.039 435.814C286.605 435.189 287.445 434.877 288.559 434.877C289.672 434.877 290.512 435.189 291.078 435.814C291.664 436.439 291.957 437.221 291.957 438.158C291.957 439.057 291.664 439.809 291.078 440.414C290.512 441.02 289.672 441.322 288.559 441.322C287.445 441.322 286.605 441.02 286.039 440.414C285.492 439.809 285.219 439.057 285.219 438.158Z" fill="#F5FDFC"/>
<path d="M335.219 383.158C335.219 382.221 335.492 381.439 336.039 380.814C336.605 380.189 337.445 379.877 338.559 379.877C339.672 379.877 340.512 380.189 341.078 380.814C341.664 381.439 341.957 382.221 341.957 383.158C341.957 384.057 341.664 384.809 341.078 385.414C340.512 386.02 339.672 386.322 338.559 386.322C337.445 386.322 336.605 386.02 336.039 385.414C335.492 384.809 335.219 384.057 335.219 383.158Z" fill="#F5FDFC"/>
<path d="M98.2188 448.158C98.2188 447.221 98.4922 446.439 99.0391 445.814C99.6055 445.189 100.445 444.877 101.559 444.877C102.672 444.877 103.512 445.189 104.078 445.814C104.664 446.439 104.957 447.221 104.957 448.158C104.957 449.057 104.664 449.809 104.078 450.414C103.512 451.02 102.672 451.322 101.559 451.322C100.445 451.322 99.6055 451.02 99.0391 450.414C98.4922 449.809 98.2188 449.057 98.2188 448.158Z" fill="#F5FDFC"/>
<path d="M306.219 676.158C306.219 675.221 306.492 674.439 307.039 673.814C307.605 673.189 308.445 672.877 309.559 672.877C310.672 672.877 311.512 673.189 312.078 673.814C312.664 674.439 312.957 675.221 312.957 676.158C312.957 677.057 312.664 677.809 312.078 678.414C311.512 679.02 310.672 679.322 309.559 679.322C308.445 679.322 307.605 679.02 307.039 678.414C306.492 677.809 306.219 677.057 306.219 676.158Z" fill="#F5FDFC"/>
<path d="M70.2188 142.158C70.2188 141.221 70.4922 140.439 71.0391 139.814C71.6055 139.189 72.4453 138.877 73.5586 138.877C74.6719 138.877 75.5117 139.189 76.0781 139.814C76.6641 140.439 76.957 141.221 76.957 142.158C76.957 143.057 76.6641 143.809 76.0781 144.414C75.5117 145.02 74.6719 145.322 73.5586 145.322C72.4453 145.322 71.6055 145.02 71.0391 144.414C70.4922 143.809 70.2188 143.057 70.2188 142.158Z" fill="#F5FDFC"/>
<path d="M47.2188 297.158C47.2188 296.221 47.4922 295.439 48.0391 294.814C48.6055 294.189 49.4453 293.877 50.5586 293.877C51.6719 293.877 52.5117 294.189 53.0781 294.814C53.6641 295.439 53.957 296.221 53.957 297.158C53.957 298.057 53.6641 298.809 53.0781 299.414C52.5117 300.02 51.6719 300.322 50.5586 300.322C49.4453 300.322 48.6055 300.02 48.0391 299.414C47.4922 298.809 47.2188 298.057 47.2188 297.158Z" fill="#F5FDFC"/>
<path d="M232.219 420.158C232.219 419.221 232.492 418.439 233.039 417.814C233.605 417.189 234.445 416.877 235.559 416.877C236.672 416.877 237.512 417.189 238.078 417.814C238.664 418.439 238.957 419.221 238.957 420.158C238.957 421.057 238.664 421.809 238.078 422.414C237.512 423.02 236.672 423.322 235.559 423.322C234.445 423.322 233.605 423.02 233.039 422.414C232.492 421.809 232.219 421.057 232.219 420.158Z" fill="#F5FDFC"/>
<path d="M212.219 490.158C212.219 489.221 212.492 488.439 213.039 487.814C213.605 487.189 214.445 486.877 215.559 486.877C216.672 486.877 217.512 487.189 218.078 487.814C218.664 488.439 218.957 489.221 218.957 490.158C218.957 491.057 218.664 491.809 218.078 492.414C217.512 493.02 216.672 493.322 215.559 493.322C214.445 493.322 213.605 493.02 213.039 492.414C212.492 491.809 212.219 491.057 212.219 490.158Z" fill="#F5FDFC"/>
<path d="M106.219 490.158C106.219 489.221 106.492 488.439 107.039 487.814C107.605 487.189 108.445 486.877 109.559 486.877C110.672 486.877 111.512 487.189 112.078 487.814C112.664 488.439 112.957 489.221 112.957 490.158C112.957 491.057 112.664 491.809 112.078 492.414C111.512 493.02 110.672 493.322 109.559 493.322C108.445 493.322 107.605 493.02 107.039 492.414C106.492 491.809 106.219 491.057 106.219 490.158Z" fill="#F5FDFC"/>
<path d="M314.219 488.158C314.219 487.221 314.492 486.439 315.039 485.814C315.605 485.189 316.445 484.877 317.559 484.877C318.672 484.877 319.512 485.189 320.078 485.814C320.664 486.439 320.957 487.221 320.957 488.158C320.957 489.057 320.664 489.809 320.078 490.414C319.512 491.02 318.672 491.322 317.559 491.322C316.445 491.322 315.605 491.02 315.039 490.414C314.492 489.809 314.219 489.057 314.219 488.158Z" fill="#F5FDFC"/>
<path d="M178.219 394.158C178.219 393.221 178.492 392.439 179.039 391.814C179.605 391.189 180.445 390.877 181.559 390.877C182.672 390.877 183.512 391.189 184.078 391.814C184.664 392.439 184.957 393.221 184.957 394.158C184.957 395.057 184.664 395.809 184.078 396.414C183.512 397.02 182.672 397.322 181.559 397.322C180.445 397.322 179.605 397.02 179.039 396.414C178.492 395.809 178.219 395.057 178.219 394.158Z" fill="#F5FDFC"/>
<path d="M358.219 262.158C358.219 261.221 358.492 260.439 359.039 259.814C359.605 259.189 360.445 258.877 361.559 258.877C362.672 258.877 363.512 259.189 364.078 259.814C364.664 260.439 364.957 261.221 364.957 262.158C364.957 263.057 364.664 263.809 364.078 264.414C363.512 265.02 362.672 265.322 361.559 265.322C360.445 265.322 359.605 265.02 359.039 264.414C358.492 263.809 358.219 263.057 358.219 262.158Z" fill="#F5FDFC"/>
<path d="M329.219 234.158C329.219 233.221 329.492 232.439 330.039 231.814C330.605 231.189 331.445 230.877 332.559 230.877C333.672 230.877 334.512 231.189 335.078 231.814C335.664 232.439 335.957 233.221 335.957 234.158C335.957 235.057 335.664 235.809 335.078 236.414C334.512 237.02 333.672 237.322 332.559 237.322C331.445 237.322 330.605 237.02 330.039 236.414C329.492 235.809 329.219 235.057 329.219 234.158Z" fill="#F5FDFC"/>
<path d="M359.219 204.158C359.219 203.221 359.492 202.439 360.039 201.814C360.605 201.189 361.445 200.877 362.559 200.877C363.672 200.877 364.512 201.189 365.078 201.814C365.664 202.439 365.957 203.221 365.957 204.158C365.957 205.057 365.664 205.809 365.078 206.414C364.512 207.02 363.672 207.322 362.559 207.322C361.445 207.322 360.605 207.02 360.039 206.414C359.492 205.809 359.219 205.057 359.219 204.158Z" fill="#F5FDFC"/>
<path d="M355.219 467.158C355.219 466.221 355.492 465.439 356.039 464.814C356.605 464.189 357.445 463.877 358.559 463.877C359.672 463.877 360.512 464.189 361.078 464.814C361.664 465.439 361.957 466.221 361.957 467.158C361.957 468.057 361.664 468.809 361.078 469.414C360.512 470.02 359.672 470.322 358.559 470.322C357.445 470.322 356.605 470.02 356.039 469.414C355.492 468.809 355.219 468.057 355.219 467.158Z" fill="#F5FDFC"/>
<path d="M345.219 573.158C345.219 572.221 345.492 571.439 346.039 570.814C346.605 570.189 347.445 569.877 348.559 569.877C349.672 569.877 350.512 570.189 351.078 570.814C351.664 571.439 351.957 572.221 351.957 573.158C351.957 574.057 351.664 574.809 351.078 575.414C350.512 576.02 349.672 576.322 348.559 576.322C347.445 576.322 346.605 576.02 346.039 575.414C345.492 574.809 345.219 574.057 345.219 573.158Z" fill="#F5FDFC"/>
<path d="M360.219 531.158C360.219 530.221 360.492 529.439 361.039 528.814C361.605 528.189 362.445 527.877 363.559 527.877C364.672 527.877 365.512 528.189 366.078 528.814C366.664 529.439 366.957 530.221 366.957 531.158C366.957 532.057 366.664 532.809 366.078 533.414C365.512 534.02 364.672 534.322 363.559 534.322C362.445 534.322 361.605 534.02 361.039 533.414C360.492 532.809 360.219 532.057 360.219 531.158Z" fill="#F5FDFC"/>
<path d="M253.219 462.158C253.219 461.221 253.492 460.439 254.039 459.814C254.605 459.189 255.445 458.877 256.559 458.877C257.672 458.877 258.512 459.189 259.078 459.814C259.664 460.439 259.957 461.221 259.957 462.158C259.957 463.057 259.664 463.809 259.078 464.414C258.512 465.02 257.672 465.322 256.559 465.322C255.445 465.322 254.605 465.02 254.039 464.414C253.492 463.809 253.219 463.057 253.219 462.158Z" fill="#F5FDFC"/>
<path d="M179.219 441.158C179.219 440.221 179.492 439.439 180.039 438.814C180.605 438.189 181.445 437.877 182.559 437.877C183.672 437.877 184.512 438.189 185.078 438.814C185.664 439.439 185.957 440.221 185.957 441.158C185.957 442.057 185.664 442.809 185.078 443.414C184.512 444.02 183.672 444.322 182.559 444.322C181.445 444.322 180.605 444.02 180.039 443.414C179.492 442.809 179.219 442.057 179.219 441.158Z" fill="#F5FDFC"/>
<path d="M269.219 393.158C269.219 392.221 269.492 391.439 270.039 390.814C270.605 390.189 271.445 389.877 272.559 389.877C273.672 389.877 274.512 390.189 275.078 390.814C275.664 391.439 275.957 392.221 275.957 393.158C275.957 394.057 275.664 394.809 275.078 395.414C274.512 396.02 273.672 396.322 272.559 396.322C271.445 396.322 270.605 396.02 270.039 395.414C269.492 394.809 269.219 394.057 269.219 393.158Z" fill="#F5FDFC"/>
<path d="M70.2188 671.158C70.2188 670.221 70.4922 669.439 71.0391 668.814C71.6055 668.189 72.4453 667.877 73.5586 667.877C74.6719 667.877 75.5117 668.189 76.0781 668.814C76.6641 669.439 76.957 670.221 76.957 671.158C76.957 672.057 76.6641 672.809 76.0781 673.414C75.5117 674.02 74.6719 674.322 73.5586 674.322C72.4453 674.322 71.6055 674.02 71.0391 673.414C70.4922 672.809 70.2188 672.057 70.2188 671.158Z" fill="#F5FDFC"/>
<path d="M248.219 586.158C248.219 585.221 248.492 584.439 249.039 583.814C249.605 583.189 250.445 582.877 251.559 582.877C252.672 582.877 253.512 583.189 254.078 583.814C254.664 584.439 254.957 585.221 254.957 586.158C254.957 587.057 254.664 587.809 254.078 588.414C253.512 589.02 252.672 589.322 251.559 589.322C250.445 589.322 249.605 589.02 249.039 588.414C248.492 587.809 248.219 587.057 248.219 586.158Z" fill="#F5FDFC"/>
<path d="M268.219 655.158C268.219 654.221 268.492 653.439 269.039 652.814C269.605 652.189 270.445 651.877 271.559 651.877C272.672 651.877 273.512 652.189 274.078 652.814C274.664 653.439 274.957 654.221 274.957 655.158C274.957 656.057 274.664 656.809 274.078 657.414C273.512 658.02 272.672 658.322 271.559 658.322C270.445 658.322 269.605 658.02 269.039 657.414C268.492 656.809 268.219 656.057 268.219 655.158Z" fill="#F5FDFC"/>
<path d="M62.2188 480.158C62.2188 479.221 62.4922 478.439 63.0391 477.814C63.6055 477.189 64.4453 476.877 65.5586 476.877C66.6719 476.877 67.5117 477.189 68.0781 477.814C68.6641 478.439 68.957 479.221 68.957 480.158C68.957 481.057 68.6641 481.809 68.0781 482.414C67.5117 483.02 66.6719 483.322 65.5586 483.322C64.4453 483.322 63.6055 483.02 63.0391 482.414C62.4922 481.809 62.2188 481.057 62.2188 480.158Z" fill="#F5FDFC"/>
<path d="M135.219 663.158C135.219 662.221 135.492 661.439 136.039 660.814C136.605 660.189 137.445 659.877 138.559 659.877C139.672 659.877 140.512 660.189 141.078 660.814C141.664 661.439 141.957 662.221 141.957 663.158C141.957 664.057 141.664 664.809 141.078 665.414C140.512 666.02 139.672 666.322 138.559 666.322C137.445 666.322 136.605 666.02 136.039 665.414C135.492 664.809 135.219 664.057 135.219 663.158Z" fill="#F5FDFC"/>
<path d="M184.219 496.158C184.219 495.221 184.492 494.439 185.039 493.814C185.605 493.189 186.445 492.877 187.559 492.877C188.672 492.877 189.512 493.189 190.078 493.814C190.664 494.439 190.957 495.221 190.957 496.158C190.957 497.057 190.664 497.809 190.078 498.414C189.512 499.02 188.672 499.322 187.559 499.322C186.445 499.322 185.605 499.02 185.039 498.414C184.492 497.809 184.219 497.057 184.219 496.158Z" fill="#F5FDFC"/>
<path d="M6.21875 564.158C6.21875 563.221 6.49219 562.439 7.03906 561.814C7.60547 561.189 8.44531 560.877 9.55859 560.877C10.6719 560.877 11.5117 561.189 12.0781 561.814C12.6641 562.439 12.957 563.221 12.957 564.158C12.957 565.057 12.6641 565.809 12.0781 566.414C11.5117 567.02 10.6719 567.322 9.55859 567.322C8.44531 567.322 7.60547 567.02 7.03906 566.414C6.49219 565.809 6.21875 565.057 6.21875 564.158Z" fill="#F5FDFC"/>
<path d="M39.1896 451.081C39.1962 451.026 39.1849 450.96 39.1557 450.886L38.9326 449.607L16.9431 448C16.7017 448.013 16.4585 448.484 16.392 449.077C16.3254 449.67 16.4598 450.168 16.6947 450.216L34.8045 451.541C30.7852 454.788 22.4334 461.534 15.4473 467.177C12.0404 464.424 8.964 461.938 8.96269 461.937C8.87048 461.863 8.35855 462.155 7.82053 462.591C7.28163 463.025 6.91975 463.439 7.01196 463.513C7.01327 463.515 10.0901 465.999 13.4979 468.752C8.17457 473.052 4.06608 476.371 4.06347 476.373C3.86644 476.532 4.1435 477.014 4.68196 477.449C5.22042 477.884 5.81717 478.108 6.0142 477.949C6.01637 477.947 10.1253 474.627 15.4477 470.327C19.0621 473.247 22.4686 475.998 22.4704 475.999C22.5847 476.049 23.081 475.761 23.6025 475.34C24.124 474.919 24.4798 474.518 24.4185 474.425C24.4172 474.424 21.0115 471.672 17.3972 468.752C24.385 463.107 32.7403 456.357 36.7579 453.111L39.2666 467.561C39.3014 467.76 39.9412 467.853 40.6954 467.768C41.4496 467.682 42.0333 467.451 41.9985 467.251L39.1896 451.081Z" fill="#F67791"/>
<path d="M345.112 103.59C345.022 103.492 344.324 104.094 343.554 104.936C342.782 105.777 342.229 106.537 342.319 106.636L346.433 111.122C345.709 111.103 344.892 111.063 344.008 110.963C343.71 110.921 343.398 110.893 343.088 110.835C342.933 110.809 342.775 110.782 342.614 110.754C342.457 110.722 342.297 110.688 342.136 110.654C341.495 110.513 340.833 110.334 340.2 110.078C339.566 109.826 338.942 109.513 338.422 109.11C337.893 108.716 337.472 108.238 337.218 107.734C337.091 107.487 337.006 107.213 336.978 107.009C336.977 107.003 336.976 106.996 336.976 106.991C337.211 106.995 337.312 106.995 336.975 106.982C336.973 106.968 336.971 106.955 336.972 106.948C336.971 106.942 336.969 106.931 336.97 106.933C336.97 106.933 336.972 106.933 336.97 106.933L336.97 106.898L336.97 106.849V106.752V106.557C336.97 106.296 336.97 106.034 336.97 105.771C336.968 104.717 336.967 103.64 336.965 102.544C336.954 98.1637 336.932 93.4885 336.857 88.803C336.818 86.459 336.765 84.1135 336.684 81.7973C336.602 79.4797 336.494 77.1927 336.311 74.9532C336.222 73.8352 336.106 72.7246 335.954 71.6209C335.802 70.5185 335.608 69.4188 335.285 68.2844C335.197 67.9964 335.104 67.7098 335.001 67.4197C334.876 67.1202 334.778 66.8363 334.61 66.5272C334.528 66.3744 334.467 66.2297 334.364 66.0748C334.266 65.9207 334.167 65.7685 334.066 65.6184C333.949 65.4669 333.822 65.3175 333.698 65.1728C333.576 65.0268 333.412 64.8916 333.267 64.7578C333.123 64.6213 332.947 64.5139 332.781 64.4025C332.614 64.2857 332.44 64.2049 332.265 64.1227C332.088 64.0337 331.918 63.978 331.748 63.925C331.662 63.8999 331.576 63.8707 331.493 63.8496L331.253 63.8007L331.015 63.7559C330.936 63.7416 330.867 63.7376 330.794 63.7294C330.652 63.7158 330.495 63.6948 330.368 63.6948C330.235 63.6907 330.103 63.688 329.972 63.6839C329.804 63.6921 329.638 63.7022 329.471 63.7172C328.815 63.7967 328.206 64.0011 327.697 64.2715C327.192 64.5431 326.746 64.8549 326.377 65.1844C325.621 65.8385 325.07 66.5218 324.604 67.1705C324.326 67.5617 324.081 67.9414 323.858 68.3089C323.843 68.2586 323.831 68.2097 323.817 68.1588C323.741 67.9251 323.667 67.6942 323.587 67.4625C323.488 67.2201 323.399 66.9864 323.288 66.7446L323.101 66.3757L323.006 66.1924C322.971 66.1312 322.929 66.0674 322.89 66.0056L322.646 65.6367C322.557 65.5131 322.451 65.3902 322.351 65.2706L322.197 65.0927C322.14 65.0356 322.078 64.9799 322.018 64.9242C321.896 64.8142 321.779 64.7001 321.646 64.6029C321.511 64.5071 321.374 64.4161 321.236 64.3285C321.098 64.2436 320.954 64.1811 320.811 64.1125C320.243 63.8605 319.678 63.7478 319.221 63.7145L319.042 63.6989L318.879 63.6934C318.77 63.6893 318.662 63.6866 318.554 63.6839C318.418 63.6893 318.278 63.6982 318.141 63.709C318.003 63.7172 317.868 63.7315 317.738 63.762C317.606 63.7885 317.475 63.8164 317.345 63.8456C317.217 63.8788 317.099 63.9237 316.976 63.9651C316.727 64.0446 316.512 64.1533 316.291 64.2599C315.429 64.7028 314.801 65.2761 314.27 65.8303C313.88 66.2467 313.544 66.661 313.246 67.0679C313.228 67.0122 313.21 66.9565 313.192 66.9022C313.167 66.8315 313.142 66.7643 313.117 66.6964C313.066 66.5585 313.01 66.4348 312.957 66.3105C312.845 66.0667 312.73 65.8412 312.609 65.6354C312.369 65.2231 312.123 64.8739 311.885 64.5846C311.408 63.9998 310.985 63.6255 310.696 63.3837C310.549 63.2641 310.437 63.1752 310.361 63.1133C310.283 63.0576 310.243 63.0284 310.243 63.0271C310.121 62.9408 309.889 63.0644 309.625 63.3443C309.36 63.6214 309.064 64.0541 308.784 64.5649C308.503 65.0743 308.287 65.5627 308.149 65.9315C308.014 66.3004 307.96 66.5483 308.032 66.5985C308.032 66.5985 308.058 66.6142 308.102 66.6488C308.145 66.6834 308.21 66.7364 308.293 66.8044C308.46 66.9409 308.69 67.1494 308.926 67.4388C309.045 67.5821 309.159 67.7478 309.264 67.9271C309.318 68.0188 309.365 68.1112 309.41 68.2084C309.428 68.2545 309.453 68.3041 309.469 68.3503L309.495 68.4196C309.501 68.4366 309.512 68.4753 309.509 68.4644C309.51 68.4631 309.509 68.4631 309.509 68.4631C309.509 68.6634 309.509 68.8706 309.509 69.0825C309.509 69.5376 309.509 70.0165 309.509 70.5164C309.509 74.5124 309.509 79.8404 309.51 85.1691C309.51 95.8251 309.512 106.48 309.512 106.484C309.566 106.727 310.428 106.921 311.484 106.921C312.541 106.921 313.403 106.729 313.457 106.486C313.457 106.482 313.457 95.8251 313.459 85.1691C313.459 81.8686 313.459 78.5661 313.459 75.5829C313.487 75.5618 313.507 75.5381 313.518 75.5089C313.518 75.5075 313.584 75.3221 313.71 74.9729C313.839 74.6252 314.033 74.113 314.306 73.4793C314.578 72.8462 314.929 72.0889 315.374 71.2813C315.82 70.4852 316.37 69.6083 317.017 68.9263C317.336 68.5894 317.679 68.3014 317.977 68.1567C318.05 68.1248 318.124 68.0786 318.189 68.065C318.223 68.0555 318.256 68.0372 318.288 68.0304C318.319 68.0263 318.349 68.0209 318.379 68.0134C318.41 68.0012 318.439 68.0012 318.467 68.0025C318.496 68.0012 318.522 67.9971 318.553 67.9917L318.732 67.9971L318.821 67.9998L318.895 68.008C319.114 68.0202 319.231 68.0664 319.308 68.097C319.383 68.1234 319.407 68.1513 319.487 68.2389C319.505 68.2641 319.526 68.2776 319.547 68.3082C319.569 68.3469 319.591 68.3822 319.616 68.4182C319.628 68.4366 319.64 68.4502 319.654 68.4726L319.689 68.548L319.767 68.6981C319.818 68.8095 319.866 68.9447 319.921 69.0669C319.969 69.2116 320.016 69.3576 320.064 69.5037C320.247 70.1231 320.391 70.8452 320.518 71.593C320.635 72.3545 320.739 73.1397 320.819 73.952C320.984 75.572 321.094 77.2566 321.181 78.9479C321.346 82.3373 321.427 85.7587 321.479 88.9708C321.531 92.1836 321.552 95.1872 321.568 97.7636C321.582 102.919 321.591 106.356 321.591 106.359C321.646 106.672 322.508 106.921 323.564 106.921C324.62 106.921 325.483 106.672 325.536 106.357C325.536 106.355 325.528 102.908 325.516 97.7385C325.501 95.1513 325.479 92.1334 325.426 88.8941C325.373 85.6554 325.293 82.196 325.124 78.7122C325.068 77.6295 325.002 76.5434 324.918 75.4566C324.962 75.4206 324.995 75.3771 325.013 75.3268C325.013 75.3268 325.1 75.0735 325.281 74.6028C325.463 74.132 325.735 73.4419 326.131 72.6037C326.525 71.7717 327.04 70.7732 327.715 69.8256C328.051 69.3549 328.432 68.9012 328.826 68.5643C329.022 68.3863 329.218 68.2647 329.399 68.1622C329.58 68.063 329.736 68.0284 329.876 68.0046C329.91 68.0046 329.944 68.0019 329.978 67.9951C330.05 67.9964 330.121 67.9991 330.194 68.0005C330.273 67.9991 330.32 68.0127 330.384 68.0161C330.413 68.0188 330.448 68.0188 330.472 68.0243L330.541 68.0385C330.73 68.0807 330.779 68.1139 330.845 68.1649C330.86 68.19 330.881 68.1846 330.903 68.2206C330.924 68.2511 330.947 68.2736 330.975 68.3055C331 68.3517 331.028 68.3958 331.059 68.4393C331.091 68.4767 331.119 68.5561 331.151 68.6118C331.217 68.7191 331.274 68.8998 331.341 69.0472C331.401 69.2184 331.46 69.4011 331.519 69.5899C331.741 70.3697 331.916 71.2989 332.049 72.2763C332.183 73.2551 332.293 74.2835 332.376 75.3452C332.55 77.4637 332.656 79.6937 332.737 81.9678C332.817 84.2419 332.869 86.5609 332.907 88.8839C332.982 93.5326 333.005 98.1902 333.015 102.56C333.016 103.653 333.018 104.727 333.02 105.779C333.02 106.042 333.02 106.302 333.02 106.563V106.916L333.021 107.064L333.025 107.16C333.028 107.226 333.033 107.279 333.038 107.336C333.046 107.454 333.06 107.552 333.073 107.66C333.191 108.473 333.436 109.167 333.75 109.798C334.384 111.056 335.276 111.981 336.169 112.653C337.067 113.337 337.981 113.782 338.852 114.131C339.726 114.481 340.563 114.706 341.354 114.88C341.552 114.921 341.747 114.962 341.939 115.002C342.131 115.035 342.32 115.067 342.507 115.099C342.881 115.169 343.24 115.201 343.589 115.249C344.665 115.373 345.621 115.415 346.455 115.433C345.073 116.941 343.691 118.448 342.31 119.954C342.263 120.089 342.805 120.828 343.552 121.642C344.299 122.457 344.976 123.048 345.1 122.997L354 113.293C351.038 110.053 348.075 106.821 345.112 103.59Z" fill="#25B0C5"/>
<path d="M46.9074 651.097C46.8403 650.754 46.7144 650.418 46.5644 650.086C46.4062 649.755 46.2085 649.435 45.9781 649.126C45.7411 648.822 45.4743 648.527 45.1732 648.253C44.8686 647.982 44.5383 647.723 44.1763 647.49C43.8113 647.258 43.4237 647.043 43.0084 646.857C42.5917 646.673 42.1529 646.51 41.6926 646.38C41.2307 646.252 40.7515 646.151 40.2579 646.085C39.7633 646.024 39.2574 645.993 38.7475 646.001C38.238 646.014 37.726 646.059 37.2211 646.144C36.7199 646.234 36.2207 646.349 35.7455 646.508C34.7891 646.818 33.9197 647.266 33.1471 647.781C31.6105 648.827 30.4923 650.14 29.6382 651.485C29.5363 651.652 29.4283 651.823 29.3321 651.987L29.0581 652.473C28.8753 652.798 28.6931 653.122 28.5108 653.446C28.1314 654.087 27.8221 654.752 27.4939 655.403C27.3347 655.731 27.1616 656.053 27.0167 656.381C26.8729 656.709 26.729 657.036 26.5871 657.36C26.4453 657.686 26.305 658.009 26.1652 658.329C26.0408 658.654 25.9174 658.976 25.794 659.296C25.281 660.63 24.855 661.93 24.5002 663.171C24.1454 661.93 23.7183 660.629 23.2058 659.296C23.0834 658.976 22.9595 658.654 22.8346 658.329C22.6953 658.009 22.5545 657.686 22.4127 657.361C22.2709 657.036 22.127 656.709 21.9831 656.381C21.8382 656.053 21.6652 655.731 21.5064 655.403C21.1777 654.752 20.8685 654.087 20.4891 653.446C20.3073 653.122 20.1245 652.798 19.9422 652.473L19.6678 651.987C19.5715 651.823 19.463 651.652 19.3616 651.485C18.5076 650.14 17.3893 648.826 15.8528 647.781C15.0802 647.266 14.2108 646.818 13.2538 646.508C12.7792 646.349 12.28 646.234 11.7787 646.144C11.2739 646.059 10.7618 646.014 10.2524 646.001C9.74242 645.993 9.23655 646.024 8.74195 646.085C8.24786 646.151 7.76861 646.252 7.30729 646.38C6.84699 646.51 6.40819 646.673 5.99141 646.857C5.57566 647.043 5.18806 647.258 4.82402 647.49C4.461 647.723 4.13076 647.982 3.82611 648.253C3.52453 648.527 3.25829 648.822 3.02174 649.126C2.79082 649.435 2.59318 649.755 2.43497 650.086C2.28495 650.418 2.15899 650.754 2.09192 651.097C1.9419 651.779 1.98491 652.464 2.15285 653.083C2.32437 653.704 2.63312 654.252 2.98231 654.717C3.33304 655.183 3.73087 655.566 4.12052 655.884C4.31252 656.049 4.51169 656.186 4.69755 656.323C4.887 656.453 5.07388 656.57 5.24899 656.682C5.9612 657.115 6.55821 657.372 6.96065 657.552C7.16392 657.635 7.3206 657.699 7.42607 657.742C7.53104 657.786 7.58685 657.805 7.58685 657.805C7.92733 657.93 8.48697 657.496 8.83667 656.837C9.18638 656.179 9.25601 655.565 8.99079 655.469C8.99079 655.469 8.9447 655.454 8.86278 655.419C8.77984 655.385 8.65644 655.335 8.49567 655.268C8.18539 655.13 7.72048 654.929 7.21666 654.621C7.09531 654.542 6.96373 654.46 6.83419 654.372C6.7113 654.279 6.57306 654.188 6.45376 654.082C6.20031 653.876 5.95916 653.642 5.76408 653.379C5.36471 652.857 5.14608 652.226 5.29405 651.529C5.42973 650.836 5.97861 650.073 6.86798 649.502C7.74864 648.929 8.94624 648.565 10.1787 648.591C10.4869 648.6 10.7972 648.626 11.1059 648.678C11.4131 648.735 11.7224 648.803 12.0234 648.906C12.6297 649.101 13.2103 649.397 13.7556 649.759C14.8426 650.496 15.7478 651.52 16.4641 652.654C16.5522 652.799 16.6423 652.939 16.7299 653.09L16.9915 653.555C17.1666 653.865 17.3402 654.175 17.5148 654.483C17.8788 655.097 18.1707 655.728 18.4835 656.348C18.6346 656.66 18.8004 656.965 18.9377 657.278C19.0749 657.59 19.2111 657.901 19.3463 658.21C19.4809 658.52 19.6156 658.827 19.7487 659.132C19.8665 659.442 19.9847 659.748 20.1015 660.053C21.0379 662.488 21.6805 664.816 22.0968 666.825C22.5146 668.835 22.7097 670.526 22.7982 671.704C22.8448 672.292 22.8597 672.753 22.871 673.066C22.8761 673.378 22.8781 673.543 22.8781 673.543C22.8802 673.553 22.8843 673.562 22.8884 673.571C22.9319 673.696 23.1126 673.805 23.3835 673.881C23.6733 673.968 24.065 674.01 24.493 673.998C24.4966 673.998 24.5002 673.997 24.5038 673.998C24.5048 673.998 24.5058 673.998 24.5073 673.998C24.9354 674.01 25.3266 673.968 25.6164 673.881C25.8867 673.805 26.0675 673.696 26.112 673.571C26.1156 673.563 26.1207 673.553 26.1217 673.543C26.1217 673.543 26.1248 673.378 26.1299 673.066C26.1407 672.754 26.155 672.293 26.2021 671.704C26.2907 670.525 26.4853 668.836 26.9036 666.826C27.3198 664.816 27.9624 662.488 28.8989 660.054C29.0156 659.749 29.1329 659.442 29.2517 659.132C29.3848 658.827 29.5184 658.52 29.6541 658.21C29.7898 657.901 29.925 657.59 30.0627 657.278C30.2004 656.965 30.3658 656.66 30.5168 656.348C30.8292 655.728 31.122 655.097 31.4861 654.483C31.6602 654.175 31.8348 653.865 32.0089 653.555L32.271 653.09C32.3586 652.939 32.4482 652.799 32.5367 652.654C33.253 651.52 34.1583 650.497 35.2453 649.759C35.7901 649.397 36.3712 649.101 36.9774 648.906C37.2785 648.803 37.5867 648.736 37.8944 648.678C38.2037 648.626 38.5135 648.601 38.8217 648.591C40.0546 648.565 41.2517 648.929 42.1329 649.502C43.0218 650.073 43.5711 650.836 43.7073 651.529C43.8553 652.226 43.6367 652.857 43.2373 653.379C43.0417 653.642 42.8011 653.876 42.5476 654.081C42.4288 654.188 42.2896 654.279 42.1667 654.372C42.0377 654.461 41.9061 654.542 41.7847 654.621C41.2814 654.929 40.816 655.13 40.5057 655.268C40.3455 655.335 40.2221 655.385 40.1386 655.419C40.0567 655.454 40.0106 655.469 40.0106 655.469C39.7454 655.565 39.8145 656.178 40.1647 656.837C40.5144 657.496 41.074 657.93 41.4135 657.805C41.4135 657.805 41.4693 657.786 41.5748 657.742C41.6803 657.699 41.8364 657.635 42.0402 657.552C42.4427 657.372 43.0392 657.115 43.7519 656.682C43.9275 656.571 44.1134 656.453 44.3028 656.323C44.4892 656.186 44.6884 656.049 44.8804 655.884C45.2705 655.566 45.6683 655.183 46.0186 654.717C46.3683 654.252 46.6765 653.704 46.8475 653.083C47.0149 652.464 47.0585 651.778 46.9074 651.097Z" fill="#3E2A70"/>
<path d="M331.617 559.741C332.751 560.297 333.961 560.58 335.214 560.58C338.382 560.58 341.212 558.802 342.601 555.939C343.563 553.956 343.699 551.715 342.985 549.629C342.271 547.542 340.792 545.86 338.82 544.893C338.788 544.878 338.756 544.864 338.724 544.849C338.773 544.835 338.82 544.821 338.87 544.807C339.79 544.578 340.77 544.355 341.805 544.225C341.934 544.206 342.064 544.187 342.193 544.168C342.324 544.155 342.456 544.141 342.588 544.127C342.852 544.102 343.118 544.071 343.386 544.048C343.925 544.017 344.468 543.971 345.02 543.967C345.571 543.944 346.129 543.959 346.688 543.964C346.968 543.971 347.248 543.988 347.529 544L347.95 544.019L348.372 544.053C350.622 544.215 352.862 544.609 354.932 545.108C357.002 545.616 358.899 546.239 360.496 546.847C362.093 547.455 363.387 548.053 364.284 548.487C364.731 548.706 365.083 548.878 365.317 549.006C365.554 549.13 365.68 549.196 365.68 549.196C365.882 549.255 366.332 548.764 366.704 548.069C367.077 547.373 367.226 546.724 367.048 546.584C367.047 546.584 366.913 546.514 366.661 546.381C366.411 546.245 366.037 546.062 365.561 545.829C364.608 545.367 363.233 544.732 361.538 544.086C359.843 543.441 357.83 542.779 355.625 542.237C353.418 541.705 351.022 541.282 348.589 541.107L348.134 541.071L347.677 541.049C347.372 541.037 347.068 541.019 346.764 541.011C346.155 541.004 345.548 540.989 344.944 541.013C344.341 541.018 343.743 541.067 343.151 541.102C342.855 541.128 342.562 541.161 342.27 541.19C342.125 541.205 341.979 541.22 341.835 541.235C341.69 541.256 341.547 541.277 341.403 541.297C340.255 541.443 339.155 541.69 338.119 541.949C337.862 542.023 337.608 542.096 337.358 542.168C337.233 542.205 337.109 542.238 336.987 542.277C336.865 542.319 336.745 542.36 336.625 542.401C336.386 542.483 336.152 542.563 335.921 542.642C335.692 542.728 335.47 542.82 335.252 542.907C333.505 543.607 332.141 544.421 331.224 545.035C330.851 545.294 330.542 545.504 330.317 545.677C330.191 545.771 330.068 545.868 329.947 545.969C329.866 546.033 329.823 546.068 329.823 546.068C329.809 546.078 329.798 546.092 329.789 546.107C328.991 546.816 328.324 547.688 327.836 548.695C326.874 550.678 326.737 552.919 327.451 555.005C328.166 557.092 329.646 558.774 331.617 559.741ZM340.171 550.603C340.626 551.933 340.539 553.362 339.926 554.627C339.04 556.452 337.235 557.587 335.214 557.587C334.416 557.587 333.646 557.406 332.923 557.052C331.666 556.435 330.722 555.362 330.267 554.032C329.812 552.702 329.899 551.273 330.512 550.008C331.398 548.183 333.203 547.049 335.224 547.049C336.021 547.049 336.793 547.229 337.515 547.584C338.772 548.2 339.716 549.273 340.171 550.603Z" fill="#CAA060"/>
<path d="M368.598 556.993C367.883 554.906 366.404 553.224 364.433 552.257C363.299 551.701 362.089 551.419 360.836 551.419C357.668 551.419 354.837 553.197 353.449 556.059C351.463 560.153 353.159 565.108 357.23 567.106C357.262 567.121 357.294 567.135 357.326 567.15C357.277 567.164 357.229 567.178 357.18 567.192C356.26 567.421 355.28 567.644 354.245 567.774C354.116 567.793 353.986 567.811 353.857 567.831C353.726 567.844 353.594 567.858 353.462 567.871C353.198 567.897 352.932 567.928 352.664 567.952C352.125 567.982 351.582 568.028 351.03 568.033C350.479 568.055 349.921 568.04 349.362 568.035C349.082 568.028 348.801 568.011 348.521 568L348.099 567.98L347.678 567.946C345.429 567.785 343.188 567.39 341.117 566.891C339.048 566.383 337.15 565.76 335.554 565.152C333.957 564.544 332.663 563.947 331.766 563.512C331.319 563.293 330.967 563.121 330.733 562.994C330.496 562.87 330.37 562.804 330.37 562.804C330.168 562.744 329.718 563.236 329.345 563.932C328.972 564.626 328.824 565.276 329.002 565.416C329.002 565.416 329.137 565.486 329.388 565.618C329.639 565.754 330.013 565.938 330.488 566.172C331.442 566.633 332.817 567.268 334.512 567.913C336.206 568.56 338.22 569.221 340.425 569.764C342.632 570.295 345.028 570.718 347.461 570.894L347.916 570.929L348.373 570.951C348.677 570.964 348.981 570.982 349.286 570.99C349.895 570.996 350.501 571.011 351.105 570.988C351.708 570.982 352.307 570.933 352.899 570.898C353.195 570.873 353.488 570.839 353.78 570.81C353.925 570.795 354.071 570.78 354.215 570.765C354.36 570.744 354.503 570.723 354.647 570.703C355.795 570.557 356.895 570.31 357.93 570.051C358.188 569.977 358.442 569.904 358.691 569.832C358.816 569.795 358.941 569.762 359.063 569.723C359.185 569.681 359.305 569.64 359.424 569.599C359.664 569.517 359.898 569.437 360.129 569.357C360.357 569.272 360.579 569.179 360.797 569.093C362.544 568.393 363.908 567.58 364.825 566.965C365.203 566.703 365.515 566.49 365.741 566.316C365.863 566.225 365.983 566.131 366.1 566.033C366.182 565.967 366.226 565.932 366.226 565.932C366.24 565.921 366.251 565.907 366.26 565.892C367.057 565.184 367.724 564.311 368.213 563.305C369.175 561.32 369.311 559.079 368.598 556.993ZM356.124 557.371C357.009 555.546 358.815 554.412 360.836 554.412C361.633 554.412 362.404 554.592 363.127 554.947C364.385 555.564 365.328 556.636 365.783 557.966C366.238 559.297 366.151 560.726 365.538 561.99C364.653 563.816 362.847 564.95 360.826 564.95C360.028 564.95 359.257 564.77 358.534 564.415C355.939 563.142 354.858 559.982 356.124 557.371Z" fill="#CAA060"/>
<path d="M107.219 53.1582C107.219 52.2207 107.492 51.4395 108.039 50.8145C108.605 50.1895 109.445 49.877 110.559 49.877C111.672 49.877 112.512 50.1895 113.078 50.8145C113.664 51.4395 113.957 52.2207 113.957 53.1582C113.957 54.0566 113.664 54.8086 113.078 55.4141C112.512 56.0195 111.672 56.3223 110.559 56.3223C109.445 56.3223 108.605 56.0195 108.039 55.4141C107.492 54.8086 107.219 54.0566 107.219 53.1582Z" fill="#E5FAF5"/>
<path d="M25.2188 101.158C25.2188 100.221 25.4922 99.4395 26.0391 98.8145C26.6055 98.1895 27.4453 97.877 28.5586 97.877C29.6719 97.877 30.5117 98.1895 31.0781 98.8145C31.6641 99.4395 31.957 100.221 31.957 101.158C31.957 102.057 31.6641 102.809 31.0781 103.414C30.5117 104.02 29.6719 104.322 28.5586 104.322C27.4453 104.322 26.6055 104.02 26.0391 103.414C25.4922 102.809 25.2188 102.057 25.2188 101.158Z" fill="#F5FDFC"/>
<path d="M130.219 36.1582C130.219 35.2207 130.492 34.4395 131.039 33.8145C131.605 33.1895 132.445 32.877 133.559 32.877C134.672 32.877 135.512 33.1895 136.078 33.8145C136.664 34.4395 136.957 35.2207 136.957 36.1582C136.957 37.0566 136.664 37.8086 136.078 38.4141C135.512 39.0195 134.672 39.3223 133.559 39.3223C132.445 39.3223 131.605 39.0195 131.039 38.4141C130.492 37.8086 130.219 37.0566 130.219 36.1582Z" fill="#E5FAF5"/>
<path d="M298.219 51.1582C298.219 50.2207 298.492 49.4395 299.039 48.8145C299.605 48.1895 300.445 47.877 301.559 47.877C302.672 47.877 303.512 48.1895 304.078 48.8145C304.664 49.4395 304.957 50.2207 304.957 51.1582C304.957 52.0566 304.664 52.8086 304.078 53.4141C303.512 54.0195 302.672 54.3223 301.559 54.3223C300.445 54.3223 299.605 54.0195 299.039 53.4141C298.492 52.8086 298.219 52.0566 298.219 51.1582Z" fill="#E5F7F4"/>
<path d="M277.219 14.1582C277.219 13.2207 277.492 12.4395 278.039 11.8145C278.605 11.1895 279.445 10.877 280.559 10.877C281.672 10.877 282.512 11.1895 283.078 11.8145C283.664 12.4395 283.957 13.2207 283.957 14.1582C283.957 15.0566 283.664 15.8086 283.078 16.4141C282.512 17.0195 281.672 17.3223 280.559 17.3223C279.445 17.3223 278.605 17.0195 278.039 16.4141C277.492 15.8086 277.219 15.0566 277.219 14.1582Z" fill="#E5F7F4"/>
<path d="M351.219 27.1582C351.219 26.2207 351.492 25.4395 352.039 24.8145C352.605 24.1895 353.445 23.877 354.559 23.877C355.672 23.877 356.512 24.1895 357.078 24.8145C357.664 25.4395 357.957 26.2207 357.957 27.1582C357.957 28.0566 357.664 28.8086 357.078 29.4141C356.512 30.0195 355.672 30.3223 354.559 30.3223C353.445 30.3223 352.605 30.0195 352.039 29.4141C351.492 28.8086 351.219 28.0566 351.219 27.1582Z" fill="#E5F7F4"/>
<path d="M110.219 12.1582C110.219 11.2207 110.492 10.4395 111.039 9.81445C111.605 9.18945 112.445 8.87695 113.559 8.87695C114.672 8.87695 115.512 9.18945 116.078 9.81445C116.664 10.4395 116.957 11.2207 116.957 12.1582C116.957 13.0566 116.664 13.8086 116.078 14.4141C115.512 15.0195 114.672 15.3223 113.559 15.3223C112.445 15.3223 111.605 15.0195 111.039 14.4141C110.492 13.8086 110.219 13.0566 110.219 12.1582Z" fill="#E5FAF5"/>
<path d="M368.872 156.069C368.872 156.069 368.429 155.978 367.654 155.818C367.265 155.747 366.793 155.661 366.251 155.563C365.979 155.52 365.689 155.474 365.384 155.426C365.231 155.401 365.075 155.377 364.915 155.352C364.754 155.33 364.59 155.307 364.422 155.285C363.433 155.141 362.318 155.014 361.124 154.909C361.124 150.968 361.126 138.964 361.126 137.089C362.319 136.985 363.434 136.857 364.422 136.714C364.59 136.692 364.754 136.669 364.915 136.647C365.075 136.622 365.231 136.597 365.384 136.573C365.689 136.525 365.979 136.479 366.251 136.436C366.793 136.338 367.265 136.252 367.654 136.181C368.429 136.022 368.872 135.931 368.872 135.931C369.027 135.871 369.044 135.422 368.907 134.907C368.771 134.391 368.537 133.994 368.375 134C368.375 134 367.95 134.087 367.205 134.241C366.831 134.308 366.377 134.391 365.856 134.485C365.594 134.526 365.316 134.57 365.022 134.617C364.875 134.64 364.724 134.664 364.57 134.688C364.416 134.709 364.257 134.731 364.095 134.753C361.51 135.126 358.018 135.397 354.519 135.38C351.018 135.373 347.521 135.082 344.927 134.73C343.629 134.559 342.556 134.376 341.811 134.238C341.064 134.1 340.65 134.007 340.65 134.007C340.492 133.973 340.255 134.376 340.101 134.907C339.946 135.437 339.975 135.902 340.147 135.94C340.147 135.94 340.261 135.964 340.471 136.008C340.681 136.051 340.988 136.113 341.378 136.185C342.158 136.329 343.271 136.518 344.613 136.695C345.71 136.844 346.963 136.982 348.306 137.094C348.306 138.98 348.308 150.964 348.308 154.907C346.964 155.018 345.711 155.156 344.613 155.305C343.271 155.481 342.158 155.671 341.378 155.815C340.988 155.887 340.681 155.949 340.471 155.992C340.261 156.037 340.147 156.061 340.147 156.061C339.975 156.097 339.947 156.563 340.101 157.093C340.254 157.623 340.492 158.027 340.65 157.993C340.65 157.993 341.064 157.9 341.811 157.762C342.556 157.624 343.629 157.441 344.927 157.27C347.521 156.917 351.018 156.627 354.519 156.62C358.018 156.603 361.51 156.874 364.095 157.247C364.257 157.269 364.416 157.291 364.57 157.312C364.724 157.336 364.875 157.36 365.022 157.383C365.315 157.43 365.594 157.474 365.856 157.515C366.377 157.61 366.831 157.691 367.205 157.759C367.949 157.912 368.375 158 368.375 158C368.536 158.006 368.771 157.61 368.907 157.093C369.044 156.577 369.027 156.129 368.872 156.069ZM354.51 154.634C353.149 154.636 351.789 154.681 350.479 154.754C350.48 150.764 350.48 139.518 350.48 137.245C351.79 137.318 353.149 137.363 354.51 137.365C356.013 137.373 357.516 137.328 358.952 137.246C358.952 139.521 358.953 150.763 358.954 154.754C357.517 154.671 356.014 154.626 354.51 154.634Z" fill="#B68DCB"/>
<path d="M46.6999 128.677C46.5105 128.589 46.2467 128.54 45.9545 128.541C45.6622 128.541 45.396 128.587 45.2023 128.65C45.0086 128.716 44.8874 128.799 44.885 128.897C44.885 128.898 44.884 128.93 44.8827 128.992C44.8793 129.055 44.8697 129.147 44.86 129.268C44.855 129.328 44.8496 129.395 44.8436 129.469C44.8333 129.543 44.8216 129.623 44.8092 129.709C44.7952 129.796 44.7878 129.89 44.7668 129.988C44.7474 130.086 44.7267 130.19 44.7043 130.3C44.6065 130.739 44.4572 131.265 44.2117 131.837C43.9672 132.409 43.6272 133.026 43.1793 133.639C42.7355 134.254 42.17 134.849 41.5167 135.4C40.8625 135.951 40.105 136.434 39.2844 136.842C37.6365 137.642 35.713 138.076 33.7859 138.033C31.8594 138.009 29.9477 137.507 28.3292 136.637C27.5206 136.202 26.7855 135.678 26.1512 135.102C25.521 134.521 24.9823 133.898 24.5668 133.26C24.1486 132.625 23.8407 131.99 23.6269 131.404C23.4122 130.818 23.293 130.283 23.2198 129.84C23.2041 129.728 23.1887 129.623 23.1747 129.523C23.1607 129.424 23.1577 129.329 23.1487 129.242C23.1413 129.155 23.1346 129.074 23.1283 129C23.1263 128.925 23.1243 128.858 23.123 128.797C23.1203 128.676 23.1153 128.584 23.1156 128.52C23.1176 128.458 23.1186 128.425 23.1186 128.425C23.0949 128.242 22.6367 128.056 22.0716 128.008C21.5071 127.961 21.0389 128.126 21.0035 128.384C21.0035 128.385 21.0025 128.428 21.0001 128.513C20.9991 128.598 21.0048 128.723 21.0085 128.887C21.0108 128.969 21.0135 129.059 21.0165 129.16C21.0245 129.26 21.0332 129.37 21.0425 129.488C21.0539 129.605 21.0609 129.733 21.0786 129.867C21.0976 130.001 21.1173 130.144 21.1391 130.294C21.2356 130.892 21.3979 131.612 21.6818 132.386C21.9637 133.159 22.3655 133.983 22.8958 134.788C23.4232 135.595 24.0892 136.365 24.8547 137.07C25.6232 137.769 26.4993 138.39 27.4498 138.902C27.9685 139.18 28.5099 139.424 29.067 139.634C25.9602 141.678 23.8554 145.585 23.8554 150.061C23.8554 156.644 28.4087 162 34.0053 162C39.6023 162 44.1559 156.644 44.1559 150.061C44.1559 145.586 42.0515 141.679 38.9457 139.635C39.3378 139.488 39.7215 139.323 40.0949 139.142C41.0565 138.666 41.9526 138.094 42.7415 137.431C43.5294 136.768 44.2231 136.039 44.7818 135.266C45.3443 134.498 45.7831 133.705 46.1034 132.957C46.4247 132.207 46.6258 131.504 46.7564 130.916C46.7858 130.767 46.8138 130.627 46.8399 130.494C46.8666 130.363 46.8796 130.236 46.8976 130.119C46.914 130.002 46.9287 129.894 46.9427 129.794C46.9514 129.694 46.9594 129.603 46.9661 129.522C46.9795 129.359 46.9912 129.234 46.9958 129.149C46.9985 129.065 46.9998 129.021 46.9998 129.02C47.0049 128.889 46.8896 128.764 46.6999 128.677ZM42.1239 150.063C42.1239 155.327 38.4825 159.61 34.006 159.61C29.5302 159.61 25.8884 155.328 25.8884 150.063C25.8884 144.913 29.3732 140.705 33.7148 140.524C33.7278 140.524 33.7415 140.524 33.7545 140.524C33.9402 140.529 34.1252 140.527 34.3109 140.524C38.6464 140.713 42.1239 144.918 42.1239 150.063Z" fill="#A32E87"/>
<path d="M220.661 19.4969C220.658 19.4969 217.229 19.4969 212.573 19.4964C212.625 17.4324 212.883 15.3982 213.306 13.507C213.449 12.9293 213.556 12.3525 213.737 11.8063C213.819 11.5316 213.9 11.2592 213.98 10.9912C214.02 10.8567 214.06 10.7226 214.1 10.5901C214.14 10.458 214.193 10.3302 214.238 10.2014C214.427 9.68732 214.61 9.1876 214.789 8.70368C214.995 8.23125 215.195 7.77413 215.387 7.3352C215.566 6.89101 215.796 6.4899 215.991 6.09836C216.195 5.71017 216.373 5.33538 216.565 4.99506C216.966 4.32207 217.314 3.73428 217.601 3.25036C218.234 2.31554 218.597 1.78136 218.597 1.78089C218.693 1.56405 218.238 1.02844 217.555 0.561271C216.871 0.0941033 216.199 -0.119856 216.021 0.0687346C216.02 0.0692133 215.629 0.647429 214.943 1.65835C214.631 2.18391 214.253 2.82148 213.818 3.55239C213.609 3.92239 213.412 4.33116 213.192 4.75381C212.979 5.18077 212.731 5.61827 212.533 6.10362C212.323 6.58324 212.105 7.08247 211.879 7.59942C211.684 8.12881 211.483 8.6764 211.275 9.2393C211.225 9.3805 211.168 9.52074 211.123 9.66578C211.079 9.81177 211.036 9.95728 210.992 10.1052C210.903 10.3996 210.815 10.6978 210.725 10.9993C210.529 11.5981 210.407 12.2299 210.252 12.8646C209.782 14.9597 209.499 17.217 209.447 19.4959C206.098 19.4954 202.42 19.4954 199.042 19.4954C198.99 17.2161 198.706 14.9592 198.237 12.8642C198.082 12.2295 197.96 11.5976 197.764 10.9988C197.674 10.6973 197.585 10.3991 197.497 10.1047C197.452 9.9568 197.408 9.81129 197.365 9.6653C197.32 9.52027 197.263 9.38002 197.213 9.23882C197.006 8.67592 196.805 8.12881 196.609 7.59894C196.384 7.082 196.165 6.58276 195.956 6.10314C195.758 5.61731 195.51 5.1803 195.297 4.75334C195.076 4.33068 194.879 3.92239 194.67 3.55191C194.237 2.821 193.858 2.18343 193.546 1.65787C192.86 0.647429 192.469 0.0692133 192.468 0.068256C192.289 -0.120334 191.617 0.0941033 190.933 0.560792C190.25 1.02796 189.795 1.5631 189.891 1.77993C189.891 1.78089 190.253 2.31507 190.887 3.24988C191.174 3.73332 191.523 4.32063 191.923 4.99458C192.116 5.3349 192.294 5.70969 192.497 6.09788C192.691 6.48942 192.922 6.89053 193.101 7.33472C193.293 7.77365 193.493 8.23029 193.7 8.7032C193.877 9.18712 194.061 9.68684 194.25 10.2009C194.296 10.3302 194.348 10.4575 194.389 10.5896C194.428 10.7222 194.468 10.8562 194.508 10.9907C194.588 11.2592 194.669 11.5311 194.751 11.8058C194.932 12.352 195.04 12.9288 195.183 13.5065C195.605 15.3967 195.863 17.431 195.915 19.495C191.022 19.4945 187.36 19.4945 187.359 19.4945C187.161 19.4945 187 20.1742 187 21.0123C187 21.8504 187.16 22.5301 187.359 22.5301C187.361 22.5301 190.986 22.5301 195.842 22.5301C195.698 24.5271 195.383 26.4958 194.946 28.3386C194.374 30.674 193.628 32.8073 192.87 34.5855C192.108 36.3637 191.356 37.7949 190.795 38.768C190.514 39.2534 190.285 39.6291 190.125 39.8785C189.966 40.1308 189.88 40.26 189.88 40.26C189.749 40.4601 190.23 40.977 190.934 41.4643C191.637 41.9506 192.362 42.1301 192.509 41.9018C192.509 41.9018 192.612 41.7505 192.789 41.47C192.967 41.1896 193.218 40.7774 193.525 40.248C194.135 39.1897 194.943 37.6528 195.759 35.7453C196.572 33.8374 197.373 31.548 197.99 29.0293C198.477 26.9787 198.826 24.7741 198.973 22.5296C202.394 22.5296 206.125 22.5296 209.514 22.5296C209.663 24.7741 210.011 26.9787 210.497 29.0293C211.114 31.5485 211.915 33.8374 212.728 35.7453C213.546 37.6528 214.353 39.1897 214.963 40.248C215.269 40.777 215.521 41.1896 215.7 41.47C215.877 41.7505 215.979 41.9018 215.979 41.9018C216.127 42.1301 216.851 41.9506 217.554 41.4643C218.257 40.977 218.739 40.4601 218.608 40.26C218.608 40.26 218.522 40.1308 218.363 39.8785C218.203 39.6291 217.974 39.2529 217.693 38.768C217.131 37.7949 216.38 36.3637 215.617 34.5855C214.859 32.8073 214.114 30.674 213.541 28.3386C213.104 26.4958 212.789 24.5261 212.646 22.5287C217.264 22.5282 220.658 22.5282 220.66 22.5282C220.85 22.487 221 21.8241 221 21.0123C221 20.2015 220.851 19.539 220.661 19.4969Z" fill="#1CA8BE"/>
</svg>
