<svg width="374" height="44" viewBox="0 0 374 44" fill="none" xmlns="http://www.w3.org/2000/svg">
<rect x="0.5" y="0.5" width="373" height="43" rx="19.5" fill="#DFBC60" stroke="#181827"/>
<path d="M83.3084 14.112C84.2684 14.112 85.1004 14.232 85.8044 14.472C86.5084 14.696 87.1164 15.016 87.6284 15.432C88.6364 16.248 89.2924 17.392 89.5964 18.864L86.5724 19.416C86.3164 18.6 85.9164 17.944 85.3724 17.448C84.8444 16.936 84.1804 16.68 83.3804 16.68C82.2924 16.68 81.4124 17.136 80.7404 18.048C80.0204 19.04 79.6604 20.416 79.6604 22.176C79.6604 23.92 79.9804 25.288 80.6204 26.28C81.2604 27.256 82.1324 27.744 83.2364 27.744C84.3404 27.744 85.1724 27.48 85.7324 26.952C86.2924 26.408 86.5724 25.712 86.5724 24.864H89.6204C89.6204 26.608 89.0604 27.96 87.9404 28.92C86.8364 29.864 85.3164 30.336 83.3804 30.336C81.3164 30.336 79.6764 29.616 78.4604 28.176C77.2284 26.704 76.6124 24.704 76.6124 22.176C76.6124 19.616 77.2444 17.616 78.5084 16.176C79.7244 14.8 81.3244 14.112 83.3084 14.112ZM95.7593 20.64C96.4633 18.96 97.5193 18.12 98.9273 18.12C99.1993 18.12 99.5433 18.176 99.9593 18.288L99.9113 21.12C99.4633 21.024 99.0233 20.976 98.5913 20.976C96.7033 20.976 95.7593 22.28 95.7593 24.888V30H92.9273V18.312H95.7593V20.64ZM111.048 19.728C111.448 20.24 111.744 20.832 111.936 21.504C112.144 22.176 112.248 22.792 112.248 23.352C112.248 23.912 112.216 24.416 112.152 24.864H104.616C104.648 25.808 104.88 26.576 105.312 27.168C105.744 27.76 106.4 28.056 107.28 28.056C108.448 28.056 109.144 27.544 109.368 26.52H112.224C112.032 27.688 111.496 28.608 110.616 29.28C109.704 29.984 108.592 30.336 107.28 30.336C105.744 30.336 104.456 29.776 103.416 28.656C102.344 27.488 101.808 25.992 101.808 24.168C101.808 22.296 102.344 20.792 103.416 19.656C104.44 18.568 105.728 18.024 107.28 18.024C108.896 18.024 110.152 18.592 111.048 19.728ZM107.304 20.28C106.504 20.28 105.88 20.544 105.432 21.072C104.984 21.584 104.72 22.248 104.64 23.064H109.608C109.608 21.8 109.208 20.952 108.408 20.52C108.104 20.36 107.736 20.28 107.304 20.28ZM119.478 23.184C120.406 23.184 121.478 23.336 122.694 23.64V22.488C122.694 21.672 122.526 21.072 122.19 20.688C121.87 20.288 121.334 20.088 120.582 20.088C119.846 20.088 119.278 20.24 118.878 20.544C118.478 20.832 118.278 21.248 118.278 21.792H115.182C115.182 20.464 115.646 19.504 116.574 18.912C117.518 18.32 118.83 18.024 120.51 18.024C122.91 18.024 124.462 18.864 125.166 20.544C125.406 21.12 125.526 21.8 125.526 22.584V30H123.054L122.838 28.44C122.086 29.704 120.934 30.336 119.382 30.336C117.878 30.336 116.71 29.968 115.878 29.232C115.11 28.528 114.726 27.64 114.726 26.568C114.726 25.48 115.15 24.648 115.998 24.072C116.846 23.48 118.006 23.184 119.478 23.184ZM122.694 25.44C121.75 25.184 120.87 25.056 120.054 25.056C118.518 25.056 117.75 25.568 117.75 26.592C117.75 27.024 117.926 27.4 118.278 27.72C118.63 28.024 119.19 28.176 119.958 28.176C120.742 28.176 121.382 27.92 121.878 27.408C122.39 26.88 122.662 26.224 122.694 25.44ZM136.23 29.712C135.174 30.128 134.342 30.336 133.734 30.336C133.126 30.336 132.59 30.264 132.126 30.12C131.678 29.976 131.278 29.76 130.926 29.472C130.19 28.816 129.822 27.912 129.822 26.76V20.232H128.19V18.336H129.822V15.264H132.654V18.336H135.822V20.232H132.654V26.664C132.654 27.624 133.11 28.104 134.022 28.104C134.486 28.104 135.086 27.976 135.822 27.72L136.23 29.712ZM147.259 19.728C147.659 20.24 147.955 20.832 148.147 21.504C148.355 22.176 148.459 22.792 148.459 23.352C148.459 23.912 148.427 24.416 148.363 24.864H140.827C140.859 25.808 141.091 26.576 141.523 27.168C141.955 27.76 142.611 28.056 143.491 28.056C144.659 28.056 145.355 27.544 145.579 26.52H148.435C148.243 27.688 147.707 28.608 146.827 29.28C145.915 29.984 144.803 30.336 143.491 30.336C141.955 30.336 140.667 29.776 139.627 28.656C138.555 27.488 138.019 25.992 138.019 24.168C138.019 22.296 138.555 20.792 139.627 19.656C140.651 18.568 141.939 18.024 143.491 18.024C145.107 18.024 146.363 18.592 147.259 19.728ZM143.515 20.28C142.715 20.28 142.091 20.544 141.643 21.072C141.195 21.584 140.931 22.248 140.851 23.064H145.819C145.819 21.8 145.419 20.952 144.619 20.52C144.315 20.36 143.947 20.28 143.515 20.28ZM156.648 18.336H158.376V16.968C158.376 15.768 158.728 14.848 159.432 14.208C160.072 13.632 160.904 13.344 161.928 13.344C162.584 13.344 163.392 13.44 164.352 13.632L163.8 15.816C163.352 15.656 162.944 15.576 162.576 15.576C162.224 15.576 161.912 15.68 161.64 15.888C161.368 16.08 161.232 16.448 161.232 16.992V18.336H163.368V20.232H161.232V30H158.376V20.232H156.648V18.336ZM169.541 20.64C170.245 18.96 171.301 18.12 172.709 18.12C172.981 18.12 173.325 18.176 173.741 18.288L173.693 21.12C173.245 21.024 172.805 20.976 172.373 20.976C170.485 20.976 169.541 22.28 169.541 24.888V30H166.709V18.312H169.541V20.64ZM184.829 19.728C185.229 20.24 185.525 20.832 185.717 21.504C185.925 22.176 186.029 22.792 186.029 23.352C186.029 23.912 185.997 24.416 185.933 24.864H178.397C178.429 25.808 178.661 26.576 179.093 27.168C179.525 27.76 180.181 28.056 181.061 28.056C182.229 28.056 182.925 27.544 183.149 26.52H186.005C185.813 27.688 185.277 28.608 184.397 29.28C183.485 29.984 182.373 30.336 181.061 30.336C179.525 30.336 178.237 29.776 177.197 28.656C176.125 27.488 175.589 25.992 175.589 24.168C175.589 22.296 176.125 20.792 177.197 19.656C178.221 18.568 179.509 18.024 181.061 18.024C182.677 18.024 183.933 18.592 184.829 19.728ZM181.085 20.28C180.285 20.28 179.661 20.544 179.213 21.072C178.765 21.584 178.501 22.248 178.421 23.064H183.389C183.389 21.8 182.989 20.952 182.189 20.52C181.885 20.36 181.517 20.28 181.085 20.28ZM197.556 19.728C197.956 20.24 198.252 20.832 198.444 21.504C198.652 22.176 198.756 22.792 198.756 23.352C198.756 23.912 198.724 24.416 198.66 24.864H191.124C191.156 25.808 191.388 26.576 191.82 27.168C192.252 27.76 192.908 28.056 193.788 28.056C194.956 28.056 195.652 27.544 195.876 26.52H198.732C198.54 27.688 198.004 28.608 197.124 29.28C196.212 29.984 195.1 30.336 193.788 30.336C192.252 30.336 190.964 29.776 189.924 28.656C188.852 27.488 188.316 25.992 188.316 24.168C188.316 22.296 188.852 20.792 189.924 19.656C190.948 18.568 192.236 18.024 193.788 18.024C195.404 18.024 196.66 18.592 197.556 19.728ZM193.812 20.28C193.012 20.28 192.388 20.544 191.94 21.072C191.492 21.584 191.228 22.248 191.148 23.064H196.116C196.116 21.8 195.716 20.952 194.916 20.52C194.612 20.36 194.244 20.28 193.812 20.28ZM212.056 23.184C212.984 23.184 214.056 23.336 215.272 23.64V22.488C215.272 21.672 215.104 21.072 214.768 20.688C214.448 20.288 213.912 20.088 213.16 20.088C212.424 20.088 211.856 20.24 211.456 20.544C211.056 20.832 210.856 21.248 210.856 21.792H207.76C207.76 20.464 208.224 19.504 209.152 18.912C210.096 18.32 211.408 18.024 213.088 18.024C215.488 18.024 217.04 18.864 217.744 20.544C217.984 21.12 218.104 21.8 218.104 22.584V30H215.632L215.416 28.44C214.664 29.704 213.512 30.336 211.96 30.336C210.456 30.336 209.288 29.968 208.456 29.232C207.688 28.528 207.304 27.64 207.304 26.568C207.304 25.48 207.728 24.648 208.576 24.072C209.424 23.48 210.584 23.184 212.056 23.184ZM215.272 25.44C214.328 25.184 213.448 25.056 212.632 25.056C211.096 25.056 210.328 25.568 210.328 26.592C210.328 27.024 210.504 27.4 210.856 27.72C211.208 28.024 211.768 28.176 212.536 28.176C213.32 28.176 213.96 27.92 214.456 27.408C214.968 26.88 215.24 26.224 215.272 25.44ZM226.672 18.024C227.408 18.024 228.064 18.152 228.64 18.408C229.232 18.648 229.728 18.968 230.128 19.368C230.928 20.136 231.4 21.104 231.544 22.272L228.688 22.344C228.56 21.832 228.32 21.408 227.968 21.072C227.632 20.736 227.24 20.568 226.792 20.568C226.344 20.568 225.96 20.64 225.64 20.784C225.32 20.912 225.04 21.12 224.8 21.408C224.256 22.08 223.984 23.008 223.984 24.192C223.984 25.376 224.24 26.272 224.752 26.88C225.264 27.472 225.88 27.768 226.6 27.768C227.336 27.768 227.864 27.6 228.184 27.264C228.52 26.912 228.688 26.44 228.688 25.848H231.544C231.544 27.128 231.12 28.192 230.272 29.04C229.408 29.904 228.2 30.336 226.648 30.336C225.112 30.336 223.824 29.776 222.784 28.656C221.68 27.456 221.128 25.96 221.128 24.168C221.128 22.28 221.68 20.768 222.784 19.632C223.824 18.56 225.12 18.024 226.672 18.024ZM239.399 18.024C240.135 18.024 240.791 18.152 241.367 18.408C241.959 18.648 242.455 18.968 242.855 19.368C243.655 20.136 244.127 21.104 244.271 22.272L241.415 22.344C241.287 21.832 241.047 21.408 240.695 21.072C240.359 20.736 239.967 20.568 239.519 20.568C239.071 20.568 238.687 20.64 238.367 20.784C238.047 20.912 237.767 21.12 237.527 21.408C236.983 22.08 236.711 23.008 236.711 24.192C236.711 25.376 236.967 26.272 237.479 26.88C237.991 27.472 238.607 27.768 239.327 27.768C240.063 27.768 240.591 27.6 240.911 27.264C241.247 26.912 241.415 26.44 241.415 25.848H244.271C244.271 27.128 243.847 28.192 242.999 29.04C242.135 29.904 240.927 30.336 239.375 30.336C237.839 30.336 236.551 29.776 235.511 28.656C234.407 27.456 233.855 25.96 233.855 24.168C233.855 22.28 234.407 20.768 235.511 19.632C236.551 18.56 237.847 18.024 239.399 18.024ZM252.269 18.024C253.053 18.024 253.789 18.152 254.477 18.408C255.165 18.648 255.757 19.024 256.253 19.536C257.357 20.656 257.909 22.208 257.909 24.192C257.909 26.144 257.357 27.68 256.253 28.8C255.261 29.824 253.933 30.336 252.269 30.336C250.605 30.336 249.261 29.824 248.237 28.8C247.133 27.696 246.581 26.16 246.581 24.192C246.581 22.192 247.133 20.64 248.237 19.536C249.245 18.528 250.589 18.024 252.269 18.024ZM255.077 24.168C255.077 22.936 254.837 22.016 254.357 21.408C253.877 20.784 253.205 20.472 252.341 20.472C251.493 20.472 250.797 20.784 250.253 21.408C249.709 22.016 249.437 22.936 249.437 24.168C249.437 25.4 249.677 26.328 250.157 26.952C250.653 27.56 251.325 27.864 252.173 27.864C253.021 27.864 253.717 27.56 254.261 26.952C254.805 26.328 255.077 25.4 255.077 24.168ZM269.031 27.888C268.295 29.44 267.111 30.216 265.479 30.216C263.415 30.216 262.055 29.408 261.399 27.792C261.159 27.232 261.039 26.552 261.039 25.752V18.312H263.871V25.464C263.871 26.232 264.055 26.808 264.423 27.192C264.791 27.56 265.239 27.744 265.767 27.744C266.311 27.744 266.767 27.672 267.135 27.528C267.503 27.368 267.823 27.136 268.095 26.832C268.687 26.144 268.999 25.224 269.031 24.072V18.312H271.863V30H269.031V27.888ZM279.11 20.352C279.878 18.8 281.11 18.024 282.806 18.024C284.246 18.024 285.326 18.496 286.046 19.44C286.782 20.384 287.15 21.632 287.15 23.184V30H284.318V23.184C284.318 22.32 284.11 21.672 283.694 21.24C283.278 20.792 282.694 20.568 281.942 20.568C281.19 20.568 280.542 20.904 279.998 21.576C279.47 22.248 279.19 23.256 279.158 24.6V30H276.326V18.336H278.798L279.11 20.352ZM297.855 29.712C296.799 30.128 295.967 30.336 295.359 30.336C294.751 30.336 294.215 30.264 293.751 30.12C293.303 29.976 292.903 29.76 292.551 29.472C291.815 28.816 291.447 27.912 291.447 26.76V20.232H289.815V18.336H291.447V15.264H294.279V18.336H297.447V20.232H294.279V26.664C294.279 27.624 294.735 28.104 295.647 28.104C296.111 28.104 296.711 27.976 297.447 27.72L297.855 29.712Z" fill="#181827"/>
</svg>
