<svg width="222" height="18" viewBox="0 0 222 18" fill="none" xmlns="http://www.w3.org/2000/svg">
<path d="M7.30838 1.112C8.26838 1.112 9.10038 1.232 9.80438 1.472C10.5084 1.696 11.1164 2.016 11.6284 2.432C12.6364 3.248 13.2924 4.392 13.5964 5.864L10.5724 6.416C10.3164 5.6 9.91638 4.944 9.37238 4.448C8.84438 3.936 8.18038 3.68 7.38038 3.68C6.29238 3.68 5.41238 4.136 4.74038 5.048C4.02038 6.04 3.66038 7.416 3.66038 9.176C3.66038 10.92 3.98038 12.288 4.62038 13.28C5.26038 14.256 6.13238 14.744 7.23638 14.744C8.34038 14.744 9.17238 14.48 9.73238 13.952C10.2924 13.408 10.5724 12.712 10.5724 11.864H13.6204C13.6204 13.608 13.0604 14.96 11.9404 15.92C10.8364 16.864 9.31638 17.336 7.38038 17.336C5.31638 17.336 3.67638 16.616 2.46038 15.176C1.22838 13.704 0.612375 11.704 0.612375 9.176C0.612375 6.616 1.24438 4.616 2.50838 3.176C3.72438 1.8 5.32438 1.112 7.30838 1.112ZM19.7593 7.64C20.4633 5.96 21.5193 5.12 22.9273 5.12C23.1993 5.12 23.5433 5.176 23.9593 5.288L23.9113 8.12C23.4633 8.024 23.0233 7.976 22.5913 7.976C20.7033 7.976 19.7593 9.28 19.7593 11.888V17H16.9273V5.312H19.7593V7.64ZM35.0477 6.728C35.4477 7.24 35.7437 7.832 35.9357 8.504C36.1437 9.176 36.2477 9.792 36.2477 10.352C36.2477 10.912 36.2157 11.416 36.1517 11.864H28.6157C28.6477 12.808 28.8797 13.576 29.3117 14.168C29.7437 14.76 30.3997 15.056 31.2797 15.056C32.4477 15.056 33.1437 14.544 33.3677 13.52H36.2237C36.0317 14.688 35.4957 15.608 34.6157 16.28C33.7037 16.984 32.5917 17.336 31.2797 17.336C29.7437 17.336 28.4557 16.776 27.4157 15.656C26.3437 14.488 25.8077 12.992 25.8077 11.168C25.8077 9.296 26.3437 7.792 27.4157 6.656C28.4397 5.568 29.7277 5.024 31.2797 5.024C32.8957 5.024 34.1517 5.592 35.0477 6.728ZM31.3037 7.28C30.5037 7.28 29.8797 7.544 29.4317 8.072C28.9837 8.584 28.7197 9.248 28.6397 10.064H33.6077C33.6077 8.8 33.2077 7.952 32.4077 7.52C32.1037 7.36 31.7357 7.28 31.3037 7.28ZM43.4783 10.184C44.4063 10.184 45.4783 10.336 46.6943 10.64V9.488C46.6943 8.672 46.5263 8.072 46.1903 7.688C45.8703 7.288 45.3343 7.088 44.5823 7.088C43.8463 7.088 43.2783 7.24 42.8783 7.544C42.4783 7.832 42.2783 8.248 42.2783 8.792H39.1823C39.1823 7.464 39.6463 6.504 40.5742 5.912C41.5183 5.32 42.8303 5.024 44.5103 5.024C46.9103 5.024 48.4623 5.864 49.1663 7.544C49.4062 8.12 49.5262 8.8 49.5262 9.584V17H47.0543L46.8383 15.44C46.0863 16.704 44.9343 17.336 43.3823 17.336C41.8783 17.336 40.7103 16.968 39.8783 16.232C39.1103 15.528 38.7263 14.64 38.7263 13.568C38.7263 12.48 39.1503 11.648 39.9983 11.072C40.8463 10.48 42.0063 10.184 43.4783 10.184ZM46.6943 12.44C45.7503 12.184 44.8703 12.056 44.0543 12.056C42.5183 12.056 41.7503 12.568 41.7503 13.592C41.7503 14.024 41.9263 14.4 42.2783 14.72C42.6303 15.024 43.1903 15.176 43.9583 15.176C44.7423 15.176 45.3823 14.92 45.8783 14.408C46.3903 13.88 46.6623 13.224 46.6943 12.44ZM60.2299 16.712C59.1739 17.128 58.3419 17.336 57.7339 17.336C57.1259 17.336 56.5899 17.264 56.1259 17.12C55.6779 16.976 55.2779 16.76 54.9259 16.472C54.1899 15.816 53.8219 14.912 53.8219 13.76V7.232H52.1899V5.336H53.8219V2.264H56.6539V5.336H59.8219V7.232H56.6539V13.664C56.6539 14.624 57.1099 15.104 58.0219 15.104C58.4859 15.104 59.0859 14.976 59.8219 14.72L60.2299 16.712ZM71.2586 6.728C71.6586 7.24 71.9546 7.832 72.1466 8.504C72.3546 9.176 72.4586 9.792 72.4586 10.352C72.4586 10.912 72.4266 11.416 72.3626 11.864H64.8266C64.8586 12.808 65.0906 13.576 65.5226 14.168C65.9546 14.76 66.6106 15.056 67.4906 15.056C68.6586 15.056 69.3546 14.544 69.5786 13.52H72.4346C72.2426 14.688 71.7066 15.608 70.8266 16.28C69.9146 16.984 68.8026 17.336 67.4906 17.336C65.9546 17.336 64.6666 16.776 63.6266 15.656C62.5546 14.488 62.0186 12.992 62.0186 11.168C62.0186 9.296 62.5546 7.792 63.6266 6.656C64.6506 5.568 65.9386 5.024 67.4906 5.024C69.1066 5.024 70.3626 5.592 71.2586 6.728ZM67.5146 7.28C66.7146 7.28 66.0906 7.544 65.6426 8.072C65.1946 8.584 64.9306 9.248 64.8506 10.064H69.8186C69.8186 8.8 69.4186 7.952 68.6186 7.52C68.3146 7.36 67.9466 7.28 67.5146 7.28ZM80.6475 5.336H82.3755V3.968C82.3755 2.768 82.7275 1.848 83.4315 1.208C84.0715 0.631999 84.9035 0.344 85.9275 0.344C86.5835 0.344 87.3915 0.44 88.3515 0.631999L87.7995 2.816C87.3515 2.656 86.9435 2.576 86.5755 2.576C86.2235 2.576 85.9115 2.68 85.6395 2.888C85.3675 3.08 85.2315 3.448 85.2315 3.992V5.336H87.3675V7.232H85.2315V17H82.3755V7.232H80.6475V5.336ZM93.5406 7.64C94.2446 5.96 95.3006 5.12 96.7086 5.12C96.9806 5.12 97.3246 5.176 97.7406 5.288L97.6926 8.12C97.2446 8.024 96.8046 7.976 96.3726 7.976C94.4846 7.976 93.5406 9.28 93.5406 11.888V17H90.7086V5.312H93.5406V7.64ZM108.829 6.728C109.229 7.24 109.525 7.832 109.717 8.504C109.925 9.176 110.029 9.792 110.029 10.352C110.029 10.912 109.997 11.416 109.933 11.864H102.397C102.429 12.808 102.661 13.576 103.093 14.168C103.525 14.76 104.181 15.056 105.061 15.056C106.229 15.056 106.925 14.544 107.149 13.52H110.005C109.813 14.688 109.277 15.608 108.397 16.28C107.485 16.984 106.373 17.336 105.061 17.336C103.525 17.336 102.237 16.776 101.197 15.656C100.125 14.488 99.5889 12.992 99.5889 11.168C99.5889 9.296 100.125 7.792 101.197 6.656C102.221 5.568 103.509 5.024 105.061 5.024C106.677 5.024 107.933 5.592 108.829 6.728ZM105.085 7.28C104.285 7.28 103.661 7.544 103.213 8.072C102.765 8.584 102.501 9.248 102.421 10.064H107.389C107.389 8.8 106.989 7.952 106.189 7.52C105.885 7.36 105.517 7.28 105.085 7.28ZM121.556 6.728C121.956 7.24 122.252 7.832 122.444 8.504C122.652 9.176 122.756 9.792 122.756 10.352C122.756 10.912 122.724 11.416 122.66 11.864H115.124C115.156 12.808 115.388 13.576 115.82 14.168C116.252 14.76 116.908 15.056 117.788 15.056C118.956 15.056 119.652 14.544 119.876 13.52H122.732C122.54 14.688 122.004 15.608 121.124 16.28C120.212 16.984 119.1 17.336 117.788 17.336C116.252 17.336 114.964 16.776 113.924 15.656C112.852 14.488 112.316 12.992 112.316 11.168C112.316 9.296 112.852 7.792 113.924 6.656C114.948 5.568 116.236 5.024 117.788 5.024C119.404 5.024 120.66 5.592 121.556 6.728ZM117.812 7.28C117.012 7.28 116.388 7.544 115.94 8.072C115.492 8.584 115.228 9.248 115.148 10.064H120.116C120.116 8.8 119.716 7.952 118.916 7.52C118.612 7.36 118.244 7.28 117.812 7.28ZM136.056 10.184C136.984 10.184 138.056 10.336 139.272 10.64V9.488C139.272 8.672 139.104 8.072 138.768 7.688C138.448 7.288 137.912 7.088 137.16 7.088C136.424 7.088 135.856 7.24 135.456 7.544C135.056 7.832 134.856 8.248 134.856 8.792H131.76C131.76 7.464 132.224 6.504 133.152 5.912C134.096 5.32 135.408 5.024 137.088 5.024C139.488 5.024 141.04 5.864 141.744 7.544C141.984 8.12 142.104 8.8 142.104 9.584V17H139.632L139.416 15.44C138.664 16.704 137.512 17.336 135.96 17.336C134.456 17.336 133.288 16.968 132.456 16.232C131.688 15.528 131.304 14.64 131.304 13.568C131.304 12.48 131.728 11.648 132.576 11.072C133.424 10.48 134.584 10.184 136.056 10.184ZM139.272 12.44C138.328 12.184 137.448 12.056 136.632 12.056C135.096 12.056 134.328 12.568 134.328 13.592C134.328 14.024 134.504 14.4 134.856 14.72C135.208 15.024 135.768 15.176 136.536 15.176C137.32 15.176 137.96 14.92 138.456 14.408C138.968 13.88 139.24 13.224 139.272 12.44ZM150.672 5.024C151.408 5.024 152.064 5.152 152.64 5.408C153.232 5.648 153.728 5.968 154.128 6.368C154.928 7.136 155.4 8.104 155.544 9.272L152.688 9.344C152.56 8.832 152.32 8.408 151.968 8.072C151.632 7.736 151.24 7.568 150.792 7.568C150.344 7.568 149.96 7.64 149.64 7.784C149.32 7.912 149.04 8.12 148.8 8.408C148.256 9.08 147.984 10.008 147.984 11.192C147.984 12.376 148.24 13.272 148.752 13.88C149.264 14.472 149.88 14.768 150.6 14.768C151.336 14.768 151.864 14.6 152.184 14.264C152.52 13.912 152.688 13.44 152.688 12.848H155.544C155.544 14.128 155.12 15.192 154.272 16.04C153.408 16.904 152.2 17.336 150.648 17.336C149.112 17.336 147.824 16.776 146.784 15.656C145.68 14.456 145.128 12.96 145.128 11.168C145.128 9.28 145.68 7.768 146.784 6.632C147.824 5.56 149.12 5.024 150.672 5.024ZM163.399 5.024C164.135 5.024 164.791 5.152 165.367 5.408C165.959 5.648 166.455 5.968 166.855 6.368C167.655 7.136 168.127 8.104 168.271 9.272L165.415 9.344C165.287 8.832 165.047 8.408 164.695 8.072C164.359 7.736 163.967 7.568 163.519 7.568C163.071 7.568 162.687 7.64 162.367 7.784C162.047 7.912 161.767 8.12 161.527 8.408C160.983 9.08 160.711 10.008 160.711 11.192C160.711 12.376 160.967 13.272 161.479 13.88C161.991 14.472 162.607 14.768 163.327 14.768C164.063 14.768 164.591 14.6 164.911 14.264C165.247 13.912 165.415 13.44 165.415 12.848H168.271C168.271 14.128 167.847 15.192 166.999 16.04C166.135 16.904 164.927 17.336 163.375 17.336C161.839 17.336 160.551 16.776 159.511 15.656C158.407 14.456 157.855 12.96 157.855 11.168C157.855 9.28 158.407 7.768 159.511 6.632C160.551 5.56 161.847 5.024 163.399 5.024ZM176.269 5.024C177.053 5.024 177.789 5.152 178.477 5.408C179.165 5.648 179.757 6.024 180.253 6.536C181.357 7.656 181.909 9.208 181.909 11.192C181.909 13.144 181.357 14.68 180.253 15.8C179.261 16.824 177.933 17.336 176.269 17.336C174.605 17.336 173.261 16.824 172.237 15.8C171.133 14.696 170.581 13.16 170.581 11.192C170.581 9.192 171.133 7.64 172.237 6.536C173.245 5.528 174.589 5.024 176.269 5.024ZM179.077 11.168C179.077 9.936 178.837 9.016 178.357 8.408C177.877 7.784 177.205 7.472 176.341 7.472C175.493 7.472 174.797 7.784 174.253 8.408C173.709 9.016 173.437 9.936 173.437 11.168C173.437 12.4 173.677 13.328 174.157 13.952C174.653 14.56 175.325 14.864 176.173 14.864C177.021 14.864 177.717 14.56 178.261 13.952C178.805 13.328 179.077 12.4 179.077 11.168ZM193.031 14.888C192.295 16.44 191.111 17.216 189.479 17.216C187.415 17.216 186.055 16.408 185.399 14.792C185.159 14.232 185.039 13.552 185.039 12.752V5.312H187.871V12.464C187.871 13.232 188.055 13.808 188.423 14.192C188.791 14.56 189.239 14.744 189.767 14.744C190.311 14.744 190.767 14.672 191.135 14.528C191.503 14.368 191.823 14.136 192.095 13.832C192.687 13.144 192.999 12.224 193.031 11.072V5.312H195.863V17H193.031V14.888ZM203.11 7.352C203.878 5.8 205.11 5.024 206.806 5.024C208.246 5.024 209.326 5.496 210.046 6.44C210.782 7.384 211.15 8.632 211.15 10.184V17H208.318V10.184C208.318 9.32 208.11 8.672 207.694 8.24C207.278 7.792 206.694 7.568 205.942 7.568C205.19 7.568 204.542 7.904 203.998 8.576C203.47 9.248 203.19 10.256 203.158 11.6V17H200.326V5.336H202.798L203.11 7.352ZM221.855 16.712C220.799 17.128 219.967 17.336 219.359 17.336C218.751 17.336 218.215 17.264 217.751 17.12C217.303 16.976 216.903 16.76 216.551 16.472C215.815 15.816 215.447 14.912 215.447 13.76V7.232H213.815V5.336H215.447V2.264H218.279V5.336H221.447V7.232H218.279V13.664C218.279 14.624 218.735 15.104 219.647 15.104C220.111 15.104 220.711 14.976 221.447 14.72L221.855 16.712Z" fill="#181827"/>
</svg>
