<svg width="374" height="44" viewBox="0 0 374 44" fill="none" xmlns="http://www.w3.org/2000/svg">
<rect x="0.5" y="0.5" width="373" height="43" rx="19.5" fill="#DFBC60" stroke="#181827"/>
<path d="M125.316 14.424C127.076 14.424 128.444 14.856 129.42 15.72C130.412 16.568 130.908 17.792 130.908 19.392C130.908 20.976 130.412 22.2 129.42 23.064C128.444 23.912 127.076 24.336 125.316 24.336H122.676V30H119.82V14.424H125.316ZM125.316 21.864C126.196 21.864 126.86 21.632 127.308 21.168C127.756 20.704 127.98 20.112 127.98 19.392C127.98 18.656 127.756 18.056 127.308 17.592C126.86 17.112 126.196 16.872 125.316 16.872H122.676V21.864H125.316ZM136.669 20.64C137.373 18.96 138.429 18.12 139.837 18.12C140.109 18.12 140.453 18.176 140.869 18.288L140.821 21.12C140.373 21.024 139.933 20.976 139.501 20.976C137.613 20.976 136.669 22.28 136.669 24.888V30H133.837V18.312H136.669V20.64ZM144.062 18.312H146.894V30H144.062V18.312ZM143.726 14.568C143.726 14.056 143.878 13.656 144.182 13.368C144.486 13.064 144.918 12.912 145.478 12.912C146.022 12.912 146.446 13.064 146.75 13.368C147.07 13.656 147.23 14.056 147.23 14.568C147.23 15.08 147.07 15.488 146.75 15.792C146.446 16.08 146.022 16.224 145.478 16.224C144.918 16.224 144.486 16.08 144.182 15.792C143.878 15.488 143.726 15.08 143.726 14.568ZM162.065 20.544C162.817 18.864 164.137 18.024 166.025 18.024C167.417 18.024 168.497 18.496 169.265 19.44C170.001 20.336 170.369 21.584 170.369 23.184V30H167.513V23.184C167.513 22.32 167.305 21.672 166.889 21.24C166.473 20.792 165.889 20.568 165.137 20.568C164.385 20.568 163.769 20.896 163.289 21.552C162.809 22.208 162.553 23.2 162.521 24.528V30H159.689V23.184C159.689 22.32 159.481 21.672 159.065 21.24C158.649 20.792 158.065 20.568 157.313 20.568C156.561 20.568 155.913 20.904 155.369 21.576C154.841 22.248 154.561 23.256 154.529 24.6V30H151.697V18.336H154.169L154.481 20.352C155.249 18.8 156.481 18.024 158.177 18.024C159.153 18.024 159.961 18.248 160.601 18.696C161.257 19.144 161.745 19.76 162.065 20.544ZM178.318 23.184C179.246 23.184 180.318 23.336 181.534 23.64V22.488C181.534 21.672 181.366 21.072 181.03 20.688C180.71 20.288 180.174 20.088 179.422 20.088C178.686 20.088 178.118 20.24 177.718 20.544C177.318 20.832 177.118 21.248 177.118 21.792H174.022C174.022 20.464 174.486 19.504 175.414 18.912C176.358 18.32 177.67 18.024 179.35 18.024C181.75 18.024 183.302 18.864 184.006 20.544C184.246 21.12 184.366 21.8 184.366 22.584V30H181.894L181.678 28.44C180.926 29.704 179.774 30.336 178.222 30.336C176.718 30.336 175.55 29.968 174.718 29.232C173.95 28.528 173.566 27.64 173.566 26.568C173.566 25.48 173.99 24.648 174.838 24.072C175.686 23.48 176.846 23.184 178.318 23.184ZM181.534 25.44C180.59 25.184 179.71 25.056 178.894 25.056C177.358 25.056 176.59 25.568 176.59 26.592C176.59 27.024 176.766 27.4 177.118 27.72C177.47 28.024 178.03 28.176 178.798 28.176C179.582 28.176 180.222 27.92 180.718 27.408C181.23 26.88 181.502 26.224 181.534 25.44ZM191.326 20.64C192.03 18.96 193.086 18.12 194.494 18.12C194.766 18.12 195.11 18.176 195.526 18.288L195.478 21.12C195.03 21.024 194.59 20.976 194.158 20.976C192.27 20.976 191.326 22.28 191.326 24.888V30H188.494V18.312H191.326V20.64ZM199.918 18.336L202.726 26.736L205.174 18.336H208.054L203.59 32.112C203.126 33.504 202.558 34.504 201.886 35.112C201.23 35.72 200.39 36.024 199.366 36.024C198.326 36.024 197.286 35.768 196.246 35.256V32.76C197.078 33.288 197.918 33.552 198.766 33.552C199.326 33.552 199.782 33.328 200.134 32.88C200.502 32.432 200.798 31.848 201.022 31.128L201.382 30L196.702 18.336H199.918ZM222.234 14.112C223.194 14.112 224.026 14.232 224.73 14.472C225.434 14.696 226.042 15.016 226.554 15.432C227.562 16.248 228.218 17.392 228.522 18.864L225.498 19.416C225.242 18.6 224.842 17.944 224.298 17.448C223.77 16.936 223.106 16.68 222.306 16.68C221.218 16.68 220.338 17.136 219.666 18.048C218.946 19.04 218.586 20.416 218.586 22.176C218.586 23.92 218.906 25.288 219.546 26.28C220.186 27.256 221.058 27.744 222.162 27.744C223.266 27.744 224.098 27.48 224.658 26.952C225.218 26.408 225.498 25.712 225.498 24.864H228.546C228.546 26.608 227.986 27.96 226.866 28.92C225.762 29.864 224.242 30.336 222.306 30.336C220.242 30.336 218.602 29.616 217.386 28.176C216.154 26.704 215.538 24.704 215.538 22.176C215.538 19.616 216.17 17.616 217.434 16.176C218.65 14.8 220.25 14.112 222.234 14.112ZM229.765 14.424H242.245V16.872H237.421V30H234.589V16.872H229.765V14.424ZM247.148 14.424H250.7L255.812 30H252.812L251.732 26.64H245.948L244.844 30H241.844L247.148 14.424ZM246.668 24.504H251.036L248.876 17.808L246.668 24.504Z" fill="#181827"/>
</svg>
