<svg width="374" height="44" viewBox="0 0 374 44" fill="none" xmlns="http://www.w3.org/2000/svg">
<path d="M113.346 18.72C113.09 17.36 112.13 16.68 110.466 16.68C109.65 16.68 109.01 16.848 108.546 17.184C108.098 17.504 107.874 17.896 107.874 18.36C107.874 18.824 108.018 19.192 108.306 19.464C108.61 19.72 109.074 19.96 109.698 20.184L113.082 21.504C114.234 21.952 115.122 22.52 115.746 23.208C116.37 23.88 116.682 24.728 116.682 25.752C116.682 27.16 116.154 28.28 115.098 29.112C114.042 29.928 112.538 30.336 110.586 30.336C108.858 30.336 107.458 29.912 106.386 29.064C105.186 28.136 104.554 26.824 104.49 25.128H107.298C107.298 26.408 107.962 27.216 109.29 27.552C109.69 27.664 110.218 27.72 110.874 27.72C111.53 27.72 112.138 27.56 112.698 27.24C113.258 26.904 113.538 26.464 113.538 25.92C113.538 25.36 113.386 24.936 113.082 24.648C112.778 24.344 112.282 24.064 111.594 23.808L108.498 22.584C107.298 22.12 106.378 21.576 105.738 20.952C105.098 20.328 104.778 19.464 104.778 18.36C104.778 17.064 105.282 16.04 106.29 15.288C107.314 14.504 108.698 14.112 110.442 14.112C112.202 14.112 113.554 14.52 114.498 15.336C115.458 16.136 116.01 17.264 116.154 18.72H113.346ZM128.602 19.728C129.002 20.24 129.298 20.832 129.49 21.504C129.698 22.176 129.802 22.792 129.802 23.352C129.802 23.912 129.77 24.416 129.706 24.864H122.17C122.202 25.808 122.434 26.576 122.866 27.168C123.298 27.76 123.954 28.056 124.834 28.056C126.002 28.056 126.698 27.544 126.922 26.52H129.778C129.586 27.688 129.05 28.608 128.17 29.28C127.258 29.984 126.146 30.336 124.834 30.336C123.298 30.336 122.01 29.776 120.97 28.656C119.898 27.488 119.362 25.992 119.362 24.168C119.362 22.296 119.898 20.792 120.97 19.656C121.994 18.568 123.282 18.024 124.834 18.024C126.45 18.024 127.706 18.592 128.602 19.728ZM124.858 20.28C124.058 20.28 123.434 20.544 122.986 21.072C122.538 21.584 122.274 22.248 122.194 23.064H127.162C127.162 21.8 126.762 20.952 125.962 20.52C125.658 20.36 125.29 20.28 124.858 20.28ZM137.633 18.024C138.369 18.024 139.025 18.152 139.601 18.408C140.193 18.648 140.689 18.968 141.089 19.368C141.889 20.136 142.361 21.104 142.505 22.272L139.649 22.344C139.521 21.832 139.281 21.408 138.929 21.072C138.593 20.736 138.201 20.568 137.753 20.568C137.305 20.568 136.921 20.64 136.601 20.784C136.281 20.912 136.001 21.12 135.761 21.408C135.217 22.08 134.945 23.008 134.945 24.192C134.945 25.376 135.201 26.272 135.713 26.88C136.225 27.472 136.841 27.768 137.561 27.768C138.297 27.768 138.825 27.6 139.145 27.264C139.481 26.912 139.649 26.44 139.649 25.848H142.505C142.505 27.128 142.081 28.192 141.233 29.04C140.369 29.904 139.161 30.336 137.609 30.336C136.073 30.336 134.785 29.776 133.745 28.656C132.641 27.456 132.089 25.96 132.089 24.168C132.089 22.28 132.641 20.768 133.745 19.632C134.785 18.56 136.081 18.024 137.633 18.024ZM150.504 18.024C151.288 18.024 152.024 18.152 152.712 18.408C153.4 18.648 153.992 19.024 154.488 19.536C155.592 20.656 156.144 22.208 156.144 24.192C156.144 26.144 155.592 27.68 154.488 28.8C153.496 29.824 152.168 30.336 150.504 30.336C148.84 30.336 147.496 29.824 146.472 28.8C145.368 27.696 144.816 26.16 144.816 24.192C144.816 22.192 145.368 20.64 146.472 19.536C147.48 18.528 148.824 18.024 150.504 18.024ZM153.312 24.168C153.312 22.936 153.072 22.016 152.592 21.408C152.112 20.784 151.44 20.472 150.576 20.472C149.728 20.472 149.032 20.784 148.488 21.408C147.944 22.016 147.672 22.936 147.672 24.168C147.672 25.4 147.912 26.328 148.392 26.952C148.888 27.56 149.56 27.864 150.408 27.864C151.256 27.864 151.952 27.56 152.496 26.952C153.04 26.328 153.312 25.4 153.312 24.168ZM162.297 20.352C163.065 18.8 164.297 18.024 165.993 18.024C167.433 18.024 168.513 18.496 169.233 19.44C169.969 20.384 170.337 21.632 170.337 23.184V30H167.505V23.184C167.505 22.32 167.297 21.672 166.881 21.24C166.465 20.792 165.881 20.568 165.129 20.568C164.377 20.568 163.729 20.904 163.185 21.576C162.657 22.248 162.377 23.256 162.345 24.6V30H159.513V18.336H161.985L162.297 20.352ZM182.074 28.2C181.354 29.624 180.25 30.336 178.762 30.336C177.274 30.336 176.026 29.768 175.018 28.632C173.978 27.448 173.458 25.944 173.458 24.12C173.458 22.296 173.954 20.816 174.946 19.68C175.922 18.576 177.138 18.024 178.594 18.024C180.05 18.024 181.146 18.608 181.882 19.776V13.536H184.738V30H182.41L182.074 28.2ZM179.122 20.568C178.322 20.568 177.65 20.896 177.106 21.552C176.578 22.192 176.314 23.056 176.314 24.144C176.314 25.232 176.586 26.112 177.13 26.784C177.674 27.44 178.362 27.768 179.194 27.768C179.882 27.768 180.498 27.496 181.042 26.952C181.602 26.392 181.882 25.688 181.882 24.84V23.328C181.85 22.496 181.57 21.816 181.042 21.288C180.562 20.808 179.922 20.568 179.122 20.568ZM193.049 23.184C193.977 23.184 195.049 23.336 196.265 23.64V22.488C196.265 21.672 196.097 21.072 195.761 20.688C195.441 20.288 194.905 20.088 194.153 20.088C193.417 20.088 192.849 20.24 192.449 20.544C192.049 20.832 191.849 21.248 191.849 21.792H188.753C188.753 20.464 189.217 19.504 190.145 18.912C191.089 18.32 192.401 18.024 194.081 18.024C196.481 18.024 198.033 18.864 198.737 20.544C198.977 21.12 199.097 21.8 199.097 22.584V30H196.625L196.409 28.44C195.657 29.704 194.505 30.336 192.953 30.336C191.449 30.336 190.281 29.968 189.449 29.232C188.681 28.528 188.297 27.64 188.297 26.568C188.297 25.48 188.721 24.648 189.569 24.072C190.417 23.48 191.577 23.184 193.049 23.184ZM196.265 25.44C195.321 25.184 194.441 25.056 193.625 25.056C192.089 25.056 191.321 25.568 191.321 26.592C191.321 27.024 191.497 27.4 191.849 27.72C192.201 28.024 192.761 28.176 193.529 28.176C194.313 28.176 194.953 27.92 195.449 27.408C195.961 26.88 196.233 26.224 196.265 25.44ZM206.056 20.64C206.76 18.96 207.816 18.12 209.224 18.12C209.496 18.12 209.84 18.176 210.256 18.288L210.208 21.12C209.76 21.024 209.32 20.976 208.888 20.976C207 20.976 206.056 22.28 206.056 24.888V30H203.224V18.312H206.056V20.64ZM214.649 18.336L217.457 26.736L219.905 18.336H222.785L218.321 32.112C217.857 33.504 217.289 34.504 216.617 35.112C215.961 35.72 215.121 36.024 214.097 36.024C213.057 36.024 212.017 35.768 210.977 35.256V32.76C211.809 33.288 212.649 33.552 213.497 33.552C214.057 33.552 214.513 33.328 214.865 32.88C215.233 32.432 215.529 31.848 215.753 31.128L216.113 30L211.433 18.336H214.649ZM236.965 14.112C237.925 14.112 238.757 14.232 239.461 14.472C240.165 14.696 240.773 15.016 241.285 15.432C242.293 16.248 242.949 17.392 243.253 18.864L240.229 19.416C239.973 18.6 239.573 17.944 239.029 17.448C238.501 16.936 237.837 16.68 237.037 16.68C235.949 16.68 235.069 17.136 234.397 18.048C233.677 19.04 233.317 20.416 233.317 22.176C233.317 23.92 233.637 25.288 234.277 26.28C234.917 27.256 235.789 27.744 236.893 27.744C237.997 27.744 238.829 27.48 239.389 26.952C239.949 26.408 240.229 25.712 240.229 24.864H243.277C243.277 26.608 242.717 27.96 241.597 28.92C240.493 29.864 238.973 30.336 237.037 30.336C234.973 30.336 233.333 29.616 232.117 28.176C230.885 26.704 230.269 24.704 230.269 22.176C230.269 19.616 230.901 17.616 232.165 16.176C233.381 14.8 234.981 14.112 236.965 14.112ZM244.496 14.424H256.976V16.872H252.152V30H249.32V16.872H244.496V14.424ZM261.879 14.424H265.431L270.543 30H267.543L266.463 26.64H260.679L259.575 30H256.575L261.879 14.424ZM261.399 24.504H265.767L263.607 17.808L261.399 24.504Z" fill="white"/>
<path d="M102.93 32.4H271.071V33.6H102.93V32.4Z" fill="white"/>
</svg>
