<svg width="78" height="24" viewBox="0 0 78 24" fill="none" xmlns="http://www.w3.org/2000/svg">
<path d="M0 12C0 5.37258 5.37258 0 12 0H66C72.6274 0 78 5.37258 78 12C78 18.6274 72.6274 24 66 24H12C5.37258 24 0 18.6274 0 12Z" fill="white"/>
<circle cx="12" cy="12" r="6" fill="#181827"/>
<path d="M29.742 5.48C30.954 5.48 31.926 5.786 32.658 6.398C33.402 6.998 33.912 7.784 34.188 8.756L32.658 9.062C32.418 8.354 32.04 7.796 31.524 7.388C31.02 6.968 30.426 6.758 29.742 6.758C28.794 6.758 28.008 7.154 27.384 7.946C26.76 8.738 26.448 9.842 26.448 11.258C26.448 12.662 26.724 13.79 27.276 14.642C27.84 15.494 28.662 15.92 29.742 15.92C30.642 15.92 31.35 15.686 31.866 15.218C32.394 14.738 32.658 14.108 32.658 13.328H34.188C34.188 14.516 33.78 15.458 32.964 16.154C32.16 16.85 31.05 17.198 29.634 17.198C28.23 17.198 27.09 16.658 26.214 15.578C25.35 14.498 24.918 13.052 24.918 11.24C24.918 9.428 25.368 8.018 26.268 7.01C27.168 5.99 28.326 5.48 29.742 5.48ZM38.2791 9.98C38.8551 8.78 39.8091 8.18 41.1411 8.18C42.1611 8.18 42.9531 8.516 43.5171 9.188C44.0931 9.86 44.3811 10.778 44.3811 11.942V17H42.9771V11.942C42.9771 11.114 42.7791 10.49 42.3831 10.07C41.9991 9.65 41.4411 9.44 40.7091 9.44C39.9771 9.44 39.3891 9.752 38.9451 10.376C38.5011 10.988 38.2791 11.84 38.2791 12.932V17H36.8571V4.742H38.2791V9.98ZM47.8103 8.378H49.2323V17H47.8103V8.378ZM48.5123 6.362C48.2243 6.362 47.9963 6.284 47.8283 6.128C47.6723 5.96 47.5943 5.744 47.5943 5.48C47.5943 5.204 47.6723 4.988 47.8283 4.832C47.9963 4.664 48.2243 4.58 48.5123 4.58C48.8003 4.58 49.0283 4.664 49.1963 4.832C49.3763 4.988 49.4663 5.204 49.4663 5.48C49.4663 5.744 49.3763 5.96 49.1963 6.128C49.0283 6.284 48.8003 6.362 48.5123 6.362ZM54.4313 9.71C54.9953 8.69 55.8353 8.18 56.9513 8.18C58.0793 8.18 59.0153 8.594 59.7593 9.422C60.5153 10.25 60.8933 11.342 60.8933 12.698C60.8933 14.054 60.5153 15.146 59.7593 15.974C59.0033 16.79 58.0733 17.198 56.9693 17.198C55.8653 17.198 55.0493 16.784 54.5213 15.956V21.23H53.0993V8.396H54.2693L54.4313 9.71ZM56.8973 15.938C57.5693 15.938 58.1573 15.65 58.6613 15.074C59.1773 14.498 59.4353 13.712 59.4353 12.716C59.4353 11.708 59.1893 10.91 58.6973 10.322C58.2173 9.734 57.6293 9.44 56.9333 9.44C56.2373 9.44 55.6673 9.662 55.2233 10.106C54.7793 10.538 54.5453 11.126 54.5213 11.87V13.508C54.5213 14.264 54.7493 14.858 55.2053 15.29C55.6613 15.722 56.2253 15.938 56.8973 15.938ZM63.3368 10.502C63.3368 9.794 63.6368 9.23 64.2368 8.81C64.8488 8.39 65.6708 8.18 66.7028 8.18C67.7348 8.18 68.5388 8.396 69.1148 8.828C69.7028 9.26 70.0088 9.806 70.0328 10.466H68.6468C68.5388 9.686 67.8788 9.296 66.6668 9.296C66.0788 9.296 65.6228 9.428 65.2988 9.692C64.9868 9.956 64.8308 10.244 64.8308 10.556C64.8308 10.856 64.9508 11.114 65.1908 11.33C65.4308 11.534 65.8148 11.714 66.3428 11.87L68.0708 12.446C68.8028 12.674 69.3608 12.968 69.7448 13.328C70.1408 13.676 70.3388 14.162 70.3388 14.786C70.3388 15.398 70.0208 15.956 69.3848 16.46C68.7488 16.952 67.8608 17.198 66.7207 17.198C65.5808 17.198 64.6928 16.946 64.0568 16.442C63.4208 15.926 63.0848 15.266 63.0488 14.462H64.4168C64.4408 15.002 64.6568 15.41 65.0648 15.686C65.4848 15.95 66.0068 16.082 66.6308 16.082C67.2548 16.082 67.7708 15.95 68.1788 15.686C68.5868 15.422 68.7908 15.11 68.7908 14.75C68.7908 14.378 68.6708 14.096 68.4308 13.904C68.1908 13.712 67.8008 13.544 67.2607 13.4L65.5868 12.842C64.0868 12.398 63.3368 11.618 63.3368 10.502Z" fill="#181827"/>
<path d="M12 0.5H66V-0.5H12V0.5ZM66 23.5H12V24.5H66V23.5ZM12 23.5C5.64873 23.5 0.5 18.3513 0.5 12H-0.5C-0.5 18.9036 5.09644 24.5 12 24.5V23.5ZM77.5 12C77.5 18.3513 72.3513 23.5 66 23.5V24.5C72.9036 24.5 78.5 18.9036 78.5 12H77.5ZM66 0.5C72.3513 0.5 77.5 5.64873 77.5 12H78.5C78.5 5.09644 72.9036 -0.5 66 -0.5V0.5ZM12 -0.5C5.09644 -0.5 -0.5 5.09644 -0.5 12H0.5C0.5 5.64873 5.64873 0.5 12 0.5V-0.5Z" fill="black"/>
</svg>
