<svg width="130" height="37" viewBox="0 0 130 37" fill="none" xmlns="http://www.w3.org/2000/svg">
<path d="M12.8302 25.5385C12.6299 25.8231 12.2073 25.8211 12.0097 25.5345L1.49281 10.2839C1.26408 9.95222 1.50151 9.50006 1.90443 9.50006L23.1553 9.50006C23.5604 9.50006 23.7974 9.95658 23.5642 10.2878L12.8302 25.5385Z" stroke="white"/>
<path d="M7.38407 17.4352L12.541 9.8864L17.6979 17.4352H7.38407Z" stroke="white"/>
<line x1="18.8203" y1="14.6797" x2="1.39178" y2="14.6797" stroke="white"/>
<path d="M20.2183 26V25.616L21.7543 24.824L27.8983 10.04H28.9783L35.0263 24.752L36.6343 25.616V26H30.6823V25.616L32.7943 24.8L30.9943 20.36H25.1623L23.3863 24.8L25.4023 25.616V26H20.2183ZM25.7143 19.04H30.4663L28.0903 13.136L25.7143 19.04ZM42.3039 26.24C41.5519 26.24 40.9039 26.176 40.3599 26.048C39.8159 25.92 39.2639 25.712 38.7039 25.424V22.736H39.0399L39.8079 24.056C40.3039 24.936 41.1119 25.376 42.2319 25.376C42.8719 25.376 43.3679 25.224 43.7199 24.92C44.0879 24.616 44.2719 24.2 44.2719 23.672C44.2719 23.208 44.1599 22.848 43.9359 22.592C43.7119 22.336 43.3919 22.112 42.9759 21.92C42.5759 21.712 42.0959 21.48 41.5359 21.224C40.7199 20.856 40.0879 20.456 39.6399 20.024C39.2079 19.576 38.9919 18.952 38.9919 18.152C38.9919 17.56 39.1599 17.024 39.4959 16.544C39.8319 16.064 40.2559 15.68 40.7679 15.392C41.2959 15.104 41.8399 14.96 42.3999 14.96C42.9919 14.96 43.5359 15.032 44.0319 15.176C44.5279 15.32 45.0319 15.52 45.5439 15.776V18.392H45.2079L44.4159 17.12C44.1439 16.688 43.8479 16.376 43.5279 16.184C43.2079 15.992 42.8639 15.896 42.4959 15.896C41.9519 15.896 41.5119 16.032 41.1759 16.304C40.8559 16.576 40.6959 16.952 40.6959 17.432C40.6959 17.976 40.8879 18.392 41.2719 18.68C41.6719 18.952 42.2479 19.264 42.9999 19.616C43.4479 19.84 43.8959 20.064 44.3439 20.288C44.8079 20.512 45.1839 20.832 45.4719 21.248C45.7759 21.648 45.9279 22.224 45.9279 22.976C45.9279 23.68 45.7359 24.28 45.3519 24.776C44.9679 25.256 44.4959 25.624 43.9359 25.88C43.3759 26.12 42.8319 26.24 42.3039 26.24ZM52.3089 26.24C51.6049 26.24 50.9969 26.032 50.4849 25.616C49.9729 25.2 49.7169 24.616 49.7169 23.864V16.328H47.7489V16.184L49.7889 15.2L51.4929 12.56H51.6369V15.2H54.8049V16.328H51.6369V23.456C51.6369 23.872 51.8209 24.176 52.1889 24.368C52.5569 24.56 52.9889 24.656 53.4849 24.656C53.7889 24.656 54.0689 24.64 54.3249 24.608C54.5969 24.576 54.8289 24.536 55.0209 24.488H55.0929V24.728C54.9329 25.096 54.6129 25.44 54.1329 25.76C53.6689 26.08 53.0609 26.24 52.3089 26.24ZM57.2836 26V25.616L58.7956 24.848V17.696L57.3556 16.448V16.28L60.3316 14.96H60.4756L60.6916 17H60.7876C61.1556 16.408 61.4916 15.968 61.7956 15.68C62.1156 15.376 62.4116 15.184 62.6836 15.104C62.9556 15.008 63.2276 14.96 63.4996 14.96C63.6276 14.96 63.7716 14.984 63.9316 15.032C64.1076 15.08 64.2516 15.128 64.3636 15.176C64.5396 15.256 64.6996 15.352 64.8436 15.464C65.0036 15.576 65.0836 15.704 65.0836 15.848C65.0836 15.992 65.0516 16.136 64.9876 16.28L64.5076 17.456H64.3396L63.4276 17.096C63.2516 17.016 63.0756 16.968 62.8996 16.952C62.7396 16.936 62.5796 16.928 62.4196 16.928C61.7476 16.928 61.1796 17.272 60.7156 17.96V24.848L62.4196 25.616V26H57.2836ZM72.0547 26.24C70.9987 26.24 70.0707 25.992 69.2707 25.496C68.4867 25 67.8707 24.328 67.4227 23.48C66.9907 22.632 66.7747 21.672 66.7747 20.6C66.7747 19.528 66.9907 18.568 67.4227 17.72C67.8707 16.872 68.4867 16.2 69.2707 15.704C70.0707 15.208 70.9987 14.96 72.0547 14.96C73.1107 14.96 74.0307 15.208 74.8147 15.704C75.6147 16.2 76.2307 16.872 76.6627 17.72C77.1107 18.568 77.3347 19.528 77.3347 20.6C77.3347 21.672 77.1107 22.632 76.6627 23.48C76.2307 24.328 75.6147 25 74.8147 25.496C74.0307 25.992 73.1107 26.24 72.0547 26.24ZM72.3907 25.208C73.0307 25.208 73.5587 25.008 73.9747 24.608C74.3907 24.208 74.6947 23.696 74.8867 23.072C75.0787 22.432 75.1747 21.768 75.1747 21.08C75.1747 20.232 75.0547 19.416 74.8147 18.632C74.5907 17.848 74.2227 17.208 73.7107 16.712C73.2147 16.216 72.5667 15.968 71.7667 15.968C71.1107 15.968 70.5747 16.168 70.1587 16.568C69.7427 16.968 69.4307 17.48 69.2227 18.104C69.0307 18.728 68.9347 19.392 68.9347 20.096C68.9347 20.944 69.0547 21.76 69.2947 22.544C69.5347 23.328 69.9107 23.968 70.4227 24.464C70.9347 24.96 71.5907 25.208 72.3907 25.208ZM80.0956 26V25.616L82.0156 24.656V11.504L80.0956 10.544V10.16H87.1276C88.8876 10.16 90.3916 10.472 91.6396 11.096C92.8876 11.72 93.8316 12.576 94.4716 13.664C95.1276 14.752 95.4556 15.984 95.4556 17.36C95.4556 18.608 95.2396 19.76 94.8076 20.816C94.3916 21.872 93.7996 22.784 93.0316 23.552C92.2636 24.32 91.3596 24.92 90.3196 25.352C89.2956 25.784 88.1756 26 86.9596 26H80.0956ZM86.5756 11.48H84.1756V24.68H86.9356C88.2156 24.68 89.3196 24.416 90.2476 23.888C91.1916 23.344 91.9116 22.584 92.4076 21.608C92.9196 20.616 93.1756 19.448 93.1756 18.104C93.1756 16.776 92.9196 15.616 92.4076 14.624C91.8956 13.616 91.1436 12.84 90.1516 12.296C89.1756 11.752 87.9836 11.48 86.5756 11.48ZM100.889 26.24C100.137 26.24 99.513 26.024 99.017 25.592C98.521 25.144 98.273 24.528 98.273 23.744C98.273 22.96 98.561 22.28 99.137 21.704C99.729 21.128 100.713 20.68 102.089 20.36L104.369 19.832V18.08C104.369 17.536 104.145 17.072 103.697 16.688C103.265 16.288 102.769 16.088 102.209 16.088C101.601 16.088 101.177 16.256 100.937 16.592C100.697 16.912 100.577 17.344 100.577 17.888V18.56L100.457 18.68H99.209C98.969 18.68 98.801 18.64 98.705 18.56C98.625 18.48 98.585 18.296 98.585 18.008C98.585 17.656 98.689 17.296 98.897 16.928C99.105 16.56 99.425 16.24 99.857 15.968C100.305 15.68 100.769 15.44 101.249 15.248C101.745 15.056 102.273 14.96 102.833 14.96C103.393 14.96 103.937 15.04 104.465 15.2C105.009 15.36 105.449 15.632 105.785 16.016C106.121 16.384 106.289 16.904 106.289 17.576V24.392C106.401 24.504 106.561 24.6 106.769 24.68C106.977 24.76 107.265 24.8 107.633 24.8H108.545L108.617 24.848V24.92C108.425 25.272 108.137 25.584 107.753 25.856C107.385 26.112 106.929 26.24 106.385 26.24C105.889 26.24 105.481 26.112 105.161 25.856C104.857 25.584 104.641 25.232 104.513 24.8H104.369C103.953 25.216 103.433 25.56 102.809 25.832C102.201 26.104 101.561 26.24 100.889 26.24ZM100.145 23.264C100.145 24.256 100.745 24.752 101.945 24.752C102.329 24.752 102.705 24.712 103.073 24.632C103.457 24.552 103.889 24.408 104.369 24.2V20.648C103.089 20.888 102.153 21.144 101.561 21.416C100.969 21.672 100.585 21.952 100.409 22.256C100.233 22.56 100.145 22.896 100.145 23.264ZM113.879 26.24C113.175 26.24 112.567 26.032 112.055 25.616C111.543 25.2 111.287 24.616 111.287 23.864V16.328H109.319V16.184L111.359 15.2L113.063 12.56H113.207V15.2H116.375V16.328H113.207V23.456C113.207 23.872 113.391 24.176 113.759 24.368C114.127 24.56 114.559 24.656 115.055 24.656C115.359 24.656 115.639 24.64 115.895 24.608C116.167 24.576 116.399 24.536 116.591 24.488H116.663V24.728C116.503 25.096 116.183 25.44 115.703 25.76C115.239 26.08 114.631 26.24 113.879 26.24ZM123.588 26.24C122.036 26.24 120.812 25.768 119.916 24.824C119.02 23.88 118.572 22.632 118.572 21.08C118.572 19.88 118.804 18.824 119.268 17.912C119.748 16.984 120.372 16.264 121.14 15.752C121.924 15.224 122.772 14.96 123.684 14.96C124.948 14.96 125.94 15.4 126.66 16.28C127.396 17.16 127.764 18.424 127.764 20.072L127.644 20.192H120.468C120.484 20.928 120.628 21.624 120.9 22.28C121.172 22.92 121.604 23.44 122.196 23.84C122.804 24.24 123.612 24.44 124.62 24.44C125.5 24.44 126.532 24.12 127.716 23.48H127.788V23.72C127.42 24.408 126.868 25 126.132 25.496C125.412 25.992 124.564 26.24 123.588 26.24ZM123.3 16.016C122.532 16.016 121.9 16.288 121.404 16.832C120.924 17.36 120.628 18.112 120.516 19.088H125.94C125.764 18 125.452 17.216 125.004 16.736C124.572 16.256 124.004 16.016 123.3 16.016Z" fill="#DFBC60"/>
</svg>
