<svg width="41" height="41" viewBox="0 0 41 41" fill="none" xmlns="http://www.w3.org/2000/svg">
<path d="M20.5007 0C9.17922 0 1.52567e-07 9.17853 1.52567e-07 20.5C-0.00136651 31.8215 9.17922 41 20.4993 41C31.8222 41 41.0014 31.8215 41 20.5C41.0014 9.17853 31.8208 0 20.5007 0ZM32.1946 29.3246C32.1396 29.4383 32.0695 29.544 31.9861 29.6389L31.9848 29.6382L31.9704 29.658L28.6925 33.0317C28.4123 33.3207 28.0693 33.4731 27.701 33.4731C27.1242 33.4731 26.5543 33.0781 26.3165 32.5137C26.091 31.9786 26.2052 31.4046 26.6213 30.9762L27.4871 30.0851C25.2136 29.8883 23.5798 28.2975 23.3064 25.9967C23.2757 25.8827 23.2607 25.765 23.262 25.6469V12.6458C23.2087 11.6406 22.483 11.1827 21.7881 11.1827C21.0931 11.1827 20.3661 11.6406 20.3121 12.6635V28.6761C20.3121 30.5436 17.3922 30.5436 17.3922 28.6761V12.6458C17.3382 11.6406 16.6125 11.1827 15.9176 11.1827C15.2274 11.1827 14.5044 11.6358 14.4436 12.6485L14.4464 28.6761C14.4464 30.5436 11.5258 30.5436 11.5258 28.6761L11.5203 12.6458C11.4916 11.7773 10.8691 11.1376 10.0423 11.1165C9.09927 11.0884 8.61752 10.3327 8.62845 9.60015C8.6387 8.90178 9.1184 8.19453 10.0149 8.19453C11.1547 8.22733 12.1784 8.64075 12.969 9.36713C13.7849 8.55465 14.8236 8.13782 15.9347 8.19522C17.0622 8.25808 18.0557 8.66467 18.8293 9.3767C19.6458 8.55738 20.6859 8.13918 21.8038 8.19522C24.1285 8.32368 25.8703 9.97325 26.1389 12.3014C26.1532 12.3437 26.1826 12.4797 26.1826 12.6458V25.6462C26.2257 26.3876 26.5776 26.8434 27.3265 27.0689L26.6247 26.3623C26.2045 25.9387 26.0856 25.3667 26.3076 24.8337C26.5448 24.2638 27.1188 23.8661 27.7023 23.8661C28.0679 23.8661 28.4096 24.0157 28.6904 24.298C29.5091 25.1248 30.3277 25.9489 31.1463 26.7723L32.023 27.662C32.0927 27.7488 32.1522 27.8451 32.2048 27.9559C32.4324 28.3665 32.4324 28.8852 32.1946 29.3246Z" fill="white"/>
</svg>
