<svg width="60" height="60" viewBox="0 0 60 60" fill="none" xmlns="http://www.w3.org/2000/svg">
<path d="M30 0C13.432 0 5.5829e-08 13.432 5.5829e-08 30C-0.000999944 46.568 13.432 60 30 60C46.569 60 60.001 46.568 60 30C60.001 13.432 46.568 0 30 0ZM46.5 29.998C46.5 32.502 42.591 32.502 42.591 29.998V20.172L25.493 37.272L31.383 43.161C31.948 43.726 32.109 44.49 31.813 45.206C31.498 45.968 30.729 46.501 29.945 46.501C29.454 46.501 28.996 46.302 28.619 45.925L22.729 40.034L16.791 45.969C16.7052 46.0534 16.6111 46.1288 16.51 46.194C16.3404 46.3081 16.1517 46.3911 15.953 46.439L15.809 46.46C15.7034 46.4881 15.5942 46.5006 15.485 46.497L15.339 46.49C14.9743 46.4786 14.6215 46.3578 14.3263 46.1432C14.0312 45.9287 13.8074 45.6304 13.684 45.287C13.347 44.622 13.461 43.837 14.012 43.235L19.965 37.272L14.075 31.381C13.51 30.816 13.349 30.052 13.645 29.336C13.96 28.574 14.729 28.041 15.513 28.041C16.004 28.041 16.462 28.24 16.839 28.617L22.729 34.508L39.828 17.408H30.002C28.75 17.408 28.094 16.425 28.094 15.454C28.094 14.483 28.75 13.5 30.002 13.5L44.655 13.512C45.1305 13.5404 45.5793 13.7414 45.9172 14.0773C46.255 14.4131 46.4587 14.8607 46.49 15.336L46.5 15.451V29.998Z" fill="white"/>
</svg>
