<svg width="60" height="60" viewBox="0 0 60 60" fill="none" xmlns="http://www.w3.org/2000/svg">
<path d="M30.002 0C13.432 0 2.23285e-07 13.432 2.23285e-07 30C-0.00199978 46.568 13.432 60 30 60C46.57 60 60.002 46.568 60 30C60.002 13.432 46.568 0 30.002 0ZM13.278 22.757C13.307 22.644 13.376 22.486 13.466 22.335C13.5385 22.1901 13.6296 22.0553 13.737 21.934C14.1295 21.3586 14.5932 20.8351 15.117 20.376C15.2308 20.1864 15.3755 20.0171 15.545 19.875C19.758 16.357 24.795 14.499 30.113 14.499C33.683 14.499 37.193 15.332 40.541 16.976C41.34 17.368 41.714 18.132 41.519 18.971C41.229 20.217 39.795 20.974 38.623 20.397C35.91 19.065 33.046 18.39 30.11 18.39C28.004 18.39 25.947 18.742 23.983 19.438C27.649 21.94 28.887 26.852 26.743 30.39C25.259 32.84 22.571 34.422 19.894 34.422C18.5842 34.4286 17.3041 34.0323 16.227 33.287C12.753 30.918 11.567 26.686 13.278 22.757ZM46.722 37.246C46.677 37.3941 46.6135 37.5359 46.533 37.668C46.479 37.781 46.383 37.928 46.26 38.066C45.8693 38.6401 45.4069 39.162 44.884 39.619C44.7702 39.8119 44.6241 39.9837 44.452 40.127C40.242 43.641 35.205 45.5 29.886 45.5C26.314 45.5 22.806 44.666 19.459 43.023C18.661 42.63 18.287 41.865 18.482 41.027C18.771 39.781 20.204 39.025 21.378 39.601C25.995 41.869 31.354 42.212 36.018 40.562C32.353 38.062 31.116 33.15 33.259 29.609C34.74 27.16 37.429 25.577 40.108 25.577C41.437 25.577 42.671 25.959 43.774 26.711C47.248 29.084 48.434 33.318 46.722 37.246Z" fill="white"/>
</svg>
