<svg width="15" height="8" viewBox="0 0 15 8" fill="none" xmlns="http://www.w3.org/2000/svg">
<path d="M4.73633 6.00781H1.50879L0.776367 8H0.146484L2.83691 0.890625H3.4082L6.09863 8H5.47363L4.73633 6.00781ZM1.69434 5.49512H4.5459L3.12012 1.62305L1.69434 5.49512ZM7.88086 8H7.28027V0.890625H7.88086V8ZM12.4707 5.04102H10.4053V8H9.7998V0.890625H12.1094C12.8678 0.890625 13.4603 1.07454 13.8867 1.44238C14.3132 1.81022 14.5264 2.32454 14.5264 2.98535C14.5264 3.44108 14.3929 3.8431 14.126 4.19141C13.859 4.53971 13.501 4.7806 13.0518 4.91406L14.8291 7.93652V8H14.1895L12.4707 5.04102ZM10.4053 4.52832H12.2461C12.7507 4.52832 13.1559 4.38509 13.4619 4.09863C13.7679 3.81217 13.9209 3.44108 13.9209 2.98535C13.9209 2.48405 13.7614 2.09505 13.4424 1.81836C13.1234 1.54167 12.6758 1.40332 12.0996 1.40332H10.4053V4.52832Z" fill="white"/>
</svg>
