<svg width="88" height="15" viewBox="0 0 88 15" fill="none" xmlns="http://www.w3.org/2000/svg">
<path d="M4.84 1.42H6.76L10.98 14H9.34L8.26 10.8H3.26L2.18 14H0.52L4.84 1.42ZM3.68 9.56H7.86L5.78 3.36L3.68 9.56ZM13.0239 6.78C13.0239 5.99333 13.3572 5.36667 14.0239 4.9C14.7039 4.43333 15.6172 4.2 16.7639 4.2C17.9106 4.2 18.8039 4.44 19.4439 4.92C20.0972 5.4 20.4372 6.00667 20.4639 6.74H18.9239C18.8039 5.87333 18.0706 5.44 16.7239 5.44C16.0706 5.44 15.5639 5.58667 15.2039 5.88C14.8572 6.17333 14.6839 6.49333 14.6839 6.84C14.6839 7.17333 14.8172 7.46 15.0839 7.7C15.3506 7.92667 15.7772 8.12667 16.3639 8.3L18.2839 8.94C19.0972 9.19333 19.7172 9.52 20.1439 9.92C20.5839 10.3067 20.8039 10.8467 20.8039 11.54C20.8039 12.22 20.4506 12.84 19.7439 13.4C19.0372 13.9467 18.0506 14.22 16.7839 14.22C15.5172 14.22 14.5306 13.94 13.8239 13.38C13.1172 12.8067 12.7439 12.0733 12.7039 11.18H14.2239C14.2506 11.78 14.4906 12.2333 14.9439 12.54C15.4106 12.8333 15.9906 12.98 16.6839 12.98C17.3772 12.98 17.9506 12.8333 18.4039 12.54C18.8572 12.2467 19.0839 11.9 19.0839 11.5C19.0839 11.0867 18.9506 10.7733 18.6839 10.56C18.4172 10.3467 17.9839 10.16 17.3839 10L15.5239 9.38C13.8572 8.88667 13.0239 8.02 13.0239 6.78ZM29.0513 13.72C27.9046 14.2533 26.8579 14.3667 25.9113 14.06C25.2313 13.8467 24.7513 13.4 24.4713 12.72C24.3246 12.3867 24.2513 11.9867 24.2513 11.52V5.64H22.7113V4.44H24.2513V1.78H25.8113V4.44H28.8113V5.64H25.8113V11.5C25.8113 12.4733 26.2646 12.96 27.1712 12.96C27.6646 12.96 28.2179 12.84 28.8313 12.6L29.0513 13.72ZM35.4708 5.78C33.9641 5.78 33.1841 6.96667 33.1308 9.34V14H31.5508V4.42H33.1308V6.26C33.6108 4.92667 34.4574 4.26 35.6708 4.26C36.0574 4.26 36.4241 4.32 36.7708 4.44L36.6908 5.98C36.2908 5.84667 35.8841 5.78 35.4708 5.78ZM42.628 4.2C43.9613 4.2 45.0346 4.63333 45.848 5.5C46.6746 6.36667 47.088 7.60667 47.088 9.22C47.088 10.82 46.6746 12.0533 45.848 12.92C45.0346 13.7867 43.9613 14.22 42.628 14.22C41.2946 14.22 40.2146 13.7867 39.388 12.92C38.5746 12.0533 38.168 10.82 38.168 9.22C38.168 7.60667 38.5746 6.36667 39.388 5.5C40.2146 4.63333 41.2946 4.2 42.628 4.2ZM45.488 9.22C45.488 8.07333 45.248 7.18 44.768 6.54C44.288 5.88667 43.5813 5.56 42.648 5.56C41.728 5.56 41.0213 5.88667 40.528 6.54C40.0346 7.18 39.788 8.07333 39.788 9.22C39.788 10.3533 40.0213 11.2467 40.488 11.9C40.9546 12.54 41.648 12.86 42.568 12.86C43.5013 12.86 44.2213 12.54 44.728 11.9C45.2346 11.2467 45.488 10.3533 45.488 9.22ZM56.3659 5.86V0.379999H57.9259V14H56.6459L56.4459 12.4C56.1393 13 55.7326 13.4533 55.2259 13.76C54.7193 14.0667 54.1659 14.22 53.5659 14.22C52.3526 14.22 51.3326 13.7533 50.5059 12.82C49.6926 11.8867 49.2859 10.6733 49.2859 9.18C49.2859 7.67333 49.6859 6.46667 50.4859 5.56C51.2993 4.65333 52.3193 4.2 53.5459 4.2C54.7859 4.2 55.7259 4.75333 56.3659 5.86ZM53.6459 5.6C52.8726 5.6 52.2193 5.92667 51.6859 6.58C51.1659 7.23333 50.9059 8.10667 50.9059 9.2C50.9059 10.2933 51.1726 11.1733 51.7059 11.84C52.2393 12.4933 52.8793 12.82 53.6259 12.82C54.3726 12.82 55.0059 12.5733 55.5259 12.08C56.0593 11.5733 56.3393 10.9 56.3659 10.06V8.5C56.3659 7.60667 56.1059 6.9 55.5859 6.38C55.0659 5.86 54.4193 5.6 53.6459 5.6ZM67.9009 7.8C67.9009 6.93333 67.7209 6.31333 67.3609 5.94C67.0009 5.56667 66.4743 5.38 65.7809 5.38C65.1009 5.38 64.5476 5.52 64.1209 5.8C63.7076 6.06667 63.5009 6.49333 63.5009 7.08H61.7609C61.7609 5.61333 62.5476 4.70667 64.1209 4.36C64.6009 4.25333 65.1209 4.2 65.6809 4.2C66.8676 4.2 67.7943 4.5 68.4609 5.1C69.1276 5.7 69.4609 6.61333 69.4609 7.84V14H68.1009L67.9409 12.4C67.3543 13.6133 66.2943 14.22 64.7609 14.22C63.7343 14.22 62.9076 13.9333 62.2809 13.36C61.6676 12.7867 61.3609 12.0733 61.3609 11.22C61.3609 10.3667 61.7009 9.7 62.3809 9.22C63.0743 8.74 63.9343 8.5 64.9609 8.5C65.9876 8.5 66.9676 8.67333 67.9009 9.02V7.8ZM67.9009 10.02C66.9543 9.75333 66.1276 9.62 65.4209 9.62C64.7143 9.62 64.1409 9.74667 63.7009 10C63.2609 10.2533 63.0409 10.6533 63.0409 11.2C63.0409 12.4 63.7209 13 65.0809 13C65.8543 13 66.5143 12.7267 67.0609 12.18C67.6209 11.62 67.9009 10.9 67.9009 10.02ZM78.1723 13.72C77.0257 14.2533 75.979 14.3667 75.0323 14.06C74.3523 13.8467 73.8723 13.4 73.5923 12.72C73.4457 12.3867 73.3723 11.9867 73.3723 11.52V5.64H71.8323V4.44H73.3723V1.78H74.9323V4.44H77.9323V5.64H74.9323V11.5C74.9323 12.4733 75.3857 12.96 76.2923 12.96C76.7857 12.96 77.339 12.84 77.9523 12.6L78.1723 13.72ZM83.9919 12.94C85.3119 12.94 86.0652 12.36 86.2519 11.2H87.8719C87.7252 12.16 87.2985 12.9067 86.5919 13.44C85.8985 13.96 85.0319 14.22 83.9919 14.22C82.7119 14.22 81.6719 13.7667 80.8719 12.86C80.0719 11.94 79.6719 10.72 79.6719 9.2C79.6719 7.68 80.0719 6.46667 80.8719 5.56C81.6852 4.65333 82.7585 4.2 84.0919 4.2C85.4385 4.2 86.4385 4.72 87.0919 5.76C87.7585 6.8 87.9919 8.06667 87.7919 9.56H81.2519C81.2519 10.5467 81.4919 11.36 81.9719 12C82.4519 12.6267 83.1252 12.94 83.9919 12.94ZM85.1519 5.7C84.8452 5.54 84.4719 5.46 84.0319 5.46C83.2185 5.46 82.5719 5.74 82.0919 6.3C81.6252 6.84667 81.3519 7.53333 81.2719 8.36H86.3719C86.3719 7.02667 85.9652 6.14 85.1519 5.7Z" fill="white"/>
</svg>
