<svg width="414" height="734" viewBox="0 0 414 734" fill="none" xmlns="http://www.w3.org/2000/svg">
<g clip-path="url(#clip0)">
<rect width="414" height="734" fill="white"/>
<path d="M0 0H414V768H0V0Z" fill="#181826"/>
<path d="M27.824 150.112C28.784 150.112 29.616 150.232 30.32 150.472C31.024 150.696 31.632 151.016 32.144 151.432C33.152 152.248 33.808 153.392 34.112 154.864L31.088 155.416C30.832 154.6 30.432 153.944 29.888 153.448C29.36 152.936 28.696 152.68 27.896 152.68C26.808 152.68 25.928 153.136 25.256 154.048C24.536 155.04 24.176 156.416 24.176 158.176C24.176 159.92 24.496 161.288 25.136 162.28C25.776 163.256 26.648 163.744 27.752 163.744C28.856 163.744 29.688 163.48 30.248 162.952C30.808 162.408 31.088 161.712 31.088 160.864H34.136C34.136 162.608 33.576 163.96 32.456 164.92C31.352 165.864 29.832 166.336 27.896 166.336C25.832 166.336 24.192 165.616 22.976 164.176C21.744 162.704 21.128 160.704 21.128 158.176C21.128 155.616 21.76 153.616 23.024 152.176C24.24 150.8 25.84 150.112 27.824 150.112ZM45.1949 163.888C44.4589 165.44 43.2749 166.216 41.6429 166.216C39.5789 166.216 38.2189 165.408 37.5629 163.792C37.3229 163.232 37.2029 162.552 37.2029 161.752V154.312H40.0349V161.464C40.0349 162.232 40.2189 162.808 40.5869 163.192C40.9549 163.56 41.4029 163.744 41.9309 163.744C42.4749 163.744 42.9309 163.672 43.2989 163.528C43.6669 163.368 43.9869 163.136 44.2589 162.832C44.8509 162.144 45.1629 161.224 45.1949 160.072V154.312H48.0269V166H45.1949V163.888ZM54.0738 162.448C54.1058 163.552 54.9138 164.104 56.4978 164.104C57.1058 164.104 57.6018 163.976 57.9858 163.72C58.3858 163.448 58.5858 163.136 58.5858 162.784C58.5858 162.432 58.4658 162.16 58.2258 161.968C57.9858 161.776 57.6098 161.6 57.0978 161.44L54.5538 160.528C52.6658 159.872 51.7218 158.8 51.7218 157.312C51.7218 156.32 52.1618 155.528 53.0418 154.936C53.9378 154.328 55.1298 154.024 56.6178 154.024C58.1218 154.024 59.2738 154.352 60.0738 155.008C60.8898 155.664 61.3138 156.488 61.3458 157.48H58.6818C58.6498 157.096 58.4658 156.792 58.1298 156.568C57.7938 156.344 57.3138 156.232 56.6898 156.232C56.0658 156.232 55.5778 156.36 55.2258 156.616C54.8898 156.856 54.7218 157.136 54.7218 157.456C54.7218 158.016 55.1938 158.432 56.1378 158.704L58.8978 159.736C59.8098 160.04 60.5058 160.432 60.9858 160.912C61.4818 161.376 61.7298 161.984 61.7298 162.736C61.7298 163.696 61.2738 164.528 60.3618 165.232C59.4178 165.968 58.1698 166.336 56.6178 166.336C55.0658 166.336 53.8178 166 52.8738 165.328C51.9298 164.64 51.4498 163.68 51.4338 162.448H54.0738ZM71.7221 165.712C70.6661 166.128 69.8341 166.336 69.2261 166.336C68.6181 166.336 68.0821 166.264 67.6181 166.12C67.1701 165.976 66.7701 165.76 66.4181 165.472C65.6821 164.816 65.3141 163.912 65.3141 162.76V156.232H63.6821V154.336H65.3141V151.264H68.1461V154.336H71.3141V156.232H68.1461V162.664C68.1461 163.624 68.6021 164.104 69.5141 164.104C69.9781 164.104 70.5781 163.976 71.3141 163.72L71.7221 165.712ZM79.1988 154.024C79.9828 154.024 80.7188 154.152 81.4068 154.408C82.0948 154.648 82.6868 155.024 83.1828 155.536C84.2868 156.656 84.8388 158.208 84.8388 160.192C84.8388 162.144 84.2868 163.68 83.1828 164.8C82.1908 165.824 80.8628 166.336 79.1988 166.336C77.5348 166.336 76.1908 165.824 75.1668 164.8C74.0628 163.696 73.5108 162.16 73.5108 160.192C73.5108 158.192 74.0628 156.64 75.1668 155.536C76.1748 154.528 77.5188 154.024 79.1988 154.024ZM82.0068 160.168C82.0068 158.936 81.7668 158.016 81.2868 157.408C80.8068 156.784 80.1348 156.472 79.2708 156.472C78.4228 156.472 77.7268 156.784 77.1828 157.408C76.6388 158.016 76.3668 158.936 76.3668 160.168C76.3668 161.4 76.6068 162.328 77.0868 162.952C77.5828 163.56 78.2548 163.864 79.1028 163.864C79.9508 163.864 80.6468 163.56 81.1908 162.952C81.7348 162.328 82.0068 161.4 82.0068 160.168ZM98.5766 156.544C99.3286 154.864 100.649 154.024 102.537 154.024C103.929 154.024 105.009 154.496 105.777 155.44C106.513 156.336 106.881 157.584 106.881 159.184V166H104.025V159.184C104.025 158.32 103.817 157.672 103.401 157.24C102.985 156.792 102.401 156.568 101.649 156.568C100.897 156.568 100.281 156.896 99.8006 157.552C99.3206 158.208 99.0646 159.2 99.0326 160.528V166H96.2006V159.184C96.2006 158.32 95.9926 157.672 95.5766 157.24C95.1606 156.792 94.5766 156.568 93.8246 156.568C93.0726 156.568 92.4246 156.904 91.8806 157.576C91.3526 158.248 91.0726 159.256 91.0406 160.6V166H88.2086V154.336H90.6806L90.9926 156.352C91.7606 154.8 92.9926 154.024 94.6886 154.024C95.6646 154.024 96.4726 154.248 97.1126 154.696C97.7686 155.144 98.2566 155.76 98.5766 156.544ZM119.126 155.728C119.526 156.24 119.822 156.832 120.014 157.504C120.222 158.176 120.326 158.792 120.326 159.352C120.326 159.912 120.294 160.416 120.23 160.864H112.694C112.726 161.808 112.958 162.576 113.39 163.168C113.822 163.76 114.478 164.056 115.358 164.056C116.526 164.056 117.222 163.544 117.446 162.52H120.302C120.11 163.688 119.574 164.608 118.694 165.28C117.782 165.984 116.67 166.336 115.358 166.336C113.822 166.336 112.534 165.776 111.494 164.656C110.422 163.488 109.886 161.992 109.886 160.168C109.886 158.296 110.422 156.792 111.494 155.656C112.518 154.568 113.806 154.024 115.358 154.024C116.974 154.024 118.23 154.592 119.126 155.728ZM115.382 156.28C114.582 156.28 113.958 156.544 113.51 157.072C113.062 157.584 112.798 158.248 112.718 159.064H117.686C117.686 157.8 117.286 156.952 116.486 156.52C116.182 156.36 115.814 156.28 115.382 156.28ZM126.548 156.64C127.252 154.96 128.308 154.12 129.716 154.12C129.988 154.12 130.332 154.176 130.748 154.288L130.7 157.12C130.252 157.024 129.812 156.976 129.38 156.976C127.492 156.976 126.548 158.28 126.548 160.888V166H123.716V154.312H126.548V156.64ZM139.771 150.424H142.603V166H139.771V150.424ZM149.844 156.352C150.612 154.8 151.844 154.024 153.54 154.024C154.98 154.024 156.06 154.496 156.78 155.44C157.516 156.384 157.884 157.632 157.884 159.184V166H155.052V159.184C155.052 158.32 154.844 157.672 154.428 157.24C154.012 156.792 153.428 156.568 152.676 156.568C151.924 156.568 151.276 156.904 150.732 157.576C150.204 158.248 149.924 159.256 149.892 160.6V166H147.06V154.336H149.532L149.844 156.352ZM160.741 154.336H162.469V152.968C162.469 151.768 162.821 150.848 163.525 150.208C164.165 149.632 164.997 149.344 166.021 149.344C166.677 149.344 167.485 149.44 168.445 149.632L167.893 151.816C167.445 151.656 167.037 151.576 166.669 151.576C166.317 151.576 166.005 151.68 165.733 151.888C165.461 152.08 165.325 152.448 165.325 152.992V154.336H167.461V156.232H165.325V166H162.469V156.232H160.741V154.336ZM175.386 154.024C176.17 154.024 176.906 154.152 177.594 154.408C178.282 154.648 178.874 155.024 179.37 155.536C180.474 156.656 181.026 158.208 181.026 160.192C181.026 162.144 180.474 163.68 179.37 164.8C178.378 165.824 177.05 166.336 175.386 166.336C173.722 166.336 172.378 165.824 171.354 164.8C170.25 163.696 169.698 162.16 169.698 160.192C169.698 158.192 170.25 156.64 171.354 155.536C172.362 154.528 173.706 154.024 175.386 154.024ZM178.194 160.168C178.194 158.936 177.954 158.016 177.474 157.408C176.994 156.784 176.322 156.472 175.458 156.472C174.61 156.472 173.914 156.784 173.37 157.408C172.826 158.016 172.554 158.936 172.554 160.168C172.554 161.4 172.794 162.328 173.274 162.952C173.77 163.56 174.442 163.864 175.29 163.864C176.138 163.864 176.834 163.56 177.378 162.952C177.922 162.328 178.194 161.4 178.194 160.168ZM187.228 156.64C187.932 154.96 188.988 154.12 190.396 154.12C190.668 154.12 191.012 154.176 191.428 154.288L191.38 157.12C190.932 157.024 190.492 156.976 190.06 156.976C188.172 156.976 187.228 158.28 187.228 160.888V166H184.396V154.312H187.228V156.64ZM204.748 156.544C205.5 154.864 206.82 154.024 208.708 154.024C210.1 154.024 211.18 154.496 211.948 155.44C212.684 156.336 213.052 157.584 213.052 159.184V166H210.196V159.184C210.196 158.32 209.988 157.672 209.572 157.24C209.156 156.792 208.572 156.568 207.82 156.568C207.068 156.568 206.452 156.896 205.972 157.552C205.492 158.208 205.236 159.2 205.204 160.528V166H202.372V159.184C202.372 158.32 202.164 157.672 201.748 157.24C201.332 156.792 200.748 156.568 199.996 156.568C199.244 156.568 198.596 156.904 198.052 157.576C197.524 158.248 197.244 159.256 197.212 160.6V166H194.38V154.336H196.852L197.164 156.352C197.932 154.8 199.164 154.024 200.86 154.024C201.836 154.024 202.644 154.248 203.284 154.696C203.94 155.144 204.428 155.76 204.748 156.544ZM221.002 159.184C221.93 159.184 223.002 159.336 224.218 159.64V158.488C224.218 157.672 224.05 157.072 223.714 156.688C223.394 156.288 222.858 156.088 222.106 156.088C221.37 156.088 220.802 156.24 220.402 156.544C220.002 156.832 219.802 157.248 219.802 157.792H216.706C216.706 156.464 217.17 155.504 218.098 154.912C219.042 154.32 220.354 154.024 222.034 154.024C224.434 154.024 225.986 154.864 226.69 156.544C226.93 157.12 227.05 157.8 227.05 158.584V166H224.578L224.362 164.44C223.61 165.704 222.458 166.336 220.906 166.336C219.402 166.336 218.234 165.968 217.402 165.232C216.634 164.528 216.25 163.64 216.25 162.568C216.25 161.48 216.674 160.648 217.522 160.072C218.37 159.48 219.53 159.184 221.002 159.184ZM224.218 161.44C223.274 161.184 222.394 161.056 221.578 161.056C220.042 161.056 219.274 161.568 219.274 162.592C219.274 163.024 219.45 163.4 219.802 163.72C220.154 164.024 220.714 164.176 221.482 164.176C222.266 164.176 222.906 163.92 223.402 163.408C223.914 162.88 224.186 162.224 224.218 161.44ZM237.753 165.712C236.697 166.128 235.865 166.336 235.257 166.336C234.649 166.336 234.113 166.264 233.649 166.12C233.201 165.976 232.801 165.76 232.449 165.472C231.713 164.816 231.345 163.912 231.345 162.76V156.232H229.713V154.336H231.345V151.264H234.177V154.336H237.345V156.232H234.177V162.664C234.177 163.624 234.633 164.104 235.545 164.104C236.009 164.104 236.609 163.976 237.345 163.72L237.753 165.712ZM240.886 154.312H243.718V166H240.886V154.312ZM240.55 150.568C240.55 150.056 240.702 149.656 241.006 149.368C241.31 149.064 241.742 148.912 242.302 148.912C242.846 148.912 243.27 149.064 243.574 149.368C243.894 149.656 244.054 150.056 244.054 150.568C244.054 151.08 243.894 151.488 243.574 151.792C243.27 152.08 242.846 152.224 242.302 152.224C241.742 152.224 241.31 152.08 241.006 151.792C240.702 151.488 240.55 151.08 240.55 150.568ZM253.105 154.024C253.889 154.024 254.625 154.152 255.313 154.408C256.001 154.648 256.593 155.024 257.089 155.536C258.193 156.656 258.745 158.208 258.745 160.192C258.745 162.144 258.193 163.68 257.089 164.8C256.097 165.824 254.769 166.336 253.105 166.336C251.441 166.336 250.097 165.824 249.073 164.8C247.969 163.696 247.417 162.16 247.417 160.192C247.417 158.192 247.969 156.64 249.073 155.536C250.081 154.528 251.425 154.024 253.105 154.024ZM255.913 160.168C255.913 158.936 255.673 158.016 255.193 157.408C254.713 156.784 254.041 156.472 253.177 156.472C252.329 156.472 251.633 156.784 251.089 157.408C250.545 158.016 250.273 158.936 250.273 160.168C250.273 161.4 250.513 162.328 250.993 162.952C251.489 163.56 252.161 163.864 253.009 163.864C253.857 163.864 254.553 163.56 255.097 162.952C255.641 162.328 255.913 161.4 255.913 160.168ZM264.899 156.352C265.667 154.8 266.899 154.024 268.595 154.024C270.035 154.024 271.115 154.496 271.835 155.44C272.571 156.384 272.939 157.632 272.939 159.184V166H270.107V159.184C270.107 158.32 269.899 157.672 269.483 157.24C269.067 156.792 268.483 156.568 267.731 156.568C266.979 156.568 266.331 156.904 265.787 157.576C265.259 158.248 264.979 159.256 264.947 160.6V166H262.115V154.336H264.587L264.899 156.352Z" fill="white"/>
<path d="M23.388 177.194H24.732L27.686 186H26.538L25.782 183.76H22.282L21.526 186H20.364L23.388 177.194ZM22.576 182.892H25.502L24.046 178.552L22.576 182.892ZM29.4667 176.466H30.5727V186H29.4667V176.466ZM33.3906 176.466H34.4966V186H33.3906V176.466ZM44.1503 185.804C43.3477 186.177 42.615 186.257 41.9523 186.042C41.4763 185.893 41.1403 185.58 40.9443 185.104C40.8417 184.871 40.7903 184.591 40.7903 184.264V180.148H39.7123V179.308H40.7903V177.446H41.8823V179.308H43.9823V180.148H41.8823V184.25C41.8823 184.931 42.1997 185.272 42.8343 185.272C43.1797 185.272 43.567 185.188 43.9963 185.02L44.1503 185.804ZM48.644 180.246C47.5893 180.246 47.0433 181.077 47.006 182.738V186H45.9V179.294H47.006V180.582C47.342 179.649 47.9347 179.182 48.784 179.182C49.0547 179.182 49.3113 179.224 49.554 179.308L49.498 180.386C49.218 180.293 48.9333 180.246 48.644 180.246ZM55.39 181.66C55.39 181.053 55.264 180.619 55.012 180.358C54.76 180.097 54.3914 179.966 53.906 179.966C53.43 179.966 53.0427 180.064 52.744 180.26C52.4547 180.447 52.31 180.745 52.31 181.156H51.092C51.092 180.129 51.6427 179.495 52.744 179.252C53.08 179.177 53.444 179.14 53.836 179.14C54.6667 179.14 55.3154 179.35 55.782 179.77C56.2487 180.19 56.482 180.829 56.482 181.688V186H55.53L55.418 184.88C55.0074 185.729 54.2654 186.154 53.192 186.154C52.4734 186.154 51.8947 185.953 51.456 185.552C51.0267 185.151 50.812 184.651 50.812 184.054C50.812 183.457 51.05 182.99 51.526 182.654C52.0114 182.318 52.6134 182.15 53.332 182.15C54.0507 182.15 54.7367 182.271 55.39 182.514V181.66ZM55.39 183.214C54.7274 183.027 54.1487 182.934 53.654 182.934C53.1594 182.934 52.758 183.023 52.45 183.2C52.142 183.377 51.988 183.657 51.988 184.04C51.988 184.88 52.464 185.3 53.416 185.3C53.9574 185.3 54.4194 185.109 54.802 184.726C55.194 184.334 55.39 183.83 55.39 183.214ZM60.144 180.596C60.5827 179.625 61.334 179.14 62.398 179.14C63.1913 179.14 63.8073 179.401 64.246 179.924C64.694 180.447 64.918 181.161 64.918 182.066V186H63.826V182.066C63.826 181.422 63.672 180.937 63.364 180.61C63.0653 180.283 62.636 180.12 62.076 180.12C61.516 180.12 61.0633 180.349 60.718 180.806C60.3727 181.263 60.1907 181.898 60.172 182.71V186H59.066V179.308H60.018L60.144 180.596ZM67.1656 180.946C67.1656 180.395 67.3989 179.957 67.8656 179.63C68.3416 179.303 68.9809 179.14 69.7836 179.14C70.5862 179.14 71.2116 179.308 71.6596 179.644C72.1169 179.98 72.3549 180.405 72.3736 180.918H71.2956C71.2116 180.311 70.6982 180.008 69.7556 180.008C69.2982 180.008 68.9436 180.111 68.6916 180.316C68.4489 180.521 68.3276 180.745 68.3276 180.988C68.3276 181.221 68.4209 181.422 68.6076 181.59C68.7942 181.749 69.0929 181.889 69.5036 182.01L70.8476 182.458C71.4169 182.635 71.8509 182.864 72.1496 183.144C72.4576 183.415 72.6116 183.793 72.6116 184.278C72.6116 184.754 72.3642 185.188 71.8696 185.58C71.3749 185.963 70.6842 186.154 69.7976 186.154C68.9109 186.154 68.2202 185.958 67.7256 185.566C67.2309 185.165 66.9696 184.651 66.9416 184.026H68.0056C68.0242 184.446 68.1922 184.763 68.5096 184.978C68.8362 185.183 69.2422 185.286 69.7276 185.286C70.2129 185.286 70.6142 185.183 70.9316 184.978C71.2489 184.773 71.4076 184.53 71.4076 184.25C71.4076 183.961 71.3142 183.741 71.1276 183.592C70.9409 183.443 70.6376 183.312 70.2176 183.2L68.9156 182.766C67.7489 182.421 67.1656 181.814 67.1656 180.946ZM79.0287 181.66C79.0287 181.053 78.9027 180.619 78.6507 180.358C78.3987 180.097 78.03 179.966 77.5447 179.966C77.0687 179.966 76.6814 180.064 76.3827 180.26C76.0934 180.447 75.9487 180.745 75.9487 181.156H74.7307C74.7307 180.129 75.2814 179.495 76.3827 179.252C76.7187 179.177 77.0827 179.14 77.4747 179.14C78.3054 179.14 78.954 179.35 79.4207 179.77C79.8874 180.19 80.1207 180.829 80.1207 181.688V186H79.1687L79.0567 184.88C78.646 185.729 77.904 186.154 76.8307 186.154C76.112 186.154 75.5334 185.953 75.0947 185.552C74.6654 185.151 74.4507 184.651 74.4507 184.054C74.4507 183.457 74.6887 182.99 75.1647 182.654C75.65 182.318 76.252 182.15 76.9707 182.15C77.6894 182.15 78.3754 182.271 79.0287 182.514V181.66ZM79.0287 183.214C78.366 183.027 77.7874 182.934 77.2927 182.934C76.798 182.934 76.3967 183.023 76.0887 183.2C75.7807 183.377 75.6267 183.657 75.6267 184.04C75.6267 184.88 76.1027 185.3 77.0547 185.3C77.596 185.3 78.058 185.109 78.4407 184.726C78.8327 184.334 79.0287 183.83 79.0287 183.214ZM84.9447 179.14C85.738 179.14 86.368 179.345 86.8347 179.756C87.3014 180.157 87.6047 180.661 87.7447 181.268L86.6247 181.366C86.5034 180.974 86.3074 180.671 86.0367 180.456C85.766 180.232 85.4674 180.12 85.1407 180.12C84.5434 180.12 84.058 180.344 83.6847 180.792C83.3207 181.24 83.1387 181.851 83.1387 182.626C83.1387 183.391 83.316 184.007 83.6707 184.474C84.0347 184.941 84.4827 185.174 85.0147 185.174C85.556 185.174 85.9574 185.053 86.2187 184.81C86.4894 184.558 86.6247 184.203 86.6247 183.746H87.7587C87.7587 184.465 87.5067 185.048 87.0027 185.496C86.508 185.935 85.8594 186.154 85.0567 186.154C84.2074 186.154 83.484 185.832 82.8867 185.188C82.2987 184.544 82.0047 183.69 82.0047 182.626C82.0047 181.553 82.2987 180.703 82.8867 180.078C83.4747 179.453 84.1607 179.14 84.9447 179.14ZM93.4238 185.804C92.6211 186.177 91.8884 186.257 91.2258 186.042C90.7498 185.893 90.4138 185.58 90.2178 185.104C90.1151 184.871 90.0638 184.591 90.0638 184.264V180.148H88.9858V179.308H90.0638V177.446H91.1558V179.308H93.2558V180.148H91.1558V184.25C91.1558 184.931 91.4731 185.272 92.1078 185.272C92.4531 185.272 92.8404 185.188 93.2698 185.02L93.4238 185.804ZM95.2574 179.294H96.3634V186H95.2574V179.294ZM95.8034 177.726C95.5794 177.726 95.4021 177.665 95.2714 177.544C95.1501 177.413 95.0894 177.245 95.0894 177.04C95.0894 176.825 95.1501 176.657 95.2714 176.536C95.4021 176.405 95.5794 176.34 95.8034 176.34C96.0274 176.34 96.2048 176.405 96.3354 176.536C96.4754 176.657 96.5454 176.825 96.5454 177.04C96.5454 177.245 96.4754 177.413 96.3354 177.544C96.2048 177.665 96.0274 177.726 95.8034 177.726ZM101.779 179.14C102.712 179.14 103.464 179.443 104.033 180.05C104.612 180.657 104.901 181.525 104.901 182.654C104.901 183.774 104.612 184.637 104.033 185.244C103.464 185.851 102.712 186.154 101.779 186.154C100.846 186.154 100.09 185.851 99.511 185.244C98.9417 184.637 98.657 183.774 98.657 182.654C98.657 181.525 98.9417 180.657 99.511 180.05C100.09 179.443 100.846 179.14 101.779 179.14ZM103.781 182.654C103.781 181.851 103.613 181.226 103.277 180.778C102.941 180.321 102.446 180.092 101.793 180.092C101.149 180.092 100.654 180.321 100.309 180.778C99.9637 181.226 99.791 181.851 99.791 182.654C99.791 183.447 99.9544 184.073 100.281 184.53C100.608 184.978 101.093 185.202 101.737 185.202C102.39 185.202 102.894 184.978 103.249 184.53C103.604 184.073 103.781 183.447 103.781 182.654ZM108.078 180.596C108.516 179.625 109.268 179.14 110.332 179.14C111.125 179.14 111.741 179.401 112.18 179.924C112.628 180.447 112.852 181.161 112.852 182.066V186H111.76V182.066C111.76 181.422 111.606 180.937 111.298 180.61C110.999 180.283 110.57 180.12 110.01 180.12C109.45 180.12 108.997 180.349 108.652 180.806C108.306 181.263 108.124 181.898 108.106 182.71V186H107V179.308H107.952L108.078 180.596ZM115.099 180.946C115.099 180.395 115.332 179.957 115.799 179.63C116.275 179.303 116.914 179.14 117.717 179.14C118.52 179.14 119.145 179.308 119.593 179.644C120.05 179.98 120.288 180.405 120.307 180.918H119.229C119.145 180.311 118.632 180.008 117.689 180.008C117.232 180.008 116.877 180.111 116.625 180.316C116.382 180.521 116.261 180.745 116.261 180.988C116.261 181.221 116.354 181.422 116.541 181.59C116.728 181.749 117.026 181.889 117.437 182.01L118.781 182.458C119.35 182.635 119.784 182.864 120.083 183.144C120.391 183.415 120.545 183.793 120.545 184.278C120.545 184.754 120.298 185.188 119.803 185.58C119.308 185.963 118.618 186.154 117.731 186.154C116.844 186.154 116.154 185.958 115.659 185.566C115.164 185.165 114.903 184.651 114.875 184.026H115.939C115.958 184.446 116.126 184.763 116.443 184.978C116.77 185.183 117.176 185.286 117.661 185.286C118.146 185.286 118.548 185.183 118.865 184.978C119.182 184.773 119.341 184.53 119.341 184.25C119.341 183.961 119.248 183.741 119.061 183.592C118.874 183.443 118.571 183.312 118.151 183.2L116.849 182.766C115.682 182.421 115.099 181.814 115.099 180.946ZM130.298 181.66C130.298 181.053 130.172 180.619 129.92 180.358C129.668 180.097 129.3 179.966 128.814 179.966C128.338 179.966 127.951 180.064 127.652 180.26C127.363 180.447 127.218 180.745 127.218 181.156H126C126 180.129 126.551 179.495 127.652 179.252C127.988 179.177 128.352 179.14 128.744 179.14C129.575 179.14 130.224 179.35 130.69 179.77C131.157 180.19 131.39 180.829 131.39 181.688V186H130.438L130.326 184.88C129.916 185.729 129.174 186.154 128.1 186.154C127.382 186.154 126.803 185.953 126.364 185.552C125.935 185.151 125.72 184.651 125.72 184.054C125.72 183.457 125.958 182.99 126.434 182.654C126.92 182.318 127.522 182.15 128.24 182.15C128.959 182.15 129.645 182.271 130.298 182.514V181.66ZM130.298 183.214C129.636 183.027 129.057 182.934 128.562 182.934C128.068 182.934 127.666 183.023 127.358 183.2C127.05 183.377 126.896 183.657 126.896 184.04C126.896 184.88 127.372 185.3 128.324 185.3C128.866 185.3 129.328 185.109 129.71 184.726C130.102 184.334 130.298 183.83 130.298 183.214ZM136.718 180.246C135.664 180.246 135.118 181.077 135.08 182.738V186H133.974V179.294H135.08V180.582C135.416 179.649 136.009 179.182 136.858 179.182C137.129 179.182 137.386 179.224 137.628 179.308L137.572 180.386C137.292 180.293 137.008 180.246 136.718 180.246ZM141.63 185.258C142.554 185.258 143.082 184.852 143.212 184.04H144.346C144.244 184.712 143.945 185.235 143.45 185.608C142.965 185.972 142.358 186.154 141.63 186.154C140.734 186.154 140.006 185.837 139.446 185.202C138.886 184.558 138.606 183.704 138.606 182.64C138.606 181.576 138.886 180.727 139.446 180.092C140.016 179.457 140.767 179.14 141.7 179.14C142.643 179.14 143.343 179.504 143.8 180.232C144.267 180.96 144.43 181.847 144.29 182.892H139.712C139.712 183.583 139.88 184.152 140.216 184.6C140.552 185.039 141.024 185.258 141.63 185.258ZM142.442 180.19C142.228 180.078 141.966 180.022 141.658 180.022C141.089 180.022 140.636 180.218 140.3 180.61C139.974 180.993 139.782 181.473 139.726 182.052H143.296C143.296 181.119 143.012 180.498 142.442 180.19ZM149.511 180.946C149.511 180.395 149.745 179.957 150.211 179.63C150.687 179.303 151.327 179.14 152.129 179.14C152.932 179.14 153.557 179.308 154.005 179.644C154.463 179.98 154.701 180.405 154.719 180.918H153.641C153.557 180.311 153.044 180.008 152.101 180.008C151.644 180.008 151.289 180.111 151.037 180.316C150.795 180.521 150.673 180.745 150.673 180.988C150.673 181.221 150.767 181.422 150.953 181.59C151.14 181.749 151.439 181.889 151.849 182.01L153.193 182.458C153.763 182.635 154.197 182.864 154.495 183.144C154.803 183.415 154.957 183.793 154.957 184.278C154.957 184.754 154.71 185.188 154.215 185.58C153.721 185.963 153.03 186.154 152.143 186.154C151.257 186.154 150.566 185.958 150.071 185.566C149.577 185.165 149.315 184.651 149.287 184.026H150.351C150.37 184.446 150.538 184.763 150.855 184.978C151.182 185.183 151.588 185.286 152.073 185.286C152.559 185.286 152.96 185.183 153.277 184.978C153.595 184.773 153.753 184.53 153.753 184.25C153.753 183.961 153.66 183.741 153.473 183.592C153.287 183.443 152.983 183.312 152.563 183.2L151.261 182.766C150.095 182.421 149.511 181.814 149.511 180.946ZM159.54 185.258C160.464 185.258 160.992 184.852 161.122 184.04H162.256C162.154 184.712 161.855 185.235 161.36 185.608C160.875 185.972 160.268 186.154 159.54 186.154C158.644 186.154 157.916 185.837 157.356 185.202C156.796 184.558 156.516 183.704 156.516 182.64C156.516 181.576 156.796 180.727 157.356 180.092C157.926 179.457 158.677 179.14 159.61 179.14C160.553 179.14 161.253 179.504 161.71 180.232C162.177 180.96 162.34 181.847 162.2 182.892H157.622C157.622 183.583 157.79 184.152 158.126 184.6C158.462 185.039 158.934 185.258 159.54 185.258ZM160.352 180.19C160.138 180.078 159.876 180.022 159.568 180.022C158.999 180.022 158.546 180.218 158.21 180.61C157.884 180.993 157.692 181.473 157.636 182.052H161.206C161.206 181.119 160.922 180.498 160.352 180.19ZM166.661 179.14C167.455 179.14 168.085 179.345 168.551 179.756C169.018 180.157 169.321 180.661 169.461 181.268L168.341 181.366C168.22 180.974 168.024 180.671 167.753 180.456C167.483 180.232 167.184 180.12 166.857 180.12C166.26 180.12 165.775 180.344 165.401 180.792C165.037 181.24 164.855 181.851 164.855 182.626C164.855 183.391 165.033 184.007 165.387 184.474C165.751 184.941 166.199 185.174 166.731 185.174C167.273 185.174 167.674 185.053 167.935 184.81C168.206 184.558 168.341 184.203 168.341 183.746H169.475C169.475 184.465 169.223 185.048 168.719 185.496C168.225 185.935 167.576 186.154 166.773 186.154C165.924 186.154 165.201 185.832 164.603 185.188C164.015 184.544 163.721 183.69 163.721 182.626C163.721 181.553 164.015 180.703 164.603 180.078C165.191 179.453 165.877 179.14 166.661 179.14ZM176.191 184.67C175.733 185.641 174.991 186.126 173.965 186.126C173.209 186.126 172.597 185.916 172.131 185.496C171.673 185.076 171.445 184.427 171.445 183.55V179.294H172.551V183.466C172.551 184.595 173.073 185.16 174.119 185.16C174.725 185.16 175.215 184.927 175.589 184.46C175.971 183.993 176.172 183.396 176.191 182.668V179.294H177.297V186H176.191V184.67ZM182.861 180.246C181.806 180.246 181.26 181.077 181.223 182.738V186H180.117V179.294H181.223V180.582C181.559 179.649 182.151 179.182 183.001 179.182C183.271 179.182 183.528 179.224 183.771 179.308L183.715 180.386C183.435 180.293 183.15 180.246 182.861 180.246ZM187.773 185.258C188.697 185.258 189.224 184.852 189.355 184.04H190.489C190.386 184.712 190.087 185.235 189.593 185.608C189.107 185.972 188.501 186.154 187.773 186.154C186.877 186.154 186.149 185.837 185.589 185.202C185.029 184.558 184.749 183.704 184.749 182.64C184.749 181.576 185.029 180.727 185.589 180.092C186.158 179.457 186.909 179.14 187.843 179.14C188.785 179.14 189.485 179.504 189.943 180.232C190.409 180.96 190.573 181.847 190.433 182.892H185.855C185.855 183.583 186.023 184.152 186.359 184.6C186.695 185.039 187.166 185.258 187.773 185.258ZM188.585 180.19C188.37 180.078 188.109 180.022 187.801 180.022C187.231 180.022 186.779 180.218 186.443 180.61C186.116 180.993 185.925 181.473 185.869 182.052H189.439C189.439 181.119 189.154 180.498 188.585 180.19ZM200.148 181.66C200.148 181.053 200.022 180.619 199.77 180.358C199.518 180.097 199.149 179.966 198.664 179.966C198.188 179.966 197.801 180.064 197.502 180.26C197.213 180.447 197.068 180.745 197.068 181.156H195.85C195.85 180.129 196.401 179.495 197.502 179.252C197.838 179.177 198.202 179.14 198.594 179.14C199.425 179.14 200.073 179.35 200.54 179.77C201.007 180.19 201.24 180.829 201.24 181.688V186H200.288L200.176 184.88C199.765 185.729 199.023 186.154 197.95 186.154C197.231 186.154 196.653 185.953 196.214 185.552C195.785 185.151 195.57 184.651 195.57 184.054C195.57 183.457 195.808 182.99 196.284 182.654C196.769 182.318 197.371 182.15 198.09 182.15C198.809 182.15 199.495 182.271 200.148 182.514V181.66ZM200.148 183.214C199.485 183.027 198.907 182.934 198.412 182.934C197.917 182.934 197.516 183.023 197.208 183.2C196.9 183.377 196.746 183.657 196.746 184.04C196.746 184.88 197.222 185.3 198.174 185.3C198.715 185.3 199.177 185.109 199.56 184.726C199.952 184.334 200.148 183.83 200.148 183.214ZM204.902 180.596C205.34 179.625 206.092 179.14 207.156 179.14C207.949 179.14 208.565 179.401 209.004 179.924C209.452 180.447 209.676 181.161 209.676 182.066V186H208.584V182.066C208.584 181.422 208.43 180.937 208.122 180.61C207.823 180.283 207.394 180.12 206.834 180.12C206.274 180.12 205.821 180.349 205.476 180.806C205.13 181.263 204.948 181.898 204.93 182.71V186H203.824V179.308H204.776L204.902 180.596ZM216.655 180.302V176.466H217.747V186H216.851L216.711 184.88C216.497 185.3 216.212 185.617 215.857 185.832C215.503 186.047 215.115 186.154 214.695 186.154C213.846 186.154 213.132 185.827 212.553 185.174C211.984 184.521 211.699 183.671 211.699 182.626C211.699 181.571 211.979 180.727 212.539 180.092C213.109 179.457 213.823 179.14 214.681 179.14C215.549 179.14 216.207 179.527 216.655 180.302ZM214.751 180.12C214.21 180.12 213.753 180.349 213.379 180.806C213.015 181.263 212.833 181.875 212.833 182.64C212.833 183.405 213.02 184.021 213.393 184.488C213.767 184.945 214.215 185.174 214.737 185.174C215.26 185.174 215.703 185.001 216.067 184.656C216.441 184.301 216.637 183.83 216.655 183.242V182.15C216.655 181.525 216.473 181.03 216.109 180.666C215.745 180.302 215.293 180.12 214.751 180.12ZM226.232 185.258C227.156 185.258 227.683 184.852 227.814 184.04H228.948C228.845 184.712 228.546 185.235 228.052 185.608C227.566 185.972 226.96 186.154 226.232 186.154C225.336 186.154 224.608 185.837 224.048 185.202C223.488 184.558 223.208 183.704 223.208 182.64C223.208 181.576 223.488 180.727 224.048 180.092C224.617 179.457 225.368 179.14 226.302 179.14C227.244 179.14 227.944 179.504 228.402 180.232C228.868 180.96 229.032 181.847 228.892 182.892H224.314C224.314 183.583 224.482 184.152 224.818 184.6C225.154 185.039 225.625 185.258 226.232 185.258ZM227.044 180.19C226.829 180.078 226.568 180.022 226.26 180.022C225.69 180.022 225.238 180.218 224.902 180.61C224.575 180.993 224.384 181.473 224.328 182.052H227.898C227.898 181.119 227.613 180.498 227.044 180.19ZM232.191 180.596C232.63 179.625 233.381 179.14 234.445 179.14C235.238 179.14 235.854 179.401 236.293 179.924C236.741 180.447 236.965 181.161 236.965 182.066V186H235.873V182.066C235.873 181.422 235.719 180.937 235.411 180.61C235.112 180.283 234.683 180.12 234.123 180.12C233.563 180.12 233.11 180.349 232.765 180.806C232.42 181.263 232.238 181.898 232.219 182.71V186H231.113V179.308H232.065L232.191 180.596ZM241.788 179.14C242.582 179.14 243.212 179.345 243.678 179.756C244.145 180.157 244.448 180.661 244.588 181.268L243.468 181.366C243.347 180.974 243.151 180.671 242.88 180.456C242.61 180.232 242.311 180.12 241.984 180.12C241.387 180.12 240.902 180.344 240.528 180.792C240.164 181.24 239.982 181.851 239.982 182.626C239.982 183.391 240.16 184.007 240.514 184.474C240.878 184.941 241.326 185.174 241.858 185.174C242.4 185.174 242.801 185.053 243.062 184.81C243.333 184.558 243.468 184.203 243.468 183.746H244.602C244.602 184.465 244.35 185.048 243.846 185.496C243.352 185.935 242.703 186.154 241.9 186.154C241.051 186.154 240.328 185.832 239.73 185.188C239.142 184.544 238.848 183.69 238.848 182.626C238.848 181.553 239.142 180.703 239.73 180.078C240.318 179.453 241.004 179.14 241.788 179.14ZM249.498 180.246C248.443 180.246 247.897 181.077 247.86 182.738V186H246.754V179.294H247.86V180.582C248.196 179.649 248.788 179.182 249.638 179.182C249.908 179.182 250.165 179.224 250.408 179.308L250.352 180.386C250.072 180.293 249.787 180.246 249.498 180.246ZM250.756 187.946C251.213 188.301 251.694 188.478 252.198 188.478C252.571 188.478 252.893 188.291 253.164 187.918C253.36 187.647 253.537 187.237 253.696 186.686L253.892 186L251.148 179.308H252.38L254.41 184.642L255.992 179.308H257.112L254.606 187.33C254.391 188.011 254.106 188.534 253.752 188.898C253.406 189.262 252.963 189.444 252.422 189.444C251.89 189.444 251.334 189.281 250.756 188.954V187.946ZM259.917 180.33C260.355 179.537 261.009 179.14 261.877 179.14C262.754 179.14 263.482 179.462 264.061 180.106C264.649 180.75 264.943 181.599 264.943 182.654C264.943 183.709 264.649 184.558 264.061 185.202C263.473 185.837 262.749 186.154 261.891 186.154C261.032 186.154 260.397 185.832 259.987 185.188V189.29H258.881V179.308H259.791L259.917 180.33ZM261.835 185.174C262.357 185.174 262.815 184.95 263.207 184.502C263.608 184.054 263.809 183.443 263.809 182.668C263.809 181.884 263.617 181.263 263.235 180.806C262.861 180.349 262.404 180.12 261.863 180.12C261.321 180.12 260.878 180.293 260.533 180.638C260.187 180.974 260.005 181.431 259.987 182.01V183.284C259.987 183.872 260.164 184.334 260.519 184.67C260.873 185.006 261.312 185.174 261.835 185.174ZM270.693 185.804C269.891 186.177 269.158 186.257 268.495 186.042C268.019 185.893 267.683 185.58 267.487 185.104C267.385 184.871 267.333 184.591 267.333 184.264V180.148H266.255V179.308H267.333V177.446H268.425V179.308H270.525V180.148H268.425V184.25C268.425 184.931 268.743 185.272 269.377 185.272C269.723 185.272 270.11 185.188 270.539 185.02L270.693 185.804ZM274.767 185.258C275.691 185.258 276.218 184.852 276.349 184.04H277.483C277.38 184.712 277.082 185.235 276.587 185.608C276.102 185.972 275.495 186.154 274.767 186.154C273.871 186.154 273.143 185.837 272.583 185.202C272.023 184.558 271.743 183.704 271.743 182.64C271.743 181.576 272.023 180.727 272.583 180.092C273.152 179.457 273.904 179.14 274.837 179.14C275.78 179.14 276.48 179.504 276.937 180.232C277.404 180.96 277.567 181.847 277.427 182.892H272.849C272.849 183.583 273.017 184.152 273.353 184.6C273.689 185.039 274.16 185.258 274.767 185.258ZM275.579 180.19C275.364 180.078 275.103 180.022 274.795 180.022C274.226 180.022 273.773 180.218 273.437 180.61C273.11 180.993 272.919 181.473 272.863 182.052H276.433C276.433 181.119 276.148 180.498 275.579 180.19ZM284.044 180.302V176.466H285.136V186H284.24L284.1 184.88C283.885 185.3 283.601 185.617 283.246 185.832C282.891 186.047 282.504 186.154 282.084 186.154C281.235 186.154 280.521 185.827 279.942 185.174C279.373 184.521 279.088 183.671 279.088 182.626C279.088 181.571 279.368 180.727 279.928 180.092C280.497 179.457 281.211 179.14 282.07 179.14C282.938 179.14 283.596 179.527 284.044 180.302ZM282.14 180.12C281.599 180.12 281.141 180.349 280.768 180.806C280.404 181.263 280.222 181.875 280.222 182.64C280.222 183.405 280.409 184.021 280.782 184.488C281.155 184.945 281.603 185.174 282.126 185.174C282.649 185.174 283.092 185.001 283.456 184.656C283.829 184.301 284.025 183.83 284.044 183.242V182.15C284.044 181.525 283.862 181.03 283.498 180.666C283.134 180.302 282.681 180.12 282.14 180.12ZM287.793 186.126C287.559 186.126 287.363 186.051 287.205 185.902C287.055 185.743 286.981 185.557 286.981 185.342C286.981 185.118 287.055 184.931 287.205 184.782C287.363 184.623 287.559 184.544 287.793 184.544C288.035 184.544 288.236 184.623 288.395 184.782C288.553 184.931 288.633 185.118 288.633 185.342C288.633 185.557 288.553 185.743 288.395 185.902C288.236 186.051 288.035 186.126 287.793 186.126Z" fill="white"/>
<path d="M21.212 229.452H25.796V230.268H22.16V232.776H25.544V233.592H22.16V237H21.212V229.452ZM27.565 231.252H28.513V237H27.565V231.252ZM28.033 229.908C27.841 229.908 27.689 229.856 27.577 229.752C27.473 229.64 27.421 229.496 27.421 229.32C27.421 229.136 27.473 228.992 27.577 228.888C27.689 228.776 27.841 228.72 28.033 228.72C28.225 228.72 28.377 228.776 28.489 228.888C28.609 228.992 28.669 229.136 28.669 229.32C28.669 229.496 28.609 229.64 28.489 229.752C28.377 229.856 28.225 229.908 28.033 229.908ZM33.4309 232.068C32.5269 232.068 32.0589 232.78 32.0269 234.204V237H31.0789V231.252H32.0269V232.356C32.3149 231.556 32.8229 231.156 33.5509 231.156C33.7829 231.156 34.0029 231.192 34.2109 231.264L34.1629 232.188C33.9229 232.108 33.6789 232.068 33.4309 232.068ZM35.3612 232.668C35.3612 232.196 35.5612 231.82 35.9612 231.54C36.3692 231.26 36.9172 231.12 37.6052 231.12C38.2932 231.12 38.8292 231.264 39.2132 231.552C39.6052 231.84 39.8092 232.204 39.8252 232.644H38.9012C38.8292 232.124 38.3892 231.864 37.5812 231.864C37.1892 231.864 36.8852 231.952 36.6692 232.128C36.4612 232.304 36.3572 232.496 36.3572 232.704C36.3572 232.904 36.4372 233.076 36.5972 233.22C36.7572 233.356 37.0132 233.476 37.3652 233.58L38.5172 233.964C39.0052 234.116 39.3772 234.312 39.6332 234.552C39.8972 234.784 40.0292 235.108 40.0292 235.524C40.0292 235.932 39.8172 236.304 39.3932 236.64C38.9692 236.968 38.3772 237.132 37.6172 237.132C36.8572 237.132 36.2652 236.964 35.8412 236.628C35.4172 236.284 35.1932 235.844 35.1692 235.308H36.0812C36.0972 235.668 36.2412 235.94 36.5132 236.124C36.7932 236.3 37.1412 236.388 37.5572 236.388C37.9732 236.388 38.3172 236.3 38.5892 236.124C38.8612 235.948 38.9972 235.74 38.9972 235.5C38.9972 235.252 38.9172 235.064 38.7572 234.936C38.5972 234.808 38.3372 234.696 37.9772 234.6L36.8612 234.228C35.8612 233.932 35.3612 233.412 35.3612 232.668ZM44.9776 236.832C44.2896 237.152 43.6616 237.22 43.0936 237.036C42.6856 236.908 42.3976 236.64 42.2296 236.232C42.1416 236.032 42.0976 235.792 42.0976 235.512V231.984H41.1736V231.264H42.0976V229.668H43.0336V231.264H44.8336V231.984H43.0336V235.5C43.0336 236.084 43.3056 236.376 43.8496 236.376C44.1456 236.376 44.4776 236.304 44.8456 236.16L44.9776 236.832ZM50.2607 232.368C50.6367 231.536 51.2807 231.12 52.1927 231.12C52.8727 231.12 53.4007 231.344 53.7767 231.792C54.1607 232.24 54.3527 232.852 54.3527 233.628V237H53.4167V233.628C53.4167 233.076 53.2847 232.66 53.0207 232.38C52.7647 232.1 52.3967 231.96 51.9167 231.96C51.4367 231.96 51.0487 232.156 50.7527 232.548C50.4567 232.94 50.3007 233.484 50.2847 234.18V237H49.3367V231.264H50.1527L50.2607 232.368ZM60.1312 233.28C60.1312 232.76 60.0232 232.388 59.8072 232.164C59.5912 231.94 59.2752 231.828 58.8592 231.828C58.4512 231.828 58.1192 231.912 57.8632 232.08C57.6152 232.24 57.4912 232.496 57.4912 232.848H56.4472C56.4472 231.968 56.9192 231.424 57.8632 231.216C58.1512 231.152 58.4632 231.12 58.7992 231.12C59.5112 231.12 60.0672 231.3 60.4672 231.66C60.8672 232.02 61.0672 232.568 61.0672 233.304V237H60.2512L60.1552 236.04C59.8032 236.768 59.1672 237.132 58.2472 237.132C57.6312 237.132 57.1352 236.96 56.7592 236.616C56.3912 236.272 56.2072 235.844 56.2072 235.332C56.2072 234.82 56.4112 234.42 56.8192 234.132C57.2352 233.844 57.7512 233.7 58.3672 233.7C58.9832 233.7 59.5712 233.804 60.1312 234.012V233.28ZM60.1312 234.612C59.5632 234.452 59.0672 234.372 58.6432 234.372C58.2192 234.372 57.8752 234.448 57.6112 234.6C57.3472 234.752 57.2152 234.992 57.2152 235.32C57.2152 236.04 57.6232 236.4 58.4392 236.4C58.9032 236.4 59.2992 236.236 59.6272 235.908C59.9632 235.572 60.1312 235.14 60.1312 234.612ZM64.206 232.368C64.582 231.536 65.226 231.12 66.138 231.12C66.634 231.12 67.05 231.244 67.386 231.492C67.722 231.732 67.966 232.068 68.118 232.5C68.478 231.58 69.146 231.12 70.122 231.12C70.81 231.12 71.342 231.344 71.718 231.792C72.094 232.24 72.282 232.852 72.282 233.628V237H71.346V233.628C71.346 233.076 71.214 232.66 70.95 232.38C70.694 232.1 70.322 231.96 69.834 231.96C69.346 231.96 68.966 232.16 68.694 232.56C68.43 232.96 68.298 233.512 68.298 234.216V237H67.362V233.628C67.362 233.076 67.23 232.66 66.966 232.38C66.71 232.1 66.342 231.96 65.862 231.96C65.382 231.96 64.994 232.156 64.698 232.548C64.402 232.94 64.246 233.484 64.23 234.18V237H63.282V231.264H64.098L64.206 232.368ZM76.4889 236.364C77.2809 236.364 77.7329 236.016 77.8449 235.32H78.8169C78.7289 235.896 78.4729 236.344 78.0489 236.664C77.6329 236.976 77.1129 237.132 76.4889 237.132C75.7209 237.132 75.0969 236.86 74.6169 236.316C74.1369 235.764 73.8969 235.032 73.8969 234.12C73.8969 233.208 74.1369 232.48 74.6169 231.936C75.1049 231.392 75.7489 231.12 76.5489 231.12C77.3569 231.12 77.9569 231.432 78.3489 232.056C78.7489 232.68 78.8889 233.44 78.7689 234.336H74.8449C74.8449 234.928 74.9889 235.416 75.2769 235.8C75.5649 236.176 75.9689 236.364 76.4889 236.364ZM77.1849 232.02C77.0009 231.924 76.7769 231.876 76.5129 231.876C76.0249 231.876 75.6369 232.044 75.3489 232.38C75.0689 232.708 74.9049 233.12 74.8569 233.616H77.9169C77.9169 232.816 77.6729 232.284 77.1849 232.02Z" fill="white"/>
<path d="M22.16 323.172H25.52V324H21.212V316.452H22.16V323.172ZM30.3773 320.28C30.3773 319.76 30.2693 319.388 30.0533 319.164C29.8373 318.94 29.5213 318.828 29.1053 318.828C28.6973 318.828 28.3653 318.912 28.1093 319.08C27.8613 319.24 27.7373 319.496 27.7373 319.848H26.6933C26.6933 318.968 27.1653 318.424 28.1093 318.216C28.3973 318.152 28.7093 318.12 29.0453 318.12C29.7573 318.12 30.3133 318.3 30.7133 318.66C31.1133 319.02 31.3133 319.568 31.3133 320.304V324H30.4973L30.4013 323.04C30.0493 323.768 29.4133 324.132 28.4933 324.132C27.8773 324.132 27.3813 323.96 27.0053 323.616C26.6373 323.272 26.4533 322.844 26.4533 322.332C26.4533 321.82 26.6573 321.42 27.0653 321.132C27.4813 320.844 27.9973 320.7 28.6133 320.7C29.2293 320.7 29.8173 320.804 30.3773 321.012V320.28ZM30.3773 321.612C29.8093 321.452 29.3133 321.372 28.8893 321.372C28.4653 321.372 28.1213 321.448 27.8573 321.6C27.5933 321.752 27.4613 321.992 27.4613 322.32C27.4613 323.04 27.8693 323.4 28.6853 323.4C29.1493 323.4 29.5453 323.236 29.8733 322.908C30.2093 322.572 30.3773 322.14 30.3773 321.612ZM33.2401 319.668C33.2401 319.196 33.4401 318.82 33.8401 318.54C34.2481 318.26 34.7961 318.12 35.4841 318.12C36.1721 318.12 36.7081 318.264 37.0921 318.552C37.4841 318.84 37.6881 319.204 37.7041 319.644H36.7801C36.7081 319.124 36.2681 318.864 35.4601 318.864C35.0681 318.864 34.7641 318.952 34.5481 319.128C34.3401 319.304 34.2361 319.496 34.2361 319.704C34.2361 319.904 34.3161 320.076 34.4761 320.22C34.6361 320.356 34.8921 320.476 35.2441 320.58L36.3961 320.964C36.8841 321.116 37.2561 321.312 37.5121 321.552C37.7761 321.784 37.9081 322.108 37.9081 322.524C37.9081 322.932 37.6961 323.304 37.2721 323.64C36.8481 323.968 36.2561 324.132 35.4961 324.132C34.7361 324.132 34.1441 323.964 33.7201 323.628C33.2961 323.284 33.0721 322.844 33.0481 322.308H33.9601C33.9761 322.668 34.1201 322.94 34.3921 323.124C34.6721 323.3 35.0201 323.388 35.4361 323.388C35.8521 323.388 36.1961 323.3 36.4681 323.124C36.7401 322.948 36.8761 322.74 36.8761 322.5C36.8761 322.252 36.7961 322.064 36.6361 321.936C36.4761 321.808 36.2161 321.696 35.8561 321.6L34.7401 321.228C33.7401 320.932 33.2401 320.412 33.2401 319.668ZM42.8565 323.832C42.1685 324.152 41.5405 324.22 40.9725 324.036C40.5645 323.908 40.2765 323.64 40.1085 323.232C40.0205 323.032 39.9765 322.792 39.9765 322.512V318.984H39.0525V318.264H39.9765V316.668H40.9125V318.264H42.7125V318.984H40.9125V322.5C40.9125 323.084 41.1845 323.376 41.7285 323.376C42.0245 323.376 42.3565 323.304 42.7245 323.16L42.8565 323.832ZM48.1396 319.368C48.5156 318.536 49.1596 318.12 50.0716 318.12C50.7516 318.12 51.2796 318.344 51.6556 318.792C52.0396 319.24 52.2316 319.852 52.2316 320.628V324H51.2956V320.628C51.2956 320.076 51.1636 319.66 50.8996 319.38C50.6436 319.1 50.2756 318.96 49.7956 318.96C49.3156 318.96 48.9276 319.156 48.6316 319.548C48.3356 319.94 48.1796 320.484 48.1636 321.18V324H47.2156V318.264H48.0316L48.1396 319.368ZM58.0101 320.28C58.0101 319.76 57.9021 319.388 57.6861 319.164C57.4701 318.94 57.1541 318.828 56.7381 318.828C56.3301 318.828 55.9981 318.912 55.7421 319.08C55.4941 319.24 55.3701 319.496 55.3701 319.848H54.3261C54.3261 318.968 54.7981 318.424 55.7421 318.216C56.0301 318.152 56.3421 318.12 56.6781 318.12C57.3901 318.12 57.9461 318.3 58.3461 318.66C58.7461 319.02 58.9461 319.568 58.9461 320.304V324H58.1301L58.0341 323.04C57.6821 323.768 57.0461 324.132 56.1261 324.132C55.5101 324.132 55.0141 323.96 54.6381 323.616C54.2701 323.272 54.0861 322.844 54.0861 322.332C54.0861 321.82 54.2901 321.42 54.6981 321.132C55.1141 320.844 55.6301 320.7 56.2461 320.7C56.8621 320.7 57.4501 320.804 58.0101 321.012V320.28ZM58.0101 321.612C57.4421 321.452 56.9461 321.372 56.5221 321.372C56.0981 321.372 55.7541 321.448 55.4901 321.6C55.2261 321.752 55.0941 321.992 55.0941 322.32C55.0941 323.04 55.5021 323.4 56.3181 323.4C56.7821 323.4 57.1781 323.236 57.5061 322.908C57.8421 322.572 58.0101 322.14 58.0101 321.612ZM62.0849 319.368C62.4609 318.536 63.1049 318.12 64.0169 318.12C64.5129 318.12 64.9289 318.244 65.2649 318.492C65.6009 318.732 65.8449 319.068 65.9969 319.5C66.3569 318.58 67.0249 318.12 68.0009 318.12C68.6889 318.12 69.2209 318.344 69.5969 318.792C69.9729 319.24 70.1609 319.852 70.1609 320.628V324H69.2249V320.628C69.2249 320.076 69.0929 319.66 68.8289 319.38C68.5729 319.1 68.2009 318.96 67.7129 318.96C67.2249 318.96 66.8449 319.16 66.5729 319.56C66.3089 319.96 66.1769 320.512 66.1769 321.216V324H65.2409V320.628C65.2409 320.076 65.1089 319.66 64.8449 319.38C64.5889 319.1 64.2209 318.96 63.7409 318.96C63.2609 318.96 62.8729 319.156 62.5769 319.548C62.2809 319.94 62.1249 320.484 62.1089 321.18V324H61.1609V318.264H61.9769L62.0849 319.368ZM74.3678 323.364C75.1598 323.364 75.6118 323.016 75.7238 322.32H76.6958C76.6078 322.896 76.3518 323.344 75.9278 323.664C75.5118 323.976 74.9918 324.132 74.3678 324.132C73.5998 324.132 72.9758 323.86 72.4958 323.316C72.0158 322.764 71.7758 322.032 71.7758 321.12C71.7758 320.208 72.0158 319.48 72.4958 318.936C72.9838 318.392 73.6278 318.12 74.4278 318.12C75.2358 318.12 75.8358 318.432 76.2278 319.056C76.6278 319.68 76.7678 320.44 76.6478 321.336H72.7238C72.7238 321.928 72.8678 322.416 73.1558 322.8C73.4438 323.176 73.8478 323.364 74.3678 323.364ZM75.0638 319.02C74.8798 318.924 74.6558 318.876 74.3918 318.876C73.9038 318.876 73.5158 319.044 73.2278 319.38C72.9478 319.708 72.7838 320.12 72.7358 320.616H75.7958C75.7958 319.816 75.5518 319.284 75.0638 319.02Z" fill="white"/>
<path d="M21.2 403.452H25.844V404.268H22.148V406.8H25.628V407.604H22.148V410.172H25.844V411H21.2V403.452ZM28.8623 406.368C29.2383 405.536 29.8823 405.12 30.7943 405.12C31.2903 405.12 31.7063 405.244 32.0423 405.492C32.3783 405.732 32.6223 406.068 32.7743 406.5C33.1343 405.58 33.8023 405.12 34.7783 405.12C35.4663 405.12 35.9983 405.344 36.3743 405.792C36.7503 406.24 36.9383 406.852 36.9383 407.628V411H36.0023V407.628C36.0023 407.076 35.8703 406.66 35.6063 406.38C35.3503 406.1 34.9783 405.96 34.4903 405.96C34.0023 405.96 33.6223 406.16 33.3503 406.56C33.0863 406.96 32.9543 407.512 32.9543 408.216V411H32.0183V407.628C32.0183 407.076 31.8863 406.66 31.6223 406.38C31.3663 406.1 30.9983 405.96 30.5183 405.96C30.0383 405.96 29.6503 406.156 29.3543 406.548C29.0583 406.94 28.9023 407.484 28.8863 408.18V411H27.9383V405.264H28.7543L28.8623 406.368ZM42.7171 407.28C42.7171 406.76 42.6091 406.388 42.3931 406.164C42.1771 405.94 41.8611 405.828 41.4451 405.828C41.0371 405.828 40.7051 405.912 40.4491 406.08C40.2011 406.24 40.0771 406.496 40.0771 406.848H39.0331C39.0331 405.968 39.5051 405.424 40.4491 405.216C40.7371 405.152 41.0491 405.12 41.3851 405.12C42.0971 405.12 42.6531 405.3 43.0531 405.66C43.4531 406.02 43.6531 406.568 43.6531 407.304V411H42.8371L42.7411 410.04C42.3891 410.768 41.7531 411.132 40.8331 411.132C40.2171 411.132 39.7211 410.96 39.3451 410.616C38.9771 410.272 38.7931 409.844 38.7931 409.332C38.7931 408.82 38.9971 408.42 39.4051 408.132C39.8211 407.844 40.3371 407.7 40.9531 407.7C41.5691 407.7 42.1571 407.804 42.7171 408.012V407.28ZM42.7171 408.612C42.1491 408.452 41.6531 408.372 41.2291 408.372C40.8051 408.372 40.4611 408.448 40.1971 408.6C39.9331 408.752 39.8011 408.992 39.8011 409.32C39.8011 410.04 40.2091 410.4 41.0251 410.4C41.4891 410.4 41.8851 410.236 42.2131 409.908C42.5491 409.572 42.7171 409.14 42.7171 408.612ZM45.94 405.252H46.888V411H45.94V405.252ZM46.408 403.908C46.216 403.908 46.064 403.856 45.952 403.752C45.848 403.64 45.796 403.496 45.796 403.32C45.796 403.136 45.848 402.992 45.952 402.888C46.064 402.776 46.216 402.72 46.408 402.72C46.6 402.72 46.752 402.776 46.864 402.888C46.984 402.992 47.044 403.136 47.044 403.32C47.044 403.496 46.984 403.64 46.864 403.752C46.752 403.856 46.6 403.908 46.408 403.908ZM49.4659 402.828H50.4139V411H49.4659V402.828Z" fill="white"/>
<path d="M23.624 490.452C24.456 490.452 25.088 490.664 25.52 491.088C25.96 491.504 26.18 492.068 26.18 492.78C26.18 493.492 25.96 494.056 25.52 494.472C25.088 494.88 24.456 495.084 23.624 495.084H22.136V498H21.188V490.452H23.624ZM23.624 494.268C24.144 494.268 24.536 494.136 24.8 493.872C25.072 493.608 25.208 493.248 25.208 492.792C25.208 492.328 25.072 491.96 24.8 491.688C24.536 491.408 24.144 491.268 23.624 491.268H22.136V494.268H23.624ZM28.8045 493.32C29.1885 492.52 29.8245 492.12 30.7125 492.12C31.3925 492.12 31.9205 492.344 32.2965 492.792C32.6805 493.24 32.8725 493.852 32.8725 494.628V498H31.9365V494.628C31.9365 494.076 31.8045 493.66 31.5405 493.38C31.2845 493.1 30.9125 492.96 30.4245 492.96C29.9365 492.96 29.5445 493.168 29.2485 493.584C28.9525 493.992 28.8045 494.56 28.8045 495.288V498H27.8565V489.828H28.8045V493.32ZM37.1627 492.12C37.9627 492.12 38.6067 492.38 39.0947 492.9C39.5907 493.42 39.8387 494.164 39.8387 495.132C39.8387 496.092 39.5907 496.832 39.0947 497.352C38.6067 497.872 37.9627 498.132 37.1627 498.132C36.3627 498.132 35.7147 497.872 35.2187 497.352C34.7307 496.832 34.4867 496.092 34.4867 495.132C34.4867 494.164 34.7307 493.42 35.2187 492.9C35.7147 492.38 36.3627 492.12 37.1627 492.12ZM38.8787 495.132C38.8787 494.444 38.7347 493.908 38.4467 493.524C38.1587 493.132 37.7347 492.936 37.1747 492.936C36.6227 492.936 36.1987 493.132 35.9027 493.524C35.6067 493.908 35.4587 494.444 35.4587 495.132C35.4587 495.812 35.5987 496.348 35.8787 496.74C36.1587 497.124 36.5747 497.316 37.1267 497.316C37.6867 497.316 38.1187 497.124 38.4227 496.74C38.7267 496.348 38.8787 495.812 38.8787 495.132ZM42.5615 493.368C42.9375 492.536 43.5815 492.12 44.4935 492.12C45.1735 492.12 45.7015 492.344 46.0775 492.792C46.4615 493.24 46.6535 493.852 46.6535 494.628V498H45.7175V494.628C45.7175 494.076 45.5855 493.66 45.3215 493.38C45.0655 493.1 44.6975 492.96 44.2175 492.96C43.7375 492.96 43.3495 493.156 43.0535 493.548C42.7575 493.94 42.6015 494.484 42.5855 495.18V498H41.6375V492.264H42.4535L42.5615 493.368ZM50.86 497.364C51.652 497.364 52.104 497.016 52.216 496.32H53.188C53.1 496.896 52.844 497.344 52.42 497.664C52.004 497.976 51.484 498.132 50.86 498.132C50.092 498.132 49.468 497.86 48.988 497.316C48.508 496.764 48.268 496.032 48.268 495.12C48.268 494.208 48.508 493.48 48.988 492.936C49.476 492.392 50.12 492.12 50.92 492.12C51.728 492.12 52.328 492.432 52.72 493.056C53.12 493.68 53.26 494.44 53.14 495.336H49.216C49.216 495.928 49.36 496.416 49.648 496.8C49.936 497.176 50.34 497.364 50.86 497.364ZM51.556 493.02C51.372 492.924 51.148 492.876 50.884 492.876C50.396 492.876 50.008 493.044 49.72 493.38C49.44 493.708 49.276 494.12 49.228 494.616H52.288C52.288 493.816 52.044 493.284 51.556 493.02ZM58.8271 493.368C59.2031 492.536 59.8471 492.12 60.7591 492.12C61.4391 492.12 61.9671 492.344 62.3431 492.792C62.7271 493.24 62.9191 493.852 62.9191 494.628V498H61.9831V494.628C61.9831 494.076 61.8511 493.66 61.5871 493.38C61.3311 493.1 60.9631 492.96 60.4831 492.96C60.0031 492.96 59.6151 493.156 59.3191 493.548C59.0231 493.94 58.8671 494.484 58.8511 495.18V498H57.9031V492.264H58.7191L58.8271 493.368ZM69.0456 496.86C68.6536 497.692 68.0176 498.108 67.1376 498.108C66.4896 498.108 65.9656 497.928 65.5656 497.568C65.1736 497.208 64.9776 496.652 64.9776 495.9V492.252H65.9256V495.828C65.9256 496.796 66.3736 497.28 67.2696 497.28C67.7896 497.28 68.2096 497.08 68.5296 496.68C68.8576 496.28 69.0296 495.768 69.0456 495.144V492.252H69.9936V498H69.0456V496.86ZM73.3349 493.368C73.7109 492.536 74.3549 492.12 75.2669 492.12C75.7629 492.12 76.1789 492.244 76.5149 492.492C76.8509 492.732 77.0949 493.068 77.2469 493.5C77.6069 492.58 78.2749 492.12 79.2509 492.12C79.9389 492.12 80.4709 492.344 80.8469 492.792C81.2229 493.24 81.4109 493.852 81.4109 494.628V498H80.4749V494.628C80.4749 494.076 80.3429 493.66 80.0789 493.38C79.8229 493.1 79.4509 492.96 78.9629 492.96C78.4749 492.96 78.0949 493.16 77.8229 493.56C77.5589 493.96 77.4269 494.512 77.4269 495.216V498H76.4909V494.628C76.4909 494.076 76.3589 493.66 76.0949 493.38C75.8389 493.1 75.4709 492.96 74.9909 492.96C74.5109 492.96 74.1229 493.156 73.8269 493.548C73.5309 493.94 73.3749 494.484 73.3589 495.18V498H72.4109V492.264H73.2269L73.3349 493.368ZM84.5858 493.116C84.9698 492.452 85.5298 492.12 86.2658 492.12C87.0018 492.12 87.6138 492.396 88.1018 492.948C88.5898 493.492 88.8338 494.216 88.8338 495.12C88.8338 496.016 88.5858 496.744 88.0898 497.304C87.5938 497.856 86.9898 498.132 86.2778 498.132C85.8938 498.132 85.5458 498.036 85.2338 497.844C84.9298 497.652 84.6898 497.368 84.5138 496.992L84.2978 498H83.6378V489.828H84.5858V493.116ZM86.2058 492.96C85.7498 492.96 85.3698 493.108 85.0658 493.404C84.7618 493.692 84.6018 494.096 84.5858 494.616V495.552C84.5858 496.08 84.7418 496.504 85.0538 496.824C85.3738 497.136 85.7578 497.292 86.2058 497.292C86.6538 497.292 87.0418 497.096 87.3698 496.704C87.6978 496.304 87.8618 495.776 87.8618 495.12C87.8618 494.464 87.6978 493.94 87.3698 493.548C87.0498 493.156 86.6618 492.96 86.2058 492.96ZM92.6256 497.364C93.4176 497.364 93.8696 497.016 93.9816 496.32H94.9536C94.8656 496.896 94.6096 497.344 94.1856 497.664C93.7696 497.976 93.2496 498.132 92.6256 498.132C91.8576 498.132 91.2336 497.86 90.7536 497.316C90.2736 496.764 90.0336 496.032 90.0336 495.12C90.0336 494.208 90.2736 493.48 90.7536 492.936C91.2416 492.392 91.8856 492.12 92.6856 492.12C93.4936 492.12 94.0936 492.432 94.4856 493.056C94.8856 493.68 95.0256 494.44 94.9056 495.336H90.9816C90.9816 495.928 91.1256 496.416 91.4136 496.8C91.7016 497.176 92.1056 497.364 92.6256 497.364ZM93.3216 493.02C93.1376 492.924 92.9136 492.876 92.6496 492.876C92.1616 492.876 91.7736 493.044 91.4856 493.38C91.2056 493.708 91.0416 494.12 90.9936 494.616H94.0536C94.0536 493.816 93.8096 493.284 93.3216 493.02ZM99.1614 493.068C98.2574 493.068 97.7894 493.78 97.7574 495.204V498H96.8094V492.252H97.7574V493.356C98.0454 492.556 98.5534 492.156 99.2814 492.156C99.5134 492.156 99.7334 492.192 99.9414 492.264L99.8934 493.188C99.6534 493.108 99.4094 493.068 99.1614 493.068Z" fill="white"/>
<path d="M23 253.5H391C392.381 253.5 393.5 254.619 393.5 256V294C393.5 295.381 392.381 296.5 391 296.5H23C21.6193 296.5 20.5 295.381 20.5 294V256C20.5 254.619 21.6193 253.5 23 253.5Z" fill="white" stroke="black"/>
<path d="M38.702 271.194L43.07 278.264V271.194H44.176V280H42.944L38.506 272.832V280H37.386V271.194H38.702ZM47.068 273.294H48.174V280H47.068V273.294ZM47.614 271.726C47.39 271.726 47.2127 271.665 47.082 271.544C46.9607 271.413 46.9 271.245 46.9 271.04C46.9 270.825 46.9607 270.657 47.082 270.536C47.2127 270.405 47.39 270.34 47.614 270.34C47.838 270.34 48.0153 270.405 48.146 270.536C48.286 270.657 48.356 270.825 48.356 271.04C48.356 271.245 48.286 271.413 48.146 271.544C48.0153 271.665 47.838 271.726 47.614 271.726ZM52.2456 274.596C52.6842 273.625 53.4356 273.14 54.4996 273.14C55.2929 273.14 55.9089 273.401 56.3476 273.924C56.7956 274.447 57.0196 275.161 57.0196 276.066V280H55.9276V276.066C55.9276 275.422 55.7736 274.937 55.4656 274.61C55.1669 274.283 54.7376 274.12 54.1776 274.12C53.6176 274.12 53.1649 274.349 52.8196 274.806C52.4742 275.263 52.2922 275.898 52.2736 276.71V280H51.1676V273.308H52.1196L52.2456 274.596ZM63.7611 275.66C63.7611 275.053 63.6351 274.619 63.3831 274.358C63.1311 274.097 62.7625 273.966 62.2771 273.966C61.8011 273.966 61.4138 274.064 61.1151 274.26C60.8258 274.447 60.6811 274.745 60.6811 275.156H59.4631C59.4631 274.129 60.0138 273.495 61.1151 273.252C61.4511 273.177 61.8151 273.14 62.2071 273.14C63.0378 273.14 63.6865 273.35 64.1531 273.77C64.6198 274.19 64.8531 274.829 64.8531 275.688V280H63.9011L63.7891 278.88C63.3785 279.729 62.6365 280.154 61.5631 280.154C60.8445 280.154 60.2658 279.953 59.8271 279.552C59.3978 279.151 59.1831 278.651 59.1831 278.054C59.1831 277.457 59.4211 276.99 59.8971 276.654C60.3825 276.318 60.9845 276.15 61.7031 276.15C62.4218 276.15 63.1078 276.271 63.7611 276.514V275.66ZM63.7611 277.214C63.0985 277.027 62.5198 276.934 62.0251 276.934C61.5305 276.934 61.1291 277.023 60.8211 277.2C60.5131 277.377 60.3591 277.657 60.3591 278.04C60.3591 278.88 60.8351 279.3 61.7871 279.3C62.3285 279.3 62.7905 279.109 63.1731 278.726C63.5651 278.334 63.7611 277.83 63.7611 277.214Z" fill="black" fill-opacity="0.4"/>
<path d="M23 340.5H391C392.381 340.5 393.5 341.619 393.5 343V381C393.5 382.381 392.381 383.5 391 383.5H23C21.6193 383.5 20.5 382.381 20.5 381V343C20.5 341.619 21.6193 340.5 23 340.5Z" fill="white" stroke="black"/>
<path d="M23 421.5H391C392.381 421.5 393.5 422.619 393.5 424V462C393.5 463.381 392.381 464.5 391 464.5H23C21.6193 464.5 20.5 463.381 20.5 462V424C20.5 422.619 21.6193 421.5 23 421.5Z" fill="white" stroke="black"/>
<path d="M23 514.5H391C392.381 514.5 393.5 515.619 393.5 517V555C393.5 556.381 392.381 557.5 391 557.5H23C21.6193 557.5 20.5 556.381 20.5 555V517C20.5 515.619 21.6193 514.5 23 514.5Z" fill="white" stroke="black"/>
<path d="M39.99 358.194C41.3153 358.194 42.3747 358.595 43.168 359.398C43.9707 360.191 44.372 361.26 44.372 362.604C44.372 363.939 43.9707 365.007 43.168 365.81C42.3747 366.603 41.3153 367 39.99 367H37.4V358.194H39.99ZM38.506 366.034H39.99C40.97 366.034 41.7493 365.712 42.328 365.068C42.9067 364.415 43.196 363.589 43.196 362.59C43.196 361.591 42.902 360.775 42.314 360.14C41.7353 359.496 40.9607 359.174 39.99 359.174H38.506V366.034ZM48.9799 366.258C49.9039 366.258 50.4312 365.852 50.5619 365.04H51.6959C51.5932 365.712 51.2945 366.235 50.7999 366.608C50.3145 366.972 49.7079 367.154 48.9799 367.154C48.0839 367.154 47.3559 366.837 46.7959 366.202C46.2359 365.558 45.9559 364.704 45.9559 363.64C45.9559 362.576 46.2359 361.727 46.7959 361.092C47.3652 360.457 48.1165 360.14 49.0499 360.14C49.9925 360.14 50.6925 360.504 51.1499 361.232C51.6165 361.96 51.7799 362.847 51.6399 363.892H47.0619C47.0619 364.583 47.2299 365.152 47.5659 365.6C47.9019 366.039 48.3732 366.258 48.9799 366.258ZM49.7919 361.19C49.5772 361.078 49.3159 361.022 49.0079 361.022C48.4385 361.022 47.9859 361.218 47.6499 361.61C47.3232 361.993 47.1319 362.473 47.0759 363.052H50.6459C50.6459 362.119 50.3612 361.498 49.7919 361.19ZM53.9589 360.308L55.9749 365.838L58.0049 360.308H59.2509L56.5909 367H55.3729L52.7129 360.308H53.9589Z" fill="black" fill-opacity="0.4"/>
<path d="M38.702 440.194L43.07 447.264V440.194H44.176V449H42.944L38.506 441.832V449H37.386V440.194H38.702ZM47.068 442.294H48.174V449H47.068V442.294ZM47.614 440.726C47.39 440.726 47.2127 440.665 47.082 440.544C46.9607 440.413 46.9 440.245 46.9 440.04C46.9 439.825 46.9607 439.657 47.082 439.536C47.2127 439.405 47.39 439.34 47.614 439.34C47.838 439.34 48.0153 439.405 48.146 439.536C48.286 439.657 48.356 439.825 48.356 440.04C48.356 440.245 48.286 440.413 48.146 440.544C48.0153 440.665 47.838 440.726 47.614 440.726ZM52.2456 443.596C52.6842 442.625 53.4356 442.14 54.4996 442.14C55.2929 442.14 55.9089 442.401 56.3476 442.924C56.7956 443.447 57.0196 444.161 57.0196 445.066V449H55.9276V445.066C55.9276 444.422 55.7736 443.937 55.4656 443.61C55.1669 443.283 54.7376 443.12 54.1776 443.12C53.6176 443.12 53.1649 443.349 52.8196 443.806C52.4742 444.263 52.2922 444.898 52.2736 445.71V449H51.1676V442.308H52.1196L52.2456 443.596ZM63.7611 444.66C63.7611 444.053 63.6351 443.619 63.3831 443.358C63.1311 443.097 62.7625 442.966 62.2771 442.966C61.8011 442.966 61.4138 443.064 61.1151 443.26C60.8258 443.447 60.6811 443.745 60.6811 444.156H59.4631C59.4631 443.129 60.0138 442.495 61.1151 442.252C61.4511 442.177 61.8151 442.14 62.2071 442.14C63.0378 442.14 63.6865 442.35 64.1531 442.77C64.6198 443.19 64.8531 443.829 64.8531 444.688V449H63.9011L63.7891 447.88C63.3785 448.729 62.6365 449.154 61.5631 449.154C60.8445 449.154 60.2658 448.953 59.8271 448.552C59.3978 448.151 59.1831 447.651 59.1831 447.054C59.1831 446.457 59.4211 445.99 59.8971 445.654C60.3825 445.318 60.9845 445.15 61.7031 445.15C62.4218 445.15 63.1078 445.271 63.7611 445.514V444.66ZM63.7611 446.214C63.0985 446.027 62.5198 445.934 62.0251 445.934C61.5305 445.934 61.1291 446.023 60.8211 446.2C60.5131 446.377 60.3591 446.657 60.3591 447.04C60.3591 447.88 60.8351 448.3 61.7871 448.3C62.3285 448.3 62.7905 448.109 63.1731 447.726C63.5651 447.334 63.7611 446.83 63.7611 446.214ZM71.8331 443.302V439.466H72.9251V449H72.0291L71.8891 447.88C71.6744 448.3 71.3898 448.617 71.0351 448.832C70.6804 449.047 70.2931 449.154 69.8731 449.154C69.0238 449.154 68.3098 448.827 67.7311 448.174C67.1618 447.521 66.8771 446.671 66.8771 445.626C66.8771 444.571 67.1571 443.727 67.7171 443.092C68.2864 442.457 69.0004 442.14 69.8591 442.14C70.7271 442.14 71.3851 442.527 71.8331 443.302ZM69.9291 443.12C69.3878 443.12 68.9304 443.349 68.5571 443.806C68.1931 444.263 68.0111 444.875 68.0111 445.64C68.0111 446.405 68.1978 447.021 68.5711 447.488C68.9444 447.945 69.3924 448.174 69.9151 448.174C70.4378 448.174 70.8811 448.001 71.2451 447.656C71.6184 447.301 71.8144 446.83 71.8331 446.242V445.15C71.8331 444.525 71.6511 444.03 71.2871 443.666C70.9231 443.302 70.4704 443.12 69.9291 443.12ZM78.0736 448.258C78.9976 448.258 79.5249 447.852 79.6556 447.04H80.7896C80.6869 447.712 80.3883 448.235 79.8936 448.608C79.4083 448.972 78.8016 449.154 78.0736 449.154C77.1776 449.154 76.4496 448.837 75.8896 448.202C75.3296 447.558 75.0496 446.704 75.0496 445.64C75.0496 444.576 75.3296 443.727 75.8896 443.092C76.4589 442.457 77.2103 442.14 78.1436 442.14C79.0863 442.14 79.7863 442.504 80.2436 443.232C80.7103 443.96 80.8736 444.847 80.7336 445.892H76.1556C76.1556 446.583 76.3236 447.152 76.6596 447.6C76.9956 448.039 77.4669 448.258 78.0736 448.258ZM78.8856 443.19C78.6709 443.078 78.4096 443.022 78.1016 443.022C77.5323 443.022 77.0796 443.218 76.7436 443.61C76.4169 443.993 76.2256 444.473 76.1696 445.052H79.7396C79.7396 444.119 79.4549 443.498 78.8856 443.19ZM83.0527 442.308L85.0687 447.838L87.0987 442.308H88.3447L85.6847 449H84.4667L81.8067 442.308H83.0527ZM96.6457 444.954C96.6457 444.17 96.3704 443.778 95.8197 443.778C95.269 443.778 94.7744 444.007 94.3357 444.464C93.897 444.912 93.6777 445.481 93.6777 446.172C93.6777 446.667 93.8037 447.049 94.0557 447.32C94.317 447.591 94.639 447.726 95.0217 447.726C95.4044 447.726 95.717 447.619 95.9597 447.404C96.2024 447.18 96.431 446.858 96.6457 446.438V444.954ZM97.5697 447.068C97.5697 447.544 97.7517 447.782 98.1157 447.782C98.3024 447.782 98.503 447.721 98.7177 447.6C98.9417 447.469 99.1424 447.283 99.3197 447.04C99.749 446.471 99.9637 445.743 99.9637 444.856C99.9637 443.745 99.5857 442.831 98.8297 442.112C98.0737 441.393 97.047 441.034 95.7497 441.034C94.9844 441.034 94.289 441.165 93.6637 441.426C93.0384 441.687 92.5064 442.037 92.0677 442.476C91.1344 443.409 90.6677 444.571 90.6677 445.962C90.6677 447.353 91.1624 448.477 92.1517 449.336C93.141 450.204 94.499 450.638 96.2257 450.638V451.534C94.2377 451.534 92.6184 450.997 91.3677 449.924C90.7797 449.42 90.327 448.823 90.0097 448.132C89.6924 447.432 89.5337 446.667 89.5337 445.836C89.5337 445.005 89.6877 444.235 89.9957 443.526C90.3037 442.817 90.733 442.205 91.2837 441.692C91.8344 441.169 92.4877 440.763 93.2437 440.474C94.009 440.185 94.8164 440.04 95.6657 440.04C96.515 440.04 97.271 440.166 97.9337 440.418C98.5964 440.67 99.161 441.015 99.6277 441.454C100.094 441.883 100.458 442.392 100.72 442.98C100.981 443.568 101.112 444.175 101.112 444.8C101.112 445.939 100.808 446.858 100.202 447.558C99.6044 448.258 98.9044 448.608 98.1017 448.608C97.7004 448.608 97.3784 448.524 97.1357 448.356C96.893 448.188 96.7484 447.945 96.7017 447.628L96.6597 447.404C96.4917 447.759 96.2677 448.048 95.9877 448.272C95.7077 448.496 95.381 448.608 95.0077 448.608C94.317 448.608 93.7477 448.379 93.2997 447.922C92.861 447.465 92.6417 446.886 92.6417 446.186C92.6417 445.262 92.9497 444.487 93.5657 443.862C94.1817 443.227 94.9144 442.91 95.7637 442.91C96.3237 442.91 96.7624 443.078 97.0797 443.414C97.4064 443.75 97.5697 444.259 97.5697 444.94V447.068ZM103.456 448.79C102.896 448.519 102.616 448.104 102.616 447.544C102.616 447.255 102.723 447.003 102.938 446.788C103.162 446.564 103.437 446.415 103.764 446.34C103.26 445.892 103.008 445.304 103.008 444.576C103.008 443.848 103.264 443.26 103.778 442.812C104.3 442.364 104.916 442.14 105.626 442.14C106.335 442.14 106.937 442.308 107.432 442.644C107.497 442.149 107.693 441.753 108.02 441.454C108.356 441.155 108.794 441.006 109.336 441.006L109.238 442.098C108.416 442.098 107.987 442.443 107.95 443.134C108.276 443.535 108.44 444.016 108.44 444.576C108.44 445.295 108.178 445.887 107.656 446.354C107.142 446.811 106.498 447.04 105.724 447.04C105.192 447.04 104.72 446.933 104.31 446.718C104.123 446.755 103.955 446.844 103.806 446.984C103.656 447.115 103.582 447.297 103.582 447.53C103.582 448.025 103.992 448.272 104.814 448.272H107.418C108.043 448.272 108.538 448.407 108.902 448.678C109.266 448.939 109.448 449.308 109.448 449.784C109.448 450.493 109.088 451.114 108.37 451.646C107.66 452.178 106.76 452.444 105.668 452.444C104.576 452.444 103.717 452.239 103.092 451.828C102.466 451.427 102.154 450.918 102.154 450.302C102.154 449.901 102.27 449.574 102.504 449.322C102.746 449.07 103.064 448.893 103.456 448.79ZM103.246 450.26C103.246 450.615 103.437 450.918 103.82 451.17C104.212 451.431 104.8 451.562 105.584 451.562C106.377 451.562 107.035 451.389 107.558 451.044C108.09 450.708 108.356 450.311 108.356 449.854C108.356 449.639 108.276 449.453 108.118 449.294C107.968 449.145 107.735 449.07 107.418 449.07H104.716C104.24 449.089 103.876 449.201 103.624 449.406C103.372 449.621 103.246 449.905 103.246 450.26ZM107.362 444.576C107.362 444.091 107.217 443.699 106.928 443.4C106.638 443.092 106.237 442.938 105.724 442.938C105.22 442.938 104.823 443.092 104.534 443.4C104.244 443.699 104.1 444.091 104.1 444.576C104.1 445.061 104.244 445.463 104.534 445.78C104.832 446.088 105.234 446.242 105.738 446.242C106.242 446.242 106.638 446.083 106.928 445.766C107.217 445.449 107.362 445.052 107.362 444.576ZM112.156 443.596C112.594 442.625 113.346 442.14 114.41 442.14C114.988 442.14 115.474 442.285 115.866 442.574C116.258 442.854 116.542 443.246 116.72 443.75C117.14 442.677 117.919 442.14 119.058 442.14C119.86 442.14 120.481 442.401 120.92 442.924C121.358 443.447 121.578 444.161 121.578 445.066V449H120.486V445.066C120.486 444.422 120.332 443.937 120.024 443.61C119.725 443.283 119.291 443.12 118.722 443.12C118.152 443.12 117.709 443.353 117.392 443.82C117.084 444.287 116.93 444.931 116.93 445.752V449H115.838V445.066C115.838 444.422 115.684 443.937 115.376 443.61C115.077 443.283 114.648 443.12 114.088 443.12C113.528 443.12 113.075 443.349 112.73 443.806C112.384 444.263 112.202 444.898 112.184 445.71V449H111.078V442.308H112.03L112.156 443.596ZM128.32 444.66C128.32 444.053 128.194 443.619 127.942 443.358C127.69 443.097 127.321 442.966 126.836 442.966C126.36 442.966 125.972 443.064 125.674 443.26C125.384 443.447 125.24 443.745 125.24 444.156H124.022C124.022 443.129 124.572 442.495 125.674 442.252C126.01 442.177 126.374 442.14 126.766 442.14C127.596 442.14 128.245 442.35 128.712 442.77C129.178 443.19 129.412 443.829 129.412 444.688V449H128.46L128.348 447.88C127.937 448.729 127.195 449.154 126.122 449.154C125.403 449.154 124.824 448.953 124.386 448.552C123.956 448.151 123.742 447.651 123.742 447.054C123.742 446.457 123.98 445.99 124.456 445.654C124.941 445.318 125.543 445.15 126.262 445.15C126.98 445.15 127.666 445.271 128.32 445.514V444.66ZM128.32 446.214C127.657 446.027 127.078 445.934 126.584 445.934C126.089 445.934 125.688 446.023 125.38 446.2C125.072 446.377 124.918 446.657 124.918 447.04C124.918 447.88 125.394 448.3 126.346 448.3C126.887 448.3 127.349 448.109 127.732 447.726C128.124 447.334 128.32 446.83 128.32 446.214ZM132.08 442.294H133.186V449H132.08V442.294ZM132.626 440.726C132.402 440.726 132.224 440.665 132.094 440.544C131.972 440.413 131.912 440.245 131.912 440.04C131.912 439.825 131.972 439.657 132.094 439.536C132.224 439.405 132.402 439.34 132.626 439.34C132.85 439.34 133.027 439.405 133.158 439.536C133.298 439.657 133.368 439.825 133.368 440.04C133.368 440.245 133.298 440.413 133.158 440.544C133.027 440.665 132.85 440.726 132.626 440.726ZM136.193 439.466H137.299V449H136.193V439.466ZM139.935 449.126C139.702 449.126 139.506 449.051 139.347 448.902C139.198 448.743 139.123 448.557 139.123 448.342C139.123 448.118 139.198 447.931 139.347 447.782C139.506 447.623 139.702 447.544 139.935 447.544C140.178 447.544 140.378 447.623 140.537 447.782C140.696 447.931 140.775 448.118 140.775 448.342C140.775 448.557 140.696 448.743 140.537 448.902C140.378 449.051 140.178 449.126 139.935 449.126ZM144.845 442.14C145.638 442.14 146.268 442.345 146.735 442.756C147.202 443.157 147.505 443.661 147.645 444.268L146.525 444.366C146.404 443.974 146.208 443.671 145.937 443.456C145.666 443.232 145.368 443.12 145.041 443.12C144.444 443.12 143.958 443.344 143.585 443.792C143.221 444.24 143.039 444.851 143.039 445.626C143.039 446.391 143.216 447.007 143.571 447.474C143.935 447.941 144.383 448.174 144.915 448.174C145.456 448.174 145.858 448.053 146.119 447.81C146.39 447.558 146.525 447.203 146.525 446.746H147.659C147.659 447.465 147.407 448.048 146.903 448.496C146.408 448.935 145.76 449.154 144.957 449.154C144.108 449.154 143.384 448.832 142.787 448.188C142.199 447.544 141.905 446.69 141.905 445.626C141.905 444.553 142.199 443.703 142.787 443.078C143.375 442.453 144.061 442.14 144.845 442.14ZM152.232 442.14C153.165 442.14 153.917 442.443 154.486 443.05C155.065 443.657 155.354 444.525 155.354 445.654C155.354 446.774 155.065 447.637 154.486 448.244C153.917 448.851 153.165 449.154 152.232 449.154C151.299 449.154 150.543 448.851 149.964 448.244C149.395 447.637 149.11 446.774 149.11 445.654C149.11 444.525 149.395 443.657 149.964 443.05C150.543 442.443 151.299 442.14 152.232 442.14ZM154.234 445.654C154.234 444.851 154.066 444.226 153.73 443.778C153.394 443.321 152.899 443.092 152.246 443.092C151.602 443.092 151.107 443.321 150.762 443.778C150.417 444.226 150.244 444.851 150.244 445.654C150.244 446.447 150.407 447.073 150.734 447.53C151.061 447.978 151.546 448.202 152.19 448.202C152.843 448.202 153.347 447.978 153.702 447.53C154.057 447.073 154.234 446.447 154.234 445.654ZM158.531 443.596C158.969 442.625 159.721 442.14 160.785 442.14C161.363 442.14 161.849 442.285 162.241 442.574C162.633 442.854 162.917 443.246 163.095 443.75C163.515 442.677 164.294 442.14 165.433 442.14C166.235 442.14 166.856 442.401 167.295 442.924C167.733 443.447 167.953 444.161 167.953 445.066V449H166.861V445.066C166.861 444.422 166.707 443.937 166.399 443.61C166.1 443.283 165.666 443.12 165.097 443.12C164.527 443.12 164.084 443.353 163.767 443.82C163.459 444.287 163.305 444.931 163.305 445.752V449H162.213V445.066C162.213 444.422 162.059 443.937 161.751 443.61C161.452 443.283 161.023 443.12 160.463 443.12C159.903 443.12 159.45 443.349 159.105 443.806C158.759 444.263 158.577 444.898 158.559 445.71V449H157.453V442.308H158.405L158.531 443.596Z" fill="black" fill-opacity="0.4"/>
<path d="M43.07 533.948C43.07 534.881 42.5567 535.53 41.53 535.894C42.09 536.053 42.5427 536.314 42.888 536.678C43.2333 537.042 43.406 537.509 43.406 538.078C43.406 538.853 43.112 539.478 42.524 539.954C41.936 540.421 41.1613 540.654 40.2 540.654C39.2387 540.654 38.4173 540.407 37.736 539.912C37.064 539.408 36.728 538.703 36.728 537.798H37.876C37.8947 538.395 38.114 538.853 38.534 539.17C38.9633 539.487 39.5047 539.646 40.158 539.646C40.8113 539.646 41.3153 539.492 41.67 539.184C42.034 538.867 42.216 538.479 42.216 538.022C42.216 537.555 42.0433 537.177 41.698 536.888C41.3527 536.589 40.7927 536.44 40.018 536.44H39.01V535.558H39.696C40.368 535.558 40.9 535.427 41.292 535.166C41.684 534.895 41.88 534.536 41.88 534.088C41.88 533.64 41.7213 533.271 41.404 532.982C41.0867 532.693 40.6667 532.548 40.144 532.548C39.6213 532.548 39.1827 532.641 38.828 532.828C38.4827 533.005 38.2493 533.341 38.128 533.836H36.98C37.0827 533.061 37.4047 532.487 37.946 532.114C38.4873 531.731 39.1827 531.54 40.032 531.54C40.8907 531.54 41.6093 531.769 42.188 532.226C42.776 532.674 43.07 533.248 43.07 533.948ZM48.4435 531.54C49.5075 531.54 50.3475 531.932 50.9635 532.716C51.5795 533.5 51.8875 534.629 51.8875 536.104C51.8875 537.569 51.5795 538.694 50.9635 539.478C50.3475 540.262 49.5075 540.654 48.4435 540.654C47.3795 540.654 46.5348 540.267 45.9095 539.492C45.2935 538.717 44.9855 537.588 44.9855 536.104C44.9855 534.611 45.2935 533.477 45.9095 532.702C46.5348 531.927 47.3795 531.54 48.4435 531.54ZM50.7395 536.104C50.7395 534.956 50.5435 534.079 50.1515 533.472C49.7595 532.856 49.1855 532.548 48.4295 532.548C47.6828 532.548 47.1135 532.856 46.7215 533.472C46.3295 534.079 46.1335 534.956 46.1335 536.104C46.1335 537.243 46.3295 538.12 46.7215 538.736C47.1135 539.343 47.6828 539.646 48.4295 539.646C49.1855 539.646 49.7595 539.343 50.1515 538.736C50.5435 538.12 50.7395 537.243 50.7395 536.104ZM58.562 537.644C58.562 536.533 57.8387 535.978 56.392 535.978H54.026L54.404 531.694H59.29V532.702H55.468L55.23 535.236C55.7153 535.152 56.1773 535.11 56.616 535.11C57.5773 535.11 58.3333 535.325 58.884 535.754C59.4347 536.174 59.71 536.813 59.71 537.672C59.71 538.531 59.4207 539.245 58.842 539.814C58.2633 540.374 57.5167 540.654 56.602 540.654C55.6873 540.654 54.9407 540.425 54.362 539.968C53.7833 539.501 53.494 538.862 53.494 538.05H54.6C54.6 538.815 54.992 539.315 55.776 539.548C56.0187 539.613 56.2847 539.646 56.574 539.646C57.1713 539.646 57.652 539.459 58.016 539.086C58.38 538.703 58.562 538.223 58.562 537.644ZM69.8139 537.644C69.8139 536.533 69.0906 535.978 67.6439 535.978H65.2779L65.6559 531.694H70.5419V532.702H66.7199L66.4819 535.236C66.9673 535.152 67.4293 535.11 67.8679 535.11C68.8293 535.11 69.5853 535.325 70.1359 535.754C70.6866 536.174 70.9619 536.813 70.9619 537.672C70.9619 538.531 70.6726 539.245 70.0939 539.814C69.5153 540.374 68.7686 540.654 67.8539 540.654C66.9393 540.654 66.1926 540.425 65.6139 539.968C65.0353 539.501 64.7459 538.862 64.7459 538.05H65.8519C65.8519 538.815 66.2439 539.315 67.0279 539.548C67.2706 539.613 67.5366 539.646 67.8259 539.646C68.4233 539.646 68.9039 539.459 69.2679 539.086C69.6319 538.703 69.8139 538.223 69.8139 537.644ZM77.73 537.644C77.73 536.533 77.0066 535.978 75.56 535.978H73.194L73.572 531.694H78.458V532.702H74.636L74.398 535.236C74.8833 535.152 75.3453 535.11 75.784 535.11C76.7453 535.11 77.5013 535.325 78.052 535.754C78.6026 536.174 78.878 536.813 78.878 537.672C78.878 538.531 78.5886 539.245 78.01 539.814C77.4313 540.374 76.6846 540.654 75.77 540.654C74.8553 540.654 74.1086 540.425 73.53 539.968C72.9513 539.501 72.662 538.862 72.662 538.05H73.768C73.768 538.815 74.16 539.315 74.944 539.548C75.1866 539.613 75.4526 539.646 75.742 539.646C76.3393 539.646 76.82 539.459 77.184 539.086C77.548 538.703 77.73 538.223 77.73 537.644ZM85.646 537.644C85.646 536.533 84.9226 535.978 83.476 535.978H81.11L81.488 531.694H86.374V532.702H82.552L82.314 535.236C82.7993 535.152 83.2613 535.11 83.7 535.11C84.6613 535.11 85.4173 535.325 85.968 535.754C86.5186 536.174 86.794 536.813 86.794 537.672C86.794 538.531 86.5046 539.245 85.926 539.814C85.3473 540.374 84.6006 540.654 83.686 540.654C82.7713 540.654 82.0246 540.425 81.446 539.968C80.8673 539.501 80.578 538.862 80.578 538.05H81.684C81.684 538.815 82.076 539.315 82.86 539.548C83.1026 539.613 83.3686 539.646 83.658 539.646C84.2553 539.646 84.736 539.459 85.1 539.086C85.464 538.703 85.646 538.223 85.646 537.644ZM93.7339 536.048C92.5673 535.516 91.9839 534.793 91.9839 533.878C91.9839 533.178 92.2733 532.613 92.8519 532.184C93.4306 531.755 94.1959 531.54 95.1479 531.54C96.1093 531.54 96.8979 531.769 97.5139 532.226C98.1299 532.683 98.4379 533.271 98.4379 533.99C98.4379 534.475 98.2746 534.909 97.9479 535.292C97.6306 535.675 97.1593 535.913 96.5339 536.006L96.7719 536.09C97.4159 536.333 97.9106 536.622 98.2559 536.958C98.6013 537.285 98.7739 537.733 98.7739 538.302C98.7739 539.011 98.4566 539.581 97.8219 540.01C97.1966 540.439 96.3473 540.654 95.2739 540.654C94.2099 540.654 93.3466 540.416 92.6839 539.94C92.0213 539.464 91.6899 538.867 91.6899 538.148C91.6899 537.569 91.8766 537.098 92.2499 536.734C92.6326 536.37 93.1273 536.141 93.7339 536.048ZM94.7839 536.454C94.1959 536.519 93.7246 536.706 93.3699 537.014C93.0153 537.313 92.8379 537.686 92.8379 538.134C92.8379 538.582 93.0619 538.946 93.5099 539.226C93.9579 539.506 94.5413 539.646 95.2599 539.646C95.9879 539.646 96.5619 539.525 96.9819 539.282C97.4113 539.039 97.6259 538.745 97.6259 538.4C97.6259 538.055 97.5139 537.779 97.2899 537.574C97.0659 537.359 96.7579 537.182 96.3659 537.042L94.7839 536.454ZM93.1459 534.018C93.1459 534.27 93.2486 534.489 93.4539 534.676C93.6593 534.853 93.9533 535.017 94.3359 535.166L95.3579 535.558C95.9179 535.539 96.3799 535.395 96.7439 535.124C97.1079 534.844 97.2899 534.485 97.2899 534.046C97.2899 533.598 97.0986 533.239 96.7159 532.968C96.3333 532.688 95.8386 532.548 95.2319 532.548C94.6253 532.548 94.1259 532.683 93.7339 532.954C93.3419 533.215 93.1459 533.57 93.1459 534.018ZM102.347 536.048C101.181 535.516 100.597 534.793 100.597 533.878C100.597 533.178 100.887 532.613 101.465 532.184C102.044 531.755 102.809 531.54 103.761 531.54C104.723 531.54 105.511 531.769 106.127 532.226C106.743 532.683 107.051 533.271 107.051 533.99C107.051 534.475 106.888 534.909 106.561 535.292C106.244 535.675 105.773 535.913 105.147 536.006L105.385 536.09C106.029 536.333 106.524 536.622 106.869 536.958C107.215 537.285 107.387 537.733 107.387 538.302C107.387 539.011 107.07 539.581 106.435 540.01C105.81 540.439 104.961 540.654 103.887 540.654C102.823 540.654 101.96 540.416 101.297 539.94C100.635 539.464 100.303 538.867 100.303 538.148C100.303 537.569 100.49 537.098 100.863 536.734C101.246 536.37 101.741 536.141 102.347 536.048ZM103.397 536.454C102.809 536.519 102.338 536.706 101.983 537.014C101.629 537.313 101.451 537.686 101.451 538.134C101.451 538.582 101.675 538.946 102.123 539.226C102.571 539.506 103.155 539.646 103.873 539.646C104.601 539.646 105.175 539.525 105.595 539.282C106.025 539.039 106.239 538.745 106.239 538.4C106.239 538.055 106.127 537.779 105.903 537.574C105.679 537.359 105.371 537.182 104.979 537.042L103.397 536.454ZM101.759 534.018C101.759 534.27 101.862 534.489 102.067 534.676C102.273 534.853 102.567 535.017 102.949 535.166L103.971 535.558C104.531 535.539 104.993 535.395 105.357 535.124C105.721 534.844 105.903 534.485 105.903 534.046C105.903 533.598 105.712 533.239 105.329 532.968C104.947 532.688 104.452 532.548 103.845 532.548C103.239 532.548 102.739 532.683 102.347 532.954C101.955 533.215 101.759 533.57 101.759 534.018ZM114.474 531.694V532.716L110.442 540.5H108.958L113.186 532.758H108.482V531.694H114.474ZM117.537 536.048C116.37 535.516 115.787 534.793 115.787 533.878C115.787 533.178 116.076 532.613 116.655 532.184C117.233 531.755 117.999 531.54 118.951 531.54C119.912 531.54 120.701 531.769 121.317 532.226C121.933 532.683 122.241 533.271 122.241 533.99C122.241 534.475 122.077 534.909 121.751 535.292C121.433 535.675 120.962 535.913 120.337 536.006L120.575 536.09C121.219 536.333 121.713 536.622 122.059 536.958C122.404 537.285 122.577 537.733 122.577 538.302C122.577 539.011 122.259 539.581 121.625 540.01C120.999 540.439 120.15 540.654 119.077 540.654C118.013 540.654 117.149 540.416 116.487 539.94C115.824 539.464 115.493 538.867 115.493 538.148C115.493 537.569 115.679 537.098 116.053 536.734C116.435 536.37 116.93 536.141 117.537 536.048ZM118.587 536.454C117.999 536.519 117.527 536.706 117.173 537.014C116.818 537.313 116.641 537.686 116.641 538.134C116.641 538.582 116.865 538.946 117.313 539.226C117.761 539.506 118.344 539.646 119.063 539.646C119.791 539.646 120.365 539.525 120.785 539.282C121.214 539.039 121.429 538.745 121.429 538.4C121.429 538.055 121.317 537.779 121.093 537.574C120.869 537.359 120.561 537.182 120.169 537.042L118.587 536.454ZM116.949 534.018C116.949 534.27 117.051 534.489 117.257 534.676C117.462 534.853 117.756 535.017 118.139 535.166L119.161 535.558C119.721 535.539 120.183 535.395 120.547 535.124C120.911 534.844 121.093 534.485 121.093 534.046C121.093 533.598 120.901 533.239 120.519 532.968C120.136 532.688 119.641 532.548 119.035 532.548C118.428 532.548 117.929 532.683 117.537 532.954C117.145 533.215 116.949 533.57 116.949 534.018Z" fill="black" fill-opacity="0.4"/>
<mask id="path-16-inside-1" fill="white">
<path fill-rule="evenodd" clip-rule="evenodd" d="M119.575 16L122.216 30.2474C123.773 30.5625 125.251 31.0959 126.617 31.8143L137.235 21.7382L130.891 35.0399C131.928 36.1247 132.819 37.3502 133.533 38.6848L148.15 36.761L135.258 43.7612C135.326 44.1693 135.378 44.5824 135.416 45L299.999 45V47L135.474 47C135.459 47.4692 135.426 47.9336 135.373 48.3922L148.15 55.3301L133.947 53.4608C133.234 54.9941 132.294 56.4002 131.17 57.6356L137.235 70.3529L127.205 60.8351C125.631 61.7468 123.893 62.4069 122.046 62.7605L119.575 76.0911L117.141 62.9629C115.118 62.7479 113.203 62.1686 111.464 61.2919L101.915 70.3529L107.547 58.544C106.066 57.1479 104.843 55.482 103.955 53.625L91 55.3301L102.542 49.0628C102.411 48.2235 102.343 47.3633 102.343 46.4872C102.343 45.329 102.462 44.1986 102.688 43.1075L91 36.761L104.38 38.5219C105.282 36.8785 106.456 35.4048 107.839 34.1608L101.915 21.7382L112.083 31.3865C113.604 30.6972 115.249 30.2311 116.974 30.0301L119.575 16Z"/>
</mask>
<path fill-rule="evenodd" clip-rule="evenodd" d="M119.575 16L122.216 30.2474C123.773 30.5625 125.251 31.0959 126.617 31.8143L137.235 21.7382L130.891 35.0399C131.928 36.1247 132.819 37.3502 133.533 38.6848L148.15 36.761L135.258 43.7612C135.326 44.1693 135.378 44.5824 135.416 45L299.999 45V47L135.474 47C135.459 47.4692 135.426 47.9336 135.373 48.3922L148.15 55.3301L133.947 53.4608C133.234 54.9941 132.294 56.4002 131.17 57.6356L137.235 70.3529L127.205 60.8351C125.631 61.7468 123.893 62.4069 122.046 62.7605L119.575 76.0911L117.141 62.9629C115.118 62.7479 113.203 62.1686 111.464 61.2919L101.915 70.3529L107.547 58.544C106.066 57.1479 104.843 55.482 103.955 53.625L91 55.3301L102.542 49.0628C102.411 48.2235 102.343 47.3633 102.343 46.4872C102.343 45.329 102.462 44.1986 102.688 43.1075L91 36.761L104.38 38.5219C105.282 36.8785 106.456 35.4048 107.839 34.1608L101.915 21.7382L112.083 31.3865C113.604 30.6972 115.249 30.2311 116.974 30.0301L119.575 16Z" fill="#DFBC60"/>
<path d="M122.216 30.2474L121.233 30.4297L121.356 31.0936L122.018 31.2275L122.216 30.2474ZM119.575 16L120.558 15.8177L118.592 15.8177L119.575 16ZM126.617 31.8143L126.151 32.6993L126.785 33.033L127.305 32.5397L126.617 31.8143ZM137.235 21.7382L138.138 22.1687L136.547 21.0128L137.235 21.7382ZM130.891 35.0399L129.989 34.6094L129.692 35.2322L130.168 35.7309L130.891 35.0399ZM133.533 38.6848L132.651 39.1564L132.978 39.7665L133.664 39.6762L133.533 38.6848ZM148.15 36.761L148.627 37.6398L148.02 35.7695L148.15 36.761ZM135.258 43.7612L134.781 42.8824L134.155 43.2221L134.272 43.9245L135.258 43.7612ZM135.416 45L134.42 45.0886L134.501 46H135.416V45ZM299.999 45H300.999V44H299.999V45ZM299.999 47V48H300.999V47H299.999ZM135.474 47V46H134.504L134.474 46.9696L135.474 47ZM135.373 48.3922L134.38 48.2785L134.303 48.949L134.896 49.271L135.373 48.3922ZM148.15 55.3301L148.02 56.3216L148.627 54.4513L148.15 55.3301ZM133.947 53.4608L134.077 52.4693L133.349 52.3735L133.04 53.0394L133.947 53.4608ZM131.17 57.6356L130.43 56.9626L129.978 57.4596L130.267 58.0661L131.17 57.6356ZM137.235 70.3529L136.547 71.0783L138.138 69.9224L137.235 70.3529ZM127.205 60.8351L127.893 60.1097L127.351 59.5949L126.704 59.9697L127.205 60.8351ZM122.046 62.7605L121.858 61.7783L121.187 61.9067L121.063 62.5782L122.046 62.7605ZM119.575 76.0911L118.592 76.2734H120.558L119.575 76.0911ZM117.141 62.9629L118.125 62.7807L117.989 62.0473L117.247 61.9685L117.141 62.9629ZM111.464 61.2919L111.914 60.3989L111.286 60.0823L110.775 60.5665L111.464 61.2919ZM101.915 70.3529L101.012 69.9224L102.603 71.0783L101.915 70.3529ZM107.547 58.544L108.449 58.9745L108.763 58.3166L108.233 57.8165L107.547 58.544ZM103.955 53.625L104.857 53.1937L104.544 52.5389L103.824 52.6336L103.955 53.625ZM91 55.3301L90.5228 54.4513L91.1305 56.3216L91 55.3301ZM102.542 49.0628L103.019 49.9416L103.639 49.6052L103.53 48.9086L102.542 49.0628ZM102.688 43.1075L103.667 43.3104L103.818 42.5831L103.165 42.2287L102.688 43.1075ZM91 36.761L91.1305 35.7695L90.5228 37.6398L91 36.761ZM104.38 38.5219L104.249 39.5134L104.927 39.6026L105.256 39.0034L104.38 38.5219ZM107.839 34.1608L108.508 34.9046L109.064 34.4049L108.742 33.7304L107.839 34.1608ZM101.915 21.7382L102.603 21.0128L101.012 22.1687L101.915 21.7382ZM112.083 31.3865L111.394 32.1119L111.882 32.575L112.495 32.2974L112.083 31.3865ZM116.974 30.0301L117.09 31.0234L117.823 30.938L117.957 30.2124L116.974 30.0301ZM123.199 30.0651L120.558 15.8177L118.592 16.1823L121.233 30.4297L123.199 30.0651ZM127.082 30.9293C125.634 30.1674 124.066 29.6015 122.414 29.2673L122.018 31.2275C123.48 31.5235 124.868 32.0244 126.151 32.6993L127.082 30.9293ZM136.547 21.0128L125.928 31.0889L127.305 32.5397L137.924 22.4636L136.547 21.0128ZM131.794 35.4704L138.138 22.1687L136.333 21.3077L129.989 34.6094L131.794 35.4704ZM134.415 38.2132C133.658 36.7979 132.713 35.4988 131.614 34.3489L130.168 35.7309C131.143 36.7507 131.981 37.9025 132.651 39.1564L134.415 38.2132ZM148.02 35.7695L133.403 37.6933L133.664 39.6762L148.281 37.7524L148.02 35.7695ZM135.735 44.64L148.627 37.6398L147.673 35.8822L134.781 42.8824L135.735 44.64ZM136.412 44.9114C136.372 44.4687 136.316 44.0307 136.245 43.5979L134.272 43.9245C134.335 44.3079 134.385 44.6961 134.42 45.0886L136.412 44.9114ZM135.416 46L299.999 46V44L135.416 44V46ZM298.999 45V47H300.999V45H298.999ZM299.999 46L135.474 46V48L299.999 48V46ZM136.367 48.506C136.422 48.0197 136.458 47.5275 136.473 47.0304L134.474 46.9696C134.461 47.411 134.429 47.8475 134.38 48.2785L136.367 48.506ZM148.627 54.4513L135.85 47.5134L134.896 49.271L147.673 56.2089L148.627 54.4513ZM133.816 54.4522L148.02 56.3216L148.281 54.3387L134.077 52.4693L133.816 54.4522ZM131.91 58.3087C133.101 56.9992 134.098 55.5084 134.854 53.8821L133.04 53.0394C132.371 54.4797 131.487 55.8012 130.43 56.9626L131.91 58.3087ZM138.138 69.9224L132.073 57.2052L130.267 58.0661L136.333 70.7834L138.138 69.9224ZM126.517 61.5605L136.547 71.0783L137.924 69.6275L127.893 60.1097L126.517 61.5605ZM122.234 63.7426C124.193 63.3676 126.037 62.6673 127.706 61.7004L126.704 59.9697C125.225 60.8263 123.593 61.4463 121.858 61.7783L122.234 63.7426ZM120.558 76.2734L123.029 62.9427L121.063 62.5782L118.592 75.9088L120.558 76.2734ZM116.158 63.1452L118.592 76.2734L120.558 75.9088L118.125 62.7807L116.158 63.1452ZM111.014 62.1848C112.858 63.1148 114.89 63.7293 117.036 63.9573L117.247 61.9685C115.346 61.7665 113.547 61.2224 111.914 60.3989L111.014 62.1848ZM102.603 71.0783L112.152 62.0173L110.775 60.5665L101.226 69.6275L102.603 71.0783ZM106.644 58.1136L101.012 69.9224L102.817 70.7834L108.449 58.9745L106.644 58.1136ZM103.053 54.0564C103.994 56.0259 105.291 57.7918 106.861 59.2716L108.233 57.8165C106.841 56.5039 105.691 54.9382 104.857 53.1937L103.053 54.0564ZM91.1305 56.3216L104.085 54.6165L103.824 52.6336L90.8695 54.3387L91.1305 56.3216ZM102.065 48.184L90.5228 54.4513L91.4772 56.2089L103.019 49.9416L102.065 48.184ZM101.343 46.4872C101.343 47.4151 101.415 48.3269 101.554 49.217L103.53 48.9086C103.407 48.1201 103.343 47.3115 103.343 46.4872H101.343ZM101.709 42.9046C101.469 44.0621 101.343 45.2605 101.343 46.4872H103.343C103.343 45.3976 103.455 44.3352 103.667 43.3104L101.709 42.9046ZM90.5228 37.6398L102.211 43.9863L103.165 42.2287L91.4772 35.8822L90.5228 37.6398ZM104.51 37.5305L91.1305 35.7695L90.8695 37.7524L104.249 39.5134L104.51 37.5305ZM107.171 33.4171C105.704 34.7357 104.46 36.2978 103.503 38.0405L105.256 39.0034C106.104 37.4593 107.207 36.074 108.508 34.9046L107.171 33.4171ZM101.012 22.1687L106.937 34.5913L108.742 33.7304L102.817 21.3077L101.012 22.1687ZM112.771 30.6611L102.603 21.0128L101.226 22.4636L111.394 32.1119L112.771 30.6611ZM116.858 29.0368C115.029 29.25 113.284 29.7443 111.67 30.4756L112.495 32.2974C113.924 31.65 115.469 31.2122 117.09 31.0234L116.858 29.0368ZM118.592 15.8177L115.991 29.8478L117.957 30.2124L120.558 16.1823L118.592 15.8177Z" fill="white" mask="url(#path-16-inside-1)"/>
<path d="M297.075 21.6698L302.419 38.1195L302.532 38.465H302.895H320.191L306.198 48.6314L305.904 48.845L306.017 49.1905L311.361 65.6402L297.369 55.4737L297.075 55.2602L296.781 55.4737L282.788 65.6402L288.133 49.1905L288.245 48.845L287.951 48.6314L273.958 38.465H291.254H291.618L291.73 38.1195L297.075 21.6698Z" fill="white" stroke="white"/>
<mask id="path-19-inside-2" fill="white">
<path fill-rule="evenodd" clip-rule="evenodd" d="M194.648 67.2591C203.107 64.401 209.197 56.3999 209.197 46.9765C209.197 37.5532 203.107 29.5521 194.648 26.694C196.801 25.9667 199.106 25.5724 201.504 25.5724C213.325 25.5724 222.908 35.1554 222.908 46.9765C222.908 58.7977 213.325 68.3807 201.504 68.3807C199.106 68.3807 196.801 67.9864 194.648 67.2591Z"/>
</mask>
<path fill-rule="evenodd" clip-rule="evenodd" d="M194.648 67.2591C203.107 64.401 209.197 56.3999 209.197 46.9765C209.197 37.5532 203.107 29.5521 194.648 26.694C196.801 25.9667 199.106 25.5724 201.504 25.5724C213.325 25.5724 222.908 35.1554 222.908 46.9765C222.908 58.7977 213.325 68.3807 201.504 68.3807C199.106 68.3807 196.801 67.9864 194.648 67.2591Z" fill="white"/>
<path d="M194.648 67.2591L194.328 66.3117L191.525 67.2591L194.328 68.2065L194.648 67.2591ZM194.648 26.694L194.328 25.7466L191.525 26.694L194.328 27.6414L194.648 26.694ZM208.197 46.9765C208.197 55.9581 202.393 63.5867 194.328 66.3117L194.969 68.2065C203.821 65.2152 210.197 56.8417 210.197 46.9765H208.197ZM194.328 27.6414C202.393 30.3664 208.197 37.995 208.197 46.9765H210.197C210.197 37.1114 203.821 28.7379 194.969 25.7466L194.328 27.6414ZM194.969 27.6414C197.019 26.9485 199.217 26.5724 201.504 26.5724V24.5724C198.996 24.5724 196.582 24.9849 194.328 25.7466L194.969 27.6414ZM201.504 26.5724C212.773 26.5724 221.908 35.7077 221.908 46.9765H223.908C223.908 34.6031 213.878 24.5724 201.504 24.5724V26.5724ZM221.908 46.9765C221.908 58.2454 212.773 67.3807 201.504 67.3807V69.3807C213.878 69.3807 223.908 59.35 223.908 46.9765H221.908ZM201.504 67.3807C199.217 67.3807 197.019 67.0046 194.969 66.3117L194.328 68.2065C196.582 68.9682 198.996 69.3807 201.504 69.3807V67.3807Z" fill="white" mask="url(#path-19-inside-2)"/>
<path d="M117.686 42.88C118.311 42.796 118.857 42.558 119.324 42.166H120.22V51H119.128V43.482C118.661 43.7807 118.181 43.944 117.686 43.972V42.88Z" fill="#181827"/>
<path d="M213 48.978H218.11V50H211.894V48.698C211.894 47.662 212.286 46.9013 213.07 46.416C213.322 46.2573 213.602 46.1173 213.91 45.996L215.646 45.296C216.542 44.9413 216.99 44.358 216.99 43.546C216.99 43.098 216.836 42.734 216.528 42.454C216.22 42.1647 215.786 42.02 215.226 42.02C214.675 42.02 214.223 42.1367 213.868 42.37C213.523 42.6033 213.322 42.9533 213.266 43.42H212.048C212.095 42.6547 212.403 42.0667 212.972 41.656C213.541 41.2453 214.269 41.04 215.156 41.04C216.052 41.04 216.78 41.2827 217.34 41.768C217.9 42.2533 218.18 42.8553 218.18 43.574C218.18 44.2833 217.993 44.848 217.62 45.268C217.256 45.688 216.752 46.024 216.108 46.276L214.33 46.99C213.882 47.1767 213.546 47.3913 213.322 47.634C213.107 47.8673 213 48.1753 213 48.558V48.978Z" fill="#181827"/>
<path d="M300.068 43.448C300.068 44.3813 299.555 45.03 298.528 45.394C299.088 45.5527 299.541 45.814 299.886 46.178C300.231 46.542 300.404 47.0087 300.404 47.578C300.404 48.3527 300.11 48.978 299.522 49.454C298.934 49.9207 298.159 50.154 297.198 50.154C296.237 50.154 295.415 49.9067 294.734 49.412C294.062 48.908 293.726 48.2033 293.726 47.298H294.874C294.893 47.8953 295.112 48.3527 295.532 48.67C295.961 48.9873 296.503 49.146 297.156 49.146C297.809 49.146 298.313 48.992 298.668 48.684C299.032 48.3667 299.214 47.9793 299.214 47.522C299.214 47.0553 299.041 46.6773 298.696 46.388C298.351 46.0893 297.791 45.94 297.016 45.94H296.008V45.058H296.694C297.366 45.058 297.898 44.9273 298.29 44.666C298.682 44.3953 298.878 44.036 298.878 43.588C298.878 43.14 298.719 42.7713 298.402 42.482C298.085 42.1927 297.665 42.048 297.142 42.048C296.619 42.048 296.181 42.1413 295.826 42.328C295.481 42.5053 295.247 42.8413 295.126 43.336H293.978C294.081 42.5613 294.403 41.9873 294.944 41.614C295.485 41.2313 296.181 41.04 297.03 41.04C297.889 41.04 298.607 41.2687 299.186 41.726C299.774 42.174 300.068 42.748 300.068 43.448Z" fill="#181827"/>
<path d="M27.344 113.784L22.16 117.51L27.344 121.182L26.408 122.28L20.72 118.122V116.88L26.408 112.704L27.344 113.784ZM29.9918 111.678H34.2218C35.4098 111.678 36.3218 111.96 36.9578 112.524C37.6058 113.088 37.9298 113.796 37.9298 114.648C37.9298 115.296 37.7498 115.86 37.3898 116.34C37.0418 116.82 36.5078 117.144 35.7878 117.312C36.4958 117.432 37.0598 117.738 37.4798 118.23C37.9118 118.722 38.1278 119.28 38.1278 119.904C38.1278 121.296 37.4498 122.238 36.0938 122.73C35.5898 122.91 34.9718 123 34.2398 123H29.9918V111.678ZM34.2038 121.758C35.0678 121.758 35.6858 121.584 36.0578 121.236C36.4298 120.888 36.6158 120.426 36.6158 119.85C36.6158 119.274 36.4118 118.818 36.0038 118.482C35.5958 118.134 34.9958 117.96 34.2038 117.96H31.4138V121.758H34.2038ZM31.4138 116.736H34.1858C34.8818 116.736 35.4338 116.568 35.8418 116.232C36.2618 115.884 36.4718 115.41 36.4718 114.81C36.4718 114.21 36.2678 113.742 35.8598 113.406C35.4638 113.07 34.9058 112.902 34.1858 112.902H31.4138V116.736ZM46.5171 117.42C46.5171 116.64 46.3551 116.082 46.0311 115.746C45.7071 115.41 45.2331 115.242 44.6091 115.242C43.9971 115.242 43.4991 115.368 43.1151 115.62C42.7431 115.86 42.5571 116.244 42.5571 116.772H40.9911C40.9911 115.452 41.6991 114.636 43.1151 114.324C43.5471 114.228 44.0151 114.18 44.5191 114.18C45.5871 114.18 46.4211 114.45 47.0211 114.99C47.6211 115.53 47.9211 116.352 47.9211 117.456V123H46.6971L46.5531 121.56C46.0251 122.652 45.0711 123.198 43.6911 123.198C42.7671 123.198 42.0231 122.94 41.4591 122.424C40.9071 121.908 40.6311 121.266 40.6311 120.498C40.6311 119.73 40.9371 119.13 41.5491 118.698C42.1731 118.266 42.9471 118.05 43.8711 118.05C44.7951 118.05 45.6771 118.206 46.5171 118.518V117.42ZM46.5171 119.418C45.6651 119.178 44.9211 119.058 44.2851 119.058C43.6491 119.058 43.1331 119.172 42.7371 119.4C42.3411 119.628 42.1431 119.988 42.1431 120.48C42.1431 121.56 42.7551 122.1 43.9791 122.1C44.6751 122.1 45.2691 121.854 45.7611 121.362C46.2651 120.858 46.5171 120.21 46.5171 119.418ZM54.1234 114.18C55.1434 114.18 55.9534 114.444 56.5534 114.972C57.1534 115.488 57.5434 116.136 57.7234 116.916L56.2834 117.042C56.1274 116.538 55.8754 116.148 55.5274 115.872C55.1794 115.584 54.7954 115.44 54.3754 115.44C53.6074 115.44 52.9834 115.728 52.5034 116.304C52.0354 116.88 51.8014 117.666 51.8014 118.662C51.8014 119.646 52.0294 120.438 52.4854 121.038C52.9534 121.638 53.5294 121.938 54.2134 121.938C54.9094 121.938 55.4254 121.782 55.7614 121.47C56.1094 121.146 56.2834 120.69 56.2834 120.102H57.7414C57.7414 121.026 57.4174 121.776 56.7694 122.352C56.1334 122.916 55.2994 123.198 54.2674 123.198C53.1754 123.198 52.2454 122.784 51.4774 121.956C50.7214 121.128 50.3434 120.03 50.3434 118.662C50.3434 117.282 50.7214 116.19 51.4774 115.386C52.2334 114.582 53.1154 114.18 54.1234 114.18ZM63.099 118.446L61.947 119.382V123H60.525V110.742H61.947V117.87L66.105 114.396H68.085L64.125 117.618L68.283 123H66.537L63.099 118.446Z" fill="white"/>
<path d="M20 124.8H68.859V125.7H20V124.8Z" fill="white"/>
<rect x="14.5" y="598.5" width="373" height="43" rx="19.5" fill="#DFBC60" stroke="#181827"/>
<path d="M172.61 612.424H182.642V614.872H175.442V618.976H182.186V621.424H175.442V625.528H182.642V628H172.61V612.424ZM189.481 618.352C190.249 616.8 191.481 616.024 193.177 616.024C194.617 616.024 195.697 616.496 196.417 617.44C197.153 618.384 197.521 619.632 197.521 621.184V628H194.689V621.184C194.689 620.32 194.481 619.672 194.065 619.24C193.649 618.792 193.065 618.568 192.313 618.568C191.561 618.568 190.913 618.904 190.369 619.576C189.841 620.248 189.561 621.256 189.529 622.6V628H186.697V616.336H189.169L189.481 618.352ZM208.226 627.712C207.17 628.128 206.338 628.336 205.73 628.336C205.122 628.336 204.586 628.264 204.122 628.12C203.674 627.976 203.274 627.76 202.922 627.472C202.186 626.816 201.818 625.912 201.818 624.76V618.232H200.186V616.336H201.818V613.264H204.65V616.336H207.818V618.232H204.65V624.664C204.65 625.624 205.106 626.104 206.018 626.104C206.482 626.104 207.082 625.976 207.818 625.72L208.226 627.712ZM219.255 617.728C219.655 618.24 219.951 618.832 220.143 619.504C220.351 620.176 220.455 620.792 220.455 621.352C220.455 621.912 220.423 622.416 220.359 622.864H212.823C212.855 623.808 213.087 624.576 213.519 625.168C213.951 625.76 214.607 626.056 215.487 626.056C216.655 626.056 217.351 625.544 217.575 624.52H220.431C220.239 625.688 219.703 626.608 218.823 627.28C217.911 627.984 216.799 628.336 215.487 628.336C213.951 628.336 212.663 627.776 211.623 626.656C210.551 625.488 210.015 623.992 210.015 622.168C210.015 620.296 210.551 618.792 211.623 617.656C212.647 616.568 213.935 616.024 215.487 616.024C217.103 616.024 218.359 616.592 219.255 617.728ZM215.511 618.28C214.711 618.28 214.087 618.544 213.639 619.072C213.191 619.584 212.927 620.248 212.847 621.064H217.815C217.815 619.8 217.415 618.952 216.615 618.52C216.311 618.36 215.943 618.28 215.511 618.28ZM226.677 618.64C227.381 616.96 228.437 616.12 229.845 616.12C230.117 616.12 230.461 616.176 230.877 616.288L230.829 619.12C230.381 619.024 229.941 618.976 229.509 618.976C227.621 618.976 226.677 620.28 226.677 622.888V628H223.845V616.312H226.677V618.64Z" fill="#181827"/>
</g>
<defs>
<clipPath id="clip0">
<rect width="414" height="734" fill="white"/>
</clipPath>
</defs>
</svg>
