<svg width="414" height="734" viewBox="0 0 414 734" fill="none" xmlns="http://www.w3.org/2000/svg">
<g clip-path="url(#clip0)">
<rect width="414" height="734" fill="white"/>
<path d="M-1 0H413V734H-1V0Z" fill="#0C1228"/>
<path d="M391 253H23C21.3431 253 20 254.343 20 256V294C20 295.657 21.3432 297 23 297H391C392.657 297 394 295.657 394 294V256C394 254.343 392.657 253 391 253Z" fill="white"/>
<path d="M391 340H23C21.3431 340 20 341.343 20 343V381C20 382.657 21.3432 384 23 384H391C392.657 384 394 382.657 394 381V343C394 341.343 392.657 340 391 340Z" fill="white"/>
<path d="M391 427H23C21.3431 427 20 428.343 20 430V468C20 469.657 21.3432 471 23 471H391C392.657 471 394 469.657 394 468V430C394 428.343 392.657 427 391 427Z" fill="white"/>
<path d="M189 514H23C21.3431 514 20 515.343 20 517V555C20 556.657 21.3431 558 23 558H189C190.657 558 192 556.657 192 555V517C192 515.343 190.657 514 189 514Z" fill="white"/>
<path d="M389 514H223C221.343 514 220 515.343 220 517V555C220 556.657 221.343 558 223 558H389C390.657 558 392 556.657 392 555V517C392 515.343 390.657 514 389 514Z" fill="white"/>
<path d="M22.904 229.452H24.056L26.588 237H25.604L24.956 235.08H21.956L21.308 237H20.312L22.904 229.452ZM22.208 234.336H24.716L23.468 230.616L22.208 234.336ZM31.8703 232.116V228.828H32.8063V237H32.0383L31.9183 236.04C31.7343 236.4 31.4903 236.672 31.1863 236.856C30.8823 237.04 30.5503 237.132 30.1903 237.132C29.4623 237.132 28.8503 236.852 28.3543 236.292C27.8663 235.732 27.6223 235.004 27.6223 234.108C27.6223 233.204 27.8623 232.48 28.3423 231.936C28.8303 231.392 29.4423 231.12 30.1783 231.12C30.9223 231.12 31.4863 231.452 31.8703 232.116ZM30.2383 231.96C29.7743 231.96 29.3823 232.156 29.0623 232.548C28.7503 232.94 28.5943 233.464 28.5943 234.12C28.5943 234.776 28.7543 235.304 29.0743 235.704C29.3943 236.096 29.7783 236.292 30.2263 236.292C30.6743 236.292 31.0543 236.144 31.3663 235.848C31.6863 235.544 31.8543 235.14 31.8703 234.636V233.7C31.8703 233.164 31.7143 232.74 31.4023 232.428C31.0903 232.116 30.7023 231.96 30.2383 231.96ZM38.9953 232.116V228.828H39.9313V237H39.1633L39.0433 236.04C38.8593 236.4 38.6153 236.672 38.3113 236.856C38.0073 237.04 37.6753 237.132 37.3153 237.132C36.5873 237.132 35.9753 236.852 35.4793 236.292C34.9913 235.732 34.7473 235.004 34.7473 234.108C34.7473 233.204 34.9873 232.48 35.4673 231.936C35.9553 231.392 36.5673 231.12 37.3033 231.12C38.0473 231.12 38.6113 231.452 38.9953 232.116ZM37.3633 231.96C36.8993 231.96 36.5073 232.156 36.1873 232.548C35.8753 232.94 35.7193 233.464 35.7193 234.12C35.7193 234.776 35.8793 235.304 36.1993 235.704C36.5193 236.096 36.9033 236.292 37.3513 236.292C37.7993 236.292 38.1793 236.144 38.4913 235.848C38.8113 235.544 38.9793 235.14 38.9953 234.636V233.7C38.9953 233.164 38.8393 232.74 38.5273 232.428C38.2153 232.116 37.8273 231.96 37.3633 231.96ZM44.7043 232.068C43.8003 232.068 43.3323 232.78 43.3003 234.204V237H42.3523V231.252H43.3003V232.356C43.5883 231.556 44.0963 231.156 44.8243 231.156C45.0563 231.156 45.2763 231.192 45.4843 231.264L45.4363 232.188C45.1963 232.108 44.9523 232.068 44.7043 232.068ZM48.9147 236.364C49.7067 236.364 50.1587 236.016 50.2707 235.32H51.2427C51.1547 235.896 50.8987 236.344 50.4747 236.664C50.0587 236.976 49.5387 237.132 48.9147 237.132C48.1467 237.132 47.5227 236.86 47.0427 236.316C46.5627 235.764 46.3227 235.032 46.3227 234.12C46.3227 233.208 46.5627 232.48 47.0427 231.936C47.5307 231.392 48.1747 231.12 48.9747 231.12C49.7827 231.12 50.3827 231.432 50.7747 232.056C51.1747 232.68 51.3147 233.44 51.1947 234.336H47.2707C47.2707 234.928 47.4147 235.416 47.7027 235.8C47.9907 236.176 48.3947 236.364 48.9147 236.364ZM49.6107 232.02C49.4267 231.924 49.2027 231.876 48.9387 231.876C48.4507 231.876 48.0627 232.044 47.7747 232.38C47.4947 232.708 47.3307 233.12 47.2827 233.616H50.3427C50.3427 232.816 50.0987 232.284 49.6107 232.02ZM52.8104 232.668C52.8104 232.196 53.0104 231.82 53.4104 231.54C53.8184 231.26 54.3664 231.12 55.0544 231.12C55.7424 231.12 56.2784 231.264 56.6624 231.552C57.0544 231.84 57.2584 232.204 57.2744 232.644H56.3504C56.2784 232.124 55.8384 231.864 55.0304 231.864C54.6384 231.864 54.3344 231.952 54.1184 232.128C53.9104 232.304 53.8064 232.496 53.8064 232.704C53.8064 232.904 53.8864 233.076 54.0464 233.22C54.2064 233.356 54.4624 233.476 54.8144 233.58L55.9664 233.964C56.4544 234.116 56.8264 234.312 57.0824 234.552C57.3464 234.784 57.4784 235.108 57.4784 235.524C57.4784 235.932 57.2664 236.304 56.8424 236.64C56.4184 236.968 55.8264 237.132 55.0664 237.132C54.3064 237.132 53.7144 236.964 53.2904 236.628C52.8664 236.284 52.6424 235.844 52.6184 235.308H53.5304C53.5464 235.668 53.6904 235.94 53.9624 236.124C54.2424 236.3 54.5904 236.388 55.0064 236.388C55.4224 236.388 55.7664 236.3 56.0384 236.124C56.3104 235.948 56.4464 235.74 56.4464 235.5C56.4464 235.252 56.3664 235.064 56.2064 234.936C56.0464 234.808 55.7864 234.696 55.4264 234.6L54.3104 234.228C53.3104 233.932 52.8104 233.412 52.8104 232.668ZM59.1268 232.668C59.1268 232.196 59.3268 231.82 59.7268 231.54C60.1348 231.26 60.6828 231.12 61.3708 231.12C62.0588 231.12 62.5948 231.264 62.9788 231.552C63.3708 231.84 63.5748 232.204 63.5908 232.644H62.6668C62.5948 232.124 62.1548 231.864 61.3468 231.864C60.9548 231.864 60.6508 231.952 60.4348 232.128C60.2268 232.304 60.1228 232.496 60.1228 232.704C60.1228 232.904 60.2028 233.076 60.3628 233.22C60.5228 233.356 60.7788 233.476 61.1308 233.58L62.2828 233.964C62.7708 234.116 63.1428 234.312 63.3988 234.552C63.6628 234.784 63.7948 235.108 63.7948 235.524C63.7948 235.932 63.5828 236.304 63.1588 236.64C62.7348 236.968 62.1428 237.132 61.3828 237.132C60.6228 237.132 60.0308 236.964 59.6068 236.628C59.1828 236.284 58.9588 235.844 58.9348 235.308H59.8468C59.8628 235.668 60.0068 235.94 60.2788 236.124C60.5588 236.3 60.9068 236.388 61.3228 236.388C61.7388 236.388 62.0828 236.3 62.3548 236.124C62.6268 235.948 62.7628 235.74 62.7628 235.5C62.7628 235.252 62.6828 235.064 62.5228 234.936C62.3628 234.808 62.1028 234.696 61.7428 234.6L60.6268 234.228C59.6268 233.932 59.1268 233.412 59.1268 232.668ZM67.9786 230.04C68.5146 229.968 68.9826 229.764 69.3826 229.428H70.1506V237H69.2146V230.556C68.8146 230.812 68.4026 230.952 67.9786 230.976V230.04Z" fill="white"/>
<path d="M22.904 316.452H24.056L26.588 324H25.604L24.956 322.08H21.956L21.308 324H20.312L22.904 316.452ZM22.208 321.336H24.716L23.468 317.616L22.208 321.336ZM31.8703 319.116V315.828H32.8063V324H32.0383L31.9183 323.04C31.7343 323.4 31.4903 323.672 31.1863 323.856C30.8823 324.04 30.5503 324.132 30.1903 324.132C29.4623 324.132 28.8503 323.852 28.3543 323.292C27.8663 322.732 27.6223 322.004 27.6223 321.108C27.6223 320.204 27.8623 319.48 28.3423 318.936C28.8303 318.392 29.4423 318.12 30.1783 318.12C30.9223 318.12 31.4863 318.452 31.8703 319.116ZM30.2383 318.96C29.7743 318.96 29.3823 319.156 29.0623 319.548C28.7503 319.94 28.5943 320.464 28.5943 321.12C28.5943 321.776 28.7543 322.304 29.0743 322.704C29.3943 323.096 29.7783 323.292 30.2263 323.292C30.6743 323.292 31.0543 323.144 31.3663 322.848C31.6863 322.544 31.8543 322.14 31.8703 321.636V320.7C31.8703 320.164 31.7143 319.74 31.4023 319.428C31.0903 319.116 30.7023 318.96 30.2383 318.96ZM38.9953 319.116V315.828H39.9313V324H39.1633L39.0433 323.04C38.8593 323.4 38.6153 323.672 38.3113 323.856C38.0073 324.04 37.6753 324.132 37.3153 324.132C36.5873 324.132 35.9753 323.852 35.4793 323.292C34.9913 322.732 34.7473 322.004 34.7473 321.108C34.7473 320.204 34.9873 319.48 35.4673 318.936C35.9553 318.392 36.5673 318.12 37.3033 318.12C38.0473 318.12 38.6113 318.452 38.9953 319.116ZM37.3633 318.96C36.8993 318.96 36.5073 319.156 36.1873 319.548C35.8753 319.94 35.7193 320.464 35.7193 321.12C35.7193 321.776 35.8793 322.304 36.1993 322.704C36.5193 323.096 36.9033 323.292 37.3513 323.292C37.7993 323.292 38.1793 323.144 38.4913 322.848C38.8113 322.544 38.9793 322.14 38.9953 321.636V320.7C38.9953 320.164 38.8393 319.74 38.5273 319.428C38.2153 319.116 37.8273 318.96 37.3633 318.96ZM44.7043 319.068C43.8003 319.068 43.3323 319.78 43.3003 321.204V324H42.3523V318.252H43.3003V319.356C43.5883 318.556 44.0963 318.156 44.8243 318.156C45.0563 318.156 45.2763 318.192 45.4843 318.264L45.4363 319.188C45.1963 319.108 44.9523 319.068 44.7043 319.068ZM48.9147 323.364C49.7067 323.364 50.1587 323.016 50.2707 322.32H51.2427C51.1547 322.896 50.8987 323.344 50.4747 323.664C50.0587 323.976 49.5387 324.132 48.9147 324.132C48.1467 324.132 47.5227 323.86 47.0427 323.316C46.5627 322.764 46.3227 322.032 46.3227 321.12C46.3227 320.208 46.5627 319.48 47.0427 318.936C47.5307 318.392 48.1747 318.12 48.9747 318.12C49.7827 318.12 50.3827 318.432 50.7747 319.056C51.1747 319.68 51.3147 320.44 51.1947 321.336H47.2707C47.2707 321.928 47.4147 322.416 47.7027 322.8C47.9907 323.176 48.3947 323.364 48.9147 323.364ZM49.6107 319.02C49.4267 318.924 49.2027 318.876 48.9387 318.876C48.4507 318.876 48.0627 319.044 47.7747 319.38C47.4947 319.708 47.3307 320.12 47.2827 320.616H50.3427C50.3427 319.816 50.0987 319.284 49.6107 319.02ZM52.8104 319.668C52.8104 319.196 53.0104 318.82 53.4104 318.54C53.8184 318.26 54.3664 318.12 55.0544 318.12C55.7424 318.12 56.2784 318.264 56.6624 318.552C57.0544 318.84 57.2584 319.204 57.2744 319.644H56.3504C56.2784 319.124 55.8384 318.864 55.0304 318.864C54.6384 318.864 54.3344 318.952 54.1184 319.128C53.9104 319.304 53.8064 319.496 53.8064 319.704C53.8064 319.904 53.8864 320.076 54.0464 320.22C54.2064 320.356 54.4624 320.476 54.8144 320.58L55.9664 320.964C56.4544 321.116 56.8264 321.312 57.0824 321.552C57.3464 321.784 57.4784 322.108 57.4784 322.524C57.4784 322.932 57.2664 323.304 56.8424 323.64C56.4184 323.968 55.8264 324.132 55.0664 324.132C54.3064 324.132 53.7144 323.964 53.2904 323.628C52.8664 323.284 52.6424 322.844 52.6184 322.308H53.5304C53.5464 322.668 53.6904 322.94 53.9624 323.124C54.2424 323.3 54.5904 323.388 55.0064 323.388C55.4224 323.388 55.7664 323.3 56.0384 323.124C56.3104 322.948 56.4464 322.74 56.4464 322.5C56.4464 322.252 56.3664 322.064 56.2064 321.936C56.0464 321.808 55.7864 321.696 55.4264 321.6L54.3104 321.228C53.3104 320.932 52.8104 320.412 52.8104 319.668ZM59.1268 319.668C59.1268 319.196 59.3268 318.82 59.7268 318.54C60.1348 318.26 60.6828 318.12 61.3708 318.12C62.0588 318.12 62.5948 318.264 62.9788 318.552C63.3708 318.84 63.5748 319.204 63.5908 319.644H62.6668C62.5948 319.124 62.1548 318.864 61.3468 318.864C60.9548 318.864 60.6508 318.952 60.4348 319.128C60.2268 319.304 60.1228 319.496 60.1228 319.704C60.1228 319.904 60.2028 320.076 60.3628 320.22C60.5228 320.356 60.7788 320.476 61.1308 320.58L62.2828 320.964C62.7708 321.116 63.1428 321.312 63.3988 321.552C63.6628 321.784 63.7948 322.108 63.7948 322.524C63.7948 322.932 63.5828 323.304 63.1588 323.64C62.7348 323.968 62.1428 324.132 61.3828 324.132C60.6228 324.132 60.0308 323.964 59.6068 323.628C59.1828 323.284 58.9588 322.844 58.9348 322.308H59.8468C59.8628 322.668 60.0068 322.94 60.2788 323.124C60.5588 323.3 60.9068 323.388 61.3228 323.388C61.7388 323.388 62.0828 323.3 62.3548 323.124C62.6268 322.948 62.7628 322.74 62.7628 322.5C62.7628 322.252 62.6828 322.064 62.5228 321.936C62.3628 321.808 62.1028 321.696 61.7428 321.6L60.6268 321.228C59.6268 320.932 59.1268 320.412 59.1268 319.668ZM69.1066 323.124H73.4866V324H68.1586V322.884C68.1586 321.996 68.4946 321.344 69.1666 320.928C69.3826 320.792 69.6226 320.672 69.8866 320.568L71.3746 319.968C72.1426 319.664 72.5266 319.164 72.5266 318.468C72.5266 318.084 72.3946 317.772 72.1306 317.532C71.8666 317.284 71.4946 317.16 71.0146 317.16C70.5426 317.16 70.1546 317.26 69.8506 317.46C69.5546 317.66 69.3826 317.96 69.3346 318.36H68.2906C68.3306 317.704 68.5946 317.2 69.0826 316.848C69.5706 316.496 70.1946 316.32 70.9546 316.32C71.7226 316.32 72.3466 316.528 72.8266 316.944C73.3066 317.36 73.5466 317.876 73.5466 318.492C73.5466 319.1 73.3866 319.584 73.0666 319.944C72.7546 320.304 72.3226 320.592 71.7706 320.808L70.2466 321.42C69.8626 321.58 69.5746 321.764 69.3826 321.972C69.1986 322.172 69.1066 322.436 69.1066 322.764V323.124Z" fill="white"/>
<path d="M23.828 403.32C24.636 403.32 25.284 403.524 25.772 403.932C26.268 404.332 26.608 404.856 26.792 405.504L25.772 405.708C25.612 405.236 25.36 404.864 25.016 404.592C24.68 404.312 24.284 404.172 23.828 404.172C23.196 404.172 22.672 404.436 22.256 404.964C21.84 405.492 21.632 406.228 21.632 407.172C21.632 408.108 21.816 408.86 22.184 409.428C22.56 409.996 23.108 410.28 23.828 410.28C24.428 410.28 24.9 410.124 25.244 409.812C25.596 409.492 25.772 409.072 25.772 408.552H26.792C26.792 409.344 26.52 409.972 25.976 410.436C25.44 410.9 24.7 411.132 23.756 411.132C22.82 411.132 22.06 410.772 21.476 410.052C20.9 409.332 20.612 408.368 20.612 407.16C20.612 405.952 20.912 405.012 21.512 404.34C22.112 403.66 22.884 403.32 23.828 403.32ZM28.6314 405.252H29.5794V411H28.6314V405.252ZM29.0994 403.908C28.9074 403.908 28.7554 403.856 28.6434 403.752C28.5394 403.64 28.4874 403.496 28.4874 403.32C28.4874 403.136 28.5394 402.992 28.6434 402.888C28.7554 402.776 28.9074 402.72 29.0994 402.72C29.2914 402.72 29.4434 402.776 29.5554 402.888C29.6754 402.992 29.7354 403.136 29.7354 403.32C29.7354 403.496 29.6754 403.64 29.5554 403.752C29.4434 403.856 29.2914 403.908 29.0994 403.908ZM35.1573 410.832C34.4693 411.152 33.8413 411.22 33.2733 411.036C32.8653 410.908 32.5773 410.64 32.4093 410.232C32.3213 410.032 32.2773 409.792 32.2773 409.512V405.984H31.3533V405.264H32.2773V403.668H33.2133V405.264H35.0133V405.984H33.2133V409.5C33.2133 410.084 33.4853 410.376 34.0293 410.376C34.3253 410.376 34.6573 410.304 35.0253 410.16L35.1573 410.832ZM35.517 412.668C35.909 412.972 36.321 413.124 36.753 413.124C37.073 413.124 37.349 412.964 37.581 412.644C37.749 412.412 37.901 412.06 38.037 411.588L38.205 411L35.853 405.264H36.909L38.649 409.836L40.005 405.264H40.965L38.817 412.14C38.633 412.724 38.389 413.172 38.085 413.484C37.789 413.796 37.409 413.952 36.945 413.952C36.489 413.952 36.013 413.812 35.517 413.532V412.668Z" fill="white"/>
<path d="M25.232 492.288C25.096 491.552 24.556 491.184 23.612 491.184C23.108 491.184 22.72 491.296 22.448 491.52C22.176 491.736 22.04 492 22.04 492.312C22.04 492.616 22.124 492.848 22.292 493.008C22.46 493.168 22.732 493.308 23.108 493.428L24.68 493.968C25.216 494.152 25.64 494.404 25.952 494.724C26.272 495.044 26.432 495.496 26.432 496.08C26.432 496.656 26.184 497.144 25.688 497.544C25.192 497.936 24.528 498.132 23.696 498.132C22.864 498.132 22.18 497.924 21.644 497.508C21.116 497.084 20.844 496.492 20.828 495.732H21.752C21.752 496.228 21.924 496.608 22.268 496.872C22.62 497.136 23.068 497.268 23.612 497.268C24.164 497.268 24.6 497.148 24.92 496.908C25.24 496.66 25.4 496.372 25.4 496.044C25.4 495.708 25.3 495.444 25.1 495.252C24.908 495.06 24.62 494.9 24.236 494.772L22.904 494.28C22.28 494.072 21.808 493.824 21.488 493.536C21.168 493.248 21.008 492.828 21.008 492.276C21.008 491.716 21.232 491.252 21.68 490.884C22.128 490.508 22.756 490.32 23.564 490.32C24.372 490.32 24.988 490.5 25.412 490.86C25.844 491.212 26.092 491.688 26.156 492.288H25.232ZM31.4776 497.832C30.7896 498.152 30.1616 498.22 29.5936 498.036C29.1856 497.908 28.8976 497.64 28.7296 497.232C28.6416 497.032 28.5976 496.792 28.5976 496.512V492.984H27.6736V492.264H28.5976V490.668H29.5336V492.264H31.3336V492.984H29.5336V496.5C29.5336 497.084 29.8056 497.376 30.3496 497.376C30.6456 497.376 30.9776 497.304 31.3456 497.16L31.4776 497.832ZM36.5413 494.28C36.5413 493.76 36.4333 493.388 36.2173 493.164C36.0013 492.94 35.6853 492.828 35.2693 492.828C34.8613 492.828 34.5293 492.912 34.2733 493.08C34.0253 493.24 33.9013 493.496 33.9013 493.848H32.8573C32.8573 492.968 33.3293 492.424 34.2733 492.216C34.5613 492.152 34.8733 492.12 35.2093 492.12C35.9213 492.12 36.4773 492.3 36.8773 492.66C37.2773 493.02 37.4773 493.568 37.4773 494.304V498H36.6613L36.5653 497.04C36.2133 497.768 35.5773 498.132 34.6573 498.132C34.0413 498.132 33.5453 497.96 33.1693 497.616C32.8013 497.272 32.6173 496.844 32.6173 496.332C32.6173 495.82 32.8213 495.42 33.2293 495.132C33.6453 494.844 34.1613 494.7 34.7773 494.7C35.3933 494.7 35.9813 494.804 36.5413 495.012V494.28ZM36.5413 495.612C35.9733 495.452 35.4773 495.372 35.0533 495.372C34.6293 495.372 34.2853 495.448 34.0213 495.6C33.7573 495.752 33.6253 495.992 33.6253 496.32C33.6253 497.04 34.0333 497.4 34.8493 497.4C35.3133 497.4 35.7093 497.236 36.0373 496.908C36.3733 496.572 36.5413 496.14 36.5413 495.612ZM42.7042 497.832C42.0162 498.152 41.3882 498.22 40.8202 498.036C40.4122 497.908 40.1242 497.64 39.9562 497.232C39.8682 497.032 39.8242 496.792 39.8242 496.512V492.984H38.9002V492.264H39.8242V490.668H40.7602V492.264H42.5602V492.984H40.7602V496.5C40.7602 497.084 41.0322 497.376 41.5762 497.376C41.8722 497.376 42.2042 497.304 42.5722 497.16L42.7042 497.832ZM46.1959 497.364C46.9879 497.364 47.4399 497.016 47.5519 496.32H48.5239C48.4359 496.896 48.1799 497.344 47.7559 497.664C47.3399 497.976 46.8199 498.132 46.1959 498.132C45.4279 498.132 44.8039 497.86 44.3239 497.316C43.8439 496.764 43.6039 496.032 43.6039 495.12C43.6039 494.208 43.8439 493.48 44.3239 492.936C44.8119 492.392 45.4559 492.12 46.2559 492.12C47.0639 492.12 47.6639 492.432 48.0559 493.056C48.4559 493.68 48.5959 494.44 48.4759 495.336H44.5519C44.5519 495.928 44.6959 496.416 44.9839 496.8C45.2719 497.176 45.6759 497.364 46.1959 497.364ZM46.8919 493.02C46.7079 492.924 46.4839 492.876 46.2199 492.876C45.7319 492.876 45.3439 493.044 45.0559 493.38C44.7759 493.708 44.6119 494.12 44.5639 494.616H47.6239C47.6239 493.816 47.3799 493.284 46.8919 493.02Z" fill="white"/>
<path d="M220.876 496.148L225.232 490.352L220.876 490.316V489.452H226.42V490.304L222.064 496.1L226.42 496.136V497H220.876V496.148ZM228.374 491.252H229.322V497H228.374V491.252ZM228.842 489.908C228.65 489.908 228.498 489.856 228.386 489.752C228.282 489.64 228.23 489.496 228.23 489.32C228.23 489.136 228.282 488.992 228.386 488.888C228.498 488.776 228.65 488.72 228.842 488.72C229.034 488.72 229.186 488.776 229.298 488.888C229.418 488.992 229.478 489.136 229.478 489.32C229.478 489.496 229.418 489.64 229.298 489.752C229.186 489.856 229.034 489.908 228.842 489.908ZM232.788 492.14C233.164 491.46 233.724 491.12 234.468 491.12C235.22 491.12 235.844 491.396 236.34 491.948C236.844 492.5 237.096 493.228 237.096 494.132C237.096 495.036 236.844 495.764 236.34 496.316C235.836 496.86 235.216 497.132 234.48 497.132C233.744 497.132 233.2 496.856 232.848 496.304V499.82H231.9V491.264H232.68L232.788 492.14ZM234.432 496.292C234.88 496.292 235.272 496.1 235.608 495.716C235.952 495.332 236.124 494.808 236.124 494.144C236.124 493.472 235.96 492.94 235.632 492.548C235.312 492.156 234.92 491.96 234.456 491.96C233.992 491.96 233.612 492.108 233.316 492.404C233.02 492.692 232.864 493.084 232.848 493.58V494.672C232.848 495.176 233 495.572 233.304 495.86C233.608 496.148 233.984 496.292 234.432 496.292ZM243.792 491.12C244.472 491.12 245.012 491.296 245.412 491.648C245.812 491.992 246.072 492.424 246.192 492.944L245.232 493.028C245.128 492.692 244.96 492.432 244.728 492.248C244.496 492.056 244.24 491.96 243.96 491.96C243.448 491.96 243.032 492.152 242.712 492.536C242.4 492.92 242.244 493.444 242.244 494.108C242.244 494.764 242.396 495.292 242.7 495.692C243.012 496.092 243.396 496.292 243.852 496.292C244.316 496.292 244.66 496.188 244.884 495.98C245.116 495.764 245.232 495.46 245.232 495.068H246.204C246.204 495.684 245.988 496.184 245.556 496.568C245.132 496.944 244.576 497.132 243.888 497.132C243.16 497.132 242.54 496.856 242.028 496.304C241.524 495.752 241.272 495.02 241.272 494.108C241.272 493.188 241.524 492.46 242.028 491.924C242.532 491.388 243.12 491.12 243.792 491.12ZM250.124 491.12C250.924 491.12 251.568 491.38 252.056 491.9C252.552 492.42 252.8 493.164 252.8 494.132C252.8 495.092 252.552 495.832 252.056 496.352C251.568 496.872 250.924 497.132 250.124 497.132C249.324 497.132 248.676 496.872 248.18 496.352C247.692 495.832 247.448 495.092 247.448 494.132C247.448 493.164 247.692 492.42 248.18 491.9C248.676 491.38 249.324 491.12 250.124 491.12ZM251.84 494.132C251.84 493.444 251.696 492.908 251.408 492.524C251.12 492.132 250.696 491.936 250.136 491.936C249.584 491.936 249.16 492.132 248.864 492.524C248.568 492.908 248.42 493.444 248.42 494.132C248.42 494.812 248.56 495.348 248.84 495.74C249.12 496.124 249.536 496.316 250.088 496.316C250.648 496.316 251.08 496.124 251.384 495.74C251.688 495.348 251.84 494.812 251.84 494.132ZM258.366 492.116V488.828H259.302V497H258.534L258.414 496.04C258.23 496.4 257.986 496.672 257.682 496.856C257.378 497.04 257.046 497.132 256.686 497.132C255.958 497.132 255.346 496.852 254.85 496.292C254.362 495.732 254.118 495.004 254.118 494.108C254.118 493.204 254.358 492.48 254.838 491.936C255.326 491.392 255.938 491.12 256.674 491.12C257.418 491.12 257.982 491.452 258.366 492.116ZM256.734 491.96C256.27 491.96 255.878 492.156 255.558 492.548C255.246 492.94 255.09 493.464 255.09 494.12C255.09 494.776 255.25 495.304 255.57 495.704C255.89 496.096 256.274 496.292 256.722 496.292C257.17 496.292 257.55 496.144 257.862 495.848C258.182 495.544 258.35 495.14 258.366 494.636V493.7C258.366 493.164 258.21 492.74 257.898 492.428C257.586 492.116 257.198 491.96 256.734 491.96ZM263.715 496.364C264.507 496.364 264.959 496.016 265.071 495.32H266.043C265.955 495.896 265.699 496.344 265.275 496.664C264.859 496.976 264.339 497.132 263.715 497.132C262.947 497.132 262.323 496.86 261.843 496.316C261.363 495.764 261.123 495.032 261.123 494.12C261.123 493.208 261.363 492.48 261.843 491.936C262.331 491.392 262.975 491.12 263.775 491.12C264.583 491.12 265.183 491.432 265.575 492.056C265.975 492.68 266.115 493.44 265.995 494.336H262.071C262.071 494.928 262.215 495.416 262.503 495.8C262.791 496.176 263.195 496.364 263.715 496.364ZM264.411 492.02C264.227 491.924 264.003 491.876 263.739 491.876C263.251 491.876 262.863 492.044 262.575 492.38C262.295 492.708 262.131 493.12 262.083 493.616H265.143C265.143 492.816 264.899 492.284 264.411 492.02Z" fill="white"/>
<path d="M36.686 271.88C37.3113 271.796 37.8573 271.558 38.324 271.166H39.22V280H38.128V272.482C37.6613 272.781 37.1807 272.944 36.686 272.972V271.88ZM42.6368 278.978H47.7468V280H41.5308V278.698C41.5308 277.662 41.9228 276.901 42.7068 276.416C42.9588 276.257 43.2388 276.117 43.5468 275.996L45.2828 275.296C46.1788 274.941 46.6268 274.358 46.6268 273.546C46.6268 273.098 46.4728 272.734 46.1648 272.454C45.8568 272.165 45.4228 272.02 44.8628 272.02C44.3121 272.02 43.8594 272.137 43.5048 272.37C43.1594 272.603 42.9588 272.953 42.9028 273.42H41.6848C41.7314 272.655 42.0394 272.067 42.6088 271.656C43.1781 271.245 43.9061 271.04 44.7928 271.04C45.6888 271.04 46.4168 271.283 46.9768 271.768C47.5368 272.253 47.8168 272.855 47.8168 273.574C47.8168 274.283 47.6301 274.848 47.2568 275.268C46.8928 275.688 46.3888 276.024 45.7448 276.276L43.9668 276.99C43.5188 277.177 43.1828 277.391 42.9588 277.634C42.7441 277.867 42.6368 278.175 42.6368 278.558V278.978ZM54.7339 277.144C54.7339 276.033 54.0105 275.478 52.5639 275.478H50.1979L50.5759 271.194H55.4619V272.202H51.6399L51.4019 274.736C51.8872 274.652 52.3492 274.61 52.7879 274.61C53.7492 274.61 54.5052 274.825 55.0559 275.254C55.6065 275.674 55.8819 276.313 55.8819 277.172C55.8819 278.031 55.5925 278.745 55.0139 279.314C54.4352 279.874 53.6885 280.154 52.7739 280.154C51.8592 280.154 51.1125 279.925 50.5339 279.468C49.9552 279.001 49.6659 278.362 49.6659 277.55H50.7719C50.7719 278.315 51.1639 278.815 51.9479 279.048C52.1905 279.113 52.4565 279.146 52.7459 279.146C53.3432 279.146 53.8239 278.959 54.1879 278.586C54.5519 278.203 54.7339 277.723 54.7339 277.144ZM63.7419 273.448C63.7419 274.381 63.2285 275.03 62.2019 275.394C62.7619 275.553 63.2145 275.814 63.5599 276.178C63.9052 276.542 64.0779 277.009 64.0779 277.578C64.0779 278.353 63.7839 278.978 63.1959 279.454C62.6079 279.921 61.8332 280.154 60.8719 280.154C59.9105 280.154 59.0892 279.907 58.4079 279.412C57.7359 278.908 57.3999 278.203 57.3999 277.298H58.5479C58.5665 277.895 58.7859 278.353 59.2059 278.67C59.6352 278.987 60.1765 279.146 60.8299 279.146C61.4832 279.146 61.9872 278.992 62.3419 278.684C62.7059 278.367 62.8879 277.979 62.8879 277.522C62.8879 277.055 62.7152 276.677 62.3699 276.388C62.0245 276.089 61.4645 275.94 60.6899 275.94H59.6819V275.058H60.3679C61.0399 275.058 61.5719 274.927 61.9639 274.666C62.3559 274.395 62.5519 274.036 62.5519 273.588C62.5519 273.14 62.3932 272.771 62.0759 272.482C61.7585 272.193 61.3385 272.048 60.8159 272.048C60.2932 272.048 59.8545 272.141 59.4999 272.328C59.1545 272.505 58.9212 272.841 58.7999 273.336H57.6519C57.7545 272.561 58.0765 271.987 58.6179 271.614C59.1592 271.231 59.8545 271.04 60.7039 271.04C61.5625 271.04 62.2812 271.269 62.8599 271.726C63.4479 272.174 63.7419 272.748 63.7419 273.448ZM69.7073 271.194L71.8493 278.516L74.0193 272.104H74.7613L76.9173 278.516L79.3813 271.194H80.5993L77.4913 280H76.3293L74.4113 274.358L72.4233 280H71.2613L68.4753 271.194H69.7073ZM84.0619 279.258C84.9859 279.258 85.5132 278.852 85.6439 278.04H86.7779C86.6752 278.712 86.3766 279.235 85.8819 279.608C85.3966 279.972 84.7899 280.154 84.0619 280.154C83.1659 280.154 82.4379 279.837 81.8779 279.202C81.3179 278.558 81.0379 277.704 81.0379 276.64C81.0379 275.576 81.3179 274.727 81.8779 274.092C82.4472 273.457 83.1986 273.14 84.1319 273.14C85.0746 273.14 85.7746 273.504 86.2319 274.232C86.6986 274.96 86.8619 275.847 86.7219 276.892H82.1439C82.1439 277.583 82.3119 278.152 82.6479 278.6C82.9839 279.039 83.4552 279.258 84.0619 279.258ZM84.8739 274.19C84.6592 274.078 84.3979 274.022 84.0899 274.022C83.5206 274.022 83.0679 274.218 82.7319 274.61C82.4052 274.993 82.2139 275.473 82.1579 276.052H85.7279C85.7279 275.119 85.4432 274.498 84.8739 274.19ZM88.607 274.946C88.607 274.395 88.8403 273.957 89.307 273.63C89.783 273.303 90.4223 273.14 91.225 273.14C92.0276 273.14 92.653 273.308 93.101 273.644C93.5583 273.98 93.7963 274.405 93.815 274.918H92.737C92.653 274.311 92.1396 274.008 91.197 274.008C90.7396 274.008 90.385 274.111 90.133 274.316C89.8903 274.521 89.769 274.745 89.769 274.988C89.769 275.221 89.8623 275.422 90.049 275.59C90.2356 275.749 90.5343 275.889 90.945 276.01L92.289 276.458C92.8583 276.635 93.2923 276.864 93.591 277.144C93.899 277.415 94.053 277.793 94.053 278.278C94.053 278.754 93.8056 279.188 93.311 279.58C92.8163 279.963 92.1256 280.154 91.239 280.154C90.3523 280.154 89.6616 279.958 89.167 279.566C88.6723 279.165 88.411 278.651 88.383 278.026H89.447C89.4656 278.446 89.6336 278.763 89.951 278.978C90.2776 279.183 90.6836 279.286 91.169 279.286C91.6543 279.286 92.0556 279.183 92.373 278.978C92.6903 278.773 92.849 278.53 92.849 278.25C92.849 277.961 92.7556 277.741 92.569 277.592C92.3823 277.443 92.079 277.312 91.659 277.2L90.357 276.766C89.1903 276.421 88.607 275.814 88.607 274.946ZM99.8261 279.804C99.0234 280.177 98.2908 280.257 97.6281 280.042C97.1521 279.893 96.8161 279.58 96.6201 279.104C96.5174 278.871 96.4661 278.591 96.4661 278.264V274.148H95.3881V273.308H96.4661V271.446H97.5581V273.308H99.6581V274.148H97.5581V278.25C97.5581 278.931 97.8754 279.272 98.5101 279.272C98.8554 279.272 99.2428 279.188 99.6721 279.02L99.8261 279.804ZM106.9 271.194H108.244L111.198 280H110.05L109.294 277.76H105.794L105.038 280H103.876L106.9 271.194ZM106.088 276.892H109.014L107.558 272.552L106.088 276.892ZM112.748 273.308L114.764 278.838L116.794 273.308H118.04L115.38 280H114.162L111.502 273.308H112.748ZM122.015 279.258C122.939 279.258 123.466 278.852 123.597 278.04H124.731C124.628 278.712 124.33 279.235 123.835 279.608C123.35 279.972 122.743 280.154 122.015 280.154C121.119 280.154 120.391 279.837 119.831 279.202C119.271 278.558 118.991 277.704 118.991 276.64C118.991 275.576 119.271 274.727 119.831 274.092C120.4 273.457 121.152 273.14 122.085 273.14C123.028 273.14 123.728 273.504 124.185 274.232C124.652 274.96 124.815 275.847 124.675 276.892H120.097C120.097 277.583 120.265 278.152 120.601 278.6C120.937 279.039 121.408 279.258 122.015 279.258ZM122.827 274.19C122.612 274.078 122.351 274.022 122.043 274.022C121.474 274.022 121.021 274.218 120.685 274.61C120.358 274.993 120.167 275.473 120.111 276.052H123.681C123.681 275.119 123.396 274.498 122.827 274.19ZM127.974 274.596C128.413 273.625 129.164 273.14 130.228 273.14C131.021 273.14 131.637 273.401 132.076 273.924C132.524 274.447 132.748 275.161 132.748 276.066V280H131.656V276.066C131.656 275.422 131.502 274.937 131.194 274.61C130.895 274.283 130.466 274.12 129.906 274.12C129.346 274.12 128.893 274.349 128.548 274.806C128.203 275.263 128.021 275.898 128.002 276.71V280H126.896V273.308H127.848L127.974 274.596ZM139.896 278.67C139.438 279.641 138.696 280.126 137.67 280.126C136.914 280.126 136.302 279.916 135.836 279.496C135.378 279.076 135.15 278.427 135.15 277.55V273.294H136.256V277.466C136.256 278.595 136.778 279.16 137.824 279.16C138.43 279.16 138.92 278.927 139.294 278.46C139.676 277.993 139.877 277.396 139.896 276.668V273.294H141.002V280H139.896V278.67ZM146.146 279.258C147.07 279.258 147.597 278.852 147.728 278.04H148.862C148.759 278.712 148.461 279.235 147.966 279.608C147.481 279.972 146.874 280.154 146.146 280.154C145.25 280.154 144.522 279.837 143.962 279.202C143.402 278.558 143.122 277.704 143.122 276.64C143.122 275.576 143.402 274.727 143.962 274.092C144.531 273.457 145.283 273.14 146.216 273.14C147.159 273.14 147.859 273.504 148.316 274.232C148.783 274.96 148.946 275.847 148.806 276.892H144.228C144.228 277.583 144.396 278.152 144.732 278.6C145.068 279.039 145.539 279.258 146.146 279.258ZM146.958 274.19C146.743 274.078 146.482 274.022 146.174 274.022C145.605 274.022 145.152 274.218 144.816 274.61C144.489 274.993 144.298 275.473 144.242 276.052H147.812C147.812 275.119 147.527 274.498 146.958 274.19Z" fill="black" fill-opacity="0.4"/>
<path d="M38.996 444.694L41.964 450.658L44.904 444.694H46.458V453.5H45.352V446.262L42.328 452.394H41.586L38.52 446.164V453.5H37.414V444.694H38.996ZM49.3512 446.794H50.4572V453.5H49.3512V446.794ZM49.8972 445.226C49.6732 445.226 49.4959 445.165 49.3652 445.044C49.2439 444.913 49.1832 444.745 49.1832 444.54C49.1832 444.325 49.2439 444.157 49.3652 444.036C49.4959 443.905 49.6732 443.84 49.8972 443.84C50.1212 443.84 50.2985 443.905 50.4292 444.036C50.5692 444.157 50.6392 444.325 50.6392 444.54C50.6392 444.745 50.5692 444.913 50.4292 445.044C50.2985 445.165 50.1212 445.226 49.8972 445.226ZM57.6088 449.16C57.6088 448.553 57.4828 448.119 57.2308 447.858C56.9788 447.597 56.6101 447.466 56.1248 447.466C55.6488 447.466 55.2614 447.564 54.9628 447.76C54.6734 447.947 54.5288 448.245 54.5288 448.656H53.3108C53.3108 447.629 53.8614 446.995 54.9628 446.752C55.2988 446.677 55.6628 446.64 56.0548 446.64C56.8854 446.64 57.5341 446.85 58.0008 447.27C58.4674 447.69 58.7008 448.329 58.7008 449.188V453.5H57.7488L57.6368 452.38C57.2261 453.229 56.4841 453.654 55.4108 453.654C54.6921 453.654 54.1134 453.453 53.6748 453.052C53.2454 452.651 53.0308 452.151 53.0308 451.554C53.0308 450.957 53.2688 450.49 53.7448 450.154C54.2301 449.818 54.8321 449.65 55.5508 449.65C56.2694 449.65 56.9554 449.771 57.6088 450.014V449.16ZM57.6088 450.714C56.9461 450.527 56.3674 450.434 55.8728 450.434C55.3781 450.434 54.9768 450.523 54.6688 450.7C54.3608 450.877 54.2068 451.157 54.2068 451.54C54.2068 452.38 54.6828 452.8 55.6348 452.8C56.1761 452.8 56.6381 452.609 57.0208 452.226C57.4128 451.834 57.6088 451.33 57.6088 450.714ZM62.3628 448.096C62.8014 447.125 63.5528 446.64 64.6168 446.64C65.1954 446.64 65.6808 446.785 66.0728 447.074C66.4648 447.354 66.7494 447.746 66.9268 448.25C67.3468 447.177 68.1261 446.64 69.2648 446.64C70.0674 446.64 70.6881 446.901 71.1268 447.424C71.5654 447.947 71.7848 448.661 71.7848 449.566V453.5H70.6928V449.566C70.6928 448.922 70.5388 448.437 70.2308 448.11C69.9321 447.783 69.4981 447.62 68.9288 447.62C68.3594 447.62 67.9161 447.853 67.5988 448.32C67.2908 448.787 67.1368 449.431 67.1368 450.252V453.5H66.0448V449.566C66.0448 448.922 65.8908 448.437 65.5828 448.11C65.2841 447.783 64.8548 447.62 64.2948 447.62C63.7348 447.62 63.2821 447.849 62.9368 448.306C62.5914 448.763 62.4094 449.398 62.3908 450.21V453.5H61.2848V446.808H62.2368L62.3628 448.096ZM74.4528 446.794H75.5588V453.5H74.4528V446.794ZM74.9988 445.226C74.7748 445.226 74.5974 445.165 74.4668 445.044C74.3454 444.913 74.2848 444.745 74.2848 444.54C74.2848 444.325 74.3454 444.157 74.4668 444.036C74.5974 443.905 74.7748 443.84 74.9988 443.84C75.2228 443.84 75.4001 443.905 75.5308 444.036C75.6708 444.157 75.7408 444.325 75.7408 444.54C75.7408 444.745 75.6708 444.913 75.5308 445.044C75.4001 445.165 75.2228 445.226 74.9988 445.226ZM81.9023 444.694H85.1923C86.1163 444.694 86.8256 444.913 87.3203 445.352C87.8243 445.791 88.0763 446.341 88.0763 447.004C88.0763 447.508 87.9363 447.947 87.6563 448.32C87.3856 448.693 86.9703 448.945 86.4103 449.076C86.9609 449.169 87.3996 449.407 87.7263 449.79C88.0623 450.173 88.2303 450.607 88.2303 451.092C88.2303 452.175 87.7029 452.907 86.6483 453.29C86.2563 453.43 85.7756 453.5 85.2063 453.5H81.9023V444.694ZM85.1783 452.534C85.8503 452.534 86.3309 452.399 86.6203 452.128C86.9096 451.857 87.0543 451.498 87.0543 451.05C87.0543 450.602 86.8956 450.247 86.5783 449.986C86.2609 449.715 85.7943 449.58 85.1783 449.58H83.0083V452.534H85.1783ZM83.0083 448.628H85.1643C85.7056 448.628 86.1349 448.497 86.4523 448.236C86.7789 447.965 86.9423 447.597 86.9423 447.13C86.9423 446.663 86.7836 446.299 86.4663 446.038C86.1583 445.777 85.7243 445.646 85.1643 445.646H83.0083V448.628ZM92.9213 452.758C93.8453 452.758 94.3726 452.352 94.5033 451.54H95.6373C95.5346 452.212 95.2359 452.735 94.7413 453.108C94.2559 453.472 93.6493 453.654 92.9213 453.654C92.0253 453.654 91.2973 453.337 90.7373 452.702C90.1773 452.058 89.8973 451.204 89.8973 450.14C89.8973 449.076 90.1773 448.227 90.7373 447.592C91.3066 446.957 92.0579 446.64 92.9913 446.64C93.9339 446.64 94.6339 447.004 95.0913 447.732C95.5579 448.46 95.7213 449.347 95.5813 450.392H91.0033C91.0033 451.083 91.1713 451.652 91.5073 452.1C91.8433 452.539 92.3146 452.758 92.9213 452.758ZM93.7333 447.69C93.5186 447.578 93.2573 447.522 92.9493 447.522C92.3799 447.522 91.9273 447.718 91.5913 448.11C91.2646 448.493 91.0733 448.973 91.0173 449.552H94.5873C94.5873 448.619 94.3026 447.998 93.7333 447.69ZM101.96 449.16C101.96 448.553 101.834 448.119 101.582 447.858C101.33 447.597 100.962 447.466 100.476 447.466C100 447.466 99.613 447.564 99.3143 447.76C99.025 447.947 98.8803 448.245 98.8803 448.656H97.6623C97.6623 447.629 98.213 446.995 99.3143 446.752C99.6503 446.677 100.014 446.64 100.406 446.64C101.237 446.64 101.886 446.85 102.352 447.27C102.819 447.69 103.052 448.329 103.052 449.188V453.5H102.1L101.988 452.38C101.578 453.229 100.836 453.654 99.7623 453.654C99.0437 453.654 98.465 453.453 98.0263 453.052C97.597 452.651 97.3823 452.151 97.3823 451.554C97.3823 450.957 97.6203 450.49 98.0963 450.154C98.5817 449.818 99.1837 449.65 99.9023 449.65C100.621 449.65 101.307 449.771 101.96 450.014V449.16ZM101.96 450.714C101.298 450.527 100.719 450.434 100.224 450.434C99.7297 450.434 99.3283 450.523 99.0203 450.7C98.7123 450.877 98.5583 451.157 98.5583 451.54C98.5583 452.38 99.0343 452.8 99.9863 452.8C100.528 452.8 100.99 452.609 101.372 452.226C101.764 451.834 101.96 451.33 101.96 450.714ZM107.876 446.64C108.67 446.64 109.3 446.845 109.766 447.256C110.233 447.657 110.536 448.161 110.676 448.768L109.556 448.866C109.435 448.474 109.239 448.171 108.968 447.956C108.698 447.732 108.399 447.62 108.072 447.62C107.475 447.62 106.99 447.844 106.616 448.292C106.252 448.74 106.07 449.351 106.07 450.126C106.07 450.891 106.248 451.507 106.602 451.974C106.966 452.441 107.414 452.674 107.946 452.674C108.488 452.674 108.889 452.553 109.15 452.31C109.421 452.058 109.556 451.703 109.556 451.246H110.69C110.69 451.965 110.438 452.548 109.934 452.996C109.44 453.435 108.791 453.654 107.988 453.654C107.139 453.654 106.416 453.332 105.818 452.688C105.23 452.044 104.936 451.19 104.936 450.126C104.936 449.053 105.23 448.203 105.818 447.578C106.406 446.953 107.092 446.64 107.876 446.64ZM113.961 448.04C114.409 447.107 115.151 446.64 116.187 446.64C116.981 446.64 117.597 446.901 118.035 447.424C118.483 447.947 118.707 448.661 118.707 449.566V453.5H117.615V449.566C117.615 448.922 117.461 448.437 117.153 448.11C116.855 447.783 116.421 447.62 115.851 447.62C115.282 447.62 114.825 447.863 114.479 448.348C114.134 448.824 113.961 449.487 113.961 450.336V453.5H112.855V443.966H113.961V448.04Z" fill="black" fill-opacity="0.4"/>
<path d="M243.07 535.448C243.07 536.381 242.557 537.03 241.53 537.394C242.09 537.553 242.543 537.814 242.888 538.178C243.233 538.542 243.406 539.009 243.406 539.578C243.406 540.353 243.112 540.978 242.524 541.454C241.936 541.921 241.161 542.154 240.2 542.154C239.239 542.154 238.417 541.907 237.736 541.412C237.064 540.908 236.728 540.203 236.728 539.298H237.876C237.895 539.895 238.114 540.353 238.534 540.67C238.963 540.987 239.505 541.146 240.158 541.146C240.811 541.146 241.315 540.992 241.67 540.684C242.034 540.367 242.216 539.979 242.216 539.522C242.216 539.055 242.043 538.677 241.698 538.388C241.353 538.089 240.793 537.94 240.018 537.94H239.01V537.058H239.696C240.368 537.058 240.9 536.927 241.292 536.666C241.684 536.395 241.88 536.036 241.88 535.588C241.88 535.14 241.721 534.771 241.404 534.482C241.087 534.193 240.667 534.048 240.144 534.048C239.621 534.048 239.183 534.141 238.828 534.328C238.483 534.505 238.249 534.841 238.128 535.336H236.98C237.083 534.561 237.405 533.987 237.946 533.614C238.487 533.231 239.183 533.04 240.032 533.04C240.891 533.04 241.609 533.269 242.188 533.726C242.776 534.174 243.07 534.748 243.07 535.448ZM251.341 535.448C251.341 536.381 250.828 537.03 249.801 537.394C250.361 537.553 250.814 537.814 251.159 538.178C251.505 538.542 251.677 539.009 251.677 539.578C251.677 540.353 251.383 540.978 250.795 541.454C250.207 541.921 249.433 542.154 248.471 542.154C247.51 542.154 246.689 541.907 246.007 541.412C245.335 540.908 244.999 540.203 244.999 539.298H246.147C246.166 539.895 246.385 540.353 246.805 540.67C247.235 540.987 247.776 541.146 248.429 541.146C249.083 541.146 249.587 540.992 249.941 540.684C250.305 540.367 250.487 539.979 250.487 539.522C250.487 539.055 250.315 538.677 249.969 538.388C249.624 538.089 249.064 537.94 248.289 537.94H247.281V537.058H247.967C248.639 537.058 249.171 536.927 249.563 536.666C249.955 536.395 250.151 536.036 250.151 535.588C250.151 535.14 249.993 534.771 249.675 534.482C249.358 534.193 248.938 534.048 248.415 534.048C247.893 534.048 247.454 534.141 247.099 534.328C246.754 534.505 246.521 534.841 246.399 535.336H245.251C245.354 534.561 245.676 533.987 246.217 533.614C246.759 533.231 247.454 533.04 248.303 533.04C249.162 533.04 249.881 533.269 250.459 533.726C251.047 534.174 251.341 534.748 251.341 535.448ZM253.229 533.88C253.854 533.796 254.4 533.558 254.867 533.166H255.763V542H254.671V534.482C254.204 534.781 253.724 534.944 253.229 534.972V533.88ZM264.248 535.448C264.248 536.381 263.734 537.03 262.708 537.394C263.268 537.553 263.72 537.814 264.066 538.178C264.411 538.542 264.584 539.009 264.584 539.578C264.584 540.353 264.29 540.978 263.702 541.454C263.114 541.921 262.339 542.154 261.378 542.154C260.416 542.154 259.595 541.907 258.914 541.412C258.242 540.908 257.906 540.203 257.906 539.298H259.054C259.072 539.895 259.292 540.353 259.712 540.67C260.141 540.987 260.682 541.146 261.336 541.146C261.989 541.146 262.493 540.992 262.848 540.684C263.212 540.367 263.394 539.979 263.394 539.522C263.394 539.055 263.221 538.677 262.876 538.388C262.53 538.089 261.97 537.94 261.196 537.94H260.188V537.058H260.874C261.546 537.058 262.078 536.927 262.47 536.666C262.862 536.395 263.058 536.036 263.058 535.588C263.058 535.14 262.899 534.771 262.582 534.482C262.264 534.193 261.844 534.048 261.322 534.048C260.799 534.048 260.36 534.141 260.006 534.328C259.66 534.505 259.427 534.841 259.306 535.336H258.158C258.26 534.561 258.582 533.987 259.124 533.614C259.665 533.231 260.36 533.04 261.21 533.04C262.068 533.04 262.787 533.269 263.366 533.726C263.954 534.174 264.248 534.748 264.248 535.448ZM269.397 533.04C269.873 533.04 270.326 533.143 270.755 533.348C271.185 533.553 271.553 533.847 271.861 534.23C272.533 535.051 272.869 536.12 272.869 537.436C272.869 539.723 272.235 541.188 270.965 541.832C270.527 542.047 270.051 542.154 269.537 542.154C268.576 542.154 267.815 541.893 267.255 541.37C266.695 540.847 266.415 540.189 266.415 539.396H267.577C267.596 539.928 267.764 540.353 268.081 540.67C268.399 540.987 268.8 541.146 269.285 541.146C269.771 541.146 270.163 541.057 270.461 540.88C271.311 540.348 271.735 539.149 271.735 537.282C271.735 536.899 271.712 536.554 271.665 536.246C271.572 537.002 271.297 537.567 270.839 537.94C270.391 538.313 269.799 538.5 269.061 538.5C268.333 538.5 267.703 538.243 267.171 537.73C266.639 537.207 266.373 536.545 266.373 535.742C266.373 534.93 266.649 534.277 267.199 533.782C267.75 533.287 268.483 533.04 269.397 533.04ZM270.671 534.538C270.326 534.221 269.887 534.062 269.355 534.062C268.823 534.062 268.385 534.216 268.039 534.524C267.694 534.832 267.521 535.257 267.521 535.798C267.521 536.339 267.694 536.764 268.039 537.072C268.394 537.38 268.833 537.534 269.355 537.534C269.887 537.534 270.326 537.371 270.671 537.044C271.026 536.708 271.203 536.283 271.203 535.77C271.203 535.257 271.026 534.846 270.671 534.538Z" fill="black" fill-opacity="0.4"/>
<path d="M37.414 534.194H42.762V535.146H38.52V538.072H42.468V539.024H38.52V543H37.414V534.194ZM45.8618 542.034H49.7818V543H44.7558V534.194H45.8618V542.034Z" fill="black" fill-opacity="0.4"/>
<path d="M22.232 150.424H28.52C30.248 150.424 31.584 150.832 32.528 151.648C33.424 152.4 33.872 153.368 33.872 154.552C33.872 155.432 33.624 156.184 33.128 156.808C32.648 157.432 31.968 157.872 31.088 158.128C31.968 158.304 32.696 158.704 33.272 159.328C33.848 159.936 34.136 160.72 34.136 161.68C34.136 163.6 33.184 164.912 31.28 165.616C30.56 165.872 29.648 166 28.544 166H22.232V150.424ZM28.472 163.528C29.384 163.528 30.04 163.344 30.44 162.976C30.856 162.608 31.064 162.12 31.064 161.512C31.064 160.904 30.848 160.416 30.416 160.048C30 159.664 29.352 159.472 28.472 159.472H25.064V163.528H28.472ZM25.064 157H28.4C29.248 157 29.888 156.816 30.32 156.448C30.752 156.08 30.968 155.584 30.968 154.96C30.968 154.32 30.752 153.816 30.32 153.448C29.904 153.064 29.272 152.872 28.424 152.872H25.064V157ZM38.0345 154.312H40.8665V166H38.0345V154.312ZM37.6985 150.568C37.6985 150.056 37.8505 149.656 38.1545 149.368C38.4585 149.064 38.8905 148.912 39.4505 148.912C39.9945 148.912 40.4185 149.064 40.7225 149.368C41.0425 149.656 41.2025 150.056 41.2025 150.568C41.2025 151.08 41.0425 151.488 40.7225 151.792C40.4185 152.08 39.9945 152.224 39.4505 152.224C38.8905 152.224 38.4585 152.08 38.1545 151.792C37.8505 151.488 37.6985 151.08 37.6985 150.568ZM45.6695 149.536H48.5015V166H45.6695V149.536ZM52.9586 149.536H55.7906V166H52.9586V149.536ZM60.4876 154.312H63.3196V166H60.4876V154.312ZM60.1516 150.568C60.1516 150.056 60.3036 149.656 60.6076 149.368C60.9116 149.064 61.3436 148.912 61.9036 148.912C62.4476 148.912 62.8716 149.064 63.1756 149.368C63.4956 149.656 63.6556 150.056 63.6556 150.568C63.6556 151.08 63.4956 151.488 63.1756 151.792C62.8716 152.08 62.4476 152.224 61.9036 152.224C61.3436 152.224 60.9116 152.08 60.6076 151.792C60.3036 151.488 60.1516 151.08 60.1516 150.568ZM70.9066 156.352C71.6746 154.8 72.9066 154.024 74.6026 154.024C76.0426 154.024 77.1226 154.496 77.8426 155.44C78.5786 156.384 78.9466 157.632 78.9466 159.184V166H76.1146V159.184C76.1146 158.32 75.9066 157.672 75.4906 157.24C75.0746 156.792 74.4906 156.568 73.7386 156.568C72.9866 156.568 72.3386 156.904 71.7946 157.576C71.2666 158.248 70.9866 159.256 70.9546 160.6V166H68.1226V154.336H70.5946L70.9066 156.352ZM84.0838 161.224C83.1398 160.424 82.6678 159.424 82.6678 158.224C82.6678 156.96 83.1638 155.936 84.1558 155.152C85.1158 154.4 86.2118 154.024 87.4438 154.024C88.6918 154.024 89.7318 154.256 90.5638 154.72C90.6598 153.808 91.0518 153.072 91.7398 152.512C92.4118 151.952 93.2038 151.672 94.1158 151.672L93.9718 154.384C92.5958 154.384 91.8838 154.84 91.8358 155.752C92.4278 156.488 92.7238 157.24 92.7238 158.008C92.7238 158.776 92.5878 159.424 92.3158 159.952C92.0438 160.464 91.6758 160.896 91.2118 161.248C90.2518 162.016 89.0838 162.4 87.7078 162.4C86.9238 162.4 86.2118 162.28 85.5718 162.04C84.9318 162.232 84.6118 162.616 84.6118 163.192C84.6118 163.912 85.2198 164.272 86.4358 164.272H90.3478C93.0038 164.272 94.3318 165.2 94.3318 167.056C94.3318 167.68 94.1718 168.288 93.8518 168.88C93.5478 169.488 93.0998 170.024 92.5078 170.488C91.1958 171.512 89.5478 172.024 87.5638 172.024C85.6438 172.024 84.0838 171.632 82.8838 170.848C81.7638 170.096 81.2038 169.176 81.2038 168.088C81.2038 167.368 81.4198 166.792 81.8518 166.36C82.2998 165.944 82.8838 165.68 83.6038 165.568C82.6598 164.992 82.1878 164.28 82.1878 163.432C82.1878 162.872 82.3638 162.408 82.7158 162.04C83.0678 161.656 83.5238 161.384 84.0838 161.224ZM86.2438 166.264C84.7398 166.328 83.9878 166.896 83.9878 167.968C83.9878 168.512 84.2998 168.944 84.9238 169.264C85.5638 169.6 86.3158 169.768 87.1797 169.768C88.0438 169.768 88.7158 169.696 89.1958 169.552C89.6918 169.408 90.1078 169.216 90.4438 168.976C91.1638 168.496 91.5238 167.92 91.5238 167.248C91.5238 166.96 91.4198 166.72 91.2118 166.528C91.0198 166.352 90.7318 166.264 90.3478 166.264H86.2438ZM89.9158 158.2C89.9158 157.544 89.7318 157.016 89.3638 156.616C89.0118 156.2 88.4678 155.992 87.7318 155.992C86.9958 155.992 86.4358 156.2 86.0518 156.616C85.6678 157.016 85.4758 157.544 85.4758 158.2C85.4758 158.84 85.6678 159.368 86.0518 159.784C86.4358 160.2 86.9958 160.408 87.7318 160.408C88.4678 160.408 89.0118 160.2 89.3638 159.784C89.7318 159.368 89.9158 158.84 89.9158 158.2ZM106.715 150.424H110.267L115.379 166H112.379L111.299 162.64H105.515L104.411 166H101.411L106.715 150.424ZM106.235 160.504H110.603L108.443 153.808L106.235 160.504ZM125.746 164.2C125.026 165.624 123.922 166.336 122.434 166.336C120.946 166.336 119.698 165.768 118.69 164.632C117.65 163.448 117.13 161.944 117.13 160.12C117.13 158.296 117.626 156.816 118.618 155.68C119.594 154.576 120.81 154.024 122.266 154.024C123.722 154.024 124.818 154.608 125.554 155.776V149.536H128.41V166H126.082L125.746 164.2ZM122.794 156.568C121.994 156.568 121.322 156.896 120.778 157.552C120.25 158.192 119.986 159.056 119.986 160.144C119.986 161.232 120.258 162.112 120.802 162.784C121.346 163.44 122.034 163.768 122.866 163.768C123.554 163.768 124.17 163.496 124.714 162.952C125.274 162.392 125.554 161.688 125.554 160.84V159.328C125.522 158.496 125.242 157.816 124.714 157.288C124.234 156.808 123.594 156.568 122.794 156.568ZM140.488 164.2C139.768 165.624 138.664 166.336 137.176 166.336C135.688 166.336 134.44 165.768 133.432 164.632C132.392 163.448 131.872 161.944 131.872 160.12C131.872 158.296 132.368 156.816 133.36 155.68C134.336 154.576 135.552 154.024 137.008 154.024C138.464 154.024 139.56 154.608 140.296 155.776V149.536H143.152V166H140.824L140.488 164.2ZM137.536 156.568C136.736 156.568 136.064 156.896 135.52 157.552C134.992 158.192 134.728 159.056 134.728 160.144C134.728 161.232 135 162.112 135.544 162.784C136.088 163.44 136.776 163.768 137.608 163.768C138.296 163.768 138.912 163.496 139.456 162.952C140.016 162.392 140.296 161.688 140.296 160.84V159.328C140.264 158.496 139.984 157.816 139.456 157.288C138.976 156.808 138.336 156.568 137.536 156.568ZM150.455 156.64C151.159 154.96 152.215 154.12 153.623 154.12C153.895 154.12 154.239 154.176 154.655 154.288L154.607 157.12C154.159 157.024 153.719 156.976 153.287 156.976C151.399 156.976 150.455 158.28 150.455 160.888V166H147.623V154.312H150.455V156.64ZM165.743 155.728C166.143 156.24 166.439 156.832 166.631 157.504C166.839 158.176 166.943 158.792 166.943 159.352C166.943 159.912 166.911 160.416 166.847 160.864H159.311C159.343 161.808 159.575 162.576 160.007 163.168C160.439 163.76 161.095 164.056 161.975 164.056C163.143 164.056 163.839 163.544 164.063 162.52H166.919C166.727 163.688 166.191 164.608 165.311 165.28C164.399 165.984 163.287 166.336 161.975 166.336C160.439 166.336 159.151 165.776 158.111 164.656C157.039 163.488 156.503 161.992 156.503 160.168C156.503 158.296 157.039 156.792 158.111 155.656C159.135 154.568 160.423 154.024 161.975 154.024C163.591 154.024 164.847 154.592 165.743 155.728ZM161.999 156.28C161.199 156.28 160.575 156.544 160.127 157.072C159.679 157.584 159.415 158.248 159.335 159.064H164.303C164.303 157.8 163.903 156.952 163.103 156.52C162.799 156.36 162.431 156.28 161.999 156.28ZM171.918 162.448C171.95 163.552 172.758 164.104 174.342 164.104C174.95 164.104 175.446 163.976 175.83 163.72C176.23 163.448 176.43 163.136 176.43 162.784C176.43 162.432 176.31 162.16 176.07 161.968C175.83 161.776 175.454 161.6 174.942 161.44L172.398 160.528C170.51 159.872 169.566 158.8 169.566 157.312C169.566 156.32 170.006 155.528 170.886 154.936C171.782 154.328 172.974 154.024 174.462 154.024C175.966 154.024 177.118 154.352 177.918 155.008C178.734 155.664 179.158 156.488 179.19 157.48H176.526C176.494 157.096 176.31 156.792 175.974 156.568C175.638 156.344 175.158 156.232 174.534 156.232C173.91 156.232 173.422 156.36 173.07 156.616C172.734 156.856 172.566 157.136 172.566 157.456C172.566 158.016 173.038 158.432 173.982 158.704L176.742 159.736C177.654 160.04 178.35 160.432 178.83 160.912C179.326 161.376 179.574 161.984 179.574 162.736C179.574 163.696 179.118 164.528 178.206 165.232C177.262 165.968 176.014 166.336 174.462 166.336C172.91 166.336 171.662 166 170.718 165.328C169.774 164.64 169.294 163.68 169.278 162.448H171.918ZM184.574 162.448C184.606 163.552 185.414 164.104 186.998 164.104C187.606 164.104 188.102 163.976 188.486 163.72C188.886 163.448 189.086 163.136 189.086 162.784C189.086 162.432 188.966 162.16 188.726 161.968C188.486 161.776 188.11 161.6 187.598 161.44L185.054 160.528C183.166 159.872 182.222 158.8 182.222 157.312C182.222 156.32 182.662 155.528 183.542 154.936C184.438 154.328 185.63 154.024 187.118 154.024C188.622 154.024 189.774 154.352 190.574 155.008C191.39 155.664 191.814 156.488 191.846 157.48H189.182C189.15 157.096 188.966 156.792 188.63 156.568C188.294 156.344 187.814 156.232 187.19 156.232C186.566 156.232 186.078 156.36 185.726 156.616C185.39 156.856 185.222 157.136 185.222 157.456C185.222 158.016 185.694 158.432 186.638 158.704L189.398 159.736C190.31 160.04 191.006 160.432 191.486 160.912C191.982 161.376 192.23 161.984 192.23 162.736C192.23 163.696 191.774 164.528 190.862 165.232C189.918 165.968 188.67 166.336 187.118 166.336C185.566 166.336 184.318 166 183.374 165.328C182.43 164.64 181.95 163.68 181.934 162.448H184.574Z" fill="white"/>
<path d="M23.388 177.194H24.732L27.686 186H26.538L25.782 183.76H22.282L21.526 186H20.364L23.388 177.194ZM22.576 182.892H25.502L24.046 178.552L22.576 182.892ZM29.4667 176.466H30.5727V186H29.4667V176.466ZM33.3906 176.466H34.4966V186H33.3906V176.466ZM44.1503 185.804C43.3477 186.177 42.615 186.257 41.9523 186.042C41.4763 185.893 41.1403 185.58 40.9443 185.104C40.8417 184.871 40.7903 184.591 40.7903 184.264V180.148H39.7123V179.308H40.7903V177.446H41.8823V179.308H43.9823V180.148H41.8823V184.25C41.8823 184.931 42.1997 185.272 42.8343 185.272C43.1797 185.272 43.567 185.188 43.9963 185.02L44.1503 185.804ZM48.644 180.246C47.5893 180.246 47.0433 181.077 47.006 182.738V186H45.9V179.294H47.006V180.582C47.342 179.649 47.9347 179.182 48.784 179.182C49.0547 179.182 49.3113 179.224 49.554 179.308L49.498 180.386C49.218 180.293 48.9333 180.246 48.644 180.246ZM55.39 181.66C55.39 181.053 55.264 180.619 55.012 180.358C54.76 180.097 54.3914 179.966 53.906 179.966C53.43 179.966 53.0427 180.064 52.744 180.26C52.4547 180.447 52.31 180.745 52.31 181.156H51.092C51.092 180.129 51.6427 179.495 52.744 179.252C53.08 179.177 53.444 179.14 53.836 179.14C54.6667 179.14 55.3154 179.35 55.782 179.77C56.2487 180.19 56.482 180.829 56.482 181.688V186H55.53L55.418 184.88C55.0074 185.729 54.2654 186.154 53.192 186.154C52.4734 186.154 51.8947 185.953 51.456 185.552C51.0267 185.151 50.812 184.651 50.812 184.054C50.812 183.457 51.05 182.99 51.526 182.654C52.0114 182.318 52.6134 182.15 53.332 182.15C54.0507 182.15 54.7367 182.271 55.39 182.514V181.66ZM55.39 183.214C54.7274 183.027 54.1487 182.934 53.654 182.934C53.1594 182.934 52.758 183.023 52.45 183.2C52.142 183.377 51.988 183.657 51.988 184.04C51.988 184.88 52.464 185.3 53.416 185.3C53.9574 185.3 54.4194 185.109 54.802 184.726C55.194 184.334 55.39 183.83 55.39 183.214ZM60.144 180.596C60.5827 179.625 61.334 179.14 62.398 179.14C63.1913 179.14 63.8073 179.401 64.246 179.924C64.694 180.447 64.918 181.161 64.918 182.066V186H63.826V182.066C63.826 181.422 63.672 180.937 63.364 180.61C63.0653 180.283 62.636 180.12 62.076 180.12C61.516 180.12 61.0633 180.349 60.718 180.806C60.3727 181.263 60.1907 181.898 60.172 182.71V186H59.066V179.308H60.018L60.144 180.596ZM67.1656 180.946C67.1656 180.395 67.3989 179.957 67.8656 179.63C68.3416 179.303 68.9809 179.14 69.7836 179.14C70.5862 179.14 71.2116 179.308 71.6596 179.644C72.1169 179.98 72.3549 180.405 72.3736 180.918H71.2956C71.2116 180.311 70.6982 180.008 69.7556 180.008C69.2982 180.008 68.9436 180.111 68.6916 180.316C68.4489 180.521 68.3276 180.745 68.3276 180.988C68.3276 181.221 68.4209 181.422 68.6076 181.59C68.7942 181.749 69.0929 181.889 69.5036 182.01L70.8476 182.458C71.4169 182.635 71.8509 182.864 72.1496 183.144C72.4576 183.415 72.6116 183.793 72.6116 184.278C72.6116 184.754 72.3642 185.188 71.8696 185.58C71.3749 185.963 70.6842 186.154 69.7976 186.154C68.9109 186.154 68.2202 185.958 67.7256 185.566C67.2309 185.165 66.9696 184.651 66.9416 184.026H68.0056C68.0242 184.446 68.1922 184.763 68.5096 184.978C68.8362 185.183 69.2422 185.286 69.7276 185.286C70.2129 185.286 70.6142 185.183 70.9316 184.978C71.2489 184.773 71.4076 184.53 71.4076 184.25C71.4076 183.961 71.3142 183.741 71.1276 183.592C70.9409 183.443 70.6376 183.312 70.2176 183.2L68.9156 182.766C67.7489 182.421 67.1656 181.814 67.1656 180.946ZM79.0287 181.66C79.0287 181.053 78.9027 180.619 78.6507 180.358C78.3987 180.097 78.03 179.966 77.5447 179.966C77.0687 179.966 76.6814 180.064 76.3827 180.26C76.0934 180.447 75.9487 180.745 75.9487 181.156H74.7307C74.7307 180.129 75.2814 179.495 76.3827 179.252C76.7187 179.177 77.0827 179.14 77.4747 179.14C78.3054 179.14 78.954 179.35 79.4207 179.77C79.8874 180.19 80.1207 180.829 80.1207 181.688V186H79.1687L79.0567 184.88C78.646 185.729 77.904 186.154 76.8307 186.154C76.112 186.154 75.5334 185.953 75.0947 185.552C74.6654 185.151 74.4507 184.651 74.4507 184.054C74.4507 183.457 74.6887 182.99 75.1647 182.654C75.65 182.318 76.252 182.15 76.9707 182.15C77.6894 182.15 78.3754 182.271 79.0287 182.514V181.66ZM79.0287 183.214C78.366 183.027 77.7874 182.934 77.2927 182.934C76.798 182.934 76.3967 183.023 76.0887 183.2C75.7807 183.377 75.6267 183.657 75.6267 184.04C75.6267 184.88 76.1027 185.3 77.0547 185.3C77.596 185.3 78.058 185.109 78.4407 184.726C78.8327 184.334 79.0287 183.83 79.0287 183.214ZM84.9447 179.14C85.738 179.14 86.368 179.345 86.8347 179.756C87.3014 180.157 87.6047 180.661 87.7447 181.268L86.6247 181.366C86.5034 180.974 86.3074 180.671 86.0367 180.456C85.766 180.232 85.4674 180.12 85.1407 180.12C84.5434 180.12 84.058 180.344 83.6847 180.792C83.3207 181.24 83.1387 181.851 83.1387 182.626C83.1387 183.391 83.316 184.007 83.6707 184.474C84.0347 184.941 84.4827 185.174 85.0147 185.174C85.556 185.174 85.9574 185.053 86.2187 184.81C86.4894 184.558 86.6247 184.203 86.6247 183.746H87.7587C87.7587 184.465 87.5067 185.048 87.0027 185.496C86.508 185.935 85.8594 186.154 85.0567 186.154C84.2074 186.154 83.484 185.832 82.8867 185.188C82.2987 184.544 82.0047 183.69 82.0047 182.626C82.0047 181.553 82.2987 180.703 82.8867 180.078C83.4747 179.453 84.1607 179.14 84.9447 179.14ZM93.4238 185.804C92.6211 186.177 91.8884 186.257 91.2258 186.042C90.7498 185.893 90.4138 185.58 90.2178 185.104C90.1151 184.871 90.0638 184.591 90.0638 184.264V180.148H88.9858V179.308H90.0638V177.446H91.1558V179.308H93.2558V180.148H91.1558V184.25C91.1558 184.931 91.4731 185.272 92.1078 185.272C92.4531 185.272 92.8404 185.188 93.2698 185.02L93.4238 185.804ZM95.2574 179.294H96.3634V186H95.2574V179.294ZM95.8034 177.726C95.5794 177.726 95.4021 177.665 95.2714 177.544C95.1501 177.413 95.0894 177.245 95.0894 177.04C95.0894 176.825 95.1501 176.657 95.2714 176.536C95.4021 176.405 95.5794 176.34 95.8034 176.34C96.0274 176.34 96.2048 176.405 96.3354 176.536C96.4754 176.657 96.5454 176.825 96.5454 177.04C96.5454 177.245 96.4754 177.413 96.3354 177.544C96.2048 177.665 96.0274 177.726 95.8034 177.726ZM101.779 179.14C102.712 179.14 103.464 179.443 104.033 180.05C104.612 180.657 104.901 181.525 104.901 182.654C104.901 183.774 104.612 184.637 104.033 185.244C103.464 185.851 102.712 186.154 101.779 186.154C100.846 186.154 100.09 185.851 99.511 185.244C98.9417 184.637 98.657 183.774 98.657 182.654C98.657 181.525 98.9417 180.657 99.511 180.05C100.09 179.443 100.846 179.14 101.779 179.14ZM103.781 182.654C103.781 181.851 103.613 181.226 103.277 180.778C102.941 180.321 102.446 180.092 101.793 180.092C101.149 180.092 100.654 180.321 100.309 180.778C99.9637 181.226 99.791 181.851 99.791 182.654C99.791 183.447 99.9544 184.073 100.281 184.53C100.608 184.978 101.093 185.202 101.737 185.202C102.39 185.202 102.894 184.978 103.249 184.53C103.604 184.073 103.781 183.447 103.781 182.654ZM108.078 180.596C108.516 179.625 109.268 179.14 110.332 179.14C111.125 179.14 111.741 179.401 112.18 179.924C112.628 180.447 112.852 181.161 112.852 182.066V186H111.76V182.066C111.76 181.422 111.606 180.937 111.298 180.61C110.999 180.283 110.57 180.12 110.01 180.12C109.45 180.12 108.997 180.349 108.652 180.806C108.306 181.263 108.124 181.898 108.106 182.71V186H107V179.308H107.952L108.078 180.596ZM115.099 180.946C115.099 180.395 115.332 179.957 115.799 179.63C116.275 179.303 116.914 179.14 117.717 179.14C118.52 179.14 119.145 179.308 119.593 179.644C120.05 179.98 120.288 180.405 120.307 180.918H119.229C119.145 180.311 118.632 180.008 117.689 180.008C117.232 180.008 116.877 180.111 116.625 180.316C116.382 180.521 116.261 180.745 116.261 180.988C116.261 181.221 116.354 181.422 116.541 181.59C116.728 181.749 117.026 181.889 117.437 182.01L118.781 182.458C119.35 182.635 119.784 182.864 120.083 183.144C120.391 183.415 120.545 183.793 120.545 184.278C120.545 184.754 120.298 185.188 119.803 185.58C119.308 185.963 118.618 186.154 117.731 186.154C116.844 186.154 116.154 185.958 115.659 185.566C115.164 185.165 114.903 184.651 114.875 184.026H115.939C115.958 184.446 116.126 184.763 116.443 184.978C116.77 185.183 117.176 185.286 117.661 185.286C118.146 185.286 118.548 185.183 118.865 184.978C119.182 184.773 119.341 184.53 119.341 184.25C119.341 183.961 119.248 183.741 119.061 183.592C118.874 183.443 118.571 183.312 118.151 183.2L116.849 182.766C115.682 182.421 115.099 181.814 115.099 180.946ZM130.298 181.66C130.298 181.053 130.172 180.619 129.92 180.358C129.668 180.097 129.3 179.966 128.814 179.966C128.338 179.966 127.951 180.064 127.652 180.26C127.363 180.447 127.218 180.745 127.218 181.156H126C126 180.129 126.551 179.495 127.652 179.252C127.988 179.177 128.352 179.14 128.744 179.14C129.575 179.14 130.224 179.35 130.69 179.77C131.157 180.19 131.39 180.829 131.39 181.688V186H130.438L130.326 184.88C129.916 185.729 129.174 186.154 128.1 186.154C127.382 186.154 126.803 185.953 126.364 185.552C125.935 185.151 125.72 184.651 125.72 184.054C125.72 183.457 125.958 182.99 126.434 182.654C126.92 182.318 127.522 182.15 128.24 182.15C128.959 182.15 129.645 182.271 130.298 182.514V181.66ZM130.298 183.214C129.636 183.027 129.057 182.934 128.562 182.934C128.068 182.934 127.666 183.023 127.358 183.2C127.05 183.377 126.896 183.657 126.896 184.04C126.896 184.88 127.372 185.3 128.324 185.3C128.866 185.3 129.328 185.109 129.71 184.726C130.102 184.334 130.298 183.83 130.298 183.214ZM136.718 180.246C135.664 180.246 135.118 181.077 135.08 182.738V186H133.974V179.294H135.08V180.582C135.416 179.649 136.009 179.182 136.858 179.182C137.129 179.182 137.386 179.224 137.628 179.308L137.572 180.386C137.292 180.293 137.008 180.246 136.718 180.246ZM141.63 185.258C142.554 185.258 143.082 184.852 143.212 184.04H144.346C144.244 184.712 143.945 185.235 143.45 185.608C142.965 185.972 142.358 186.154 141.63 186.154C140.734 186.154 140.006 185.837 139.446 185.202C138.886 184.558 138.606 183.704 138.606 182.64C138.606 181.576 138.886 180.727 139.446 180.092C140.016 179.457 140.767 179.14 141.7 179.14C142.643 179.14 143.343 179.504 143.8 180.232C144.267 180.96 144.43 181.847 144.29 182.892H139.712C139.712 183.583 139.88 184.152 140.216 184.6C140.552 185.039 141.024 185.258 141.63 185.258ZM142.442 180.19C142.228 180.078 141.966 180.022 141.658 180.022C141.089 180.022 140.636 180.218 140.3 180.61C139.974 180.993 139.782 181.473 139.726 182.052H143.296C143.296 181.119 143.012 180.498 142.442 180.19ZM149.511 180.946C149.511 180.395 149.745 179.957 150.211 179.63C150.687 179.303 151.327 179.14 152.129 179.14C152.932 179.14 153.557 179.308 154.005 179.644C154.463 179.98 154.701 180.405 154.719 180.918H153.641C153.557 180.311 153.044 180.008 152.101 180.008C151.644 180.008 151.289 180.111 151.037 180.316C150.795 180.521 150.673 180.745 150.673 180.988C150.673 181.221 150.767 181.422 150.953 181.59C151.14 181.749 151.439 181.889 151.849 182.01L153.193 182.458C153.763 182.635 154.197 182.864 154.495 183.144C154.803 183.415 154.957 183.793 154.957 184.278C154.957 184.754 154.71 185.188 154.215 185.58C153.721 185.963 153.03 186.154 152.143 186.154C151.257 186.154 150.566 185.958 150.071 185.566C149.577 185.165 149.315 184.651 149.287 184.026H150.351C150.37 184.446 150.538 184.763 150.855 184.978C151.182 185.183 151.588 185.286 152.073 185.286C152.559 185.286 152.96 185.183 153.277 184.978C153.595 184.773 153.753 184.53 153.753 184.25C153.753 183.961 153.66 183.741 153.473 183.592C153.287 183.443 152.983 183.312 152.563 183.2L151.261 182.766C150.095 182.421 149.511 181.814 149.511 180.946ZM159.54 185.258C160.464 185.258 160.992 184.852 161.122 184.04H162.256C162.154 184.712 161.855 185.235 161.36 185.608C160.875 185.972 160.268 186.154 159.54 186.154C158.644 186.154 157.916 185.837 157.356 185.202C156.796 184.558 156.516 183.704 156.516 182.64C156.516 181.576 156.796 180.727 157.356 180.092C157.926 179.457 158.677 179.14 159.61 179.14C160.553 179.14 161.253 179.504 161.71 180.232C162.177 180.96 162.34 181.847 162.2 182.892H157.622C157.622 183.583 157.79 184.152 158.126 184.6C158.462 185.039 158.934 185.258 159.54 185.258ZM160.352 180.19C160.138 180.078 159.876 180.022 159.568 180.022C158.999 180.022 158.546 180.218 158.21 180.61C157.884 180.993 157.692 181.473 157.636 182.052H161.206C161.206 181.119 160.922 180.498 160.352 180.19ZM166.661 179.14C167.455 179.14 168.085 179.345 168.551 179.756C169.018 180.157 169.321 180.661 169.461 181.268L168.341 181.366C168.22 180.974 168.024 180.671 167.753 180.456C167.483 180.232 167.184 180.12 166.857 180.12C166.26 180.12 165.775 180.344 165.401 180.792C165.037 181.24 164.855 181.851 164.855 182.626C164.855 183.391 165.033 184.007 165.387 184.474C165.751 184.941 166.199 185.174 166.731 185.174C167.273 185.174 167.674 185.053 167.935 184.81C168.206 184.558 168.341 184.203 168.341 183.746H169.475C169.475 184.465 169.223 185.048 168.719 185.496C168.225 185.935 167.576 186.154 166.773 186.154C165.924 186.154 165.201 185.832 164.603 185.188C164.015 184.544 163.721 183.69 163.721 182.626C163.721 181.553 164.015 180.703 164.603 180.078C165.191 179.453 165.877 179.14 166.661 179.14ZM176.191 184.67C175.733 185.641 174.991 186.126 173.965 186.126C173.209 186.126 172.597 185.916 172.131 185.496C171.673 185.076 171.445 184.427 171.445 183.55V179.294H172.551V183.466C172.551 184.595 173.073 185.16 174.119 185.16C174.725 185.16 175.215 184.927 175.589 184.46C175.971 183.993 176.172 183.396 176.191 182.668V179.294H177.297V186H176.191V184.67ZM182.861 180.246C181.806 180.246 181.26 181.077 181.223 182.738V186H180.117V179.294H181.223V180.582C181.559 179.649 182.151 179.182 183.001 179.182C183.271 179.182 183.528 179.224 183.771 179.308L183.715 180.386C183.435 180.293 183.15 180.246 182.861 180.246ZM187.773 185.258C188.697 185.258 189.224 184.852 189.355 184.04H190.489C190.386 184.712 190.087 185.235 189.593 185.608C189.107 185.972 188.501 186.154 187.773 186.154C186.877 186.154 186.149 185.837 185.589 185.202C185.029 184.558 184.749 183.704 184.749 182.64C184.749 181.576 185.029 180.727 185.589 180.092C186.158 179.457 186.909 179.14 187.843 179.14C188.785 179.14 189.485 179.504 189.943 180.232C190.409 180.96 190.573 181.847 190.433 182.892H185.855C185.855 183.583 186.023 184.152 186.359 184.6C186.695 185.039 187.166 185.258 187.773 185.258ZM188.585 180.19C188.37 180.078 188.109 180.022 187.801 180.022C187.231 180.022 186.779 180.218 186.443 180.61C186.116 180.993 185.925 181.473 185.869 182.052H189.439C189.439 181.119 189.154 180.498 188.585 180.19ZM200.148 181.66C200.148 181.053 200.022 180.619 199.77 180.358C199.518 180.097 199.149 179.966 198.664 179.966C198.188 179.966 197.801 180.064 197.502 180.26C197.213 180.447 197.068 180.745 197.068 181.156H195.85C195.85 180.129 196.401 179.495 197.502 179.252C197.838 179.177 198.202 179.14 198.594 179.14C199.425 179.14 200.073 179.35 200.54 179.77C201.007 180.19 201.24 180.829 201.24 181.688V186H200.288L200.176 184.88C199.765 185.729 199.023 186.154 197.95 186.154C197.231 186.154 196.653 185.953 196.214 185.552C195.785 185.151 195.57 184.651 195.57 184.054C195.57 183.457 195.808 182.99 196.284 182.654C196.769 182.318 197.371 182.15 198.09 182.15C198.809 182.15 199.495 182.271 200.148 182.514V181.66ZM200.148 183.214C199.485 183.027 198.907 182.934 198.412 182.934C197.917 182.934 197.516 183.023 197.208 183.2C196.9 183.377 196.746 183.657 196.746 184.04C196.746 184.88 197.222 185.3 198.174 185.3C198.715 185.3 199.177 185.109 199.56 184.726C199.952 184.334 200.148 183.83 200.148 183.214ZM204.902 180.596C205.34 179.625 206.092 179.14 207.156 179.14C207.949 179.14 208.565 179.401 209.004 179.924C209.452 180.447 209.676 181.161 209.676 182.066V186H208.584V182.066C208.584 181.422 208.43 180.937 208.122 180.61C207.823 180.283 207.394 180.12 206.834 180.12C206.274 180.12 205.821 180.349 205.476 180.806C205.13 181.263 204.948 181.898 204.93 182.71V186H203.824V179.308H204.776L204.902 180.596ZM216.655 180.302V176.466H217.747V186H216.851L216.711 184.88C216.497 185.3 216.212 185.617 215.857 185.832C215.503 186.047 215.115 186.154 214.695 186.154C213.846 186.154 213.132 185.827 212.553 185.174C211.984 184.521 211.699 183.671 211.699 182.626C211.699 181.571 211.979 180.727 212.539 180.092C213.109 179.457 213.823 179.14 214.681 179.14C215.549 179.14 216.207 179.527 216.655 180.302ZM214.751 180.12C214.21 180.12 213.753 180.349 213.379 180.806C213.015 181.263 212.833 181.875 212.833 182.64C212.833 183.405 213.02 184.021 213.393 184.488C213.767 184.945 214.215 185.174 214.737 185.174C215.26 185.174 215.703 185.001 216.067 184.656C216.441 184.301 216.637 183.83 216.655 183.242V182.15C216.655 181.525 216.473 181.03 216.109 180.666C215.745 180.302 215.293 180.12 214.751 180.12ZM226.232 185.258C227.156 185.258 227.683 184.852 227.814 184.04H228.948C228.845 184.712 228.546 185.235 228.052 185.608C227.566 185.972 226.96 186.154 226.232 186.154C225.336 186.154 224.608 185.837 224.048 185.202C223.488 184.558 223.208 183.704 223.208 182.64C223.208 181.576 223.488 180.727 224.048 180.092C224.617 179.457 225.368 179.14 226.302 179.14C227.244 179.14 227.944 179.504 228.402 180.232C228.868 180.96 229.032 181.847 228.892 182.892H224.314C224.314 183.583 224.482 184.152 224.818 184.6C225.154 185.039 225.625 185.258 226.232 185.258ZM227.044 180.19C226.829 180.078 226.568 180.022 226.26 180.022C225.69 180.022 225.238 180.218 224.902 180.61C224.575 180.993 224.384 181.473 224.328 182.052H227.898C227.898 181.119 227.613 180.498 227.044 180.19ZM232.191 180.596C232.63 179.625 233.381 179.14 234.445 179.14C235.238 179.14 235.854 179.401 236.293 179.924C236.741 180.447 236.965 181.161 236.965 182.066V186H235.873V182.066C235.873 181.422 235.719 180.937 235.411 180.61C235.112 180.283 234.683 180.12 234.123 180.12C233.563 180.12 233.11 180.349 232.765 180.806C232.42 181.263 232.238 181.898 232.219 182.71V186H231.113V179.308H232.065L232.191 180.596ZM241.788 179.14C242.582 179.14 243.212 179.345 243.678 179.756C244.145 180.157 244.448 180.661 244.588 181.268L243.468 181.366C243.347 180.974 243.151 180.671 242.88 180.456C242.61 180.232 242.311 180.12 241.984 180.12C241.387 180.12 240.902 180.344 240.528 180.792C240.164 181.24 239.982 181.851 239.982 182.626C239.982 183.391 240.16 184.007 240.514 184.474C240.878 184.941 241.326 185.174 241.858 185.174C242.4 185.174 242.801 185.053 243.062 184.81C243.333 184.558 243.468 184.203 243.468 183.746H244.602C244.602 184.465 244.35 185.048 243.846 185.496C243.352 185.935 242.703 186.154 241.9 186.154C241.051 186.154 240.328 185.832 239.73 185.188C239.142 184.544 238.848 183.69 238.848 182.626C238.848 181.553 239.142 180.703 239.73 180.078C240.318 179.453 241.004 179.14 241.788 179.14ZM249.498 180.246C248.443 180.246 247.897 181.077 247.86 182.738V186H246.754V179.294H247.86V180.582C248.196 179.649 248.788 179.182 249.638 179.182C249.908 179.182 250.165 179.224 250.408 179.308L250.352 180.386C250.072 180.293 249.787 180.246 249.498 180.246ZM250.756 187.946C251.213 188.301 251.694 188.478 252.198 188.478C252.571 188.478 252.893 188.291 253.164 187.918C253.36 187.647 253.537 187.237 253.696 186.686L253.892 186L251.148 179.308H252.38L254.41 184.642L255.992 179.308H257.112L254.606 187.33C254.391 188.011 254.106 188.534 253.752 188.898C253.406 189.262 252.963 189.444 252.422 189.444C251.89 189.444 251.334 189.281 250.756 188.954V187.946ZM259.917 180.33C260.355 179.537 261.009 179.14 261.877 179.14C262.754 179.14 263.482 179.462 264.061 180.106C264.649 180.75 264.943 181.599 264.943 182.654C264.943 183.709 264.649 184.558 264.061 185.202C263.473 185.837 262.749 186.154 261.891 186.154C261.032 186.154 260.397 185.832 259.987 185.188V189.29H258.881V179.308H259.791L259.917 180.33ZM261.835 185.174C262.357 185.174 262.815 184.95 263.207 184.502C263.608 184.054 263.809 183.443 263.809 182.668C263.809 181.884 263.617 181.263 263.235 180.806C262.861 180.349 262.404 180.12 261.863 180.12C261.321 180.12 260.878 180.293 260.533 180.638C260.187 180.974 260.005 181.431 259.987 182.01V183.284C259.987 183.872 260.164 184.334 260.519 184.67C260.873 185.006 261.312 185.174 261.835 185.174ZM270.693 185.804C269.891 186.177 269.158 186.257 268.495 186.042C268.019 185.893 267.683 185.58 267.487 185.104C267.385 184.871 267.333 184.591 267.333 184.264V180.148H266.255V179.308H267.333V177.446H268.425V179.308H270.525V180.148H268.425V184.25C268.425 184.931 268.743 185.272 269.377 185.272C269.723 185.272 270.11 185.188 270.539 185.02L270.693 185.804ZM274.767 185.258C275.691 185.258 276.218 184.852 276.349 184.04H277.483C277.38 184.712 277.082 185.235 276.587 185.608C276.102 185.972 275.495 186.154 274.767 186.154C273.871 186.154 273.143 185.837 272.583 185.202C272.023 184.558 271.743 183.704 271.743 182.64C271.743 181.576 272.023 180.727 272.583 180.092C273.152 179.457 273.904 179.14 274.837 179.14C275.78 179.14 276.48 179.504 276.937 180.232C277.404 180.96 277.567 181.847 277.427 182.892H272.849C272.849 183.583 273.017 184.152 273.353 184.6C273.689 185.039 274.16 185.258 274.767 185.258ZM275.579 180.19C275.364 180.078 275.103 180.022 274.795 180.022C274.226 180.022 273.773 180.218 273.437 180.61C273.11 180.993 272.919 181.473 272.863 182.052H276.433C276.433 181.119 276.148 180.498 275.579 180.19ZM284.044 180.302V176.466H285.136V186H284.24L284.1 184.88C283.885 185.3 283.601 185.617 283.246 185.832C282.891 186.047 282.504 186.154 282.084 186.154C281.235 186.154 280.521 185.827 279.942 185.174C279.373 184.521 279.088 183.671 279.088 182.626C279.088 181.571 279.368 180.727 279.928 180.092C280.497 179.457 281.211 179.14 282.07 179.14C282.938 179.14 283.596 179.527 284.044 180.302ZM282.14 180.12C281.599 180.12 281.141 180.349 280.768 180.806C280.404 181.263 280.222 181.875 280.222 182.64C280.222 183.405 280.409 184.021 280.782 184.488C281.155 184.945 281.603 185.174 282.126 185.174C282.649 185.174 283.092 185.001 283.456 184.656C283.829 184.301 284.025 183.83 284.044 183.242V182.15C284.044 181.525 283.862 181.03 283.498 180.666C283.134 180.302 282.681 180.12 282.14 180.12ZM287.793 186.126C287.559 186.126 287.363 186.051 287.205 185.902C287.055 185.743 286.981 185.557 286.981 185.342C286.981 185.118 287.055 184.931 287.205 184.782C287.363 184.623 287.559 184.544 287.793 184.544C288.035 184.544 288.236 184.623 288.395 184.782C288.553 184.931 288.633 185.118 288.633 185.342C288.633 185.557 288.553 185.743 288.395 185.902C288.236 186.051 288.035 186.126 287.793 186.126Z" fill="white"/>
<mask id="path-18-inside-1" fill="white">
<path fill-rule="evenodd" clip-rule="evenodd" d="M119.575 16L122.216 30.2474C123.773 30.5625 125.251 31.0959 126.617 31.8143L137.235 21.7382L130.891 35.0399C131.928 36.1247 132.819 37.3502 133.533 38.6848L148.15 36.761L135.258 43.7612C135.326 44.1693 135.378 44.5824 135.416 45L299.999 45V47L135.474 47C135.459 47.4692 135.426 47.9336 135.373 48.3922L148.15 55.3301L133.947 53.4608C133.234 54.9941 132.294 56.4002 131.17 57.6356L137.235 70.3529L127.205 60.8351C125.631 61.7468 123.893 62.4069 122.046 62.7605L119.575 76.0911L117.141 62.9629C115.118 62.7479 113.203 62.1686 111.464 61.2919L101.915 70.3529L107.547 58.544C106.066 57.1479 104.843 55.482 103.955 53.625L91 55.3301L102.542 49.0628C102.411 48.2235 102.343 47.3633 102.343 46.4872C102.343 45.329 102.462 44.1986 102.688 43.1075L91 36.761L104.38 38.5219C105.282 36.8785 106.456 35.4048 107.839 34.1608L101.915 21.7382L112.083 31.3865C113.604 30.6972 115.249 30.2311 116.974 30.0301L119.575 16Z"/>
</mask>
<path fill-rule="evenodd" clip-rule="evenodd" d="M119.575 16L122.216 30.2474C123.773 30.5625 125.251 31.0959 126.617 31.8143L137.235 21.7382L130.891 35.0399C131.928 36.1247 132.819 37.3502 133.533 38.6848L148.15 36.761L135.258 43.7612C135.326 44.1693 135.378 44.5824 135.416 45L299.999 45V47L135.474 47C135.459 47.4692 135.426 47.9336 135.373 48.3922L148.15 55.3301L133.947 53.4608C133.234 54.9941 132.294 56.4002 131.17 57.6356L137.235 70.3529L127.205 60.8351C125.631 61.7468 123.893 62.4069 122.046 62.7605L119.575 76.0911L117.141 62.9629C115.118 62.7479 113.203 62.1686 111.464 61.2919L101.915 70.3529L107.547 58.544C106.066 57.1479 104.843 55.482 103.955 53.625L91 55.3301L102.542 49.0628C102.411 48.2235 102.343 47.3633 102.343 46.4872C102.343 45.329 102.462 44.1986 102.688 43.1075L91 36.761L104.38 38.5219C105.282 36.8785 106.456 35.4048 107.839 34.1608L101.915 21.7382L112.083 31.3865C113.604 30.6972 115.249 30.2311 116.974 30.0301L119.575 16Z" fill="white"/>
<path d="M122.216 30.2474L121.233 30.4297L121.356 31.0936L122.018 31.2275L122.216 30.2474ZM119.575 16L120.558 15.8177L118.592 15.8177L119.575 16ZM126.617 31.8143L126.151 32.6993L126.785 33.033L127.305 32.5397L126.617 31.8143ZM137.235 21.7382L138.138 22.1687L136.547 21.0128L137.235 21.7382ZM130.891 35.0399L129.989 34.6094L129.692 35.2322L130.168 35.7309L130.891 35.0399ZM133.533 38.6848L132.651 39.1564L132.978 39.7665L133.664 39.6762L133.533 38.6848ZM148.15 36.761L148.627 37.6398L148.02 35.7695L148.15 36.761ZM135.258 43.7612L134.781 42.8824L134.155 43.2221L134.272 43.9245L135.258 43.7612ZM135.416 45L134.42 45.0886L134.501 46H135.416V45ZM299.999 45H300.999V44H299.999V45ZM299.999 47V48H300.999V47H299.999ZM135.474 47V46H134.504L134.474 46.9696L135.474 47ZM135.373 48.3922L134.38 48.2785L134.303 48.949L134.896 49.271L135.373 48.3922ZM148.15 55.3301L148.02 56.3216L148.627 54.4513L148.15 55.3301ZM133.947 53.4608L134.077 52.4693L133.349 52.3735L133.04 53.0394L133.947 53.4608ZM131.17 57.6356L130.43 56.9626L129.978 57.4596L130.267 58.0661L131.17 57.6356ZM137.235 70.3529L136.547 71.0783L138.138 69.9224L137.235 70.3529ZM127.205 60.8351L127.893 60.1097L127.351 59.5949L126.704 59.9697L127.205 60.8351ZM122.046 62.7605L121.858 61.7783L121.187 61.9067L121.063 62.5782L122.046 62.7605ZM119.575 76.0911L118.592 76.2734H120.558L119.575 76.0911ZM117.141 62.9629L118.125 62.7807L117.989 62.0473L117.247 61.9685L117.141 62.9629ZM111.464 61.2919L111.914 60.3989L111.286 60.0823L110.775 60.5665L111.464 61.2919ZM101.915 70.3529L101.012 69.9224L102.603 71.0783L101.915 70.3529ZM107.547 58.544L108.449 58.9745L108.763 58.3166L108.233 57.8165L107.547 58.544ZM103.955 53.625L104.857 53.1937L104.544 52.5389L103.824 52.6336L103.955 53.625ZM91 55.3301L90.5228 54.4513L91.1305 56.3216L91 55.3301ZM102.542 49.0628L103.019 49.9416L103.639 49.6052L103.53 48.9086L102.542 49.0628ZM102.688 43.1075L103.667 43.3104L103.818 42.5831L103.165 42.2287L102.688 43.1075ZM91 36.761L91.1305 35.7695L90.5228 37.6398L91 36.761ZM104.38 38.5219L104.249 39.5134L104.927 39.6026L105.256 39.0034L104.38 38.5219ZM107.839 34.1608L108.508 34.9046L109.064 34.4049L108.742 33.7304L107.839 34.1608ZM101.915 21.7382L102.603 21.0128L101.012 22.1687L101.915 21.7382ZM112.083 31.3865L111.394 32.1119L111.882 32.575L112.495 32.2974L112.083 31.3865ZM116.974 30.0301L117.09 31.0234L117.823 30.938L117.957 30.2124L116.974 30.0301ZM123.199 30.0651L120.558 15.8177L118.592 16.1823L121.233 30.4297L123.199 30.0651ZM127.082 30.9293C125.634 30.1674 124.066 29.6015 122.414 29.2673L122.018 31.2275C123.48 31.5235 124.868 32.0244 126.151 32.6993L127.082 30.9293ZM136.547 21.0128L125.928 31.0889L127.305 32.5397L137.924 22.4636L136.547 21.0128ZM131.794 35.4704L138.138 22.1687L136.333 21.3077L129.989 34.6094L131.794 35.4704ZM134.415 38.2132C133.658 36.7979 132.713 35.4988 131.614 34.3489L130.168 35.7309C131.143 36.7507 131.981 37.9025 132.651 39.1564L134.415 38.2132ZM148.02 35.7695L133.403 37.6933L133.664 39.6762L148.281 37.7524L148.02 35.7695ZM135.735 44.64L148.627 37.6398L147.673 35.8822L134.781 42.8824L135.735 44.64ZM136.412 44.9114C136.372 44.4687 136.316 44.0307 136.245 43.5979L134.272 43.9245C134.335 44.3079 134.385 44.6961 134.42 45.0886L136.412 44.9114ZM135.416 46L299.999 46V44L135.416 44V46ZM298.999 45V47H300.999V45H298.999ZM299.999 46L135.474 46V48L299.999 48V46ZM136.367 48.506C136.422 48.0197 136.458 47.5275 136.473 47.0304L134.474 46.9696C134.461 47.411 134.429 47.8475 134.38 48.2785L136.367 48.506ZM148.627 54.4513L135.85 47.5134L134.896 49.271L147.673 56.2089L148.627 54.4513ZM133.816 54.4522L148.02 56.3216L148.281 54.3387L134.077 52.4693L133.816 54.4522ZM131.91 58.3087C133.101 56.9992 134.098 55.5084 134.854 53.8821L133.04 53.0394C132.371 54.4797 131.487 55.8012 130.43 56.9626L131.91 58.3087ZM138.138 69.9224L132.073 57.2052L130.267 58.0661L136.333 70.7834L138.138 69.9224ZM126.517 61.5605L136.547 71.0783L137.924 69.6275L127.893 60.1097L126.517 61.5605ZM122.234 63.7426C124.193 63.3676 126.037 62.6673 127.706 61.7004L126.704 59.9697C125.225 60.8263 123.593 61.4463 121.858 61.7783L122.234 63.7426ZM120.558 76.2734L123.029 62.9427L121.063 62.5782L118.592 75.9088L120.558 76.2734ZM116.158 63.1452L118.592 76.2734L120.558 75.9088L118.125 62.7807L116.158 63.1452ZM111.014 62.1848C112.858 63.1148 114.89 63.7293 117.036 63.9573L117.247 61.9685C115.346 61.7665 113.547 61.2224 111.914 60.3989L111.014 62.1848ZM102.603 71.0783L112.152 62.0173L110.775 60.5665L101.226 69.6275L102.603 71.0783ZM106.644 58.1136L101.012 69.9224L102.817 70.7834L108.449 58.9745L106.644 58.1136ZM103.053 54.0564C103.994 56.0259 105.291 57.7918 106.861 59.2716L108.233 57.8165C106.841 56.5039 105.691 54.9382 104.857 53.1937L103.053 54.0564ZM91.1305 56.3216L104.085 54.6165L103.824 52.6336L90.8695 54.3387L91.1305 56.3216ZM102.065 48.184L90.5228 54.4513L91.4772 56.2089L103.019 49.9416L102.065 48.184ZM101.343 46.4872C101.343 47.4151 101.415 48.3269 101.554 49.217L103.53 48.9086C103.407 48.1201 103.343 47.3115 103.343 46.4872H101.343ZM101.709 42.9046C101.469 44.0621 101.343 45.2605 101.343 46.4872H103.343C103.343 45.3976 103.455 44.3352 103.667 43.3104L101.709 42.9046ZM90.5228 37.6398L102.211 43.9863L103.165 42.2287L91.4772 35.8822L90.5228 37.6398ZM104.51 37.5305L91.1305 35.7695L90.8695 37.7524L104.249 39.5134L104.51 37.5305ZM107.171 33.4171C105.704 34.7357 104.46 36.2978 103.503 38.0405L105.256 39.0034C106.104 37.4593 107.207 36.074 108.508 34.9046L107.171 33.4171ZM101.012 22.1687L106.937 34.5913L108.742 33.7304L102.817 21.3077L101.012 22.1687ZM112.771 30.6611L102.603 21.0128L101.226 22.4636L111.394 32.1119L112.771 30.6611ZM116.858 29.0368C115.029 29.25 113.284 29.7443 111.67 30.4756L112.495 32.2974C113.924 31.65 115.469 31.2122 117.09 31.0234L116.858 29.0368ZM118.592 15.8177L115.991 29.8478L117.957 30.2124L120.558 16.1823L118.592 15.8177Z" fill="white" mask="url(#path-18-inside-1)"/>
<path d="M297.075 21.6698L302.419 38.1195L302.532 38.465H302.895H320.191L306.198 48.6314L305.904 48.845L306.017 49.1905L311.361 65.6402L297.369 55.4737L297.075 55.2602L296.781 55.4737L282.788 65.6402L288.133 49.1905L288.245 48.845L287.951 48.6314L273.958 38.465H291.254H291.618L291.73 38.1195L297.075 21.6698Z" fill="white" stroke="white"/>
<mask id="path-21-inside-2" fill="white">
<path fill-rule="evenodd" clip-rule="evenodd" d="M194.648 67.2591C203.107 64.401 209.197 56.3999 209.197 46.9765C209.197 37.5532 203.107 29.5521 194.648 26.694C196.801 25.9667 199.106 25.5724 201.504 25.5724C213.325 25.5724 222.908 35.1554 222.908 46.9765C222.908 58.7977 213.325 68.3807 201.504 68.3807C199.106 68.3807 196.801 67.9864 194.648 67.2591Z"/>
</mask>
<path fill-rule="evenodd" clip-rule="evenodd" d="M194.648 67.2591C203.107 64.401 209.197 56.3999 209.197 46.9765C209.197 37.5532 203.107 29.5521 194.648 26.694C196.801 25.9667 199.106 25.5724 201.504 25.5724C213.325 25.5724 222.908 35.1554 222.908 46.9765C222.908 58.7977 213.325 68.3807 201.504 68.3807C199.106 68.3807 196.801 67.9864 194.648 67.2591Z" fill="#DFBC60"/>
<path d="M194.648 67.2591L194.328 66.3117L191.525 67.2591L194.328 68.2065L194.648 67.2591ZM194.648 26.694L194.328 25.7466L191.525 26.694L194.328 27.6414L194.648 26.694ZM208.197 46.9765C208.197 55.9581 202.393 63.5867 194.328 66.3117L194.969 68.2065C203.821 65.2152 210.197 56.8417 210.197 46.9765H208.197ZM194.328 27.6414C202.393 30.3664 208.197 37.995 208.197 46.9765H210.197C210.197 37.1114 203.821 28.7379 194.969 25.7466L194.328 27.6414ZM194.969 27.6414C197.019 26.9485 199.217 26.5724 201.504 26.5724V24.5724C198.996 24.5724 196.582 24.9849 194.328 25.7466L194.969 27.6414ZM201.504 26.5724C212.773 26.5724 221.908 35.7077 221.908 46.9765H223.908C223.908 34.6031 213.878 24.5724 201.504 24.5724V26.5724ZM221.908 46.9765C221.908 58.2454 212.773 67.3807 201.504 67.3807V69.3807C213.878 69.3807 223.908 59.35 223.908 46.9765H221.908ZM201.504 67.3807C199.217 67.3807 197.019 67.0046 194.969 66.3117L194.328 68.2065C196.582 68.9682 198.996 69.3807 201.504 69.3807V67.3807Z" fill="white" mask="url(#path-21-inside-2)"/>
<path d="M117.686 41.88C118.311 41.796 118.857 41.558 119.324 41.166H120.22V50H119.128V42.482C118.661 42.7807 118.181 42.944 117.686 42.972V41.88Z" fill="#181827"/>
<path d="M213 48.978H218.11V50H211.894V48.698C211.894 47.662 212.286 46.9013 213.07 46.416C213.322 46.2573 213.602 46.1173 213.91 45.996L215.646 45.296C216.542 44.9413 216.99 44.358 216.99 43.546C216.99 43.098 216.836 42.734 216.528 42.454C216.22 42.1647 215.786 42.02 215.226 42.02C214.675 42.02 214.223 42.1367 213.868 42.37C213.523 42.6033 213.322 42.9533 213.266 43.42H212.048C212.095 42.6547 212.403 42.0667 212.972 41.656C213.541 41.2453 214.269 41.04 215.156 41.04C216.052 41.04 216.78 41.2827 217.34 41.768C217.9 42.2533 218.18 42.8553 218.18 43.574C218.18 44.2833 217.993 44.848 217.62 45.268C217.256 45.688 216.752 46.024 216.108 46.276L214.33 46.99C213.882 47.1767 213.546 47.3913 213.322 47.634C213.107 47.8673 213 48.1753 213 48.558V48.978Z" fill="#181827"/>
<path d="M300.068 43.448C300.068 44.3813 299.555 45.03 298.528 45.394C299.088 45.5527 299.541 45.814 299.886 46.178C300.231 46.542 300.404 47.0087 300.404 47.578C300.404 48.3527 300.11 48.978 299.522 49.454C298.934 49.9207 298.159 50.154 297.198 50.154C296.237 50.154 295.415 49.9067 294.734 49.412C294.062 48.908 293.726 48.2033 293.726 47.298H294.874C294.893 47.8953 295.112 48.3527 295.532 48.67C295.961 48.9873 296.503 49.146 297.156 49.146C297.809 49.146 298.313 48.992 298.668 48.684C299.032 48.3667 299.214 47.9793 299.214 47.522C299.214 47.0553 299.041 46.6773 298.696 46.388C298.351 46.0893 297.791 45.94 297.016 45.94H296.008V45.058H296.694C297.366 45.058 297.898 44.9273 298.29 44.666C298.682 44.3953 298.878 44.036 298.878 43.588C298.878 43.14 298.719 42.7713 298.402 42.482C298.085 42.1927 297.665 42.048 297.142 42.048C296.619 42.048 296.181 42.1413 295.826 42.328C295.481 42.5053 295.247 42.8413 295.126 43.336H293.978C294.081 42.5613 294.403 41.9873 294.944 41.614C295.485 41.2313 296.181 41.04 297.03 41.04C297.889 41.04 298.607 41.2687 299.186 41.726C299.774 42.174 300.068 42.748 300.068 43.448Z" fill="#181827"/>
<path d="M27.344 113.784L22.16 117.51L27.344 121.182L26.408 122.28L20.72 118.122V116.88L26.408 112.704L27.344 113.784ZM29.9918 111.678H34.2218C35.4098 111.678 36.3218 111.96 36.9578 112.524C37.6058 113.088 37.9298 113.796 37.9298 114.648C37.9298 115.296 37.7498 115.86 37.3898 116.34C37.0418 116.82 36.5078 117.144 35.7878 117.312C36.4958 117.432 37.0598 117.738 37.4798 118.23C37.9118 118.722 38.1278 119.28 38.1278 119.904C38.1278 121.296 37.4498 122.238 36.0938 122.73C35.5898 122.91 34.9718 123 34.2398 123H29.9918V111.678ZM34.2038 121.758C35.0678 121.758 35.6858 121.584 36.0578 121.236C36.4298 120.888 36.6158 120.426 36.6158 119.85C36.6158 119.274 36.4118 118.818 36.0038 118.482C35.5958 118.134 34.9958 117.96 34.2038 117.96H31.4138V121.758H34.2038ZM31.4138 116.736H34.1858C34.8818 116.736 35.4338 116.568 35.8418 116.232C36.2618 115.884 36.4718 115.41 36.4718 114.81C36.4718 114.21 36.2678 113.742 35.8598 113.406C35.4638 113.07 34.9058 112.902 34.1858 112.902H31.4138V116.736ZM46.5171 117.42C46.5171 116.64 46.3551 116.082 46.0311 115.746C45.7071 115.41 45.2331 115.242 44.6091 115.242C43.9971 115.242 43.4991 115.368 43.1151 115.62C42.7431 115.86 42.5571 116.244 42.5571 116.772H40.9911C40.9911 115.452 41.6991 114.636 43.1151 114.324C43.5471 114.228 44.0151 114.18 44.5191 114.18C45.5871 114.18 46.4211 114.45 47.0211 114.99C47.6211 115.53 47.9211 116.352 47.9211 117.456V123H46.6971L46.5531 121.56C46.0251 122.652 45.0711 123.198 43.6911 123.198C42.7671 123.198 42.0231 122.94 41.4591 122.424C40.9071 121.908 40.6311 121.266 40.6311 120.498C40.6311 119.73 40.9371 119.13 41.5491 118.698C42.1731 118.266 42.9471 118.05 43.8711 118.05C44.7951 118.05 45.6771 118.206 46.5171 118.518V117.42ZM46.5171 119.418C45.6651 119.178 44.9211 119.058 44.2851 119.058C43.6491 119.058 43.1331 119.172 42.7371 119.4C42.3411 119.628 42.1431 119.988 42.1431 120.48C42.1431 121.56 42.7551 122.1 43.9791 122.1C44.6751 122.1 45.2691 121.854 45.7611 121.362C46.2651 120.858 46.5171 120.21 46.5171 119.418ZM54.1234 114.18C55.1434 114.18 55.9534 114.444 56.5534 114.972C57.1534 115.488 57.5434 116.136 57.7234 116.916L56.2834 117.042C56.1274 116.538 55.8754 116.148 55.5274 115.872C55.1794 115.584 54.7954 115.44 54.3754 115.44C53.6074 115.44 52.9834 115.728 52.5034 116.304C52.0354 116.88 51.8014 117.666 51.8014 118.662C51.8014 119.646 52.0294 120.438 52.4854 121.038C52.9534 121.638 53.5294 121.938 54.2134 121.938C54.9094 121.938 55.4254 121.782 55.7614 121.47C56.1094 121.146 56.2834 120.69 56.2834 120.102H57.7414C57.7414 121.026 57.4174 121.776 56.7694 122.352C56.1334 122.916 55.2994 123.198 54.2674 123.198C53.1754 123.198 52.2454 122.784 51.4774 121.956C50.7214 121.128 50.3434 120.03 50.3434 118.662C50.3434 117.282 50.7214 116.19 51.4774 115.386C52.2334 114.582 53.1154 114.18 54.1234 114.18ZM63.099 118.446L61.947 119.382V123H60.525V110.742H61.947V117.87L66.105 114.396H68.085L64.125 117.618L68.283 123H66.537L63.099 118.446Z" fill="white"/>
<path d="M20 124.8H68.859V125.7H20V124.8Z" fill="white"/>
<rect x="19.5" y="598.5" width="373" height="43" rx="19.5" fill="#DFBC60" stroke="#181827"/>
<path d="M177.61 612.424H187.642V614.872H180.442V618.976H187.186V621.424H180.442V625.528H187.642V628H177.61V612.424ZM194.481 618.352C195.249 616.8 196.481 616.024 198.177 616.024C199.617 616.024 200.697 616.496 201.417 617.44C202.153 618.384 202.521 619.632 202.521 621.184V628H199.689V621.184C199.689 620.32 199.481 619.672 199.065 619.24C198.649 618.792 198.065 618.568 197.313 618.568C196.561 618.568 195.913 618.904 195.369 619.576C194.841 620.248 194.561 621.256 194.529 622.6V628H191.697V616.336H194.169L194.481 618.352ZM213.226 627.712C212.17 628.128 211.338 628.336 210.73 628.336C210.122 628.336 209.586 628.264 209.122 628.12C208.674 627.976 208.274 627.76 207.922 627.472C207.186 626.816 206.818 625.912 206.818 624.76V618.232H205.186V616.336H206.818V613.264H209.65V616.336H212.818V618.232H209.65V624.664C209.65 625.624 210.106 626.104 211.018 626.104C211.482 626.104 212.082 625.976 212.818 625.72L213.226 627.712ZM224.255 617.728C224.655 618.24 224.951 618.832 225.143 619.504C225.351 620.176 225.455 620.792 225.455 621.352C225.455 621.912 225.423 622.416 225.359 622.864H217.823C217.855 623.808 218.087 624.576 218.519 625.168C218.951 625.76 219.607 626.056 220.487 626.056C221.655 626.056 222.351 625.544 222.575 624.52H225.431C225.239 625.688 224.703 626.608 223.823 627.28C222.911 627.984 221.799 628.336 220.487 628.336C218.951 628.336 217.663 627.776 216.623 626.656C215.551 625.488 215.015 623.992 215.015 622.168C215.015 620.296 215.551 618.792 216.623 617.656C217.647 616.568 218.935 616.024 220.487 616.024C222.103 616.024 223.359 616.592 224.255 617.728ZM220.511 618.28C219.711 618.28 219.087 618.544 218.639 619.072C218.191 619.584 217.927 620.248 217.847 621.064H222.815C222.815 619.8 222.415 618.952 221.615 618.52C221.311 618.36 220.943 618.28 220.511 618.28ZM231.677 618.64C232.381 616.96 233.437 616.12 234.845 616.12C235.117 616.12 235.461 616.176 235.877 616.288L235.829 619.12C235.381 619.024 234.941 618.976 234.509 618.976C232.621 618.976 231.677 620.28 231.677 622.888V628H228.845V616.312H231.677V618.64Z" fill="#181827"/>
</g>
<defs>
<clipPath id="clip0">
<rect width="414" height="734" fill="white"/>
</clipPath>
</defs>
</svg>
