<svg width="414" height="736" viewBox="0 0 414 736" fill="none" xmlns="http://www.w3.org/2000/svg">
<rect width="414" height="736" fill="#181827"/>
<path d="M27.824 113.112C28.784 113.112 29.616 113.232 30.32 113.472C31.024 113.696 31.632 114.016 32.144 114.432C33.152 115.248 33.808 116.392 34.112 117.864L31.088 118.416C30.832 117.6 30.432 116.944 29.888 116.448C29.36 115.936 28.696 115.68 27.896 115.68C26.808 115.68 25.928 116.136 25.256 117.048C24.536 118.04 24.176 119.416 24.176 121.176C24.176 122.92 24.496 124.288 25.136 125.28C25.776 126.256 26.648 126.744 27.752 126.744C28.856 126.744 29.688 126.48 30.248 125.952C30.808 125.408 31.088 124.712 31.088 123.864H34.136C34.136 125.608 33.576 126.96 32.456 127.92C31.352 128.864 29.832 129.336 27.896 129.336C25.832 129.336 24.192 128.616 22.976 127.176C21.744 125.704 21.128 123.704 21.128 121.176C21.128 118.616 21.76 116.616 23.024 115.176C24.24 113.8 25.84 113.112 27.824 113.112ZM42.0269 117.024C42.8109 117.024 43.5469 117.152 44.2349 117.408C44.9229 117.648 45.5149 118.024 46.0109 118.536C47.1149 119.656 47.6669 121.208 47.6669 123.192C47.6669 125.144 47.1149 126.68 46.0109 127.8C45.0189 128.824 43.6909 129.336 42.0269 129.336C40.3629 129.336 39.0189 128.824 37.9949 127.8C36.8909 126.696 36.3389 125.16 36.3389 123.192C36.3389 121.192 36.8909 119.64 37.9949 118.536C39.0029 117.528 40.3469 117.024 42.0269 117.024ZM44.8349 123.168C44.8349 121.936 44.5949 121.016 44.1149 120.408C43.6349 119.784 42.9629 119.472 42.0989 119.472C41.2509 119.472 40.5549 119.784 40.0109 120.408C39.4669 121.016 39.1949 121.936 39.1949 123.168C39.1949 124.4 39.4349 125.328 39.9149 125.952C40.4109 126.56 41.0829 126.864 41.9309 126.864C42.7789 126.864 43.4749 126.56 44.0189 125.952C44.5629 125.328 44.8349 124.4 44.8349 123.168ZM53.8207 119.352C54.5887 117.8 55.8207 117.024 57.5167 117.024C58.9567 117.024 60.0367 117.496 60.7567 118.44C61.4927 119.384 61.8607 120.632 61.8607 122.184V129H59.0287V122.184C59.0287 121.32 58.8207 120.672 58.4047 120.24C57.9887 119.792 57.4047 119.568 56.6527 119.568C55.9007 119.568 55.2527 119.904 54.7087 120.576C54.1807 121.248 53.9007 122.256 53.8687 123.6V129H51.0367V117.336H53.5087L53.8207 119.352ZM64.7178 117.336H66.4458V115.968C66.4458 114.768 66.7978 113.848 67.5018 113.208C68.1418 112.632 68.9738 112.344 69.9978 112.344C70.6538 112.344 71.4618 112.44 72.4218 112.632L71.8698 114.816C71.4218 114.656 71.0138 114.576 70.6458 114.576C70.2938 114.576 69.9818 114.68 69.7098 114.888C69.4378 115.08 69.3018 115.448 69.3018 115.992V117.336H71.4378V119.232H69.3018V129H66.4458V119.232H64.7178V117.336ZM75.0189 117.312H77.8509V129H75.0189V117.312ZM74.6829 113.568C74.6829 113.056 74.8349 112.656 75.1389 112.368C75.4429 112.064 75.8749 111.912 76.4349 111.912C76.9789 111.912 77.4029 112.064 77.7069 112.368C78.0269 112.656 78.1869 113.056 78.1869 113.568C78.1869 114.08 78.0269 114.488 77.7069 114.792C77.4029 115.08 76.9789 115.224 76.4349 115.224C75.8749 115.224 75.4429 115.08 75.1389 114.792C74.8349 114.488 74.6829 114.08 74.6829 113.568ZM85.4859 119.64C86.1899 117.96 87.2459 117.12 88.6539 117.12C88.9259 117.12 89.2699 117.176 89.6859 117.288L89.6379 120.12C89.1899 120.024 88.7499 119.976 88.3179 119.976C86.4299 119.976 85.4859 121.28 85.4859 123.888V129H82.6539V117.312H85.4859V119.64ZM103.006 119.544C103.758 117.864 105.078 117.024 106.966 117.024C108.358 117.024 109.438 117.496 110.206 118.44C110.942 119.336 111.31 120.584 111.31 122.184V129H108.454V122.184C108.454 121.32 108.246 120.672 107.83 120.24C107.414 119.792 106.83 119.568 106.078 119.568C105.326 119.568 104.71 119.896 104.23 120.552C103.75 121.208 103.494 122.2 103.462 123.528V129H100.63V122.184C100.63 121.32 100.422 120.672 100.006 120.24C99.5903 119.792 99.0063 119.568 98.2543 119.568C97.5023 119.568 96.8543 119.904 96.3103 120.576C95.7823 121.248 95.5023 122.256 95.4703 123.6V129H92.6383V117.336H95.1103L95.4223 119.352C96.1903 117.8 97.4223 117.024 99.1183 117.024C100.094 117.024 100.902 117.248 101.542 117.696C102.198 118.144 102.686 118.76 103.006 119.544ZM119.26 122.184C120.188 122.184 121.26 122.336 122.476 122.64V121.488C122.476 120.672 122.308 120.072 121.972 119.688C121.652 119.288 121.116 119.088 120.364 119.088C119.628 119.088 119.06 119.24 118.66 119.544C118.26 119.832 118.06 120.248 118.06 120.792H114.964C114.964 119.464 115.428 118.504 116.355 117.912C117.3 117.32 118.612 117.024 120.292 117.024C122.692 117.024 124.244 117.864 124.948 119.544C125.188 120.12 125.307 120.8 125.307 121.584V129H122.836L122.62 127.44C121.868 128.704 120.716 129.336 119.164 129.336C117.66 129.336 116.492 128.968 115.66 128.232C114.892 127.528 114.508 126.64 114.508 125.568C114.508 124.48 114.932 123.648 115.78 123.072C116.628 122.48 117.788 122.184 119.26 122.184ZM122.476 124.44C121.532 124.184 120.652 124.056 119.836 124.056C118.3 124.056 117.532 124.568 117.532 125.592C117.532 126.024 117.708 126.4 118.06 126.72C118.412 127.024 118.972 127.176 119.74 127.176C120.524 127.176 121.164 126.92 121.66 126.408C122.172 125.88 122.444 125.224 122.476 124.44ZM136.011 128.712C134.955 129.128 134.123 129.336 133.515 129.336C132.907 129.336 132.371 129.264 131.907 129.12C131.459 128.976 131.059 128.76 130.707 128.472C129.971 127.816 129.603 126.912 129.603 125.76V119.232H127.971V117.336H129.603V114.264H132.435V117.336H135.603V119.232H132.435V125.664C132.435 126.624 132.891 127.104 133.803 127.104C134.267 127.104 134.867 126.976 135.603 126.72L136.011 128.712ZM139.144 117.312H141.976V129H139.144V117.312ZM138.808 113.568C138.808 113.056 138.96 112.656 139.264 112.368C139.568 112.064 140 111.912 140.56 111.912C141.104 111.912 141.528 112.064 141.832 112.368C142.152 112.656 142.312 113.056 142.312 113.568C142.312 114.08 142.152 114.488 141.832 114.792C141.528 115.08 141.104 115.224 140.56 115.224C140 115.224 139.568 115.08 139.264 114.792C138.96 114.488 138.808 114.08 138.808 113.568ZM151.363 117.024C152.147 117.024 152.883 117.152 153.571 117.408C154.259 117.648 154.851 118.024 155.347 118.536C156.451 119.656 157.003 121.208 157.003 123.192C157.003 125.144 156.451 126.68 155.347 127.8C154.355 128.824 153.027 129.336 151.363 129.336C149.699 129.336 148.355 128.824 147.331 127.8C146.227 126.696 145.675 125.16 145.675 123.192C145.675 121.192 146.227 119.64 147.331 118.536C148.339 117.528 149.683 117.024 151.363 117.024ZM154.171 123.168C154.171 121.936 153.931 121.016 153.451 120.408C152.971 119.784 152.299 119.472 151.435 119.472C150.587 119.472 149.891 119.784 149.347 120.408C148.803 121.016 148.531 121.936 148.531 123.168C148.531 124.4 148.771 125.328 149.251 125.952C149.747 126.56 150.419 126.864 151.267 126.864C152.115 126.864 152.811 126.56 153.355 125.952C153.899 125.328 154.171 124.4 154.171 123.168ZM163.157 119.352C163.925 117.8 165.157 117.024 166.853 117.024C168.293 117.024 169.373 117.496 170.093 118.44C170.829 119.384 171.197 120.632 171.197 122.184V129H168.365V122.184C168.365 121.32 168.157 120.672 167.741 120.24C167.325 119.792 166.741 119.568 165.989 119.568C165.237 119.568 164.589 119.904 164.045 120.576C163.517 121.248 163.237 122.256 163.205 123.6V129H160.373V117.336H162.845L163.157 119.352ZM185.98 117.024C186.764 117.024 187.5 117.152 188.188 117.408C188.876 117.648 189.468 118.024 189.964 118.536C191.068 119.656 191.62 121.208 191.62 123.192C191.62 125.144 191.068 126.68 189.964 127.8C188.972 128.824 187.644 129.336 185.98 129.336C184.316 129.336 182.972 128.824 181.948 127.8C180.844 126.696 180.292 125.16 180.292 123.192C180.292 121.192 180.844 119.64 181.948 118.536C182.956 117.528 184.3 117.024 185.98 117.024ZM188.788 123.168C188.788 121.936 188.548 121.016 188.068 120.408C187.588 119.784 186.916 119.472 186.052 119.472C185.204 119.472 184.508 119.784 183.964 120.408C183.42 121.016 183.148 121.936 183.148 123.168C183.148 124.4 183.388 125.328 183.868 125.952C184.364 126.56 185.036 126.864 185.884 126.864C186.732 126.864 187.428 126.56 187.972 125.952C188.516 125.328 188.788 124.4 188.788 123.168ZM193.718 117.336H195.446V115.968C195.446 114.768 195.798 113.848 196.502 113.208C197.142 112.632 197.974 112.344 198.998 112.344C199.654 112.344 200.462 112.44 201.422 112.632L200.87 114.816C200.422 114.656 200.014 114.576 199.646 114.576C199.294 114.576 198.982 114.68 198.71 114.888C198.438 115.08 198.302 115.448 198.302 115.992V117.336H200.438V119.232H198.302V129H195.446V119.232H193.718V117.336ZM215.273 113.424C217.033 113.424 218.401 113.856 219.377 114.72C220.369 115.568 220.865 116.792 220.865 118.392C220.865 119.976 220.369 121.2 219.377 122.064C218.401 122.912 217.033 123.336 215.273 123.336H212.633V129H209.777V113.424H215.273ZM215.273 120.864C216.153 120.864 216.817 120.632 217.265 120.168C217.713 119.704 217.937 119.112 217.937 118.392C217.937 117.656 217.713 117.056 217.265 116.592C216.817 116.112 216.153 115.872 215.273 115.872H212.633V120.864H215.273ZM231.547 126.888C230.811 128.44 229.627 129.216 227.995 129.216C225.931 129.216 224.571 128.408 223.915 126.792C223.675 126.232 223.555 125.552 223.555 124.752V117.312H226.387V124.464C226.387 125.232 226.571 125.808 226.939 126.192C227.307 126.56 227.755 126.744 228.283 126.744C228.827 126.744 229.283 126.672 229.651 126.528C230.019 126.368 230.339 126.136 230.611 125.832C231.203 125.144 231.515 124.224 231.547 123.072V117.312H234.379V129H231.547V126.888ZM241.673 119.64C242.377 117.96 243.433 117.12 244.841 117.12C245.113 117.12 245.457 117.176 245.873 117.288L245.825 120.12C245.377 120.024 244.937 119.976 244.505 119.976C242.617 119.976 241.673 121.28 241.673 123.888V129H238.841V117.312H241.673V119.64ZM253.266 117.024C254.002 117.024 254.658 117.152 255.234 117.408C255.826 117.648 256.322 117.968 256.722 118.368C257.522 119.136 257.994 120.104 258.138 121.272L255.282 121.344C255.154 120.832 254.914 120.408 254.562 120.072C254.226 119.736 253.834 119.568 253.386 119.568C252.938 119.568 252.554 119.64 252.234 119.784C251.914 119.912 251.634 120.12 251.394 120.408C250.85 121.08 250.578 122.008 250.578 123.192C250.578 124.376 250.834 125.272 251.346 125.88C251.858 126.472 252.474 126.768 253.194 126.768C253.93 126.768 254.458 126.6 254.778 126.264C255.114 125.912 255.282 125.44 255.282 124.848H258.138C258.138 126.128 257.714 127.192 256.866 128.04C256.002 128.904 254.794 129.336 253.242 129.336C251.706 129.336 250.418 128.776 249.378 127.656C248.274 126.456 247.722 124.96 247.722 123.168C247.722 121.28 248.274 119.768 249.378 118.632C250.418 117.56 251.714 117.024 253.266 117.024ZM264.384 119.232C265.184 117.76 266.352 117.024 267.888 117.024C269.424 117.024 270.552 117.496 271.272 118.44C272.008 119.384 272.376 120.632 272.376 122.184V129H269.544V122.184C269.544 121.32 269.336 120.672 268.92 120.24C268.504 119.792 267.92 119.568 267.168 119.568C266.416 119.568 265.768 119.904 265.224 120.576C264.696 121.248 264.416 122.256 264.384 123.6V129H261.552V112.536H264.384V119.232ZM280.345 122.184C281.273 122.184 282.345 122.336 283.561 122.64V121.488C283.561 120.672 283.393 120.072 283.057 119.688C282.737 119.288 282.201 119.088 281.449 119.088C280.713 119.088 280.145 119.24 279.745 119.544C279.345 119.832 279.145 120.248 279.145 120.792H276.049C276.049 119.464 276.513 118.504 277.441 117.912C278.385 117.32 279.697 117.024 281.377 117.024C283.777 117.024 285.329 117.864 286.033 119.544C286.273 120.12 286.393 120.8 286.393 121.584V129H283.921L283.705 127.44C282.953 128.704 281.801 129.336 280.249 129.336C278.745 129.336 277.577 128.968 276.745 128.232C275.977 127.528 275.593 126.64 275.593 125.568C275.593 124.48 276.017 123.648 276.865 123.072C277.713 122.48 278.873 122.184 280.345 122.184ZM283.561 124.44C282.617 124.184 281.737 124.056 280.921 124.056C279.385 124.056 278.617 124.568 278.617 125.592C278.617 126.024 278.793 126.4 279.145 126.72C279.497 127.024 280.057 127.176 280.825 127.176C281.609 127.176 282.249 126.92 282.745 126.408C283.257 125.88 283.529 125.224 283.561 124.44ZM292.105 125.448C292.137 126.552 292.945 127.104 294.529 127.104C295.137 127.104 295.633 126.976 296.017 126.72C296.417 126.448 296.617 126.136 296.617 125.784C296.617 125.432 296.497 125.16 296.257 124.968C296.017 124.776 295.641 124.6 295.129 124.44L292.585 123.528C290.697 122.872 289.753 121.8 289.753 120.312C289.753 119.32 290.193 118.528 291.073 117.936C291.969 117.328 293.161 117.024 294.649 117.024C296.153 117.024 297.305 117.352 298.105 118.008C298.921 118.664 299.345 119.488 299.377 120.48H296.713C296.681 120.096 296.497 119.792 296.161 119.568C295.825 119.344 295.345 119.232 294.721 119.232C294.097 119.232 293.609 119.36 293.257 119.616C292.921 119.856 292.753 120.136 292.753 120.456C292.753 121.016 293.225 121.432 294.169 121.704L296.929 122.736C297.841 123.04 298.537 123.432 299.017 123.912C299.513 124.376 299.761 124.984 299.761 125.736C299.761 126.696 299.305 127.528 298.393 128.232C297.449 128.968 296.201 129.336 294.649 129.336C293.097 129.336 291.849 129 290.905 128.328C289.961 127.64 289.481 126.68 289.465 125.448H292.105ZM311.313 118.728C311.713 119.24 312.009 119.832 312.201 120.504C312.409 121.176 312.513 121.792 312.513 122.352C312.513 122.912 312.481 123.416 312.417 123.864H304.881C304.913 124.808 305.145 125.576 305.577 126.168C306.009 126.76 306.665 127.056 307.545 127.056C308.713 127.056 309.409 126.544 309.633 125.52H312.489C312.297 126.688 311.761 127.608 310.881 128.28C309.969 128.984 308.857 129.336 307.545 129.336C306.009 129.336 304.721 128.776 303.681 127.656C302.609 126.488 302.073 124.992 302.073 123.168C302.073 121.296 302.609 119.792 303.681 118.656C304.705 117.568 305.993 117.024 307.545 117.024C309.161 117.024 310.417 117.592 311.313 118.728ZM307.569 119.28C306.769 119.28 306.145 119.544 305.697 120.072C305.249 120.584 304.985 121.248 304.905 122.064H309.873C309.873 120.8 309.473 119.952 308.673 119.52C308.369 119.36 308.001 119.28 307.569 119.28Z" fill="white"/>
<path d="M30 160.5H384C389.247 160.5 393.5 164.753 393.5 170V281C393.5 286.247 389.247 290.5 384 290.5H30C24.7533 290.5 20.5 286.247 20.5 281V170C20.5 164.753 24.7533 160.5 30 160.5Z" fill="white" stroke="white"/>
<path d="M92.5 226.14C93.5 226.487 94.2467 226.927 94.74 227.46C95.2333 227.98 95.48 228.673 95.48 229.54C95.48 230.487 95.0933 231.307 94.32 232C93.4667 232.733 92.2733 233.153 90.74 233.26V235.02H89.06V233.22C87.6733 233.087 86.5467 232.673 85.68 231.98C84.76 231.233 84.3 230.22 84.3 228.94H86.64C86.64 229.58 86.8467 230.067 87.26 230.4C87.6733 230.733 88.2733 230.947 89.06 231.04V227.16L88.06 226.82C86.94 226.447 86.0733 226 85.46 225.48C84.8467 224.947 84.54 224.207 84.54 223.26C84.54 222.313 84.92 221.527 85.68 220.9C86.4533 220.26 87.58 219.887 89.06 219.78V218.26H90.74V219.8C92.0333 219.933 93.02 220.333 93.7 221C94.38 221.667 94.8133 222.533 95 223.6H92.66C92.5933 223.2 92.3933 222.847 92.06 222.54C91.74 222.22 91.3 222 90.74 221.88V225.52L92.5 226.14ZM90.74 231.08C91.46 231.013 91.9867 230.833 92.32 230.54C92.6533 230.247 92.82 229.9 92.82 229.5C92.82 228.74 92.34 228.18 91.38 227.82L90.74 227.58V231.08ZM89.06 221.82C88.42 221.9 87.9333 222.08 87.6 222.36C87.28 222.64 87.12 222.967 87.12 223.34C87.12 223.713 87.2267 224.013 87.44 224.24C87.6533 224.453 87.9933 224.64 88.46 224.8L89.06 225.04V221.82ZM97.6291 221C98.6291 220.853 99.5091 220.5 100.269 219.94H102.049V233H99.6891V222.76C99.0091 223.093 98.3224 223.26 97.6291 223.26V221ZM110.118 221.9C108.664 221.9 107.818 222.453 107.578 223.56H105.098C105.231 222.28 105.751 221.313 106.658 220.66C107.511 220.06 108.631 219.76 110.018 219.76C111.444 219.76 112.604 220.093 113.498 220.76C114.431 221.44 114.898 222.313 114.898 223.38C114.898 224.047 114.718 224.627 114.358 225.12C113.998 225.6 113.464 225.96 112.758 226.2C113.544 226.467 114.171 226.867 114.638 227.4C115.118 227.92 115.358 228.52 115.358 229.2C115.358 229.88 115.231 230.46 114.978 230.94C114.738 231.42 114.391 231.833 113.938 232.18C112.978 232.913 111.731 233.28 110.198 233.28C108.731 233.28 107.498 232.907 106.498 232.16C105.378 231.347 104.818 230.267 104.818 228.92H107.338C107.378 229.6 107.651 230.133 108.158 230.52C108.678 230.907 109.351 231.1 110.178 231.1C111.004 231.1 111.644 230.92 112.098 230.56C112.564 230.187 112.798 229.72 112.798 229.16C112.798 228.587 112.584 228.14 112.158 227.82C111.744 227.5 111.084 227.34 110.178 227.34H108.458V225.48H109.938C110.698 225.48 111.291 225.32 111.718 225C112.144 224.667 112.358 224.233 112.358 223.7C112.358 223.167 112.171 222.733 111.798 222.4C111.438 222.067 110.878 221.9 110.118 221.9ZM117.219 221C118.219 220.853 119.099 220.5 119.859 219.94H121.639V233H119.279V222.76C118.599 223.093 117.912 223.26 117.219 223.26V221ZM125.647 233.18C125.167 233.18 124.774 233.033 124.467 232.74C124.161 232.447 124.007 232.073 124.007 231.62C124.007 231.167 124.161 230.787 124.467 230.48C124.774 230.173 125.167 230.02 125.647 230.02C126.127 230.02 126.527 230.173 126.847 230.48C127.167 230.787 127.327 231.167 127.327 231.62C127.327 232.073 127.167 232.447 126.847 232.74C126.527 233.033 126.127 233.18 125.647 233.18ZM137.184 219.88V228.1H139.444V230.12H137.184V233H134.844V230.12H128.264V228.34L134.904 219.88H137.184ZM131.064 228.34H134.964V223.38L131.064 228.34ZM146.039 219.76C146.839 219.76 147.565 219.9 148.219 220.18C148.885 220.447 149.452 220.86 149.919 221.42C150.932 222.607 151.439 224.307 151.439 226.52C151.439 228.733 150.932 230.433 149.919 231.62C148.985 232.727 147.699 233.28 146.059 233.28C144.405 233.28 143.105 232.727 142.159 231.62C141.159 230.46 140.659 228.76 140.659 226.52C140.659 224.28 141.159 222.58 142.159 221.42C143.105 220.313 144.399 219.76 146.039 219.76ZM148.999 226.52C148.999 225.027 148.739 223.887 148.219 223.1C147.712 222.3 146.985 221.9 146.039 221.9C145.105 221.9 144.379 222.3 143.859 223.1C143.352 223.887 143.099 225.027 143.099 226.52C143.099 228.013 143.352 229.153 143.859 229.94C144.379 230.713 145.105 231.1 146.039 231.1C146.985 231.1 147.712 230.713 148.219 229.94C148.739 229.153 148.999 228.013 148.999 226.52ZM158.575 218.1H160.995L155.835 234.62H153.435L158.575 218.1ZM163.889 220.42L167.269 226.2L170.729 220.42H172.589L168.069 227.84V233H166.469V227.84L162.009 220.42H163.889ZM176.797 231.94C178.117 231.94 178.87 231.36 179.057 230.2H180.677C180.53 231.16 180.103 231.907 179.397 232.44C178.703 232.96 177.837 233.22 176.797 233.22C175.517 233.22 174.477 232.767 173.677 231.86C172.877 230.94 172.477 229.72 172.477 228.2C172.477 226.68 172.877 225.467 173.677 224.56C174.49 223.653 175.563 223.2 176.897 223.2C178.243 223.2 179.243 223.72 179.897 224.76C180.563 225.8 180.797 227.067 180.597 228.56H174.057C174.057 229.547 174.297 230.36 174.777 231C175.257 231.627 175.93 231.94 176.797 231.94ZM177.957 224.7C177.65 224.54 177.277 224.46 176.837 224.46C176.023 224.46 175.377 224.74 174.897 225.3C174.43 225.847 174.157 226.533 174.077 227.36H179.177C179.177 226.027 178.77 225.14 177.957 224.7ZM189.71 226.8C189.71 225.933 189.53 225.313 189.17 224.94C188.81 224.567 188.283 224.38 187.59 224.38C186.91 224.38 186.356 224.52 185.93 224.8C185.516 225.067 185.31 225.493 185.31 226.08H183.57C183.57 224.613 184.356 223.707 185.93 223.36C186.41 223.253 186.93 223.2 187.49 223.2C188.676 223.2 189.603 223.5 190.27 224.1C190.936 224.7 191.27 225.613 191.27 226.84V233H189.91L189.75 231.4C189.163 232.613 188.103 233.22 186.57 233.22C185.543 233.22 184.716 232.933 184.09 232.36C183.476 231.787 183.17 231.073 183.17 230.22C183.17 229.367 183.51 228.7 184.19 228.22C184.883 227.74 185.743 227.5 186.77 227.5C187.796 227.5 188.776 227.673 189.71 228.02V226.8ZM189.71 229.02C188.763 228.753 187.936 228.62 187.23 228.62C186.523 228.62 185.95 228.747 185.51 229C185.07 229.253 184.85 229.653 184.85 230.2C184.85 231.4 185.53 232 186.89 232C187.663 232 188.323 231.727 188.87 231.18C189.43 230.62 189.71 229.9 189.71 229.02ZM198.881 224.78C197.374 224.78 196.594 225.967 196.541 228.34V233H194.961V223.42H196.541V225.26C197.021 223.927 197.868 223.26 199.081 223.26C199.468 223.26 199.834 223.32 200.181 223.44L200.101 224.98C199.701 224.847 199.294 224.78 198.881 224.78Z" fill="#DFBC60"/>
<path d="M84.656 191.318H92.18V193.154H86.78V196.232H91.838V198.068H86.78V201.146H92.18V203H84.656V191.318ZM98.1009 197.888C98.7969 197.888 99.6009 198.002 100.513 198.23V197.366C100.513 196.754 100.387 196.304 100.135 196.016C99.8949 195.716 99.4929 195.566 98.9289 195.566C98.3769 195.566 97.9509 195.68 97.6509 195.908C97.3509 196.124 97.2009 196.436 97.2009 196.844H94.8789C94.8789 195.848 95.2269 195.128 95.9229 194.684C96.6309 194.24 97.6149 194.018 98.8749 194.018C100.675 194.018 101.839 194.648 102.367 195.908C102.547 196.34 102.637 196.85 102.637 197.438V203H100.783L100.621 201.83C100.057 202.778 99.1929 203.252 98.0289 203.252C96.9009 203.252 96.0249 202.976 95.4009 202.424C94.8249 201.896 94.5369 201.23 94.5369 200.426C94.5369 199.61 94.8549 198.986 95.4909 198.554C96.1269 198.11 96.9969 197.888 98.1009 197.888ZM100.513 199.58C99.8049 199.388 99.1449 199.292 98.5329 199.292C97.3809 199.292 96.8049 199.676 96.8049 200.444C96.8049 200.768 96.9369 201.05 97.2009 201.29C97.4649 201.518 97.8849 201.632 98.4609 201.632C99.0489 201.632 99.5289 201.44 99.9009 201.056C100.285 200.66 100.489 200.168 100.513 199.58ZM107.857 195.98C108.385 194.72 109.177 194.09 110.233 194.09C110.437 194.09 110.695 194.132 111.007 194.216L110.971 196.34C110.635 196.268 110.305 196.232 109.981 196.232C108.565 196.232 107.857 197.21 107.857 199.166V203H105.733V194.234H107.857V195.98ZM118.153 202.784C117.361 203.096 116.737 203.252 116.281 203.252C115.825 203.252 115.423 203.198 115.075 203.09C114.739 202.982 114.439 202.82 114.175 202.604C113.623 202.112 113.347 201.434 113.347 200.57V195.674H112.123V194.252H113.347V191.948H115.471V194.252H117.847V195.674H115.471V200.498C115.471 201.218 115.813 201.578 116.497 201.578C116.845 201.578 117.295 201.482 117.847 201.29L118.153 202.784ZM122.446 195.674C123.046 194.57 123.922 194.018 125.074 194.018C126.226 194.018 127.072 194.372 127.612 195.08C128.164 195.788 128.44 196.724 128.44 197.888V203H126.316V197.888C126.316 197.24 126.16 196.754 125.848 196.43C125.536 196.094 125.098 195.926 124.534 195.926C123.97 195.926 123.484 196.178 123.076 196.682C122.68 197.186 122.47 197.942 122.446 198.95V203H120.322V190.652H122.446V195.674ZM139.132 191.318L142.336 198.266L145.54 191.318H148.474V203H146.332V194.126L143.02 201.722H141.634L138.214 193.874V203H136.09V191.318H139.132ZM157.924 195.296C158.224 195.68 158.446 196.124 158.59 196.628C158.746 197.132 158.824 197.594 158.824 198.014C158.824 198.434 158.8 198.812 158.752 199.148H153.1C153.124 199.856 153.298 200.432 153.622 200.876C153.946 201.32 154.438 201.542 155.098 201.542C155.974 201.542 156.496 201.158 156.664 200.39H158.806C158.662 201.266 158.26 201.956 157.6 202.46C156.916 202.988 156.082 203.252 155.098 203.252C153.946 203.252 152.98 202.832 152.2 201.992C151.396 201.116 150.994 199.994 150.994 198.626C150.994 197.222 151.396 196.094 152.2 195.242C152.968 194.426 153.934 194.018 155.098 194.018C156.31 194.018 157.252 194.444 157.924 195.296ZM155.116 195.71C154.516 195.71 154.048 195.908 153.712 196.304C153.376 196.688 153.178 197.186 153.118 197.798H156.844C156.844 196.85 156.544 196.214 155.944 195.89C155.716 195.77 155.44 195.71 155.116 195.71ZM169.143 195.908C169.707 194.648 170.697 194.018 172.113 194.018C173.157 194.018 173.967 194.372 174.543 195.08C175.095 195.752 175.371 196.688 175.371 197.888V203H173.229V197.888C173.229 197.24 173.073 196.754 172.761 196.43C172.449 196.094 172.011 195.926 171.447 195.926C170.883 195.926 170.421 196.172 170.061 196.664C169.701 197.156 169.509 197.9 169.485 198.896V203H167.361V197.888C167.361 197.24 167.205 196.754 166.893 196.43C166.581 196.094 166.143 195.926 165.579 195.926C165.015 195.926 164.529 196.178 164.121 196.682C163.725 197.186 163.515 197.942 163.491 198.95V203H161.367V194.252H163.221L163.455 195.764C164.031 194.6 164.955 194.018 166.227 194.018C166.959 194.018 167.565 194.186 168.045 194.522C168.537 194.858 168.903 195.32 169.143 195.908ZM185.797 195.278C186.541 196.118 186.913 197.222 186.913 198.59C186.913 199.958 186.523 201.086 185.743 201.974C184.987 202.826 184.045 203.252 182.917 203.252C182.377 203.252 181.879 203.108 181.423 202.82C180.979 202.532 180.625 202.088 180.361 201.488L179.839 203H178.453V190.652H180.577V195.35C181.129 194.462 181.951 194.018 183.043 194.018C184.147 194.018 185.065 194.438 185.797 195.278ZM180.577 198.086V199.238C180.601 199.85 180.823 200.354 181.243 200.75C181.639 201.134 182.119 201.326 182.683 201.326C183.259 201.326 183.751 201.08 184.159 200.588C184.567 200.084 184.771 199.424 184.771 198.608C184.771 197.792 184.567 197.144 184.159 196.664C183.763 196.172 183.265 195.926 182.665 195.926C182.065 195.926 181.567 196.124 181.171 196.52C180.775 196.916 180.577 197.438 180.577 198.086ZM195.612 195.296C195.912 195.68 196.134 196.124 196.278 196.628C196.434 197.132 196.512 197.594 196.512 198.014C196.512 198.434 196.488 198.812 196.44 199.148H190.788C190.812 199.856 190.986 200.432 191.31 200.876C191.634 201.32 192.126 201.542 192.786 201.542C193.662 201.542 194.184 201.158 194.352 200.39H196.494C196.35 201.266 195.948 201.956 195.288 202.46C194.604 202.988 193.77 203.252 192.786 203.252C191.634 203.252 190.668 202.832 189.888 201.992C189.084 201.116 188.682 199.994 188.682 198.626C188.682 197.222 189.084 196.094 189.888 195.242C190.656 194.426 191.622 194.018 192.786 194.018C193.998 194.018 194.94 194.444 195.612 195.296ZM192.804 195.71C192.204 195.71 191.736 195.908 191.4 196.304C191.064 196.688 190.866 197.186 190.806 197.798H194.532C194.532 196.85 194.232 196.214 193.632 195.89C193.404 195.77 193.128 195.71 192.804 195.71ZM201.179 195.98C201.707 194.72 202.499 194.09 203.555 194.09C203.759 194.09 204.017 194.132 204.329 194.216L204.293 196.34C203.957 196.268 203.627 196.232 203.303 196.232C201.887 196.232 201.179 197.21 201.179 199.166V203H199.055V194.234H201.179V195.98ZM207.731 200.336C207.755 201.164 208.361 201.578 209.549 201.578C210.005 201.578 210.377 201.482 210.665 201.29C210.965 201.086 211.115 200.852 211.115 200.588C211.115 200.324 211.025 200.12 210.845 199.976C210.665 199.832 210.383 199.7 209.999 199.58L208.091 198.896C206.675 198.404 205.967 197.6 205.967 196.484C205.967 195.74 206.297 195.146 206.957 194.702C207.629 194.246 208.523 194.018 209.639 194.018C210.767 194.018 211.631 194.264 212.231 194.756C212.843 195.248 213.161 195.866 213.185 196.61H211.187C211.163 196.322 211.025 196.094 210.773 195.926C210.521 195.758 210.161 195.674 209.693 195.674C209.225 195.674 208.859 195.77 208.595 195.962C208.343 196.142 208.217 196.352 208.217 196.592C208.217 197.012 208.571 197.324 209.279 197.528L211.349 198.302C212.033 198.53 212.555 198.824 212.915 199.184C213.287 199.532 213.473 199.988 213.473 200.552C213.473 201.272 213.131 201.896 212.447 202.424C211.739 202.976 210.803 203.252 209.639 203.252C208.475 203.252 207.539 203 206.831 202.496C206.123 201.98 205.763 201.26 205.751 200.336H207.731ZM218.159 195.674C218.759 194.57 219.635 194.018 220.787 194.018C221.939 194.018 222.785 194.372 223.325 195.08C223.877 195.788 224.153 196.724 224.153 197.888V203H222.029V197.888C222.029 197.24 221.873 196.754 221.561 196.43C221.249 196.094 220.811 195.926 220.247 195.926C219.683 195.926 219.197 196.178 218.789 196.682C218.393 197.186 218.183 197.942 218.159 198.95V203H216.035V190.652H218.159V195.674ZM227.43 194.234H229.554V203H227.43V194.234ZM227.178 191.426C227.178 191.042 227.292 190.742 227.52 190.526C227.748 190.298 228.072 190.184 228.492 190.184C228.9 190.184 229.218 190.298 229.446 190.526C229.686 190.742 229.806 191.042 229.806 191.426C229.806 191.81 229.686 192.116 229.446 192.344C229.218 192.56 228.9 192.668 228.492 192.668C228.072 192.668 227.748 192.56 227.52 192.344C227.292 192.116 227.178 191.81 227.178 191.426ZM235.1 195.44C235.652 194.492 236.492 194.018 237.62 194.018C238.7 194.018 239.624 194.426 240.392 195.242C241.208 196.106 241.616 197.234 241.616 198.626C241.616 200.03 241.202 201.164 240.374 202.028C239.606 202.844 238.688 203.252 237.62 203.252C236.552 203.252 235.772 202.934 235.28 202.298V207.266H233.156V194.252H234.902L235.1 195.44ZM237.242 201.326C237.494 201.326 237.752 201.272 238.016 201.164C238.292 201.056 238.538 200.888 238.754 200.66C239.234 200.156 239.474 199.484 239.474 198.644C239.474 197.792 239.264 197.126 238.844 196.646C238.436 196.166 237.932 195.926 237.332 195.926C236.744 195.926 236.258 196.1 235.874 196.448C235.502 196.784 235.304 197.27 235.28 197.906V199.472C235.28 200.036 235.478 200.492 235.874 200.84C236.246 201.164 236.702 201.326 237.242 201.326Z" fill="#7075A5"/>
<path d="M334.5 225C334.5 242.428 321.262 256.5 305 256.5C288.738 256.5 275.5 242.428 275.5 225C275.5 207.572 288.738 193.5 305 193.5C321.262 193.5 334.5 207.572 334.5 225Z" stroke="#181827"/>
<path d="M320.099 215.634L305.51 240.902L290.921 215.634L320.099 215.634Z" stroke="#181827"/>
<line x1="321.053" y1="229.737" x2="289.967" y2="229.737" stroke="#181827"/>
<rect x="83.5" y="251.5" width="70" height="15" rx="7.5" fill="#181827" stroke="white"/>
<path d="M90.14 255.71L92.26 259.97L94.36 255.71H95.47V262H94.68V256.83L92.52 261.21H91.99L89.8 256.76V262H89.01V255.71H90.14ZM99.2066 257.1C99.8732 257.1 100.41 257.317 100.817 257.75C101.23 258.183 101.437 258.803 101.437 259.61C101.437 260.41 101.23 261.027 100.817 261.46C100.41 261.893 99.8732 262.11 99.2066 262.11C98.5399 262.11 97.9999 261.893 97.5866 261.46C97.1799 261.027 96.9766 260.41 96.9766 259.61C96.9766 258.803 97.1799 258.183 97.5866 257.75C97.9999 257.317 98.5399 257.1 99.2066 257.1ZM100.637 259.61C100.637 259.037 100.517 258.59 100.277 258.27C100.037 257.943 99.6832 257.78 99.2166 257.78C98.7566 257.78 98.4032 257.943 98.1566 258.27C97.9099 258.59 97.7866 259.037 97.7866 259.61C97.7866 260.177 97.9032 260.623 98.1366 260.95C98.3699 261.27 98.7166 261.43 99.1766 261.43C99.6432 261.43 100.003 261.27 100.257 260.95C100.51 260.623 100.637 260.177 100.637 259.61ZM102.696 258.39C102.696 257.997 102.862 257.683 103.196 257.45C103.536 257.217 103.992 257.1 104.566 257.1C105.139 257.1 105.586 257.22 105.906 257.46C106.232 257.7 106.402 258.003 106.416 258.37H105.646C105.586 257.937 105.219 257.72 104.546 257.72C104.219 257.72 103.966 257.793 103.786 257.94C103.612 258.087 103.526 258.247 103.526 258.42C103.526 258.587 103.592 258.73 103.726 258.85C103.859 258.963 104.072 259.063 104.366 259.15L105.326 259.47C105.732 259.597 106.042 259.76 106.256 259.96C106.476 260.153 106.586 260.423 106.586 260.77C106.586 261.11 106.409 261.42 106.056 261.7C105.702 261.973 105.209 262.11 104.576 262.11C103.942 262.11 103.449 261.97 103.096 261.69C102.742 261.403 102.556 261.037 102.536 260.59H103.296C103.309 260.89 103.429 261.117 103.656 261.27C103.889 261.417 104.179 261.49 104.526 261.49C104.872 261.49 105.159 261.417 105.386 261.27C105.612 261.123 105.726 260.95 105.726 260.75C105.726 260.543 105.659 260.387 105.526 260.28C105.392 260.173 105.176 260.08 104.876 260L103.946 259.69C103.112 259.443 102.696 259.01 102.696 258.39ZM110.709 261.86C110.136 262.127 109.613 262.183 109.139 262.03C108.799 261.923 108.559 261.7 108.419 261.36C108.346 261.193 108.309 260.993 108.309 260.76V257.82H107.539V257.22H108.309V255.89H109.089V257.22H110.589V257.82H109.089V260.75C109.089 261.237 109.316 261.48 109.769 261.48C110.016 261.48 110.293 261.42 110.599 261.3L110.709 261.86ZM116.362 255.71C117.055 255.71 117.582 255.887 117.942 256.24C118.308 256.587 118.492 257.057 118.492 257.65C118.492 258.243 118.308 258.713 117.942 259.06C117.582 259.4 117.055 259.57 116.362 259.57H115.122V262H114.332V255.71H116.362ZM116.362 258.89C116.795 258.89 117.122 258.78 117.342 258.56C117.568 258.34 117.682 258.04 117.682 257.66C117.682 257.273 117.568 256.967 117.342 256.74C117.122 256.507 116.795 256.39 116.362 256.39H115.122V258.89H116.362ZM121.609 257.1C122.276 257.1 122.812 257.317 123.219 257.75C123.632 258.183 123.839 258.803 123.839 259.61C123.839 260.41 123.632 261.027 123.219 261.46C122.812 261.893 122.276 262.11 121.609 262.11C120.942 262.11 120.402 261.893 119.989 261.46C119.582 261.027 119.379 260.41 119.379 259.61C119.379 258.803 119.582 258.183 119.989 257.75C120.402 257.317 120.942 257.1 121.609 257.1ZM123.039 259.61C123.039 259.037 122.919 258.59 122.679 258.27C122.439 257.943 122.086 257.78 121.619 257.78C121.159 257.78 120.806 257.943 120.559 258.27C120.312 258.59 120.189 259.037 120.189 259.61C120.189 260.177 120.306 260.623 120.539 260.95C120.772 261.27 121.119 261.43 121.579 261.43C122.046 261.43 122.406 261.27 122.659 260.95C122.912 260.623 123.039 260.177 123.039 259.61ZM126.088 257.95C126.401 257.383 126.868 257.1 127.488 257.1C128.115 257.1 128.635 257.33 129.048 257.79C129.468 258.25 129.678 258.857 129.678 259.61C129.678 260.363 129.468 260.97 129.048 261.43C128.628 261.883 128.111 262.11 127.498 262.11C126.885 262.11 126.431 261.88 126.138 261.42V264.35H125.348V257.22H125.998L126.088 257.95ZM127.458 261.41C127.831 261.41 128.158 261.25 128.438 260.93C128.725 260.61 128.868 260.173 128.868 259.62C128.868 259.06 128.731 258.617 128.458 258.29C128.191 257.963 127.865 257.8 127.478 257.8C127.091 257.8 126.775 257.923 126.528 258.17C126.281 258.41 126.151 258.737 126.138 259.15V260.06C126.138 260.48 126.265 260.81 126.518 261.05C126.771 261.29 127.085 261.41 127.458 261.41ZM134.535 261.05C134.209 261.743 133.679 262.09 132.945 262.09C132.405 262.09 131.969 261.94 131.635 261.64C131.309 261.34 131.145 260.877 131.145 260.25V257.21H131.935V260.19C131.935 260.997 132.309 261.4 133.055 261.4C133.489 261.4 133.839 261.233 134.105 260.9C134.379 260.567 134.522 260.14 134.535 259.62V257.21H135.325V262H134.535V261.05ZM137.35 255.19H138.14V262H137.35V255.19ZM143.113 258.9C143.113 258.467 143.023 258.157 142.843 257.97C142.663 257.783 142.399 257.69 142.053 257.69C141.713 257.69 141.436 257.76 141.223 257.9C141.016 258.033 140.913 258.247 140.913 258.54H140.043C140.043 257.807 140.436 257.353 141.223 257.18C141.463 257.127 141.723 257.1 142.003 257.1C142.596 257.1 143.059 257.25 143.393 257.55C143.726 257.85 143.893 258.307 143.893 258.92V262H143.213L143.133 261.2C142.839 261.807 142.309 262.11 141.543 262.11C141.029 262.11 140.616 261.967 140.303 261.68C139.996 261.393 139.843 261.037 139.843 260.61C139.843 260.183 140.013 259.85 140.353 259.61C140.699 259.37 141.129 259.25 141.643 259.25C142.156 259.25 142.646 259.337 143.113 259.51V258.9ZM143.113 260.01C142.639 259.877 142.226 259.81 141.873 259.81C141.519 259.81 141.233 259.873 141.013 260C140.793 260.127 140.683 260.327 140.683 260.6C140.683 261.2 141.023 261.5 141.703 261.5C142.089 261.5 142.419 261.363 142.693 261.09C142.973 260.81 143.113 260.45 143.113 260.01ZM147.698 257.89C146.945 257.89 146.555 258.483 146.528 259.67V262H145.738V257.21H146.528V258.13C146.768 257.463 147.192 257.13 147.798 257.13C147.992 257.13 148.175 257.16 148.348 257.22L148.308 257.99C148.108 257.923 147.905 257.89 147.698 257.89Z" fill="white"/>
<path d="M89.976 330.384C89.7947 329.403 89.0747 328.912 87.816 328.912C87.144 328.912 86.6267 329.061 86.264 329.36C85.9013 329.648 85.72 330 85.72 330.416C85.72 330.821 85.832 331.131 86.056 331.344C86.28 331.557 86.6427 331.744 87.144 331.904L89.24 332.624C89.9547 332.869 90.52 333.205 90.936 333.632C91.3627 334.059 91.576 334.661 91.576 335.44C91.576 336.208 91.2453 336.859 90.584 337.392C89.9227 337.915 89.0373 338.176 87.928 338.176C86.8187 338.176 85.9067 337.899 85.192 337.344C84.488 336.779 84.1253 335.989 84.104 334.976H85.336C85.336 335.637 85.5653 336.144 86.024 336.496C86.4933 336.848 87.0907 337.024 87.816 337.024C88.552 337.024 89.1333 336.864 89.56 336.544C89.9867 336.213 90.2 335.829 90.2 335.392C90.2 334.944 90.0667 334.592 89.8 334.336C89.544 334.08 89.16 333.867 88.648 333.696L86.872 333.04C86.04 332.763 85.4107 332.432 84.984 332.048C84.5573 331.664 84.344 331.104 84.344 330.368C84.344 329.621 84.6427 329.003 85.24 328.512C85.8373 328.011 86.6747 327.76 87.752 327.76C88.8293 327.76 89.6507 328 90.216 328.48C90.792 328.949 91.1227 329.584 91.208 330.384H89.976ZM99.0395 333.04C99.0395 332.347 98.8955 331.851 98.6075 331.552C98.3195 331.253 97.8982 331.104 97.3435 331.104C96.7995 331.104 96.3568 331.216 96.0155 331.44C95.6848 331.653 95.5195 331.995 95.5195 332.464H94.1275C94.1275 331.291 94.7568 330.565 96.0155 330.288C96.3995 330.203 96.8155 330.16 97.2635 330.16C98.2128 330.16 98.9542 330.4 99.4875 330.88C100.021 331.36 100.288 332.091 100.288 333.072V338H99.1995L99.0715 336.72C98.6022 337.691 97.7542 338.176 96.5275 338.176C95.7062 338.176 95.0448 337.947 94.5435 337.488C94.0528 337.029 93.8075 336.459 93.8075 335.776C93.8075 335.093 94.0795 334.56 94.6235 334.176C95.1782 333.792 95.8662 333.6 96.6875 333.6C97.5088 333.6 98.2928 333.739 99.0395 334.016V333.04ZM99.0395 334.816C98.2822 334.603 97.6208 334.496 97.0555 334.496C96.4902 334.496 96.0315 334.597 95.6795 334.8C95.3275 335.003 95.1515 335.323 95.1515 335.76C95.1515 336.72 95.6955 337.2 96.7835 337.2C97.4022 337.2 97.9302 336.981 98.3675 336.544C98.8155 336.096 99.0395 335.52 99.0395 334.816ZM103.257 327.104H104.521V338H103.257V327.104ZM110.381 337.152C111.437 337.152 112.04 336.688 112.189 335.76H113.485C113.368 336.528 113.026 337.125 112.461 337.552C111.906 337.968 111.213 338.176 110.381 338.176C109.357 338.176 108.525 337.813 107.885 337.088C107.245 336.352 106.925 335.376 106.925 334.16C106.925 332.944 107.245 331.973 107.885 331.248C108.536 330.523 109.394 330.16 110.461 330.16C111.538 330.16 112.338 330.576 112.861 331.408C113.394 332.24 113.581 333.253 113.421 334.448H108.189C108.189 335.237 108.381 335.888 108.765 336.4C109.149 336.901 109.688 337.152 110.381 337.152ZM111.309 331.36C111.064 331.232 110.765 331.168 110.413 331.168C109.762 331.168 109.245 331.392 108.861 331.84C108.488 332.277 108.269 332.827 108.205 333.488H112.285C112.285 332.421 111.96 331.712 111.309 331.36ZM115.575 332.224C115.575 331.595 115.842 331.093 116.375 330.72C116.919 330.347 117.65 330.16 118.567 330.16C119.485 330.16 120.199 330.352 120.711 330.736C121.234 331.12 121.506 331.605 121.527 332.192H120.295C120.199 331.499 119.613 331.152 118.535 331.152C118.013 331.152 117.607 331.269 117.319 331.504C117.042 331.739 116.903 331.995 116.903 332.272C116.903 332.539 117.01 332.768 117.223 332.96C117.437 333.141 117.778 333.301 118.247 333.44L119.783 333.952C120.434 334.155 120.93 334.416 121.271 334.736C121.623 335.045 121.799 335.477 121.799 336.032C121.799 336.576 121.517 337.072 120.951 337.52C120.386 337.957 119.597 338.176 118.583 338.176C117.57 338.176 116.781 337.952 116.215 337.504C115.65 337.045 115.351 336.459 115.319 335.744H116.535C116.557 336.224 116.749 336.587 117.111 336.832C117.485 337.067 117.949 337.184 118.503 337.184C119.058 337.184 119.517 337.067 119.879 336.832C120.242 336.597 120.423 336.32 120.423 336C120.423 335.669 120.317 335.419 120.103 335.248C119.89 335.077 119.543 334.928 119.063 334.8L117.575 334.304C116.242 333.909 115.575 333.216 115.575 332.224ZM126.69 327.936H134.514V329.024H131.234V338H129.97V329.024H126.69V327.936ZM139.571 333.04C139.571 332.347 139.427 331.851 139.139 331.552C138.851 331.253 138.429 331.104 137.875 331.104C137.331 331.104 136.888 331.216 136.547 331.44C136.216 331.653 136.051 331.995 136.051 332.464H134.659C134.659 331.291 135.288 330.565 136.547 330.288C136.931 330.203 137.347 330.16 137.795 330.16C138.744 330.16 139.485 330.4 140.019 330.88C140.552 331.36 140.819 332.091 140.819 333.072V338H139.731L139.603 336.72C139.133 337.691 138.285 338.176 137.059 338.176C136.237 338.176 135.576 337.947 135.075 337.488C134.584 337.029 134.339 336.459 134.339 335.776C134.339 335.093 134.611 334.56 135.155 334.176C135.709 333.792 136.397 333.6 137.219 333.6C138.04 333.6 138.824 333.739 139.571 334.016V333.04ZM139.571 334.816C138.813 334.603 138.152 334.496 137.587 334.496C137.021 334.496 136.563 334.597 136.211 334.8C135.859 335.003 135.683 335.323 135.683 335.76C135.683 336.72 136.227 337.2 137.315 337.2C137.933 337.2 138.461 336.981 138.899 336.544C139.347 336.096 139.571 335.52 139.571 334.816ZM149.932 338H148.396L146.204 335.104L144.124 338H142.588L145.484 334.176L142.588 330.336H144.124L146.316 333.216L148.412 330.336H149.948L147.02 334.176L149.932 338ZM159.42 327.008C157.575 328.875 156.652 330.901 156.652 333.088C156.652 335.275 157.575 337.301 159.42 339.168L158.508 339.808C157.463 338.859 156.673 337.808 156.14 336.656C155.607 335.504 155.34 334.315 155.34 333.088C155.34 331.851 155.607 330.661 156.14 329.52C156.673 328.368 157.463 327.312 158.508 326.352L159.42 327.008ZM159.971 327.936H167.795V329.024H164.515V338H163.251V329.024H159.971V327.936ZM169.507 327.936H173.267C174.323 327.936 175.133 328.187 175.699 328.688C176.275 329.189 176.563 329.819 176.563 330.576C176.563 331.152 176.403 331.653 176.083 332.08C175.773 332.507 175.299 332.795 174.659 332.944C175.288 333.051 175.789 333.323 176.163 333.76C176.547 334.197 176.739 334.693 176.739 335.248C176.739 336.485 176.136 337.323 174.931 337.76C174.483 337.92 173.933 338 173.283 338H169.507V327.936ZM173.251 336.896C174.019 336.896 174.568 336.741 174.899 336.432C175.229 336.123 175.395 335.712 175.395 335.2C175.395 334.688 175.213 334.283 174.851 333.984C174.488 333.675 173.955 333.52 173.251 333.52H170.771V336.896H173.251ZM170.771 332.432H173.235C173.853 332.432 174.344 332.283 174.707 331.984C175.08 331.675 175.267 331.253 175.267 330.72C175.267 330.187 175.085 329.771 174.723 329.472C174.371 329.173 173.875 329.024 173.235 329.024H170.771V332.432ZM182.404 327.936C183.918 327.936 185.129 328.395 186.036 329.312C186.953 330.219 187.412 331.44 187.412 332.976C187.412 334.501 186.953 335.723 186.036 336.64C185.129 337.547 183.918 338 182.404 338H179.444V327.936H182.404ZM180.708 336.896H182.404C183.524 336.896 184.414 336.528 185.076 335.792C185.737 335.045 186.068 334.101 186.068 332.96C186.068 331.819 185.732 330.885 185.06 330.16C184.398 329.424 183.513 329.056 182.404 329.056H180.708V336.896ZM188.87 339.168C190.715 337.301 191.638 335.275 191.638 333.088C191.638 330.901 190.715 328.875 188.87 327.008L189.782 326.352C190.827 327.312 191.617 328.368 192.15 329.52C192.683 330.661 192.95 331.851 192.95 333.088C192.95 334.315 192.683 335.504 192.15 336.656C191.617 337.808 190.827 338.859 189.782 339.808L188.87 339.168Z" fill="white"/>
<path d="M83.096 366.936H90.92V368.024H87.64V377H86.376V368.024H83.096V366.936ZM94.118 369.16C95.1847 369.16 96.0433 369.507 96.694 370.2C97.3553 370.893 97.686 371.885 97.686 373.176C97.686 374.456 97.3553 375.443 96.694 376.136C96.0433 376.829 95.1847 377.176 94.118 377.176C93.0513 377.176 92.1873 376.829 91.526 376.136C90.8753 375.443 90.55 374.456 90.55 373.176C90.55 371.885 90.8753 370.893 91.526 370.2C92.1873 369.507 93.0513 369.16 94.118 369.16ZM96.406 373.176C96.406 372.259 96.214 371.544 95.83 371.032C95.446 370.509 94.8807 370.248 94.134 370.248C93.398 370.248 92.8327 370.509 92.438 371.032C92.0433 371.544 91.846 372.259 91.846 373.176C91.846 374.083 92.0327 374.797 92.406 375.32C92.7793 375.832 93.334 376.088 94.07 376.088C94.8167 376.088 95.3927 375.832 95.798 375.32C96.2033 374.797 96.406 374.083 96.406 373.176ZM104.1 376.776C103.183 377.203 102.346 377.293 101.588 377.048C101.044 376.877 100.66 376.52 100.436 375.976C100.319 375.709 100.26 375.389 100.26 375.016V370.312H99.0284V369.352H100.26V367.224H101.508V369.352H103.908V370.312H101.508V375C101.508 375.779 101.871 376.168 102.596 376.168C102.991 376.168 103.434 376.072 103.924 375.88L104.1 376.776ZM110.852 372.04C110.852 371.347 110.708 370.851 110.42 370.552C110.132 370.253 109.711 370.104 109.156 370.104C108.612 370.104 108.169 370.216 107.828 370.44C107.497 370.653 107.332 370.995 107.332 371.464H105.94C105.94 370.291 106.569 369.565 107.828 369.288C108.212 369.203 108.628 369.16 109.076 369.16C110.025 369.16 110.767 369.4 111.3 369.88C111.833 370.36 112.1 371.091 112.1 372.072V377H111.012L110.884 375.72C110.415 376.691 109.567 377.176 108.34 377.176C107.519 377.176 106.857 376.947 106.356 376.488C105.865 376.029 105.62 375.459 105.62 374.776C105.62 374.093 105.892 373.56 106.436 373.176C106.991 372.792 107.679 372.6 108.5 372.6C109.321 372.6 110.105 372.739 110.852 373.016V372.04ZM110.852 373.816C110.095 373.603 109.433 373.496 108.868 373.496C108.303 373.496 107.844 373.597 107.492 373.8C107.14 374.003 106.964 374.323 106.964 374.76C106.964 375.72 107.508 376.2 108.596 376.2C109.215 376.2 109.743 375.981 110.18 375.544C110.628 375.096 110.852 374.52 110.852 373.816ZM115.069 366.104H116.333V377H115.069V366.104ZM125.622 366.936H127.158L130.534 377H129.222L128.358 374.44H124.358L123.494 377H122.166L125.622 366.936ZM124.694 373.448H128.038L126.374 368.488L124.694 373.448ZM133.785 370.824C134.286 369.715 135.145 369.16 136.361 369.16C137.022 369.16 137.577 369.325 138.025 369.656C138.473 369.976 138.798 370.424 139.001 371C139.481 369.773 140.372 369.16 141.673 369.16C142.59 369.16 143.3 369.459 143.801 370.056C144.302 370.653 144.553 371.469 144.553 372.504V377H143.305V372.504C143.305 371.768 143.129 371.213 142.777 370.84C142.436 370.467 141.94 370.28 141.289 370.28C140.638 370.28 140.132 370.547 139.769 371.08C139.417 371.613 139.241 372.349 139.241 373.288V377H137.993V372.504C137.993 371.768 137.817 371.213 137.465 370.84C137.124 370.467 136.633 370.28 135.993 370.28C135.353 370.28 134.836 370.541 134.441 371.064C134.046 371.587 133.838 372.312 133.817 373.24V377H132.553V369.352H133.641L133.785 370.824ZM150.274 369.16C151.341 369.16 152.2 369.507 152.85 370.2C153.512 370.893 153.842 371.885 153.842 373.176C153.842 374.456 153.512 375.443 152.85 376.136C152.2 376.829 151.341 377.176 150.274 377.176C149.208 377.176 148.344 376.829 147.682 376.136C147.032 375.443 146.706 374.456 146.706 373.176C146.706 371.885 147.032 370.893 147.682 370.2C148.344 369.507 149.208 369.16 150.274 369.16ZM152.562 373.176C152.562 372.259 152.37 371.544 151.986 371.032C151.602 370.509 151.037 370.248 150.29 370.248C149.554 370.248 148.989 370.509 148.594 371.032C148.2 371.544 148.002 372.259 148.002 373.176C148.002 374.083 148.189 374.797 148.562 375.32C148.936 375.832 149.49 376.088 150.226 376.088C150.973 376.088 151.549 375.832 151.954 375.32C152.36 374.797 152.562 374.083 152.562 373.176ZM161.457 375.48C160.934 376.589 160.086 377.144 158.913 377.144C158.049 377.144 157.35 376.904 156.817 376.424C156.294 375.944 156.033 375.203 156.033 374.2V369.336H157.297V374.104C157.297 375.395 157.894 376.04 159.089 376.04C159.782 376.04 160.342 375.773 160.769 375.24C161.206 374.707 161.435 374.024 161.457 373.192V369.336H162.721V377H161.457V375.48ZM167.176 370.824C167.677 369.715 168.536 369.16 169.752 369.16C170.658 369.16 171.362 369.459 171.864 370.056C172.376 370.653 172.632 371.469 172.632 372.504V377H171.384V372.504C171.384 371.768 171.208 371.213 170.856 370.84C170.514 370.467 170.024 370.28 169.384 370.28C168.744 370.28 168.226 370.541 167.832 371.064C167.437 371.587 167.229 372.312 167.208 373.24V377H165.944V369.352H167.032L167.176 370.824ZM179.6 376.776C178.683 377.203 177.846 377.293 177.088 377.048C176.544 376.877 176.16 376.52 175.936 375.976C175.819 375.709 175.76 375.389 175.76 375.016V370.312H174.528V369.352H175.76V367.224H177.008V369.352H179.408V370.312H177.008V375C177.008 375.779 177.371 376.168 178.096 376.168C178.491 376.168 178.934 376.072 179.424 375.88L179.6 376.776Z" fill="white"/>
<path d="M299.237 327.616H307.557V329.248H304.341V338H302.453V329.248H299.237V327.616ZM309.144 327.616H313.336C314.488 327.616 315.379 327.888 316.008 328.432C316.606 328.933 316.904 329.579 316.904 330.368C316.904 330.955 316.739 331.456 316.408 331.872C316.088 332.288 315.635 332.581 315.048 332.752C315.635 332.869 316.12 333.136 316.504 333.552C316.888 333.957 317.08 334.48 317.08 335.12C317.08 336.4 316.446 337.275 315.176 337.744C314.696 337.915 314.088 338 313.352 338H309.144V327.616ZM313.304 336.352C313.912 336.352 314.35 336.229 314.616 335.984C314.894 335.739 315.032 335.413 315.032 335.008C315.032 334.603 314.888 334.277 314.6 334.032C314.323 333.776 313.891 333.648 313.304 333.648H311.032V336.352H313.304ZM311.032 332H313.256C313.822 332 314.248 331.877 314.536 331.632C314.824 331.387 314.968 331.056 314.968 330.64C314.968 330.213 314.824 329.877 314.536 329.632C314.259 329.376 313.838 329.248 313.272 329.248H311.032V332ZM322.879 327.616C324.458 327.616 325.733 328.085 326.703 329.024C327.685 329.963 328.175 331.227 328.175 332.816C328.175 334.395 327.685 335.653 326.703 336.592C325.733 337.531 324.458 338 322.879 338H319.503V327.616H322.879ZM321.407 336.288H322.879C323.861 336.288 324.655 335.957 325.263 335.296C325.839 334.656 326.127 333.829 326.127 332.816C326.127 331.781 325.839 330.944 325.263 330.304C324.666 329.653 323.871 329.328 322.879 329.328H321.407V336.288Z" fill="white"/>
<path d="M282.819 371.512C283.619 371.789 284.216 372.141 284.611 372.568C285.005 372.984 285.203 373.539 285.203 374.232C285.203 374.989 284.893 375.645 284.275 376.2C283.592 376.787 282.637 377.123 281.411 377.208V378.616H280.067V377.176C278.957 377.069 278.056 376.739 277.363 376.184C276.627 375.587 276.259 374.776 276.259 373.752H278.131C278.131 374.264 278.296 374.653 278.627 374.92C278.957 375.187 279.437 375.357 280.067 375.432V372.328L279.267 372.056C278.371 371.757 277.677 371.4 277.187 370.984C276.696 370.557 276.451 369.965 276.451 369.208C276.451 368.451 276.755 367.821 277.363 367.32C277.981 366.808 278.883 366.509 280.067 366.424V365.208H281.411V366.44C282.445 366.547 283.235 366.867 283.779 367.4C284.323 367.933 284.669 368.627 284.819 369.48H282.947C282.893 369.16 282.733 368.877 282.467 368.632C282.211 368.376 281.859 368.2 281.411 368.104V371.016L282.819 371.512ZM281.411 375.464C281.987 375.411 282.408 375.267 282.675 375.032C282.941 374.797 283.075 374.52 283.075 374.2C283.075 373.592 282.691 373.144 281.923 372.856L281.411 372.664V375.464ZM280.067 368.056C279.555 368.12 279.165 368.264 278.899 368.488C278.643 368.712 278.515 368.973 278.515 369.272C278.515 369.571 278.6 369.811 278.771 369.992C278.941 370.163 279.213 370.312 279.587 370.44L280.067 370.632V368.056ZM286.922 367.4C287.722 367.283 288.426 367 289.034 366.552H290.458V377H288.57V368.808C288.026 369.075 287.477 369.208 286.922 369.208V367.4ZM296.913 368.12C295.75 368.12 295.073 368.563 294.881 369.448H292.897C293.003 368.424 293.419 367.651 294.145 367.128C294.827 366.648 295.723 366.408 296.833 366.408C297.974 366.408 298.902 366.675 299.617 367.208C300.363 367.752 300.737 368.451 300.737 369.304C300.737 369.837 300.593 370.301 300.305 370.696C300.017 371.08 299.59 371.368 299.025 371.56C299.654 371.773 300.155 372.093 300.529 372.52C300.913 372.936 301.105 373.416 301.105 373.96C301.105 374.504 301.003 374.968 300.801 375.352C300.609 375.736 300.331 376.067 299.969 376.344C299.201 376.931 298.203 377.224 296.977 377.224C295.803 377.224 294.817 376.925 294.017 376.328C293.121 375.677 292.673 374.813 292.673 373.736H294.689C294.721 374.28 294.939 374.707 295.345 375.016C295.761 375.325 296.299 375.48 296.961 375.48C297.622 375.48 298.134 375.336 298.497 375.048C298.87 374.749 299.057 374.376 299.057 373.928C299.057 373.469 298.886 373.112 298.545 372.856C298.214 372.6 297.686 372.472 296.961 372.472H295.585V370.984H296.769C297.377 370.984 297.851 370.856 298.193 370.6C298.534 370.333 298.705 369.987 298.705 369.56C298.705 369.133 298.555 368.787 298.257 368.52C297.969 368.253 297.521 368.12 296.913 368.12ZM309.602 366.616V368.424L305.17 377H302.626L307.378 368.44H302.306V366.616H309.602ZM311.587 377.144C311.203 377.144 310.888 377.027 310.643 376.792C310.397 376.557 310.275 376.259 310.275 375.896C310.275 375.533 310.397 375.229 310.643 374.984C310.888 374.739 311.203 374.616 311.587 374.616C311.971 374.616 312.291 374.739 312.547 374.984C312.803 375.229 312.931 375.533 312.931 375.896C312.931 376.259 312.803 376.557 312.547 376.792C312.291 377.027 311.971 377.144 311.587 377.144ZM318.272 368.12C317.109 368.12 316.432 368.563 316.24 369.448H314.256C314.363 368.424 314.779 367.651 315.504 367.128C316.187 366.648 317.083 366.408 318.192 366.408C319.333 366.408 320.261 366.675 320.976 367.208C321.723 367.752 322.096 368.451 322.096 369.304C322.096 369.837 321.952 370.301 321.664 370.696C321.376 371.08 320.949 371.368 320.384 371.56C321.013 371.773 321.515 372.093 321.888 372.52C322.272 372.936 322.464 373.416 322.464 373.96C322.464 374.504 322.363 374.968 322.16 375.352C321.968 375.736 321.691 376.067 321.328 376.344C320.56 376.931 319.563 377.224 318.336 377.224C317.163 377.224 316.176 376.925 315.376 376.328C314.48 375.677 314.032 374.813 314.032 373.736H316.048C316.08 374.28 316.299 374.707 316.704 375.016C317.12 375.325 317.659 375.48 318.32 375.48C318.981 375.48 319.493 375.336 319.856 375.048C320.229 374.749 320.416 374.376 320.416 373.928C320.416 373.469 320.245 373.112 319.904 372.856C319.573 372.6 319.045 372.472 318.32 372.472H316.944V370.984H318.128C318.736 370.984 319.211 370.856 319.552 370.6C319.893 370.333 320.064 369.987 320.064 369.56C320.064 369.133 319.915 368.787 319.616 368.52C319.328 368.253 318.88 368.12 318.272 368.12ZM323.953 367.4C324.753 367.283 325.457 367 326.065 366.552H327.489V377H325.601V368.808C325.057 369.075 324.508 369.208 323.953 369.208V367.4Z" fill="white"/>
<circle cx="367.5" cy="187.5" r="10" fill="#181827" stroke="black"/>
<path d="M366.803 188.601L364.45 186.32L363 187.726L366.078 190.709C366.27 190.895 366.531 191 366.803 191C367.075 191 367.336 190.895 367.528 190.709L373 185.405L371.55 184L366.803 188.601Z" fill="white"/>
<path d="M127.448 54V53.744L128.888 53.104V44.992L126.088 46.4V45.84L129.928 43.44H130.248V53.104L131.528 53.744V54H127.448Z" fill="black"/>
<path d="M237.832 54V53.6C238.76 52.5333 239.523 51.6427 240.12 50.928C240.717 50.2133 241.181 49.6213 241.512 49.152C241.853 48.672 242.099 48.2667 242.248 47.936C242.408 47.6053 242.504 47.3067 242.536 47.04C242.579 46.7627 242.6 46.464 242.6 46.144C242.6 45.4933 242.429 44.9813 242.088 44.608C241.747 44.224 241.331 44.032 240.84 44.032C240.285 44.032 239.859 44.1813 239.56 44.48C239.261 44.768 239.112 45.2053 239.112 45.792V46.512L239.032 46.624H238.296C238.083 46.624 237.923 46.5867 237.816 46.512C237.709 46.4373 237.656 46.2507 237.656 45.952C237.656 45.6747 237.736 45.392 237.896 45.104C238.067 44.8053 238.323 44.5387 238.664 44.304C238.941 44.112 239.203 43.9413 239.448 43.792C239.704 43.632 239.976 43.5093 240.264 43.424C240.563 43.328 240.92 43.28 241.336 43.28C241.88 43.28 242.36 43.408 242.776 43.664C243.203 43.92 243.539 44.2613 243.784 44.688C244.029 45.1147 244.152 45.5893 244.152 46.112C244.152 46.464 244.109 46.7893 244.024 47.088C243.939 47.376 243.795 47.6747 243.592 47.984C243.4 48.2933 243.128 48.656 242.776 49.072C242.435 49.4773 241.997 49.9733 241.464 50.56C240.941 51.136 240.312 51.8453 239.576 52.688H243.336L244.136 51.136H244.392L244.232 54H237.832Z" fill="black"/>
<path d="M322.904 54.16C321.891 54.16 321.064 53.9147 320.424 53.424C319.827 52.976 319.528 52.528 319.528 52.08C319.528 51.856 319.576 51.7173 319.672 51.664C319.768 51.6 319.912 51.568 320.104 51.568H320.84L320.952 51.68V52.208C320.952 52.5493 321.112 52.8427 321.432 53.088C321.752 53.3227 322.253 53.44 322.936 53.44C323.608 53.44 324.131 53.2373 324.504 52.832C324.877 52.4267 325.064 51.8987 325.064 51.248C325.064 50.5227 324.872 49.952 324.488 49.536C324.104 49.1093 323.411 48.896 322.408 48.896H321.464V48.192H321.896C322.653 48.192 323.277 47.9947 323.768 47.6C324.269 47.1947 324.52 46.6347 324.52 45.92C324.52 45.248 324.371 44.7627 324.072 44.464C323.784 44.1547 323.373 44 322.84 44C322.371 44 321.992 44.1333 321.704 44.4C321.416 44.656 321.272 44.9973 321.272 45.424V46L321.144 46.128H320.472C320.259 46.128 320.099 46.096 319.992 46.032C319.896 45.968 319.848 45.8133 319.848 45.568C319.848 45.3013 319.939 45.024 320.12 44.736C320.312 44.448 320.605 44.1867 321 43.952C321.363 43.728 321.704 43.5627 322.024 43.456C322.355 43.3387 322.744 43.28 323.192 43.28C323.747 43.28 324.237 43.392 324.664 43.616C325.101 43.84 325.443 44.144 325.688 44.528C325.944 44.912 326.072 45.3387 326.072 45.808C326.072 46.352 325.864 46.8533 325.448 47.312C325.032 47.76 324.467 48.08 323.752 48.272C324.712 48.4213 325.432 48.7573 325.912 49.28C326.392 49.8027 326.632 50.4427 326.632 51.2C326.632 51.7227 326.461 52.208 326.12 52.656C325.779 53.104 325.325 53.4667 324.76 53.744C324.205 54.0213 323.587 54.16 322.904 54.16Z" fill="black"/>
<line x1="368" y1="65" x2="394" y2="65" stroke="white" stroke-width="2"/>
<path d="M368 73H394" stroke="white" stroke-width="2"/>
<path d="M368 81L394 81" stroke="white" stroke-width="2"/>
<path fill-rule="evenodd" clip-rule="evenodd" d="M316.238 32.1277H319.398C319.518 32.1277 319.637 32.2434 319.637 32.3592V35.3685C319.637 35.4843 319.518 35.6 319.398 35.6H316.238C316.119 35.6 316 35.4843 316 35.3685V32.3592C316 32.2434 316.119 32.1277 316.238 32.1277Z" fill="white"/>
<path fill-rule="evenodd" clip-rule="evenodd" d="M322.379 28.7132H325.539C325.658 28.7132 325.777 28.8289 325.777 28.9447V35.2528C325.777 35.3685 325.658 35.4842 325.539 35.4842H322.379C322.26 35.4842 322.141 35.3685 322.141 35.2528V28.9447C322.141 28.8289 322.26 28.7132 322.379 28.7132Z" fill="white"/>
<path fill-rule="evenodd" clip-rule="evenodd" d="M328.461 25.3566H331.621C331.74 25.3566 331.86 25.4723 331.86 25.5881V35.3106C331.86 35.4264 331.74 35.5421 331.621 35.5421H328.461C328.342 35.5421 328.223 35.4264 328.223 35.3106V25.5881C328.223 25.4723 328.342 25.3566 328.461 25.3566Z" fill="white"/>
<path fill-rule="evenodd" clip-rule="evenodd" d="M334.602 22H337.762C337.881 22 338 22.1157 338 22.2315V35.3106C338 35.4264 337.881 35.5421 337.762 35.5421H334.602C334.483 35.5421 334.363 35.4264 334.363 35.3106V22.2315C334.363 22.1157 334.483 22 334.602 22Z" fill="white"/>
<g clip-path="url(#clip0)">
<path d="M363.141 26.4159L361.193 28.3917C360.118 27.2941 358.841 26.4232 357.435 25.829C356.029 25.2348 354.522 24.9289 353 24.9289C351.478 24.9289 349.971 25.2348 348.565 25.829C347.159 26.4232 345.882 27.2941 344.807 28.3917L342.859 26.4159C344.189 25.0571 345.77 23.979 347.51 23.2434C349.25 22.5078 351.116 22.1291 353 22.1291C354.884 22.1291 356.75 22.5078 358.49 23.2434C360.23 23.979 361.811 25.0571 363.141 26.4159ZM346.525 30.1492L348.476 32.1223C349.069 31.5163 349.775 31.0356 350.551 30.7076C351.328 30.3795 352.16 30.2107 353 30.2107C353.841 30.2107 354.673 30.3795 355.45 30.7076C356.226 31.0356 356.931 31.5163 357.525 32.1223L359.476 30.1492C358.627 29.2813 357.617 28.5926 356.506 28.1227C355.395 27.6528 354.204 27.4109 353 27.4109C351.797 27.4109 350.606 27.6528 349.495 28.1227C348.383 28.5926 347.374 29.2813 346.525 30.1492ZM350.25 33.9367L353 36.7367L355.75 33.9367C355.39 33.5683 354.961 33.2761 354.489 33.0767C354.017 32.8773 353.511 32.7747 353 32.7747C352.49 32.7747 351.984 32.8773 351.512 33.0767C351.04 33.2761 350.611 33.5683 350.25 33.9367Z" fill="white"/>
</g>
<g clip-path="url(#clip1)">
<path d="M382.733 25.68H371.467V32.72H382.733V25.68Z" fill="white"/>
<path d="M390.534 25.68V23.04H368.867V35.36H390.534V32.72H393.134V25.68H390.534ZM388.801 33.6H370.601V24.8H388.801V33.6Z" fill="white"/>
</g>
<path d="M22.576 32.168C22.6187 32.6267 22.7787 33 23.056 33.288C23.344 33.5653 23.728 33.704 24.208 33.704C24.6987 33.704 25.088 33.576 25.376 33.32C25.6747 33.0533 25.904 32.728 26.064 32.344C26.224 31.9493 26.3307 31.5333 26.384 31.096C26.448 30.648 26.496 30.2373 26.528 29.864L26.496 29.832C26.2507 30.2693 25.9147 30.6053 25.488 30.84C25.0613 31.064 24.592 31.176 24.08 31.176C23.5467 31.176 23.0613 31.0853 22.624 30.904C22.1973 30.7227 21.8293 30.472 21.52 30.152C21.2107 29.8213 20.9707 29.4267 20.8 28.968C20.6293 28.4987 20.544 27.976 20.544 27.4C20.544 26.856 20.6293 26.3547 20.8 25.896C20.9707 25.4267 21.2213 25.0213 21.552 24.68C21.8827 24.328 22.288 24.056 22.768 23.864C23.248 23.672 23.792 23.576 24.4 23.576C25.1893 23.576 25.84 23.7307 26.352 24.04C26.864 24.3387 27.264 24.7547 27.552 25.288C27.8507 25.8107 28.0587 26.4293 28.176 27.144C28.2933 27.8587 28.352 28.6213 28.352 29.432C28.352 30.104 28.2773 30.7813 28.128 31.464C27.9893 32.1467 27.7547 32.7707 27.424 33.336C27.0933 33.8907 26.656 34.344 26.112 34.696C25.5787 35.048 24.9173 35.224 24.128 35.224C23.68 35.224 23.2587 35.1493 22.864 35C22.4693 34.8507 22.1173 34.6427 21.808 34.376C21.5093 34.1093 21.264 33.7893 21.072 33.416C20.88 33.0427 20.7733 32.6267 20.752 32.168H22.576ZM24.32 25.096C23.9893 25.096 23.7013 25.16 23.456 25.288C23.2107 25.4053 23.008 25.5707 22.848 25.784C22.688 25.9973 22.5653 26.2427 22.48 26.52C22.4053 26.7973 22.368 27.0853 22.368 27.384C22.368 27.6933 22.4053 27.992 22.48 28.28C22.5653 28.5573 22.688 28.8027 22.848 29.016C23.008 29.2293 23.2107 29.4053 23.456 29.544C23.7013 29.672 23.9893 29.736 24.32 29.736C24.6613 29.736 24.96 29.672 25.216 29.544C25.472 29.416 25.68 29.2453 25.84 29.032C26.0107 28.808 26.1387 28.5573 26.224 28.28C26.3093 27.992 26.352 27.6933 26.352 27.384C26.352 27.0853 26.3093 26.7973 26.224 26.52C26.1387 26.2427 26.0107 26.0027 25.84 25.8C25.68 25.5867 25.472 25.416 25.216 25.288C24.96 25.16 24.6613 25.096 24.32 25.096ZM29.9946 32.84H32.2186V35H29.9946V32.84ZM29.9946 26.904H32.2186V29.064H29.9946V26.904ZM35.1358 30.904H38.5278V25.976H38.4958L35.1358 30.904ZM41.6958 32.344H40.2558V35H38.5278V32.344H33.7278V30.536L38.5278 23.8H40.2558V30.904H41.6958V32.344ZM43.0824 25.656C43.4664 25.656 43.8397 25.624 44.2024 25.56C44.565 25.496 44.8904 25.3893 45.1784 25.24C45.477 25.0907 45.7277 24.8987 45.9304 24.664C46.1437 24.4293 46.2824 24.1413 46.3464 23.8H47.8344V35H45.8344V27.096H43.0824V25.656Z" fill="white"/>
<rect x="20.5" y="418.5" width="373" height="43" rx="19.5" fill="#DFBC60" stroke="#181827"/>
<path d="M108.074 432.112C109.034 432.112 109.866 432.232 110.57 432.472C111.274 432.696 111.882 433.016 112.394 433.432C113.402 434.248 114.058 435.392 114.362 436.864L111.338 437.416C111.082 436.6 110.682 435.944 110.138 435.448C109.61 434.936 108.946 434.68 108.146 434.68C107.058 434.68 106.178 435.136 105.506 436.048C104.786 437.04 104.426 438.416 104.426 440.176C104.426 441.92 104.746 443.288 105.386 444.28C106.026 445.256 106.898 445.744 108.002 445.744C109.106 445.744 109.938 445.48 110.498 444.952C111.058 444.408 111.338 443.712 111.338 442.864H114.386C114.386 444.608 113.826 445.96 112.706 446.92C111.602 447.864 110.082 448.336 108.146 448.336C106.082 448.336 104.442 447.616 103.226 446.176C101.994 444.704 101.378 442.704 101.378 440.176C101.378 437.616 102.01 435.616 103.274 434.176C104.49 432.8 106.09 432.112 108.074 432.112ZM122.277 436.024C123.061 436.024 123.797 436.152 124.485 436.408C125.173 436.648 125.765 437.024 126.261 437.536C127.365 438.656 127.917 440.208 127.917 442.192C127.917 444.144 127.365 445.68 126.261 446.8C125.269 447.824 123.941 448.336 122.277 448.336C120.613 448.336 119.269 447.824 118.245 446.8C117.141 445.696 116.589 444.16 116.589 442.192C116.589 440.192 117.141 438.64 118.245 437.536C119.253 436.528 120.597 436.024 122.277 436.024ZM125.085 442.168C125.085 440.936 124.845 440.016 124.365 439.408C123.885 438.784 123.213 438.472 122.349 438.472C121.501 438.472 120.805 438.784 120.261 439.408C119.717 440.016 119.445 440.936 119.445 442.168C119.445 443.4 119.685 444.328 120.165 444.952C120.661 445.56 121.333 445.864 122.181 445.864C123.029 445.864 123.725 445.56 124.269 444.952C124.813 444.328 125.085 443.4 125.085 442.168ZM141.655 438.544C142.407 436.864 143.727 436.024 145.615 436.024C147.007 436.024 148.087 436.496 148.855 437.44C149.591 438.336 149.959 439.584 149.959 441.184V448H147.103V441.184C147.103 440.32 146.895 439.672 146.479 439.24C146.063 438.792 145.479 438.568 144.727 438.568C143.975 438.568 143.359 438.896 142.879 439.552C142.399 440.208 142.143 441.2 142.111 442.528V448H139.279V441.184C139.279 440.32 139.071 439.672 138.655 439.24C138.239 438.792 137.655 438.568 136.903 438.568C136.151 438.568 135.503 438.904 134.959 439.576C134.431 440.248 134.151 441.256 134.119 442.6V448H131.287V436.336H133.759L134.071 438.352C134.839 436.8 136.071 436.024 137.767 436.024C138.743 436.024 139.551 436.248 140.191 436.696C140.847 437.144 141.335 437.76 141.655 438.544ZM156.66 437.92C157.396 436.656 158.516 436.024 160.02 436.024C161.46 436.024 162.692 436.568 163.716 437.656C164.804 438.808 165.348 440.312 165.348 442.168C165.348 444.04 164.796 445.552 163.692 446.704C162.668 447.792 161.444 448.336 160.02 448.336C158.596 448.336 157.556 447.912 156.9 447.064V453.688H154.068V436.336H156.396L156.66 437.92ZM159.516 445.768C159.852 445.768 160.196 445.696 160.548 445.552C160.916 445.408 161.244 445.184 161.532 444.88C162.172 444.208 162.492 443.312 162.492 442.192C162.492 441.056 162.212 440.168 161.652 439.528C161.108 438.888 160.436 438.568 159.636 438.568C158.852 438.568 158.204 438.8 157.692 439.264C157.196 439.712 156.932 440.36 156.9 441.208V443.296C156.9 444.048 157.164 444.656 157.692 445.12C158.188 445.552 158.796 445.768 159.516 445.768ZM168.716 431.536H171.548V448H168.716V431.536ZM184.141 437.728C184.541 438.24 184.837 438.832 185.029 439.504C185.237 440.176 185.341 440.792 185.341 441.352C185.341 441.912 185.309 442.416 185.245 442.864H177.709C177.741 443.808 177.973 444.576 178.405 445.168C178.837 445.76 179.493 446.056 180.373 446.056C181.541 446.056 182.237 445.544 182.461 444.52H185.317C185.125 445.688 184.589 446.608 183.709 447.28C182.797 447.984 181.685 448.336 180.373 448.336C178.837 448.336 177.549 447.776 176.509 446.656C175.437 445.488 174.901 443.992 174.901 442.168C174.901 440.296 175.437 438.792 176.509 437.656C177.533 436.568 178.821 436.024 180.373 436.024C181.989 436.024 183.245 436.592 184.141 437.728ZM180.397 438.28C179.597 438.28 178.973 438.544 178.525 439.072C178.077 439.584 177.813 440.248 177.733 441.064H182.701C182.701 439.8 182.301 438.952 181.501 438.52C181.197 438.36 180.829 438.28 180.397 438.28ZM195.308 447.712C194.252 448.128 193.42 448.336 192.812 448.336C192.204 448.336 191.668 448.264 191.204 448.12C190.756 447.976 190.356 447.76 190.004 447.472C189.268 446.816 188.9 445.912 188.9 444.76V438.232H187.268V436.336H188.9V433.264H191.732V436.336H194.9V438.232H191.732V444.664C191.732 445.624 192.188 446.104 193.1 446.104C193.564 446.104 194.164 445.976 194.9 445.72L195.308 447.712ZM206.337 437.728C206.737 438.24 207.033 438.832 207.225 439.504C207.433 440.176 207.537 440.792 207.537 441.352C207.537 441.912 207.505 442.416 207.441 442.864H199.905C199.937 443.808 200.169 444.576 200.601 445.168C201.033 445.76 201.689 446.056 202.569 446.056C203.737 446.056 204.433 445.544 204.657 444.52H207.513C207.321 445.688 206.785 446.608 205.905 447.28C204.993 447.984 203.881 448.336 202.569 448.336C201.033 448.336 199.745 447.776 198.705 446.656C197.633 445.488 197.097 443.992 197.097 442.168C197.097 440.296 197.633 438.792 198.705 437.656C199.729 436.568 201.017 436.024 202.569 436.024C204.185 436.024 205.441 436.592 206.337 437.728ZM202.593 438.28C201.793 438.28 201.169 438.544 200.721 439.072C200.273 439.584 200.009 440.248 199.929 441.064H204.897C204.897 439.8 204.497 438.952 203.697 438.52C203.393 438.36 203.025 438.28 202.593 438.28ZM222.422 432.424C224.182 432.424 225.55 432.856 226.526 433.72C227.518 434.568 228.014 435.792 228.014 437.392C228.014 438.976 227.518 440.2 226.526 441.064C225.55 441.912 224.182 442.336 222.422 442.336H219.782V448H216.926V432.424H222.422ZM222.422 439.864C223.302 439.864 223.966 439.632 224.414 439.168C224.862 438.704 225.086 438.112 225.086 437.392C225.086 436.656 224.862 436.056 224.414 435.592C223.966 435.112 223.302 434.872 222.422 434.872H219.782V439.864H222.422ZM234.783 441.184C235.711 441.184 236.783 441.336 237.999 441.64V440.488C237.999 439.672 237.831 439.072 237.495 438.688C237.175 438.288 236.639 438.088 235.887 438.088C235.151 438.088 234.583 438.24 234.183 438.544C233.783 438.832 233.583 439.248 233.583 439.792H230.487C230.487 438.464 230.951 437.504 231.879 436.912C232.823 436.32 234.135 436.024 235.815 436.024C238.215 436.024 239.767 436.864 240.471 438.544C240.711 439.12 240.831 439.8 240.831 440.584V448H238.359L238.143 446.44C237.391 447.704 236.239 448.336 234.687 448.336C233.183 448.336 232.015 447.968 231.183 447.232C230.415 446.528 230.031 445.64 230.031 444.568C230.031 443.48 230.455 442.648 231.303 442.072C232.151 441.48 233.311 441.184 234.783 441.184ZM237.999 443.44C237.055 443.184 236.175 443.056 235.359 443.056C233.823 443.056 233.055 443.568 233.055 444.592C233.055 445.024 233.231 445.4 233.583 445.72C233.935 446.024 234.495 446.176 235.263 446.176C236.047 446.176 236.687 445.92 237.183 445.408C237.695 444.88 237.967 444.224 237.999 443.44ZM246.399 436.336L249.207 444.736L251.655 436.336H254.535L250.071 450.112C249.607 451.504 249.039 452.504 248.367 453.112C247.711 453.72 246.871 454.024 245.847 454.024C244.807 454.024 243.767 453.768 242.727 453.256V450.76C243.559 451.288 244.399 451.552 245.247 451.552C245.807 451.552 246.263 451.328 246.615 450.88C246.983 450.432 247.279 449.848 247.503 449.128L247.863 448L243.183 436.336H246.399ZM267.42 438.544C268.172 436.864 269.492 436.024 271.38 436.024C272.772 436.024 273.852 436.496 274.62 437.44C275.356 438.336 275.724 439.584 275.724 441.184V448H272.868V441.184C272.868 440.32 272.66 439.672 272.244 439.24C271.828 438.792 271.244 438.568 270.492 438.568C269.74 438.568 269.124 438.896 268.644 439.552C268.164 440.208 267.908 441.2 267.876 442.528V448H265.044V441.184C265.044 440.32 264.836 439.672 264.42 439.24C264.004 438.792 263.42 438.568 262.668 438.568C261.916 438.568 261.268 438.904 260.724 439.576C260.196 440.248 259.916 441.256 259.884 442.6V448H257.052V436.336H259.524L259.836 438.352C260.604 436.8 261.836 436.024 263.532 436.024C264.508 436.024 265.316 436.248 265.956 436.696C266.612 437.144 267.1 437.76 267.42 438.544ZM287.97 437.728C288.37 438.24 288.666 438.832 288.858 439.504C289.066 440.176 289.17 440.792 289.17 441.352C289.17 441.912 289.138 442.416 289.074 442.864H281.538C281.57 443.808 281.802 444.576 282.234 445.168C282.666 445.76 283.322 446.056 284.202 446.056C285.37 446.056 286.066 445.544 286.29 444.52H289.146C288.954 445.688 288.418 446.608 287.538 447.28C286.626 447.984 285.514 448.336 284.202 448.336C282.666 448.336 281.378 447.776 280.338 446.656C279.266 445.488 278.73 443.992 278.73 442.168C278.73 440.296 279.266 438.792 280.338 437.656C281.362 436.568 282.65 436.024 284.202 436.024C285.818 436.024 287.074 436.592 287.97 437.728ZM284.226 438.28C283.426 438.28 282.802 438.544 282.354 439.072C281.906 439.584 281.642 440.248 281.562 441.064H286.53C286.53 439.8 286.13 438.952 285.33 438.52C285.026 438.36 284.658 438.28 284.226 438.28ZM295.344 438.352C296.112 436.8 297.344 436.024 299.04 436.024C300.48 436.024 301.56 436.496 302.28 437.44C303.016 438.384 303.384 439.632 303.384 441.184V448H300.552V441.184C300.552 440.32 300.344 439.672 299.928 439.24C299.512 438.792 298.928 438.568 298.176 438.568C297.424 438.568 296.776 438.904 296.232 439.576C295.704 440.248 295.424 441.256 295.392 442.6V448H292.56V436.336H295.032L295.344 438.352ZM314.089 447.712C313.033 448.128 312.201 448.336 311.593 448.336C310.985 448.336 310.449 448.264 309.985 448.12C309.537 447.976 309.137 447.76 308.785 447.472C308.049 446.816 307.681 445.912 307.681 444.76V438.232H306.049V436.336H307.681V433.264H310.513V436.336H313.681V438.232H310.513V444.664C310.513 445.624 310.969 446.104 311.881 446.104C312.345 446.104 312.945 445.976 313.681 445.72L314.089 447.712Z" fill="#181827"/>
<path d="M32.8302 85.5384C32.6299 85.823 32.2073 85.821 32.0097 85.5345L21.4928 70.2839C21.2641 69.9522 21.5015 69.5 21.9044 69.5L43.1553 69.5C43.5604 69.5 43.7974 69.9565 43.5642 70.2878L32.8302 85.5384Z" stroke="white"/>
<path d="M27.3836 77.4352L32.5405 69.8864L37.6974 77.4352H27.3836Z" stroke="white"/>
<line x1="38.8203" y1="74.6797" x2="21.3918" y2="74.6797" stroke="white"/>
<path d="M40.2178 86V85.616L41.7538 84.824L47.8978 70.04H48.9778L55.0258 84.752L56.6338 85.616V86H50.6818V85.616L52.7938 84.8L50.9938 80.36H45.1618L43.3858 84.8L45.4018 85.616V86H40.2178ZM45.7138 79.04H50.4658L48.0898 73.136L45.7138 79.04ZM62.3034 86.24C61.5514 86.24 60.9034 86.176 60.3594 86.048C59.8154 85.92 59.2634 85.712 58.7034 85.424V82.736H59.0394L59.8074 84.056C60.3034 84.936 61.1114 85.376 62.2314 85.376C62.8714 85.376 63.3674 85.224 63.7194 84.92C64.0874 84.616 64.2714 84.2 64.2714 83.672C64.2714 83.208 64.1594 82.848 63.9354 82.592C63.7114 82.336 63.3914 82.112 62.9754 81.92C62.5754 81.712 62.0954 81.48 61.5354 81.224C60.7194 80.856 60.0874 80.456 59.6394 80.024C59.2074 79.576 58.9914 78.952 58.9914 78.152C58.9914 77.56 59.1594 77.024 59.4954 76.544C59.8314 76.064 60.2554 75.68 60.7674 75.392C61.2954 75.104 61.8394 74.96 62.3994 74.96C62.9914 74.96 63.5354 75.032 64.0314 75.176C64.5274 75.32 65.0314 75.52 65.5434 75.776V78.392H65.2074L64.4154 77.12C64.1434 76.688 63.8474 76.376 63.5274 76.184C63.2074 75.992 62.8634 75.896 62.4954 75.896C61.9514 75.896 61.5114 76.032 61.1754 76.304C60.8554 76.576 60.6954 76.952 60.6954 77.432C60.6954 77.976 60.8874 78.392 61.2714 78.68C61.6714 78.952 62.2474 79.264 62.9994 79.616C63.4474 79.84 63.8954 80.064 64.3434 80.288C64.8074 80.512 65.1834 80.832 65.4714 81.248C65.7754 81.648 65.9274 82.224 65.9274 82.976C65.9274 83.68 65.7354 84.28 65.3514 84.776C64.9674 85.256 64.4954 85.624 63.9354 85.88C63.3754 86.12 62.8314 86.24 62.3034 86.24ZM72.3084 86.24C71.6044 86.24 70.9964 86.032 70.4844 85.616C69.9724 85.2 69.7164 84.616 69.7164 83.864V76.328H67.7484V76.184L69.7884 75.2L71.4924 72.56H71.6364V75.2H74.8044V76.328H71.6364V83.456C71.6364 83.872 71.8204 84.176 72.1884 84.368C72.5564 84.56 72.9884 84.656 73.4844 84.656C73.7884 84.656 74.0684 84.64 74.3244 84.608C74.5964 84.576 74.8284 84.536 75.0204 84.488H75.0924V84.728C74.9324 85.096 74.6124 85.44 74.1324 85.76C73.6684 86.08 73.0604 86.24 72.3084 86.24ZM77.2832 86V85.616L78.7952 84.848V77.696L77.3552 76.448V76.28L80.3312 74.96H80.4752L80.6912 77H80.7872C81.1552 76.408 81.4912 75.968 81.7952 75.68C82.1152 75.376 82.4112 75.184 82.6832 75.104C82.9552 75.008 83.2272 74.96 83.4992 74.96C83.6272 74.96 83.7712 74.984 83.9312 75.032C84.1072 75.08 84.2512 75.128 84.3632 75.176C84.5392 75.256 84.6992 75.352 84.8432 75.464C85.0032 75.576 85.0832 75.704 85.0832 75.848C85.0832 75.992 85.0512 76.136 84.9872 76.28L84.5072 77.456H84.3392L83.4272 77.096C83.2512 77.016 83.0752 76.968 82.8992 76.952C82.7392 76.936 82.5792 76.928 82.4192 76.928C81.7472 76.928 81.1792 77.272 80.7152 77.96V84.848L82.4192 85.616V86H77.2832ZM92.0542 86.24C90.9982 86.24 90.0702 85.992 89.2702 85.496C88.4862 85 87.8702 84.328 87.4222 83.48C86.9902 82.632 86.7742 81.672 86.7742 80.6C86.7742 79.528 86.9902 78.568 87.4222 77.72C87.8702 76.872 88.4862 76.2 89.2702 75.704C90.0702 75.208 90.9982 74.96 92.0542 74.96C93.1102 74.96 94.0302 75.208 94.8142 75.704C95.6142 76.2 96.2302 76.872 96.6622 77.72C97.1102 78.568 97.3342 79.528 97.3342 80.6C97.3342 81.672 97.1102 82.632 96.6622 83.48C96.2302 84.328 95.6142 85 94.8142 85.496C94.0302 85.992 93.1102 86.24 92.0542 86.24ZM92.3902 85.208C93.0302 85.208 93.5582 85.008 93.9742 84.608C94.3902 84.208 94.6942 83.696 94.8862 83.072C95.0782 82.432 95.1742 81.768 95.1742 81.08C95.1742 80.232 95.0542 79.416 94.8142 78.632C94.5902 77.848 94.2222 77.208 93.7102 76.712C93.2142 76.216 92.5662 75.968 91.7662 75.968C91.1102 75.968 90.5742 76.168 90.1582 76.568C89.7422 76.968 89.4302 77.48 89.2222 78.104C89.0302 78.728 88.9342 79.392 88.9342 80.096C88.9342 80.944 89.0542 81.76 89.2942 82.544C89.5342 83.328 89.9102 83.968 90.4222 84.464C90.9342 84.96 91.5902 85.208 92.3902 85.208ZM100.095 86V85.616L102.015 84.656V71.504L100.095 70.544V70.16H107.127C108.887 70.16 110.391 70.472 111.639 71.096C112.887 71.72 113.831 72.576 114.471 73.664C115.127 74.752 115.455 75.984 115.455 77.36C115.455 78.608 115.239 79.76 114.807 80.816C114.391 81.872 113.799 82.784 113.031 83.552C112.263 84.32 111.359 84.92 110.319 85.352C109.295 85.784 108.175 86 106.959 86H100.095ZM106.575 71.48H104.175V84.68H106.935C108.215 84.68 109.319 84.416 110.247 83.888C111.191 83.344 111.911 82.584 112.407 81.608C112.919 80.616 113.175 79.448 113.175 78.104C113.175 76.776 112.919 75.616 112.407 74.624C111.895 73.616 111.143 72.84 110.151 72.296C109.175 71.752 107.983 71.48 106.575 71.48ZM120.889 86.24C120.137 86.24 119.513 86.024 119.017 85.592C118.521 85.144 118.273 84.528 118.273 83.744C118.273 82.96 118.561 82.28 119.137 81.704C119.729 81.128 120.713 80.68 122.089 80.36L124.369 79.832V78.08C124.369 77.536 124.145 77.072 123.697 76.688C123.265 76.288 122.769 76.088 122.209 76.088C121.601 76.088 121.177 76.256 120.937 76.592C120.697 76.912 120.577 77.344 120.577 77.888V78.56L120.457 78.68H119.209C118.969 78.68 118.801 78.64 118.705 78.56C118.625 78.48 118.585 78.296 118.585 78.008C118.585 77.656 118.689 77.296 118.897 76.928C119.105 76.56 119.425 76.24 119.857 75.968C120.305 75.68 120.769 75.44 121.249 75.248C121.745 75.056 122.273 74.96 122.833 74.96C123.393 74.96 123.937 75.04 124.465 75.2C125.009 75.36 125.449 75.632 125.785 76.016C126.121 76.384 126.289 76.904 126.289 77.576V84.392C126.401 84.504 126.561 84.6 126.769 84.68C126.977 84.76 127.265 84.8 127.633 84.8H128.545L128.617 84.848V84.92C128.425 85.272 128.137 85.584 127.753 85.856C127.385 86.112 126.929 86.24 126.385 86.24C125.889 86.24 125.481 86.112 125.161 85.856C124.857 85.584 124.641 85.232 124.513 84.8H124.369C123.953 85.216 123.433 85.56 122.809 85.832C122.201 86.104 121.561 86.24 120.889 86.24ZM120.145 83.264C120.145 84.256 120.745 84.752 121.945 84.752C122.329 84.752 122.705 84.712 123.073 84.632C123.457 84.552 123.889 84.408 124.369 84.2V80.648C123.089 80.888 122.153 81.144 121.561 81.416C120.969 81.672 120.585 81.952 120.409 82.256C120.233 82.56 120.145 82.896 120.145 83.264ZM133.879 86.24C133.175 86.24 132.567 86.032 132.055 85.616C131.543 85.2 131.287 84.616 131.287 83.864V76.328H129.319V76.184L131.359 75.2L133.063 72.56H133.207V75.2H136.375V76.328H133.207V83.456C133.207 83.872 133.391 84.176 133.759 84.368C134.127 84.56 134.559 84.656 135.055 84.656C135.359 84.656 135.639 84.64 135.895 84.608C136.167 84.576 136.399 84.536 136.591 84.488H136.663V84.728C136.503 85.096 136.183 85.44 135.703 85.76C135.239 86.08 134.631 86.24 133.879 86.24ZM143.587 86.24C142.035 86.24 140.811 85.768 139.915 84.824C139.019 83.88 138.571 82.632 138.571 81.08C138.571 79.88 138.803 78.824 139.267 77.912C139.747 76.984 140.371 76.264 141.139 75.752C141.923 75.224 142.771 74.96 143.683 74.96C144.947 74.96 145.939 75.4 146.659 76.28C147.395 77.16 147.763 78.424 147.763 80.072L147.643 80.192H140.467C140.483 80.928 140.627 81.624 140.899 82.28C141.171 82.92 141.603 83.44 142.195 83.84C142.803 84.24 143.611 84.44 144.619 84.44C145.499 84.44 146.531 84.12 147.715 83.48H147.787V83.72C147.419 84.408 146.867 85 146.131 85.496C145.411 85.992 144.563 86.24 143.587 86.24ZM143.299 76.016C142.531 76.016 141.899 76.288 141.403 76.832C140.923 77.36 140.627 78.112 140.515 79.088H145.939C145.763 78 145.451 77.216 145.003 76.736C144.571 76.256 144.003 76.016 143.299 76.016Z" fill="#DFBC60"/>
<defs>
<clipPath id="clip0">
<rect width="22" height="28" fill="white" transform="translate(342 18)"/>
</clipPath>
<clipPath id="clip1">
<rect width="26" height="33" fill="white" transform="translate(368 16)"/>
</clipPath>
</defs>
</svg>
