<svg width="414" height="734" viewBox="0 0 414 734" fill="none" xmlns="http://www.w3.org/2000/svg">
<rect width="414" height="734" fill="#181826"/>
<path d="M0 0H414V734H0V0Z" fill="#181826"/>
<path d="M27.824 114.112C28.784 114.112 29.616 114.232 30.32 114.472C31.024 114.696 31.632 115.016 32.144 115.432C33.152 116.248 33.808 117.392 34.112 118.864L31.088 119.416C30.832 118.6 30.432 117.944 29.888 117.448C29.36 116.936 28.696 116.68 27.896 116.68C26.808 116.68 25.928 117.136 25.256 118.048C24.536 119.04 24.176 120.416 24.176 122.176C24.176 123.92 24.496 125.288 25.136 126.28C25.776 127.256 26.648 127.744 27.752 127.744C28.856 127.744 29.688 127.48 30.248 126.952C30.808 126.408 31.088 125.712 31.088 124.864H34.136C34.136 126.608 33.576 127.96 32.456 128.92C31.352 129.864 29.832 130.336 27.896 130.336C25.832 130.336 24.192 129.616 22.976 128.176C21.744 126.704 21.128 124.704 21.128 122.176C21.128 119.616 21.76 117.616 23.024 116.176C24.24 114.8 25.84 114.112 27.824 114.112ZM45.1949 127.888C44.4589 129.44 43.2749 130.216 41.6429 130.216C39.5789 130.216 38.2189 129.408 37.5629 127.792C37.3229 127.232 37.2029 126.552 37.2029 125.752V118.312H40.0349V125.464C40.0349 126.232 40.2189 126.808 40.5869 127.192C40.9549 127.56 41.4029 127.744 41.9309 127.744C42.4749 127.744 42.9309 127.672 43.2989 127.528C43.6669 127.368 43.9869 127.136 44.2589 126.832C44.8509 126.144 45.1629 125.224 45.1949 124.072V118.312H48.0269V130H45.1949V127.888ZM54.0738 126.448C54.1058 127.552 54.9138 128.104 56.4978 128.104C57.1058 128.104 57.6018 127.976 57.9858 127.72C58.3858 127.448 58.5858 127.136 58.5858 126.784C58.5858 126.432 58.4658 126.16 58.2258 125.968C57.9858 125.776 57.6098 125.6 57.0978 125.44L54.5538 124.528C52.6658 123.872 51.7218 122.8 51.7218 121.312C51.7218 120.32 52.1618 119.528 53.0418 118.936C53.9378 118.328 55.1298 118.024 56.6178 118.024C58.1218 118.024 59.2738 118.352 60.0738 119.008C60.8898 119.664 61.3138 120.488 61.3458 121.48H58.6818C58.6498 121.096 58.4658 120.792 58.1298 120.568C57.7938 120.344 57.3138 120.232 56.6898 120.232C56.0658 120.232 55.5778 120.36 55.2258 120.616C54.8898 120.856 54.7218 121.136 54.7218 121.456C54.7218 122.016 55.1938 122.432 56.1378 122.704L58.8978 123.736C59.8098 124.04 60.5058 124.432 60.9858 124.912C61.4818 125.376 61.7298 125.984 61.7298 126.736C61.7298 127.696 61.2738 128.528 60.3618 129.232C59.4178 129.968 58.1698 130.336 56.6178 130.336C55.0658 130.336 53.8178 130 52.8738 129.328C51.9298 128.64 51.4498 127.68 51.4338 126.448H54.0738ZM71.7221 129.712C70.6661 130.128 69.8341 130.336 69.2261 130.336C68.6181 130.336 68.0821 130.264 67.6181 130.12C67.1701 129.976 66.7701 129.76 66.4181 129.472C65.6821 128.816 65.3141 127.912 65.3141 126.76V120.232H63.6821V118.336H65.3141V115.264H68.1461V118.336H71.3141V120.232H68.1461V126.664C68.1461 127.624 68.6021 128.104 69.5141 128.104C69.9781 128.104 70.5781 127.976 71.3141 127.72L71.7221 129.712ZM79.1988 118.024C79.9828 118.024 80.7188 118.152 81.4068 118.408C82.0948 118.648 82.6868 119.024 83.1828 119.536C84.2868 120.656 84.8388 122.208 84.8388 124.192C84.8388 126.144 84.2868 127.68 83.1828 128.8C82.1908 129.824 80.8628 130.336 79.1988 130.336C77.5348 130.336 76.1908 129.824 75.1668 128.8C74.0628 127.696 73.5108 126.16 73.5108 124.192C73.5108 122.192 74.0628 120.64 75.1668 119.536C76.1748 118.528 77.5188 118.024 79.1988 118.024ZM82.0068 124.168C82.0068 122.936 81.7668 122.016 81.2868 121.408C80.8068 120.784 80.1348 120.472 79.2708 120.472C78.4228 120.472 77.7268 120.784 77.1828 121.408C76.6388 122.016 76.3668 122.936 76.3668 124.168C76.3668 125.4 76.6068 126.328 77.0868 126.952C77.5828 127.56 78.2548 127.864 79.1028 127.864C79.9508 127.864 80.6468 127.56 81.1908 126.952C81.7348 126.328 82.0068 125.4 82.0068 124.168ZM98.5766 120.544C99.3286 118.864 100.649 118.024 102.537 118.024C103.929 118.024 105.009 118.496 105.777 119.44C106.513 120.336 106.881 121.584 106.881 123.184V130H104.025V123.184C104.025 122.32 103.817 121.672 103.401 121.24C102.985 120.792 102.401 120.568 101.649 120.568C100.897 120.568 100.281 120.896 99.8006 121.552C99.3206 122.208 99.0646 123.2 99.0326 124.528V130H96.2006V123.184C96.2006 122.32 95.9926 121.672 95.5766 121.24C95.1606 120.792 94.5766 120.568 93.8246 120.568C93.0726 120.568 92.4246 120.904 91.8806 121.576C91.3526 122.248 91.0726 123.256 91.0406 124.6V130H88.2086V118.336H90.6806L90.9926 120.352C91.7606 118.8 92.9926 118.024 94.6886 118.024C95.6646 118.024 96.4726 118.248 97.1126 118.696C97.7686 119.144 98.2566 119.76 98.5766 120.544ZM119.126 119.728C119.526 120.24 119.822 120.832 120.014 121.504C120.222 122.176 120.326 122.792 120.326 123.352C120.326 123.912 120.294 124.416 120.23 124.864H112.694C112.726 125.808 112.958 126.576 113.39 127.168C113.822 127.76 114.478 128.056 115.358 128.056C116.526 128.056 117.222 127.544 117.446 126.52H120.302C120.11 127.688 119.574 128.608 118.694 129.28C117.782 129.984 116.67 130.336 115.358 130.336C113.822 130.336 112.534 129.776 111.494 128.656C110.422 127.488 109.886 125.992 109.886 124.168C109.886 122.296 110.422 120.792 111.494 119.656C112.518 118.568 113.806 118.024 115.358 118.024C116.974 118.024 118.23 118.592 119.126 119.728ZM115.382 120.28C114.582 120.28 113.958 120.544 113.51 121.072C113.062 121.584 112.798 122.248 112.718 123.064H117.686C117.686 121.8 117.286 120.952 116.486 120.52C116.182 120.36 115.814 120.28 115.382 120.28ZM126.548 120.64C127.252 118.96 128.308 118.12 129.716 118.12C129.988 118.12 130.332 118.176 130.748 118.288L130.7 121.12C130.252 121.024 129.812 120.976 129.38 120.976C127.492 120.976 126.548 122.28 126.548 124.888V130H123.716V118.312H126.548V120.64ZM139.771 114.424H142.603V130H139.771V114.424ZM149.844 120.352C150.612 118.8 151.844 118.024 153.54 118.024C154.98 118.024 156.06 118.496 156.78 119.44C157.516 120.384 157.884 121.632 157.884 123.184V130H155.052V123.184C155.052 122.32 154.844 121.672 154.428 121.24C154.012 120.792 153.428 120.568 152.676 120.568C151.924 120.568 151.276 120.904 150.732 121.576C150.204 122.248 149.924 123.256 149.892 124.6V130H147.06V118.336H149.532L149.844 120.352ZM160.741 118.336H162.469V116.968C162.469 115.768 162.821 114.848 163.525 114.208C164.165 113.632 164.997 113.344 166.021 113.344C166.677 113.344 167.485 113.44 168.445 113.632L167.893 115.816C167.445 115.656 167.037 115.576 166.669 115.576C166.317 115.576 166.005 115.68 165.733 115.888C165.461 116.08 165.325 116.448 165.325 116.992V118.336H167.461V120.232H165.325V130H162.469V120.232H160.741V118.336ZM175.386 118.024C176.17 118.024 176.906 118.152 177.594 118.408C178.282 118.648 178.874 119.024 179.37 119.536C180.474 120.656 181.026 122.208 181.026 124.192C181.026 126.144 180.474 127.68 179.37 128.8C178.378 129.824 177.05 130.336 175.386 130.336C173.722 130.336 172.378 129.824 171.354 128.8C170.25 127.696 169.698 126.16 169.698 124.192C169.698 122.192 170.25 120.64 171.354 119.536C172.362 118.528 173.706 118.024 175.386 118.024ZM178.194 124.168C178.194 122.936 177.954 122.016 177.474 121.408C176.994 120.784 176.322 120.472 175.458 120.472C174.61 120.472 173.914 120.784 173.37 121.408C172.826 122.016 172.554 122.936 172.554 124.168C172.554 125.4 172.794 126.328 173.274 126.952C173.77 127.56 174.442 127.864 175.29 127.864C176.138 127.864 176.834 127.56 177.378 126.952C177.922 126.328 178.194 125.4 178.194 124.168ZM187.228 120.64C187.932 118.96 188.988 118.12 190.396 118.12C190.668 118.12 191.012 118.176 191.428 118.288L191.38 121.12C190.932 121.024 190.492 120.976 190.06 120.976C188.172 120.976 187.228 122.28 187.228 124.888V130H184.396V118.312H187.228V120.64ZM204.748 120.544C205.5 118.864 206.82 118.024 208.708 118.024C210.1 118.024 211.18 118.496 211.948 119.44C212.684 120.336 213.052 121.584 213.052 123.184V130H210.196V123.184C210.196 122.32 209.988 121.672 209.572 121.24C209.156 120.792 208.572 120.568 207.82 120.568C207.068 120.568 206.452 120.896 205.972 121.552C205.492 122.208 205.236 123.2 205.204 124.528V130H202.372V123.184C202.372 122.32 202.164 121.672 201.748 121.24C201.332 120.792 200.748 120.568 199.996 120.568C199.244 120.568 198.596 120.904 198.052 121.576C197.524 122.248 197.244 123.256 197.212 124.6V130H194.38V118.336H196.852L197.164 120.352C197.932 118.8 199.164 118.024 200.86 118.024C201.836 118.024 202.644 118.248 203.284 118.696C203.94 119.144 204.428 119.76 204.748 120.544ZM221.002 123.184C221.93 123.184 223.002 123.336 224.218 123.64V122.488C224.218 121.672 224.05 121.072 223.714 120.688C223.394 120.288 222.858 120.088 222.106 120.088C221.37 120.088 220.802 120.24 220.402 120.544C220.002 120.832 219.802 121.248 219.802 121.792H216.706C216.706 120.464 217.17 119.504 218.098 118.912C219.042 118.32 220.354 118.024 222.034 118.024C224.434 118.024 225.986 118.864 226.69 120.544C226.93 121.12 227.05 121.8 227.05 122.584V130H224.578L224.362 128.44C223.61 129.704 222.458 130.336 220.906 130.336C219.402 130.336 218.234 129.968 217.402 129.232C216.634 128.528 216.25 127.64 216.25 126.568C216.25 125.48 216.674 124.648 217.522 124.072C218.37 123.48 219.53 123.184 221.002 123.184ZM224.218 125.44C223.274 125.184 222.394 125.056 221.578 125.056C220.042 125.056 219.274 125.568 219.274 126.592C219.274 127.024 219.45 127.4 219.802 127.72C220.154 128.024 220.714 128.176 221.482 128.176C222.266 128.176 222.906 127.92 223.402 127.408C223.914 126.88 224.186 126.224 224.218 125.44ZM237.753 129.712C236.697 130.128 235.865 130.336 235.257 130.336C234.649 130.336 234.113 130.264 233.649 130.12C233.201 129.976 232.801 129.76 232.449 129.472C231.713 128.816 231.345 127.912 231.345 126.76V120.232H229.713V118.336H231.345V115.264H234.177V118.336H237.345V120.232H234.177V126.664C234.177 127.624 234.633 128.104 235.545 128.104C236.009 128.104 236.609 127.976 237.345 127.72L237.753 129.712ZM240.886 118.312H243.718V130H240.886V118.312ZM240.55 114.568C240.55 114.056 240.702 113.656 241.006 113.368C241.31 113.064 241.742 112.912 242.302 112.912C242.846 112.912 243.27 113.064 243.574 113.368C243.894 113.656 244.054 114.056 244.054 114.568C244.054 115.08 243.894 115.488 243.574 115.792C243.27 116.08 242.846 116.224 242.302 116.224C241.742 116.224 241.31 116.08 241.006 115.792C240.702 115.488 240.55 115.08 240.55 114.568ZM253.105 118.024C253.889 118.024 254.625 118.152 255.313 118.408C256.001 118.648 256.593 119.024 257.089 119.536C258.193 120.656 258.745 122.208 258.745 124.192C258.745 126.144 258.193 127.68 257.089 128.8C256.097 129.824 254.769 130.336 253.105 130.336C251.441 130.336 250.097 129.824 249.073 128.8C247.969 127.696 247.417 126.16 247.417 124.192C247.417 122.192 247.969 120.64 249.073 119.536C250.081 118.528 251.425 118.024 253.105 118.024ZM255.913 124.168C255.913 122.936 255.673 122.016 255.193 121.408C254.713 120.784 254.041 120.472 253.177 120.472C252.329 120.472 251.633 120.784 251.089 121.408C250.545 122.016 250.273 122.936 250.273 124.168C250.273 125.4 250.513 126.328 250.993 126.952C251.489 127.56 252.161 127.864 253.009 127.864C253.857 127.864 254.553 127.56 255.097 126.952C255.641 126.328 255.913 125.4 255.913 124.168ZM264.899 120.352C265.667 118.8 266.899 118.024 268.595 118.024C270.035 118.024 271.115 118.496 271.835 119.44C272.571 120.384 272.939 121.632 272.939 123.184V130H270.107V123.184C270.107 122.32 269.899 121.672 269.483 121.24C269.067 120.792 268.483 120.568 267.731 120.568C266.979 120.568 266.331 120.904 265.787 121.576C265.259 122.248 264.979 123.256 264.947 124.6V130H262.115V118.336H264.587L264.899 120.352Z" fill="white"/>
<path d="M23.388 145.194H24.732L27.686 154H26.538L25.782 151.76H22.282L21.526 154H20.364L23.388 145.194ZM22.576 150.892H25.502L24.046 146.552L22.576 150.892ZM29.4667 144.466H30.5727V154H29.4667V144.466ZM33.3906 144.466H34.4966V154H33.3906V144.466ZM44.1503 153.804C43.3477 154.177 42.615 154.257 41.9523 154.042C41.4763 153.893 41.1403 153.58 40.9443 153.104C40.8417 152.871 40.7903 152.591 40.7903 152.264V148.148H39.7123V147.308H40.7903V145.446H41.8823V147.308H43.9823V148.148H41.8823V152.25C41.8823 152.931 42.1997 153.272 42.8343 153.272C43.1797 153.272 43.567 153.188 43.9963 153.02L44.1503 153.804ZM48.644 148.246C47.5893 148.246 47.0433 149.077 47.006 150.738V154H45.9V147.294H47.006V148.582C47.342 147.649 47.9347 147.182 48.784 147.182C49.0547 147.182 49.3113 147.224 49.554 147.308L49.498 148.386C49.218 148.293 48.9333 148.246 48.644 148.246ZM55.39 149.66C55.39 149.053 55.264 148.619 55.012 148.358C54.76 148.097 54.3914 147.966 53.906 147.966C53.43 147.966 53.0427 148.064 52.744 148.26C52.4547 148.447 52.31 148.745 52.31 149.156H51.092C51.092 148.129 51.6427 147.495 52.744 147.252C53.08 147.177 53.444 147.14 53.836 147.14C54.6667 147.14 55.3154 147.35 55.782 147.77C56.2487 148.19 56.482 148.829 56.482 149.688V154H55.53L55.418 152.88C55.0074 153.729 54.2654 154.154 53.192 154.154C52.4734 154.154 51.8947 153.953 51.456 153.552C51.0267 153.151 50.812 152.651 50.812 152.054C50.812 151.457 51.05 150.99 51.526 150.654C52.0114 150.318 52.6134 150.15 53.332 150.15C54.0507 150.15 54.7367 150.271 55.39 150.514V149.66ZM55.39 151.214C54.7274 151.027 54.1487 150.934 53.654 150.934C53.1594 150.934 52.758 151.023 52.45 151.2C52.142 151.377 51.988 151.657 51.988 152.04C51.988 152.88 52.464 153.3 53.416 153.3C53.9574 153.3 54.4194 153.109 54.802 152.726C55.194 152.334 55.39 151.83 55.39 151.214ZM60.144 148.596C60.5827 147.625 61.334 147.14 62.398 147.14C63.1913 147.14 63.8073 147.401 64.246 147.924C64.694 148.447 64.918 149.161 64.918 150.066V154H63.826V150.066C63.826 149.422 63.672 148.937 63.364 148.61C63.0653 148.283 62.636 148.12 62.076 148.12C61.516 148.12 61.0633 148.349 60.718 148.806C60.3727 149.263 60.1907 149.898 60.172 150.71V154H59.066V147.308H60.018L60.144 148.596ZM67.1656 148.946C67.1656 148.395 67.3989 147.957 67.8656 147.63C68.3416 147.303 68.9809 147.14 69.7836 147.14C70.5862 147.14 71.2116 147.308 71.6596 147.644C72.1169 147.98 72.3549 148.405 72.3736 148.918H71.2956C71.2116 148.311 70.6982 148.008 69.7556 148.008C69.2982 148.008 68.9436 148.111 68.6916 148.316C68.4489 148.521 68.3276 148.745 68.3276 148.988C68.3276 149.221 68.4209 149.422 68.6076 149.59C68.7942 149.749 69.0929 149.889 69.5036 150.01L70.8476 150.458C71.4169 150.635 71.8509 150.864 72.1496 151.144C72.4576 151.415 72.6116 151.793 72.6116 152.278C72.6116 152.754 72.3642 153.188 71.8696 153.58C71.3749 153.963 70.6842 154.154 69.7976 154.154C68.9109 154.154 68.2202 153.958 67.7256 153.566C67.2309 153.165 66.9696 152.651 66.9416 152.026H68.0056C68.0242 152.446 68.1922 152.763 68.5096 152.978C68.8362 153.183 69.2422 153.286 69.7276 153.286C70.2129 153.286 70.6142 153.183 70.9316 152.978C71.2489 152.773 71.4076 152.53 71.4076 152.25C71.4076 151.961 71.3142 151.741 71.1276 151.592C70.9409 151.443 70.6376 151.312 70.2176 151.2L68.9156 150.766C67.7489 150.421 67.1656 149.814 67.1656 148.946ZM79.0287 149.66C79.0287 149.053 78.9027 148.619 78.6507 148.358C78.3987 148.097 78.03 147.966 77.5447 147.966C77.0687 147.966 76.6814 148.064 76.3827 148.26C76.0934 148.447 75.9487 148.745 75.9487 149.156H74.7307C74.7307 148.129 75.2814 147.495 76.3827 147.252C76.7187 147.177 77.0827 147.14 77.4747 147.14C78.3054 147.14 78.954 147.35 79.4207 147.77C79.8874 148.19 80.1207 148.829 80.1207 149.688V154H79.1687L79.0567 152.88C78.646 153.729 77.904 154.154 76.8307 154.154C76.112 154.154 75.5334 153.953 75.0947 153.552C74.6654 153.151 74.4507 152.651 74.4507 152.054C74.4507 151.457 74.6887 150.99 75.1647 150.654C75.65 150.318 76.252 150.15 76.9707 150.15C77.6894 150.15 78.3754 150.271 79.0287 150.514V149.66ZM79.0287 151.214C78.366 151.027 77.7874 150.934 77.2927 150.934C76.798 150.934 76.3967 151.023 76.0887 151.2C75.7807 151.377 75.6267 151.657 75.6267 152.04C75.6267 152.88 76.1027 153.3 77.0547 153.3C77.596 153.3 78.058 153.109 78.4407 152.726C78.8327 152.334 79.0287 151.83 79.0287 151.214ZM84.9447 147.14C85.738 147.14 86.368 147.345 86.8347 147.756C87.3014 148.157 87.6047 148.661 87.7447 149.268L86.6247 149.366C86.5034 148.974 86.3074 148.671 86.0367 148.456C85.766 148.232 85.4674 148.12 85.1407 148.12C84.5434 148.12 84.058 148.344 83.6847 148.792C83.3207 149.24 83.1387 149.851 83.1387 150.626C83.1387 151.391 83.316 152.007 83.6707 152.474C84.0347 152.941 84.4827 153.174 85.0147 153.174C85.556 153.174 85.9574 153.053 86.2187 152.81C86.4894 152.558 86.6247 152.203 86.6247 151.746H87.7587C87.7587 152.465 87.5067 153.048 87.0027 153.496C86.508 153.935 85.8594 154.154 85.0567 154.154C84.2074 154.154 83.484 153.832 82.8867 153.188C82.2987 152.544 82.0047 151.69 82.0047 150.626C82.0047 149.553 82.2987 148.703 82.8867 148.078C83.4747 147.453 84.1607 147.14 84.9447 147.14ZM93.4238 153.804C92.6211 154.177 91.8884 154.257 91.2258 154.042C90.7498 153.893 90.4138 153.58 90.2178 153.104C90.1151 152.871 90.0638 152.591 90.0638 152.264V148.148H88.9858V147.308H90.0638V145.446H91.1558V147.308H93.2558V148.148H91.1558V152.25C91.1558 152.931 91.4731 153.272 92.1078 153.272C92.4531 153.272 92.8404 153.188 93.2698 153.02L93.4238 153.804ZM95.2574 147.294H96.3634V154H95.2574V147.294ZM95.8034 145.726C95.5794 145.726 95.4021 145.665 95.2714 145.544C95.1501 145.413 95.0894 145.245 95.0894 145.04C95.0894 144.825 95.1501 144.657 95.2714 144.536C95.4021 144.405 95.5794 144.34 95.8034 144.34C96.0274 144.34 96.2048 144.405 96.3354 144.536C96.4754 144.657 96.5454 144.825 96.5454 145.04C96.5454 145.245 96.4754 145.413 96.3354 145.544C96.2048 145.665 96.0274 145.726 95.8034 145.726ZM101.779 147.14C102.712 147.14 103.464 147.443 104.033 148.05C104.612 148.657 104.901 149.525 104.901 150.654C104.901 151.774 104.612 152.637 104.033 153.244C103.464 153.851 102.712 154.154 101.779 154.154C100.846 154.154 100.09 153.851 99.511 153.244C98.9417 152.637 98.657 151.774 98.657 150.654C98.657 149.525 98.9417 148.657 99.511 148.05C100.09 147.443 100.846 147.14 101.779 147.14ZM103.781 150.654C103.781 149.851 103.613 149.226 103.277 148.778C102.941 148.321 102.446 148.092 101.793 148.092C101.149 148.092 100.654 148.321 100.309 148.778C99.9637 149.226 99.791 149.851 99.791 150.654C99.791 151.447 99.9544 152.073 100.281 152.53C100.608 152.978 101.093 153.202 101.737 153.202C102.39 153.202 102.894 152.978 103.249 152.53C103.604 152.073 103.781 151.447 103.781 150.654ZM108.078 148.596C108.516 147.625 109.268 147.14 110.332 147.14C111.125 147.14 111.741 147.401 112.18 147.924C112.628 148.447 112.852 149.161 112.852 150.066V154H111.76V150.066C111.76 149.422 111.606 148.937 111.298 148.61C110.999 148.283 110.57 148.12 110.01 148.12C109.45 148.12 108.997 148.349 108.652 148.806C108.306 149.263 108.124 149.898 108.106 150.71V154H107V147.308H107.952L108.078 148.596ZM115.099 148.946C115.099 148.395 115.332 147.957 115.799 147.63C116.275 147.303 116.914 147.14 117.717 147.14C118.52 147.14 119.145 147.308 119.593 147.644C120.05 147.98 120.288 148.405 120.307 148.918H119.229C119.145 148.311 118.632 148.008 117.689 148.008C117.232 148.008 116.877 148.111 116.625 148.316C116.382 148.521 116.261 148.745 116.261 148.988C116.261 149.221 116.354 149.422 116.541 149.59C116.728 149.749 117.026 149.889 117.437 150.01L118.781 150.458C119.35 150.635 119.784 150.864 120.083 151.144C120.391 151.415 120.545 151.793 120.545 152.278C120.545 152.754 120.298 153.188 119.803 153.58C119.308 153.963 118.618 154.154 117.731 154.154C116.844 154.154 116.154 153.958 115.659 153.566C115.164 153.165 114.903 152.651 114.875 152.026H115.939C115.958 152.446 116.126 152.763 116.443 152.978C116.77 153.183 117.176 153.286 117.661 153.286C118.146 153.286 118.548 153.183 118.865 152.978C119.182 152.773 119.341 152.53 119.341 152.25C119.341 151.961 119.248 151.741 119.061 151.592C118.874 151.443 118.571 151.312 118.151 151.2L116.849 150.766C115.682 150.421 115.099 149.814 115.099 148.946ZM130.298 149.66C130.298 149.053 130.172 148.619 129.92 148.358C129.668 148.097 129.3 147.966 128.814 147.966C128.338 147.966 127.951 148.064 127.652 148.26C127.363 148.447 127.218 148.745 127.218 149.156H126C126 148.129 126.551 147.495 127.652 147.252C127.988 147.177 128.352 147.14 128.744 147.14C129.575 147.14 130.224 147.35 130.69 147.77C131.157 148.19 131.39 148.829 131.39 149.688V154H130.438L130.326 152.88C129.916 153.729 129.174 154.154 128.1 154.154C127.382 154.154 126.803 153.953 126.364 153.552C125.935 153.151 125.72 152.651 125.72 152.054C125.72 151.457 125.958 150.99 126.434 150.654C126.92 150.318 127.522 150.15 128.24 150.15C128.959 150.15 129.645 150.271 130.298 150.514V149.66ZM130.298 151.214C129.636 151.027 129.057 150.934 128.562 150.934C128.068 150.934 127.666 151.023 127.358 151.2C127.05 151.377 126.896 151.657 126.896 152.04C126.896 152.88 127.372 153.3 128.324 153.3C128.866 153.3 129.328 153.109 129.71 152.726C130.102 152.334 130.298 151.83 130.298 151.214ZM136.718 148.246C135.664 148.246 135.118 149.077 135.08 150.738V154H133.974V147.294H135.08V148.582C135.416 147.649 136.009 147.182 136.858 147.182C137.129 147.182 137.386 147.224 137.628 147.308L137.572 148.386C137.292 148.293 137.008 148.246 136.718 148.246ZM141.63 153.258C142.554 153.258 143.082 152.852 143.212 152.04H144.346C144.244 152.712 143.945 153.235 143.45 153.608C142.965 153.972 142.358 154.154 141.63 154.154C140.734 154.154 140.006 153.837 139.446 153.202C138.886 152.558 138.606 151.704 138.606 150.64C138.606 149.576 138.886 148.727 139.446 148.092C140.016 147.457 140.767 147.14 141.7 147.14C142.643 147.14 143.343 147.504 143.8 148.232C144.267 148.96 144.43 149.847 144.29 150.892H139.712C139.712 151.583 139.88 152.152 140.216 152.6C140.552 153.039 141.024 153.258 141.63 153.258ZM142.442 148.19C142.228 148.078 141.966 148.022 141.658 148.022C141.089 148.022 140.636 148.218 140.3 148.61C139.974 148.993 139.782 149.473 139.726 150.052H143.296C143.296 149.119 143.012 148.498 142.442 148.19ZM149.511 148.946C149.511 148.395 149.745 147.957 150.211 147.63C150.687 147.303 151.327 147.14 152.129 147.14C152.932 147.14 153.557 147.308 154.005 147.644C154.463 147.98 154.701 148.405 154.719 148.918H153.641C153.557 148.311 153.044 148.008 152.101 148.008C151.644 148.008 151.289 148.111 151.037 148.316C150.795 148.521 150.673 148.745 150.673 148.988C150.673 149.221 150.767 149.422 150.953 149.59C151.14 149.749 151.439 149.889 151.849 150.01L153.193 150.458C153.763 150.635 154.197 150.864 154.495 151.144C154.803 151.415 154.957 151.793 154.957 152.278C154.957 152.754 154.71 153.188 154.215 153.58C153.721 153.963 153.03 154.154 152.143 154.154C151.257 154.154 150.566 153.958 150.071 153.566C149.577 153.165 149.315 152.651 149.287 152.026H150.351C150.37 152.446 150.538 152.763 150.855 152.978C151.182 153.183 151.588 153.286 152.073 153.286C152.559 153.286 152.96 153.183 153.277 152.978C153.595 152.773 153.753 152.53 153.753 152.25C153.753 151.961 153.66 151.741 153.473 151.592C153.287 151.443 152.983 151.312 152.563 151.2L151.261 150.766C150.095 150.421 149.511 149.814 149.511 148.946ZM159.54 153.258C160.464 153.258 160.992 152.852 161.122 152.04H162.256C162.154 152.712 161.855 153.235 161.36 153.608C160.875 153.972 160.268 154.154 159.54 154.154C158.644 154.154 157.916 153.837 157.356 153.202C156.796 152.558 156.516 151.704 156.516 150.64C156.516 149.576 156.796 148.727 157.356 148.092C157.926 147.457 158.677 147.14 159.61 147.14C160.553 147.14 161.253 147.504 161.71 148.232C162.177 148.96 162.34 149.847 162.2 150.892H157.622C157.622 151.583 157.79 152.152 158.126 152.6C158.462 153.039 158.934 153.258 159.54 153.258ZM160.352 148.19C160.138 148.078 159.876 148.022 159.568 148.022C158.999 148.022 158.546 148.218 158.21 148.61C157.884 148.993 157.692 149.473 157.636 150.052H161.206C161.206 149.119 160.922 148.498 160.352 148.19ZM166.661 147.14C167.455 147.14 168.085 147.345 168.551 147.756C169.018 148.157 169.321 148.661 169.461 149.268L168.341 149.366C168.22 148.974 168.024 148.671 167.753 148.456C167.483 148.232 167.184 148.12 166.857 148.12C166.26 148.12 165.775 148.344 165.401 148.792C165.037 149.24 164.855 149.851 164.855 150.626C164.855 151.391 165.033 152.007 165.387 152.474C165.751 152.941 166.199 153.174 166.731 153.174C167.273 153.174 167.674 153.053 167.935 152.81C168.206 152.558 168.341 152.203 168.341 151.746H169.475C169.475 152.465 169.223 153.048 168.719 153.496C168.225 153.935 167.576 154.154 166.773 154.154C165.924 154.154 165.201 153.832 164.603 153.188C164.015 152.544 163.721 151.69 163.721 150.626C163.721 149.553 164.015 148.703 164.603 148.078C165.191 147.453 165.877 147.14 166.661 147.14ZM176.191 152.67C175.733 153.641 174.991 154.126 173.965 154.126C173.209 154.126 172.597 153.916 172.131 153.496C171.673 153.076 171.445 152.427 171.445 151.55V147.294H172.551V151.466C172.551 152.595 173.073 153.16 174.119 153.16C174.725 153.16 175.215 152.927 175.589 152.46C175.971 151.993 176.172 151.396 176.191 150.668V147.294H177.297V154H176.191V152.67ZM182.861 148.246C181.806 148.246 181.26 149.077 181.223 150.738V154H180.117V147.294H181.223V148.582C181.559 147.649 182.151 147.182 183.001 147.182C183.271 147.182 183.528 147.224 183.771 147.308L183.715 148.386C183.435 148.293 183.15 148.246 182.861 148.246ZM187.773 153.258C188.697 153.258 189.224 152.852 189.355 152.04H190.489C190.386 152.712 190.087 153.235 189.593 153.608C189.107 153.972 188.501 154.154 187.773 154.154C186.877 154.154 186.149 153.837 185.589 153.202C185.029 152.558 184.749 151.704 184.749 150.64C184.749 149.576 185.029 148.727 185.589 148.092C186.158 147.457 186.909 147.14 187.843 147.14C188.785 147.14 189.485 147.504 189.943 148.232C190.409 148.96 190.573 149.847 190.433 150.892H185.855C185.855 151.583 186.023 152.152 186.359 152.6C186.695 153.039 187.166 153.258 187.773 153.258ZM188.585 148.19C188.37 148.078 188.109 148.022 187.801 148.022C187.231 148.022 186.779 148.218 186.443 148.61C186.116 148.993 185.925 149.473 185.869 150.052H189.439C189.439 149.119 189.154 148.498 188.585 148.19ZM200.148 149.66C200.148 149.053 200.022 148.619 199.77 148.358C199.518 148.097 199.149 147.966 198.664 147.966C198.188 147.966 197.801 148.064 197.502 148.26C197.213 148.447 197.068 148.745 197.068 149.156H195.85C195.85 148.129 196.401 147.495 197.502 147.252C197.838 147.177 198.202 147.14 198.594 147.14C199.425 147.14 200.073 147.35 200.54 147.77C201.007 148.19 201.24 148.829 201.24 149.688V154H200.288L200.176 152.88C199.765 153.729 199.023 154.154 197.95 154.154C197.231 154.154 196.653 153.953 196.214 153.552C195.785 153.151 195.57 152.651 195.57 152.054C195.57 151.457 195.808 150.99 196.284 150.654C196.769 150.318 197.371 150.15 198.09 150.15C198.809 150.15 199.495 150.271 200.148 150.514V149.66ZM200.148 151.214C199.485 151.027 198.907 150.934 198.412 150.934C197.917 150.934 197.516 151.023 197.208 151.2C196.9 151.377 196.746 151.657 196.746 152.04C196.746 152.88 197.222 153.3 198.174 153.3C198.715 153.3 199.177 153.109 199.56 152.726C199.952 152.334 200.148 151.83 200.148 151.214ZM204.902 148.596C205.34 147.625 206.092 147.14 207.156 147.14C207.949 147.14 208.565 147.401 209.004 147.924C209.452 148.447 209.676 149.161 209.676 150.066V154H208.584V150.066C208.584 149.422 208.43 148.937 208.122 148.61C207.823 148.283 207.394 148.12 206.834 148.12C206.274 148.12 205.821 148.349 205.476 148.806C205.13 149.263 204.948 149.898 204.93 150.71V154H203.824V147.308H204.776L204.902 148.596ZM216.655 148.302V144.466H217.747V154H216.851L216.711 152.88C216.497 153.3 216.212 153.617 215.857 153.832C215.503 154.047 215.115 154.154 214.695 154.154C213.846 154.154 213.132 153.827 212.553 153.174C211.984 152.521 211.699 151.671 211.699 150.626C211.699 149.571 211.979 148.727 212.539 148.092C213.109 147.457 213.823 147.14 214.681 147.14C215.549 147.14 216.207 147.527 216.655 148.302ZM214.751 148.12C214.21 148.12 213.753 148.349 213.379 148.806C213.015 149.263 212.833 149.875 212.833 150.64C212.833 151.405 213.02 152.021 213.393 152.488C213.767 152.945 214.215 153.174 214.737 153.174C215.26 153.174 215.703 153.001 216.067 152.656C216.441 152.301 216.637 151.83 216.655 151.242V150.15C216.655 149.525 216.473 149.03 216.109 148.666C215.745 148.302 215.293 148.12 214.751 148.12ZM226.232 153.258C227.156 153.258 227.683 152.852 227.814 152.04H228.948C228.845 152.712 228.546 153.235 228.052 153.608C227.566 153.972 226.96 154.154 226.232 154.154C225.336 154.154 224.608 153.837 224.048 153.202C223.488 152.558 223.208 151.704 223.208 150.64C223.208 149.576 223.488 148.727 224.048 148.092C224.617 147.457 225.368 147.14 226.302 147.14C227.244 147.14 227.944 147.504 228.402 148.232C228.868 148.96 229.032 149.847 228.892 150.892H224.314C224.314 151.583 224.482 152.152 224.818 152.6C225.154 153.039 225.625 153.258 226.232 153.258ZM227.044 148.19C226.829 148.078 226.568 148.022 226.26 148.022C225.69 148.022 225.238 148.218 224.902 148.61C224.575 148.993 224.384 149.473 224.328 150.052H227.898C227.898 149.119 227.613 148.498 227.044 148.19ZM232.191 148.596C232.63 147.625 233.381 147.14 234.445 147.14C235.238 147.14 235.854 147.401 236.293 147.924C236.741 148.447 236.965 149.161 236.965 150.066V154H235.873V150.066C235.873 149.422 235.719 148.937 235.411 148.61C235.112 148.283 234.683 148.12 234.123 148.12C233.563 148.12 233.11 148.349 232.765 148.806C232.42 149.263 232.238 149.898 232.219 150.71V154H231.113V147.308H232.065L232.191 148.596ZM241.788 147.14C242.582 147.14 243.212 147.345 243.678 147.756C244.145 148.157 244.448 148.661 244.588 149.268L243.468 149.366C243.347 148.974 243.151 148.671 242.88 148.456C242.61 148.232 242.311 148.12 241.984 148.12C241.387 148.12 240.902 148.344 240.528 148.792C240.164 149.24 239.982 149.851 239.982 150.626C239.982 151.391 240.16 152.007 240.514 152.474C240.878 152.941 241.326 153.174 241.858 153.174C242.4 153.174 242.801 153.053 243.062 152.81C243.333 152.558 243.468 152.203 243.468 151.746H244.602C244.602 152.465 244.35 153.048 243.846 153.496C243.352 153.935 242.703 154.154 241.9 154.154C241.051 154.154 240.328 153.832 239.73 153.188C239.142 152.544 238.848 151.69 238.848 150.626C238.848 149.553 239.142 148.703 239.73 148.078C240.318 147.453 241.004 147.14 241.788 147.14ZM249.498 148.246C248.443 148.246 247.897 149.077 247.86 150.738V154H246.754V147.294H247.86V148.582C248.196 147.649 248.788 147.182 249.638 147.182C249.908 147.182 250.165 147.224 250.408 147.308L250.352 148.386C250.072 148.293 249.787 148.246 249.498 148.246ZM250.756 155.946C251.213 156.301 251.694 156.478 252.198 156.478C252.571 156.478 252.893 156.291 253.164 155.918C253.36 155.647 253.537 155.237 253.696 154.686L253.892 154L251.148 147.308H252.38L254.41 152.642L255.992 147.308H257.112L254.606 155.33C254.391 156.011 254.106 156.534 253.752 156.898C253.406 157.262 252.963 157.444 252.422 157.444C251.89 157.444 251.334 157.281 250.756 156.954V155.946ZM259.917 148.33C260.355 147.537 261.009 147.14 261.877 147.14C262.754 147.14 263.482 147.462 264.061 148.106C264.649 148.75 264.943 149.599 264.943 150.654C264.943 151.709 264.649 152.558 264.061 153.202C263.473 153.837 262.749 154.154 261.891 154.154C261.032 154.154 260.397 153.832 259.987 153.188V157.29H258.881V147.308H259.791L259.917 148.33ZM261.835 153.174C262.357 153.174 262.815 152.95 263.207 152.502C263.608 152.054 263.809 151.443 263.809 150.668C263.809 149.884 263.617 149.263 263.235 148.806C262.861 148.349 262.404 148.12 261.863 148.12C261.321 148.12 260.878 148.293 260.533 148.638C260.187 148.974 260.005 149.431 259.987 150.01V151.284C259.987 151.872 260.164 152.334 260.519 152.67C260.873 153.006 261.312 153.174 261.835 153.174ZM270.693 153.804C269.891 154.177 269.158 154.257 268.495 154.042C268.019 153.893 267.683 153.58 267.487 153.104C267.385 152.871 267.333 152.591 267.333 152.264V148.148H266.255V147.308H267.333V145.446H268.425V147.308H270.525V148.148H268.425V152.25C268.425 152.931 268.743 153.272 269.377 153.272C269.723 153.272 270.11 153.188 270.539 153.02L270.693 153.804ZM274.767 153.258C275.691 153.258 276.218 152.852 276.349 152.04H277.483C277.38 152.712 277.082 153.235 276.587 153.608C276.102 153.972 275.495 154.154 274.767 154.154C273.871 154.154 273.143 153.837 272.583 153.202C272.023 152.558 271.743 151.704 271.743 150.64C271.743 149.576 272.023 148.727 272.583 148.092C273.152 147.457 273.904 147.14 274.837 147.14C275.78 147.14 276.48 147.504 276.937 148.232C277.404 148.96 277.567 149.847 277.427 150.892H272.849C272.849 151.583 273.017 152.152 273.353 152.6C273.689 153.039 274.16 153.258 274.767 153.258ZM275.579 148.19C275.364 148.078 275.103 148.022 274.795 148.022C274.226 148.022 273.773 148.218 273.437 148.61C273.11 148.993 272.919 149.473 272.863 150.052H276.433C276.433 149.119 276.148 148.498 275.579 148.19ZM284.044 148.302V144.466H285.136V154H284.24L284.1 152.88C283.885 153.3 283.601 153.617 283.246 153.832C282.891 154.047 282.504 154.154 282.084 154.154C281.235 154.154 280.521 153.827 279.942 153.174C279.373 152.521 279.088 151.671 279.088 150.626C279.088 149.571 279.368 148.727 279.928 148.092C280.497 147.457 281.211 147.14 282.07 147.14C282.938 147.14 283.596 147.527 284.044 148.302ZM282.14 148.12C281.599 148.12 281.141 148.349 280.768 148.806C280.404 149.263 280.222 149.875 280.222 150.64C280.222 151.405 280.409 152.021 280.782 152.488C281.155 152.945 281.603 153.174 282.126 153.174C282.649 153.174 283.092 153.001 283.456 152.656C283.829 152.301 284.025 151.83 284.044 151.242V150.15C284.044 149.525 283.862 149.03 283.498 148.666C283.134 148.302 282.681 148.12 282.14 148.12ZM287.793 154.126C287.559 154.126 287.363 154.051 287.205 153.902C287.055 153.743 286.981 153.557 286.981 153.342C286.981 153.118 287.055 152.931 287.205 152.782C287.363 152.623 287.559 152.544 287.793 152.544C288.035 152.544 288.236 152.623 288.395 152.782C288.553 152.931 288.633 153.118 288.633 153.342C288.633 153.557 288.553 153.743 288.395 153.902C288.236 154.051 288.035 154.126 287.793 154.126Z" fill="white"/>
<path d="M21.212 189.452H25.796V190.268H22.16V192.776H25.544V193.592H22.16V197H21.212V189.452ZM27.565 191.252H28.513V197H27.565V191.252ZM28.033 189.908C27.841 189.908 27.689 189.856 27.577 189.752C27.473 189.64 27.421 189.496 27.421 189.32C27.421 189.136 27.473 188.992 27.577 188.888C27.689 188.776 27.841 188.72 28.033 188.72C28.225 188.72 28.377 188.776 28.489 188.888C28.609 188.992 28.669 189.136 28.669 189.32C28.669 189.496 28.609 189.64 28.489 189.752C28.377 189.856 28.225 189.908 28.033 189.908ZM33.4309 192.068C32.5269 192.068 32.0589 192.78 32.0269 194.204V197H31.0789V191.252H32.0269V192.356C32.3149 191.556 32.8229 191.156 33.5509 191.156C33.7829 191.156 34.0029 191.192 34.2109 191.264L34.1629 192.188C33.9229 192.108 33.6789 192.068 33.4309 192.068ZM35.3612 192.668C35.3612 192.196 35.5612 191.82 35.9612 191.54C36.3692 191.26 36.9172 191.12 37.6052 191.12C38.2932 191.12 38.8292 191.264 39.2132 191.552C39.6052 191.84 39.8092 192.204 39.8252 192.644H38.9012C38.8292 192.124 38.3892 191.864 37.5812 191.864C37.1892 191.864 36.8852 191.952 36.6692 192.128C36.4612 192.304 36.3572 192.496 36.3572 192.704C36.3572 192.904 36.4372 193.076 36.5972 193.22C36.7572 193.356 37.0132 193.476 37.3652 193.58L38.5172 193.964C39.0052 194.116 39.3772 194.312 39.6332 194.552C39.8972 194.784 40.0292 195.108 40.0292 195.524C40.0292 195.932 39.8172 196.304 39.3932 196.64C38.9692 196.968 38.3772 197.132 37.6172 197.132C36.8572 197.132 36.2652 196.964 35.8412 196.628C35.4172 196.284 35.1932 195.844 35.1692 195.308H36.0812C36.0972 195.668 36.2412 195.94 36.5132 196.124C36.7932 196.3 37.1412 196.388 37.5572 196.388C37.9732 196.388 38.3172 196.3 38.5892 196.124C38.8612 195.948 38.9972 195.74 38.9972 195.5C38.9972 195.252 38.9172 195.064 38.7572 194.936C38.5972 194.808 38.3372 194.696 37.9772 194.6L36.8612 194.228C35.8612 193.932 35.3612 193.412 35.3612 192.668ZM44.9776 196.832C44.2896 197.152 43.6616 197.22 43.0936 197.036C42.6856 196.908 42.3976 196.64 42.2296 196.232C42.1416 196.032 42.0976 195.792 42.0976 195.512V191.984H41.1736V191.264H42.0976V189.668H43.0336V191.264H44.8336V191.984H43.0336V195.5C43.0336 196.084 43.3056 196.376 43.8496 196.376C44.1456 196.376 44.4776 196.304 44.8456 196.16L44.9776 196.832ZM50.2607 192.368C50.6367 191.536 51.2807 191.12 52.1927 191.12C52.8727 191.12 53.4007 191.344 53.7767 191.792C54.1607 192.24 54.3527 192.852 54.3527 193.628V197H53.4167V193.628C53.4167 193.076 53.2847 192.66 53.0207 192.38C52.7647 192.1 52.3967 191.96 51.9167 191.96C51.4367 191.96 51.0487 192.156 50.7527 192.548C50.4567 192.94 50.3007 193.484 50.2847 194.18V197H49.3367V191.264H50.1527L50.2607 192.368ZM60.1312 193.28C60.1312 192.76 60.0232 192.388 59.8072 192.164C59.5912 191.94 59.2752 191.828 58.8592 191.828C58.4512 191.828 58.1192 191.912 57.8632 192.08C57.6152 192.24 57.4912 192.496 57.4912 192.848H56.4472C56.4472 191.968 56.9192 191.424 57.8632 191.216C58.1512 191.152 58.4632 191.12 58.7992 191.12C59.5112 191.12 60.0672 191.3 60.4672 191.66C60.8672 192.02 61.0672 192.568 61.0672 193.304V197H60.2512L60.1552 196.04C59.8032 196.768 59.1672 197.132 58.2472 197.132C57.6312 197.132 57.1352 196.96 56.7592 196.616C56.3912 196.272 56.2072 195.844 56.2072 195.332C56.2072 194.82 56.4112 194.42 56.8192 194.132C57.2352 193.844 57.7512 193.7 58.3672 193.7C58.9832 193.7 59.5712 193.804 60.1312 194.012V193.28ZM60.1312 194.612C59.5632 194.452 59.0672 194.372 58.6432 194.372C58.2192 194.372 57.8752 194.448 57.6112 194.6C57.3472 194.752 57.2152 194.992 57.2152 195.32C57.2152 196.04 57.6232 196.4 58.4392 196.4C58.9032 196.4 59.2992 196.236 59.6272 195.908C59.9632 195.572 60.1312 195.14 60.1312 194.612ZM64.206 192.368C64.582 191.536 65.226 191.12 66.138 191.12C66.634 191.12 67.05 191.244 67.386 191.492C67.722 191.732 67.966 192.068 68.118 192.5C68.478 191.58 69.146 191.12 70.122 191.12C70.81 191.12 71.342 191.344 71.718 191.792C72.094 192.24 72.282 192.852 72.282 193.628V197H71.346V193.628C71.346 193.076 71.214 192.66 70.95 192.38C70.694 192.1 70.322 191.96 69.834 191.96C69.346 191.96 68.966 192.16 68.694 192.56C68.43 192.96 68.298 193.512 68.298 194.216V197H67.362V193.628C67.362 193.076 67.23 192.66 66.966 192.38C66.71 192.1 66.342 191.96 65.862 191.96C65.382 191.96 64.994 192.156 64.698 192.548C64.402 192.94 64.246 193.484 64.23 194.18V197H63.282V191.264H64.098L64.206 192.368ZM76.4889 196.364C77.2809 196.364 77.7329 196.016 77.8449 195.32H78.8169C78.7289 195.896 78.4729 196.344 78.0489 196.664C77.6329 196.976 77.1129 197.132 76.4889 197.132C75.7209 197.132 75.0969 196.86 74.6169 196.316C74.1369 195.764 73.8969 195.032 73.8969 194.12C73.8969 193.208 74.1369 192.48 74.6169 191.936C75.1049 191.392 75.7489 191.12 76.5489 191.12C77.3569 191.12 77.9569 191.432 78.3489 192.056C78.7489 192.68 78.8889 193.44 78.7689 194.336H74.8449C74.8449 194.928 74.9889 195.416 75.2769 195.8C75.5649 196.176 75.9689 196.364 76.4889 196.364ZM77.1849 192.02C77.0009 191.924 76.7769 191.876 76.5129 191.876C76.0249 191.876 75.6369 192.044 75.3489 192.38C75.0689 192.708 74.9049 193.12 74.8569 193.616H77.9169C77.9169 192.816 77.6729 192.284 77.1849 192.02Z" fill="white"/>
<path d="M22.16 283.172H25.52V284H21.212V276.452H22.16V283.172ZM30.3773 280.28C30.3773 279.76 30.2693 279.388 30.0533 279.164C29.8373 278.94 29.5213 278.828 29.1053 278.828C28.6973 278.828 28.3653 278.912 28.1093 279.08C27.8613 279.24 27.7373 279.496 27.7373 279.848H26.6933C26.6933 278.968 27.1653 278.424 28.1093 278.216C28.3973 278.152 28.7093 278.12 29.0453 278.12C29.7573 278.12 30.3133 278.3 30.7133 278.66C31.1133 279.02 31.3133 279.568 31.3133 280.304V284H30.4973L30.4013 283.04C30.0493 283.768 29.4133 284.132 28.4933 284.132C27.8773 284.132 27.3813 283.96 27.0053 283.616C26.6373 283.272 26.4533 282.844 26.4533 282.332C26.4533 281.82 26.6573 281.42 27.0653 281.132C27.4813 280.844 27.9973 280.7 28.6133 280.7C29.2293 280.7 29.8173 280.804 30.3773 281.012V280.28ZM30.3773 281.612C29.8093 281.452 29.3133 281.372 28.8893 281.372C28.4653 281.372 28.1213 281.448 27.8573 281.6C27.5933 281.752 27.4613 281.992 27.4613 282.32C27.4613 283.04 27.8693 283.4 28.6853 283.4C29.1493 283.4 29.5453 283.236 29.8733 282.908C30.2093 282.572 30.3773 282.14 30.3773 281.612ZM33.2401 279.668C33.2401 279.196 33.4401 278.82 33.8401 278.54C34.2481 278.26 34.7961 278.12 35.4841 278.12C36.1721 278.12 36.7081 278.264 37.0921 278.552C37.4841 278.84 37.6881 279.204 37.7041 279.644H36.7801C36.7081 279.124 36.2681 278.864 35.4601 278.864C35.0681 278.864 34.7641 278.952 34.5481 279.128C34.3401 279.304 34.2361 279.496 34.2361 279.704C34.2361 279.904 34.3161 280.076 34.4761 280.22C34.6361 280.356 34.8921 280.476 35.2441 280.58L36.3961 280.964C36.8841 281.116 37.2561 281.312 37.5121 281.552C37.7761 281.784 37.9081 282.108 37.9081 282.524C37.9081 282.932 37.6961 283.304 37.2721 283.64C36.8481 283.968 36.2561 284.132 35.4961 284.132C34.7361 284.132 34.1441 283.964 33.7201 283.628C33.2961 283.284 33.0721 282.844 33.0481 282.308H33.9601C33.9761 282.668 34.1201 282.94 34.3921 283.124C34.6721 283.3 35.0201 283.388 35.4361 283.388C35.8521 283.388 36.1961 283.3 36.4681 283.124C36.7401 282.948 36.8761 282.74 36.8761 282.5C36.8761 282.252 36.7961 282.064 36.6361 281.936C36.4761 281.808 36.2161 281.696 35.8561 281.6L34.7401 281.228C33.7401 280.932 33.2401 280.412 33.2401 279.668ZM42.8565 283.832C42.1685 284.152 41.5405 284.22 40.9725 284.036C40.5645 283.908 40.2765 283.64 40.1085 283.232C40.0205 283.032 39.9765 282.792 39.9765 282.512V278.984H39.0525V278.264H39.9765V276.668H40.9125V278.264H42.7125V278.984H40.9125V282.5C40.9125 283.084 41.1845 283.376 41.7285 283.376C42.0245 283.376 42.3565 283.304 42.7245 283.16L42.8565 283.832ZM48.1396 279.368C48.5156 278.536 49.1596 278.12 50.0716 278.12C50.7516 278.12 51.2796 278.344 51.6556 278.792C52.0396 279.24 52.2316 279.852 52.2316 280.628V284H51.2956V280.628C51.2956 280.076 51.1636 279.66 50.8996 279.38C50.6436 279.1 50.2756 278.96 49.7956 278.96C49.3156 278.96 48.9276 279.156 48.6316 279.548C48.3356 279.94 48.1796 280.484 48.1636 281.18V284H47.2156V278.264H48.0316L48.1396 279.368ZM58.0101 280.28C58.0101 279.76 57.9021 279.388 57.6861 279.164C57.4701 278.94 57.1541 278.828 56.7381 278.828C56.3301 278.828 55.9981 278.912 55.7421 279.08C55.4941 279.24 55.3701 279.496 55.3701 279.848H54.3261C54.3261 278.968 54.7981 278.424 55.7421 278.216C56.0301 278.152 56.3421 278.12 56.6781 278.12C57.3901 278.12 57.9461 278.3 58.3461 278.66C58.7461 279.02 58.9461 279.568 58.9461 280.304V284H58.1301L58.0341 283.04C57.6821 283.768 57.0461 284.132 56.1261 284.132C55.5101 284.132 55.0141 283.96 54.6381 283.616C54.2701 283.272 54.0861 282.844 54.0861 282.332C54.0861 281.82 54.2901 281.42 54.6981 281.132C55.1141 280.844 55.6301 280.7 56.2461 280.7C56.8621 280.7 57.4501 280.804 58.0101 281.012V280.28ZM58.0101 281.612C57.4421 281.452 56.9461 281.372 56.5221 281.372C56.0981 281.372 55.7541 281.448 55.4901 281.6C55.2261 281.752 55.0941 281.992 55.0941 282.32C55.0941 283.04 55.5021 283.4 56.3181 283.4C56.7821 283.4 57.1781 283.236 57.5061 282.908C57.8421 282.572 58.0101 282.14 58.0101 281.612ZM62.0849 279.368C62.4609 278.536 63.1049 278.12 64.0169 278.12C64.5129 278.12 64.9289 278.244 65.2649 278.492C65.6009 278.732 65.8449 279.068 65.9969 279.5C66.3569 278.58 67.0249 278.12 68.0009 278.12C68.6889 278.12 69.2209 278.344 69.5969 278.792C69.9729 279.24 70.1609 279.852 70.1609 280.628V284H69.2249V280.628C69.2249 280.076 69.0929 279.66 68.8289 279.38C68.5729 279.1 68.2009 278.96 67.7129 278.96C67.2249 278.96 66.8449 279.16 66.5729 279.56C66.3089 279.96 66.1769 280.512 66.1769 281.216V284H65.2409V280.628C65.2409 280.076 65.1089 279.66 64.8449 279.38C64.5889 279.1 64.2209 278.96 63.7409 278.96C63.2609 278.96 62.8729 279.156 62.5769 279.548C62.2809 279.94 62.1249 280.484 62.1089 281.18V284H61.1609V278.264H61.9769L62.0849 279.368ZM74.3678 283.364C75.1598 283.364 75.6118 283.016 75.7238 282.32H76.6958C76.6078 282.896 76.3518 283.344 75.9278 283.664C75.5118 283.976 74.9918 284.132 74.3678 284.132C73.5998 284.132 72.9758 283.86 72.4958 283.316C72.0158 282.764 71.7758 282.032 71.7758 281.12C71.7758 280.208 72.0158 279.48 72.4958 278.936C72.9838 278.392 73.6278 278.12 74.4278 278.12C75.2358 278.12 75.8358 278.432 76.2278 279.056C76.6278 279.68 76.7678 280.44 76.6478 281.336H72.7238C72.7238 281.928 72.8678 282.416 73.1558 282.8C73.4438 283.176 73.8478 283.364 74.3678 283.364ZM75.0638 279.02C74.8798 278.924 74.6558 278.876 74.3918 278.876C73.9038 278.876 73.5158 279.044 73.2278 279.38C72.9478 279.708 72.7838 280.12 72.7358 280.616H75.7958C75.7958 279.816 75.5518 279.284 75.0638 279.02Z" fill="white"/>
<path d="M21.2 363.452H25.844V364.268H22.148V366.8H25.628V367.604H22.148V370.172H25.844V371H21.2V363.452ZM28.8623 366.368C29.2383 365.536 29.8823 365.12 30.7943 365.12C31.2903 365.12 31.7063 365.244 32.0423 365.492C32.3783 365.732 32.6223 366.068 32.7743 366.5C33.1343 365.58 33.8023 365.12 34.7783 365.12C35.4663 365.12 35.9983 365.344 36.3743 365.792C36.7503 366.24 36.9383 366.852 36.9383 367.628V371H36.0023V367.628C36.0023 367.076 35.8703 366.66 35.6063 366.38C35.3503 366.1 34.9783 365.96 34.4903 365.96C34.0023 365.96 33.6223 366.16 33.3503 366.56C33.0863 366.96 32.9543 367.512 32.9543 368.216V371H32.0183V367.628C32.0183 367.076 31.8863 366.66 31.6223 366.38C31.3663 366.1 30.9983 365.96 30.5183 365.96C30.0383 365.96 29.6503 366.156 29.3543 366.548C29.0583 366.94 28.9023 367.484 28.8863 368.18V371H27.9383V365.264H28.7543L28.8623 366.368ZM42.7171 367.28C42.7171 366.76 42.6091 366.388 42.3931 366.164C42.1771 365.94 41.8611 365.828 41.4451 365.828C41.0371 365.828 40.7051 365.912 40.4491 366.08C40.2011 366.24 40.0771 366.496 40.0771 366.848H39.0331C39.0331 365.968 39.5051 365.424 40.4491 365.216C40.7371 365.152 41.0491 365.12 41.3851 365.12C42.0971 365.12 42.6531 365.3 43.0531 365.66C43.4531 366.02 43.6531 366.568 43.6531 367.304V371H42.8371L42.7411 370.04C42.3891 370.768 41.7531 371.132 40.8331 371.132C40.2171 371.132 39.7211 370.96 39.3451 370.616C38.9771 370.272 38.7931 369.844 38.7931 369.332C38.7931 368.82 38.9971 368.42 39.4051 368.132C39.8211 367.844 40.3371 367.7 40.9531 367.7C41.5691 367.7 42.1571 367.804 42.7171 368.012V367.28ZM42.7171 368.612C42.1491 368.452 41.6531 368.372 41.2291 368.372C40.8051 368.372 40.4611 368.448 40.1971 368.6C39.9331 368.752 39.8011 368.992 39.8011 369.32C39.8011 370.04 40.2091 370.4 41.0251 370.4C41.4891 370.4 41.8851 370.236 42.2131 369.908C42.5491 369.572 42.7171 369.14 42.7171 368.612ZM45.94 365.252H46.888V371H45.94V365.252ZM46.408 363.908C46.216 363.908 46.064 363.856 45.952 363.752C45.848 363.64 45.796 363.496 45.796 363.32C45.796 363.136 45.848 362.992 45.952 362.888C46.064 362.776 46.216 362.72 46.408 362.72C46.6 362.72 46.752 362.776 46.864 362.888C46.984 362.992 47.044 363.136 47.044 363.32C47.044 363.496 46.984 363.64 46.864 363.752C46.752 363.856 46.6 363.908 46.408 363.908ZM49.4659 362.828H50.4139V371H49.4659V362.828Z" fill="white"/>
<path d="M23.624 450.452C24.456 450.452 25.088 450.664 25.52 451.088C25.96 451.504 26.18 452.068 26.18 452.78C26.18 453.492 25.96 454.056 25.52 454.472C25.088 454.88 24.456 455.084 23.624 455.084H22.136V458H21.188V450.452H23.624ZM23.624 454.268C24.144 454.268 24.536 454.136 24.8 453.872C25.072 453.608 25.208 453.248 25.208 452.792C25.208 452.328 25.072 451.96 24.8 451.688C24.536 451.408 24.144 451.268 23.624 451.268H22.136V454.268H23.624ZM28.8045 453.32C29.1885 452.52 29.8245 452.12 30.7125 452.12C31.3925 452.12 31.9205 452.344 32.2965 452.792C32.6805 453.24 32.8725 453.852 32.8725 454.628V458H31.9365V454.628C31.9365 454.076 31.8045 453.66 31.5405 453.38C31.2845 453.1 30.9125 452.96 30.4245 452.96C29.9365 452.96 29.5445 453.168 29.2485 453.584C28.9525 453.992 28.8045 454.56 28.8045 455.288V458H27.8565V449.828H28.8045V453.32ZM37.1627 452.12C37.9627 452.12 38.6067 452.38 39.0947 452.9C39.5907 453.42 39.8387 454.164 39.8387 455.132C39.8387 456.092 39.5907 456.832 39.0947 457.352C38.6067 457.872 37.9627 458.132 37.1627 458.132C36.3627 458.132 35.7147 457.872 35.2187 457.352C34.7307 456.832 34.4867 456.092 34.4867 455.132C34.4867 454.164 34.7307 453.42 35.2187 452.9C35.7147 452.38 36.3627 452.12 37.1627 452.12ZM38.8787 455.132C38.8787 454.444 38.7347 453.908 38.4467 453.524C38.1587 453.132 37.7347 452.936 37.1747 452.936C36.6227 452.936 36.1987 453.132 35.9027 453.524C35.6067 453.908 35.4587 454.444 35.4587 455.132C35.4587 455.812 35.5987 456.348 35.8787 456.74C36.1587 457.124 36.5747 457.316 37.1267 457.316C37.6867 457.316 38.1187 457.124 38.4227 456.74C38.7267 456.348 38.8787 455.812 38.8787 455.132ZM42.5615 453.368C42.9375 452.536 43.5815 452.12 44.4935 452.12C45.1735 452.12 45.7015 452.344 46.0775 452.792C46.4615 453.24 46.6535 453.852 46.6535 454.628V458H45.7175V454.628C45.7175 454.076 45.5855 453.66 45.3215 453.38C45.0655 453.1 44.6975 452.96 44.2175 452.96C43.7375 452.96 43.3495 453.156 43.0535 453.548C42.7575 453.94 42.6015 454.484 42.5855 455.18V458H41.6375V452.264H42.4535L42.5615 453.368ZM50.86 457.364C51.652 457.364 52.104 457.016 52.216 456.32H53.188C53.1 456.896 52.844 457.344 52.42 457.664C52.004 457.976 51.484 458.132 50.86 458.132C50.092 458.132 49.468 457.86 48.988 457.316C48.508 456.764 48.268 456.032 48.268 455.12C48.268 454.208 48.508 453.48 48.988 452.936C49.476 452.392 50.12 452.12 50.92 452.12C51.728 452.12 52.328 452.432 52.72 453.056C53.12 453.68 53.26 454.44 53.14 455.336H49.216C49.216 455.928 49.36 456.416 49.648 456.8C49.936 457.176 50.34 457.364 50.86 457.364ZM51.556 453.02C51.372 452.924 51.148 452.876 50.884 452.876C50.396 452.876 50.008 453.044 49.72 453.38C49.44 453.708 49.276 454.12 49.228 454.616H52.288C52.288 453.816 52.044 453.284 51.556 453.02ZM58.8271 453.368C59.2031 452.536 59.8471 452.12 60.7591 452.12C61.4391 452.12 61.9671 452.344 62.3431 452.792C62.7271 453.24 62.9191 453.852 62.9191 454.628V458H61.9831V454.628C61.9831 454.076 61.8511 453.66 61.5871 453.38C61.3311 453.1 60.9631 452.96 60.4831 452.96C60.0031 452.96 59.6151 453.156 59.3191 453.548C59.0231 453.94 58.8671 454.484 58.8511 455.18V458H57.9031V452.264H58.7191L58.8271 453.368ZM69.0456 456.86C68.6536 457.692 68.0176 458.108 67.1376 458.108C66.4896 458.108 65.9656 457.928 65.5656 457.568C65.1736 457.208 64.9776 456.652 64.9776 455.9V452.252H65.9256V455.828C65.9256 456.796 66.3736 457.28 67.2696 457.28C67.7896 457.28 68.2096 457.08 68.5296 456.68C68.8576 456.28 69.0296 455.768 69.0456 455.144V452.252H69.9936V458H69.0456V456.86ZM73.3349 453.368C73.7109 452.536 74.3549 452.12 75.2669 452.12C75.7629 452.12 76.1789 452.244 76.5149 452.492C76.8509 452.732 77.0949 453.068 77.2469 453.5C77.6069 452.58 78.2749 452.12 79.2509 452.12C79.9389 452.12 80.4709 452.344 80.8469 452.792C81.2229 453.24 81.4109 453.852 81.4109 454.628V458H80.4749V454.628C80.4749 454.076 80.3429 453.66 80.0789 453.38C79.8229 453.1 79.4509 452.96 78.9629 452.96C78.4749 452.96 78.0949 453.16 77.8229 453.56C77.5589 453.96 77.4269 454.512 77.4269 455.216V458H76.4909V454.628C76.4909 454.076 76.3589 453.66 76.0949 453.38C75.8389 453.1 75.4709 452.96 74.9909 452.96C74.5109 452.96 74.1229 453.156 73.8269 453.548C73.5309 453.94 73.3749 454.484 73.3589 455.18V458H72.4109V452.264H73.2269L73.3349 453.368ZM84.5858 453.116C84.9698 452.452 85.5298 452.12 86.2658 452.12C87.0018 452.12 87.6138 452.396 88.1018 452.948C88.5898 453.492 88.8338 454.216 88.8338 455.12C88.8338 456.016 88.5858 456.744 88.0898 457.304C87.5938 457.856 86.9898 458.132 86.2778 458.132C85.8938 458.132 85.5458 458.036 85.2338 457.844C84.9298 457.652 84.6898 457.368 84.5138 456.992L84.2978 458H83.6378V449.828H84.5858V453.116ZM86.2058 452.96C85.7498 452.96 85.3698 453.108 85.0658 453.404C84.7618 453.692 84.6018 454.096 84.5858 454.616V455.552C84.5858 456.08 84.7418 456.504 85.0538 456.824C85.3738 457.136 85.7578 457.292 86.2058 457.292C86.6538 457.292 87.0418 457.096 87.3698 456.704C87.6978 456.304 87.8618 455.776 87.8618 455.12C87.8618 454.464 87.6978 453.94 87.3698 453.548C87.0498 453.156 86.6618 452.96 86.2058 452.96ZM92.6256 457.364C93.4176 457.364 93.8696 457.016 93.9816 456.32H94.9536C94.8656 456.896 94.6096 457.344 94.1856 457.664C93.7696 457.976 93.2496 458.132 92.6256 458.132C91.8576 458.132 91.2336 457.86 90.7536 457.316C90.2736 456.764 90.0336 456.032 90.0336 455.12C90.0336 454.208 90.2736 453.48 90.7536 452.936C91.2416 452.392 91.8856 452.12 92.6856 452.12C93.4936 452.12 94.0936 452.432 94.4856 453.056C94.8856 453.68 95.0256 454.44 94.9056 455.336H90.9816C90.9816 455.928 91.1256 456.416 91.4136 456.8C91.7016 457.176 92.1056 457.364 92.6256 457.364ZM93.3216 453.02C93.1376 452.924 92.9136 452.876 92.6496 452.876C92.1616 452.876 91.7736 453.044 91.4856 453.38C91.2056 453.708 91.0416 454.12 90.9936 454.616H94.0536C94.0536 453.816 93.8096 453.284 93.3216 453.02ZM99.1614 453.068C98.2574 453.068 97.7894 453.78 97.7574 455.204V458H96.8094V452.252H97.7574V453.356C98.0454 452.556 98.5534 452.156 99.2814 452.156C99.5134 452.156 99.7334 452.192 99.9414 452.264L99.8934 453.188C99.6534 453.108 99.4094 453.068 99.1614 453.068Z" fill="white"/>
<path d="M23 213.5H391C392.381 213.5 393.5 214.619 393.5 216V254C393.5 255.381 392.381 256.5 391 256.5H23C21.6193 256.5 20.5 255.381 20.5 254V216C20.5 214.619 21.6193 213.5 23 213.5Z" fill="white" stroke="black"/>
<path d="M39.388 231.194H40.732L43.686 240H42.538L41.782 237.76H38.282L37.526 240H36.364L39.388 231.194ZM38.576 236.892H41.502L40.046 232.552L38.576 236.892ZM46.5307 234.596C46.9694 233.625 47.7207 233.14 48.7847 233.14C49.5781 233.14 50.1941 233.401 50.6327 233.924C51.0807 234.447 51.3047 235.161 51.3047 236.066V240H50.2127V236.066C50.2127 235.422 50.0587 234.937 49.7507 234.61C49.4521 234.283 49.0227 234.12 48.4627 234.12C47.9027 234.12 47.4501 234.349 47.1047 234.806C46.7594 235.263 46.5774 235.898 46.5587 236.71V240H45.4527V233.308H46.4047L46.5307 234.596ZM54.9663 234.596C55.4049 233.625 56.1563 233.14 57.2203 233.14C58.0136 233.14 58.6296 233.401 59.0683 233.924C59.5163 234.447 59.7403 235.161 59.7403 236.066V240H58.6483V236.066C58.6483 235.422 58.4943 234.937 58.1863 234.61C57.8876 234.283 57.4583 234.12 56.8983 234.12C56.3383 234.12 55.8856 234.349 55.5403 234.806C55.1949 235.263 55.0129 235.898 54.9943 236.71V240H53.8883V233.308H54.8403L54.9663 234.596ZM66.4818 235.66C66.4818 235.053 66.3558 234.619 66.1038 234.358C65.8518 234.097 65.4832 233.966 64.9978 233.966C64.5218 233.966 64.1345 234.064 63.8358 234.26C63.5465 234.447 63.4018 234.745 63.4018 235.156H62.1838C62.1838 234.129 62.7345 233.495 63.8358 233.252C64.1718 233.177 64.5358 233.14 64.9278 233.14C65.7585 233.14 66.4072 233.35 66.8738 233.77C67.3405 234.19 67.5738 234.829 67.5738 235.688V240H66.6218L66.5098 238.88C66.0992 239.729 65.3572 240.154 64.2838 240.154C63.5652 240.154 62.9865 239.953 62.5478 239.552C62.1185 239.151 61.9038 238.651 61.9038 238.054C61.9038 237.457 62.1418 236.99 62.6178 236.654C63.1032 236.318 63.7052 236.15 64.4238 236.15C65.1425 236.15 65.8285 236.271 66.4818 236.514V235.66ZM66.4818 237.214C65.8192 237.027 65.2405 236.934 64.7458 236.934C64.2512 236.934 63.8498 237.023 63.5418 237.2C63.2338 237.377 63.0798 237.657 63.0798 238.04C63.0798 238.88 63.5558 239.3 64.5078 239.3C65.0492 239.3 65.5112 239.109 65.8938 238.726C66.2858 238.334 66.4818 237.83 66.4818 237.214Z" fill="#181827"/>
<path d="M23 300.5H391C392.381 300.5 393.5 301.619 393.5 303V341C393.5 342.381 392.381 343.5 391 343.5H23C21.6193 343.5 20.5 342.381 20.5 341V303C20.5 301.619 21.6193 300.5 23 300.5Z" fill="white" stroke="black"/>
<path d="M23 387.5H391C392.381 387.5 393.5 388.619 393.5 390V428C393.5 429.381 392.381 430.5 391 430.5H23C21.6193 430.5 20.5 429.381 20.5 428V390C20.5 388.619 21.6193 387.5 23 387.5Z" fill="white" stroke="black"/>
<path d="M23 474.5H391C392.381 474.5 393.5 475.619 393.5 477V515C393.5 516.381 392.381 517.5 391 517.5H23C21.6193 517.5 20.5 516.381 20.5 515V477C20.5 475.619 21.6193 474.5 23 474.5Z" fill="white" stroke="black"/>
<path d="M40.536 324.452C40.536 325.413 40.3167 326.104 39.878 326.524C39.4487 326.944 38.898 327.154 38.226 327.154C37.554 327.154 36.8493 326.958 36.112 326.566V325.418C36.7653 325.866 37.3767 326.09 37.946 326.09C38.5247 326.09 38.9167 325.95 39.122 325.67C39.3273 325.39 39.43 324.984 39.43 324.452V318.194H40.536V324.452ZM45.4822 320.14C46.4155 320.14 47.1668 320.443 47.7362 321.05C48.3148 321.657 48.6042 322.525 48.6042 323.654C48.6042 324.774 48.3148 325.637 47.7362 326.244C47.1668 326.851 46.4155 327.154 45.4822 327.154C44.5488 327.154 43.7928 326.851 43.2142 326.244C42.6448 325.637 42.3602 324.774 42.3602 323.654C42.3602 322.525 42.6448 321.657 43.2142 321.05C43.7928 320.443 44.5488 320.14 45.4822 320.14ZM47.4842 323.654C47.4842 322.851 47.3162 322.226 46.9802 321.778C46.6442 321.321 46.1495 321.092 45.4962 321.092C44.8522 321.092 44.3575 321.321 44.0122 321.778C43.6668 322.226 43.4942 322.851 43.4942 323.654C43.4942 324.447 43.6575 325.073 43.9842 325.53C44.3108 325.978 44.7962 326.202 45.4402 326.202C46.0935 326.202 46.5975 325.978 46.9522 325.53C47.3068 325.073 47.4842 324.447 47.4842 323.654ZM51.8227 321.54C52.2707 320.607 53.0127 320.14 54.0487 320.14C54.8421 320.14 55.4581 320.401 55.8967 320.924C56.3447 321.447 56.5687 322.161 56.5687 323.066V327H55.4767V323.066C55.4767 322.422 55.3227 321.937 55.0147 321.61C54.7161 321.283 54.2821 321.12 53.7127 321.12C53.1434 321.12 52.6861 321.363 52.3407 321.848C51.9954 322.324 51.8227 322.987 51.8227 323.836V327H50.7167V317.466H51.8227V321.54ZM60.23 321.596C60.6686 320.625 61.42 320.14 62.484 320.14C63.2773 320.14 63.8933 320.401 64.332 320.924C64.78 321.447 65.004 322.161 65.004 323.066V327H63.912V323.066C63.912 322.422 63.758 321.937 63.45 321.61C63.1513 321.283 62.722 321.12 62.162 321.12C61.602 321.12 61.1493 321.349 60.804 321.806C60.4586 322.263 60.2766 322.898 60.258 323.71V327H59.152V320.308H60.104L60.23 321.596ZM67.2515 321.946C67.2515 321.395 67.4848 320.957 67.9515 320.63C68.4275 320.303 69.0668 320.14 69.8695 320.14C70.6722 320.14 71.2975 320.308 71.7455 320.644C72.2028 320.98 72.4408 321.405 72.4595 321.918H71.3815C71.2975 321.311 70.7842 321.008 69.8415 321.008C69.3842 321.008 69.0295 321.111 68.7775 321.316C68.5348 321.521 68.4135 321.745 68.4135 321.988C68.4135 322.221 68.5068 322.422 68.6935 322.59C68.8802 322.749 69.1788 322.889 69.5895 323.01L70.9335 323.458C71.5028 323.635 71.9368 323.864 72.2355 324.144C72.5435 324.415 72.6975 324.793 72.6975 325.278C72.6975 325.754 72.4502 326.188 71.9555 326.58C71.4608 326.963 70.7702 327.154 69.8835 327.154C68.9968 327.154 68.3062 326.958 67.8115 326.566C67.3168 326.165 67.0555 325.651 67.0275 325.026H68.0915C68.1102 325.446 68.2782 325.763 68.5955 325.978C68.9222 326.183 69.3282 326.286 69.8135 326.286C70.2988 326.286 70.7002 326.183 71.0175 325.978C71.3348 325.773 71.4935 325.53 71.4935 325.25C71.4935 324.961 71.4002 324.741 71.2135 324.592C71.0268 324.443 70.7235 324.312 70.3035 324.2L69.0015 323.766C67.8348 323.421 67.2515 322.814 67.2515 321.946ZM77.3786 320.14C78.312 320.14 79.0633 320.443 79.6326 321.05C80.2113 321.657 80.5006 322.525 80.5006 323.654C80.5006 324.774 80.2113 325.637 79.6326 326.244C79.0633 326.851 78.312 327.154 77.3786 327.154C76.4453 327.154 75.6893 326.851 75.1106 326.244C74.5413 325.637 74.2566 324.774 74.2566 323.654C74.2566 322.525 74.5413 321.657 75.1106 321.05C75.6893 320.443 76.4453 320.14 77.3786 320.14ZM79.3806 323.654C79.3806 322.851 79.2126 322.226 78.8766 321.778C78.5406 321.321 78.046 321.092 77.3926 321.092C76.7486 321.092 76.254 321.321 75.9086 321.778C75.5633 322.226 75.3906 322.851 75.3906 323.654C75.3906 324.447 75.554 325.073 75.8806 325.53C76.2073 325.978 76.6926 326.202 77.3366 326.202C77.99 326.202 78.494 325.978 78.8486 325.53C79.2033 325.073 79.3806 324.447 79.3806 323.654ZM83.6772 321.596C84.1159 320.625 84.8672 320.14 85.9312 320.14C86.7246 320.14 87.3406 320.401 87.7792 320.924C88.2272 321.447 88.4512 322.161 88.4512 323.066V327H87.3592V323.066C87.3592 322.422 87.2052 321.937 86.8972 321.61C86.5986 321.283 86.1692 321.12 85.6092 321.12C85.0492 321.12 84.5966 321.349 84.2512 321.806C83.9059 322.263 83.7239 322.898 83.7052 323.71V327H82.5992V320.308H83.5512L83.6772 321.596Z" fill="#181827"/>
<path d="M41.558 409.66C41.558 409.053 41.432 408.619 41.18 408.358C40.928 408.097 40.5593 407.966 40.074 407.966C39.598 407.966 39.2107 408.064 38.912 408.26C38.6227 408.447 38.478 408.745 38.478 409.156H37.26C37.26 408.129 37.8107 407.495 38.912 407.252C39.248 407.177 39.612 407.14 40.004 407.14C40.8347 407.14 41.4833 407.35 41.95 407.77C42.4167 408.19 42.65 408.829 42.65 409.688V414H41.698L41.586 412.88C41.1753 413.729 40.4333 414.154 39.36 414.154C38.6413 414.154 38.0627 413.953 37.624 413.552C37.1947 413.151 36.98 412.651 36.98 412.054C36.98 411.457 37.218 410.99 37.694 410.654C38.1793 410.318 38.7813 410.15 39.5 410.15C40.2187 410.15 40.9047 410.271 41.558 410.514V409.66ZM41.558 411.214C40.8953 411.027 40.3167 410.934 39.822 410.934C39.3273 410.934 38.926 411.023 38.618 411.2C38.31 411.377 38.156 411.657 38.156 412.04C38.156 412.88 38.632 413.3 39.584 413.3C40.1253 413.3 40.5873 413.109 40.97 412.726C41.362 412.334 41.558 411.83 41.558 411.214ZM46.312 408.596C46.7507 407.625 47.502 407.14 48.566 407.14C49.3593 407.14 49.9753 407.401 50.414 407.924C50.862 408.447 51.086 409.161 51.086 410.066V414H49.994V410.066C49.994 409.422 49.84 408.937 49.532 408.61C49.2333 408.283 48.804 408.12 48.244 408.12C47.684 408.12 47.2313 408.349 46.886 408.806C46.5407 409.263 46.3587 409.898 46.34 410.71V414H45.234V407.308H46.186L46.312 408.596ZM54.7475 408.596C55.1862 407.625 55.9375 407.14 57.0015 407.14C57.7949 407.14 58.4109 407.401 58.8495 407.924C59.2975 408.447 59.5215 409.161 59.5215 410.066V414H58.4295V410.066C58.4295 409.422 58.2755 408.937 57.9675 408.61C57.6689 408.283 57.2395 408.12 56.6795 408.12C56.1195 408.12 55.6669 408.349 55.3215 408.806C54.9762 409.263 54.7942 409.898 54.7755 410.71V414H53.6695V407.308H54.6215L54.7475 408.596ZM66.2631 409.66C66.2631 409.053 66.1371 408.619 65.8851 408.358C65.6331 408.097 65.2644 407.966 64.7791 407.966C64.3031 407.966 63.9157 408.064 63.6171 408.26C63.3277 408.447 63.1831 408.745 63.1831 409.156H61.9651C61.9651 408.129 62.5157 407.495 63.6171 407.252C63.9531 407.177 64.3171 407.14 64.7091 407.14C65.5397 407.14 66.1884 407.35 66.6551 407.77C67.1217 408.19 67.3551 408.829 67.3551 409.688V414H66.4031L66.2911 412.88C65.8804 413.729 65.1384 414.154 64.0651 414.154C63.3464 414.154 62.7677 413.953 62.3291 413.552C61.8997 413.151 61.6851 412.651 61.6851 412.054C61.6851 411.457 61.9231 410.99 62.3991 410.654C62.8844 410.318 63.4864 410.15 64.2051 410.15C64.9237 410.15 65.6097 410.271 66.2631 410.514V409.66ZM66.2631 411.214C65.6004 411.027 65.0217 410.934 64.5271 410.934C64.0324 410.934 63.6311 411.023 63.3231 411.2C63.0151 411.377 62.8611 411.657 62.8611 412.04C62.8611 412.88 63.3371 413.3 64.2891 413.3C64.8304 413.3 65.2924 413.109 65.6751 412.726C66.0671 412.334 66.2631 411.83 66.2631 411.214ZM74.115 405.726C73.891 405.726 73.7137 405.665 73.583 405.544C73.4617 405.413 73.401 405.245 73.401 405.04C73.401 404.825 73.4617 404.657 73.583 404.536C73.7137 404.405 73.891 404.34 74.115 404.34C74.339 404.34 74.5163 404.405 74.647 404.536C74.787 404.657 74.857 404.825 74.857 405.04C74.857 405.245 74.787 405.413 74.647 405.544C74.5163 405.665 74.339 405.726 74.115 405.726ZM72.337 416.478C73.1583 416.478 73.569 415.965 73.569 414.938V407.28H74.675V414.938C74.675 416.217 74.255 417.005 73.415 417.304C73.1537 417.397 72.8643 417.444 72.547 417.444C71.9683 417.444 71.343 417.271 70.671 416.926L70.727 415.96C71.315 416.305 71.8517 416.478 72.337 416.478ZM80.0993 407.14C81.0327 407.14 81.784 407.443 82.3533 408.05C82.932 408.657 83.2213 409.525 83.2213 410.654C83.2213 411.774 82.932 412.637 82.3533 413.244C81.784 413.851 81.0327 414.154 80.0993 414.154C79.166 414.154 78.41 413.851 77.8313 413.244C77.262 412.637 76.9773 411.774 76.9773 410.654C76.9773 409.525 77.262 408.657 77.8313 408.05C78.41 407.443 79.166 407.14 80.0993 407.14ZM82.1013 410.654C82.1013 409.851 81.9333 409.226 81.5973 408.778C81.2613 408.321 80.7667 408.092 80.1133 408.092C79.4693 408.092 78.9747 408.321 78.6293 408.778C78.284 409.226 78.1113 409.851 78.1113 410.654C78.1113 411.447 78.2747 412.073 78.6013 412.53C78.928 412.978 79.4133 413.202 80.0573 413.202C80.7107 413.202 81.2147 412.978 81.5693 412.53C81.924 412.073 82.1013 411.447 82.1013 410.654ZM86.4399 408.54C86.8879 407.607 87.6299 407.14 88.6659 407.14C89.4593 407.14 90.0753 407.401 90.5139 407.924C90.9619 408.447 91.1859 409.161 91.1859 410.066V414H90.0939V410.066C90.0939 409.422 89.9399 408.937 89.6319 408.61C89.3333 408.283 88.8993 408.12 88.3299 408.12C87.7606 408.12 87.3033 408.363 86.9579 408.848C86.6126 409.324 86.4399 409.987 86.4399 410.836V414H85.3339V404.466H86.4399V408.54ZM94.8471 408.596C95.2858 407.625 96.0371 407.14 97.1011 407.14C97.8945 407.14 98.5105 407.401 98.9491 407.924C99.3971 408.447 99.6211 409.161 99.6211 410.066V414H98.5291V410.066C98.5291 409.422 98.3751 408.937 98.0671 408.61C97.7685 408.283 97.3391 408.12 96.7791 408.12C96.2191 408.12 95.7665 408.349 95.4211 408.806C95.0758 409.263 94.8938 409.898 94.8751 410.71V414H93.7691V407.308H94.7211L94.8471 408.596ZM101.869 408.946C101.869 408.395 102.102 407.957 102.569 407.63C103.045 407.303 103.684 407.14 104.487 407.14C105.289 407.14 105.915 407.308 106.363 407.644C106.82 407.98 107.058 408.405 107.077 408.918H105.999C105.915 408.311 105.401 408.008 104.459 408.008C104.001 408.008 103.647 408.111 103.395 408.316C103.152 408.521 103.031 408.745 103.031 408.988C103.031 409.221 103.124 409.422 103.311 409.59C103.497 409.749 103.796 409.889 104.207 410.01L105.551 410.458C106.12 410.635 106.554 410.864 106.853 411.144C107.161 411.415 107.315 411.793 107.315 412.278C107.315 412.754 107.067 413.188 106.573 413.58C106.078 413.963 105.387 414.154 104.501 414.154C103.614 414.154 102.923 413.958 102.429 413.566C101.934 413.165 101.673 412.651 101.645 412.026H102.709C102.727 412.446 102.895 412.763 103.213 412.978C103.539 413.183 103.945 413.286 104.431 413.286C104.916 413.286 105.317 413.183 105.635 412.978C105.952 412.773 106.111 412.53 106.111 412.25C106.111 411.961 106.017 411.741 105.831 411.592C105.644 411.443 105.341 411.312 104.921 411.2L103.619 410.766C102.452 410.421 101.869 409.814 101.869 408.946ZM111.996 407.14C112.929 407.14 113.68 407.443 114.25 408.05C114.828 408.657 115.118 409.525 115.118 410.654C115.118 411.774 114.828 412.637 114.25 413.244C113.68 413.851 112.929 414.154 111.996 414.154C111.062 414.154 110.306 413.851 109.728 413.244C109.158 412.637 108.874 411.774 108.874 410.654C108.874 409.525 109.158 408.657 109.728 408.05C110.306 407.443 111.062 407.14 111.996 407.14ZM113.998 410.654C113.998 409.851 113.83 409.226 113.494 408.778C113.158 408.321 112.663 408.092 112.01 408.092C111.366 408.092 110.871 408.321 110.526 408.778C110.18 409.226 110.008 409.851 110.008 410.654C110.008 411.447 110.171 412.073 110.498 412.53C110.824 412.978 111.31 413.202 111.954 413.202C112.607 413.202 113.111 412.978 113.466 412.53C113.82 412.073 113.998 411.447 113.998 410.654ZM118.294 408.596C118.733 407.625 119.484 407.14 120.548 407.14C121.342 407.14 121.958 407.401 122.396 407.924C122.844 408.447 123.068 409.161 123.068 410.066V414H121.976V410.066C121.976 409.422 121.822 408.937 121.514 408.61C121.216 408.283 120.786 408.12 120.226 408.12C119.666 408.12 119.214 408.349 118.868 408.806C118.523 409.263 118.341 409.898 118.322 410.71V414H117.216V407.308H118.168L118.294 408.596ZM132.302 409.954C132.302 409.17 132.027 408.778 131.476 408.778C130.925 408.778 130.431 409.007 129.992 409.464C129.553 409.912 129.334 410.481 129.334 411.172C129.334 411.667 129.46 412.049 129.712 412.32C129.973 412.591 130.295 412.726 130.678 412.726C131.061 412.726 131.373 412.619 131.616 412.404C131.859 412.18 132.087 411.858 132.302 411.438V409.954ZM133.226 412.068C133.226 412.544 133.408 412.782 133.772 412.782C133.959 412.782 134.159 412.721 134.374 412.6C134.598 412.469 134.799 412.283 134.976 412.04C135.405 411.471 135.62 410.743 135.62 409.856C135.62 408.745 135.242 407.831 134.486 407.112C133.73 406.393 132.703 406.034 131.406 406.034C130.641 406.034 129.945 406.165 129.32 406.426C128.695 406.687 128.163 407.037 127.724 407.476C126.791 408.409 126.324 409.571 126.324 410.962C126.324 412.353 126.819 413.477 127.808 414.336C128.797 415.204 130.155 415.638 131.882 415.638V416.534C129.894 416.534 128.275 415.997 127.024 414.924C126.436 414.42 125.983 413.823 125.666 413.132C125.349 412.432 125.19 411.667 125.19 410.836C125.19 410.005 125.344 409.235 125.652 408.526C125.96 407.817 126.389 407.205 126.94 406.692C127.491 406.169 128.144 405.763 128.9 405.474C129.665 405.185 130.473 405.04 131.322 405.04C132.171 405.04 132.927 405.166 133.59 405.418C134.253 405.67 134.817 406.015 135.284 406.454C135.751 406.883 136.115 407.392 136.376 407.98C136.637 408.568 136.768 409.175 136.768 409.8C136.768 410.939 136.465 411.858 135.858 412.558C135.261 413.258 134.561 413.608 133.758 413.608C133.357 413.608 133.035 413.524 132.792 413.356C132.549 413.188 132.405 412.945 132.358 412.628L132.316 412.404C132.148 412.759 131.924 413.048 131.644 413.272C131.364 413.496 131.037 413.608 130.664 413.608C129.973 413.608 129.404 413.379 128.956 412.922C128.517 412.465 128.298 411.886 128.298 411.186C128.298 410.262 128.606 409.487 129.222 408.862C129.838 408.227 130.571 407.91 131.42 407.91C131.98 407.91 132.419 408.078 132.736 408.414C133.063 408.75 133.226 409.259 133.226 409.94V412.068ZM139.112 413.79C138.552 413.519 138.272 413.104 138.272 412.544C138.272 412.255 138.379 412.003 138.594 411.788C138.818 411.564 139.093 411.415 139.42 411.34C138.916 410.892 138.664 410.304 138.664 409.576C138.664 408.848 138.921 408.26 139.434 407.812C139.957 407.364 140.573 407.14 141.282 407.14C141.991 407.14 142.593 407.308 143.088 407.644C143.153 407.149 143.349 406.753 143.676 406.454C144.012 406.155 144.451 406.006 144.992 406.006L144.894 407.098C144.073 407.098 143.643 407.443 143.606 408.134C143.933 408.535 144.096 409.016 144.096 409.576C144.096 410.295 143.835 410.887 143.312 411.354C142.799 411.811 142.155 412.04 141.38 412.04C140.848 412.04 140.377 411.933 139.966 411.718C139.779 411.755 139.611 411.844 139.462 411.984C139.313 412.115 139.238 412.297 139.238 412.53C139.238 413.025 139.649 413.272 140.47 413.272H143.074C143.699 413.272 144.194 413.407 144.558 413.678C144.922 413.939 145.104 414.308 145.104 414.784C145.104 415.493 144.745 416.114 144.026 416.646C143.317 417.178 142.416 417.444 141.324 417.444C140.232 417.444 139.373 417.239 138.748 416.828C138.123 416.427 137.81 415.918 137.81 415.302C137.81 414.901 137.927 414.574 138.16 414.322C138.403 414.07 138.72 413.893 139.112 413.79ZM138.902 415.26C138.902 415.615 139.093 415.918 139.476 416.17C139.868 416.431 140.456 416.562 141.24 416.562C142.033 416.562 142.691 416.389 143.214 416.044C143.746 415.708 144.012 415.311 144.012 414.854C144.012 414.639 143.933 414.453 143.774 414.294C143.625 414.145 143.391 414.07 143.074 414.07H140.372C139.896 414.089 139.532 414.201 139.28 414.406C139.028 414.621 138.902 414.905 138.902 415.26ZM143.018 409.576C143.018 409.091 142.873 408.699 142.584 408.4C142.295 408.092 141.893 407.938 141.38 407.938C140.876 407.938 140.479 408.092 140.19 408.4C139.901 408.699 139.756 409.091 139.756 409.576C139.756 410.061 139.901 410.463 140.19 410.78C140.489 411.088 140.89 411.242 141.394 411.242C141.898 411.242 142.295 411.083 142.584 410.766C142.873 410.449 143.018 410.052 143.018 409.576ZM147.812 408.596C148.251 407.625 149.002 407.14 150.066 407.14C150.645 407.14 151.13 407.285 151.522 407.574C151.914 407.854 152.199 408.246 152.376 408.75C152.796 407.677 153.575 407.14 154.714 407.14C155.517 407.14 156.137 407.401 156.576 407.924C157.015 408.447 157.234 409.161 157.234 410.066V414H156.142V410.066C156.142 409.422 155.988 408.937 155.68 408.61C155.381 408.283 154.947 408.12 154.378 408.12C153.809 408.12 153.365 408.353 153.048 408.82C152.74 409.287 152.586 409.931 152.586 410.752V414H151.494V410.066C151.494 409.422 151.34 408.937 151.032 408.61C150.733 408.283 150.304 408.12 149.744 408.12C149.184 408.12 148.731 408.349 148.386 408.806C148.041 409.263 147.859 409.898 147.84 410.71V414H146.734V407.308H147.686L147.812 408.596ZM163.976 409.66C163.976 409.053 163.85 408.619 163.598 408.358C163.346 408.097 162.977 407.966 162.492 407.966C162.016 407.966 161.629 408.064 161.33 408.26C161.041 408.447 160.896 408.745 160.896 409.156H159.678C159.678 408.129 160.229 407.495 161.33 407.252C161.666 407.177 162.03 407.14 162.422 407.14C163.253 407.14 163.901 407.35 164.368 407.77C164.835 408.19 165.068 408.829 165.068 409.688V414H164.116L164.004 412.88C163.593 413.729 162.851 414.154 161.778 414.154C161.059 414.154 160.481 413.953 160.042 413.552C159.613 413.151 159.398 412.651 159.398 412.054C159.398 411.457 159.636 410.99 160.112 410.654C160.597 410.318 161.199 410.15 161.918 410.15C162.637 410.15 163.323 410.271 163.976 410.514V409.66ZM163.976 411.214C163.313 411.027 162.735 410.934 162.24 410.934C161.745 410.934 161.344 411.023 161.036 411.2C160.728 411.377 160.574 411.657 160.574 412.04C160.574 412.88 161.05 413.3 162.002 413.3C162.543 413.3 163.005 413.109 163.388 412.726C163.78 412.334 163.976 411.83 163.976 411.214ZM167.736 407.294H168.842V414H167.736V407.294ZM168.282 405.726C168.058 405.726 167.881 405.665 167.75 405.544C167.629 405.413 167.568 405.245 167.568 405.04C167.568 404.825 167.629 404.657 167.75 404.536C167.881 404.405 168.058 404.34 168.282 404.34C168.506 404.34 168.683 404.405 168.814 404.536C168.954 404.657 169.024 404.825 169.024 405.04C169.024 405.245 168.954 405.413 168.814 405.544C168.683 405.665 168.506 405.726 168.282 405.726ZM171.85 404.466H172.956V414H171.85V404.466ZM175.591 414.126C175.358 414.126 175.162 414.051 175.003 413.902C174.854 413.743 174.779 413.557 174.779 413.342C174.779 413.118 174.854 412.931 175.003 412.782C175.162 412.623 175.358 412.544 175.591 412.544C175.834 412.544 176.035 412.623 176.193 412.782C176.352 412.931 176.431 413.118 176.431 413.342C176.431 413.557 176.352 413.743 176.193 413.902C176.035 414.051 175.834 414.126 175.591 414.126ZM180.501 407.14C181.295 407.14 181.925 407.345 182.391 407.756C182.858 408.157 183.161 408.661 183.301 409.268L182.181 409.366C182.06 408.974 181.864 408.671 181.593 408.456C181.323 408.232 181.024 408.12 180.697 408.12C180.1 408.12 179.615 408.344 179.241 408.792C178.877 409.24 178.695 409.851 178.695 410.626C178.695 411.391 178.873 412.007 179.227 412.474C179.591 412.941 180.039 413.174 180.571 413.174C181.113 413.174 181.514 413.053 181.775 412.81C182.046 412.558 182.181 412.203 182.181 411.746H183.315C183.315 412.465 183.063 413.048 182.559 413.496C182.065 413.935 181.416 414.154 180.613 414.154C179.764 414.154 179.041 413.832 178.443 413.188C177.855 412.544 177.561 411.69 177.561 410.626C177.561 409.553 177.855 408.703 178.443 408.078C179.031 407.453 179.717 407.14 180.501 407.14ZM187.888 407.14C188.822 407.14 189.573 407.443 190.142 408.05C190.721 408.657 191.01 409.525 191.01 410.654C191.01 411.774 190.721 412.637 190.142 413.244C189.573 413.851 188.822 414.154 187.888 414.154C186.955 414.154 186.199 413.851 185.62 413.244C185.051 412.637 184.766 411.774 184.766 410.654C184.766 409.525 185.051 408.657 185.62 408.05C186.199 407.443 186.955 407.14 187.888 407.14ZM189.89 410.654C189.89 409.851 189.722 409.226 189.386 408.778C189.05 408.321 188.556 408.092 187.902 408.092C187.258 408.092 186.764 408.321 186.418 408.778C186.073 409.226 185.9 409.851 185.9 410.654C185.9 411.447 186.064 412.073 186.39 412.53C186.717 412.978 187.202 413.202 187.846 413.202C188.5 413.202 189.004 412.978 189.358 412.53C189.713 412.073 189.89 411.447 189.89 410.654ZM194.187 408.596C194.626 407.625 195.377 407.14 196.441 407.14C197.02 407.14 197.505 407.285 197.897 407.574C198.289 407.854 198.574 408.246 198.751 408.75C199.171 407.677 199.95 407.14 201.089 407.14C201.892 407.14 202.512 407.401 202.951 407.924C203.39 408.447 203.609 409.161 203.609 410.066V414H202.517V410.066C202.517 409.422 202.363 408.937 202.055 408.61C201.756 408.283 201.322 408.12 200.753 408.12C200.184 408.12 199.74 408.353 199.423 408.82C199.115 409.287 198.961 409.931 198.961 410.752V414H197.869V410.066C197.869 409.422 197.715 408.937 197.407 408.61C197.108 408.283 196.679 408.12 196.119 408.12C195.559 408.12 195.106 408.349 194.761 408.806C194.416 409.263 194.234 409.898 194.215 410.71V414H193.109V407.308H194.061L194.187 408.596Z" fill="#181827"/>
<path d="M43.07 493.948C43.07 494.881 42.5567 495.53 41.53 495.894C42.09 496.053 42.5427 496.314 42.888 496.678C43.2333 497.042 43.406 497.509 43.406 498.078C43.406 498.853 43.112 499.478 42.524 499.954C41.936 500.421 41.1613 500.654 40.2 500.654C39.2387 500.654 38.4173 500.407 37.736 499.912C37.064 499.408 36.728 498.703 36.728 497.798H37.876C37.8947 498.395 38.114 498.853 38.534 499.17C38.9633 499.487 39.5047 499.646 40.158 499.646C40.8113 499.646 41.3153 499.492 41.67 499.184C42.034 498.867 42.216 498.479 42.216 498.022C42.216 497.555 42.0433 497.177 41.698 496.888C41.3527 496.589 40.7927 496.44 40.018 496.44H39.01V495.558H39.696C40.368 495.558 40.9 495.427 41.292 495.166C41.684 494.895 41.88 494.536 41.88 494.088C41.88 493.64 41.7213 493.271 41.404 492.982C41.0867 492.693 40.6667 492.548 40.144 492.548C39.6213 492.548 39.1827 492.641 38.828 492.828C38.4827 493.005 38.2493 493.341 38.128 493.836H36.98C37.0827 493.061 37.4047 492.487 37.946 492.114C38.4873 491.731 39.1827 491.54 40.032 491.54C40.8907 491.54 41.6093 491.769 42.188 492.226C42.776 492.674 43.07 493.248 43.07 493.948ZM48.4435 491.54C49.5075 491.54 50.3475 491.932 50.9635 492.716C51.5795 493.5 51.8875 494.629 51.8875 496.104C51.8875 497.569 51.5795 498.694 50.9635 499.478C50.3475 500.262 49.5075 500.654 48.4435 500.654C47.3795 500.654 46.5348 500.267 45.9095 499.492C45.2935 498.717 44.9855 497.588 44.9855 496.104C44.9855 494.611 45.2935 493.477 45.9095 492.702C46.5348 491.927 47.3795 491.54 48.4435 491.54ZM50.7395 496.104C50.7395 494.956 50.5435 494.079 50.1515 493.472C49.7595 492.856 49.1855 492.548 48.4295 492.548C47.6828 492.548 47.1135 492.856 46.7215 493.472C46.3295 494.079 46.1335 494.956 46.1335 496.104C46.1335 497.243 46.3295 498.12 46.7215 498.736C47.1135 499.343 47.6828 499.646 48.4295 499.646C49.1855 499.646 49.7595 499.343 50.1515 498.736C50.5435 498.12 50.7395 497.243 50.7395 496.104ZM58.562 497.644C58.562 496.533 57.8387 495.978 56.392 495.978H54.026L54.404 491.694H59.29V492.702H55.468L55.23 495.236C55.7153 495.152 56.1773 495.11 56.616 495.11C57.5773 495.11 58.3333 495.325 58.884 495.754C59.4347 496.174 59.71 496.813 59.71 497.672C59.71 498.531 59.4207 499.245 58.842 499.814C58.2633 500.374 57.5167 500.654 56.602 500.654C55.6873 500.654 54.9407 500.425 54.362 499.968C53.7833 499.501 53.494 498.862 53.494 498.05H54.6C54.6 498.815 54.992 499.315 55.776 499.548C56.0187 499.613 56.2847 499.646 56.574 499.646C57.1713 499.646 57.652 499.459 58.016 499.086C58.38 498.703 58.562 498.223 58.562 497.644ZM69.8139 497.644C69.8139 496.533 69.0906 495.978 67.6439 495.978H65.2779L65.6559 491.694H70.5419V492.702H66.7199L66.4819 495.236C66.9673 495.152 67.4293 495.11 67.8679 495.11C68.8293 495.11 69.5853 495.325 70.1359 495.754C70.6866 496.174 70.9619 496.813 70.9619 497.672C70.9619 498.531 70.6726 499.245 70.0939 499.814C69.5153 500.374 68.7686 500.654 67.8539 500.654C66.9393 500.654 66.1926 500.425 65.6139 499.968C65.0353 499.501 64.7459 498.862 64.7459 498.05H65.8519C65.8519 498.815 66.2439 499.315 67.0279 499.548C67.2706 499.613 67.5366 499.646 67.8259 499.646C68.4233 499.646 68.9039 499.459 69.2679 499.086C69.6319 498.703 69.8139 498.223 69.8139 497.644ZM77.73 497.644C77.73 496.533 77.0066 495.978 75.56 495.978H73.194L73.572 491.694H78.458V492.702H74.636L74.398 495.236C74.8833 495.152 75.3453 495.11 75.784 495.11C76.7453 495.11 77.5013 495.325 78.052 495.754C78.6026 496.174 78.878 496.813 78.878 497.672C78.878 498.531 78.5886 499.245 78.01 499.814C77.4313 500.374 76.6846 500.654 75.77 500.654C74.8553 500.654 74.1086 500.425 73.53 499.968C72.9513 499.501 72.662 498.862 72.662 498.05H73.768C73.768 498.815 74.16 499.315 74.944 499.548C75.1866 499.613 75.4526 499.646 75.742 499.646C76.3393 499.646 76.82 499.459 77.184 499.086C77.548 498.703 77.73 498.223 77.73 497.644ZM85.646 497.644C85.646 496.533 84.9226 495.978 83.476 495.978H81.11L81.488 491.694H86.374V492.702H82.552L82.314 495.236C82.7993 495.152 83.2613 495.11 83.7 495.11C84.6613 495.11 85.4173 495.325 85.968 495.754C86.5186 496.174 86.794 496.813 86.794 497.672C86.794 498.531 86.5046 499.245 85.926 499.814C85.3473 500.374 84.6006 500.654 83.686 500.654C82.7713 500.654 82.0246 500.425 81.446 499.968C80.8673 499.501 80.578 498.862 80.578 498.05H81.684C81.684 498.815 82.076 499.315 82.86 499.548C83.1026 499.613 83.3686 499.646 83.658 499.646C84.2553 499.646 84.736 499.459 85.1 499.086C85.464 498.703 85.646 498.223 85.646 497.644ZM93.7339 496.048C92.5673 495.516 91.9839 494.793 91.9839 493.878C91.9839 493.178 92.2733 492.613 92.8519 492.184C93.4306 491.755 94.1959 491.54 95.1479 491.54C96.1093 491.54 96.8979 491.769 97.5139 492.226C98.1299 492.683 98.4379 493.271 98.4379 493.99C98.4379 494.475 98.2746 494.909 97.9479 495.292C97.6306 495.675 97.1593 495.913 96.5339 496.006L96.7719 496.09C97.4159 496.333 97.9106 496.622 98.2559 496.958C98.6013 497.285 98.7739 497.733 98.7739 498.302C98.7739 499.011 98.4566 499.581 97.8219 500.01C97.1966 500.439 96.3473 500.654 95.2739 500.654C94.2099 500.654 93.3466 500.416 92.6839 499.94C92.0213 499.464 91.6899 498.867 91.6899 498.148C91.6899 497.569 91.8766 497.098 92.2499 496.734C92.6326 496.37 93.1273 496.141 93.7339 496.048ZM94.7839 496.454C94.1959 496.519 93.7246 496.706 93.3699 497.014C93.0153 497.313 92.8379 497.686 92.8379 498.134C92.8379 498.582 93.0619 498.946 93.5099 499.226C93.9579 499.506 94.5413 499.646 95.2599 499.646C95.9879 499.646 96.5619 499.525 96.9819 499.282C97.4113 499.039 97.6259 498.745 97.6259 498.4C97.6259 498.055 97.5139 497.779 97.2899 497.574C97.0659 497.359 96.7579 497.182 96.3659 497.042L94.7839 496.454ZM93.1459 494.018C93.1459 494.27 93.2486 494.489 93.4539 494.676C93.6593 494.853 93.9533 495.017 94.3359 495.166L95.3579 495.558C95.9179 495.539 96.3799 495.395 96.7439 495.124C97.1079 494.844 97.2899 494.485 97.2899 494.046C97.2899 493.598 97.0986 493.239 96.7159 492.968C96.3333 492.688 95.8386 492.548 95.2319 492.548C94.6253 492.548 94.1259 492.683 93.7339 492.954C93.3419 493.215 93.1459 493.57 93.1459 494.018ZM102.347 496.048C101.181 495.516 100.597 494.793 100.597 493.878C100.597 493.178 100.887 492.613 101.465 492.184C102.044 491.755 102.809 491.54 103.761 491.54C104.723 491.54 105.511 491.769 106.127 492.226C106.743 492.683 107.051 493.271 107.051 493.99C107.051 494.475 106.888 494.909 106.561 495.292C106.244 495.675 105.773 495.913 105.147 496.006L105.385 496.09C106.029 496.333 106.524 496.622 106.869 496.958C107.215 497.285 107.387 497.733 107.387 498.302C107.387 499.011 107.07 499.581 106.435 500.01C105.81 500.439 104.961 500.654 103.887 500.654C102.823 500.654 101.96 500.416 101.297 499.94C100.635 499.464 100.303 498.867 100.303 498.148C100.303 497.569 100.49 497.098 100.863 496.734C101.246 496.37 101.741 496.141 102.347 496.048ZM103.397 496.454C102.809 496.519 102.338 496.706 101.983 497.014C101.629 497.313 101.451 497.686 101.451 498.134C101.451 498.582 101.675 498.946 102.123 499.226C102.571 499.506 103.155 499.646 103.873 499.646C104.601 499.646 105.175 499.525 105.595 499.282C106.025 499.039 106.239 498.745 106.239 498.4C106.239 498.055 106.127 497.779 105.903 497.574C105.679 497.359 105.371 497.182 104.979 497.042L103.397 496.454ZM101.759 494.018C101.759 494.27 101.862 494.489 102.067 494.676C102.273 494.853 102.567 495.017 102.949 495.166L103.971 495.558C104.531 495.539 104.993 495.395 105.357 495.124C105.721 494.844 105.903 494.485 105.903 494.046C105.903 493.598 105.712 493.239 105.329 492.968C104.947 492.688 104.452 492.548 103.845 492.548C103.239 492.548 102.739 492.683 102.347 492.954C101.955 493.215 101.759 493.57 101.759 494.018ZM114.474 491.694V492.716L110.442 500.5H108.958L113.186 492.758H108.482V491.694H114.474ZM117.537 496.048C116.37 495.516 115.787 494.793 115.787 493.878C115.787 493.178 116.076 492.613 116.655 492.184C117.233 491.755 117.999 491.54 118.951 491.54C119.912 491.54 120.701 491.769 121.317 492.226C121.933 492.683 122.241 493.271 122.241 493.99C122.241 494.475 122.077 494.909 121.751 495.292C121.433 495.675 120.962 495.913 120.337 496.006L120.575 496.09C121.219 496.333 121.713 496.622 122.059 496.958C122.404 497.285 122.577 497.733 122.577 498.302C122.577 499.011 122.259 499.581 121.625 500.01C120.999 500.439 120.15 500.654 119.077 500.654C118.013 500.654 117.149 500.416 116.487 499.94C115.824 499.464 115.493 498.867 115.493 498.148C115.493 497.569 115.679 497.098 116.053 496.734C116.435 496.37 116.93 496.141 117.537 496.048ZM118.587 496.454C117.999 496.519 117.527 496.706 117.173 497.014C116.818 497.313 116.641 497.686 116.641 498.134C116.641 498.582 116.865 498.946 117.313 499.226C117.761 499.506 118.344 499.646 119.063 499.646C119.791 499.646 120.365 499.525 120.785 499.282C121.214 499.039 121.429 498.745 121.429 498.4C121.429 498.055 121.317 497.779 121.093 497.574C120.869 497.359 120.561 497.182 120.169 497.042L118.587 496.454ZM116.949 494.018C116.949 494.27 117.051 494.489 117.257 494.676C117.462 494.853 117.756 495.017 118.139 495.166L119.161 495.558C119.721 495.539 120.183 495.395 120.547 495.124C120.911 494.844 121.093 494.485 121.093 494.046C121.093 493.598 120.901 493.239 120.519 492.968C120.136 492.688 119.641 492.548 119.035 492.548C118.428 492.548 117.929 492.683 117.537 492.954C117.145 493.215 116.949 493.57 116.949 494.018Z" fill="#181827"/>
<path d="M384 550H30C24.4772 550 20 554.477 20 560V584C20 589.523 24.4772 594 30 594H384C389.523 594 394 589.523 394 584V560C394 554.477 389.523 550 384 550Z" fill="#DFBC60"/>
<path d="M186.3 566.678H193.266V567.902H187.722V571.7H192.942V572.906H187.722V576.758H193.266V578H186.3V566.678ZM197.793 571.052C198.357 569.804 199.323 569.18 200.691 569.18C201.711 569.18 202.503 569.516 203.067 570.188C203.643 570.86 203.931 571.778 203.931 572.942V578H202.527V572.942C202.527 572.114 202.329 571.49 201.933 571.07C201.549 570.65 200.997 570.44 200.277 570.44C199.557 570.44 198.975 570.734 198.531 571.322C198.087 571.91 197.853 572.726 197.829 573.77V578H196.407V569.396H197.631L197.793 571.052ZM211.771 577.748C210.739 578.228 209.797 578.33 208.945 578.054C208.333 577.862 207.901 577.46 207.649 576.848C207.517 576.548 207.451 576.188 207.451 575.768V570.476H206.065V569.396H207.451V567.002H208.855V569.396H211.555V570.476H208.855V575.75C208.855 576.626 209.263 577.064 210.079 577.064C210.523 577.064 211.021 576.956 211.573 576.74L211.771 577.748ZM217.009 577.046C218.197 577.046 218.875 576.524 219.043 575.48H220.501C220.369 576.344 219.985 577.016 219.349 577.496C218.725 577.964 217.945 578.198 217.009 578.198C215.857 578.198 214.921 577.79 214.201 576.974C213.481 576.146 213.121 575.048 213.121 573.68C213.121 572.312 213.481 571.22 214.201 570.404C214.933 569.588 215.899 569.18 217.099 569.18C218.311 569.18 219.211 569.648 219.799 570.584C220.399 571.52 220.609 572.66 220.429 574.004H214.543C214.543 574.892 214.759 575.624 215.191 576.2C215.623 576.764 216.229 577.046 217.009 577.046ZM218.053 570.53C217.777 570.386 217.441 570.314 217.045 570.314C216.313 570.314 215.731 570.566 215.299 571.07C214.879 571.562 214.633 572.18 214.561 572.924H219.151C219.151 571.724 218.785 570.926 218.053 570.53ZM226.812 570.602C225.456 570.602 224.754 571.67 224.706 573.806V578H223.284V569.378H224.706V571.034C225.138 569.834 225.9 569.234 226.992 569.234C227.34 569.234 227.67 569.288 227.982 569.396L227.91 570.782C227.55 570.662 227.184 570.602 226.812 570.602Z" fill="#181827"/>
</svg>
