<svg width="31" height="8" viewBox="0 0 31 8" fill="none" xmlns="http://www.w3.org/2000/svg">
<path d="M4.82422 4.5918H1.49902V7.49219H5.32227V8H0.898438V0.890625H5.29785V1.40332H1.49902V4.08398H4.82422V4.5918ZM10.4297 6.00781H7.20215L6.46973 8H5.83984L8.53027 0.890625H9.10156L11.792 8H11.167L10.4297 6.00781ZM7.3877 5.49512H10.2393L8.81348 1.62305L7.3877 5.49512ZM15.498 5.04102H13.4326V8H12.8271V0.890625H15.1367C15.8952 0.890625 16.4876 1.07454 16.9141 1.44238C17.3405 1.81022 17.5537 2.32454 17.5537 2.98535C17.5537 3.44108 17.4202 3.8431 17.1533 4.19141C16.8864 4.53971 16.5283 4.7806 16.0791 4.91406L17.8564 7.93652V8H17.2168L15.498 5.04102ZM13.4326 4.52832H15.2734C15.778 4.52832 16.1833 4.38509 16.4893 4.09863C16.7952 3.81217 16.9482 3.44108 16.9482 2.98535C16.9482 2.48405 16.7887 2.09505 16.4697 1.81836C16.1507 1.54167 15.7031 1.40332 15.127 1.40332H13.4326V4.52832ZM23.623 1.40332H21.1865V8H20.5859V1.40332H18.1543V0.890625H23.623V1.40332ZM30.0439 8H29.4385V4.5918H25.376V8H24.7754V0.890625H25.376V4.08398H29.4385V0.890625H30.0439V8Z" fill="white"/>
</svg>
