<svg width="20" height="8" viewBox="0 0 20 8" fill="none" xmlns="http://www.w3.org/2000/svg">
<path d="M4.81445 4.67969H1.49902V8H0.898438V0.890625H5.30273V1.40332H1.49902V4.16699H4.81445V4.67969ZM7.25586 8H6.65527V0.890625H7.25586V8ZM11.8457 5.04102H9.78027V8H9.1748V0.890625H11.4844C12.2428 0.890625 12.8353 1.07454 13.2617 1.44238C13.6882 1.81022 13.9014 2.32454 13.9014 2.98535C13.9014 3.44108 13.7679 3.8431 13.501 4.19141C13.234 4.53971 12.876 4.7806 12.4268 4.91406L14.2041 7.93652V8H13.5645L11.8457 5.04102ZM9.78027 4.52832H11.6211C12.1257 4.52832 12.5309 4.38509 12.8369 4.09863C13.1429 3.81217 13.2959 3.44108 13.2959 2.98535C13.2959 2.48405 13.1364 2.09505 12.8174 1.81836C12.4984 1.54167 12.0508 1.40332 11.4746 1.40332H9.78027V4.52832ZM19.4629 4.5918H16.1377V7.49219H19.9609V8H15.5371V0.890625H19.9365V1.40332H16.1377V4.08398H19.4629V4.5918Z" fill="white"/>
</svg>
