<svg width="616" height="77" viewBox="0 0 616 77" fill="none" xmlns="http://www.w3.org/2000/svg">
<path d="M0 0H616V77H0V0Z" fill="white"/>
<path d="M40.3203 23.5625V42.8984C40.3073 45.5807 39.4609 47.7747 37.7812 49.4805C36.1146 51.1862 33.849 52.1432 30.9844 52.3516L29.9883 52.3906C26.8763 52.3906 24.3958 51.5508 22.5469 49.8711C20.6979 48.1914 19.7604 45.8802 19.7344 42.9375V23.5625H23.4453V42.8203C23.4453 44.8776 24.0117 46.4792 25.1445 47.625C26.2773 48.7578 27.8919 49.3242 29.9883 49.3242C32.1107 49.3242 33.7318 48.7578 34.8516 47.625C35.9844 46.4922 36.5508 44.8971 36.5508 42.8398V23.5625H40.3203ZM57.9766 46.3945C57.9766 45.418 57.6055 44.6628 56.8633 44.1289C56.1341 43.582 54.8516 43.1133 53.0156 42.7227C51.1927 42.332 49.7409 41.8633 48.6602 41.3164C47.5924 40.7695 46.7982 40.1185 46.2773 39.3633C45.7695 38.6081 45.5156 37.7096 45.5156 36.668C45.5156 34.9362 46.2448 33.4714 47.7031 32.2734C49.1745 31.0755 51.0495 30.4766 53.3281 30.4766C55.724 30.4766 57.6641 31.0951 59.1484 32.332C60.6458 33.569 61.3945 35.151 61.3945 37.0781H57.7617C57.7617 36.0885 57.3385 35.2357 56.4922 34.5195C55.6589 33.8034 54.6042 33.4453 53.3281 33.4453C52.013 33.4453 50.9844 33.7318 50.2422 34.3047C49.5 34.8776 49.1289 35.6263 49.1289 36.5508C49.1289 37.4232 49.474 38.0807 50.1641 38.5234C50.8542 38.9661 52.0977 39.3893 53.8945 39.793C55.7044 40.1966 57.1693 40.6784 58.2891 41.2383C59.4089 41.7982 60.2357 42.4753 60.7695 43.2695C61.3164 44.0508 61.5898 45.0078 61.5898 46.1406C61.5898 48.0286 60.8346 49.5456 59.3242 50.6914C57.8138 51.8242 55.8542 52.3906 53.4453 52.3906C51.7526 52.3906 50.2552 52.0911 48.9531 51.4922C47.651 50.8932 46.6289 50.0599 45.8867 48.9922C45.1576 47.9115 44.793 46.7461 44.793 45.4961H48.4062C48.4714 46.707 48.9531 47.6706 49.8516 48.3867C50.763 49.0898 51.9609 49.4414 53.4453 49.4414C54.8125 49.4414 55.9062 49.168 56.7266 48.6211C57.5599 48.0612 57.9766 47.319 57.9766 46.3945ZM75.0664 52.3906C72.2018 52.3906 69.8711 51.4531 68.0742 49.5781C66.2773 47.6901 65.3789 45.1706 65.3789 42.0195V41.3555C65.3789 39.2591 65.776 37.3906 66.5703 35.75C67.3776 34.0964 68.4974 32.8073 69.9297 31.8828C71.375 30.9453 72.9375 30.4766 74.6172 30.4766C77.3646 30.4766 79.5 31.3815 81.0234 33.1914C82.5469 35.0013 83.3086 37.5924 83.3086 40.9648V42.4688H68.9922C69.0443 44.5521 69.6497 46.2383 70.8086 47.5273C71.9805 48.8034 73.4648 49.4414 75.2617 49.4414C76.5378 49.4414 77.6185 49.181 78.5039 48.6602C79.3893 48.1393 80.1641 47.4492 80.8281 46.5898L83.0352 48.3086C81.2643 51.0299 78.6081 52.3906 75.0664 52.3906ZM74.6172 33.4453C73.1589 33.4453 71.9349 33.9792 70.9453 35.0469C69.9557 36.1016 69.3438 37.5859 69.1094 39.5H79.6953V39.2266C79.5911 37.3906 79.0964 35.9714 78.2109 34.9688C77.3255 33.9531 76.1276 33.4453 74.6172 33.4453ZM97.7227 34.1094C97.1758 34.0182 96.5833 33.9727 95.9453 33.9727C93.5755 33.9727 91.9674 34.9818 91.1211 37V52H87.5078V30.8672H91.0234L91.082 33.3086C92.2669 31.4206 93.9466 30.4766 96.1211 30.4766C96.8242 30.4766 97.3581 30.5677 97.7227 30.75V34.1094ZM127.234 39.4414H115.301V52H111.551V23.5625H129.168V26.6484H115.301V36.375H127.234V39.4414ZM137.02 52H133.406V22H137.02V52ZM141.863 41.2383C141.863 39.168 142.267 37.306 143.074 35.6523C143.895 33.9987 145.027 32.7227 146.473 31.8242C147.931 30.9258 149.591 30.4766 151.453 30.4766C154.331 30.4766 156.655 31.4727 158.426 33.4648C160.21 35.457 161.102 38.1068 161.102 41.4141V41.668C161.102 43.7253 160.704 45.5742 159.91 47.2148C159.129 48.8424 158.003 50.112 156.531 51.0234C155.073 51.9349 153.393 52.3906 151.492 52.3906C148.628 52.3906 146.303 51.3945 144.52 49.4023C142.749 47.4102 141.863 44.7734 141.863 41.4922V41.2383ZM145.496 41.668C145.496 44.0117 146.036 45.8932 147.117 47.3125C148.211 48.7318 149.669 49.4414 151.492 49.4414C153.328 49.4414 154.786 48.7253 155.867 47.293C156.948 45.8477 157.488 43.8294 157.488 41.2383C157.488 38.9206 156.935 37.0456 155.828 35.6133C154.734 34.168 153.276 33.4453 151.453 33.4453C149.669 33.4453 148.23 34.1549 147.137 35.5742C146.043 36.9935 145.496 39.0247 145.496 41.668ZM184.344 47.0195L188.406 30.8672H192.02L185.867 52H182.938L177.801 35.9844L172.801 52H169.871L163.738 30.8672H167.332L171.492 46.6875L176.414 30.8672H179.324L184.344 47.0195ZM223.895 52H205.262V49.4023L215.105 38.4648C216.564 36.8112 217.566 35.4701 218.113 34.4414C218.673 33.3997 218.953 32.3255 218.953 31.2188C218.953 29.7344 218.504 28.5169 217.605 27.5664C216.707 26.6159 215.509 26.1406 214.012 26.1406C212.215 26.1406 210.815 26.6549 209.812 27.6836C208.823 28.6992 208.328 30.1185 208.328 31.9414H204.715C204.715 29.3242 205.555 27.2083 207.234 25.5938C208.927 23.9792 211.186 23.1719 214.012 23.1719C216.655 23.1719 218.745 23.8685 220.281 25.2617C221.818 26.6419 222.586 28.4844 222.586 30.7891C222.586 33.5885 220.802 36.9219 217.234 40.7891L209.617 49.0508H223.895V52ZM227.977 50.1055C227.977 49.4805 228.159 48.9596 228.523 48.543C228.901 48.1263 229.461 47.918 230.203 47.918C230.945 47.918 231.505 48.1263 231.883 48.543C232.273 48.9596 232.469 49.4805 232.469 50.1055C232.469 50.7044 232.273 51.2057 231.883 51.6094C231.505 52.013 230.945 52.2148 230.203 52.2148C229.461 52.2148 228.901 52.013 228.523 51.6094C228.159 51.2057 227.977 50.7044 227.977 50.1055ZM227.996 32.8594C227.996 32.2344 228.178 31.7135 228.543 31.2969C228.921 30.8802 229.48 30.6719 230.223 30.6719C230.965 30.6719 231.525 30.8802 231.902 31.2969C232.293 31.7135 232.488 32.2344 232.488 32.8594C232.488 33.4583 232.293 33.9596 231.902 34.3633C231.525 34.7669 230.965 34.9688 230.223 34.9688C229.48 34.9688 228.921 34.7669 228.543 34.3633C228.178 33.9596 227.996 33.4583 227.996 32.8594ZM268.289 23.5625V42.8984C268.276 45.5807 267.43 47.7747 265.75 49.4805C264.083 51.1862 261.818 52.1432 258.953 52.3516L257.957 52.3906C254.845 52.3906 252.365 51.5508 250.516 49.8711C248.667 48.1914 247.729 45.8802 247.703 42.9375V23.5625H251.414V42.8203C251.414 44.8776 251.98 46.4792 253.113 47.625C254.246 48.7578 255.861 49.3242 257.957 49.3242C260.079 49.3242 261.701 48.7578 262.82 47.625C263.953 46.4922 264.52 44.8971 264.52 42.8398V23.5625H268.289ZM285.945 46.3945C285.945 45.418 285.574 44.6628 284.832 44.1289C284.103 43.582 282.82 43.1133 280.984 42.7227C279.161 42.332 277.71 41.8633 276.629 41.3164C275.561 40.7695 274.767 40.1185 274.246 39.3633C273.738 38.6081 273.484 37.7096 273.484 36.668C273.484 34.9362 274.214 33.4714 275.672 32.2734C277.143 31.0755 279.018 30.4766 281.297 30.4766C283.693 30.4766 285.633 31.0951 287.117 32.332C288.615 33.569 289.363 35.151 289.363 37.0781H285.73C285.73 36.0885 285.307 35.2357 284.461 34.5195C283.628 33.8034 282.573 33.4453 281.297 33.4453C279.982 33.4453 278.953 33.7318 278.211 34.3047C277.469 34.8776 277.098 35.6263 277.098 36.5508C277.098 37.4232 277.443 38.0807 278.133 38.5234C278.823 38.9661 280.066 39.3893 281.863 39.793C283.673 40.1966 285.138 40.6784 286.258 41.2383C287.378 41.7982 288.204 42.4753 288.738 43.2695C289.285 44.0508 289.559 45.0078 289.559 46.1406C289.559 48.0286 288.803 49.5456 287.293 50.6914C285.783 51.8242 283.823 52.3906 281.414 52.3906C279.721 52.3906 278.224 52.0911 276.922 51.4922C275.62 50.8932 274.598 50.0599 273.855 48.9922C273.126 47.9115 272.762 46.7461 272.762 45.4961H276.375C276.44 46.707 276.922 47.6706 277.82 48.3867C278.732 49.0898 279.93 49.4414 281.414 49.4414C282.781 49.4414 283.875 49.168 284.695 48.6211C285.529 48.0612 285.945 47.319 285.945 46.3945ZM303.035 52.3906C300.171 52.3906 297.84 51.4531 296.043 49.5781C294.246 47.6901 293.348 45.1706 293.348 42.0195V41.3555C293.348 39.2591 293.745 37.3906 294.539 35.75C295.346 34.0964 296.466 32.8073 297.898 31.8828C299.344 30.9453 300.906 30.4766 302.586 30.4766C305.333 30.4766 307.469 31.3815 308.992 33.1914C310.516 35.0013 311.277 37.5924 311.277 40.9648V42.4688H296.961C297.013 44.5521 297.618 46.2383 298.777 47.5273C299.949 48.8034 301.434 49.4414 303.23 49.4414C304.507 49.4414 305.587 49.181 306.473 48.6602C307.358 48.1393 308.133 47.4492 308.797 46.5898L311.004 48.3086C309.233 51.0299 306.577 52.3906 303.035 52.3906ZM302.586 33.4453C301.128 33.4453 299.904 33.9792 298.914 35.0469C297.924 36.1016 297.312 37.5859 297.078 39.5H307.664V39.2266C307.56 37.3906 307.065 35.9714 306.18 34.9688C305.294 33.9531 304.096 33.4453 302.586 33.4453ZM325.691 34.1094C325.145 34.0182 324.552 33.9727 323.914 33.9727C321.544 33.9727 319.936 34.9818 319.09 37V52H315.477V30.8672H318.992L319.051 33.3086C320.236 31.4206 321.915 30.4766 324.09 30.4766C324.793 30.4766 325.327 30.5677 325.691 30.75V34.1094ZM355.203 39.4414H343.27V52H339.52V23.5625H357.137V26.6484H343.27V36.375H355.203V39.4414ZM364.988 52H361.375V30.8672H364.988V52ZM361.082 25.2617C361.082 24.6758 361.258 24.181 361.609 23.7773C361.974 23.3737 362.508 23.1719 363.211 23.1719C363.914 23.1719 364.448 23.3737 364.812 23.7773C365.177 24.181 365.359 24.6758 365.359 25.2617C365.359 25.8477 365.177 26.3359 364.812 26.7266C364.448 27.1172 363.914 27.3125 363.211 27.3125C362.508 27.3125 361.974 27.1172 361.609 26.7266C361.258 26.3359 361.082 25.8477 361.082 25.2617ZM374.207 30.8672L374.324 33.5234C375.939 31.4922 378.048 30.4766 380.652 30.4766C385.118 30.4766 387.371 32.9961 387.41 38.0352V52H383.797V38.0156C383.784 36.4922 383.432 35.3659 382.742 34.6367C382.065 33.9076 381.004 33.543 379.559 33.543C378.387 33.543 377.358 33.8555 376.473 34.4805C375.587 35.1055 374.897 35.9258 374.402 36.9414V52H370.789V30.8672H374.207ZM391.98 41.2578C391.98 38.0156 392.749 35.4115 394.285 33.4453C395.822 31.4661 397.833 30.4766 400.32 30.4766C402.794 30.4766 404.754 31.3229 406.199 33.0156V22H409.812V52H406.492L406.316 49.7344C404.871 51.5052 402.859 52.3906 400.281 52.3906C397.833 52.3906 395.835 51.388 394.285 49.3828C392.749 47.3776 391.98 44.7604 391.98 41.5312V41.2578ZM395.594 41.668C395.594 44.0638 396.089 45.9388 397.078 47.293C398.068 48.6471 399.435 49.3242 401.18 49.3242C403.471 49.3242 405.145 48.2956 406.199 46.2383V36.5312C405.118 34.5391 403.458 33.543 401.219 33.543C399.448 33.543 398.068 34.2266 397.078 35.5938C396.089 36.9609 395.594 38.9857 395.594 41.668ZM427.742 46.3945C427.742 45.418 427.371 44.6628 426.629 44.1289C425.9 43.582 424.617 43.1133 422.781 42.7227C420.958 42.332 419.507 41.8633 418.426 41.3164C417.358 40.7695 416.564 40.1185 416.043 39.3633C415.535 38.6081 415.281 37.7096 415.281 36.668C415.281 34.9362 416.01 33.4714 417.469 32.2734C418.94 31.0755 420.815 30.4766 423.094 30.4766C425.49 30.4766 427.43 31.0951 428.914 32.332C430.411 33.569 431.16 35.151 431.16 37.0781H427.527C427.527 36.0885 427.104 35.2357 426.258 34.5195C425.424 33.8034 424.37 33.4453 423.094 33.4453C421.779 33.4453 420.75 33.7318 420.008 34.3047C419.266 34.8776 418.895 35.6263 418.895 36.5508C418.895 37.4232 419.24 38.0807 419.93 38.5234C420.62 38.9661 421.863 39.3893 423.66 39.793C425.47 40.1966 426.935 40.6784 428.055 41.2383C429.174 41.7982 430.001 42.4753 430.535 43.2695C431.082 44.0508 431.355 45.0078 431.355 46.1406C431.355 48.0286 430.6 49.5456 429.09 50.6914C427.579 51.8242 425.62 52.3906 423.211 52.3906C421.518 52.3906 420.021 52.0911 418.719 51.4922C417.417 50.8932 416.395 50.0599 415.652 48.9922C414.923 47.9115 414.559 46.7461 414.559 45.4961H418.172C418.237 46.707 418.719 47.6706 419.617 48.3867C420.529 49.0898 421.727 49.4414 423.211 49.4414C424.578 49.4414 425.672 49.168 426.492 48.6211C427.326 48.0612 427.742 47.319 427.742 46.3945ZM451.395 23.5625L460.691 46.7656L469.988 23.5625H474.852V52H471.102V40.9258L471.453 28.9727L462.117 52H459.246L449.93 29.0312L450.301 40.9258V52H446.551V23.5625H451.395ZM493.953 52C493.745 51.5833 493.576 50.8411 493.445 49.7734C491.766 51.5182 489.76 52.3906 487.43 52.3906C485.346 52.3906 483.634 51.8047 482.293 50.6328C480.965 49.4479 480.301 47.9505 480.301 46.1406C480.301 43.9401 481.134 42.2344 482.801 41.0234C484.48 39.7995 486.837 39.1875 489.871 39.1875H493.387V37.5273C493.387 36.2643 493.009 35.2617 492.254 34.5195C491.499 33.7643 490.385 33.3867 488.914 33.3867C487.625 33.3867 486.544 33.7122 485.672 34.3633C484.799 35.0143 484.363 35.8021 484.363 36.7266H480.73C480.73 35.6719 481.102 34.6562 481.844 33.6797C482.599 32.6901 483.615 31.9089 484.891 31.3359C486.18 30.763 487.592 30.4766 489.129 30.4766C491.564 30.4766 493.471 31.0885 494.852 32.3125C496.232 33.5234 496.948 35.1966 497 37.332V47.0586C497 48.9987 497.247 50.5417 497.742 51.6875V52H493.953ZM487.957 49.2461C489.09 49.2461 490.164 48.9531 491.18 48.3672C492.195 47.7812 492.931 47.0195 493.387 46.082V41.7461H490.555C486.128 41.7461 483.914 43.0417 483.914 45.6328C483.914 46.7656 484.292 47.651 485.047 48.2891C485.802 48.9271 486.772 49.2461 487.957 49.2461ZM507.566 25.75V30.8672H511.512V33.6602H507.566V46.7656C507.566 47.612 507.742 48.25 508.094 48.6797C508.445 49.0964 509.044 49.3047 509.891 49.3047C510.307 49.3047 510.88 49.2266 511.609 49.0703V52C510.659 52.2604 509.734 52.3906 508.836 52.3906C507.221 52.3906 506.004 51.9023 505.184 50.9258C504.363 49.9492 503.953 48.5625 503.953 46.7656V33.6602H500.105V30.8672H503.953V25.75H507.566ZM524.227 49.4414C525.516 49.4414 526.642 49.0508 527.605 48.2695C528.569 47.4883 529.103 46.5117 529.207 45.3398H532.625C532.56 46.5508 532.143 47.7031 531.375 48.7969C530.607 49.8906 529.578 50.763 528.289 51.4141C527.013 52.0651 525.659 52.3906 524.227 52.3906C521.349 52.3906 519.057 51.4336 517.352 49.5195C515.659 47.5924 514.812 44.9622 514.812 41.6289V41.0234C514.812 38.9661 515.19 37.1367 515.945 35.5352C516.701 33.9336 517.781 32.6901 519.188 31.8047C520.607 30.9193 522.28 30.4766 524.207 30.4766C526.577 30.4766 528.543 31.1862 530.105 32.6055C531.681 34.0247 532.521 35.8672 532.625 38.1328H529.207C529.103 36.7656 528.582 35.6458 527.645 34.7734C526.72 33.888 525.574 33.4453 524.207 33.4453C522.371 33.4453 520.945 34.1094 519.93 35.4375C518.927 36.7526 518.426 38.6602 518.426 41.1602V41.8438C518.426 44.2786 518.927 46.1536 519.93 47.4688C520.932 48.7839 522.365 49.4414 524.227 49.4414ZM540.301 33.4258C541.902 31.4596 543.986 30.4766 546.551 30.4766C551.017 30.4766 553.27 32.9961 553.309 38.0352V52H549.695V38.0156C549.682 36.4922 549.331 35.3659 548.641 34.6367C547.964 33.9076 546.902 33.543 545.457 33.543C544.285 33.543 543.257 33.8555 542.371 34.4805C541.486 35.1055 540.796 35.9258 540.301 36.9414V52H536.688V22H540.301V33.4258ZM567.488 52.3906C564.624 52.3906 562.293 51.4531 560.496 49.5781C558.699 47.6901 557.801 45.1706 557.801 42.0195V41.3555C557.801 39.2591 558.198 37.3906 558.992 35.75C559.799 34.0964 560.919 32.8073 562.352 31.8828C563.797 30.9453 565.359 30.4766 567.039 30.4766C569.786 30.4766 571.922 31.3815 573.445 33.1914C574.969 35.0013 575.73 37.5924 575.73 40.9648V42.4688H561.414C561.466 44.5521 562.072 46.2383 563.23 47.5273C564.402 48.8034 565.887 49.4414 567.684 49.4414C568.96 49.4414 570.04 49.181 570.926 48.6602C571.811 48.1393 572.586 47.4492 573.25 46.5898L575.457 48.3086C573.686 51.0299 571.03 52.3906 567.488 52.3906ZM567.039 33.4453C565.581 33.4453 564.357 33.9792 563.367 35.0469C562.378 36.1016 561.766 37.5859 561.531 39.5H572.117V39.2266C572.013 37.3906 571.518 35.9714 570.633 34.9688C569.747 33.9531 568.549 33.4453 567.039 33.4453ZM592.234 46.3945C592.234 45.418 591.863 44.6628 591.121 44.1289C590.392 43.582 589.109 43.1133 587.273 42.7227C585.451 42.332 583.999 41.8633 582.918 41.3164C581.85 40.7695 581.056 40.1185 580.535 39.3633C580.027 38.6081 579.773 37.7096 579.773 36.668C579.773 34.9362 580.503 33.4714 581.961 32.2734C583.432 31.0755 585.307 30.4766 587.586 30.4766C589.982 30.4766 591.922 31.0951 593.406 32.332C594.904 33.569 595.652 35.151 595.652 37.0781H592.02C592.02 36.0885 591.596 35.2357 590.75 34.5195C589.917 33.8034 588.862 33.4453 587.586 33.4453C586.271 33.4453 585.242 33.7318 584.5 34.3047C583.758 34.8776 583.387 35.6263 583.387 36.5508C583.387 37.4232 583.732 38.0807 584.422 38.5234C585.112 38.9661 586.355 39.3893 588.152 39.793C589.962 40.1966 591.427 40.6784 592.547 41.2383C593.667 41.7982 594.493 42.4753 595.027 43.2695C595.574 44.0508 595.848 45.0078 595.848 46.1406C595.848 48.0286 595.092 49.5456 593.582 50.6914C592.072 51.8242 590.112 52.3906 587.703 52.3906C586.01 52.3906 584.513 52.0911 583.211 51.4922C581.909 50.8932 580.887 50.0599 580.145 48.9922C579.415 47.9115 579.051 46.7461 579.051 45.4961H582.664C582.729 46.707 583.211 47.6706 584.109 48.3867C585.021 49.0898 586.219 49.4414 587.703 49.4414C589.07 49.4414 590.164 49.168 590.984 48.6211C591.818 48.0612 592.234 47.319 592.234 46.3945Z" fill="black"/>
</svg>
