<svg width="481" height="77" viewBox="0 0 481 77" fill="none" xmlns="http://www.w3.org/2000/svg">
<path d="M0 0H481V77H0V0Z" fill="white"/>
<path d="M38.3203 23.5625V42.8984C38.3073 45.5807 37.4609 47.7747 35.7812 49.4805C34.1146 51.1862 31.849 52.1432 28.9844 52.3516L27.9883 52.3906C24.8763 52.3906 22.3958 51.5508 20.5469 49.8711C18.6979 48.1914 17.7604 45.8802 17.7344 42.9375V23.5625H21.4453V42.8203C21.4453 44.8776 22.0117 46.4792 23.1445 47.625C24.2773 48.7578 25.8919 49.3242 27.9883 49.3242C30.1107 49.3242 31.7318 48.7578 32.8516 47.625C33.9844 46.4922 34.5508 44.8971 34.5508 42.8398V23.5625H38.3203ZM55.9766 46.3945C55.9766 45.418 55.6055 44.6628 54.8633 44.1289C54.1341 43.582 52.8516 43.1133 51.0156 42.7227C49.1927 42.332 47.7409 41.8633 46.6602 41.3164C45.5924 40.7695 44.7982 40.1185 44.2773 39.3633C43.7695 38.6081 43.5156 37.7096 43.5156 36.668C43.5156 34.9362 44.2448 33.4714 45.7031 32.2734C47.1745 31.0755 49.0495 30.4766 51.3281 30.4766C53.724 30.4766 55.6641 31.0951 57.1484 32.332C58.6458 33.569 59.3945 35.151 59.3945 37.0781H55.7617C55.7617 36.0885 55.3385 35.2357 54.4922 34.5195C53.6589 33.8034 52.6042 33.4453 51.3281 33.4453C50.013 33.4453 48.9844 33.7318 48.2422 34.3047C47.5 34.8776 47.1289 35.6263 47.1289 36.5508C47.1289 37.4232 47.474 38.0807 48.1641 38.5234C48.8542 38.9661 50.0977 39.3893 51.8945 39.793C53.7044 40.1966 55.1693 40.6784 56.2891 41.2383C57.4089 41.7982 58.2357 42.4753 58.7695 43.2695C59.3164 44.0508 59.5898 45.0078 59.5898 46.1406C59.5898 48.0286 58.8346 49.5456 57.3242 50.6914C55.8138 51.8242 53.8542 52.3906 51.4453 52.3906C49.7526 52.3906 48.2552 52.0911 46.9531 51.4922C45.651 50.8932 44.6289 50.0599 43.8867 48.9922C43.1576 47.9115 42.793 46.7461 42.793 45.4961H46.4062C46.4714 46.707 46.9531 47.6706 47.8516 48.3867C48.763 49.0898 49.9609 49.4414 51.4453 49.4414C52.8125 49.4414 53.9062 49.168 54.7266 48.6211C55.5599 48.0612 55.9766 47.319 55.9766 46.3945ZM73.0664 52.3906C70.2018 52.3906 67.8711 51.4531 66.0742 49.5781C64.2773 47.6901 63.3789 45.1706 63.3789 42.0195V41.3555C63.3789 39.2591 63.776 37.3906 64.5703 35.75C65.3776 34.0964 66.4974 32.8073 67.9297 31.8828C69.375 30.9453 70.9375 30.4766 72.6172 30.4766C75.3646 30.4766 77.5 31.3815 79.0234 33.1914C80.5469 35.0013 81.3086 37.5924 81.3086 40.9648V42.4688H66.9922C67.0443 44.5521 67.6497 46.2383 68.8086 47.5273C69.9805 48.8034 71.4648 49.4414 73.2617 49.4414C74.5378 49.4414 75.6185 49.181 76.5039 48.6602C77.3893 48.1393 78.1641 47.4492 78.8281 46.5898L81.0352 48.3086C79.2643 51.0299 76.6081 52.3906 73.0664 52.3906ZM72.6172 33.4453C71.1589 33.4453 69.9349 33.9792 68.9453 35.0469C67.9557 36.1016 67.3438 37.5859 67.1094 39.5H77.6953V39.2266C77.5911 37.3906 77.0964 35.9714 76.2109 34.9688C75.3255 33.9531 74.1276 33.4453 72.6172 33.4453ZM95.7227 34.1094C95.1758 34.0182 94.5833 33.9727 93.9453 33.9727C91.5755 33.9727 89.9674 34.9818 89.1211 37V52H85.5078V30.8672H89.0234L89.082 33.3086C90.2669 31.4206 91.9466 30.4766 94.1211 30.4766C94.8242 30.4766 95.3581 30.5677 95.7227 30.75V34.1094ZM125.234 39.4414H113.301V52H109.551V23.5625H127.168V26.6484H113.301V36.375H125.234V39.4414ZM135.02 52H131.406V22H135.02V52ZM139.863 41.2383C139.863 39.168 140.267 37.306 141.074 35.6523C141.895 33.9987 143.027 32.7227 144.473 31.8242C145.931 30.9258 147.591 30.4766 149.453 30.4766C152.331 30.4766 154.655 31.4727 156.426 33.4648C158.21 35.457 159.102 38.1068 159.102 41.4141V41.668C159.102 43.7253 158.704 45.5742 157.91 47.2148C157.129 48.8424 156.003 50.112 154.531 51.0234C153.073 51.9349 151.393 52.3906 149.492 52.3906C146.628 52.3906 144.303 51.3945 142.52 49.4023C140.749 47.4102 139.863 44.7734 139.863 41.4922V41.2383ZM143.496 41.668C143.496 44.0117 144.036 45.8932 145.117 47.3125C146.211 48.7318 147.669 49.4414 149.492 49.4414C151.328 49.4414 152.786 48.7253 153.867 47.293C154.948 45.8477 155.488 43.8294 155.488 41.2383C155.488 38.9206 154.935 37.0456 153.828 35.6133C152.734 34.168 151.276 33.4453 149.453 33.4453C147.669 33.4453 146.23 34.1549 145.137 35.5742C144.043 36.9935 143.496 39.0247 143.496 41.668ZM182.344 47.0195L186.406 30.8672H190.02L183.867 52H180.938L175.801 35.9844L170.801 52H167.871L161.738 30.8672H165.332L169.492 46.6875L174.414 30.8672H177.324L182.344 47.0195ZM215.137 52H211.504V27.918L204.219 30.5938V27.3125L214.57 23.4258H215.137V52ZM225.977 50.1055C225.977 49.4805 226.159 48.9596 226.523 48.543C226.901 48.1263 227.461 47.918 228.203 47.918C228.945 47.918 229.505 48.1263 229.883 48.543C230.273 48.9596 230.469 49.4805 230.469 50.1055C230.469 50.7044 230.273 51.2057 229.883 51.6094C229.505 52.013 228.945 52.2148 228.203 52.2148C227.461 52.2148 226.901 52.013 226.523 51.6094C226.159 51.2057 225.977 50.7044 225.977 50.1055ZM225.996 32.8594C225.996 32.2344 226.178 31.7135 226.543 31.2969C226.921 30.8802 227.48 30.6719 228.223 30.6719C228.965 30.6719 229.525 30.8802 229.902 31.2969C230.293 31.7135 230.488 32.2344 230.488 32.8594C230.488 33.4583 230.293 33.9596 229.902 34.3633C229.525 34.7669 228.965 34.9688 228.223 34.9688C227.48 34.9688 226.921 34.7669 226.543 34.3633C226.178 33.9596 225.996 33.4583 225.996 32.8594ZM266.289 23.5625V42.8984C266.276 45.5807 265.43 47.7747 263.75 49.4805C262.083 51.1862 259.818 52.1432 256.953 52.3516L255.957 52.3906C252.845 52.3906 250.365 51.5508 248.516 49.8711C246.667 48.1914 245.729 45.8802 245.703 42.9375V23.5625H249.414V42.8203C249.414 44.8776 249.98 46.4792 251.113 47.625C252.246 48.7578 253.861 49.3242 255.957 49.3242C258.079 49.3242 259.701 48.7578 260.82 47.625C261.953 46.4922 262.52 44.8971 262.52 42.8398V23.5625H266.289ZM283.945 46.3945C283.945 45.418 283.574 44.6628 282.832 44.1289C282.103 43.582 280.82 43.1133 278.984 42.7227C277.161 42.332 275.71 41.8633 274.629 41.3164C273.561 40.7695 272.767 40.1185 272.246 39.3633C271.738 38.6081 271.484 37.7096 271.484 36.668C271.484 34.9362 272.214 33.4714 273.672 32.2734C275.143 31.0755 277.018 30.4766 279.297 30.4766C281.693 30.4766 283.633 31.0951 285.117 32.332C286.615 33.569 287.363 35.151 287.363 37.0781H283.73C283.73 36.0885 283.307 35.2357 282.461 34.5195C281.628 33.8034 280.573 33.4453 279.297 33.4453C277.982 33.4453 276.953 33.7318 276.211 34.3047C275.469 34.8776 275.098 35.6263 275.098 36.5508C275.098 37.4232 275.443 38.0807 276.133 38.5234C276.823 38.9661 278.066 39.3893 279.863 39.793C281.673 40.1966 283.138 40.6784 284.258 41.2383C285.378 41.7982 286.204 42.4753 286.738 43.2695C287.285 44.0508 287.559 45.0078 287.559 46.1406C287.559 48.0286 286.803 49.5456 285.293 50.6914C283.783 51.8242 281.823 52.3906 279.414 52.3906C277.721 52.3906 276.224 52.0911 274.922 51.4922C273.62 50.8932 272.598 50.0599 271.855 48.9922C271.126 47.9115 270.762 46.7461 270.762 45.4961H274.375C274.44 46.707 274.922 47.6706 275.82 48.3867C276.732 49.0898 277.93 49.4414 279.414 49.4414C280.781 49.4414 281.875 49.168 282.695 48.6211C283.529 48.0612 283.945 47.319 283.945 46.3945ZM301.035 52.3906C298.171 52.3906 295.84 51.4531 294.043 49.5781C292.246 47.6901 291.348 45.1706 291.348 42.0195V41.3555C291.348 39.2591 291.745 37.3906 292.539 35.75C293.346 34.0964 294.466 32.8073 295.898 31.8828C297.344 30.9453 298.906 30.4766 300.586 30.4766C303.333 30.4766 305.469 31.3815 306.992 33.1914C308.516 35.0013 309.277 37.5924 309.277 40.9648V42.4688H294.961C295.013 44.5521 295.618 46.2383 296.777 47.5273C297.949 48.8034 299.434 49.4414 301.23 49.4414C302.507 49.4414 303.587 49.181 304.473 48.6602C305.358 48.1393 306.133 47.4492 306.797 46.5898L309.004 48.3086C307.233 51.0299 304.577 52.3906 301.035 52.3906ZM300.586 33.4453C299.128 33.4453 297.904 33.9792 296.914 35.0469C295.924 36.1016 295.312 37.5859 295.078 39.5H305.664V39.2266C305.56 37.3906 305.065 35.9714 304.18 34.9688C303.294 33.9531 302.096 33.4453 300.586 33.4453ZM323.691 34.1094C323.145 34.0182 322.552 33.9727 321.914 33.9727C319.544 33.9727 317.936 34.9818 317.09 37V52H313.477V30.8672H316.992L317.051 33.3086C318.236 31.4206 319.915 30.4766 322.09 30.4766C322.793 30.4766 323.327 30.5677 323.691 30.75V34.1094ZM345.898 39.3242C342.682 38.3997 340.339 37.2669 338.867 35.9258C337.409 34.5716 336.68 32.9049 336.68 30.9258C336.68 28.6862 337.572 26.8372 339.355 25.3789C341.152 23.9076 343.483 23.1719 346.348 23.1719C348.301 23.1719 350.039 23.5495 351.562 24.3047C353.099 25.0599 354.284 26.1016 355.117 27.4297C355.964 28.7578 356.387 30.2096 356.387 31.7852H352.617C352.617 30.0664 352.07 28.7188 350.977 27.7422C349.883 26.7526 348.34 26.2578 346.348 26.2578C344.499 26.2578 343.053 26.668 342.012 27.4883C340.983 28.2956 340.469 29.4219 340.469 30.8672C340.469 32.026 340.957 33.0091 341.934 33.8164C342.923 34.6107 344.596 35.3398 346.953 36.0039C349.323 36.668 351.172 37.4036 352.5 38.2109C353.841 39.0052 354.831 39.9362 355.469 41.0039C356.12 42.0716 356.445 43.3281 356.445 44.7734C356.445 47.0781 355.547 48.9271 353.75 50.3203C351.953 51.7005 349.551 52.3906 346.543 52.3906C344.59 52.3906 342.767 52.0195 341.074 51.2773C339.382 50.5221 338.073 49.4935 337.148 48.1914C336.237 46.8893 335.781 45.4115 335.781 43.7578H339.551C339.551 45.4766 340.182 46.8372 341.445 47.8398C342.721 48.8294 344.421 49.3242 346.543 49.3242C348.522 49.3242 350.039 48.9206 351.094 48.1133C352.148 47.306 352.676 46.2057 352.676 44.8125C352.676 43.4193 352.188 42.3451 351.211 41.5898C350.234 40.8216 348.464 40.0664 345.898 39.3242ZM364.629 52H361.016V30.8672H364.629V52ZM360.723 25.2617C360.723 24.6758 360.898 24.181 361.25 23.7773C361.615 23.3737 362.148 23.1719 362.852 23.1719C363.555 23.1719 364.089 23.3737 364.453 23.7773C364.818 24.181 365 24.6758 365 25.2617C365 25.8477 364.818 26.3359 364.453 26.7266C364.089 27.1172 363.555 27.3125 362.852 27.3125C362.148 27.3125 361.615 27.1172 361.25 26.7266C360.898 26.3359 360.723 25.8477 360.723 25.2617ZM369.57 41.2578C369.57 37.9635 370.332 35.3464 371.855 33.4062C373.379 31.4531 375.397 30.4766 377.91 30.4766C380.488 30.4766 382.5 31.388 383.945 33.2109L384.121 30.8672H387.422V51.4922C387.422 54.2266 386.608 56.3815 384.98 57.957C383.366 59.5326 381.191 60.3203 378.457 60.3203C376.934 60.3203 375.443 59.9948 373.984 59.3438C372.526 58.6927 371.413 57.8008 370.645 56.668L372.52 54.5C374.069 56.4141 375.964 57.3711 378.203 57.3711C379.961 57.3711 381.328 56.8763 382.305 55.8867C383.294 54.8971 383.789 53.5039 383.789 51.707V49.8906C382.344 51.5573 380.371 52.3906 377.871 52.3906C375.397 52.3906 373.392 51.3945 371.855 49.4023C370.332 47.4102 369.57 44.6953 369.57 41.2578ZM373.203 41.668C373.203 44.0508 373.691 45.9258 374.668 47.293C375.645 48.6471 377.012 49.3242 378.77 49.3242C381.048 49.3242 382.721 48.2891 383.789 46.2188V36.5703C382.682 34.5521 381.022 33.543 378.809 33.543C377.051 33.543 375.677 34.2266 374.688 35.5938C373.698 36.9609 373.203 38.9857 373.203 41.668ZM396.309 30.8672L396.426 33.5234C398.04 31.4922 400.15 30.4766 402.754 30.4766C407.22 30.4766 409.473 32.9961 409.512 38.0352V52H405.898V38.0156C405.885 36.4922 405.534 35.3659 404.844 34.6367C404.167 33.9076 403.105 33.543 401.66 33.543C400.488 33.543 399.46 33.8555 398.574 34.4805C397.689 35.1055 396.999 35.9258 396.504 36.9414V52H392.891V30.8672H396.309ZM437.93 49.9102C436.523 51.5638 434.46 52.3906 431.738 52.3906C429.486 52.3906 427.767 51.7396 426.582 50.4375C425.41 49.1224 424.818 47.1823 424.805 44.6172V30.8672H428.418V44.5195C428.418 47.7227 429.72 49.3242 432.324 49.3242C435.085 49.3242 436.921 48.2956 437.832 46.2383V30.8672H441.445V52H438.008L437.93 49.9102ZM464.805 41.668C464.805 44.8841 464.069 47.4753 462.598 49.4414C461.126 51.4076 459.134 52.3906 456.621 52.3906C454.056 52.3906 452.038 51.5768 450.566 49.9492V60.125H446.953V30.8672H450.254L450.43 33.2109C451.901 31.388 453.945 30.4766 456.562 30.4766C459.102 30.4766 461.107 31.4336 462.578 33.3477C464.062 35.2617 464.805 37.9245 464.805 41.3359V41.668ZM461.191 41.2578C461.191 38.875 460.684 36.9935 459.668 35.6133C458.652 34.2331 457.259 33.543 455.488 33.543C453.301 33.543 451.66 34.513 450.566 36.4531V46.5508C451.647 48.4779 453.301 49.4414 455.527 49.4414C457.259 49.4414 458.633 48.7578 459.648 47.3906C460.677 46.0104 461.191 43.9661 461.191 41.2578Z" fill="black"/>
</svg>
