<svg width="247" height="77" viewBox="0 0 247 77" fill="none" xmlns="http://www.w3.org/2000/svg">
<path d="M0 0H247V77H0V0Z" fill="white"/>
<path d="M24.9092 23.5625L34.2061 46.7656L43.503 23.5625H48.3663V52H44.6163V40.9258L44.9678 28.9727L35.6319 52H32.7608L23.4444 29.0312L23.8155 40.9258V52H20.0655V23.5625H24.9092ZM53.4639 41.2383C53.4639 39.168 53.8676 37.306 54.6749 35.6523C55.4952 33.9987 56.628 32.7227 58.0733 31.8242C59.5316 30.9258 61.1918 30.4766 63.0538 30.4766C65.9314 30.4766 68.2556 31.4727 70.0264 33.4648C71.8103 35.457 72.7022 38.1068 72.7022 41.4141V41.668C72.7022 43.7253 72.3051 45.5742 71.5108 47.2148C70.7296 48.8424 69.6033 50.112 68.1319 51.0234C66.6736 51.9349 64.9939 52.3906 63.0928 52.3906C60.2283 52.3906 57.904 51.3945 56.1202 49.4023C54.3493 47.4102 53.4639 44.7734 53.4639 41.4922V41.2383ZM57.0967 41.668C57.0967 44.0117 57.6371 45.8932 58.7178 47.3125C59.8116 48.7318 61.2699 49.4414 63.0928 49.4414C64.9288 49.4414 66.3871 48.7253 67.4678 47.293C68.5486 45.8477 69.0889 43.8294 69.0889 41.2383C69.0889 38.9206 68.5355 37.0456 67.4288 35.6133C66.335 34.168 64.8767 33.4453 63.0538 33.4453C61.2699 33.4453 59.8311 34.1549 58.7374 35.5742C57.6436 36.9935 57.0967 39.0247 57.0967 41.668ZM76.2764 41.2383C76.2764 39.168 76.6801 37.306 77.4874 35.6523C78.3077 33.9987 79.4405 32.7227 80.8858 31.8242C82.3441 30.9258 84.0043 30.4766 85.8663 30.4766C88.7439 30.4766 91.0681 31.4727 92.8389 33.4648C94.6228 35.457 95.5147 38.1068 95.5147 41.4141V41.668C95.5147 43.7253 95.1176 45.5742 94.3233 47.2148C93.5421 48.8424 92.4158 50.112 90.9444 51.0234C89.4861 51.9349 87.8064 52.3906 85.9053 52.3906C83.0408 52.3906 80.7165 51.3945 78.9327 49.4023C77.1618 47.4102 76.2764 44.7734 76.2764 41.4922V41.2383ZM79.9092 41.668C79.9092 44.0117 80.4496 45.8932 81.5303 47.3125C82.6241 48.7318 84.0824 49.4414 85.9053 49.4414C87.7413 49.4414 89.1996 48.7253 90.2803 47.293C91.3611 45.8477 91.9014 43.8294 91.9014 41.2383C91.9014 38.9206 91.348 37.0456 90.2413 35.6133C89.1475 34.168 87.6892 33.4453 85.8663 33.4453C84.0824 33.4453 82.6436 34.1549 81.5499 35.5742C80.4561 36.9935 79.9092 39.0247 79.9092 41.668ZM99.1671 41.2578C99.1671 38.0156 99.9353 35.4115 101.472 33.4453C103.008 31.4661 105.02 30.4766 107.507 30.4766C109.981 30.4766 111.94 31.3229 113.386 33.0156V22H116.999V52H113.679L113.503 49.7344C112.058 51.5052 110.046 52.3906 107.468 52.3906C105.02 52.3906 103.021 51.388 101.472 49.3828C99.9353 47.3776 99.1671 44.7604 99.1671 41.5312V41.2578ZM102.78 41.668C102.78 44.0638 103.275 45.9388 104.265 47.293C105.254 48.6471 106.621 49.3242 108.366 49.3242C110.658 49.3242 112.331 48.2956 113.386 46.2383V36.5312C112.305 34.5391 110.645 33.543 108.405 33.543C106.635 33.543 105.254 34.2266 104.265 35.5938C103.275 36.9609 102.78 38.9857 102.78 41.668ZM140.515 41.668C140.515 44.8971 139.773 47.4948 138.288 49.4609C136.804 51.4141 134.812 52.3906 132.312 52.3906C129.642 52.3906 127.579 51.4466 126.12 49.5586L125.944 52H122.624V22H126.237V33.1914C127.696 31.3815 129.707 30.4766 132.273 30.4766C134.838 30.4766 136.849 31.4466 138.308 33.3867C139.779 35.3268 140.515 37.9831 140.515 41.3555V41.668ZM136.901 41.2578C136.901 38.7969 136.426 36.8958 135.476 35.5547C134.525 34.2135 133.158 33.543 131.374 33.543C128.991 33.543 127.279 34.6497 126.237 36.8633V46.0039C127.344 48.2174 129.069 49.3242 131.413 49.3242C133.145 49.3242 134.493 48.6536 135.456 47.3125C136.42 45.9714 136.901 43.9531 136.901 41.2578ZM144.128 41.2383C144.128 39.168 144.532 37.306 145.339 35.6523C146.159 33.9987 147.292 32.7227 148.737 31.8242C150.196 30.9258 151.856 30.4766 153.718 30.4766C156.595 30.4766 158.92 31.4727 160.69 33.4648C162.474 35.457 163.366 38.1068 163.366 41.4141V41.668C163.366 43.7253 162.969 45.5742 162.175 47.2148C161.394 48.8424 160.267 50.112 158.796 51.0234C157.338 51.9349 155.658 52.3906 153.757 52.3906C150.892 52.3906 148.568 51.3945 146.784 49.4023C145.013 47.4102 144.128 44.7734 144.128 41.4922V41.2383ZM147.761 41.668C147.761 44.0117 148.301 45.8932 149.382 47.3125C150.476 48.7318 151.934 49.4414 153.757 49.4414C155.593 49.4414 157.051 48.7253 158.132 47.293C159.213 45.8477 159.753 43.8294 159.753 41.2383C159.753 38.9206 159.2 37.0456 158.093 35.6133C156.999 34.168 155.541 33.4453 153.718 33.4453C151.934 33.4453 150.495 34.1549 149.401 35.5742C148.308 36.9935 147.761 39.0247 147.761 41.668ZM180.944 52C180.736 51.5833 180.567 50.8411 180.437 49.7734C178.757 51.5182 176.752 52.3906 174.421 52.3906C172.338 52.3906 170.625 51.8047 169.284 50.6328C167.956 49.4479 167.292 47.9505 167.292 46.1406C167.292 43.9401 168.125 42.2344 169.792 41.0234C171.472 39.7995 173.829 39.1875 176.862 39.1875H180.378V37.5273C180.378 36.2643 180 35.2617 179.245 34.5195C178.49 33.7643 177.377 33.3867 175.905 33.3867C174.616 33.3867 173.536 33.7122 172.663 34.3633C171.791 35.0143 171.355 35.8021 171.355 36.7266H167.722C167.722 35.6719 168.093 34.6562 168.835 33.6797C169.59 32.6901 170.606 31.9089 171.882 31.3359C173.171 30.763 174.584 30.4766 176.12 30.4766C178.555 30.4766 180.463 31.0885 181.843 32.3125C183.223 33.5234 183.939 35.1966 183.991 37.332V47.0586C183.991 48.9987 184.239 50.5417 184.733 51.6875V52H180.944ZM174.948 49.2461C176.081 49.2461 177.155 48.9531 178.171 48.3672C179.187 47.7812 179.922 47.0195 180.378 46.082V41.7461H177.546C173.119 41.7461 170.905 43.0417 170.905 45.6328C170.905 46.7656 171.283 47.651 172.038 48.2891C172.793 48.9271 173.763 49.2461 174.948 49.2461ZM199.87 34.1094C199.323 34.0182 198.731 33.9727 198.093 33.9727C195.723 33.9727 194.115 34.9818 193.269 37V52H189.655V30.8672H193.171L193.23 33.3086C194.414 31.4206 196.094 30.4766 198.269 30.4766C198.972 30.4766 199.506 30.5677 199.87 30.75V34.1094ZM201.94 41.2578C201.94 38.0156 202.709 35.4115 204.245 33.4453C205.782 31.4661 207.793 30.4766 210.28 30.4766C212.754 30.4766 214.714 31.3229 216.159 33.0156V22H219.773V52H216.452L216.276 49.7344C214.831 51.5052 212.819 52.3906 210.241 52.3906C207.793 52.3906 205.795 51.388 204.245 49.3828C202.709 47.3776 201.94 44.7604 201.94 41.5312V41.2578ZM205.554 41.668C205.554 44.0638 206.049 45.9388 207.038 47.293C208.028 48.6471 209.395 49.3242 211.14 49.3242C213.431 49.3242 215.105 48.2956 216.159 46.2383V36.5312C215.079 34.5391 213.418 33.543 211.179 33.543C209.408 33.543 208.028 34.2266 207.038 35.5938C206.049 36.9609 205.554 38.9857 205.554 41.668Z" fill="black"/>
</svg>
