<svg width="414" height="736" viewBox="0 0 414 736" fill="none" xmlns="http://www.w3.org/2000/svg">
<g clip-path="url(#clip0)">
<rect width="414" height="736" fill="white"/>
<path d="M0 0H414V736H0V0Z" fill="#F2F2F2"/>
<path d="M79.4316 100.264C79.321 101.794 78.7546 102.998 77.7324 103.877C76.7168 104.756 75.3757 105.195 73.709 105.195C71.8861 105.195 70.4505 104.583 69.4023 103.359C68.3607 102.129 67.8398 100.443 67.8398 98.3008V97.4316C67.8398 96.0645 68.0807 94.86 68.5625 93.8184C69.0443 92.7767 69.7311 91.9792 70.623 91.4258C71.5215 90.8659 72.5632 90.5859 73.748 90.5859C75.3887 90.5859 76.7103 91.0254 77.7129 91.9043C78.7155 92.7832 79.2949 94.0169 79.4512 95.6055H76.5215C76.4499 94.6875 76.1927 94.0234 75.75 93.6133C75.3138 93.1966 74.6465 92.9883 73.748 92.9883C72.7715 92.9883 72.0391 93.3398 71.5508 94.043C71.069 94.7396 70.8216 95.8236 70.8086 97.2949V98.3691C70.8086 99.9056 71.0397 101.029 71.502 101.738C71.9707 102.448 72.7064 102.803 73.709 102.803C74.6139 102.803 75.2878 102.598 75.7305 102.188C76.1797 101.771 76.4368 101.13 76.502 100.264H79.4316ZM80.7305 99.6191C80.7305 98.571 80.9323 97.6367 81.3359 96.8164C81.7396 95.9961 82.319 95.3613 83.0742 94.9121C83.8359 94.4629 84.7181 94.2383 85.7207 94.2383C87.1465 94.2383 88.3086 94.6745 89.207 95.5469C90.112 96.4193 90.6165 97.6042 90.7207 99.1016L90.7402 99.8242C90.7402 101.445 90.2878 102.747 89.3828 103.73C88.4779 104.707 87.2637 105.195 85.7402 105.195C84.2168 105.195 82.9993 104.707 82.0879 103.73C81.1829 102.754 80.7305 101.426 80.7305 99.7461V99.6191ZM83.5527 99.8242C83.5527 100.827 83.7415 101.595 84.1191 102.129C84.4967 102.656 85.0371 102.92 85.7402 102.92C86.4238 102.92 86.9577 102.66 87.3418 102.139C87.7259 101.611 87.918 100.771 87.918 99.6191C87.918 98.6361 87.7259 97.8743 87.3418 97.334C86.9577 96.7936 86.4173 96.5234 85.7207 96.5234C85.0306 96.5234 84.4967 96.7936 84.1191 97.334C83.7415 97.8678 83.5527 98.6979 83.5527 99.8242ZM95.0762 94.4336L95.1641 95.6543C95.9193 94.7103 96.9316 94.2383 98.2012 94.2383C99.321 94.2383 100.154 94.5671 100.701 95.2246C101.248 95.8822 101.528 96.8652 101.541 98.1738V105H98.7188V98.2422C98.7188 97.6432 98.5885 97.2103 98.3281 96.9434C98.0677 96.6699 97.6348 96.5332 97.0293 96.5332C96.235 96.5332 95.6393 96.8717 95.2422 97.5488V105H92.4199V94.4336H95.0762ZM104.373 105V96.5039H102.801V94.4336H104.373V93.9453C104.386 92.6172 104.793 91.5951 105.594 90.8789C106.401 90.1562 107.537 89.7949 109.002 89.7949C109.881 89.7949 110.949 89.987 112.205 90.3711L111.795 92.7051C111.157 92.5163 110.662 92.3958 110.311 92.3438C109.959 92.2852 109.581 92.2559 109.178 92.2559C107.863 92.2559 107.205 92.8385 107.205 94.0039V94.4336H109.285V96.5039H107.205V105H104.373ZM113.523 105H110.691V94.4336H113.523V105ZM121.795 97.0801C121.411 97.028 121.072 97.002 120.779 97.002C119.712 97.002 119.012 97.3633 118.68 98.0859V105H115.857V94.4336H118.523L118.602 95.6934C119.168 94.7233 119.952 94.2383 120.955 94.2383C121.268 94.2383 121.561 94.2806 121.834 94.3652L121.795 97.0801ZM125.809 94.4336L125.896 95.6152C126.645 94.6973 127.658 94.2383 128.934 94.2383C130.294 94.2383 131.229 94.7754 131.736 95.8496C132.479 94.7754 133.536 94.2383 134.91 94.2383C136.056 94.2383 136.909 94.5736 137.469 95.2441C138.029 95.9082 138.309 96.9108 138.309 98.252V105H135.477V98.2617C135.477 97.6628 135.359 97.2266 135.125 96.9531C134.891 96.6732 134.477 96.5332 133.885 96.5332C133.038 96.5332 132.452 96.9368 132.127 97.7441L132.137 105H129.314V98.2715C129.314 97.6595 129.194 97.2168 128.953 96.9434C128.712 96.6699 128.302 96.5332 127.723 96.5332C126.922 96.5332 126.342 96.8652 125.984 97.5293V105H123.162V94.4336H125.809ZM146.609 105C146.479 104.746 146.385 104.43 146.326 104.053C145.643 104.814 144.754 105.195 143.66 105.195C142.625 105.195 141.766 104.896 141.082 104.297C140.405 103.698 140.066 102.943 140.066 102.031C140.066 100.911 140.48 100.052 141.307 99.4531C142.14 98.8542 143.341 98.5514 144.91 98.5449H146.209V97.9395C146.209 97.4512 146.082 97.0605 145.828 96.7676C145.581 96.4746 145.187 96.3281 144.646 96.3281C144.171 96.3281 143.797 96.4421 143.523 96.6699C143.257 96.8978 143.123 97.2103 143.123 97.6074H140.301C140.301 96.9954 140.49 96.429 140.867 95.9082C141.245 95.3874 141.779 94.9805 142.469 94.6875C143.159 94.388 143.934 94.2383 144.793 94.2383C146.095 94.2383 147.127 94.5671 147.889 95.2246C148.657 95.8757 149.041 96.7936 149.041 97.9785V102.559C149.048 103.561 149.188 104.32 149.461 104.834V105H146.609ZM144.275 103.037C144.692 103.037 145.076 102.946 145.428 102.764C145.779 102.575 146.04 102.324 146.209 102.012V100.195H145.154C143.742 100.195 142.99 100.684 142.898 101.66L142.889 101.826C142.889 102.178 143.012 102.467 143.26 102.695C143.507 102.923 143.846 103.037 144.275 103.037ZM154.588 91.8359V94.4336H156.395V96.5039H154.588V101.777C154.588 102.168 154.663 102.448 154.812 102.617C154.962 102.786 155.249 102.871 155.672 102.871C155.984 102.871 156.261 102.848 156.502 102.803V104.941C155.949 105.111 155.379 105.195 154.793 105.195C152.814 105.195 151.805 104.196 151.766 102.197V96.5039H150.223V94.4336H151.766V91.8359H154.588ZM160.945 105H158.113V94.4336H160.945V105ZM157.947 91.6992C157.947 91.276 158.087 90.9277 158.367 90.6543C158.654 90.3809 159.041 90.2441 159.529 90.2441C160.011 90.2441 160.395 90.3809 160.682 90.6543C160.968 90.9277 161.111 91.276 161.111 91.6992C161.111 92.1289 160.965 92.4805 160.672 92.7539C160.385 93.0273 160.005 93.1641 159.529 93.1641C159.054 93.1641 158.67 93.0273 158.377 92.7539C158.09 92.4805 157.947 92.1289 157.947 91.6992ZM162.84 99.6191C162.84 98.571 163.042 97.6367 163.445 96.8164C163.849 95.9961 164.428 95.3613 165.184 94.9121C165.945 94.4629 166.827 94.2383 167.83 94.2383C169.256 94.2383 170.418 94.6745 171.316 95.5469C172.221 96.4193 172.726 97.6042 172.83 99.1016L172.85 99.8242C172.85 101.445 172.397 102.747 171.492 103.73C170.587 104.707 169.373 105.195 167.85 105.195C166.326 105.195 165.109 104.707 164.197 103.73C163.292 102.754 162.84 101.426 162.84 99.7461V99.6191ZM165.662 99.8242C165.662 100.827 165.851 101.595 166.229 102.129C166.606 102.656 167.146 102.92 167.85 102.92C168.533 102.92 169.067 102.66 169.451 102.139C169.835 101.611 170.027 100.771 170.027 99.6191C170.027 98.6361 169.835 97.8743 169.451 97.334C169.067 96.7936 168.527 96.5234 167.83 96.5234C167.14 96.5234 166.606 96.7936 166.229 97.334C165.851 97.8678 165.662 98.6979 165.662 99.8242ZM177.186 94.4336L177.273 95.6543C178.029 94.7103 179.041 94.2383 180.311 94.2383C181.43 94.2383 182.264 94.5671 182.811 95.2246C183.357 95.8822 183.637 96.8652 183.65 98.1738V105H180.828V98.2422C180.828 97.6432 180.698 97.2103 180.438 96.9434C180.177 96.6699 179.744 96.5332 179.139 96.5332C178.344 96.5332 177.749 96.8717 177.352 97.5488V105H174.529V94.4336H177.186Z" fill="black"/>
<path d="M324.546 36.0006C323.898 35.9802 323.789 36.9184 324.424 37.0481L326.402 37.4827L326.911 39.9027C326.911 39.9057 326.911 39.9057 326.912 39.9077L329.433 51.3276C329.487 51.57 329.702 51.7426 329.95 51.7426H344.232C344.948 51.7532 344.948 50.6736 344.232 50.6843H330.375L329.889 48.4792H344.953C345.201 48.4793 345.416 48.3067 345.469 48.0643L347.271 39.9072C347.344 39.5769 347.092 39.2638 346.754 39.2638C340.455 39.264 334.156 39.2638 327.857 39.2608L327.367 36.9297C327.325 36.7259 327.166 36.5661 326.963 36.5215L324.651 36.014C324.617 36.006 324.581 36.001 324.546 36L324.546 36.0006ZM328.086 40.3197C334.089 40.3227 340.092 40.3227 346.095 40.3227L344.527 47.4215H329.655L328.086 40.3197ZM333.336 52.86C332.3 52.86 331.451 53.7127 331.451 54.7487C331.451 55.7847 332.3 56.6375 333.336 56.6375C334.371 56.6375 335.22 55.7847 335.22 54.7487C335.22 53.7127 334.371 52.86 333.336 52.86ZM340.926 52.86C339.89 52.86 339.041 53.7127 339.041 54.7487C339.041 55.7847 339.89 56.6375 340.926 56.6375C341.961 56.6375 342.81 55.7847 342.81 54.7487C342.81 53.7127 341.961 52.86 340.926 52.86Z" fill="black"/>
<line x1="128" y1="45.5" x2="280" y2="45.5" stroke="black"/>
<circle cx="138" cy="46" r="9.5" fill="black" stroke="black"/>
<path d="M138.56 50V42.91H137.91C137.863 43.1767 137.777 43.3967 137.65 43.57C137.523 43.7433 137.367 43.88 137.18 43.98C137 44.08 136.797 44.15 136.57 44.19C136.343 44.2233 136.11 44.24 135.87 44.24V44.92H137.71V50H138.56Z" fill="white"/>
<circle cx="201" cy="46" r="10" fill="black"/>
<circle cx="270" cy="46" r="9.5" fill="white" stroke="black"/>
<path d="M198.44 45.42H199.29C199.283 45.2067 199.303 44.9967 199.35 44.79C199.403 44.5767 199.487 44.3867 199.6 44.22C199.713 44.0533 199.857 43.92 200.03 43.82C200.21 43.7133 200.423 43.66 200.67 43.66C200.857 43.66 201.033 43.69 201.2 43.75C201.367 43.81 201.51 43.8967 201.63 44.01C201.757 44.1233 201.857 44.26 201.93 44.42C202.003 44.5733 202.04 44.7467 202.04 44.94C202.04 45.1867 202 45.4033 201.92 45.59C201.847 45.7767 201.733 45.95 201.58 46.11C201.433 46.27 201.247 46.43 201.02 46.59C200.793 46.7433 200.53 46.9133 200.23 47.1C199.983 47.2467 199.747 47.4033 199.52 47.57C199.293 47.7367 199.09 47.93 198.91 48.15C198.73 48.37 198.58 48.63 198.46 48.93C198.347 49.2233 198.273 49.58 198.24 50H202.87V49.25H199.23C199.27 49.03 199.353 48.8367 199.48 48.67C199.613 48.4967 199.77 48.3367 199.95 48.19C200.137 48.0433 200.34 47.9067 200.56 47.78C200.78 47.6467 201 47.5133 201.22 47.38C201.44 47.24 201.653 47.0933 201.86 46.94C202.067 46.7867 202.25 46.6167 202.41 46.43C202.57 46.2367 202.697 46.02 202.79 45.78C202.89 45.54 202.94 45.2633 202.94 44.95C202.94 44.6167 202.88 44.3233 202.76 44.07C202.647 43.8167 202.49 43.6067 202.29 43.44C202.09 43.2667 201.853 43.1367 201.58 43.05C201.313 42.9567 201.027 42.91 200.72 42.91C200.347 42.91 200.013 42.9733 199.72 43.1C199.427 43.2267 199.18 43.4033 198.98 43.63C198.787 43.85 198.643 44.1133 198.55 44.42C198.457 44.7267 198.42 45.06 198.44 45.42Z" fill="white"/>
<path d="M269.18 45.95V46.67C269.34 46.65 269.51 46.64 269.69 46.64C269.903 46.64 270.1 46.67 270.28 46.73C270.467 46.7833 270.627 46.87 270.76 46.99C270.893 47.1033 271 47.2467 271.08 47.42C271.16 47.5867 271.2 47.78 271.2 48C271.2 48.2133 271.157 48.4067 271.07 48.58C270.99 48.7467 270.88 48.89 270.74 49.01C270.6 49.1233 270.437 49.2133 270.25 49.28C270.063 49.34 269.867 49.37 269.66 49.37C269.173 49.37 268.803 49.2267 268.55 48.94C268.297 48.6467 268.163 48.27 268.15 47.81H267.3C267.293 48.1767 267.343 48.5033 267.45 48.79C267.563 49.0767 267.723 49.32 267.93 49.52C268.137 49.7133 268.387 49.86 268.68 49.96C268.973 50.06 269.3 50.11 269.66 50.11C269.993 50.11 270.307 50.0667 270.6 49.98C270.9 49.8867 271.16 49.75 271.38 49.57C271.6 49.39 271.773 49.1667 271.9 48.9C272.033 48.6267 272.1 48.3133 272.1 47.96C272.1 47.5333 271.993 47.1633 271.78 46.85C271.573 46.5367 271.253 46.3333 270.82 46.24V46.22C271.1 46.0933 271.333 45.9067 271.52 45.66C271.707 45.4133 271.8 45.13 271.8 44.81C271.8 44.4833 271.743 44.2 271.63 43.96C271.523 43.72 271.373 43.5233 271.18 43.37C270.987 43.2167 270.757 43.1033 270.49 43.03C270.23 42.95 269.947 42.91 269.64 42.91C269.287 42.91 268.973 42.9667 268.7 43.08C268.433 43.1933 268.21 43.35 268.03 43.55C267.85 43.75 267.71 43.99 267.61 44.27C267.517 44.55 267.463 44.86 267.45 45.2H268.3C268.3 44.9933 268.327 44.7967 268.38 44.61C268.433 44.4233 268.513 44.26 268.62 44.12C268.733 43.98 268.873 43.87 269.04 43.79C269.213 43.7033 269.413 43.66 269.64 43.66C270 43.66 270.3 43.7567 270.54 43.95C270.78 44.1367 270.9 44.42 270.9 44.8C270.9 44.9867 270.863 45.1533 270.79 45.3C270.717 45.4467 270.617 45.57 270.49 45.67C270.37 45.7633 270.227 45.8367 270.06 45.89C269.9 45.9367 269.73 45.96 269.55 45.96H269.37C269.337 45.96 269.303 45.96 269.27 45.96C269.243 45.96 269.213 45.9567 269.18 45.95Z" fill="black"/>
<path d="M77 386.5H340C345.247 386.5 349.5 390.753 349.5 396V420C349.5 425.247 345.247 429.5 340 429.5H77C71.7533 429.5 67.5 425.247 67.5 420V396C67.5 390.753 71.7533 386.5 77 386.5Z" fill="white" stroke="black"/>
<path d="M164.483 409.104V413H163.171V403.047H166.842C167.931 403.047 168.783 403.325 169.398 403.881C170.018 404.437 170.328 405.173 170.328 406.089C170.328 407.055 170.025 407.8 169.419 408.324C168.817 408.844 167.954 409.104 166.828 409.104H164.483ZM164.483 408.03H166.842C167.544 408.03 168.081 407.866 168.455 407.538C168.829 407.205 169.016 406.727 169.016 406.103C169.016 405.51 168.829 405.036 168.455 404.681C168.081 404.325 167.569 404.141 166.917 404.127H164.483V408.03ZM173.179 413H171.914V402.5H173.179V413ZM179.775 413C179.702 412.854 179.643 412.594 179.598 412.221C179.01 412.831 178.308 413.137 177.492 413.137C176.763 413.137 176.164 412.932 175.694 412.521C175.229 412.107 174.997 411.583 174.997 410.949C174.997 410.179 175.289 409.582 175.872 409.158C176.46 408.73 177.285 408.516 178.347 408.516H179.577V407.935C179.577 407.493 179.445 407.142 179.181 406.882C178.916 406.618 178.527 406.485 178.012 406.485C177.561 406.485 177.182 406.599 176.877 406.827C176.572 407.055 176.419 407.331 176.419 407.654H175.147C175.147 407.285 175.277 406.93 175.537 406.588C175.801 406.242 176.157 405.968 176.604 405.768C177.055 405.567 177.549 405.467 178.087 405.467C178.939 405.467 179.607 405.681 180.09 406.109C180.573 406.533 180.824 407.119 180.842 407.866V411.271C180.842 411.95 180.928 412.49 181.102 412.891V413H179.775ZM177.677 412.036C178.073 412.036 178.449 411.934 178.805 411.729C179.16 411.523 179.418 411.257 179.577 410.929V409.411H178.586C177.036 409.411 176.262 409.865 176.262 410.771C176.262 411.168 176.394 411.478 176.658 411.701C176.923 411.924 177.262 412.036 177.677 412.036ZM185.791 412.104C186.242 412.104 186.636 411.968 186.974 411.694C187.311 411.421 187.498 411.079 187.534 410.669H188.73C188.708 411.093 188.562 411.496 188.293 411.879C188.024 412.262 187.664 412.567 187.213 412.795C186.766 413.023 186.292 413.137 185.791 413.137C184.784 413.137 183.982 412.802 183.385 412.132C182.792 411.457 182.496 410.537 182.496 409.37V409.158C182.496 408.438 182.628 407.798 182.893 407.237C183.157 406.677 183.535 406.242 184.027 405.932C184.524 405.622 185.11 405.467 185.784 405.467C186.614 405.467 187.302 405.715 187.849 406.212C188.4 406.709 188.694 407.354 188.73 408.146H187.534C187.498 407.668 187.315 407.276 186.987 406.971C186.664 406.661 186.263 406.506 185.784 406.506C185.142 406.506 184.643 406.738 184.287 407.203C183.936 407.663 183.761 408.331 183.761 409.206V409.445C183.761 410.298 183.936 410.954 184.287 411.414C184.638 411.874 185.139 412.104 185.791 412.104ZM193.222 413.137C192.219 413.137 191.403 412.809 190.774 412.152C190.146 411.492 189.831 410.61 189.831 409.507V409.274C189.831 408.541 189.97 407.887 190.248 407.312C190.531 406.734 190.923 406.283 191.424 405.959C191.93 405.631 192.477 405.467 193.064 405.467C194.026 405.467 194.773 405.784 195.307 406.417C195.84 407.05 196.106 407.957 196.106 409.138V409.664H191.096C191.114 410.393 191.326 410.983 191.731 411.435C192.142 411.881 192.661 412.104 193.29 412.104C193.737 412.104 194.115 412.013 194.425 411.831C194.735 411.649 195.006 411.407 195.238 411.106L196.011 411.708C195.391 412.66 194.461 413.137 193.222 413.137ZM193.064 406.506C192.554 406.506 192.126 406.693 191.779 407.066C191.433 407.436 191.219 407.955 191.137 408.625H194.842V408.529C194.805 407.887 194.632 407.39 194.322 407.039C194.012 406.684 193.593 406.506 193.064 406.506ZM202.56 409.104V413H201.247V403.047H204.918C206.007 403.047 206.859 403.325 207.475 403.881C208.094 404.437 208.404 405.173 208.404 406.089C208.404 407.055 208.101 407.8 207.495 408.324C206.894 408.844 206.03 409.104 204.904 409.104H202.56ZM202.56 408.03H204.918C205.62 408.03 206.158 407.866 206.531 407.538C206.905 407.205 207.092 406.727 207.092 406.103C207.092 405.51 206.905 405.036 206.531 404.681C206.158 404.325 205.645 404.141 204.993 404.127H202.56V408.03ZM214.365 413C214.292 412.854 214.233 412.594 214.188 412.221C213.6 412.831 212.898 413.137 212.082 413.137C211.353 413.137 210.754 412.932 210.284 412.521C209.819 412.107 209.587 411.583 209.587 410.949C209.587 410.179 209.879 409.582 210.462 409.158C211.05 408.73 211.875 408.516 212.937 408.516H214.167V407.935C214.167 407.493 214.035 407.142 213.771 406.882C213.506 406.618 213.117 406.485 212.602 406.485C212.15 406.485 211.772 406.599 211.467 406.827C211.161 407.055 211.009 407.331 211.009 407.654H209.737C209.737 407.285 209.867 406.93 210.127 406.588C210.391 406.242 210.747 405.968 211.193 405.768C211.645 405.567 212.139 405.467 212.677 405.467C213.529 405.467 214.197 405.681 214.68 406.109C215.163 406.533 215.413 407.119 215.432 407.866V411.271C215.432 411.95 215.518 412.49 215.691 412.891V413H214.365ZM212.267 412.036C212.663 412.036 213.039 411.934 213.395 411.729C213.75 411.523 214.007 411.257 214.167 410.929V409.411H213.176C211.626 409.411 210.852 409.865 210.852 410.771C210.852 411.168 210.984 411.478 211.248 411.701C211.512 411.924 211.852 412.036 212.267 412.036ZM219.725 411.147L221.447 405.604H222.801L219.827 414.142C219.367 415.372 218.635 415.987 217.633 415.987L217.394 415.967L216.922 415.878V414.853L217.264 414.88C217.692 414.88 218.025 414.793 218.262 414.62C218.503 414.447 218.701 414.13 218.856 413.67L219.137 412.918L216.498 405.604H217.879L219.725 411.147ZM225.125 405.604L225.159 406.424C225.701 405.786 226.433 405.467 227.354 405.467C228.388 405.467 229.092 405.863 229.466 406.656C229.712 406.301 230.031 406.014 230.423 405.795C230.819 405.576 231.286 405.467 231.824 405.467C233.447 405.467 234.271 406.326 234.299 408.044V413H233.034V408.119C233.034 407.59 232.913 407.196 232.672 406.937C232.43 406.672 232.025 406.54 231.455 406.54C230.986 406.54 230.596 406.681 230.286 406.964C229.976 407.242 229.796 407.618 229.746 408.092V413H228.475V408.153C228.475 407.078 227.948 406.54 226.896 406.54C226.066 406.54 225.499 406.893 225.193 407.6V413H223.929V405.604H225.125ZM239.282 413.137C238.28 413.137 237.464 412.809 236.835 412.152C236.206 411.492 235.892 410.61 235.892 409.507V409.274C235.892 408.541 236.031 407.887 236.309 407.312C236.591 406.734 236.983 406.283 237.484 405.959C237.99 405.631 238.537 405.467 239.125 405.467C240.087 405.467 240.834 405.784 241.367 406.417C241.9 407.05 242.167 407.957 242.167 409.138V409.664H237.156C237.174 410.393 237.386 410.983 237.792 411.435C238.202 411.881 238.722 412.104 239.351 412.104C239.797 412.104 240.175 412.013 240.485 411.831C240.795 411.649 241.066 411.407 241.299 411.106L242.071 411.708C241.451 412.66 240.522 413.137 239.282 413.137ZM239.125 406.506C238.615 406.506 238.186 406.693 237.84 407.066C237.493 407.436 237.279 407.955 237.197 408.625H240.902V408.529C240.866 407.887 240.693 407.39 240.383 407.039C240.073 406.684 239.654 406.506 239.125 406.506ZM244.833 405.604L244.874 406.533C245.439 405.822 246.177 405.467 247.089 405.467C248.652 405.467 249.44 406.349 249.454 408.112V413H248.189V408.105C248.185 407.572 248.062 407.178 247.82 406.923C247.583 406.668 247.212 406.54 246.706 406.54C246.296 406.54 245.936 406.649 245.626 406.868C245.316 407.087 245.075 407.374 244.901 407.729V413H243.637V405.604H244.833ZM253.077 403.812V405.604H254.458V406.581H253.077V411.168C253.077 411.464 253.139 411.688 253.262 411.838C253.385 411.984 253.594 412.057 253.891 412.057C254.036 412.057 254.237 412.029 254.492 411.975V413C254.16 413.091 253.836 413.137 253.521 413.137C252.956 413.137 252.53 412.966 252.243 412.624C251.956 412.282 251.812 411.797 251.812 411.168V406.581H250.466V405.604H251.812V403.812H253.077Z" fill="black"/>
<path d="M77 152.5H337C342.247 152.5 346.5 156.753 346.5 162V273C346.5 278.247 342.247 282.5 337 282.5H77C71.7533 282.5 67.5 278.247 67.5 273V162C67.5 156.753 71.7533 152.5 77 152.5Z" fill="white" stroke="black"/>
<path d="M90.7148 217.26C90.7148 216.726 90.5651 216.303 90.2656 215.99C89.9727 215.671 89.4714 215.378 88.7617 215.111C88.0521 214.844 87.4401 214.581 86.9258 214.32C86.4115 214.053 85.9688 213.751 85.5977 213.412C85.2331 213.067 84.9466 212.663 84.7383 212.201C84.5365 211.739 84.4355 211.189 84.4355 210.551C84.4355 209.451 84.7871 208.549 85.4902 207.846C86.1934 207.143 87.1276 206.732 88.293 206.615V204.525H89.8555V206.645C91.0078 206.807 91.9095 207.289 92.5605 208.09C93.2116 208.884 93.5371 209.916 93.5371 211.186H90.7148C90.7148 210.404 90.5521 209.822 90.2266 209.438C89.9076 209.047 89.4779 208.852 88.9375 208.852C88.4036 208.852 87.9902 209.005 87.6973 209.311C87.4043 209.61 87.2578 210.027 87.2578 210.561C87.2578 211.055 87.401 211.452 87.6875 211.752C87.974 212.051 88.5046 212.357 89.2793 212.67C90.0605 212.982 90.7018 213.279 91.2031 213.559C91.7044 213.832 92.1276 214.145 92.4727 214.496C92.8177 214.841 93.0814 215.238 93.2637 215.688C93.446 216.13 93.5371 216.648 93.5371 217.24C93.5371 218.347 93.1921 219.245 92.502 219.936C91.8118 220.626 90.8613 221.033 89.6504 221.156V223.1H88.0977V221.166C86.763 221.023 85.7279 220.551 84.9922 219.75C84.263 218.943 83.8984 217.872 83.8984 216.537H86.7207C86.7207 217.312 86.903 217.908 87.2676 218.324C87.6387 218.734 88.1693 218.939 88.8594 218.939C89.4323 218.939 89.8848 218.79 90.2168 218.49C90.5488 218.184 90.7148 217.774 90.7148 217.26ZM102.307 221H99.4844V210.121L96.1152 211.166V208.871L102.004 206.762H102.307V221ZM109.807 212.641H111.311C112.027 212.641 112.557 212.462 112.902 212.104C113.247 211.745 113.42 211.27 113.42 210.678C113.42 210.105 113.247 209.659 112.902 209.34C112.564 209.021 112.095 208.861 111.496 208.861C110.956 208.861 110.503 209.011 110.139 209.311C109.774 209.604 109.592 209.988 109.592 210.463H106.77C106.77 209.721 106.968 209.057 107.365 208.471C107.769 207.878 108.329 207.416 109.045 207.084C109.768 206.752 110.562 206.586 111.428 206.586C112.932 206.586 114.11 206.947 114.963 207.67C115.816 208.386 116.242 209.376 116.242 210.639C116.242 211.29 116.044 211.889 115.646 212.436C115.249 212.982 114.729 213.402 114.084 213.695C114.885 213.982 115.48 214.411 115.871 214.984C116.268 215.557 116.467 216.234 116.467 217.016C116.467 218.279 116.005 219.291 115.08 220.053C114.162 220.814 112.945 221.195 111.428 221.195C110.008 221.195 108.846 220.821 107.941 220.072C107.043 219.324 106.594 218.334 106.594 217.104H109.416C109.416 217.637 109.615 218.074 110.012 218.412C110.415 218.751 110.91 218.92 111.496 218.92C112.167 218.92 112.691 218.744 113.068 218.393C113.452 218.035 113.645 217.562 113.645 216.977C113.645 215.557 112.863 214.848 111.301 214.848H109.807V212.641ZM125.275 221H122.453V210.121L119.084 211.166V208.871L124.973 206.762H125.275V221ZM130.168 219.613C130.168 219.164 130.318 218.799 130.617 218.52C130.923 218.24 131.304 218.1 131.76 218.1C132.222 218.1 132.603 218.24 132.902 218.52C133.208 218.799 133.361 219.164 133.361 219.613C133.361 220.056 133.212 220.417 132.912 220.697C132.613 220.971 132.229 221.107 131.76 221.107C131.298 221.107 130.917 220.971 130.617 220.697C130.318 220.417 130.168 220.056 130.168 219.613ZM144.074 215.648H145.686V217.924H144.074V221H141.252V217.924H135.422L135.295 216.146L141.223 206.781H144.074V215.648ZM138.107 215.648H141.252V210.629L141.066 210.951L138.107 215.648ZM156.779 215.121C156.779 217.087 156.372 218.591 155.559 219.633C154.745 220.674 153.553 221.195 151.984 221.195C150.435 221.195 149.25 220.684 148.43 219.662C147.609 218.64 147.189 217.175 147.17 215.268V212.65C147.17 210.665 147.58 209.158 148.4 208.129C149.227 207.1 150.415 206.586 151.965 206.586C153.514 206.586 154.699 207.097 155.52 208.119C156.34 209.135 156.76 210.596 156.779 212.504V215.121ZM153.957 212.25C153.957 211.072 153.794 210.215 153.469 209.682C153.15 209.141 152.648 208.871 151.965 208.871C151.301 208.871 150.809 209.128 150.49 209.643C150.178 210.15 150.012 210.948 149.992 212.035V215.492C149.992 216.651 150.148 217.514 150.461 218.08C150.78 218.64 151.288 218.92 151.984 218.92C152.674 218.92 153.173 218.65 153.479 218.109C153.785 217.569 153.944 216.742 153.957 215.629V212.25ZM159.699 222.221H157.6L162.834 206.781H164.934L159.699 222.221ZM176.154 213.92L179.865 206.781H181.994L177.092 215.697V221H175.217V215.697L170.314 206.781H172.463L176.154 213.92ZM187.287 221.195C185.855 221.195 184.689 220.727 183.791 219.789C182.893 218.845 182.443 217.585 182.443 216.01V215.678C182.443 214.63 182.642 213.695 183.039 212.875C183.443 212.048 184.003 211.404 184.719 210.941C185.441 210.473 186.223 210.238 187.062 210.238C188.436 210.238 189.504 210.691 190.266 211.596C191.027 212.501 191.408 213.796 191.408 215.482V216.234H184.25C184.276 217.276 184.579 218.119 185.158 218.764C185.744 219.402 186.486 219.721 187.385 219.721C188.023 219.721 188.563 219.59 189.006 219.33C189.449 219.07 189.836 218.725 190.168 218.295L191.271 219.154C190.386 220.515 189.058 221.195 187.287 221.195ZM187.062 211.723C186.333 211.723 185.721 211.99 185.227 212.523C184.732 213.051 184.426 213.793 184.309 214.75H189.602V214.613C189.549 213.695 189.302 212.986 188.859 212.484C188.417 211.977 187.818 211.723 187.062 211.723ZM200.031 221C199.927 220.792 199.842 220.421 199.777 219.887C198.938 220.759 197.935 221.195 196.77 221.195C195.728 221.195 194.872 220.902 194.201 220.316C193.537 219.724 193.205 218.975 193.205 218.07C193.205 216.97 193.622 216.117 194.455 215.512C195.295 214.9 196.473 214.594 197.99 214.594H199.748V213.764C199.748 213.132 199.559 212.631 199.182 212.26C198.804 211.882 198.247 211.693 197.512 211.693C196.867 211.693 196.327 211.856 195.891 212.182C195.454 212.507 195.236 212.901 195.236 213.363H193.42C193.42 212.836 193.605 212.328 193.977 211.84C194.354 211.345 194.862 210.954 195.5 210.668C196.145 210.382 196.851 210.238 197.619 210.238C198.837 210.238 199.79 210.544 200.48 211.156C201.171 211.762 201.529 212.598 201.555 213.666V218.529C201.555 219.499 201.678 220.271 201.926 220.844V221H200.031ZM197.033 219.623C197.6 219.623 198.137 219.477 198.645 219.184C199.152 218.891 199.52 218.51 199.748 218.041V215.873H198.332C196.118 215.873 195.012 216.521 195.012 217.816C195.012 218.383 195.201 218.826 195.578 219.145C195.956 219.464 196.441 219.623 197.033 219.623ZM209.494 212.055C209.221 212.009 208.924 211.986 208.605 211.986C207.421 211.986 206.617 212.491 206.193 213.5V221H204.387V210.434H206.145L206.174 211.654C206.766 210.71 207.606 210.238 208.693 210.238C209.045 210.238 209.312 210.284 209.494 210.375V212.055Z" fill="black"/>
<path d="M91.7188 185.085H86.1729V189.62H92.6152V191H84.4854V178.203H92.5273V179.592H86.1729V183.705H91.7188V185.085ZM100.332 191C100.238 190.812 100.162 190.479 100.104 189.998C99.3477 190.783 98.4453 191.176 97.3965 191.176C96.459 191.176 95.6885 190.912 95.085 190.385C94.4873 189.852 94.1885 189.178 94.1885 188.363C94.1885 187.373 94.5635 186.605 95.3135 186.061C96.0693 185.51 97.1299 185.234 98.4951 185.234H100.077V184.487C100.077 183.919 99.9072 183.468 99.5674 183.134C99.2275 182.794 98.7266 182.624 98.0645 182.624C97.4844 182.624 96.998 182.771 96.6055 183.063C96.2129 183.356 96.0166 183.711 96.0166 184.127H94.3818C94.3818 183.652 94.5488 183.195 94.8828 182.756C95.2227 182.311 95.6797 181.959 96.2539 181.701C96.834 181.443 97.4697 181.314 98.1611 181.314C99.2568 181.314 100.115 181.59 100.736 182.141C101.357 182.686 101.68 183.438 101.703 184.399V188.776C101.703 189.649 101.814 190.344 102.037 190.859V191H100.332ZM97.6338 189.761C98.1436 189.761 98.627 189.629 99.084 189.365C99.541 189.102 99.8721 188.759 100.077 188.337V186.386H98.8027C96.8105 186.386 95.8145 186.969 95.8145 188.135C95.8145 188.645 95.9844 189.043 96.3242 189.33C96.6641 189.617 97.1006 189.761 97.6338 189.761ZM108.849 182.949C108.603 182.908 108.336 182.888 108.049 182.888C106.982 182.888 106.259 183.342 105.878 184.25V191H104.252V181.49H105.834L105.86 182.589C106.394 181.739 107.149 181.314 108.128 181.314C108.444 181.314 108.685 181.355 108.849 181.438V182.949ZM112.997 179.188V181.49H114.772V182.747H112.997V188.645C112.997 189.025 113.076 189.312 113.234 189.506C113.393 189.693 113.662 189.787 114.043 189.787C114.23 189.787 114.488 189.752 114.816 189.682V191C114.389 191.117 113.973 191.176 113.568 191.176C112.842 191.176 112.294 190.956 111.925 190.517C111.556 190.077 111.371 189.453 111.371 188.645V182.747H109.64V181.49H111.371V179.188H112.997ZM118.306 182.642C119.026 181.757 119.964 181.314 121.118 181.314C123.128 181.314 124.142 182.448 124.159 184.716V191H122.533V184.707C122.527 184.021 122.369 183.515 122.059 183.187C121.754 182.858 121.276 182.694 120.626 182.694C120.099 182.694 119.636 182.835 119.237 183.116C118.839 183.397 118.528 183.767 118.306 184.224V191H116.68V177.5H118.306V182.642ZM133.493 178.203L137.677 188.645L141.86 178.203H144.049V191H142.361V186.017L142.52 180.638L138.318 191H137.026L132.834 180.664L133.001 186.017V191H131.313V178.203H133.493ZM150.72 191.176C149.431 191.176 148.382 190.754 147.573 189.91C146.765 189.061 146.36 187.927 146.36 186.509V186.21C146.36 185.267 146.539 184.426 146.896 183.688C147.26 182.943 147.764 182.363 148.408 181.947C149.059 181.525 149.762 181.314 150.518 181.314C151.754 181.314 152.715 181.722 153.4 182.536C154.086 183.351 154.429 184.517 154.429 186.034V186.711H147.986C148.01 187.648 148.282 188.407 148.804 188.987C149.331 189.562 149.999 189.849 150.808 189.849C151.382 189.849 151.868 189.731 152.267 189.497C152.665 189.263 153.014 188.952 153.312 188.565L154.306 189.339C153.509 190.563 152.313 191.176 150.72 191.176ZM150.518 182.65C149.861 182.65 149.311 182.891 148.865 183.371C148.42 183.846 148.145 184.514 148.039 185.375H152.803V185.252C152.756 184.426 152.533 183.787 152.135 183.336C151.736 182.879 151.197 182.65 150.518 182.65ZM157.848 181.49L157.892 182.545C158.589 181.725 159.529 181.314 160.713 181.314C162.043 181.314 162.948 181.824 163.429 182.844C163.745 182.387 164.155 182.018 164.659 181.736C165.169 181.455 165.77 181.314 166.461 181.314C168.547 181.314 169.607 182.419 169.643 184.628V191H168.017V184.725C168.017 184.045 167.861 183.538 167.551 183.204C167.24 182.864 166.719 182.694 165.986 182.694C165.383 182.694 164.882 182.876 164.483 183.239C164.085 183.597 163.854 184.08 163.789 184.689V191H162.154V184.769C162.154 183.386 161.478 182.694 160.124 182.694C159.058 182.694 158.328 183.148 157.936 184.057V191H156.31V181.49H157.848ZM180.154 186.351C180.154 187.804 179.82 188.973 179.152 189.857C178.484 190.736 177.588 191.176 176.463 191.176C175.262 191.176 174.333 190.751 173.677 189.901L173.598 191H172.104V177.5H173.729V182.536C174.386 181.722 175.291 181.314 176.445 181.314C177.6 181.314 178.505 181.751 179.161 182.624C179.823 183.497 180.154 184.692 180.154 186.21V186.351ZM178.528 186.166C178.528 185.059 178.314 184.203 177.887 183.6C177.459 182.996 176.844 182.694 176.041 182.694C174.969 182.694 174.198 183.192 173.729 184.188V188.302C174.228 189.298 175.004 189.796 176.059 189.796C176.838 189.796 177.444 189.494 177.878 188.891C178.312 188.287 178.528 187.379 178.528 186.166ZM186.157 191.176C184.868 191.176 183.819 190.754 183.011 189.91C182.202 189.061 181.798 187.927 181.798 186.509V186.21C181.798 185.267 181.977 184.426 182.334 183.688C182.697 182.943 183.201 182.363 183.846 181.947C184.496 181.525 185.199 181.314 185.955 181.314C187.191 181.314 188.152 181.722 188.838 182.536C189.523 183.351 189.866 184.517 189.866 186.034V186.711H183.424C183.447 187.648 183.72 188.407 184.241 188.987C184.769 189.562 185.437 189.849 186.245 189.849C186.819 189.849 187.306 189.731 187.704 189.497C188.103 189.263 188.451 188.952 188.75 188.565L189.743 189.339C188.946 190.563 187.751 191.176 186.157 191.176ZM185.955 182.65C185.299 182.65 184.748 182.891 184.303 183.371C183.857 183.846 183.582 184.514 183.477 185.375H188.24V185.252C188.193 184.426 187.971 183.787 187.572 183.336C187.174 182.879 186.635 182.65 185.955 182.65ZM196.353 182.949C196.106 182.908 195.84 182.888 195.553 182.888C194.486 182.888 193.763 183.342 193.382 184.25V191H191.756V181.49H193.338L193.364 182.589C193.897 181.739 194.653 181.314 195.632 181.314C195.948 181.314 196.188 181.355 196.353 181.438V182.949ZM203.393 188.478C203.393 188.038 203.226 187.698 202.892 187.458C202.563 187.212 201.986 187.001 201.16 186.825C200.34 186.649 199.687 186.438 199.2 186.192C198.72 185.946 198.362 185.653 198.128 185.313C197.899 184.974 197.785 184.569 197.785 184.101C197.785 183.321 198.113 182.662 198.77 182.123C199.432 181.584 200.275 181.314 201.301 181.314C202.379 181.314 203.252 181.593 203.92 182.149C204.594 182.706 204.931 183.418 204.931 184.285H203.296C203.296 183.84 203.105 183.456 202.725 183.134C202.35 182.812 201.875 182.65 201.301 182.65C200.709 182.65 200.246 182.779 199.912 183.037C199.578 183.295 199.411 183.632 199.411 184.048C199.411 184.44 199.566 184.736 199.877 184.936C200.188 185.135 200.747 185.325 201.556 185.507C202.37 185.688 203.029 185.905 203.533 186.157C204.037 186.409 204.409 186.714 204.649 187.071C204.896 187.423 205.019 187.854 205.019 188.363C205.019 189.213 204.679 189.896 203.999 190.411C203.319 190.921 202.438 191.176 201.354 191.176C200.592 191.176 199.918 191.041 199.332 190.771C198.746 190.502 198.286 190.127 197.952 189.646C197.624 189.16 197.46 188.636 197.46 188.073H199.086C199.115 188.618 199.332 189.052 199.736 189.374C200.146 189.69 200.686 189.849 201.354 189.849C201.969 189.849 202.461 189.726 202.83 189.479C203.205 189.228 203.393 188.894 203.393 188.478ZM208.763 182.642C209.483 181.757 210.421 181.314 211.575 181.314C213.585 181.314 214.599 182.448 214.616 184.716V191H212.99V184.707C212.984 184.021 212.826 183.515 212.516 183.187C212.211 182.858 211.733 182.694 211.083 182.694C210.556 182.694 210.093 182.835 209.694 183.116C209.296 183.397 208.985 183.767 208.763 184.224V191H207.137V177.5H208.763V182.642ZM218.817 191H217.191V181.49H218.817V191ZM217.06 178.968C217.06 178.704 217.139 178.481 217.297 178.3C217.461 178.118 217.701 178.027 218.018 178.027C218.334 178.027 218.574 178.118 218.738 178.3C218.902 178.481 218.984 178.704 218.984 178.968C218.984 179.231 218.902 179.451 218.738 179.627C218.574 179.803 218.334 179.891 218.018 179.891C217.701 179.891 217.461 179.803 217.297 179.627C217.139 179.451 217.06 179.231 217.06 178.968ZM229.461 186.351C229.461 187.798 229.13 188.964 228.468 189.849C227.806 190.733 226.909 191.176 225.778 191.176C224.624 191.176 223.716 190.81 223.054 190.077V194.656H221.428V181.49H222.913L222.992 182.545C223.654 181.725 224.574 181.314 225.752 181.314C226.895 181.314 227.797 181.745 228.459 182.606C229.127 183.468 229.461 184.666 229.461 186.201V186.351ZM227.835 186.166C227.835 185.094 227.606 184.247 227.149 183.626C226.692 183.005 226.065 182.694 225.269 182.694C224.284 182.694 223.546 183.131 223.054 184.004V188.548C223.54 189.415 224.284 189.849 225.286 189.849C226.065 189.849 226.684 189.541 227.141 188.926C227.604 188.305 227.835 187.385 227.835 186.166Z" fill="black"/>
<path d="M322.5 212C322.5 229.428 309.262 243.5 293 243.5C276.738 243.5 263.5 229.428 263.5 212C263.5 194.572 276.738 180.5 293 180.5C309.262 180.5 322.5 194.572 322.5 212Z" fill="white" stroke="black"/>
<path d="M308.099 202.634L293.51 227.902L278.921 202.634L308.099 202.634Z" stroke="black"/>
<line x1="309.053" y1="216.737" x2="277.967" y2="216.737" stroke="black"/>
<rect x="83.5" y="239.5" width="70" height="15" rx="7.5" fill="#E5E5E5" stroke="black"/>
<path d="M90.0361 242.891L92.3604 248.691L94.6846 242.891H95.9004V250H94.9629V247.231L95.0508 244.243L92.7168 250H91.999L89.6699 244.258L89.7627 247.231V250H88.8252V242.891H90.0361ZM97.1748 247.31C97.1748 246.792 97.2757 246.326 97.4775 245.913C97.6826 245.5 97.9658 245.181 98.3271 244.956C98.6917 244.731 99.1068 244.619 99.5723 244.619C100.292 244.619 100.873 244.868 101.315 245.366C101.761 245.864 101.984 246.527 101.984 247.354V247.417C101.984 247.931 101.885 248.394 101.687 248.804C101.491 249.211 101.21 249.528 100.842 249.756C100.477 249.984 100.057 250.098 99.582 250.098C98.8659 250.098 98.2848 249.849 97.8389 249.351C97.3962 248.853 97.1748 248.193 97.1748 247.373V247.31ZM98.083 247.417C98.083 248.003 98.2181 248.473 98.4883 248.828C98.7617 249.183 99.1263 249.36 99.582 249.36C100.041 249.36 100.406 249.181 100.676 248.823C100.946 248.462 101.081 247.957 101.081 247.31C101.081 246.73 100.943 246.261 100.666 245.903C100.393 245.542 100.028 245.361 99.5723 245.361C99.1263 245.361 98.7666 245.539 98.4932 245.894C98.2197 246.248 98.083 246.756 98.083 247.417ZM106.193 248.599C106.193 248.354 106.101 248.166 105.915 248.032C105.733 247.896 105.412 247.778 104.953 247.681C104.497 247.583 104.134 247.466 103.864 247.329C103.597 247.192 103.399 247.03 103.269 246.841C103.142 246.652 103.078 246.427 103.078 246.167C103.078 245.734 103.26 245.368 103.625 245.068C103.993 244.769 104.462 244.619 105.031 244.619C105.63 244.619 106.115 244.774 106.486 245.083C106.861 245.392 107.048 245.788 107.048 246.27H106.14C106.14 246.022 106.034 245.809 105.822 245.63C105.614 245.451 105.35 245.361 105.031 245.361C104.702 245.361 104.445 245.433 104.26 245.576C104.074 245.719 103.981 245.907 103.981 246.138C103.981 246.356 104.068 246.52 104.24 246.631C104.413 246.742 104.724 246.847 105.173 246.948C105.625 247.049 105.992 247.17 106.271 247.31C106.551 247.45 106.758 247.619 106.892 247.817C107.028 248.013 107.097 248.252 107.097 248.535C107.097 249.007 106.908 249.386 106.53 249.673C106.153 249.956 105.663 250.098 105.061 250.098C104.637 250.098 104.263 250.023 103.938 249.873C103.612 249.723 103.356 249.515 103.171 249.248C102.989 248.978 102.897 248.687 102.897 248.374H103.801C103.817 248.677 103.938 248.918 104.162 249.097C104.39 249.272 104.689 249.36 105.061 249.36C105.402 249.36 105.676 249.292 105.881 249.155C106.089 249.015 106.193 248.83 106.193 248.599ZM109.499 243.438V244.717H110.485V245.415H109.499V248.691C109.499 248.903 109.543 249.062 109.631 249.17C109.719 249.274 109.868 249.326 110.08 249.326C110.184 249.326 110.327 249.307 110.51 249.268V250C110.272 250.065 110.041 250.098 109.816 250.098C109.413 250.098 109.108 249.976 108.903 249.731C108.698 249.487 108.596 249.141 108.596 248.691V245.415H107.634V244.717H108.596V243.438H109.499ZM115.104 247.217V250H114.167V242.891H116.789C117.567 242.891 118.176 243.089 118.615 243.486C119.058 243.883 119.279 244.409 119.279 245.063C119.279 245.754 119.063 246.286 118.63 246.66C118.2 247.031 117.583 247.217 116.779 247.217H115.104ZM115.104 246.45H116.789C117.29 246.45 117.674 246.333 117.941 246.099C118.208 245.861 118.342 245.519 118.342 245.073C118.342 244.65 118.208 244.312 117.941 244.058C117.674 243.804 117.308 243.672 116.843 243.662H115.104V246.45ZM120.026 247.31C120.026 246.792 120.127 246.326 120.329 245.913C120.534 245.5 120.817 245.181 121.179 244.956C121.543 244.731 121.958 244.619 122.424 244.619C123.143 244.619 123.724 244.868 124.167 245.366C124.613 245.864 124.836 246.527 124.836 247.354V247.417C124.836 247.931 124.737 248.394 124.538 248.804C124.343 249.211 124.061 249.528 123.693 249.756C123.329 249.984 122.909 250.098 122.434 250.098C121.717 250.098 121.136 249.849 120.69 249.351C120.248 248.853 120.026 248.193 120.026 247.373V247.31ZM120.935 247.417C120.935 248.003 121.07 248.473 121.34 248.828C121.613 249.183 121.978 249.36 122.434 249.36C122.893 249.36 123.257 249.181 123.527 248.823C123.798 248.462 123.933 247.957 123.933 247.31C123.933 246.73 123.794 246.261 123.518 245.903C123.244 245.542 122.88 245.361 122.424 245.361C121.978 245.361 121.618 245.539 121.345 245.894C121.071 246.248 120.935 246.756 120.935 247.417ZM130.432 247.417C130.432 248.221 130.248 248.869 129.88 249.36C129.512 249.852 129.014 250.098 128.386 250.098C127.744 250.098 127.24 249.894 126.872 249.487V252.031H125.969V244.717H126.794L126.838 245.303C127.206 244.847 127.717 244.619 128.371 244.619C129.006 244.619 129.507 244.858 129.875 245.337C130.246 245.815 130.432 246.481 130.432 247.334V247.417ZM129.528 247.314C129.528 246.719 129.401 246.248 129.147 245.903C128.894 245.558 128.545 245.386 128.103 245.386C127.556 245.386 127.146 245.628 126.872 246.113V248.638C127.142 249.119 127.556 249.36 128.112 249.36C128.545 249.36 128.889 249.189 129.143 248.848C129.4 248.503 129.528 247.992 129.528 247.314ZM134.846 249.478C134.494 249.891 133.978 250.098 133.298 250.098C132.735 250.098 132.305 249.935 132.009 249.609C131.716 249.281 131.568 248.796 131.564 248.154V244.717H132.468V248.13C132.468 248.931 132.793 249.331 133.444 249.331C134.134 249.331 134.593 249.074 134.821 248.56V244.717H135.725V250H134.865L134.846 249.478ZM138.083 250H137.18V242.5H138.083V250ZM142.795 250C142.743 249.896 142.701 249.71 142.668 249.443C142.248 249.88 141.747 250.098 141.164 250.098C140.643 250.098 140.215 249.951 139.88 249.658C139.548 249.362 139.382 248.988 139.382 248.535C139.382 247.985 139.59 247.559 140.007 247.256C140.427 246.95 141.016 246.797 141.774 246.797H142.653V246.382C142.653 246.066 142.559 245.815 142.37 245.63C142.181 245.441 141.903 245.347 141.535 245.347C141.213 245.347 140.943 245.428 140.725 245.591C140.507 245.754 140.397 245.951 140.397 246.182H139.489C139.489 245.918 139.582 245.664 139.768 245.42C139.956 245.173 140.21 244.977 140.529 244.834C140.852 244.691 141.205 244.619 141.589 244.619C142.198 244.619 142.674 244.772 143.02 245.078C143.365 245.381 143.544 245.799 143.557 246.333V248.765C143.557 249.25 143.618 249.635 143.742 249.922V250H142.795ZM141.296 249.312C141.579 249.312 141.848 249.238 142.102 249.092C142.355 248.945 142.539 248.755 142.653 248.521V247.437H141.945C140.839 247.437 140.285 247.76 140.285 248.408C140.285 248.691 140.38 248.913 140.568 249.072C140.757 249.232 141 249.312 141.296 249.312ZM147.526 245.527C147.39 245.505 147.242 245.493 147.082 245.493C146.49 245.493 146.088 245.745 145.876 246.25V250H144.973V244.717H145.852L145.866 245.327C146.162 244.855 146.582 244.619 147.126 244.619C147.302 244.619 147.435 244.642 147.526 244.688V245.527Z" fill="black"/>
<circle cx="336.5" cy="157.5" r="10.5" fill="black"/>
<path d="M335.803 158.601L333.45 156.32L332 157.726L335.078 160.709C335.27 160.895 335.531 161 335.803 161C336.075 161 336.336 160.895 336.528 160.709L342 155.405L340.55 154L335.803 158.601Z" fill="white"/>
<path d="M71.6719 316.93C70.3854 316.56 69.4479 316.107 68.8594 315.57C68.276 315.029 67.9844 314.362 67.9844 313.57C67.9844 312.674 68.3411 311.935 69.0547 311.352C69.7734 310.763 70.7057 310.469 71.8516 310.469C72.6328 310.469 73.3281 310.62 73.9375 310.922C74.5521 311.224 75.026 311.641 75.3594 312.172C75.6979 312.703 75.8672 313.284 75.8672 313.914H74.3594C74.3594 313.227 74.1406 312.688 73.7031 312.297C73.2656 311.901 72.6484 311.703 71.8516 311.703C71.112 311.703 70.5339 311.867 70.1172 312.195C69.7057 312.518 69.5 312.969 69.5 313.547C69.5 314.01 69.6953 314.404 70.0859 314.727C70.4818 315.044 71.151 315.336 72.0938 315.602C73.0417 315.867 73.7812 316.161 74.3125 316.484C74.849 316.802 75.2448 317.174 75.5 317.602C75.7604 318.029 75.8906 318.531 75.8906 319.109C75.8906 320.031 75.5312 320.771 74.8125 321.328C74.0938 321.88 73.1328 322.156 71.9297 322.156C71.1484 322.156 70.4193 322.008 69.7422 321.711C69.0651 321.409 68.5417 320.997 68.1719 320.477C67.8073 319.956 67.625 319.365 67.625 318.703H69.1328C69.1328 319.391 69.3854 319.935 69.8906 320.336C70.401 320.732 71.0807 320.93 71.9297 320.93C72.7214 320.93 73.3281 320.768 73.75 320.445C74.1719 320.122 74.3828 319.682 74.3828 319.125C74.3828 318.568 74.1875 318.138 73.7969 317.836C73.4062 317.529 72.6979 317.227 71.6719 316.93ZM82.8125 322C82.7292 321.833 82.6615 321.536 82.6094 321.109C81.9375 321.807 81.1354 322.156 80.2031 322.156C79.3698 322.156 78.6849 321.922 78.1484 321.453C77.6172 320.979 77.3516 320.38 77.3516 319.656C77.3516 318.776 77.6849 318.094 78.3516 317.609C79.0234 317.12 79.9661 316.875 81.1797 316.875H82.5859V316.211C82.5859 315.706 82.4349 315.305 82.1328 315.008C81.8307 314.706 81.3854 314.555 80.7969 314.555C80.2812 314.555 79.849 314.685 79.5 314.945C79.151 315.206 78.9766 315.521 78.9766 315.891H77.5234C77.5234 315.469 77.6719 315.062 77.9688 314.672C78.2708 314.276 78.6771 313.964 79.1875 313.734C79.7031 313.505 80.2682 313.391 80.8828 313.391C81.8568 313.391 82.6198 313.635 83.1719 314.125C83.724 314.609 84.0104 315.279 84.0312 316.133V320.023C84.0312 320.799 84.1302 321.417 84.3281 321.875V322H82.8125ZM80.4141 320.898C80.8672 320.898 81.2969 320.781 81.7031 320.547C82.1094 320.312 82.4036 320.008 82.5859 319.633V317.898H81.4531C79.6823 317.898 78.7969 318.417 78.7969 319.453C78.7969 319.906 78.9479 320.26 79.25 320.516C79.5521 320.771 79.9401 320.898 80.4141 320.898ZM87.8672 322H86.4219V310H87.8672V322ZM93.6953 322.156C92.5495 322.156 91.6172 321.781 90.8984 321.031C90.1797 320.276 89.8203 319.268 89.8203 318.008V317.742C89.8203 316.904 89.9792 316.156 90.2969 315.5C90.6198 314.839 91.0677 314.323 91.6406 313.953C92.2188 313.578 92.8438 313.391 93.5156 313.391C94.6146 313.391 95.4688 313.753 96.0781 314.477C96.6875 315.201 96.9922 316.237 96.9922 317.586V318.188H91.2656C91.2865 319.021 91.5286 319.695 91.9922 320.211C92.4609 320.721 93.0547 320.977 93.7734 320.977C94.2839 320.977 94.7161 320.872 95.0703 320.664C95.4245 320.456 95.7344 320.18 96 319.836L96.8828 320.523C96.1745 321.612 95.112 322.156 93.6953 322.156ZM93.5156 314.578C92.9323 314.578 92.4427 314.792 92.0469 315.219C91.651 315.641 91.4062 316.234 91.3125 317H95.5469V316.891C95.5052 316.156 95.3073 315.589 94.9531 315.188C94.599 314.781 94.1198 314.578 93.5156 314.578ZM103.594 319.758C103.594 319.367 103.445 319.065 103.148 318.852C102.857 318.633 102.344 318.445 101.609 318.289C100.88 318.133 100.299 317.945 99.8672 317.727C99.4401 317.508 99.1224 317.247 98.9141 316.945C98.7109 316.643 98.6094 316.284 98.6094 315.867C98.6094 315.174 98.901 314.589 99.4844 314.109C100.073 313.63 100.823 313.391 101.734 313.391C102.693 313.391 103.469 313.638 104.062 314.133C104.661 314.628 104.961 315.26 104.961 316.031H103.508C103.508 315.635 103.339 315.294 103 315.008C102.667 314.721 102.245 314.578 101.734 314.578C101.208 314.578 100.797 314.693 100.5 314.922C100.203 315.151 100.055 315.451 100.055 315.82C100.055 316.169 100.193 316.432 100.469 316.609C100.745 316.786 101.242 316.956 101.961 317.117C102.685 317.279 103.271 317.471 103.719 317.695C104.167 317.919 104.497 318.19 104.711 318.508C104.93 318.82 105.039 319.203 105.039 319.656C105.039 320.411 104.737 321.018 104.133 321.477C103.529 321.93 102.745 322.156 101.781 322.156C101.104 322.156 100.505 322.036 99.9844 321.797C99.4635 321.557 99.0547 321.224 98.7578 320.797C98.4661 320.365 98.3203 319.898 98.3203 319.398H99.7656C99.7917 319.883 99.9844 320.268 100.344 320.555C100.708 320.836 101.188 320.977 101.781 320.977C102.328 320.977 102.766 320.867 103.094 320.648C103.427 320.424 103.594 320.128 103.594 319.758ZM118.664 311.859H115.008V322H113.516V311.859H109.867V310.625H118.664V311.859ZM124.453 322C124.37 321.833 124.302 321.536 124.25 321.109C123.578 321.807 122.776 322.156 121.844 322.156C121.01 322.156 120.326 321.922 119.789 321.453C119.258 320.979 118.992 320.38 118.992 319.656C118.992 318.776 119.326 318.094 119.992 317.609C120.664 317.12 121.607 316.875 122.82 316.875H124.227V316.211C124.227 315.706 124.076 315.305 123.773 315.008C123.471 314.706 123.026 314.555 122.438 314.555C121.922 314.555 121.49 314.685 121.141 314.945C120.792 315.206 120.617 315.521 120.617 315.891H119.164C119.164 315.469 119.312 315.062 119.609 314.672C119.911 314.276 120.318 313.964 120.828 313.734C121.344 313.505 121.909 313.391 122.523 313.391C123.497 313.391 124.26 313.635 124.812 314.125C125.365 314.609 125.651 315.279 125.672 316.133V320.023C125.672 320.799 125.771 321.417 125.969 321.875V322H124.453ZM122.055 320.898C122.508 320.898 122.938 320.781 123.344 320.547C123.75 320.312 124.044 320.008 124.227 319.633V317.898H123.094C121.323 317.898 120.438 318.417 120.438 319.453C120.438 319.906 120.589 320.26 120.891 320.516C121.193 320.771 121.581 320.898 122.055 320.898ZM130.773 316.633L132.648 313.547H134.336L131.57 317.727L134.422 322H132.75L130.797 318.836L128.844 322H127.164L130.016 317.727L127.25 313.547H128.922L130.773 316.633ZM139.789 317.383C139.789 316.206 139.945 315.076 140.258 313.992C140.576 312.909 141.047 311.924 141.672 311.039C142.297 310.154 142.945 309.529 143.617 309.164L143.914 310.117C143.154 310.701 142.529 311.591 142.039 312.789C141.555 313.987 141.289 315.328 141.242 316.812L141.234 317.477C141.234 319.487 141.602 321.232 142.336 322.711C142.779 323.596 143.305 324.289 143.914 324.789L143.617 325.672C142.924 325.286 142.263 324.641 141.633 323.734C140.404 321.964 139.789 319.846 139.789 317.383ZM153.398 311.859H149.742V322H148.25V311.859H144.602V310.625H153.398V311.859ZM155.086 322V310.625H158.805C160.039 310.625 160.966 310.88 161.586 311.391C162.211 311.901 162.523 312.656 162.523 313.656C162.523 314.188 162.372 314.659 162.07 315.07C161.768 315.477 161.357 315.792 160.836 316.016C161.451 316.188 161.935 316.516 162.289 317C162.648 317.479 162.828 318.052 162.828 318.719C162.828 319.74 162.497 320.542 161.836 321.125C161.174 321.708 160.24 322 159.031 322H155.086ZM156.586 316.68V320.773H159.062C159.76 320.773 160.31 320.594 160.711 320.234C161.117 319.87 161.32 319.37 161.32 318.734C161.32 317.365 160.576 316.68 159.086 316.68H156.586ZM156.586 315.477H158.852C159.508 315.477 160.031 315.312 160.422 314.984C160.818 314.656 161.016 314.211 161.016 313.648C161.016 313.023 160.833 312.57 160.469 312.289C160.104 312.003 159.549 311.859 158.805 311.859H156.586V315.477ZM165.055 322V310.625H168.266C169.255 310.625 170.13 310.844 170.891 311.281C171.651 311.719 172.237 312.341 172.648 313.148C173.065 313.956 173.276 314.883 173.281 315.93V316.656C173.281 317.729 173.073 318.669 172.656 319.477C172.245 320.284 171.654 320.904 170.883 321.336C170.117 321.768 169.224 321.99 168.203 322H165.055ZM166.555 311.859V320.773H168.133C169.289 320.773 170.188 320.414 170.828 319.695C171.474 318.977 171.797 317.953 171.797 316.625V315.961C171.797 314.669 171.492 313.667 170.883 312.953C170.279 312.234 169.419 311.87 168.305 311.859H166.555ZM178.664 317.461C178.664 318.622 178.51 319.737 178.203 320.805C177.901 321.867 177.435 322.849 176.805 323.75C176.18 324.651 175.523 325.292 174.836 325.672L174.531 324.789C175.333 324.174 175.977 323.221 176.461 321.93C176.951 320.633 177.201 319.195 177.211 317.617V317.367C177.211 316.273 177.096 315.258 176.867 314.32C176.638 313.378 176.318 312.534 175.906 311.789C175.5 311.044 175.042 310.464 174.531 310.047L174.836 309.164C175.523 309.544 176.177 310.18 176.797 311.07C177.422 311.961 177.888 312.943 178.195 314.016C178.508 315.089 178.664 316.237 178.664 317.461Z" fill="black"/>
<path d="M76.1797 350.859H72.5234V361H71.0312V350.859H67.3828V349.625H76.1797V350.859ZM76.4766 356.695C76.4766 355.867 76.638 355.122 76.9609 354.461C77.2891 353.799 77.7422 353.289 78.3203 352.93C78.9036 352.57 79.5677 352.391 80.3125 352.391C81.4635 352.391 82.3932 352.789 83.1016 353.586C83.8151 354.383 84.1719 355.443 84.1719 356.766V356.867C84.1719 357.69 84.013 358.43 83.6953 359.086C83.3828 359.737 82.9323 360.245 82.3438 360.609C81.7604 360.974 81.0885 361.156 80.3281 361.156C79.1823 361.156 78.2526 360.758 77.5391 359.961C76.8307 359.164 76.4766 358.109 76.4766 356.797V356.695ZM77.9297 356.867C77.9297 357.805 78.1458 358.557 78.5781 359.125C79.0156 359.693 79.599 359.977 80.3281 359.977C81.0625 359.977 81.6458 359.69 82.0781 359.117C82.5104 358.539 82.7266 357.732 82.7266 356.695C82.7266 355.768 82.5052 355.018 82.0625 354.445C81.625 353.867 81.0417 353.578 80.3125 353.578C79.599 353.578 79.0234 353.862 78.5859 354.43C78.1484 354.997 77.9297 355.81 77.9297 356.867ZM87.9453 350.5V352.547H89.5234V353.664H87.9453V358.906C87.9453 359.245 88.0156 359.5 88.1562 359.672C88.2969 359.839 88.5365 359.922 88.875 359.922C89.0417 359.922 89.2708 359.891 89.5625 359.828V361C89.1823 361.104 88.8125 361.156 88.4531 361.156C87.8073 361.156 87.3203 360.961 86.9922 360.57C86.6641 360.18 86.5 359.625 86.5 358.906V353.664H84.9609V352.547H86.5V350.5H87.9453ZM96.4375 361C96.3542 360.833 96.2865 360.536 96.2344 360.109C95.5625 360.807 94.7604 361.156 93.8281 361.156C92.9948 361.156 92.3099 360.922 91.7734 360.453C91.2422 359.979 90.9766 359.38 90.9766 358.656C90.9766 357.776 91.3099 357.094 91.9766 356.609C92.6484 356.12 93.5911 355.875 94.8047 355.875H96.2109V355.211C96.2109 354.706 96.0599 354.305 95.7578 354.008C95.4557 353.706 95.0104 353.555 94.4219 353.555C93.9062 353.555 93.474 353.685 93.125 353.945C92.776 354.206 92.6016 354.521 92.6016 354.891H91.1484C91.1484 354.469 91.2969 354.062 91.5938 353.672C91.8958 353.276 92.3021 352.964 92.8125 352.734C93.3281 352.505 93.8932 352.391 94.5078 352.391C95.4818 352.391 96.2448 352.635 96.7969 353.125C97.349 353.609 97.6354 354.279 97.6562 355.133V359.023C97.6562 359.799 97.7552 360.417 97.9531 360.875V361H96.4375ZM94.0391 359.898C94.4922 359.898 94.9219 359.781 95.3281 359.547C95.7344 359.312 96.0286 359.008 96.2109 358.633V356.898H95.0781C93.3073 356.898 92.4219 357.417 92.4219 358.453C92.4219 358.906 92.5729 359.26 92.875 359.516C93.1771 359.771 93.5651 359.898 94.0391 359.898ZM101.492 361H100.047V349H101.492V361ZM114.289 358.031H109.523L108.453 361H106.906L111.25 349.625H112.562L116.914 361H115.375L114.289 358.031ZM109.977 356.797H113.844L111.906 351.477L109.977 356.797ZM119.578 352.547L119.617 353.484C120.237 352.755 121.073 352.391 122.125 352.391C123.307 352.391 124.112 352.844 124.539 353.75C124.82 353.344 125.185 353.016 125.633 352.766C126.086 352.516 126.62 352.391 127.234 352.391C129.089 352.391 130.031 353.372 130.062 355.336V361H128.617V355.422C128.617 354.818 128.479 354.367 128.203 354.07C127.927 353.768 127.464 353.617 126.812 353.617C126.276 353.617 125.831 353.779 125.477 354.102C125.122 354.419 124.917 354.849 124.859 355.391V361H123.406V355.461C123.406 354.232 122.805 353.617 121.602 353.617C120.654 353.617 120.005 354.021 119.656 354.828V361H118.211V352.547H119.578ZM131.867 356.695C131.867 355.867 132.029 355.122 132.352 354.461C132.68 353.799 133.133 353.289 133.711 352.93C134.294 352.57 134.958 352.391 135.703 352.391C136.854 352.391 137.784 352.789 138.492 353.586C139.206 354.383 139.562 355.443 139.562 356.766V356.867C139.562 357.69 139.404 358.43 139.086 359.086C138.773 359.737 138.323 360.245 137.734 360.609C137.151 360.974 136.479 361.156 135.719 361.156C134.573 361.156 133.643 360.758 132.93 359.961C132.221 359.164 131.867 358.109 131.867 356.797V356.695ZM133.32 356.867C133.32 357.805 133.536 358.557 133.969 359.125C134.406 359.693 134.99 359.977 135.719 359.977C136.453 359.977 137.036 359.69 137.469 359.117C137.901 358.539 138.117 357.732 138.117 356.695C138.117 355.768 137.896 355.018 137.453 354.445C137.016 353.867 136.432 353.578 135.703 353.578C134.99 353.578 134.414 353.862 133.977 354.43C133.539 354.997 133.32 355.81 133.32 356.867ZM146.594 360.164C146.031 360.826 145.206 361.156 144.117 361.156C143.216 361.156 142.529 360.896 142.055 360.375C141.586 359.849 141.349 359.073 141.344 358.047V352.547H142.789V358.008C142.789 359.289 143.31 359.93 144.352 359.93C145.456 359.93 146.19 359.518 146.555 358.695V352.547H148V361H146.625L146.594 360.164ZM151.57 352.547L151.617 353.609C152.263 352.797 153.107 352.391 154.148 352.391C155.935 352.391 156.836 353.398 156.852 355.414V361H155.406V355.406C155.401 354.797 155.26 354.346 154.984 354.055C154.714 353.763 154.289 353.617 153.711 353.617C153.242 353.617 152.831 353.742 152.477 353.992C152.122 354.242 151.846 354.57 151.648 354.977V361H150.203V352.547H151.57ZM160.992 350.5V352.547H162.57V353.664H160.992V358.906C160.992 359.245 161.062 359.5 161.203 359.672C161.344 359.839 161.583 359.922 161.922 359.922C162.089 359.922 162.318 359.891 162.609 359.828V361C162.229 361.104 161.859 361.156 161.5 361.156C160.854 361.156 160.367 360.961 160.039 360.57C159.711 360.18 159.547 359.625 159.547 358.906V353.664H158.008V352.547H159.547V350.5H160.992Z" fill="black"/>
<path d="M324.578 312.523H321.094V322H318.75V312.523H315.312V310.625H324.578V312.523ZM325.922 322V310.625H329.906C331.286 310.625 332.333 310.891 333.047 311.422C333.76 311.948 334.117 312.721 334.117 313.742C334.117 314.299 333.974 314.792 333.688 315.219C333.401 315.641 333.003 315.951 332.492 316.148C333.076 316.294 333.534 316.589 333.867 317.031C334.206 317.474 334.375 318.016 334.375 318.656C334.375 319.75 334.026 320.578 333.328 321.141C332.63 321.703 331.635 321.99 330.344 322H325.922ZM328.266 317.047V320.117H330.273C330.826 320.117 331.255 319.987 331.562 319.727C331.875 319.461 332.031 319.096 332.031 318.633C332.031 317.591 331.492 317.062 330.414 317.047H328.266ZM328.266 315.391H330C331.182 315.37 331.773 314.898 331.773 313.977C331.773 313.461 331.622 313.091 331.32 312.867C331.023 312.638 330.552 312.523 329.906 312.523H328.266V315.391ZM336.141 322V310.625H339.641C340.641 310.625 341.534 310.852 342.32 311.305C343.112 311.753 343.729 312.393 344.172 313.227C344.615 314.055 344.836 314.997 344.836 316.055V316.578C344.836 317.635 344.617 318.576 344.18 319.398C343.747 320.221 343.135 320.859 342.344 321.312C341.552 321.766 340.659 321.995 339.664 322H336.141ZM338.484 312.523V320.117H339.617C340.534 320.117 341.234 319.818 341.719 319.219C342.203 318.62 342.451 317.763 342.461 316.648V316.047C342.461 314.891 342.221 314.016 341.742 313.422C341.263 312.823 340.562 312.523 339.641 312.523H338.484Z" fill="black"/>
<path d="M296.172 358.008C296.172 357.581 296.052 357.242 295.812 356.992C295.578 356.737 295.177 356.503 294.609 356.289C294.042 356.076 293.552 355.865 293.141 355.656C292.729 355.443 292.375 355.201 292.078 354.93C291.786 354.654 291.557 354.331 291.391 353.961C291.229 353.591 291.148 353.151 291.148 352.641C291.148 351.76 291.43 351.039 291.992 350.477C292.555 349.914 293.302 349.586 294.234 349.492V347.82H295.484V349.516C296.406 349.646 297.128 350.031 297.648 350.672C298.169 351.307 298.43 352.133 298.43 353.148H296.172C296.172 352.523 296.042 352.057 295.781 351.75C295.526 351.438 295.182 351.281 294.75 351.281C294.323 351.281 293.992 351.404 293.758 351.648C293.523 351.888 293.406 352.221 293.406 352.648C293.406 353.044 293.521 353.362 293.75 353.602C293.979 353.841 294.404 354.086 295.023 354.336C295.648 354.586 296.161 354.823 296.562 355.047C296.964 355.266 297.302 355.516 297.578 355.797C297.854 356.073 298.065 356.391 298.211 356.75C298.357 357.104 298.43 357.518 298.43 357.992C298.43 358.878 298.154 359.596 297.602 360.148C297.049 360.701 296.289 361.026 295.32 361.125V362.68H294.078V361.133C293.01 361.018 292.182 360.641 291.594 360C291.01 359.354 290.719 358.497 290.719 357.43H292.977C292.977 358.049 293.122 358.526 293.414 358.859C293.711 359.188 294.135 359.352 294.688 359.352C295.146 359.352 295.508 359.232 295.773 358.992C296.039 358.747 296.172 358.419 296.172 358.008ZM305.445 361H303.188V352.297L300.492 353.133V351.297L305.203 349.609H305.445V361ZM311.445 354.312H312.648C313.221 354.312 313.646 354.169 313.922 353.883C314.198 353.596 314.336 353.216 314.336 352.742C314.336 352.284 314.198 351.927 313.922 351.672C313.651 351.417 313.276 351.289 312.797 351.289C312.365 351.289 312.003 351.409 311.711 351.648C311.419 351.883 311.273 352.19 311.273 352.57H309.016C309.016 351.977 309.174 351.445 309.492 350.977C309.815 350.503 310.263 350.133 310.836 349.867C311.414 349.602 312.049 349.469 312.742 349.469C313.945 349.469 314.888 349.758 315.57 350.336C316.253 350.909 316.594 351.701 316.594 352.711C316.594 353.232 316.435 353.711 316.117 354.148C315.799 354.586 315.383 354.922 314.867 355.156C315.508 355.385 315.984 355.729 316.297 356.188C316.615 356.646 316.773 357.188 316.773 357.812C316.773 358.823 316.404 359.633 315.664 360.242C314.93 360.852 313.956 361.156 312.742 361.156C311.607 361.156 310.677 360.857 309.953 360.258C309.234 359.659 308.875 358.867 308.875 357.883H311.133C311.133 358.31 311.292 358.659 311.609 358.93C311.932 359.201 312.328 359.336 312.797 359.336C313.333 359.336 313.753 359.195 314.055 358.914C314.362 358.628 314.516 358.25 314.516 357.781C314.516 356.646 313.891 356.078 312.641 356.078H311.445V354.312ZM326.07 350.891L321.672 361H319.289L323.695 351.453H318.039V349.625H326.07V350.891ZM327.734 359.891C327.734 359.531 327.854 359.24 328.094 359.016C328.339 358.792 328.643 358.68 329.008 358.68C329.378 358.68 329.682 358.792 329.922 359.016C330.167 359.24 330.289 359.531 330.289 359.891C330.289 360.245 330.169 360.534 329.93 360.758C329.69 360.977 329.383 361.086 329.008 361.086C328.638 361.086 328.333 360.977 328.094 360.758C327.854 360.534 327.734 360.245 327.734 359.891ZM334.477 354.312H335.68C336.253 354.312 336.677 354.169 336.953 353.883C337.229 353.596 337.367 353.216 337.367 352.742C337.367 352.284 337.229 351.927 336.953 351.672C336.682 351.417 336.307 351.289 335.828 351.289C335.396 351.289 335.034 351.409 334.742 351.648C334.451 351.883 334.305 352.19 334.305 352.57H332.047C332.047 351.977 332.206 351.445 332.523 350.977C332.846 350.503 333.294 350.133 333.867 349.867C334.445 349.602 335.081 349.469 335.773 349.469C336.977 349.469 337.919 349.758 338.602 350.336C339.284 350.909 339.625 351.701 339.625 352.711C339.625 353.232 339.466 353.711 339.148 354.148C338.831 354.586 338.414 354.922 337.898 355.156C338.539 355.385 339.016 355.729 339.328 356.188C339.646 356.646 339.805 357.188 339.805 357.812C339.805 358.823 339.435 359.633 338.695 360.242C337.961 360.852 336.987 361.156 335.773 361.156C334.638 361.156 333.708 360.857 332.984 360.258C332.266 359.659 331.906 358.867 331.906 357.883H334.164C334.164 358.31 334.323 358.659 334.641 358.93C334.964 359.201 335.359 359.336 335.828 359.336C336.365 359.336 336.784 359.195 337.086 358.914C337.393 358.628 337.547 358.25 337.547 357.781C337.547 356.646 336.922 356.078 335.672 356.078H334.477V354.312ZM346.852 361H344.594V352.297L341.898 353.133V351.297L346.609 349.609H346.852V361Z" fill="black"/>
</g>
<defs>
<clipPath id="clip0">
<rect width="414" height="736" fill="white"/>
</clipPath>
</defs>
</svg>
