<svg width="414" height="432" viewBox="0 0 414 432" fill="none" xmlns="http://www.w3.org/2000/svg">
<rect width="414" height="432" fill="#181827"/>
<path d="M29.06 48.13C31.14 48.13 32.72 48.66 33.8 49.72C34.9 50.76 35.45 52.17 35.45 53.95C35.45 55.73 34.9 57.14 33.8 58.18C32.72 59.2 31.14 59.71 29.06 59.71H25.34V67H22.97V48.13H29.06ZM29.06 57.67C30.36 57.67 31.34 57.34 32 56.68C32.68 56.02 33.02 55.12 33.02 53.98C33.02 52.82 32.68 51.9 32 51.22C31.34 50.52 30.36 50.17 29.06 50.17H25.34V57.67H29.06ZM45.4913 54.67C43.2313 54.67 42.0613 56.45 41.9813 60.01V67H39.6113V52.63H41.9813V55.39C42.7013 53.39 43.9713 52.39 45.7913 52.39C46.3713 52.39 46.9213 52.48 47.4413 52.66L47.3213 54.97C46.7213 54.77 46.1113 54.67 45.4913 54.67ZM56.2271 52.3C58.2271 52.3 59.8371 52.95 61.0571 54.25C62.2971 55.55 62.9171 57.41 62.9171 59.83C62.9171 62.23 62.2971 64.08 61.0571 65.38C59.8371 66.68 58.2271 67.33 56.2271 67.33C54.2271 67.33 52.6071 66.68 51.3671 65.38C50.1471 64.08 49.5371 62.23 49.5371 59.83C49.5371 57.41 50.1471 55.55 51.3671 54.25C52.6071 52.95 54.2271 52.3 56.2271 52.3ZM60.5171 59.83C60.5171 58.11 60.1571 56.77 59.4371 55.81C58.7171 54.83 57.6571 54.34 56.2571 54.34C54.8771 54.34 53.8171 54.83 53.0771 55.81C52.3371 56.77 51.9671 58.11 51.9671 59.83C51.9671 61.53 52.3171 62.87 53.0171 63.85C53.7171 64.81 54.7571 65.29 56.1371 65.29C57.5371 65.29 58.6171 64.81 59.3771 63.85C60.1371 62.87 60.5171 61.53 60.5171 59.83ZM74.4041 48.58C73.7441 48.32 73.2241 48.19 72.8441 48.19C72.1441 48.19 71.5941 48.36 71.1941 48.7C70.7941 49.04 70.5941 49.64 70.5941 50.5V52.66H73.5641V54.28H70.5941V67H68.2541V54.28H65.8841V52.66H68.2541V50.47C68.2541 49.05 68.6441 48.01 69.4241 47.35C70.2041 46.67 71.1041 46.33 72.1241 46.33C73.1441 46.33 74.0441 46.46 74.8241 46.72L74.4041 48.58ZM77.8773 52.63H80.2473V67H77.8773V52.63ZM79.0473 49.27C78.5673 49.27 78.1873 49.14 77.9073 48.88C77.6473 48.6 77.5173 48.24 77.5173 47.8C77.5173 47.34 77.6473 46.98 77.9073 46.72C78.1873 46.44 78.5673 46.3 79.0473 46.3C79.5273 46.3 79.9073 46.44 80.1873 46.72C80.4873 46.98 80.6373 47.34 80.6373 47.8C80.6373 48.24 80.4873 48.6 80.1873 48.88C79.9073 49.14 79.5273 49.27 79.0473 49.27ZM86.6921 46.57H89.0621V67H86.6921V46.57ZM100.05 65.41C102.03 65.41 103.16 64.54 103.44 62.8H105.87C105.65 64.24 105.01 65.36 103.95 66.16C102.91 66.94 101.61 67.33 100.05 67.33C98.1303 67.33 96.5703 66.65 95.3703 65.29C94.1703 63.91 93.5703 62.08 93.5703 59.8C93.5703 57.52 94.1703 55.7 95.3703 54.34C96.5903 52.98 98.2003 52.3 100.2 52.3C102.22 52.3 103.72 53.08 104.7 54.64C105.7 56.2 106.05 58.1 105.75 60.34H95.9403C95.9403 61.82 96.3003 63.04 97.0203 64C97.7403 64.94 98.7503 65.41 100.05 65.41ZM101.79 54.55C101.33 54.31 100.77 54.19 100.11 54.19C98.8903 54.19 97.9203 54.61 97.2003 55.45C96.5003 56.27 96.0903 57.3 95.9703 58.54H103.62C103.62 56.54 103.01 55.21 101.79 54.55ZM123.718 48.13C125.798 48.13 127.378 48.66 128.458 49.72C129.558 50.76 130.108 52.17 130.108 53.95C130.108 55.73 129.558 57.14 128.458 58.18C127.378 59.2 125.798 59.71 123.718 59.71H119.998V67H117.628V48.13H123.718ZM123.718 57.67C125.018 57.67 125.998 57.34 126.658 56.68C127.338 56.02 127.678 55.12 127.678 53.98C127.678 52.82 127.338 51.9 126.658 51.22C125.998 50.52 125.018 50.17 123.718 50.17H119.998V57.67H123.718ZM143.18 57.7C143.18 56.4 142.91 55.47 142.37 54.91C141.83 54.35 141.04 54.07 140 54.07C138.98 54.07 138.15 54.28 137.51 54.7C136.89 55.1 136.58 55.74 136.58 56.62H133.97C133.97 54.42 135.15 53.06 137.51 52.54C138.23 52.38 139.01 52.3 139.85 52.3C141.63 52.3 143.02 52.75 144.02 53.65C145.02 54.55 145.52 55.92 145.52 57.76V67H143.48L143.24 64.6C142.36 66.42 140.77 67.33 138.47 67.33C136.93 67.33 135.69 66.9 134.75 66.04C133.83 65.18 133.37 64.11 133.37 62.83C133.37 61.55 133.88 60.55 134.9 59.83C135.94 59.11 137.23 58.75 138.77 58.75C140.31 58.75 141.78 59.01 143.18 59.53V57.7ZM143.18 61.03C141.76 60.63 140.52 60.43 139.46 60.43C138.4 60.43 137.54 60.62 136.88 61C136.22 61.38 135.89 61.98 135.89 62.8C135.89 64.6 136.91 65.5 138.95 65.5C140.11 65.5 141.1 65.09 141.92 64.27C142.76 63.43 143.18 62.35 143.18 61.03ZM151.687 66.55C150.487 65.97 149.887 65.08 149.887 63.88C149.887 63.26 150.117 62.72 150.577 62.26C151.057 61.78 151.647 61.46 152.347 61.3C151.267 60.34 150.727 59.08 150.727 57.52C150.727 55.96 151.277 54.7 152.377 53.74C153.497 52.78 154.817 52.3 156.337 52.3C157.857 52.3 159.147 52.66 160.207 53.38C160.347 52.32 160.767 51.47 161.467 50.83C162.187 50.19 163.127 49.87 164.287 49.87L164.077 52.21C162.317 52.21 161.397 52.95 161.317 54.43C162.017 55.29 162.367 56.32 162.367 57.52C162.367 59.06 161.807 60.33 160.687 61.33C159.587 62.31 158.207 62.8 156.547 62.8C155.407 62.8 154.397 62.57 153.517 62.11C153.117 62.19 152.757 62.38 152.437 62.68C152.117 62.96 151.957 63.35 151.957 63.85C151.957 64.91 152.837 65.44 154.597 65.44H160.177C161.517 65.44 162.577 65.73 163.357 66.31C164.137 66.87 164.527 67.66 164.527 68.68C164.527 70.2 163.757 71.53 162.217 72.67C160.697 73.81 158.767 74.38 156.427 74.38C154.087 74.38 152.247 73.94 150.907 73.06C149.567 72.2 148.897 71.11 148.897 69.79C148.897 68.93 149.147 68.23 149.647 67.69C150.167 67.15 150.847 66.77 151.687 66.55ZM151.237 69.7C151.237 70.46 151.647 71.11 152.467 71.65C153.307 72.21 154.567 72.49 156.247 72.49C157.947 72.49 159.357 72.12 160.477 71.38C161.617 70.66 162.187 69.81 162.187 68.83C162.187 68.37 162.017 67.97 161.677 67.63C161.357 67.31 160.857 67.15 160.177 67.15H154.387C153.367 67.19 152.587 67.43 152.047 67.87C151.507 68.33 151.237 68.94 151.237 69.7ZM160.057 57.52C160.057 56.48 159.747 55.64 159.127 55C158.507 54.34 157.647 54.01 156.547 54.01C155.467 54.01 154.617 54.34 153.997 55C153.377 55.64 153.067 56.48 153.067 57.52C153.067 58.56 153.377 59.42 153.997 60.1C154.637 60.76 155.497 61.09 156.577 61.09C157.657 61.09 158.507 60.75 159.127 60.07C159.747 59.39 160.057 58.54 160.057 57.52ZM173 65.41C174.98 65.41 176.11 64.54 176.39 62.8H178.82C178.6 64.24 177.96 65.36 176.9 66.16C175.86 66.94 174.56 67.33 173 67.33C171.08 67.33 169.52 66.65 168.32 65.29C167.12 63.91 166.52 62.08 166.52 59.8C166.52 57.52 167.12 55.7 168.32 54.34C169.54 52.98 171.15 52.3 173.15 52.3C175.17 52.3 176.67 53.08 177.65 54.64C178.65 56.2 179 58.1 178.7 60.34H168.89C168.89 61.82 169.25 63.04 169.97 64C170.69 64.94 171.7 65.41 173 65.41ZM174.74 54.55C174.28 54.31 173.72 54.19 173.06 54.19C171.84 54.19 170.87 54.61 170.15 55.45C169.45 56.27 169.04 57.3 168.92 58.54H176.57C176.57 56.54 175.96 55.21 174.74 54.55Z" fill="white"/>
<path d="M26.42 207.13L32.78 219.91L39.08 207.13H42.41V226H40.04V210.49L33.56 223.63H31.97L25.4 210.28V226H23.03V207.13H26.42ZM57.3397 216.7C57.3397 215.4 57.0697 214.47 56.5297 213.91C55.9897 213.35 55.1997 213.07 54.1597 213.07C53.1397 213.07 52.3097 213.28 51.6697 213.7C51.0497 214.1 50.7397 214.74 50.7397 215.62H48.1297C48.1297 213.42 49.3097 212.06 51.6697 211.54C52.3897 211.38 53.1697 211.3 54.0097 211.3C55.7897 211.3 57.1797 211.75 58.1797 212.65C59.1797 213.55 59.6797 214.92 59.6797 216.76V226H57.6397L57.3997 223.6C56.5197 225.42 54.9297 226.33 52.6297 226.33C51.0897 226.33 49.8497 225.9 48.9097 225.04C47.9897 224.18 47.5297 223.11 47.5297 221.83C47.5297 220.55 48.0397 219.55 49.0597 218.83C50.0997 218.11 51.3897 217.75 52.9297 217.75C54.4697 217.75 55.9397 218.01 57.3397 218.53V216.7ZM57.3397 220.03C55.9197 219.63 54.6797 219.43 53.6197 219.43C52.5597 219.43 51.6997 219.62 51.0397 220C50.3797 220.38 50.0497 220.98 50.0497 221.8C50.0497 223.6 51.0697 224.5 53.1097 224.5C54.2697 224.5 55.2597 224.09 56.0797 223.27C56.9197 222.43 57.3397 221.35 57.3397 220.03ZM72.7468 225.58C71.0268 226.38 69.4568 226.55 68.0368 226.09C67.0168 225.77 66.2968 225.1 65.8768 224.08C65.6568 223.58 65.5468 222.98 65.5468 222.28V213.46H63.2368V211.66H65.5468V207.67H67.8868V211.66H72.3868V213.46H67.8868V222.25C67.8868 223.71 68.5668 224.44 69.9268 224.44C70.6668 224.44 71.4968 224.26 72.4168 223.9L72.7468 225.58ZM81.2961 211.3C82.9961 211.3 84.3461 211.74 85.3461 212.62C86.3461 213.48 86.9961 214.56 87.2961 215.86L84.8961 216.07C84.6361 215.23 84.2161 214.58 83.6361 214.12C83.0561 213.64 82.4161 213.4 81.7161 213.4C80.4361 213.4 79.3961 213.88 78.5961 214.84C77.8161 215.8 77.4261 217.11 77.4261 218.77C77.4261 220.41 77.8061 221.73 78.5661 222.73C79.3461 223.73 80.3061 224.23 81.4461 224.23C82.6061 224.23 83.4661 223.97 84.0261 223.45C84.6061 222.91 84.8961 222.15 84.8961 221.17H87.3261C87.3261 222.71 86.7861 223.96 85.7061 224.92C84.6461 225.86 83.2561 226.33 81.5361 226.33C79.7161 226.33 78.1661 225.64 76.8861 224.26C75.6261 222.88 74.9961 221.05 74.9961 218.77C74.9961 216.47 75.6261 214.65 76.8861 213.31C78.1461 211.97 79.6161 211.3 81.2961 211.3ZM94.3355 214.3C95.2955 212.3 96.8855 211.3 99.1055 211.3C100.806 211.3 102.126 211.86 103.066 212.98C104.026 214.1 104.506 215.63 104.506 217.57V226H102.166V217.57C102.166 216.19 101.836 215.15 101.176 214.45C100.536 213.75 99.6055 213.4 98.3855 213.4C97.1655 213.4 96.1855 213.92 95.4455 214.96C94.7055 215.98 94.3355 217.4 94.3355 219.22V226H91.9655V205.57H94.3355V214.3ZM115.021 224.41C117.001 224.41 118.131 223.54 118.411 221.8H120.841C120.621 223.24 119.981 224.36 118.921 225.16C117.881 225.94 116.581 226.33 115.021 226.33C113.101 226.33 111.541 225.65 110.341 224.29C109.141 222.91 108.541 221.08 108.541 218.8C108.541 216.52 109.141 214.7 110.341 213.34C111.561 211.98 113.171 211.3 115.171 211.3C117.191 211.3 118.691 212.08 119.671 213.64C120.671 215.2 121.021 217.1 120.721 219.34H110.911C110.911 220.82 111.271 222.04 111.991 223C112.711 223.94 113.721 224.41 115.021 224.41ZM116.761 213.55C116.301 213.31 115.741 213.19 115.081 213.19C113.861 213.19 112.891 213.61 112.171 214.45C111.471 215.27 111.061 216.3 110.941 217.54H118.591C118.591 215.54 117.981 214.21 116.761 213.55ZM124.76 215.17C124.76 213.99 125.26 213.05 126.26 212.35C127.28 211.65 128.65 211.3 130.37 211.3C132.09 211.3 133.43 211.66 134.39 212.38C135.37 213.1 135.88 214.01 135.92 215.11H133.61C133.43 213.81 132.33 213.16 130.31 213.16C129.33 213.16 128.57 213.38 128.03 213.82C127.51 214.26 127.25 214.74 127.25 215.26C127.25 215.76 127.45 216.19 127.85 216.55C128.25 216.89 128.89 217.19 129.77 217.45L132.65 218.41C133.87 218.79 134.8 219.28 135.44 219.88C136.1 220.46 136.43 221.27 136.43 222.31C136.43 223.33 135.9 224.26 134.84 225.1C133.78 225.92 132.3 226.33 130.4 226.33C128.5 226.33 127.02 225.91 125.96 225.07C124.9 224.21 124.34 223.11 124.28 221.77H126.56C126.6 222.67 126.96 223.35 127.64 223.81C128.34 224.25 129.21 224.47 130.25 224.47C131.29 224.47 132.15 224.25 132.83 223.81C133.51 223.37 133.85 222.85 133.85 222.25C133.85 221.63 133.65 221.16 133.25 220.84C132.85 220.52 132.2 220.24 131.3 220L128.51 219.07C126.01 218.33 124.76 217.03 124.76 215.17Z" fill="white"/>
<path d="M25.79 132.13L35.15 147.28V132.13H37.52V151H34.88L25.37 135.64V151H22.97V132.13H25.79ZM52.4471 141.7C52.4471 140.4 52.1771 139.47 51.6371 138.91C51.0971 138.35 50.3071 138.07 49.2671 138.07C48.2471 138.07 47.4171 138.28 46.7771 138.7C46.1571 139.1 45.8471 139.74 45.8471 140.62H43.2371C43.2371 138.42 44.4171 137.06 46.7771 136.54C47.4971 136.38 48.2771 136.3 49.1171 136.3C50.8971 136.3 52.2871 136.75 53.2871 137.65C54.2871 138.55 54.7871 139.92 54.7871 141.76V151H52.7471L52.5071 148.6C51.6271 150.42 50.0371 151.33 47.7371 151.33C46.1971 151.33 44.9571 150.9 44.0171 150.04C43.0971 149.18 42.6371 148.11 42.6371 146.83C42.6371 145.55 43.1471 144.55 44.1671 143.83C45.2071 143.11 46.4971 142.75 48.0371 142.75C49.5771 142.75 51.0471 143.01 52.4471 143.53V141.7ZM52.4471 145.03C51.0271 144.63 49.7871 144.43 48.7271 144.43C47.6671 144.43 46.8071 144.62 46.1471 145C45.4871 145.38 45.1571 145.98 45.1571 146.8C45.1571 148.6 46.1771 149.5 48.2171 149.5C49.3771 149.5 50.3671 149.09 51.1871 148.27C52.0271 147.43 52.4471 146.35 52.4471 145.03ZM67.8542 150.58C66.1342 151.38 64.5642 151.55 63.1442 151.09C62.1242 150.77 61.4042 150.1 60.9842 149.08C60.7642 148.58 60.6542 147.98 60.6542 147.28V138.46H58.3442V136.66H60.6542V132.67H62.9942V136.66H67.4942V138.46H62.9942V147.25C62.9942 148.71 63.6742 149.44 65.0342 149.44C65.7742 149.44 66.6042 149.26 67.5242 148.9L67.8542 150.58ZM80.5135 141.7C80.5135 140.4 80.2435 139.47 79.7035 138.91C79.1635 138.35 78.3735 138.07 77.3335 138.07C76.3135 138.07 75.4835 138.28 74.8435 138.7C74.2235 139.1 73.9135 139.74 73.9135 140.62H71.3035C71.3035 138.42 72.4835 137.06 74.8435 136.54C75.5635 136.38 76.3435 136.3 77.1835 136.3C78.9635 136.3 80.3535 136.75 81.3535 137.65C82.3535 138.55 82.8535 139.92 82.8535 141.76V151H80.8135L80.5735 148.6C79.6935 150.42 78.1035 151.33 75.8035 151.33C74.2635 151.33 73.0235 150.9 72.0835 150.04C71.1635 149.18 70.7035 148.11 70.7035 146.83C70.7035 145.55 71.2135 144.55 72.2335 143.83C73.2735 143.11 74.5635 142.75 76.1035 142.75C77.6435 142.75 79.1135 143.01 80.5135 143.53V141.7ZM80.5135 145.03C79.0935 144.63 77.8535 144.43 76.7935 144.43C75.7335 144.43 74.8735 144.62 74.2135 145C73.5535 145.38 73.2235 145.98 73.2235 146.8C73.2235 148.6 74.2435 149.5 76.2835 149.5C77.4435 149.5 78.4335 149.09 79.2535 148.27C80.0935 147.43 80.5135 146.35 80.5135 145.03ZM88.4206 130.57H90.7906V151H88.4206V130.57ZM110.517 131.8C112.537 131.8 114.157 132.31 115.377 133.33C116.617 134.33 117.467 135.64 117.927 137.26L115.377 137.77C114.977 136.59 114.347 135.66 113.487 134.98C112.647 134.28 111.657 133.93 110.517 133.93C108.937 133.93 107.627 134.59 106.587 135.91C105.547 137.23 105.027 139.07 105.027 141.43C105.027 143.77 105.487 145.65 106.407 147.07C107.347 148.49 108.717 149.2 110.517 149.2C112.017 149.2 113.197 148.81 114.057 148.03C114.937 147.23 115.377 146.18 115.377 144.88H117.927C117.927 146.86 117.247 148.43 115.887 149.59C114.547 150.75 112.697 151.33 110.337 151.33C107.997 151.33 106.097 150.43 104.637 148.63C103.197 146.83 102.477 144.42 102.477 141.4C102.477 138.38 103.227 136.03 104.727 134.35C106.227 132.65 108.157 131.8 110.517 131.8ZM124.746 139.3C125.706 137.3 127.296 136.3 129.516 136.3C131.216 136.3 132.536 136.86 133.476 137.98C134.436 139.1 134.916 140.63 134.916 142.57V151H132.576V142.57C132.576 141.19 132.246 140.15 131.586 139.45C130.946 138.75 130.016 138.4 128.796 138.4C127.576 138.4 126.596 138.92 125.856 139.96C125.116 140.98 124.746 142.4 124.746 144.22V151H122.376V130.57H124.746V139.3ZM149.361 141.7C149.361 140.4 149.091 139.47 148.551 138.91C148.011 138.35 147.221 138.07 146.181 138.07C145.161 138.07 144.331 138.28 143.691 138.7C143.071 139.1 142.761 139.74 142.761 140.62H140.151C140.151 138.42 141.331 137.06 143.691 136.54C144.411 136.38 145.191 136.3 146.031 136.3C147.811 136.3 149.201 136.75 150.201 137.65C151.201 138.55 151.701 139.92 151.701 141.76V151H149.661L149.421 148.6C148.541 150.42 146.951 151.33 144.651 151.33C143.111 151.33 141.871 150.9 140.931 150.04C140.011 149.18 139.551 148.11 139.551 146.83C139.551 145.55 140.061 144.55 141.081 143.83C142.121 143.11 143.411 142.75 144.951 142.75C146.491 142.75 147.961 143.01 149.361 143.53V141.7ZM149.361 145.03C147.941 144.63 146.701 144.43 145.641 144.43C144.581 144.43 143.721 144.62 143.061 145C142.401 145.38 142.071 145.98 142.071 146.8C142.071 148.6 143.091 149.5 145.131 149.5C146.291 149.5 147.281 149.09 148.101 148.27C148.941 147.43 149.361 146.35 149.361 145.03ZM163.118 138.67C160.858 138.67 159.688 140.45 159.608 144.01V151H157.238V136.63H159.608V139.39C160.328 137.39 161.598 136.39 163.418 136.39C163.998 136.39 164.548 136.48 165.068 136.66L164.948 138.97C164.348 138.77 163.738 138.67 163.118 138.67ZM176.194 150.58C174.474 151.38 172.904 151.55 171.484 151.09C170.464 150.77 169.744 150.1 169.324 149.08C169.104 148.58 168.994 147.98 168.994 147.28V138.46H166.684V136.66H168.994V132.67H171.334V136.66H175.834V138.46H171.334V147.25C171.334 148.71 172.014 149.44 173.374 149.44C174.114 149.44 174.944 149.26 175.864 148.9L176.194 150.58Z" fill="white"/>
<path d="M26.42 282.13L32.78 294.91L39.08 282.13H42.41V301H40.04V285.49L33.56 298.63H31.97L25.4 285.28V301H23.03V282.13H26.42ZM53.4097 299.41C55.3897 299.41 56.5197 298.54 56.7997 296.8H59.2297C59.0097 298.24 58.3697 299.36 57.3097 300.16C56.2697 300.94 54.9697 301.33 53.4097 301.33C51.4897 301.33 49.9297 300.65 48.7297 299.29C47.5297 297.91 46.9297 296.08 46.9297 293.8C46.9297 291.52 47.5297 289.7 48.7297 288.34C49.9497 286.98 51.5597 286.3 53.5597 286.3C55.5797 286.3 57.0797 287.08 58.0597 288.64C59.0597 290.2 59.4097 292.1 59.1097 294.34H49.2997C49.2997 295.82 49.6597 297.04 50.3797 298C51.0997 298.94 52.1097 299.41 53.4097 299.41ZM55.1497 288.55C54.6897 288.31 54.1297 288.19 53.4697 288.19C52.2497 288.19 51.2797 288.61 50.5597 289.45C49.8597 290.27 49.4497 291.3 49.3297 292.54H56.9797C56.9797 290.54 56.3697 289.21 55.1497 288.55ZM63.1491 290.17C63.1491 288.99 63.6491 288.05 64.6491 287.35C65.6691 286.65 67.0391 286.3 68.7591 286.3C70.4791 286.3 71.8191 286.66 72.7791 287.38C73.7591 288.1 74.2691 289.01 74.3091 290.11H71.9991C71.8191 288.81 70.7191 288.16 68.6991 288.16C67.7191 288.16 66.9591 288.38 66.4191 288.82C65.8991 289.26 65.6391 289.74 65.6391 290.26C65.6391 290.76 65.8391 291.19 66.2391 291.55C66.6391 291.89 67.2791 292.19 68.1591 292.45L71.0391 293.41C72.2591 293.79 73.1891 294.28 73.8291 294.88C74.4891 295.46 74.8191 296.27 74.8191 297.31C74.8191 298.33 74.2891 299.26 73.2291 300.1C72.1691 300.92 70.6891 301.33 68.7891 301.33C66.8891 301.33 65.4091 300.91 64.3491 300.07C63.2891 299.21 62.7291 298.11 62.6691 296.77H64.9491C64.9891 297.67 65.3491 298.35 66.0291 298.81C66.7291 299.25 67.5991 299.47 68.6391 299.47C69.6791 299.47 70.5391 299.25 71.2191 298.81C71.8991 298.37 72.2391 297.85 72.2391 297.25C72.2391 296.63 72.0391 296.16 71.6391 295.84C71.2391 295.52 70.5891 295.24 69.6891 295L66.8991 294.07C64.3991 293.33 63.1491 292.03 63.1491 290.17ZM78.9402 290.17C78.9402 288.99 79.4402 288.05 80.4402 287.35C81.4602 286.65 82.8302 286.3 84.5502 286.3C86.2702 286.3 87.6102 286.66 88.5702 287.38C89.5502 288.1 90.0602 289.01 90.1002 290.11H87.7902C87.6102 288.81 86.5102 288.16 84.4902 288.16C83.5102 288.16 82.7502 288.38 82.2102 288.82C81.6902 289.26 81.4302 289.74 81.4302 290.26C81.4302 290.76 81.6302 291.19 82.0302 291.55C82.4302 291.89 83.0702 292.19 83.9502 292.45L86.8302 293.41C88.0502 293.79 88.9802 294.28 89.6202 294.88C90.2802 295.46 90.6102 296.27 90.6102 297.31C90.6102 298.33 90.0802 299.26 89.0202 300.1C87.9602 300.92 86.4802 301.33 84.5802 301.33C82.6802 301.33 81.2002 300.91 80.1402 300.07C79.0802 299.21 78.5202 298.11 78.4602 296.77H80.7402C80.7802 297.67 81.1402 298.35 81.8202 298.81C82.5202 299.25 83.3902 299.47 84.4302 299.47C85.4702 299.47 86.3302 299.25 87.0102 298.81C87.6902 298.37 88.0302 297.85 88.0302 297.25C88.0302 296.63 87.8302 296.16 87.4302 295.84C87.0302 295.52 86.3802 295.24 85.4802 295L82.6902 294.07C80.1902 293.33 78.9402 292.03 78.9402 290.17ZM104.361 291.7C104.361 290.4 104.091 289.47 103.551 288.91C103.011 288.35 102.221 288.07 101.181 288.07C100.161 288.07 99.3312 288.28 98.6912 288.7C98.0712 289.1 97.7612 289.74 97.7612 290.62H95.1512C95.1512 288.42 96.3312 287.06 98.6912 286.54C99.4112 286.38 100.191 286.3 101.031 286.3C102.811 286.3 104.201 286.75 105.201 287.65C106.201 288.55 106.701 289.92 106.701 291.76V301H104.661L104.421 298.6C103.541 300.42 101.951 301.33 99.6512 301.33C98.1112 301.33 96.8712 300.9 95.9312 300.04C95.0112 299.18 94.5512 298.11 94.5512 296.83C94.5512 295.55 95.0612 294.55 96.0812 293.83C97.1212 293.11 98.4112 292.75 99.9512 292.75C101.491 292.75 102.961 293.01 104.361 293.53V291.7ZM104.361 295.03C102.941 294.63 101.701 294.43 100.641 294.43C99.5812 294.43 98.7212 294.62 98.0612 295C97.4012 295.38 97.0712 295.98 97.0712 296.8C97.0712 298.6 98.0912 299.5 100.131 299.5C101.291 299.5 102.281 299.09 103.101 298.27C103.941 297.43 104.361 296.35 104.361 295.03ZM112.868 300.55C111.668 299.97 111.068 299.08 111.068 297.88C111.068 297.26 111.298 296.72 111.758 296.26C112.238 295.78 112.828 295.46 113.528 295.3C112.448 294.34 111.908 293.08 111.908 291.52C111.908 289.96 112.458 288.7 113.558 287.74C114.678 286.78 115.998 286.3 117.518 286.3C119.038 286.3 120.328 286.66 121.388 287.38C121.528 286.32 121.948 285.47 122.648 284.83C123.368 284.19 124.308 283.87 125.468 283.87L125.258 286.21C123.498 286.21 122.578 286.95 122.498 288.43C123.198 289.29 123.548 290.32 123.548 291.52C123.548 293.06 122.988 294.33 121.868 295.33C120.768 296.31 119.388 296.8 117.728 296.8C116.588 296.8 115.578 296.57 114.698 296.11C114.298 296.19 113.938 296.38 113.618 296.68C113.298 296.96 113.138 297.35 113.138 297.85C113.138 298.91 114.018 299.44 115.778 299.44H121.358C122.698 299.44 123.758 299.73 124.538 300.31C125.318 300.87 125.708 301.66 125.708 302.68C125.708 304.2 124.938 305.53 123.398 306.67C121.878 307.81 119.948 308.38 117.608 308.38C115.268 308.38 113.428 307.94 112.088 307.06C110.748 306.2 110.078 305.11 110.078 303.79C110.078 302.93 110.328 302.23 110.828 301.69C111.348 301.15 112.028 300.77 112.868 300.55ZM112.418 303.7C112.418 304.46 112.828 305.11 113.648 305.65C114.488 306.21 115.748 306.49 117.428 306.49C119.128 306.49 120.538 306.12 121.658 305.38C122.798 304.66 123.368 303.81 123.368 302.83C123.368 302.37 123.198 301.97 122.858 301.63C122.538 301.31 122.038 301.15 121.358 301.15H115.568C114.548 301.19 113.768 301.43 113.228 301.87C112.688 302.33 112.418 302.94 112.418 303.7ZM121.238 291.52C121.238 290.48 120.928 289.64 120.308 289C119.688 288.34 118.828 288.01 117.728 288.01C116.648 288.01 115.798 288.34 115.178 289C114.558 289.64 114.248 290.48 114.248 291.52C114.248 292.56 114.558 293.42 115.178 294.1C115.818 294.76 116.678 295.09 117.758 295.09C118.838 295.09 119.688 294.75 120.308 294.07C120.928 293.39 121.238 292.54 121.238 291.52ZM134.181 299.41C136.161 299.41 137.291 298.54 137.571 296.8H140.001C139.781 298.24 139.141 299.36 138.081 300.16C137.041 300.94 135.741 301.33 134.181 301.33C132.261 301.33 130.701 300.65 129.501 299.29C128.301 297.91 127.701 296.08 127.701 293.8C127.701 291.52 128.301 289.7 129.501 288.34C130.721 286.98 132.331 286.3 134.331 286.3C136.351 286.3 137.851 287.08 138.831 288.64C139.831 290.2 140.181 292.1 139.881 294.34H130.071C130.071 295.82 130.431 297.04 131.151 298C131.871 298.94 132.881 299.41 134.181 299.41ZM135.921 288.55C135.461 288.31 134.901 288.19 134.241 288.19C133.021 288.19 132.051 288.61 131.331 289.45C130.631 290.27 130.221 291.3 130.101 292.54H137.751C137.751 290.54 137.141 289.21 135.921 288.55ZM143.921 290.17C143.921 288.99 144.421 288.05 145.421 287.35C146.441 286.65 147.811 286.3 149.531 286.3C151.251 286.3 152.591 286.66 153.551 287.38C154.531 288.1 155.041 289.01 155.081 290.11H152.771C152.591 288.81 151.491 288.16 149.471 288.16C148.491 288.16 147.731 288.38 147.191 288.82C146.671 289.26 146.411 289.74 146.411 290.26C146.411 290.76 146.611 291.19 147.011 291.55C147.411 291.89 148.051 292.19 148.931 292.45L151.811 293.41C153.031 293.79 153.961 294.28 154.601 294.88C155.261 295.46 155.591 296.27 155.591 297.31C155.591 298.33 155.061 299.26 154.001 300.1C152.941 300.92 151.461 301.33 149.561 301.33C147.661 301.33 146.181 300.91 145.121 300.07C144.061 299.21 143.501 298.11 143.441 296.77H145.721C145.761 297.67 146.121 298.35 146.801 298.81C147.501 299.25 148.371 299.47 149.411 299.47C150.451 299.47 151.311 299.25 151.991 298.81C152.671 298.37 153.011 297.85 153.011 297.25C153.011 296.63 152.811 296.16 152.411 295.84C152.011 295.52 151.361 295.24 150.461 295L147.671 294.07C145.171 293.33 143.921 292.03 143.921 290.17Z" fill="white"/>
<path d="M29.06 359.13C31.14 359.13 32.72 359.66 33.8 360.72C34.9 361.76 35.45 363.17 35.45 364.95C35.45 366.73 34.9 368.14 33.8 369.18C32.72 370.2 31.14 370.71 29.06 370.71H25.34V378H22.97V359.13H29.06ZM29.06 368.67C30.36 368.67 31.34 368.34 32 367.68C32.68 367.02 33.02 366.12 33.02 364.98C33.02 363.82 32.68 362.9 32 362.22C31.34 361.52 30.36 361.17 29.06 361.17H25.34V368.67H29.06ZM49.3913 375.15C48.4113 377.23 46.8213 378.27 44.6213 378.27C43.0013 378.27 41.6913 377.82 40.6913 376.92C39.7113 376.02 39.2213 374.63 39.2213 372.75V363.63H41.5913V372.57C41.5913 374.99 42.7113 376.2 44.9513 376.2C46.2513 376.2 47.3013 375.7 48.1013 374.7C48.9213 373.7 49.3513 372.42 49.3913 370.86V363.63H51.7613V378H49.3913V375.15ZM63.6847 365.67C61.4247 365.67 60.2547 367.45 60.1747 371.01V378H57.8047V363.63H60.1747V366.39C60.8947 364.39 62.1647 363.39 63.9847 363.39C64.5647 363.39 65.1147 363.48 65.6347 363.66L65.5147 365.97C64.9147 365.77 64.3047 365.67 63.6847 365.67ZM74.0305 363.3C75.7305 363.3 77.0805 363.74 78.0805 364.62C79.0805 365.48 79.7305 366.56 80.0305 367.86L77.6305 368.07C77.3705 367.23 76.9505 366.58 76.3705 366.12C75.7905 365.64 75.1505 365.4 74.4505 365.4C73.1705 365.4 72.1305 365.88 71.3305 366.84C70.5505 367.8 70.1605 369.11 70.1605 370.77C70.1605 372.41 70.5405 373.73 71.3005 374.73C72.0805 375.73 73.0405 376.23 74.1805 376.23C75.3405 376.23 76.2005 375.97 76.7605 375.45C77.3405 374.91 77.6305 374.15 77.6305 373.17H80.0605C80.0605 374.71 79.5205 375.96 78.4405 376.92C77.3805 377.86 75.9905 378.33 74.2705 378.33C72.4505 378.33 70.9005 377.64 69.6205 376.26C68.3605 374.88 67.7305 373.05 67.7305 370.77C67.7305 368.47 68.3605 366.65 69.6205 365.31C70.8805 363.97 72.3505 363.3 74.0305 363.3ZM87.0699 366.3C88.0299 364.3 89.6199 363.3 91.8399 363.3C93.5399 363.3 94.8599 363.86 95.7999 364.98C96.7599 366.1 97.2399 367.63 97.2399 369.57V378H94.8999V369.57C94.8999 368.19 94.5699 367.15 93.9099 366.45C93.2699 365.75 92.3399 365.4 91.1199 365.4C89.8999 365.4 88.9199 365.92 88.1799 366.96C87.4399 367.98 87.0699 369.4 87.0699 371.22V378H84.6999V357.57H87.0699V366.3ZM111.685 368.7C111.685 367.4 111.415 366.47 110.875 365.91C110.335 365.35 109.545 365.07 108.505 365.07C107.485 365.07 106.655 365.28 106.015 365.7C105.395 366.1 105.085 366.74 105.085 367.62H102.475C102.475 365.42 103.655 364.06 106.015 363.54C106.735 363.38 107.515 363.3 108.355 363.3C110.135 363.3 111.525 363.75 112.525 364.65C113.525 365.55 114.025 366.92 114.025 368.76V378H111.985L111.745 375.6C110.865 377.42 109.275 378.33 106.975 378.33C105.435 378.33 104.195 377.9 103.255 377.04C102.335 376.18 101.875 375.11 101.875 373.83C101.875 372.55 102.385 371.55 103.405 370.83C104.445 370.11 105.735 369.75 107.275 369.75C108.815 369.75 110.285 370.01 111.685 370.53V368.7ZM111.685 372.03C110.265 371.63 109.025 371.43 107.965 371.43C106.905 371.43 106.045 371.62 105.385 372C104.725 372.38 104.395 372.98 104.395 373.8C104.395 375.6 105.415 376.5 107.455 376.5C108.615 376.5 109.605 376.09 110.425 375.27C111.265 374.43 111.685 373.35 111.685 372.03ZM118.843 367.17C118.843 365.99 119.343 365.05 120.343 364.35C121.363 363.65 122.733 363.3 124.453 363.3C126.173 363.3 127.513 363.66 128.473 364.38C129.453 365.1 129.963 366.01 130.003 367.11H127.693C127.513 365.81 126.413 365.16 124.393 365.16C123.413 365.16 122.653 365.38 122.113 365.82C121.593 366.26 121.333 366.74 121.333 367.26C121.333 367.76 121.533 368.19 121.933 368.55C122.333 368.89 122.973 369.19 123.853 369.45L126.733 370.41C127.953 370.79 128.883 371.28 129.523 371.88C130.183 372.46 130.513 373.27 130.513 374.31C130.513 375.33 129.983 376.26 128.923 377.1C127.863 377.92 126.383 378.33 124.482 378.33C122.583 378.33 121.103 377.91 120.043 377.07C118.983 376.21 118.423 375.11 118.363 373.77H120.643C120.683 374.67 121.043 375.35 121.723 375.81C122.423 376.25 123.293 376.47 124.333 376.47C125.373 376.47 126.233 376.25 126.913 375.81C127.593 375.37 127.933 374.85 127.933 374.25C127.933 373.63 127.733 373.16 127.333 372.84C126.933 372.52 126.283 372.24 125.382 372L122.593 371.07C120.093 370.33 118.843 369.03 118.843 367.17ZM140.334 376.41C142.314 376.41 143.444 375.54 143.724 373.8H146.154C145.934 375.24 145.294 376.36 144.234 377.16C143.194 377.94 141.894 378.33 140.334 378.33C138.414 378.33 136.854 377.65 135.654 376.29C134.454 374.91 133.854 373.08 133.854 370.8C133.854 368.52 134.454 366.7 135.654 365.34C136.874 363.98 138.484 363.3 140.484 363.3C142.504 363.3 144.004 364.08 144.984 365.64C145.984 367.2 146.334 369.1 146.034 371.34H136.224C136.224 372.82 136.584 374.04 137.304 375C138.024 375.94 139.034 376.41 140.334 376.41ZM142.074 365.55C141.614 365.31 141.054 365.19 140.394 365.19C139.174 365.19 138.204 365.61 137.484 366.45C136.784 367.27 136.374 368.3 136.254 369.54H143.904C143.904 367.54 143.294 366.21 142.074 365.55ZM161.361 359.13L167.721 371.91L174.021 359.13H177.351V378H174.981V362.49L168.501 375.63H166.911L160.341 362.28V378H157.971V359.13H161.361ZM188.351 376.41C190.331 376.41 191.461 375.54 191.741 373.8H194.171C193.951 375.24 193.311 376.36 192.251 377.16C191.211 377.94 189.911 378.33 188.351 378.33C186.431 378.33 184.871 377.65 183.671 376.29C182.471 374.91 181.871 373.08 181.871 370.8C181.871 368.52 182.471 366.7 183.671 365.34C184.891 363.98 186.501 363.3 188.501 363.3C190.521 363.3 192.021 364.08 193.001 365.64C194.001 367.2 194.351 369.1 194.051 371.34H184.241C184.241 372.82 184.601 374.04 185.321 375C186.041 375.94 187.051 376.41 188.351 376.41ZM190.091 365.55C189.631 365.31 189.071 365.19 188.411 365.19C187.191 365.19 186.221 365.61 185.501 366.45C184.801 367.27 184.391 368.3 184.271 369.54H191.921C191.921 367.54 191.311 366.21 190.091 365.55ZM201.121 366.42C202.061 364.34 203.671 363.3 205.951 363.3C207.191 363.3 208.231 363.61 209.071 364.23C209.911 364.83 210.521 365.67 210.901 366.75C211.801 364.45 213.471 363.3 215.911 363.3C217.631 363.3 218.961 363.86 219.901 364.98C220.841 366.1 221.311 367.63 221.311 369.57V378H218.971V369.57C218.971 368.19 218.641 367.15 217.981 366.45C217.341 365.75 216.411 365.4 215.191 365.4C213.971 365.4 213.021 365.9 212.341 366.9C211.681 367.9 211.351 369.28 211.351 371.04V378H209.011V369.57C209.011 368.19 208.681 367.15 208.021 366.45C207.381 365.75 206.461 365.4 205.261 365.4C204.061 365.4 203.091 365.89 202.351 366.87C201.611 367.85 201.221 369.21 201.181 370.95V378H198.811V363.66H200.851L201.121 366.42ZM229.248 365.79C230.208 364.13 231.608 363.3 233.448 363.3C235.288 363.3 236.818 363.99 238.038 365.37C239.258 366.73 239.868 368.54 239.868 370.8C239.868 373.04 239.248 374.86 238.008 376.26C236.768 377.64 235.258 378.33 233.478 378.33C232.518 378.33 231.648 378.09 230.868 377.61C230.108 377.13 229.508 376.42 229.068 375.48L228.528 378H226.878V357.57H229.248V365.79ZM233.298 365.4C232.158 365.4 231.208 365.77 230.448 366.51C229.688 367.23 229.288 368.24 229.248 369.54V371.88C229.248 373.2 229.638 374.26 230.418 375.06C231.218 375.84 232.178 376.23 233.298 376.23C234.418 376.23 235.388 375.74 236.208 374.76C237.028 373.76 237.438 372.44 237.438 370.8C237.438 369.16 237.028 367.85 236.208 366.87C235.408 365.89 234.438 365.4 233.298 365.4ZM249.347 376.41C251.327 376.41 252.457 375.54 252.737 373.8H255.167C254.947 375.24 254.307 376.36 253.247 377.16C252.207 377.94 250.907 378.33 249.347 378.33C247.427 378.33 245.867 377.65 244.667 376.29C243.467 374.91 242.867 373.08 242.867 370.8C242.867 368.52 243.467 366.7 244.667 365.34C245.887 363.98 247.497 363.3 249.497 363.3C251.517 363.3 253.017 364.08 253.997 365.64C254.997 367.2 255.347 369.1 255.047 371.34H245.237C245.237 372.82 245.597 374.04 246.317 375C247.037 375.94 248.047 376.41 249.347 376.41ZM251.087 365.55C250.627 365.31 250.067 365.19 249.407 365.19C248.187 365.19 247.217 365.61 246.497 366.45C245.797 367.27 245.387 368.3 245.267 369.54H252.917C252.917 367.54 252.307 366.21 251.087 365.55ZM265.687 365.67C263.427 365.67 262.257 367.45 262.177 371.01V378H259.807V363.63H262.177V366.39C262.897 364.39 264.167 363.39 265.987 363.39C266.567 363.39 267.117 363.48 267.637 363.66L267.517 365.97C266.917 365.77 266.307 365.67 265.687 365.67ZM270.512 367.17C270.512 365.99 271.012 365.05 272.012 364.35C273.032 363.65 274.402 363.3 276.122 363.3C277.842 363.3 279.182 363.66 280.142 364.38C281.122 365.1 281.632 366.01 281.672 367.11H279.362C279.182 365.81 278.082 365.16 276.062 365.16C275.082 365.16 274.322 365.38 273.782 365.82C273.262 366.26 273.002 366.74 273.002 367.26C273.002 367.76 273.202 368.19 273.602 368.55C274.002 368.89 274.642 369.19 275.522 369.45L278.402 370.41C279.622 370.79 280.552 371.28 281.192 371.88C281.852 372.46 282.182 373.27 282.182 374.31C282.182 375.33 281.652 376.26 280.592 377.1C279.532 377.92 278.052 378.33 276.152 378.33C274.252 378.33 272.772 377.91 271.712 377.07C270.652 376.21 270.092 375.11 270.032 373.77H272.312C272.352 374.67 272.712 375.35 273.392 375.81C274.092 376.25 274.962 376.47 276.002 376.47C277.042 376.47 277.902 376.25 278.582 375.81C279.262 375.37 279.602 374.85 279.602 374.25C279.602 373.63 279.402 373.16 279.002 372.84C278.602 372.52 277.952 372.24 277.052 372L274.262 371.07C271.762 370.33 270.512 369.03 270.512 367.17ZM289.423 366.3C290.383 364.3 291.973 363.3 294.193 363.3C295.893 363.3 297.213 363.86 298.153 364.98C299.113 366.1 299.593 367.63 299.593 369.57V378H297.253V369.57C297.253 368.19 296.923 367.15 296.263 366.45C295.623 365.75 294.693 365.4 293.473 365.4C292.253 365.4 291.273 365.92 290.533 366.96C289.793 367.98 289.423 369.4 289.423 371.22V378H287.053V357.57H289.423V366.3ZM305.309 363.63H307.679V378H305.309V363.63ZM306.479 360.27C305.999 360.27 305.619 360.14 305.339 359.88C305.079 359.6 304.949 359.24 304.949 358.8C304.949 358.34 305.079 357.98 305.339 357.72C305.619 357.44 305.999 357.3 306.479 357.3C306.959 357.3 307.339 357.44 307.619 357.72C307.919 357.98 308.069 358.34 308.069 358.8C308.069 359.24 307.919 359.6 307.619 359.88C307.339 360.14 306.959 360.27 306.479 360.27ZM316.344 365.85C317.284 364.15 318.684 363.3 320.544 363.3C322.424 363.3 323.984 363.99 325.224 365.37C326.484 366.75 327.114 368.57 327.114 370.83C327.114 373.09 326.484 374.91 325.224 376.29C323.964 377.65 322.414 378.33 320.574 378.33C318.734 378.33 317.374 377.64 316.494 376.26V385.05H314.124V363.66H316.074L316.344 365.85ZM320.454 376.23C321.574 376.23 322.554 375.75 323.394 374.79C324.254 373.83 324.684 372.52 324.684 370.86C324.684 369.18 324.274 367.85 323.454 366.87C322.654 365.89 321.674 365.4 320.514 365.4C319.354 365.4 318.404 365.77 317.664 366.51C316.924 367.23 316.534 368.21 316.494 369.45V372.18C316.494 373.44 316.874 374.43 317.634 375.15C318.394 375.87 319.334 376.23 320.454 376.23Z" fill="white"/>
<path d="M396.79 35H393.85L388.39 27.47L383.32 35H380.44L387.1 25.64L380.41 16.13H383.26L388.66 23.84L393.64 16.13H396.49L389.98 25.61L396.79 35Z" fill="white"/>
</svg>
