<svg width="142" height="30" viewBox="0 0 142 30" fill="none" xmlns="http://www.w3.org/2000/svg">
<path d="M4.05078 17.8672V29H0.300781V0.5625H10.7891C13.901 0.5625 16.3359 1.35677 18.0938 2.94531C19.8646 4.53385 20.75 6.63672 20.75 9.25391C20.75 12.0143 19.8841 14.1432 18.1523 15.6406C16.4336 17.125 13.9661 17.8672 10.75 17.8672H4.05078ZM4.05078 14.8008H10.7891C12.7943 14.8008 14.3307 14.332 15.3984 13.3945C16.4661 12.444 17 11.0768 17 9.29297C17 7.60026 16.4661 6.24609 15.3984 5.23047C14.3307 4.21484 12.8659 3.6875 11.0039 3.64844H4.05078V14.8008ZM33.4648 29.3906C30.6003 29.3906 28.2695 28.4531 26.4727 26.5781C24.6758 24.6901 23.7773 22.1706 23.7773 19.0195V18.3555C23.7773 16.2591 24.1745 14.3906 24.9688 12.75C25.776 11.0964 26.8958 9.80729 28.3281 8.88281C29.7734 7.94531 31.3359 7.47656 33.0156 7.47656C35.763 7.47656 37.8984 8.38151 39.4219 10.1914C40.9453 12.0013 41.707 14.5924 41.707 17.9648V19.4688H27.3906C27.4427 21.5521 28.0482 23.2383 29.207 24.5273C30.3789 25.8034 31.8633 26.4414 33.6602 26.4414C34.9362 26.4414 36.0169 26.181 36.9023 25.6602C37.7878 25.1393 38.5625 24.4492 39.2266 23.5898L41.4336 25.3086C39.6628 28.0299 37.0065 29.3906 33.4648 29.3906ZM33.0156 10.4453C31.5573 10.4453 30.3333 10.9792 29.3438 12.0469C28.3542 13.1016 27.7422 14.5859 27.5078 16.5H38.0938V16.2266C37.9896 14.3906 37.4948 12.9714 36.6094 11.9688C35.724 10.9531 34.526 10.4453 33.0156 10.4453ZM56.1211 11.1094C55.5742 11.0182 54.9818 10.9727 54.3438 10.9727C51.974 10.9727 50.3659 11.9818 49.5195 14V29H45.9062V7.86719H49.4219L49.4805 10.3086C50.6654 8.42057 52.3451 7.47656 54.5195 7.47656C55.2227 7.47656 55.7565 7.56771 56.1211 7.75V11.1094ZM71.7656 23.3945C71.7656 22.418 71.3945 21.6628 70.6523 21.1289C69.9232 20.582 68.6406 20.1133 66.8047 19.7227C64.9818 19.332 63.5299 18.8633 62.4492 18.3164C61.3815 17.7695 60.5872 17.1185 60.0664 16.3633C59.5586 15.6081 59.3047 14.7096 59.3047 13.668C59.3047 11.9362 60.0339 10.4714 61.4922 9.27344C62.9635 8.07552 64.8385 7.47656 67.1172 7.47656C69.513 7.47656 71.4531 8.09505 72.9375 9.33203C74.4349 10.569 75.1836 12.151 75.1836 14.0781H71.5508C71.5508 13.0885 71.1276 12.2357 70.2812 11.5195C69.4479 10.8034 68.3932 10.4453 67.1172 10.4453C65.8021 10.4453 64.7734 10.7318 64.0312 11.3047C63.2891 11.8776 62.918 12.6263 62.918 13.5508C62.918 14.4232 63.263 15.0807 63.9531 15.5234C64.6432 15.9661 65.8867 16.3893 67.6836 16.793C69.4935 17.1966 70.9583 17.6784 72.0781 18.2383C73.1979 18.7982 74.0247 19.4753 74.5586 20.2695C75.1055 21.0508 75.3789 22.0078 75.3789 23.1406C75.3789 25.0286 74.6237 26.5456 73.1133 27.6914C71.6029 28.8242 69.6432 29.3906 67.2344 29.3906C65.5417 29.3906 64.0443 29.0911 62.7422 28.4922C61.4401 27.8932 60.418 27.0599 59.6758 25.9922C58.9466 24.9115 58.582 23.7461 58.582 22.4961H62.1953C62.2604 23.707 62.7422 24.6706 63.6406 25.3867C64.5521 26.0898 65.75 26.4414 67.2344 26.4414C68.6016 26.4414 69.6953 26.168 70.5156 25.6211C71.349 25.0612 71.7656 24.319 71.7656 23.3945ZM79.1289 18.2383C79.1289 16.168 79.5326 14.306 80.3398 12.6523C81.1602 10.9987 82.293 9.72266 83.7383 8.82422C85.1966 7.92578 86.8568 7.47656 88.7188 7.47656C91.5964 7.47656 93.9206 8.47266 95.6914 10.4648C97.4753 12.457 98.3672 15.1068 98.3672 18.4141V18.668C98.3672 20.7253 97.9701 22.5742 97.1758 24.2148C96.3945 25.8424 95.2682 27.112 93.7969 28.0234C92.3385 28.9349 90.6589 29.3906 88.7578 29.3906C85.8932 29.3906 83.569 28.3945 81.7852 26.4023C80.0143 24.4102 79.1289 21.7734 79.1289 18.4922V18.2383ZM82.7617 18.668C82.7617 21.0117 83.3021 22.8932 84.3828 24.3125C85.4766 25.7318 86.9349 26.4414 88.7578 26.4414C90.5938 26.4414 92.0521 25.7253 93.1328 24.293C94.2135 22.8477 94.7539 20.8294 94.7539 18.2383C94.7539 15.9206 94.2005 14.0456 93.0938 12.6133C92 11.168 90.5417 10.4453 88.7188 10.4453C86.9349 10.4453 85.4961 11.1549 84.4023 12.5742C83.3086 13.9935 82.7617 16.0247 82.7617 18.668ZM106.316 7.86719L106.434 10.5234C108.048 8.49219 110.158 7.47656 112.762 7.47656C117.228 7.47656 119.48 9.99609 119.52 15.0352V29H115.906V15.0156C115.893 13.4922 115.542 12.3659 114.852 11.6367C114.174 10.9076 113.113 10.543 111.668 10.543C110.496 10.543 109.467 10.8555 108.582 11.4805C107.697 12.1055 107.007 12.9258 106.512 13.9414V29H102.898V7.86719H106.316ZM138.016 29C137.807 28.5833 137.638 27.8411 137.508 26.7734C135.828 28.5182 133.823 29.3906 131.492 29.3906C129.409 29.3906 127.697 28.8047 126.355 27.6328C125.027 26.4479 124.363 24.9505 124.363 23.1406C124.363 20.9401 125.197 19.2344 126.863 18.0234C128.543 16.7995 130.9 16.1875 133.934 16.1875H137.449V14.5273C137.449 13.2643 137.072 12.2617 136.316 11.5195C135.561 10.7643 134.448 10.3867 132.977 10.3867C131.688 10.3867 130.607 10.7122 129.734 11.3633C128.862 12.0143 128.426 12.8021 128.426 13.7266H124.793C124.793 12.6719 125.164 11.6562 125.906 10.6797C126.661 9.6901 127.677 8.90885 128.953 8.33594C130.242 7.76302 131.655 7.47656 133.191 7.47656C135.626 7.47656 137.534 8.08854 138.914 9.3125C140.294 10.5234 141.01 12.1966 141.062 14.332V24.0586C141.062 25.9987 141.31 27.5417 141.805 28.6875V29H138.016ZM132.02 26.2461C133.152 26.2461 134.227 25.9531 135.242 25.3672C136.258 24.7812 136.993 24.0195 137.449 23.082V18.7461H134.617C130.19 18.7461 127.977 20.0417 127.977 22.6328C127.977 23.7656 128.354 24.651 129.109 25.2891C129.865 25.9271 130.835 26.2461 132.02 26.2461Z" fill="black"/>
</svg>
