<svg width="414" height="736" viewBox="0 0 414 736" fill="none" xmlns="http://www.w3.org/2000/svg">
<g clip-path="url(#clip0)">
<rect width="414" height="736" fill="white"/>
<path d="M0 -1H414V735H0V-1Z" fill="#F2F2F2"/>
<mask id="path-2-inside-1" fill="white">
<path d="M88.9899 57.0001L89.67 56.3351L84.8149 51.475L99 51.475L99 50.525L84.8149 50.525L89.67 45.66L88.9899 45L82.9999 51L88.9899 57.0001Z"/>
</mask>
<path d="M88.9899 57.0001L89.67 56.3351L84.8149 51.475L99 51.475L99 50.525L84.8149 50.525L89.67 45.66L88.9899 45L82.9999 51L88.9899 57.0001Z" fill="black"/>
<path d="M88.9899 57.0001L88.2823 57.7066L88.9815 58.407L89.6891 57.715L88.9899 57.0001ZM89.67 56.3351L90.3691 57.05L91.0917 56.3434L90.3774 55.6283L89.67 56.3351ZM84.8149 51.475L84.8149 50.475L82.4025 50.475L84.1075 52.1818L84.8149 51.475ZM99 51.475L99 52.475L100 52.475L100 51.475L99 51.475ZM99 50.525L100 50.525L100 49.525L99 49.525L99 50.525ZM84.8149 50.525L84.1071 49.8186L82.4042 51.525L84.8149 51.525L84.8149 50.525ZM89.67 45.66L90.3778 46.3664L91.0941 45.6486L90.3664 44.9424L89.67 45.66ZM88.9899 45L89.6864 44.2824L88.9789 43.5957L88.2823 44.2935L88.9899 45ZM82.9999 51L82.2922 50.2935L81.5869 51L82.2922 51.7065L82.9999 51ZM89.6891 57.715L90.3691 57.05L88.9708 55.6201L88.2908 56.2851L89.6891 57.715ZM90.3774 55.6283L85.5224 50.7683L84.1075 52.1818L88.9625 57.0418L90.3774 55.6283ZM84.8149 52.475L99 52.475L99 50.475L84.8149 50.475L84.8149 52.475ZM100 51.475L100 50.525L98 50.525L98 51.475L100 51.475ZM99 49.525L84.8149 49.525L84.8149 51.525L99 51.525L99 49.525ZM85.5228 51.2314L90.3778 46.3664L88.9621 44.9536L84.1071 49.8186L85.5228 51.2314ZM90.3664 44.9424L89.6864 44.2824L88.2935 45.7176L88.9735 46.3776L90.3664 44.9424ZM88.2823 44.2935L82.2922 50.2935L83.7076 51.7065L89.6976 45.7065L88.2823 44.2935ZM82.2922 51.7065L88.2823 57.7066L89.6976 56.2935L83.7076 50.2935L82.2922 51.7065Z" fill="black" mask="url(#path-2-inside-1)"/>
<circle cx="328.5" cy="43.5" r="1.5" fill="#2D2D2D"/>
<circle cx="328.5" cy="55.5" r="1.5" fill="#2D2D2D"/>
<circle cx="328.5" cy="49.5" r="1.5" fill="#2D2D2D"/>
<path d="M77 29.5H337C342.247 29.5 346.5 33.7533 346.5 39V263C346.5 268.247 342.247 272.5 337 272.5H77C71.7533 272.5 67.5 268.247 67.5 263V39C67.5 33.7533 71.7533 29.5 77 29.5Z" stroke="black"/>
<path d="M75.8047 318H74.4854L69.4746 310.33V318H68.1553V308.047H69.4746L74.499 315.751V308.047H75.8047V318ZM82.5039 318C82.431 317.854 82.3717 317.594 82.3262 317.221C81.7383 317.831 81.0365 318.137 80.2207 318.137C79.4915 318.137 78.8923 317.932 78.4229 317.521C77.958 317.107 77.7256 316.583 77.7256 315.949C77.7256 315.179 78.0173 314.582 78.6006 314.158C79.1885 313.73 80.0133 313.516 81.0752 313.516H82.3057V312.935C82.3057 312.493 82.1735 312.142 81.9092 311.882C81.6449 311.618 81.2552 311.485 80.7402 311.485C80.2891 311.485 79.9108 311.599 79.6055 311.827C79.3001 312.055 79.1475 312.331 79.1475 312.654H77.876C77.876 312.285 78.0059 311.93 78.2656 311.588C78.5299 311.242 78.8854 310.968 79.332 310.768C79.7832 310.567 80.2777 310.467 80.8154 310.467C81.6676 310.467 82.3353 310.681 82.8184 311.109C83.3014 311.533 83.5521 312.119 83.5703 312.866V316.271C83.5703 316.95 83.6569 317.49 83.8301 317.891V318H82.5039ZM80.4053 317.036C80.8018 317.036 81.1777 316.934 81.5332 316.729C81.8887 316.523 82.1462 316.257 82.3057 315.929V314.411H81.3145C79.765 314.411 78.9902 314.865 78.9902 315.771C78.9902 316.168 79.1224 316.478 79.3867 316.701C79.651 316.924 79.9906 317.036 80.4053 317.036ZM86.7422 310.604L86.7764 311.424C87.3187 310.786 88.0501 310.467 88.9707 310.467C90.0052 310.467 90.7093 310.863 91.083 311.656C91.3291 311.301 91.6481 311.014 92.04 310.795C92.4365 310.576 92.9036 310.467 93.4414 310.467C95.0638 310.467 95.8887 311.326 95.916 313.044V318H94.6514V313.119C94.6514 312.59 94.5306 312.196 94.2891 311.937C94.0475 311.672 93.6419 311.54 93.0723 311.54C92.6029 311.54 92.2132 311.681 91.9033 311.964C91.5934 312.242 91.4134 312.618 91.3633 313.092V318H90.0918V313.153C90.0918 312.078 89.5654 311.54 88.5127 311.54C87.6833 311.54 87.1159 311.893 86.8105 312.6V318H85.5459V310.604H86.7422ZM100.899 318.137C99.8968 318.137 99.0811 317.809 98.4521 317.152C97.8232 316.492 97.5088 315.61 97.5088 314.507V314.274C97.5088 313.541 97.6478 312.887 97.9258 312.312C98.2083 311.734 98.6003 311.283 99.1016 310.959C99.6074 310.631 100.154 310.467 100.742 310.467C101.704 310.467 102.451 310.784 102.984 311.417C103.518 312.05 103.784 312.957 103.784 314.138V314.664H98.7734C98.7917 315.393 99.0036 315.983 99.4092 316.435C99.8193 316.881 100.339 317.104 100.968 317.104C101.414 317.104 101.793 317.013 102.103 316.831C102.412 316.649 102.684 316.407 102.916 316.106L103.688 316.708C103.069 317.66 102.139 318.137 100.899 318.137ZM100.742 311.506C100.232 311.506 99.8034 311.693 99.457 312.066C99.1107 312.436 98.8965 312.955 98.8145 313.625H102.52V313.529C102.483 312.887 102.31 312.39 102 312.039C101.69 311.684 101.271 311.506 100.742 311.506Z" fill="black"/>
<path d="M75.4766 347.842C75.3535 348.895 74.9639 349.708 74.3076 350.282C73.6559 350.852 72.7878 351.137 71.7031 351.137C70.5273 351.137 69.584 350.715 68.873 349.872C68.1667 349.029 67.8135 347.901 67.8135 346.488V345.531C67.8135 344.606 67.9775 343.793 68.3057 343.091C68.6383 342.389 69.1077 341.851 69.7139 341.478C70.32 341.099 71.0218 340.91 71.8193 340.91C72.8766 340.91 73.7243 341.206 74.3623 341.799C75.0003 342.387 75.3717 343.202 75.4766 344.246H74.1572C74.0433 343.453 73.7949 342.879 73.4121 342.523C73.0339 342.168 72.5029 341.99 71.8193 341.99C70.9808 341.99 70.3223 342.3 69.8438 342.92C69.3698 343.54 69.1328 344.422 69.1328 345.565V346.529C69.1328 347.609 69.3584 348.468 69.8096 349.106C70.2607 349.744 70.8919 350.063 71.7031 350.063C72.4323 350.063 72.9906 349.899 73.3779 349.571C73.7699 349.239 74.0296 348.662 74.1572 347.842H75.4766ZM81.6426 351C81.5697 350.854 81.5104 350.594 81.4648 350.221C80.877 350.831 80.1751 351.137 79.3594 351.137C78.6302 351.137 78.0309 350.932 77.5615 350.521C77.0967 350.107 76.8643 349.583 76.8643 348.949C76.8643 348.179 77.1559 347.582 77.7393 347.158C78.3271 346.73 79.152 346.516 80.2139 346.516H81.4443V345.935C81.4443 345.493 81.3122 345.142 81.0479 344.882C80.7835 344.618 80.3939 344.485 79.8789 344.485C79.4277 344.485 79.0495 344.599 78.7441 344.827C78.4388 345.055 78.2861 345.331 78.2861 345.654H77.0146C77.0146 345.285 77.1445 344.93 77.4043 344.588C77.6686 344.242 78.0241 343.968 78.4707 343.768C78.9219 343.567 79.4163 343.467 79.9541 343.467C80.8063 343.467 81.474 343.681 81.957 344.109C82.4401 344.533 82.6908 345.119 82.709 345.866V349.271C82.709 349.95 82.7956 350.49 82.9688 350.891V351H81.6426ZM79.5439 350.036C79.9404 350.036 80.3164 349.934 80.6719 349.729C81.0273 349.523 81.2848 349.257 81.4443 348.929V347.411H80.4531C78.9036 347.411 78.1289 347.865 78.1289 348.771C78.1289 349.168 78.2611 349.478 78.5254 349.701C78.7897 349.924 79.1292 350.036 79.5439 350.036ZM88.2666 344.738C88.0752 344.706 87.8678 344.69 87.6445 344.69C86.8151 344.69 86.2523 345.044 85.9561 345.75V351H84.6914V343.604H85.9219L85.9424 344.458C86.3571 343.797 86.945 343.467 87.7061 343.467C87.9521 343.467 88.139 343.499 88.2666 343.562V344.738ZM92.3682 351.137C91.3656 351.137 90.5498 350.809 89.9209 350.152C89.292 349.492 88.9775 348.61 88.9775 347.507V347.274C88.9775 346.541 89.1165 345.887 89.3945 345.312C89.6771 344.734 90.069 344.283 90.5703 343.959C91.0762 343.631 91.623 343.467 92.2109 343.467C93.1725 343.467 93.9199 343.784 94.4531 344.417C94.9863 345.05 95.2529 345.957 95.2529 347.138V347.664H90.2422C90.2604 348.393 90.4723 348.983 90.8779 349.435C91.2881 349.881 91.8076 350.104 92.4365 350.104C92.8831 350.104 93.2614 350.013 93.5713 349.831C93.8812 349.649 94.1523 349.407 94.3848 349.106L95.1572 349.708C94.5374 350.66 93.6077 351.137 92.3682 351.137ZM92.2109 344.506C91.7005 344.506 91.2721 344.693 90.9258 345.066C90.5794 345.436 90.3652 345.955 90.2832 346.625H93.9883V346.529C93.9518 345.887 93.7786 345.39 93.4688 345.039C93.1589 344.684 92.7396 344.506 92.2109 344.506ZM99.792 351.137C98.7894 351.137 97.9736 350.809 97.3447 350.152C96.7158 349.492 96.4014 348.61 96.4014 347.507V347.274C96.4014 346.541 96.5404 345.887 96.8184 345.312C97.1009 344.734 97.4928 344.283 97.9941 343.959C98.5 343.631 99.0469 343.467 99.6348 343.467C100.596 343.467 101.344 343.784 101.877 344.417C102.41 345.05 102.677 345.957 102.677 347.138V347.664H97.666C97.6842 348.393 97.8962 348.983 98.3018 349.435C98.7119 349.881 99.2314 350.104 99.8604 350.104C100.307 350.104 100.685 350.013 100.995 349.831C101.305 349.649 101.576 349.407 101.809 349.106L102.581 349.708C101.961 350.66 101.032 351.137 99.792 351.137ZM99.6348 344.506C99.1243 344.506 98.696 344.693 98.3496 345.066C98.0033 345.436 97.7891 345.955 97.707 346.625H101.412V346.529C101.376 345.887 101.202 345.39 100.893 345.039C100.583 344.684 100.163 344.506 99.6348 344.506ZM107.722 344.738C107.53 344.706 107.323 344.69 107.1 344.69C106.27 344.69 105.707 345.044 105.411 345.75V351H104.146V343.604H105.377L105.397 344.458C105.812 343.797 106.4 343.467 107.161 343.467C107.407 343.467 107.594 343.499 107.722 343.562V344.738Z" fill="black"/>
<path d="M69.1465 378.604L69.1807 379.424C69.723 378.786 70.4544 378.467 71.375 378.467C72.4095 378.467 73.1136 378.863 73.4873 379.656C73.7334 379.301 74.0524 379.014 74.4443 378.795C74.8408 378.576 75.3079 378.467 75.8457 378.467C77.4681 378.467 78.293 379.326 78.3203 381.044V386H77.0557V381.119C77.0557 380.59 76.9349 380.196 76.6934 379.937C76.4518 379.672 76.0462 379.54 75.4766 379.54C75.0072 379.54 74.6175 379.681 74.3076 379.964C73.9977 380.242 73.8177 380.618 73.7676 381.092V386H72.4961V381.153C72.4961 380.078 71.9697 379.54 70.917 379.54C70.0876 379.54 69.5202 379.893 69.2148 380.6V386H67.9502V378.604H69.1465ZM81.6084 386H80.3438V378.604H81.6084V386ZM80.2412 376.642C80.2412 376.437 80.3027 376.263 80.4258 376.122C80.5534 375.981 80.7402 375.91 80.9863 375.91C81.2324 375.91 81.4193 375.981 81.5469 376.122C81.6745 376.263 81.7383 376.437 81.7383 376.642C81.7383 376.847 81.6745 377.018 81.5469 377.154C81.4193 377.291 81.2324 377.359 80.9863 377.359C80.7402 377.359 80.5534 377.291 80.4258 377.154C80.3027 377.018 80.2412 376.847 80.2412 376.642ZM85.0127 386H83.748V375.5H85.0127V386ZM90.1123 386.137C89.1097 386.137 88.2939 385.809 87.665 385.152C87.0361 384.492 86.7217 383.61 86.7217 382.507V382.274C86.7217 381.541 86.8607 380.887 87.1387 380.312C87.4212 379.734 87.8132 379.283 88.3145 378.959C88.8203 378.631 89.3672 378.467 89.9551 378.467C90.9167 378.467 91.6641 378.784 92.1973 379.417C92.7305 380.05 92.9971 380.957 92.9971 382.138V382.664H87.9863C88.0046 383.393 88.2165 383.983 88.6221 384.435C89.0322 384.881 89.5518 385.104 90.1807 385.104C90.6273 385.104 91.0055 385.013 91.3154 384.831C91.6253 384.649 91.8965 384.407 92.1289 384.106L92.9014 384.708C92.2816 385.66 91.3519 386.137 90.1123 386.137ZM89.9551 379.506C89.4447 379.506 89.0163 379.693 88.6699 380.066C88.3236 380.436 88.1094 380.955 88.0273 381.625H91.7324V381.529C91.696 380.887 91.5228 380.39 91.2129 380.039C90.903 379.684 90.4837 379.506 89.9551 379.506ZM98.7734 384.038C98.7734 383.696 98.6436 383.432 98.3838 383.245C98.1286 383.054 97.6797 382.89 97.0371 382.753C96.3991 382.616 95.891 382.452 95.5127 382.261C95.139 382.069 94.861 381.841 94.6787 381.577C94.501 381.313 94.4121 380.998 94.4121 380.634C94.4121 380.028 94.6673 379.515 95.1777 379.096C95.6927 378.676 96.349 378.467 97.1465 378.467C97.985 378.467 98.6641 378.683 99.1836 379.116C99.7077 379.549 99.9697 380.103 99.9697 380.777H98.6982C98.6982 380.431 98.5501 380.132 98.2539 379.882C97.9622 379.631 97.5931 379.506 97.1465 379.506C96.6862 379.506 96.3262 379.606 96.0664 379.807C95.8066 380.007 95.6768 380.269 95.6768 380.593C95.6768 380.898 95.7975 381.128 96.0391 381.283C96.2806 381.438 96.7158 381.586 97.3447 381.728C97.9782 381.869 98.4909 382.037 98.8828 382.233C99.2747 382.429 99.5641 382.666 99.751 382.944C99.9424 383.218 100.038 383.553 100.038 383.949C100.038 384.61 99.7738 385.141 99.2451 385.542C98.7165 385.938 98.0306 386.137 97.1875 386.137C96.5951 386.137 96.071 386.032 95.6152 385.822C95.1595 385.613 94.8018 385.321 94.542 384.947C94.2868 384.569 94.1592 384.161 94.1592 383.724H95.4238C95.4466 384.147 95.6152 384.485 95.9297 384.735C96.2487 384.981 96.668 385.104 97.1875 385.104C97.666 385.104 98.0488 385.009 98.3359 384.817C98.6276 384.621 98.7734 384.362 98.7734 384.038ZM109.725 386C109.652 385.854 109.592 385.594 109.547 385.221C108.959 385.831 108.257 386.137 107.441 386.137C106.712 386.137 106.113 385.932 105.644 385.521C105.179 385.107 104.946 384.583 104.946 383.949C104.946 383.179 105.238 382.582 105.821 382.158C106.409 381.73 107.234 381.516 108.296 381.516H109.526V380.935C109.526 380.493 109.394 380.142 109.13 379.882C108.866 379.618 108.476 379.485 107.961 379.485C107.51 379.485 107.132 379.599 106.826 379.827C106.521 380.055 106.368 380.331 106.368 380.654H105.097C105.097 380.285 105.227 379.93 105.486 379.588C105.751 379.242 106.106 378.968 106.553 378.768C107.004 378.567 107.498 378.467 108.036 378.467C108.888 378.467 109.556 378.681 110.039 379.109C110.522 379.533 110.773 380.119 110.791 380.866V384.271C110.791 384.95 110.878 385.49 111.051 385.891V386H109.725ZM107.626 385.036C108.022 385.036 108.398 384.934 108.754 384.729C109.109 384.523 109.367 384.257 109.526 383.929V382.411H108.535C106.986 382.411 106.211 382.865 106.211 383.771C106.211 384.168 106.343 384.478 106.607 384.701C106.872 384.924 107.211 385.036 107.626 385.036ZM119.322 384.257L120.744 378.604H122.009L119.855 386H118.83L117.032 380.395L115.282 386H114.257L112.11 378.604H113.368L114.824 384.141L116.547 378.604H117.565L119.322 384.257ZM127.867 386C127.794 385.854 127.735 385.594 127.689 385.221C127.102 385.831 126.4 386.137 125.584 386.137C124.855 386.137 124.256 385.932 123.786 385.521C123.321 385.107 123.089 384.583 123.089 383.949C123.089 383.179 123.381 382.582 123.964 382.158C124.552 381.73 125.377 381.516 126.438 381.516H127.669V380.935C127.669 380.493 127.537 380.142 127.272 379.882C127.008 379.618 126.618 379.485 126.104 379.485C125.652 379.485 125.274 379.599 124.969 379.827C124.663 380.055 124.511 380.331 124.511 380.654H123.239C123.239 380.285 123.369 379.93 123.629 379.588C123.893 379.242 124.249 378.968 124.695 378.768C125.146 378.567 125.641 378.467 126.179 378.467C127.031 378.467 127.699 378.681 128.182 379.109C128.665 379.533 128.915 380.119 128.934 380.866V384.271C128.934 384.95 129.02 385.49 129.193 385.891V386H127.867ZM125.769 385.036C126.165 385.036 126.541 384.934 126.896 384.729C127.252 384.523 127.509 384.257 127.669 383.929V382.411H126.678C125.128 382.411 124.354 382.865 124.354 383.771C124.354 384.168 124.486 384.478 124.75 384.701C125.014 384.924 125.354 385.036 125.769 385.036ZM133.227 384.147L134.949 378.604H136.303L133.329 387.142C132.869 388.372 132.137 388.987 131.135 388.987L130.896 388.967L130.424 388.878V387.853L130.766 387.88C131.194 387.88 131.527 387.793 131.764 387.62C132.005 387.447 132.203 387.13 132.358 386.67L132.639 385.918L130 378.604H131.381L133.227 384.147Z" fill="black"/>
<path d="M73.6514 432.402H69.4814L68.5449 435H67.1914L70.9922 425.047H72.1406L75.9482 435H74.6016L73.6514 432.402ZM69.8779 431.322H73.2617L71.5664 426.667L69.8779 431.322ZM83.3516 431.384C83.3516 432.514 83.0918 433.423 82.5723 434.111C82.0527 434.795 81.3555 435.137 80.4805 435.137C79.5462 435.137 78.8239 434.806 78.3135 434.146L78.252 435H77.0898V424.5H78.3545V428.417C78.8649 427.784 79.569 427.467 80.4668 427.467C81.3646 427.467 82.0687 427.806 82.5791 428.485C83.0941 429.164 83.3516 430.094 83.3516 431.274V431.384ZM82.0869 431.24C82.0869 430.379 81.9206 429.714 81.5879 429.244C81.2552 428.775 80.7767 428.54 80.1523 428.54C79.3184 428.54 78.7191 428.927 78.3545 429.702V432.901C78.7419 433.676 79.3457 434.063 80.166 434.063C80.7721 434.063 81.2438 433.829 81.5811 433.359C81.9183 432.89 82.0869 432.184 82.0869 431.24ZM84.6162 431.233C84.6162 430.509 84.7575 429.857 85.04 429.278C85.3271 428.7 85.7236 428.253 86.2295 427.938C86.7399 427.624 87.321 427.467 87.9727 427.467C88.9798 427.467 89.7933 427.815 90.4131 428.513C91.0374 429.21 91.3496 430.137 91.3496 431.295V431.384C91.3496 432.104 91.2106 432.751 90.9326 433.325C90.6592 433.895 90.265 434.339 89.75 434.658C89.2396 434.977 88.6517 435.137 87.9863 435.137C86.9837 435.137 86.1702 434.788 85.5459 434.091C84.9261 433.394 84.6162 432.471 84.6162 431.322V431.233ZM85.8877 431.384C85.8877 432.204 86.0768 432.863 86.4551 433.359C86.8379 433.856 87.3483 434.104 87.9863 434.104C88.6289 434.104 89.1393 433.854 89.5176 433.353C89.8958 432.847 90.085 432.14 90.085 431.233C90.085 430.422 89.8913 429.766 89.5039 429.265C89.1211 428.759 88.6107 428.506 87.9727 428.506C87.3483 428.506 86.8447 428.754 86.4619 429.251C86.0791 429.748 85.8877 430.459 85.8877 431.384ZM97.502 434.269C97.0098 434.847 96.2874 435.137 95.335 435.137C94.5465 435.137 93.945 434.909 93.5303 434.453C93.1201 433.993 92.9128 433.314 92.9082 432.416V427.604H94.1729V432.382C94.1729 433.503 94.6286 434.063 95.54 434.063C96.5062 434.063 97.1488 433.703 97.4678 432.983V427.604H98.7324V435H97.5293L97.502 434.269ZM102.376 425.812V427.604H103.757V428.581H102.376V433.168C102.376 433.464 102.438 433.688 102.561 433.838C102.684 433.984 102.893 434.057 103.189 434.057C103.335 434.057 103.536 434.029 103.791 433.975V435C103.458 435.091 103.135 435.137 102.82 435.137C102.255 435.137 101.829 434.966 101.542 434.624C101.255 434.282 101.111 433.797 101.111 433.168V428.581H99.7646V427.604H101.111V425.812H102.376ZM109.902 427.604L109.937 428.424C110.479 427.786 111.21 427.467 112.131 427.467C113.165 427.467 113.869 427.863 114.243 428.656C114.489 428.301 114.808 428.014 115.2 427.795C115.597 427.576 116.064 427.467 116.602 427.467C118.224 427.467 119.049 428.326 119.076 430.044V435H117.812V430.119C117.812 429.59 117.691 429.196 117.449 428.937C117.208 428.672 116.802 428.54 116.232 428.54C115.763 428.54 115.373 428.681 115.063 428.964C114.754 429.242 114.574 429.618 114.523 430.092V435H113.252V430.153C113.252 429.078 112.726 428.54 111.673 428.54C110.843 428.54 110.276 428.893 109.971 429.6V435H108.706V427.604H109.902ZM124.06 435.137C123.057 435.137 122.241 434.809 121.612 434.152C120.983 433.492 120.669 432.61 120.669 431.507V431.274C120.669 430.541 120.808 429.887 121.086 429.312C121.368 428.734 121.76 428.283 122.262 427.959C122.768 427.631 123.314 427.467 123.902 427.467C124.864 427.467 125.611 427.784 126.145 428.417C126.678 429.05 126.944 429.957 126.944 431.138V431.664H121.934C121.952 432.393 122.164 432.983 122.569 433.435C122.979 433.881 123.499 434.104 124.128 434.104C124.575 434.104 124.953 434.013 125.263 433.831C125.573 433.649 125.844 433.407 126.076 433.106L126.849 433.708C126.229 434.66 125.299 435.137 124.06 435.137ZM123.902 428.506C123.392 428.506 122.964 428.693 122.617 429.066C122.271 429.436 122.057 429.955 121.975 430.625H125.68V430.529C125.643 429.887 125.47 429.39 125.16 429.039C124.85 428.684 124.431 428.506 123.902 428.506Z" fill="black"/>
<path d="M69.5635 519H68.251V509.047H69.5635V519ZM72.9678 511.604L73.0088 512.533C73.5739 511.822 74.3122 511.467 75.2236 511.467C76.7868 511.467 77.5752 512.349 77.5889 514.112V519H76.3242V514.105C76.3197 513.572 76.1966 513.178 75.9551 512.923C75.7181 512.668 75.3467 512.54 74.8408 512.54C74.4307 512.54 74.0706 512.649 73.7607 512.868C73.4508 513.087 73.2093 513.374 73.0361 513.729V519H71.7715V511.604H72.9678ZM81.2119 509.812V511.604H82.5928V512.581H81.2119V517.168C81.2119 517.464 81.2734 517.688 81.3965 517.838C81.5195 517.984 81.7292 518.057 82.0254 518.057C82.1712 518.057 82.3717 518.029 82.627 517.975V519C82.2943 519.091 81.9707 519.137 81.6562 519.137C81.0911 519.137 80.665 518.966 80.3779 518.624C80.0908 518.282 79.9473 517.797 79.9473 517.168V512.581H78.6006V511.604H79.9473V509.812H81.2119ZM87.1455 519.137C86.1429 519.137 85.3271 518.809 84.6982 518.152C84.0693 517.492 83.7549 516.61 83.7549 515.507V515.274C83.7549 514.541 83.8939 513.887 84.1719 513.312C84.4544 512.734 84.8464 512.283 85.3477 511.959C85.8535 511.631 86.4004 511.467 86.9883 511.467C87.9499 511.467 88.6973 511.784 89.2305 512.417C89.7637 513.05 90.0303 513.957 90.0303 515.138V515.664H85.0195C85.0378 516.393 85.2497 516.983 85.6553 517.435C86.0654 517.881 86.585 518.104 87.2139 518.104C87.6605 518.104 88.0387 518.013 88.3486 517.831C88.6585 517.649 88.9297 517.407 89.1621 517.106L89.9346 517.708C89.3148 518.66 88.3851 519.137 87.1455 519.137ZM86.9883 512.506C86.4779 512.506 86.0495 512.693 85.7031 513.066C85.3568 513.436 85.1426 513.955 85.0605 514.625H88.7656V514.529C88.7292 513.887 88.556 513.39 88.2461 513.039C87.9362 512.684 87.5169 512.506 86.9883 512.506ZM95.0752 512.738C94.8838 512.706 94.6764 512.69 94.4531 512.69C93.6237 512.69 93.0609 513.044 92.7646 513.75V519H91.5V511.604H92.7305L92.751 512.458C93.1657 511.797 93.7536 511.467 94.5146 511.467C94.7607 511.467 94.9476 511.499 95.0752 511.562V512.738ZM99.1768 519.137C98.1742 519.137 97.3584 518.809 96.7295 518.152C96.1006 517.492 95.7861 516.61 95.7861 515.507V515.274C95.7861 514.541 95.9251 513.887 96.2031 513.312C96.4857 512.734 96.8776 512.283 97.3789 511.959C97.8848 511.631 98.4316 511.467 99.0195 511.467C99.9811 511.467 100.729 511.784 101.262 512.417C101.795 513.05 102.062 513.957 102.062 515.138V515.664H97.0508C97.069 516.393 97.2809 516.983 97.6865 517.435C98.0967 517.881 98.6162 518.104 99.2451 518.104C99.6917 518.104 100.07 518.013 100.38 517.831C100.69 517.649 100.961 517.407 101.193 517.106L101.966 517.708C101.346 518.66 100.416 519.137 99.1768 519.137ZM99.0195 512.506C98.5091 512.506 98.0807 512.693 97.7344 513.066C97.388 513.436 97.1738 513.955 97.0918 514.625H100.797V514.529C100.76 513.887 100.587 513.39 100.277 513.039C99.9674 512.684 99.5482 512.506 99.0195 512.506ZM107.838 517.038C107.838 516.696 107.708 516.432 107.448 516.245C107.193 516.054 106.744 515.89 106.102 515.753C105.464 515.616 104.955 515.452 104.577 515.261C104.203 515.069 103.925 514.841 103.743 514.577C103.565 514.313 103.477 513.998 103.477 513.634C103.477 513.028 103.732 512.515 104.242 512.096C104.757 511.676 105.413 511.467 106.211 511.467C107.049 511.467 107.729 511.683 108.248 512.116C108.772 512.549 109.034 513.103 109.034 513.777H107.763C107.763 513.431 107.615 513.132 107.318 512.882C107.027 512.631 106.658 512.506 106.211 512.506C105.751 512.506 105.391 512.606 105.131 512.807C104.871 513.007 104.741 513.269 104.741 513.593C104.741 513.898 104.862 514.128 105.104 514.283C105.345 514.438 105.78 514.586 106.409 514.728C107.043 514.869 107.555 515.037 107.947 515.233C108.339 515.429 108.629 515.666 108.815 515.944C109.007 516.218 109.103 516.553 109.103 516.949C109.103 517.61 108.838 518.141 108.31 518.542C107.781 518.938 107.095 519.137 106.252 519.137C105.66 519.137 105.135 519.032 104.68 518.822C104.224 518.613 103.866 518.321 103.606 517.947C103.351 517.569 103.224 517.161 103.224 516.724H104.488C104.511 517.147 104.68 517.485 104.994 517.735C105.313 517.981 105.732 518.104 106.252 518.104C106.73 518.104 107.113 518.009 107.4 517.817C107.692 517.621 107.838 517.362 107.838 517.038ZM112.466 509.812V511.604H113.847V512.581H112.466V517.168C112.466 517.464 112.527 517.688 112.65 517.838C112.773 517.984 112.983 518.057 113.279 518.057C113.425 518.057 113.626 518.029 113.881 517.975V519C113.548 519.091 113.225 519.137 112.91 519.137C112.345 519.137 111.919 518.966 111.632 518.624C111.345 518.282 111.201 517.797 111.201 517.168V512.581H109.854V511.604H111.201V509.812H112.466ZM119.637 517.038C119.637 516.696 119.507 516.432 119.247 516.245C118.992 516.054 118.543 515.89 117.9 515.753C117.262 515.616 116.754 515.452 116.376 515.261C116.002 515.069 115.724 514.841 115.542 514.577C115.364 514.313 115.275 513.998 115.275 513.634C115.275 513.028 115.531 512.515 116.041 512.096C116.556 511.676 117.212 511.467 118.01 511.467C118.848 511.467 119.527 511.683 120.047 512.116C120.571 512.549 120.833 513.103 120.833 513.777H119.562C119.562 513.431 119.413 513.132 119.117 512.882C118.826 512.631 118.456 512.506 118.01 512.506C117.549 512.506 117.189 512.606 116.93 512.807C116.67 513.007 116.54 513.269 116.54 513.593C116.54 513.898 116.661 514.128 116.902 514.283C117.144 514.438 117.579 514.586 118.208 514.728C118.841 514.869 119.354 515.037 119.746 515.233C120.138 515.429 120.427 515.666 120.614 515.944C120.806 516.218 120.901 516.553 120.901 516.949C120.901 517.61 120.637 518.141 120.108 518.542C119.58 518.938 118.894 519.137 118.051 519.137C117.458 519.137 116.934 519.032 116.479 518.822C116.023 518.613 115.665 518.321 115.405 517.947C115.15 517.569 115.022 517.161 115.022 516.724H116.287C116.31 517.147 116.479 517.485 116.793 517.735C117.112 517.981 117.531 518.104 118.051 518.104C118.529 518.104 118.912 518.009 119.199 517.817C119.491 517.621 119.637 517.362 119.637 517.038Z" fill="black"/>
<path d="M73.6445 611.604H69.4678V616H68.1553V606.047H74.3213V607.127H69.4678V610.531H73.6445V611.604ZM75.21 612.233C75.21 611.509 75.3512 610.857 75.6338 610.278C75.9209 609.7 76.3174 609.253 76.8232 608.938C77.3337 608.624 77.9147 608.467 78.5664 608.467C79.5736 608.467 80.387 608.815 81.0068 609.513C81.6312 610.21 81.9434 611.137 81.9434 612.295V612.384C81.9434 613.104 81.8044 613.751 81.5264 614.325C81.2529 614.895 80.8587 615.339 80.3438 615.658C79.8333 615.977 79.2454 616.137 78.5801 616.137C77.5775 616.137 76.764 615.788 76.1396 615.091C75.5199 614.394 75.21 613.471 75.21 612.322V612.233ZM76.4814 612.384C76.4814 613.204 76.6706 613.863 77.0488 614.359C77.4316 614.856 77.9421 615.104 78.5801 615.104C79.2227 615.104 79.7331 614.854 80.1113 614.353C80.4896 613.847 80.6787 613.14 80.6787 612.233C80.6787 611.422 80.485 610.766 80.0977 610.265C79.7148 609.759 79.2044 609.506 78.5664 609.506C77.9421 609.506 77.4385 609.754 77.0557 610.251C76.6729 610.748 76.4814 611.459 76.4814 612.384ZM84.9033 616H83.6387V605.5H84.9033V616ZM88.3076 616H87.043V605.5H88.3076V616ZM90.0029 612.233C90.0029 611.509 90.1442 610.857 90.4268 610.278C90.7139 609.7 91.1104 609.253 91.6162 608.938C92.1266 608.624 92.7077 608.467 93.3594 608.467C94.3665 608.467 95.18 608.815 95.7998 609.513C96.4242 610.21 96.7363 611.137 96.7363 612.295V612.384C96.7363 613.104 96.5973 613.751 96.3193 614.325C96.0459 614.895 95.6517 615.339 95.1367 615.658C94.6263 615.977 94.0384 616.137 93.373 616.137C92.3704 616.137 91.557 615.788 90.9326 615.091C90.3128 614.394 90.0029 613.471 90.0029 612.322V612.233ZM91.2744 612.384C91.2744 613.204 91.4635 613.863 91.8418 614.359C92.2246 614.856 92.735 615.104 93.373 615.104C94.0156 615.104 94.526 614.854 94.9043 614.353C95.2826 613.847 95.4717 613.14 95.4717 612.233C95.4717 611.422 95.278 610.766 94.8906 610.265C94.5078 609.759 93.9974 609.506 93.3594 609.506C92.735 609.506 92.2314 609.754 91.8486 610.251C91.4658 610.748 91.2744 611.459 91.2744 612.384ZM104.871 614.257L106.293 608.604H107.558L105.404 616H104.379L102.581 610.395L100.831 616H99.8057L97.6592 608.604H98.917L100.373 614.141L102.096 608.604H103.114L104.871 614.257ZM113.512 608.604L113.546 609.424C114.088 608.786 114.82 608.467 115.74 608.467C116.775 608.467 117.479 608.863 117.853 609.656C118.099 609.301 118.418 609.014 118.81 608.795C119.206 608.576 119.673 608.467 120.211 608.467C121.833 608.467 122.658 609.326 122.686 611.044V616H121.421V611.119C121.421 610.59 121.3 610.196 121.059 609.937C120.817 609.672 120.411 609.54 119.842 609.54C119.372 609.54 118.983 609.681 118.673 609.964C118.363 610.242 118.183 610.618 118.133 611.092V616H116.861V611.153C116.861 610.078 116.335 609.54 115.282 609.54C114.453 609.54 113.885 609.893 113.58 610.6V616H112.315V608.604H113.512ZM127.669 616.137C126.666 616.137 125.851 615.809 125.222 615.152C124.593 614.492 124.278 613.61 124.278 612.507V612.274C124.278 611.541 124.417 610.887 124.695 610.312C124.978 609.734 125.37 609.283 125.871 608.959C126.377 608.631 126.924 608.467 127.512 608.467C128.473 608.467 129.221 608.784 129.754 609.417C130.287 610.05 130.554 610.957 130.554 612.138V612.664H125.543C125.561 613.393 125.773 613.983 126.179 614.435C126.589 614.881 127.108 615.104 127.737 615.104C128.184 615.104 128.562 615.013 128.872 614.831C129.182 614.649 129.453 614.407 129.686 614.106L130.458 614.708C129.838 615.66 128.909 616.137 127.669 616.137ZM127.512 609.506C127.001 609.506 126.573 609.693 126.227 610.066C125.88 610.436 125.666 610.955 125.584 611.625H129.289V611.529C129.253 610.887 129.079 610.39 128.77 610.039C128.46 609.684 128.04 609.506 127.512 609.506ZM135.161 612.233C135.161 611.509 135.302 610.857 135.585 610.278C135.872 609.7 136.269 609.253 136.774 608.938C137.285 608.624 137.866 608.467 138.518 608.467C139.525 608.467 140.338 608.815 140.958 609.513C141.582 610.21 141.895 611.137 141.895 612.295V612.384C141.895 613.104 141.756 613.751 141.478 614.325C141.204 614.895 140.81 615.339 140.295 615.658C139.785 615.977 139.197 616.137 138.531 616.137C137.529 616.137 136.715 615.788 136.091 615.091C135.471 614.394 135.161 613.471 135.161 612.322V612.233ZM136.433 612.384C136.433 613.204 136.622 613.863 137 614.359C137.383 614.856 137.893 615.104 138.531 615.104C139.174 615.104 139.684 614.854 140.062 614.353C140.441 613.847 140.63 613.14 140.63 612.233C140.63 611.422 140.436 610.766 140.049 610.265C139.666 609.759 139.156 609.506 138.518 609.506C137.893 609.506 137.39 609.754 137.007 610.251C136.624 610.748 136.433 611.459 136.433 612.384ZM144.677 608.604L144.718 609.533C145.283 608.822 146.021 608.467 146.933 608.467C148.496 608.467 149.284 609.349 149.298 611.112V616H148.033V611.105C148.029 610.572 147.906 610.178 147.664 609.923C147.427 609.668 147.056 609.54 146.55 609.54C146.14 609.54 145.78 609.649 145.47 609.868C145.16 610.087 144.918 610.374 144.745 610.729V616H143.48V608.604H144.677ZM156.284 616H154.972V606.047H156.284V616ZM159.688 608.604L159.729 609.533C160.295 608.822 161.033 608.467 161.944 608.467C163.507 608.467 164.296 609.349 164.31 611.112V616H163.045V611.105C163.04 610.572 162.917 610.178 162.676 609.923C162.439 609.668 162.067 609.54 161.562 609.54C161.151 609.54 160.791 609.649 160.481 609.868C160.172 610.087 159.93 610.374 159.757 610.729V616H158.492V608.604H159.688ZM170.523 614.038C170.523 613.696 170.394 613.432 170.134 613.245C169.879 613.054 169.43 612.89 168.787 612.753C168.149 612.616 167.641 612.452 167.263 612.261C166.889 612.069 166.611 611.841 166.429 611.577C166.251 611.313 166.162 610.998 166.162 610.634C166.162 610.028 166.417 609.515 166.928 609.096C167.443 608.676 168.099 608.467 168.896 608.467C169.735 608.467 170.414 608.683 170.934 609.116C171.458 609.549 171.72 610.103 171.72 610.777H170.448C170.448 610.431 170.3 610.132 170.004 609.882C169.712 609.631 169.343 609.506 168.896 609.506C168.436 609.506 168.076 609.606 167.816 609.807C167.557 610.007 167.427 610.269 167.427 610.593C167.427 610.898 167.548 611.128 167.789 611.283C168.031 611.438 168.466 611.586 169.095 611.728C169.728 611.869 170.241 612.037 170.633 612.233C171.025 612.429 171.314 612.666 171.501 612.944C171.692 613.218 171.788 613.553 171.788 613.949C171.788 614.61 171.524 615.141 170.995 615.542C170.466 615.938 169.781 616.137 168.938 616.137C168.345 616.137 167.821 616.032 167.365 615.822C166.91 615.613 166.552 615.321 166.292 614.947C166.037 614.569 165.909 614.161 165.909 613.724H167.174C167.197 614.147 167.365 614.485 167.68 614.735C167.999 614.981 168.418 615.104 168.938 615.104C169.416 615.104 169.799 615.009 170.086 614.817C170.378 614.621 170.523 614.362 170.523 614.038ZM175.151 606.812V608.604H176.532V609.581H175.151V614.168C175.151 614.464 175.213 614.688 175.336 614.838C175.459 614.984 175.669 615.057 175.965 615.057C176.111 615.057 176.311 615.029 176.566 614.975V616C176.234 616.091 175.91 616.137 175.596 616.137C175.031 616.137 174.604 615.966 174.317 615.624C174.03 615.282 173.887 614.797 173.887 614.168V609.581H172.54V608.604H173.887V606.812H175.151ZM182.582 616C182.509 615.854 182.45 615.594 182.404 615.221C181.816 615.831 181.115 616.137 180.299 616.137C179.57 616.137 178.97 615.932 178.501 615.521C178.036 615.107 177.804 614.583 177.804 613.949C177.804 613.179 178.095 612.582 178.679 612.158C179.267 611.73 180.091 611.516 181.153 611.516H182.384V610.935C182.384 610.493 182.252 610.142 181.987 609.882C181.723 609.618 181.333 609.485 180.818 609.485C180.367 609.485 179.989 609.599 179.684 609.827C179.378 610.055 179.226 610.331 179.226 610.654H177.954C177.954 610.285 178.084 609.93 178.344 609.588C178.608 609.242 178.964 608.968 179.41 608.768C179.861 608.567 180.356 608.467 180.894 608.467C181.746 608.467 182.413 608.681 182.896 609.109C183.38 609.533 183.63 610.119 183.648 610.866V614.271C183.648 614.95 183.735 615.49 183.908 615.891V616H182.582ZM180.483 615.036C180.88 615.036 181.256 614.934 181.611 614.729C181.967 614.523 182.224 614.257 182.384 613.929V612.411H181.393C179.843 612.411 179.068 612.865 179.068 613.771C179.068 614.168 179.201 614.478 179.465 614.701C179.729 614.924 180.069 615.036 180.483 615.036ZM185.33 612.24C185.33 611.087 185.597 610.171 186.13 609.492C186.663 608.809 187.369 608.467 188.249 608.467C189.151 608.467 189.855 608.786 190.361 609.424L190.423 608.604H191.578V615.822C191.578 616.779 191.293 617.534 190.724 618.085C190.159 618.636 189.397 618.912 188.44 618.912C187.907 618.912 187.385 618.798 186.875 618.57C186.365 618.342 185.975 618.03 185.706 617.634L186.362 616.875C186.905 617.545 187.568 617.88 188.352 617.88C188.967 617.88 189.445 617.707 189.787 617.36C190.133 617.014 190.307 616.526 190.307 615.897V615.262C189.801 615.845 189.11 616.137 188.235 616.137C187.369 616.137 186.668 615.788 186.13 615.091C185.597 614.394 185.33 613.443 185.33 612.24ZM186.602 612.384C186.602 613.218 186.772 613.874 187.114 614.353C187.456 614.826 187.935 615.063 188.55 615.063C189.347 615.063 189.933 614.701 190.307 613.977V610.6C189.919 609.893 189.338 609.54 188.563 609.54C187.948 609.54 187.467 609.779 187.121 610.258C186.775 610.736 186.602 611.445 186.602 612.384ZM197.067 609.738C196.876 609.706 196.669 609.69 196.445 609.69C195.616 609.69 195.053 610.044 194.757 610.75V616H193.492V608.604H194.723L194.743 609.458C195.158 608.797 195.746 608.467 196.507 608.467C196.753 608.467 196.94 608.499 197.067 608.562V609.738ZM202.529 616C202.456 615.854 202.397 615.594 202.352 615.221C201.764 615.831 201.062 616.137 200.246 616.137C199.517 616.137 198.918 615.932 198.448 615.521C197.983 615.107 197.751 614.583 197.751 613.949C197.751 613.179 198.043 612.582 198.626 612.158C199.214 611.73 200.039 611.516 201.101 611.516H202.331V610.935C202.331 610.493 202.199 610.142 201.935 609.882C201.67 609.618 201.281 609.485 200.766 609.485C200.314 609.485 199.936 609.599 199.631 609.827C199.326 610.055 199.173 610.331 199.173 610.654H197.901C197.901 610.285 198.031 609.93 198.291 609.588C198.555 609.242 198.911 608.968 199.357 608.768C199.809 608.567 200.303 608.467 200.841 608.467C201.693 608.467 202.361 608.681 202.844 609.109C203.327 609.533 203.577 610.119 203.596 610.866V614.271C203.596 614.95 203.682 615.49 203.855 615.891V616H202.529ZM200.431 615.036C200.827 615.036 201.203 614.934 201.559 614.729C201.914 614.523 202.172 614.257 202.331 613.929V612.411H201.34C199.79 612.411 199.016 612.865 199.016 613.771C199.016 614.168 199.148 614.478 199.412 614.701C199.676 614.924 200.016 615.036 200.431 615.036ZM206.768 608.604L206.802 609.424C207.344 608.786 208.076 608.467 208.996 608.467C210.031 608.467 210.735 608.863 211.108 609.656C211.354 609.301 211.674 609.014 212.065 608.795C212.462 608.576 212.929 608.467 213.467 608.467C215.089 608.467 215.914 609.326 215.941 611.044V616H214.677V611.119C214.677 610.59 214.556 610.196 214.314 609.937C214.073 609.672 213.667 609.54 213.098 609.54C212.628 609.54 212.239 609.681 211.929 609.964C211.619 610.242 211.439 610.618 211.389 611.092V616H210.117V611.153C210.117 610.078 209.591 609.54 208.538 609.54C207.709 609.54 207.141 609.893 206.836 610.6V616H205.571V608.604H206.768ZM219.271 613.19H218.129L218.04 606.047H219.366L219.271 613.19ZM217.992 615.364C217.992 615.159 218.054 614.988 218.177 614.852C218.304 614.71 218.491 614.64 218.737 614.64C218.983 614.64 219.17 614.71 219.298 614.852C219.425 614.988 219.489 615.159 219.489 615.364C219.489 615.569 219.425 615.74 219.298 615.877C219.17 616.009 218.983 616.075 218.737 616.075C218.491 616.075 218.304 616.009 218.177 615.877C218.054 615.74 217.992 615.569 217.992 615.364Z" fill="black"/>
<path d="M67 617.367H220.501V618.051H67V617.367Z" fill="black"/>
<rect x="222.5" y="246.5" width="27" height="6" stroke="black"/>
<rect x="249.5" y="246.5" width="27" height="6" stroke="black"/>
<rect x="276.5" y="246.5" width="27" height="6" fill="black" stroke="black"/>
<rect x="303.5" y="246.5" width="27" height="6" stroke="black"/>
<path d="M130.5 513.742C130.725 513.452 131.014 513.271 131.327 513.184C132.403 512.883 133.635 513.683 133.635 514.846C133.635 515.977 132.862 516.621 131.865 517.451C131.386 517.85 130.941 518.239 130.5 518.68C130.058 518.239 129.614 517.85 129.134 517.451C128.137 516.621 127.365 515.977 127.365 514.846C127.365 513.683 128.596 512.883 129.673 513.184C129.985 513.271 130.275 513.452 130.5 513.742ZM131.423 513.525C130.905 513.67 130.734 514.006 130.5 514.432C130.266 514.006 130.095 513.67 129.577 513.525C128.726 513.287 127.72 513.919 127.72 514.846C127.72 515.812 128.436 516.409 129.361 517.178C129.721 517.478 130.111 517.803 130.5 518.18C130.889 517.803 131.279 517.478 131.639 517.178C132.563 516.409 133.28 515.812 133.28 514.846C133.28 513.919 132.274 513.287 131.423 513.525Z" fill="black"/>
<path d="M130.5 510C133.538 510 136 512.463 136 515.5C136 518.538 133.538 521 130.5 521C127.463 521 125 518.538 125 515.5C125 512.462 127.462 510 130.5 510V510ZM130.5 510.451C127.712 510.451 125.451 512.712 125.451 515.5C125.451 518.288 127.712 520.549 130.5 520.549C133.288 520.549 135.549 518.288 135.549 515.5C135.549 512.712 133.288 510.451 130.5 510.451Z" fill="black"/>
<rect x="67.5" y="532.5" width="70" height="15" rx="7.5" fill="#E5E5E5" stroke="black"/>
<path d="M73.7627 540.217V543H72.8252V535.891H75.4473C76.2253 535.891 76.834 536.089 77.2734 536.486C77.7161 536.883 77.9375 537.409 77.9375 538.063C77.9375 538.754 77.721 539.286 77.2881 539.66C76.8584 540.031 76.2415 540.217 75.4375 540.217H73.7627ZM73.7627 539.45H75.4473C75.9486 539.45 76.3327 539.333 76.5996 539.099C76.8665 538.861 77 538.519 77 538.073C77 537.65 76.8665 537.312 76.5996 537.058C76.3327 536.804 75.9665 536.672 75.501 536.662H73.7627V539.45ZM79.8955 538.356C80.2959 537.865 80.8167 537.619 81.458 537.619C82.5745 537.619 83.1377 538.249 83.1475 539.509V543H82.2441V539.504C82.2409 539.123 82.153 538.841 81.9805 538.659C81.8112 538.477 81.5459 538.386 81.1846 538.386C80.8916 538.386 80.6344 538.464 80.4131 538.62C80.1917 538.776 80.0192 538.981 79.8955 539.235V543H78.9922V535.5H79.8955V538.356ZM84.2607 540.31C84.2607 539.792 84.3617 539.326 84.5635 538.913C84.7686 538.5 85.0518 538.181 85.4131 537.956C85.7777 537.731 86.1927 537.619 86.6582 537.619C87.3776 537.619 87.9587 537.868 88.4014 538.366C88.8473 538.864 89.0703 539.527 89.0703 540.354V540.417C89.0703 540.931 88.971 541.394 88.7725 541.804C88.5771 542.211 88.2956 542.528 87.9277 542.756C87.5632 542.984 87.1432 543.098 86.668 543.098C85.9518 543.098 85.3708 542.849 84.9248 542.351C84.4821 541.853 84.2607 541.193 84.2607 540.373V540.31ZM85.1689 540.417C85.1689 541.003 85.304 541.473 85.5742 541.828C85.8477 542.183 86.2122 542.36 86.668 542.36C87.127 542.36 87.4915 542.181 87.7617 541.823C88.0319 541.462 88.167 540.957 88.167 540.31C88.167 539.73 88.0286 539.261 87.752 538.903C87.4785 538.542 87.1139 538.361 86.6582 538.361C86.2122 538.361 85.8525 538.539 85.5791 538.894C85.3057 539.248 85.1689 539.756 85.1689 540.417ZM91.4287 536.438V537.717H92.415V538.415H91.4287V541.691C91.4287 541.903 91.4727 542.062 91.5605 542.17C91.6484 542.274 91.7982 542.326 92.0098 542.326C92.1139 542.326 92.2572 542.307 92.4395 542.268V543C92.2018 543.065 91.9707 543.098 91.7461 543.098C91.3424 543.098 91.0381 542.976 90.833 542.731C90.6279 542.487 90.5254 542.141 90.5254 541.691V538.415H89.5635V537.717H90.5254V536.438H91.4287ZM93.1377 540.31C93.1377 539.792 93.2386 539.326 93.4404 538.913C93.6455 538.5 93.9287 538.181 94.29 537.956C94.6546 537.731 95.0697 537.619 95.5352 537.619C96.2546 537.619 96.8356 537.868 97.2783 538.366C97.7243 538.864 97.9473 539.527 97.9473 540.354V540.417C97.9473 540.931 97.848 541.394 97.6494 541.804C97.4541 542.211 97.1725 542.528 96.8047 542.756C96.4401 542.984 96.0202 543.098 95.5449 543.098C94.8288 543.098 94.2477 542.849 93.8018 542.351C93.359 541.853 93.1377 541.193 93.1377 540.373V540.31ZM94.0459 540.417C94.0459 541.003 94.181 541.473 94.4512 541.828C94.7246 542.183 95.0892 542.36 95.5449 542.36C96.0039 542.36 96.3685 542.181 96.6387 541.823C96.9089 541.462 97.0439 540.957 97.0439 540.31C97.0439 539.73 96.9056 539.261 96.6289 538.903C96.3555 538.542 95.9909 538.361 95.5352 538.361C95.0892 538.361 94.7295 538.539 94.4561 538.894C94.1826 539.248 94.0459 539.756 94.0459 540.417ZM98.8652 540.314C98.8652 539.491 99.0557 538.837 99.4365 538.352C99.8174 537.863 100.322 537.619 100.95 537.619C101.595 537.619 102.098 537.847 102.459 538.303L102.503 537.717H103.328V542.873C103.328 543.557 103.125 544.095 102.718 544.489C102.314 544.883 101.771 545.08 101.087 545.08C100.706 545.08 100.333 544.999 99.9688 544.836C99.6042 544.673 99.3258 544.45 99.1338 544.167L99.6025 543.625C99.9899 544.104 100.464 544.343 101.023 544.343C101.463 544.343 101.805 544.219 102.049 543.972C102.296 543.724 102.42 543.376 102.42 542.927V542.473C102.059 542.889 101.565 543.098 100.94 543.098C100.322 543.098 99.8206 542.849 99.4365 542.351C99.0557 541.853 98.8652 541.174 98.8652 540.314ZM99.7734 540.417C99.7734 541.013 99.8955 541.481 100.14 541.823C100.384 542.162 100.726 542.331 101.165 542.331C101.735 542.331 102.153 542.072 102.42 541.555V539.143C102.143 538.638 101.728 538.386 101.175 538.386C100.735 538.386 100.392 538.557 100.145 538.898C99.8971 539.24 99.7734 539.746 99.7734 540.417ZM107.249 538.527C107.112 538.505 106.964 538.493 106.805 538.493C106.212 538.493 105.81 538.745 105.599 539.25V543H104.695V537.717H105.574L105.589 538.327C105.885 537.855 106.305 537.619 106.849 537.619C107.024 537.619 107.158 537.642 107.249 537.688V538.527ZM111.15 543C111.098 542.896 111.056 542.71 111.023 542.443C110.604 542.88 110.102 543.098 109.52 543.098C108.999 543.098 108.571 542.951 108.235 542.658C107.903 542.362 107.737 541.988 107.737 541.535C107.737 540.985 107.946 540.559 108.362 540.256C108.782 539.95 109.371 539.797 110.13 539.797H111.009V539.382C111.009 539.066 110.914 538.815 110.726 538.63C110.537 538.441 110.258 538.347 109.891 538.347C109.568 538.347 109.298 538.428 109.08 538.591C108.862 538.754 108.753 538.951 108.753 539.182H107.845C107.845 538.918 107.938 538.664 108.123 538.42C108.312 538.173 108.566 537.977 108.885 537.834C109.207 537.691 109.56 537.619 109.944 537.619C110.553 537.619 111.03 537.772 111.375 538.078C111.72 538.381 111.899 538.799 111.912 539.333V541.765C111.912 542.25 111.974 542.635 112.098 542.922V543H111.15ZM109.651 542.312C109.935 542.312 110.203 542.238 110.457 542.092C110.711 541.945 110.895 541.755 111.009 541.521V540.437H110.301C109.194 540.437 108.641 540.76 108.641 541.408C108.641 541.691 108.735 541.913 108.924 542.072C109.113 542.232 109.355 542.312 109.651 542.312ZM117.791 540.417C117.791 541.221 117.607 541.869 117.239 542.36C116.871 542.852 116.373 543.098 115.745 543.098C115.104 543.098 114.599 542.894 114.231 542.487V545.031H113.328V537.717H114.153L114.197 538.303C114.565 537.847 115.076 537.619 115.73 537.619C116.365 537.619 116.867 537.858 117.234 538.337C117.605 538.815 117.791 539.481 117.791 540.334V540.417ZM116.888 540.314C116.888 539.719 116.761 539.248 116.507 538.903C116.253 538.558 115.905 538.386 115.462 538.386C114.915 538.386 114.505 538.628 114.231 539.113V541.638C114.502 542.119 114.915 542.36 115.472 542.36C115.905 542.36 116.248 542.189 116.502 541.848C116.759 541.503 116.888 540.992 116.888 540.314ZM119.847 538.356C120.247 537.865 120.768 537.619 121.409 537.619C122.526 537.619 123.089 538.249 123.099 539.509V543H122.195V539.504C122.192 539.123 122.104 538.841 121.932 538.659C121.762 538.477 121.497 538.386 121.136 538.386C120.843 538.386 120.586 538.464 120.364 538.62C120.143 538.776 119.97 538.981 119.847 539.235V543H118.943V535.5H119.847V538.356ZM126.18 541.677L127.41 537.717H128.377L126.253 543.815C125.924 544.694 125.402 545.134 124.686 545.134L124.515 545.119L124.178 545.056V544.323L124.422 544.343C124.728 544.343 124.965 544.281 125.135 544.157C125.307 544.034 125.449 543.807 125.56 543.479L125.76 542.941L123.875 537.717H124.861L126.18 541.677Z" fill="black"/>
<rect x="154.5" y="532.5" width="70" height="15" rx="7.5" fill="#E5E5E5" stroke="black"/>
<path d="M165.055 540.744C164.967 541.496 164.688 542.077 164.22 542.487C163.754 542.894 163.134 543.098 162.359 543.098C161.52 543.098 160.846 542.797 160.338 542.194C159.833 541.592 159.581 540.786 159.581 539.777V539.094C159.581 538.433 159.698 537.852 159.933 537.351C160.17 536.849 160.506 536.465 160.938 536.198C161.371 535.928 161.873 535.793 162.442 535.793C163.198 535.793 163.803 536.005 164.259 536.428C164.715 536.848 164.98 537.43 165.055 538.176H164.112C164.031 537.609 163.854 537.199 163.58 536.945C163.31 536.691 162.931 536.564 162.442 536.564C161.843 536.564 161.373 536.786 161.031 537.229C160.693 537.671 160.523 538.301 160.523 539.118V539.807C160.523 540.578 160.685 541.192 161.007 541.647C161.329 542.103 161.78 542.331 162.359 542.331C162.88 542.331 163.279 542.214 163.556 541.979C163.836 541.742 164.021 541.33 164.112 540.744H165.055ZM165.958 540.31C165.958 539.792 166.059 539.326 166.261 538.913C166.466 538.5 166.749 538.181 167.11 537.956C167.475 537.731 167.89 537.619 168.355 537.619C169.075 537.619 169.656 537.868 170.099 538.366C170.545 538.864 170.768 539.527 170.768 540.354V540.417C170.768 540.931 170.668 541.394 170.47 541.804C170.274 542.211 169.993 542.528 169.625 542.756C169.26 542.984 168.84 543.098 168.365 543.098C167.649 543.098 167.068 542.849 166.622 542.351C166.179 541.853 165.958 541.193 165.958 540.373V540.31ZM166.866 540.417C166.866 541.003 167.001 541.473 167.271 541.828C167.545 542.183 167.91 542.36 168.365 542.36C168.824 542.36 169.189 542.181 169.459 541.823C169.729 541.462 169.864 540.957 169.864 540.31C169.864 539.73 169.726 539.261 169.449 538.903C169.176 538.542 168.811 538.361 168.355 538.361C167.91 538.361 167.55 538.539 167.276 538.894C167.003 539.248 166.866 539.756 166.866 540.417ZM171.661 540.31C171.661 539.792 171.762 539.326 171.964 538.913C172.169 538.5 172.452 538.181 172.813 537.956C173.178 537.731 173.593 537.619 174.059 537.619C174.778 537.619 175.359 537.868 175.802 538.366C176.248 538.864 176.471 539.527 176.471 540.354V540.417C176.471 540.931 176.371 541.394 176.173 541.804C175.978 542.211 175.696 542.528 175.328 542.756C174.964 542.984 174.544 543.098 174.068 543.098C173.352 543.098 172.771 542.849 172.325 542.351C171.882 541.853 171.661 541.193 171.661 540.373V540.31ZM172.569 540.417C172.569 541.003 172.704 541.473 172.975 541.828C173.248 542.183 173.613 542.36 174.068 542.36C174.527 542.36 174.892 542.181 175.162 541.823C175.432 541.462 175.567 540.957 175.567 540.31C175.567 539.73 175.429 539.261 175.152 538.903C174.879 538.542 174.514 538.361 174.059 538.361C173.613 538.361 173.253 538.539 172.979 538.894C172.706 539.248 172.569 539.756 172.569 540.417ZM179.078 540.554L178.512 541.145V543H177.608V535.5H178.512V540.036L178.995 539.455L180.641 537.717H181.739L179.684 539.924L181.979 543H180.919L179.078 540.554ZM183.653 543H182.75V537.717H183.653V543ZM182.677 536.315C182.677 536.169 182.721 536.045 182.809 535.944C182.9 535.843 183.033 535.793 183.209 535.793C183.385 535.793 183.518 535.843 183.609 535.944C183.701 536.045 183.746 536.169 183.746 536.315C183.746 536.462 183.701 536.584 183.609 536.682C183.518 536.779 183.385 536.828 183.209 536.828C183.033 536.828 182.9 536.779 182.809 536.682C182.721 536.584 182.677 536.462 182.677 536.315ZM185.958 537.717L185.987 538.381C186.391 537.873 186.918 537.619 187.569 537.619C188.686 537.619 189.249 538.249 189.259 539.509V543H188.355V539.504C188.352 539.123 188.264 538.841 188.092 538.659C187.923 538.477 187.657 538.386 187.296 538.386C187.003 538.386 186.746 538.464 186.524 538.62C186.303 538.776 186.131 538.981 186.007 539.235V543H185.104V537.717H185.958ZM190.406 540.314C190.406 539.491 190.597 538.837 190.978 538.352C191.358 537.863 191.863 537.619 192.491 537.619C193.136 537.619 193.639 537.847 194 538.303L194.044 537.717H194.869V542.873C194.869 543.557 194.666 544.095 194.259 544.489C193.855 544.883 193.312 545.08 192.628 545.08C192.247 545.08 191.874 544.999 191.51 544.836C191.145 544.673 190.867 544.45 190.675 544.167L191.144 543.625C191.531 544.104 192.005 544.343 192.564 544.343C193.004 544.343 193.346 544.219 193.59 543.972C193.837 543.724 193.961 543.376 193.961 542.927V542.473C193.6 542.889 193.106 543.098 192.481 543.098C191.863 543.098 191.362 542.849 190.978 542.351C190.597 541.853 190.406 541.174 190.406 540.314ZM191.314 540.417C191.314 541.013 191.437 541.481 191.681 541.823C191.925 542.162 192.267 542.331 192.706 542.331C193.276 542.331 193.694 542.072 193.961 541.555V539.143C193.684 538.638 193.269 538.386 192.716 538.386C192.276 538.386 191.933 538.557 191.686 538.898C191.438 539.24 191.314 539.746 191.314 540.417Z" fill="black"/>
<rect x="240.5" y="532.5" width="70" height="15" rx="7.5" fill="#E5E5E5" stroke="black"/>
<path d="M247.036 535.891L249.36 541.691L251.685 535.891H252.9V543H251.963V540.231L252.051 537.243L249.717 543H248.999L246.67 537.258L246.763 540.231V543H245.825V535.891H247.036ZM254.175 540.31C254.175 539.792 254.276 539.326 254.478 538.913C254.683 538.5 254.966 538.181 255.327 537.956C255.692 537.731 256.107 537.619 256.572 537.619C257.292 537.619 257.873 537.868 258.315 538.366C258.761 538.864 258.984 539.527 258.984 540.354V540.417C258.984 540.931 258.885 541.394 258.687 541.804C258.491 542.211 258.21 542.528 257.842 542.756C257.477 542.984 257.057 543.098 256.582 543.098C255.866 543.098 255.285 542.849 254.839 542.351C254.396 541.853 254.175 541.193 254.175 540.373V540.31ZM255.083 540.417C255.083 541.003 255.218 541.473 255.488 541.828C255.762 542.183 256.126 542.36 256.582 542.36C257.041 542.36 257.406 542.181 257.676 541.823C257.946 541.462 258.081 540.957 258.081 540.31C258.081 539.73 257.943 539.261 257.666 538.903C257.393 538.542 257.028 538.361 256.572 538.361C256.126 538.361 255.767 538.539 255.493 538.894C255.22 539.248 255.083 539.756 255.083 540.417ZM263.193 541.599C263.193 541.354 263.101 541.166 262.915 541.032C262.733 540.896 262.412 540.778 261.953 540.681C261.497 540.583 261.134 540.466 260.864 540.329C260.597 540.192 260.399 540.03 260.269 539.841C260.142 539.652 260.078 539.427 260.078 539.167C260.078 538.734 260.26 538.368 260.625 538.068C260.993 537.769 261.462 537.619 262.031 537.619C262.63 537.619 263.115 537.774 263.486 538.083C263.861 538.392 264.048 538.788 264.048 539.27H263.14C263.14 539.022 263.034 538.809 262.822 538.63C262.614 538.451 262.35 538.361 262.031 538.361C261.702 538.361 261.445 538.433 261.26 538.576C261.074 538.719 260.981 538.907 260.981 539.138C260.981 539.356 261.068 539.52 261.24 539.631C261.413 539.742 261.724 539.847 262.173 539.948C262.625 540.049 262.992 540.17 263.271 540.31C263.551 540.45 263.758 540.619 263.892 540.817C264.028 541.013 264.097 541.252 264.097 541.535C264.097 542.007 263.908 542.386 263.53 542.673C263.153 542.956 262.663 543.098 262.061 543.098C261.637 543.098 261.263 543.023 260.938 542.873C260.612 542.723 260.356 542.515 260.171 542.248C259.989 541.978 259.897 541.687 259.897 541.374H260.801C260.817 541.677 260.938 541.918 261.162 542.097C261.39 542.272 261.689 542.36 262.061 542.36C262.402 542.36 262.676 542.292 262.881 542.155C263.089 542.015 263.193 541.83 263.193 541.599ZM266.499 536.438V537.717H267.485V538.415H266.499V541.691C266.499 541.903 266.543 542.062 266.631 542.17C266.719 542.274 266.868 542.326 267.08 542.326C267.184 542.326 267.327 542.307 267.51 542.268V543C267.272 543.065 267.041 543.098 266.816 543.098C266.413 543.098 266.108 542.976 265.903 542.731C265.698 542.487 265.596 542.141 265.596 541.691V538.415H264.634V537.717H265.596V536.438H266.499ZM272.104 540.217V543H271.167V535.891H273.789C274.567 535.891 275.176 536.089 275.615 536.486C276.058 536.883 276.279 537.409 276.279 538.063C276.279 538.754 276.063 539.286 275.63 539.66C275.2 540.031 274.583 540.217 273.779 540.217H272.104ZM272.104 539.45H273.789C274.29 539.45 274.674 539.333 274.941 539.099C275.208 538.861 275.342 538.519 275.342 538.073C275.342 537.65 275.208 537.312 274.941 537.058C274.674 536.804 274.308 536.672 273.843 536.662H272.104V539.45ZM277.026 540.31C277.026 539.792 277.127 539.326 277.329 538.913C277.534 538.5 277.817 538.181 278.179 537.956C278.543 537.731 278.958 537.619 279.424 537.619C280.143 537.619 280.724 537.868 281.167 538.366C281.613 538.864 281.836 539.527 281.836 540.354V540.417C281.836 540.931 281.737 541.394 281.538 541.804C281.343 542.211 281.061 542.528 280.693 542.756C280.329 542.984 279.909 543.098 279.434 543.098C278.717 543.098 278.136 542.849 277.69 542.351C277.248 541.853 277.026 541.193 277.026 540.373V540.31ZM277.935 540.417C277.935 541.003 278.07 541.473 278.34 541.828C278.613 542.183 278.978 542.36 279.434 542.36C279.893 542.36 280.257 542.181 280.527 541.823C280.798 541.462 280.933 540.957 280.933 540.31C280.933 539.73 280.794 539.261 280.518 538.903C280.244 538.542 279.88 538.361 279.424 538.361C278.978 538.361 278.618 538.539 278.345 538.894C278.071 539.248 277.935 539.756 277.935 540.417ZM287.432 540.417C287.432 541.221 287.248 541.869 286.88 542.36C286.512 542.852 286.014 543.098 285.386 543.098C284.744 543.098 284.24 542.894 283.872 542.487V545.031H282.969V537.717H283.794L283.838 538.303C284.206 537.847 284.717 537.619 285.371 537.619C286.006 537.619 286.507 537.858 286.875 538.337C287.246 538.815 287.432 539.481 287.432 540.334V540.417ZM286.528 540.314C286.528 539.719 286.401 539.248 286.147 538.903C285.894 538.558 285.545 538.386 285.103 538.386C284.556 538.386 284.146 538.628 283.872 539.113V541.638C284.142 542.119 284.556 542.36 285.112 542.36C285.545 542.36 285.889 542.189 286.143 541.848C286.4 541.503 286.528 540.992 286.528 540.314ZM291.846 542.478C291.494 542.891 290.978 543.098 290.298 543.098C289.735 543.098 289.305 542.935 289.009 542.609C288.716 542.281 288.568 541.796 288.564 541.154V537.717H289.468V541.13C289.468 541.931 289.793 542.331 290.444 542.331C291.134 542.331 291.593 542.074 291.821 541.56V537.717H292.725V543H291.865L291.846 542.478ZM295.083 543H294.18V535.5H295.083V543ZM299.795 543C299.743 542.896 299.701 542.71 299.668 542.443C299.248 542.88 298.747 543.098 298.164 543.098C297.643 543.098 297.215 542.951 296.88 542.658C296.548 542.362 296.382 541.988 296.382 541.535C296.382 540.985 296.59 540.559 297.007 540.256C297.427 539.95 298.016 539.797 298.774 539.797H299.653V539.382C299.653 539.066 299.559 538.815 299.37 538.63C299.181 538.441 298.903 538.347 298.535 538.347C298.213 538.347 297.943 538.428 297.725 538.591C297.507 538.754 297.397 538.951 297.397 539.182H296.489C296.489 538.918 296.582 538.664 296.768 538.42C296.956 538.173 297.21 537.977 297.529 537.834C297.852 537.691 298.205 537.619 298.589 537.619C299.198 537.619 299.674 537.772 300.02 538.078C300.365 538.381 300.544 538.799 300.557 539.333V541.765C300.557 542.25 300.618 542.635 300.742 542.922V543H299.795ZM298.296 542.312C298.579 542.312 298.848 542.238 299.102 542.092C299.355 541.945 299.539 541.755 299.653 541.521V540.437H298.945C297.839 540.437 297.285 540.76 297.285 541.408C297.285 541.691 297.38 541.913 297.568 542.072C297.757 542.232 298 542.312 298.296 542.312ZM304.526 538.527C304.39 538.505 304.242 538.493 304.082 538.493C303.49 538.493 303.088 538.745 302.876 539.25V543H301.973V537.717H302.852L302.866 538.327C303.162 537.855 303.582 537.619 304.126 537.619C304.302 537.619 304.435 537.642 304.526 537.688V538.527Z" fill="black"/>
<rect x="240.5" y="532.5" width="70" height="15" rx="7.5" fill="#E5E5E5" stroke="black"/>
<path d="M247.036 535.891L249.36 541.691L251.685 535.891H252.9V543H251.963V540.231L252.051 537.243L249.717 543H248.999L246.67 537.258L246.763 540.231V543H245.825V535.891H247.036ZM254.175 540.31C254.175 539.792 254.276 539.326 254.478 538.913C254.683 538.5 254.966 538.181 255.327 537.956C255.692 537.731 256.107 537.619 256.572 537.619C257.292 537.619 257.873 537.868 258.315 538.366C258.761 538.864 258.984 539.527 258.984 540.354V540.417C258.984 540.931 258.885 541.394 258.687 541.804C258.491 542.211 258.21 542.528 257.842 542.756C257.477 542.984 257.057 543.098 256.582 543.098C255.866 543.098 255.285 542.849 254.839 542.351C254.396 541.853 254.175 541.193 254.175 540.373V540.31ZM255.083 540.417C255.083 541.003 255.218 541.473 255.488 541.828C255.762 542.183 256.126 542.36 256.582 542.36C257.041 542.36 257.406 542.181 257.676 541.823C257.946 541.462 258.081 540.957 258.081 540.31C258.081 539.73 257.943 539.261 257.666 538.903C257.393 538.542 257.028 538.361 256.572 538.361C256.126 538.361 255.767 538.539 255.493 538.894C255.22 539.248 255.083 539.756 255.083 540.417ZM263.193 541.599C263.193 541.354 263.101 541.166 262.915 541.032C262.733 540.896 262.412 540.778 261.953 540.681C261.497 540.583 261.134 540.466 260.864 540.329C260.597 540.192 260.399 540.03 260.269 539.841C260.142 539.652 260.078 539.427 260.078 539.167C260.078 538.734 260.26 538.368 260.625 538.068C260.993 537.769 261.462 537.619 262.031 537.619C262.63 537.619 263.115 537.774 263.486 538.083C263.861 538.392 264.048 538.788 264.048 539.27H263.14C263.14 539.022 263.034 538.809 262.822 538.63C262.614 538.451 262.35 538.361 262.031 538.361C261.702 538.361 261.445 538.433 261.26 538.576C261.074 538.719 260.981 538.907 260.981 539.138C260.981 539.356 261.068 539.52 261.24 539.631C261.413 539.742 261.724 539.847 262.173 539.948C262.625 540.049 262.992 540.17 263.271 540.31C263.551 540.45 263.758 540.619 263.892 540.817C264.028 541.013 264.097 541.252 264.097 541.535C264.097 542.007 263.908 542.386 263.53 542.673C263.153 542.956 262.663 543.098 262.061 543.098C261.637 543.098 261.263 543.023 260.938 542.873C260.612 542.723 260.356 542.515 260.171 542.248C259.989 541.978 259.897 541.687 259.897 541.374H260.801C260.817 541.677 260.938 541.918 261.162 542.097C261.39 542.272 261.689 542.36 262.061 542.36C262.402 542.36 262.676 542.292 262.881 542.155C263.089 542.015 263.193 541.83 263.193 541.599ZM266.499 536.438V537.717H267.485V538.415H266.499V541.691C266.499 541.903 266.543 542.062 266.631 542.17C266.719 542.274 266.868 542.326 267.08 542.326C267.184 542.326 267.327 542.307 267.51 542.268V543C267.272 543.065 267.041 543.098 266.816 543.098C266.413 543.098 266.108 542.976 265.903 542.731C265.698 542.487 265.596 542.141 265.596 541.691V538.415H264.634V537.717H265.596V536.438H266.499ZM272.104 540.217V543H271.167V535.891H273.789C274.567 535.891 275.176 536.089 275.615 536.486C276.058 536.883 276.279 537.409 276.279 538.063C276.279 538.754 276.063 539.286 275.63 539.66C275.2 540.031 274.583 540.217 273.779 540.217H272.104ZM272.104 539.45H273.789C274.29 539.45 274.674 539.333 274.941 539.099C275.208 538.861 275.342 538.519 275.342 538.073C275.342 537.65 275.208 537.312 274.941 537.058C274.674 536.804 274.308 536.672 273.843 536.662H272.104V539.45ZM277.026 540.31C277.026 539.792 277.127 539.326 277.329 538.913C277.534 538.5 277.817 538.181 278.179 537.956C278.543 537.731 278.958 537.619 279.424 537.619C280.143 537.619 280.724 537.868 281.167 538.366C281.613 538.864 281.836 539.527 281.836 540.354V540.417C281.836 540.931 281.737 541.394 281.538 541.804C281.343 542.211 281.061 542.528 280.693 542.756C280.329 542.984 279.909 543.098 279.434 543.098C278.717 543.098 278.136 542.849 277.69 542.351C277.248 541.853 277.026 541.193 277.026 540.373V540.31ZM277.935 540.417C277.935 541.003 278.07 541.473 278.34 541.828C278.613 542.183 278.978 542.36 279.434 542.36C279.893 542.36 280.257 542.181 280.527 541.823C280.798 541.462 280.933 540.957 280.933 540.31C280.933 539.73 280.794 539.261 280.518 538.903C280.244 538.542 279.88 538.361 279.424 538.361C278.978 538.361 278.618 538.539 278.345 538.894C278.071 539.248 277.935 539.756 277.935 540.417ZM287.432 540.417C287.432 541.221 287.248 541.869 286.88 542.36C286.512 542.852 286.014 543.098 285.386 543.098C284.744 543.098 284.24 542.894 283.872 542.487V545.031H282.969V537.717H283.794L283.838 538.303C284.206 537.847 284.717 537.619 285.371 537.619C286.006 537.619 286.507 537.858 286.875 538.337C287.246 538.815 287.432 539.481 287.432 540.334V540.417ZM286.528 540.314C286.528 539.719 286.401 539.248 286.147 538.903C285.894 538.558 285.545 538.386 285.103 538.386C284.556 538.386 284.146 538.628 283.872 539.113V541.638C284.142 542.119 284.556 542.36 285.112 542.36C285.545 542.36 285.889 542.189 286.143 541.848C286.4 541.503 286.528 540.992 286.528 540.314ZM291.846 542.478C291.494 542.891 290.978 543.098 290.298 543.098C289.735 543.098 289.305 542.935 289.009 542.609C288.716 542.281 288.568 541.796 288.564 541.154V537.717H289.468V541.13C289.468 541.931 289.793 542.331 290.444 542.331C291.134 542.331 291.593 542.074 291.821 541.56V537.717H292.725V543H291.865L291.846 542.478ZM295.083 543H294.18V535.5H295.083V543ZM299.795 543C299.743 542.896 299.701 542.71 299.668 542.443C299.248 542.88 298.747 543.098 298.164 543.098C297.643 543.098 297.215 542.951 296.88 542.658C296.548 542.362 296.382 541.988 296.382 541.535C296.382 540.985 296.59 540.559 297.007 540.256C297.427 539.95 298.016 539.797 298.774 539.797H299.653V539.382C299.653 539.066 299.559 538.815 299.37 538.63C299.181 538.441 298.903 538.347 298.535 538.347C298.213 538.347 297.943 538.428 297.725 538.591C297.507 538.754 297.397 538.951 297.397 539.182H296.489C296.489 538.918 296.582 538.664 296.768 538.42C296.956 538.173 297.21 537.977 297.529 537.834C297.852 537.691 298.205 537.619 298.589 537.619C299.198 537.619 299.674 537.772 300.02 538.078C300.365 538.381 300.544 538.799 300.557 539.333V541.765C300.557 542.25 300.618 542.635 300.742 542.922V543H299.795ZM298.296 542.312C298.579 542.312 298.848 542.238 299.102 542.092C299.355 541.945 299.539 541.755 299.653 541.521V540.437H298.945C297.839 540.437 297.285 540.76 297.285 541.408C297.285 541.691 297.38 541.913 297.568 542.072C297.757 542.232 298 542.312 298.296 542.312ZM304.526 538.527C304.39 538.505 304.242 538.493 304.082 538.493C303.49 538.493 303.088 538.745 302.876 539.25V543H301.973V537.717H302.852L302.866 538.327C303.162 537.855 303.582 537.619 304.126 537.619C304.302 537.619 304.435 537.642 304.526 537.688V538.527Z" fill="black"/>
<rect x="240.5" y="532.5" width="70" height="15" rx="7.5" fill="#E5E5E5" stroke="black"/>
<path d="M245.825 543V535.891H248.149C248.921 535.891 249.5 536.05 249.888 536.369C250.278 536.688 250.474 537.16 250.474 537.785C250.474 538.117 250.379 538.412 250.19 538.669C250.002 538.923 249.744 539.12 249.419 539.26C249.803 539.367 250.106 539.572 250.327 539.875C250.552 540.174 250.664 540.533 250.664 540.949C250.664 541.587 250.457 542.089 250.044 542.453C249.631 542.818 249.046 543 248.291 543H245.825ZM246.763 539.675V542.233H248.311C248.747 542.233 249.09 542.121 249.341 541.896C249.595 541.669 249.722 541.356 249.722 540.959C249.722 540.103 249.256 539.675 248.325 539.675H246.763ZM246.763 538.923H248.179C248.589 538.923 248.916 538.82 249.16 538.615C249.408 538.41 249.531 538.132 249.531 537.78C249.531 537.39 249.417 537.106 249.189 536.931C248.962 536.752 248.615 536.662 248.149 536.662H246.763V538.923ZM255.176 543C255.124 542.896 255.081 542.71 255.049 542.443C254.629 542.88 254.128 543.098 253.545 543.098C253.024 543.098 252.596 542.951 252.261 542.658C251.929 542.362 251.763 541.988 251.763 541.535C251.763 540.985 251.971 540.559 252.388 540.256C252.808 539.95 253.397 539.797 254.155 539.797H255.034V539.382C255.034 539.066 254.94 538.815 254.751 538.63C254.562 538.441 254.284 538.347 253.916 538.347C253.594 538.347 253.324 538.428 253.105 538.591C252.887 538.754 252.778 538.951 252.778 539.182H251.87C251.87 538.918 251.963 538.664 252.148 538.42C252.337 538.173 252.591 537.977 252.91 537.834C253.232 537.691 253.586 537.619 253.97 537.619C254.578 537.619 255.055 537.772 255.4 538.078C255.745 538.381 255.924 538.799 255.938 539.333V541.765C255.938 542.25 255.999 542.635 256.123 542.922V543H255.176ZM253.677 542.312C253.96 542.312 254.229 542.238 254.482 542.092C254.736 541.945 254.92 541.755 255.034 541.521V540.437H254.326C253.219 540.437 252.666 540.76 252.666 541.408C252.666 541.691 252.76 541.913 252.949 542.072C253.138 542.232 253.381 542.312 253.677 542.312ZM258.828 540.554L258.262 541.145V543H257.358V535.5H258.262V540.036L258.745 539.455L260.391 537.717H261.489L259.434 539.924L261.729 543H260.669L258.828 540.554ZM263.403 543H262.5V537.717H263.403V543ZM262.427 536.315C262.427 536.169 262.471 536.045 262.559 535.944C262.65 535.843 262.783 535.793 262.959 535.793C263.135 535.793 263.268 535.843 263.359 535.944C263.451 536.045 263.496 536.169 263.496 536.315C263.496 536.462 263.451 536.584 263.359 536.682C263.268 536.779 263.135 536.828 262.959 536.828C262.783 536.828 262.65 536.779 262.559 536.682C262.471 536.584 262.427 536.462 262.427 536.315ZM265.708 537.717L265.737 538.381C266.141 537.873 266.668 537.619 267.319 537.619C268.436 537.619 268.999 538.249 269.009 539.509V543H268.105V539.504C268.102 539.123 268.014 538.841 267.842 538.659C267.673 538.477 267.407 538.386 267.046 538.386C266.753 538.386 266.496 538.464 266.274 538.62C266.053 538.776 265.881 538.981 265.757 539.235V543H264.854V537.717H265.708ZM270.156 540.314C270.156 539.491 270.347 538.837 270.728 538.352C271.108 537.863 271.613 537.619 272.241 537.619C272.886 537.619 273.389 537.847 273.75 538.303L273.794 537.717H274.619V542.873C274.619 543.557 274.416 544.095 274.009 544.489C273.605 544.883 273.062 545.08 272.378 545.08C271.997 545.08 271.624 544.999 271.26 544.836C270.895 544.673 270.617 544.45 270.425 544.167L270.894 543.625C271.281 544.104 271.755 544.343 272.314 544.343C272.754 544.343 273.096 544.219 273.34 543.972C273.587 543.724 273.711 543.376 273.711 542.927V542.473C273.35 542.889 272.856 543.098 272.231 543.098C271.613 543.098 271.112 542.849 270.728 542.351C270.347 541.853 270.156 541.174 270.156 540.314ZM271.064 540.417C271.064 541.013 271.187 541.481 271.431 541.823C271.675 542.162 272.017 542.331 272.456 542.331C273.026 542.331 273.444 542.072 273.711 541.555V539.143C273.434 538.638 273.019 538.386 272.466 538.386C272.026 538.386 271.683 538.557 271.436 538.898C271.188 539.24 271.064 539.746 271.064 540.417Z" fill="black"/>
<rect x="67.5" y="565.5" width="70" height="15" rx="7.5" fill="#E5E5E5" stroke="black"/>
<path d="M74.9199 572.831C74.1159 572.6 73.5299 572.317 73.1621 571.981C72.7975 571.643 72.6152 571.226 72.6152 570.731C72.6152 570.172 72.8382 569.709 73.2842 569.345C73.7334 568.977 74.3161 568.793 75.0322 568.793C75.5205 568.793 75.9551 568.887 76.3359 569.076C76.7201 569.265 77.0163 569.525 77.2246 569.857C77.4362 570.189 77.542 570.552 77.542 570.946H76.5996C76.5996 570.517 76.4629 570.18 76.1895 569.936C75.916 569.688 75.5303 569.564 75.0322 569.564C74.57 569.564 74.2087 569.667 73.9482 569.872C73.6911 570.074 73.5625 570.355 73.5625 570.717C73.5625 571.007 73.6846 571.252 73.9287 571.454C74.1761 571.653 74.5944 571.835 75.1836 572.001C75.776 572.167 76.2383 572.351 76.5703 572.553C76.9056 572.751 77.153 572.984 77.3125 573.251C77.4753 573.518 77.5566 573.832 77.5566 574.193C77.5566 574.77 77.332 575.232 76.8828 575.58C76.4336 575.925 75.833 576.098 75.0811 576.098C74.5928 576.098 74.137 576.005 73.7139 575.819C73.2907 575.631 72.9635 575.373 72.7324 575.048C72.5046 574.722 72.3906 574.353 72.3906 573.939H73.333C73.333 574.369 73.4909 574.709 73.8066 574.96C74.1257 575.207 74.5505 575.331 75.0811 575.331C75.5758 575.331 75.9551 575.23 76.2188 575.028C76.4824 574.826 76.6143 574.551 76.6143 574.203C76.6143 573.855 76.4922 573.586 76.248 573.397C76.0039 573.205 75.5612 573.017 74.9199 572.831ZM83.2988 574.755L84.3145 570.717H85.2178L83.6797 576H82.9473L81.6631 571.996L80.4131 576H79.6807L78.1475 570.717H79.0459L80.0859 574.672L81.3164 570.717H82.0439L83.2988 574.755ZM87.1221 576H86.2188V570.717H87.1221V576ZM86.1455 569.315C86.1455 569.169 86.1895 569.045 86.2773 568.944C86.3685 568.843 86.502 568.793 86.6777 568.793C86.8535 568.793 86.987 568.843 87.0781 568.944C87.1693 569.045 87.2148 569.169 87.2148 569.315C87.2148 569.462 87.1693 569.584 87.0781 569.682C86.987 569.779 86.8535 569.828 86.6777 569.828C86.502 569.828 86.3685 569.779 86.2773 569.682C86.1895 569.584 86.1455 569.462 86.1455 569.315ZM89.4219 570.717L89.4463 571.303C89.8337 570.847 90.3561 570.619 91.0137 570.619C91.7526 570.619 92.2555 570.902 92.5225 571.469C92.6982 571.215 92.9261 571.01 93.2061 570.854C93.4893 570.697 93.8229 570.619 94.207 570.619C95.3659 570.619 95.9551 571.233 95.9746 572.46V576H95.0713V572.514C95.0713 572.136 94.985 571.854 94.8125 571.669C94.64 571.48 94.3503 571.386 93.9434 571.386C93.6081 571.386 93.3298 571.487 93.1084 571.688C92.887 571.887 92.7585 572.156 92.7227 572.494V576H91.8145V572.538C91.8145 571.77 91.4385 571.386 90.6865 571.386C90.0941 571.386 89.6888 571.638 89.4707 572.143V576H88.5674V570.717H89.4219ZM98.1914 570.717L98.2158 571.303C98.6032 570.847 99.1257 570.619 99.7832 570.619C100.522 570.619 101.025 570.902 101.292 571.469C101.468 571.215 101.696 571.01 101.976 570.854C102.259 570.697 102.592 570.619 102.977 570.619C104.135 570.619 104.725 571.233 104.744 572.46V576H103.841V572.514C103.841 572.136 103.755 571.854 103.582 571.669C103.41 571.48 103.12 571.386 102.713 571.386C102.378 571.386 102.099 571.487 101.878 571.688C101.657 571.887 101.528 572.156 101.492 572.494V576H100.584V572.538C100.584 571.77 100.208 571.386 99.4561 571.386C98.8636 571.386 98.4583 571.638 98.2402 572.143V576H97.3369V570.717H98.1914ZM107.093 576H106.189V570.717H107.093V576ZM106.116 569.315C106.116 569.169 106.16 569.045 106.248 568.944C106.339 568.843 106.473 568.793 106.648 568.793C106.824 568.793 106.958 568.843 107.049 568.944C107.14 569.045 107.186 569.169 107.186 569.315C107.186 569.462 107.14 569.584 107.049 569.682C106.958 569.779 106.824 569.828 106.648 569.828C106.473 569.828 106.339 569.779 106.248 569.682C106.16 569.584 106.116 569.462 106.116 569.315ZM109.397 570.717L109.427 571.381C109.83 570.873 110.358 570.619 111.009 570.619C112.125 570.619 112.688 571.249 112.698 572.509V576H111.795V572.504C111.792 572.123 111.704 571.841 111.531 571.659C111.362 571.477 111.097 571.386 110.735 571.386C110.442 571.386 110.185 571.464 109.964 571.62C109.743 571.776 109.57 571.981 109.446 572.235V576H108.543V570.717H109.397ZM113.846 573.314C113.846 572.491 114.036 571.837 114.417 571.352C114.798 570.863 115.302 570.619 115.931 570.619C116.575 570.619 117.078 570.847 117.439 571.303L117.483 570.717H118.309V575.873C118.309 576.557 118.105 577.095 117.698 577.489C117.295 577.883 116.751 578.08 116.067 578.08C115.687 578.08 115.314 577.999 114.949 577.836C114.585 577.673 114.306 577.45 114.114 577.167L114.583 576.625C114.97 577.104 115.444 577.343 116.004 577.343C116.443 577.343 116.785 577.219 117.029 576.972C117.277 576.724 117.4 576.376 117.4 575.927V575.473C117.039 575.889 116.546 576.098 115.921 576.098C115.302 576.098 114.801 575.849 114.417 575.351C114.036 574.853 113.846 574.174 113.846 573.314ZM114.754 573.417C114.754 574.013 114.876 574.481 115.12 574.823C115.364 575.162 115.706 575.331 116.146 575.331C116.715 575.331 117.133 575.072 117.4 574.555V572.143C117.124 571.638 116.709 571.386 116.155 571.386C115.716 571.386 115.372 571.557 115.125 571.898C114.878 572.24 114.754 572.746 114.754 573.417Z" fill="black"/>
<rect x="154.5" y="565.5" width="70" height="15" rx="7.5" fill="#E5E5E5" stroke="black"/>
<path d="M159.825 576V568.891H162.149C162.921 568.891 163.5 569.05 163.888 569.369C164.278 569.688 164.474 570.16 164.474 570.785C164.474 571.117 164.379 571.412 164.19 571.669C164.002 571.923 163.744 572.12 163.419 572.26C163.803 572.367 164.106 572.572 164.327 572.875C164.552 573.174 164.664 573.533 164.664 573.949C164.664 574.587 164.457 575.089 164.044 575.453C163.631 575.818 163.046 576 162.291 576H159.825ZM160.763 572.675V575.233H162.311C162.747 575.233 163.09 575.121 163.341 574.896C163.595 574.669 163.722 574.356 163.722 573.959C163.722 573.103 163.256 572.675 162.325 572.675H160.763ZM160.763 571.923H162.179C162.589 571.923 162.916 571.82 163.16 571.615C163.408 571.41 163.531 571.132 163.531 570.78C163.531 570.39 163.417 570.106 163.189 569.931C162.962 569.752 162.615 569.662 162.149 569.662H160.763V571.923ZM166.896 576H165.992V570.717H166.896V576ZM165.919 569.315C165.919 569.169 165.963 569.045 166.051 568.944C166.142 568.843 166.275 568.793 166.451 568.793C166.627 568.793 166.76 568.843 166.852 568.944C166.943 569.045 166.988 569.169 166.988 569.315C166.988 569.462 166.943 569.584 166.852 569.682C166.76 569.779 166.627 569.828 166.451 569.828C166.275 569.828 166.142 569.779 166.051 569.682C165.963 569.584 165.919 569.462 165.919 569.315ZM169.82 573.554L169.254 574.145V576H168.351V568.5H169.254V573.036L169.737 572.455L171.383 570.717H172.481L170.426 572.924L172.721 576H171.661L169.82 573.554ZM174.396 576H173.492V570.717H174.396V576ZM173.419 569.315C173.419 569.169 173.463 569.045 173.551 568.944C173.642 568.843 173.775 568.793 173.951 568.793C174.127 568.793 174.26 568.843 174.352 568.944C174.443 569.045 174.488 569.169 174.488 569.315C174.488 569.462 174.443 569.584 174.352 569.682C174.26 569.779 174.127 569.828 173.951 569.828C173.775 569.828 173.642 569.779 173.551 569.682C173.463 569.584 173.419 569.462 173.419 569.315ZM176.7 570.717L176.729 571.381C177.133 570.873 177.66 570.619 178.312 570.619C179.428 570.619 179.991 571.249 180.001 572.509V576H179.098V572.504C179.094 572.123 179.007 571.841 178.834 571.659C178.665 571.477 178.399 571.386 178.038 571.386C177.745 571.386 177.488 571.464 177.267 571.62C177.045 571.776 176.873 571.981 176.749 572.235V576H175.846V570.717H176.7ZM181.148 573.314C181.148 572.491 181.339 571.837 181.72 571.352C182.101 570.863 182.605 570.619 183.233 570.619C183.878 570.619 184.381 570.847 184.742 571.303L184.786 570.717H185.611V575.873C185.611 576.557 185.408 577.095 185.001 577.489C184.597 577.883 184.054 578.08 183.37 578.08C182.989 578.08 182.617 577.999 182.252 577.836C181.887 577.673 181.609 577.45 181.417 577.167L181.886 576.625C182.273 577.104 182.747 577.343 183.307 577.343C183.746 577.343 184.088 577.219 184.332 576.972C184.579 576.724 184.703 576.376 184.703 575.927V575.473C184.342 575.889 183.849 576.098 183.224 576.098C182.605 576.098 182.104 575.849 181.72 575.351C181.339 574.853 181.148 574.174 181.148 573.314ZM182.057 573.417C182.057 574.013 182.179 574.481 182.423 574.823C182.667 575.162 183.009 575.331 183.448 575.331C184.018 575.331 184.436 575.072 184.703 574.555V572.143C184.426 571.638 184.011 571.386 183.458 571.386C183.019 571.386 182.675 571.557 182.428 571.898C182.18 572.24 182.057 572.746 182.057 573.417Z" fill="black"/>
<rect x="240.5" y="565.5" width="70" height="15" rx="7.5" fill="#E5E5E5" stroke="black"/>
<path d="M245.825 576V568.891H247.832C248.451 568.891 248.997 569.027 249.473 569.301C249.948 569.574 250.314 569.963 250.571 570.468C250.832 570.972 250.964 571.552 250.967 572.206V572.66C250.967 573.331 250.837 573.918 250.576 574.423C250.319 574.927 249.95 575.315 249.468 575.585C248.989 575.855 248.431 575.993 247.793 576H245.825ZM246.763 569.662V575.233H247.749C248.472 575.233 249.033 575.009 249.434 574.56C249.837 574.11 250.039 573.471 250.039 572.641V572.226C250.039 571.418 249.849 570.792 249.468 570.346C249.09 569.896 248.553 569.669 247.856 569.662H246.763ZM254.8 571.527C254.663 571.505 254.515 571.493 254.355 571.493C253.763 571.493 253.361 571.745 253.149 572.25V576H252.246V570.717H253.125L253.14 571.327C253.436 570.855 253.856 570.619 254.399 570.619C254.575 570.619 254.709 570.642 254.8 570.688V571.527ZM258.701 576C258.649 575.896 258.607 575.71 258.574 575.443C258.154 575.88 257.653 576.098 257.07 576.098C256.549 576.098 256.121 575.951 255.786 575.658C255.454 575.362 255.288 574.988 255.288 574.535C255.288 573.985 255.496 573.559 255.913 573.256C256.333 572.95 256.922 572.797 257.681 572.797H258.56V572.382C258.56 572.066 258.465 571.815 258.276 571.63C258.088 571.441 257.809 571.347 257.441 571.347C257.119 571.347 256.849 571.428 256.631 571.591C256.413 571.754 256.304 571.951 256.304 572.182H255.396C255.396 571.918 255.488 571.664 255.674 571.42C255.863 571.173 256.117 570.977 256.436 570.834C256.758 570.691 257.111 570.619 257.495 570.619C258.104 570.619 258.581 570.772 258.926 571.078C259.271 571.381 259.45 571.799 259.463 572.333V574.765C259.463 575.25 259.525 575.635 259.648 575.922V576H258.701ZM257.202 575.312C257.485 575.312 257.754 575.238 258.008 575.092C258.262 574.945 258.446 574.755 258.56 574.521V573.437H257.852C256.745 573.437 256.191 573.76 256.191 574.408C256.191 574.691 256.286 574.913 256.475 575.072C256.663 575.232 256.906 575.312 257.202 575.312ZM265.557 574.755L266.572 570.717H267.476L265.938 576H265.205L263.921 571.996L262.671 576H261.938L260.405 570.717H261.304L262.344 574.672L263.574 570.717H264.302L265.557 574.755ZM269.38 576H268.477V570.717H269.38V576ZM268.403 569.315C268.403 569.169 268.447 569.045 268.535 568.944C268.626 568.843 268.76 568.793 268.936 568.793C269.111 568.793 269.245 568.843 269.336 568.944C269.427 569.045 269.473 569.169 269.473 569.315C269.473 569.462 269.427 569.584 269.336 569.682C269.245 569.779 269.111 569.828 268.936 569.828C268.76 569.828 268.626 569.779 268.535 569.682C268.447 569.584 268.403 569.462 268.403 569.315ZM271.685 570.717L271.714 571.381C272.118 570.873 272.645 570.619 273.296 570.619C274.412 570.619 274.976 571.249 274.985 572.509V576H274.082V572.504C274.079 572.123 273.991 571.841 273.818 571.659C273.649 571.477 273.384 571.386 273.022 571.386C272.729 571.386 272.472 571.464 272.251 571.62C272.03 571.776 271.857 571.981 271.733 572.235V576H270.83V570.717H271.685ZM276.133 573.314C276.133 572.491 276.323 571.837 276.704 571.352C277.085 570.863 277.59 570.619 278.218 570.619C278.862 570.619 279.365 570.847 279.727 571.303L279.771 570.717H280.596V575.873C280.596 576.557 280.392 577.095 279.985 577.489C279.582 577.883 279.038 578.08 278.354 578.08C277.974 578.08 277.601 577.999 277.236 577.836C276.872 577.673 276.593 577.45 276.401 577.167L276.87 576.625C277.257 577.104 277.731 577.343 278.291 577.343C278.73 577.343 279.072 577.219 279.316 576.972C279.564 576.724 279.688 576.376 279.688 575.927V575.473C279.326 575.889 278.833 576.098 278.208 576.098C277.59 576.098 277.088 575.849 276.704 575.351C276.323 574.853 276.133 574.174 276.133 573.314ZM277.041 573.417C277.041 574.013 277.163 574.481 277.407 574.823C277.651 575.162 277.993 575.331 278.433 575.331C279.002 575.331 279.421 575.072 279.688 574.555V572.143C279.411 571.638 278.996 571.386 278.442 571.386C278.003 571.386 277.66 571.557 277.412 571.898C277.165 572.24 277.041 572.746 277.041 573.417Z" fill="black"/>
<path d="M164 637.5H211C216.247 637.5 220.5 641.753 220.5 647V697C220.5 702.247 216.247 706.5 211 706.5H164C158.753 706.5 154.5 702.247 154.5 697V647C154.5 641.753 158.753 637.5 164 637.5Z" stroke="black"/>
<path d="M77 637.5H124C129.247 637.5 133.5 641.753 133.5 647V697C133.5 702.247 129.247 706.5 124 706.5H77C71.7533 706.5 67.5 702.247 67.5 697V647C67.5 641.753 71.7533 637.5 77 637.5Z" stroke="black"/>
<path d="M251 637.5H298C303.247 637.5 307.5 641.753 307.5 647V697C307.5 702.247 303.247 706.5 298 706.5H251C245.753 706.5 241.5 702.247 241.5 697V647C241.5 641.753 245.753 637.5 251 637.5Z" stroke="black"/>
</g>
<defs>
<clipPath id="clip0">
<rect width="414" height="736" fill="white"/>
</clipPath>
</defs>
</svg>
