<svg width="1996" height="273" viewBox="0 0 1996 273" fill="none" xmlns="http://www.w3.org/2000/svg">
<path d="M66.872 13.088C87.992 13.088 104.408 18.272 116.12 28.64C128.024 38.816 133.976 53.504 133.976 72.704C133.976 91.712 128.024 106.4 116.12 116.768C104.408 126.944 87.992 132.032 66.872 132.032H35.192V200H0.920001V13.088H66.872ZM66.872 102.368C77.432 102.368 85.4 99.584 90.776 94.016C96.152 88.448 98.84 81.344 98.84 72.704C98.84 63.872 96.152 56.672 90.776 51.104C85.4 45.344 77.432 42.464 66.872 42.464H35.192V102.368H66.872ZM203.112 87.68C211.56 67.52 224.232 57.44 241.128 57.44C244.392 57.44 248.52 58.112 253.512 59.456L252.936 93.44C247.56 92.288 242.28 91.712 237.096 91.712C214.44 91.712 203.112 107.36 203.112 138.656V200H169.128V59.744H203.112V87.68ZM343.948 56.288C353.356 56.288 362.188 57.824 370.444 60.896C378.7 63.776 385.804 68.288 391.756 74.432C405.004 87.872 411.628 106.496 411.628 130.304C411.628 153.728 405.004 172.16 391.756 185.6C379.852 197.888 363.916 204.032 343.948 204.032C323.98 204.032 307.852 197.888 295.564 185.6C282.316 172.352 275.692 153.92 275.692 130.304C275.692 106.304 282.316 87.68 295.564 74.432C307.66 62.336 323.788 56.288 343.948 56.288ZM377.644 130.016C377.644 115.232 374.764 104.192 369.004 96.896C363.244 89.408 355.18 85.664 344.812 85.664C334.636 85.664 326.284 89.408 319.756 96.896C313.228 104.192 309.964 115.232 309.964 130.016C309.964 144.8 312.844 155.936 318.604 163.424C324.556 170.72 332.62 174.368 342.796 174.368C352.972 174.368 361.324 170.72 367.852 163.424C374.38 155.936 377.644 144.8 377.644 130.016ZM530.977 196.544C518.305 201.536 508.321 204.032 501.025 204.032C493.729 204.032 487.297 203.168 481.729 201.44C476.353 199.712 471.553 197.12 467.329 193.664C458.497 185.792 454.081 174.944 454.081 161.12V82.784H434.497V60.032H454.081V23.168H488.065V60.032H526.081V82.784H488.065V159.968C488.065 171.488 493.537 177.248 504.481 177.248C510.049 177.248 517.249 175.712 526.081 172.64L530.977 196.544ZM620.698 56.288C630.106 56.288 638.938 57.824 647.194 60.896C655.45 63.776 662.554 68.288 668.506 74.432C681.754 87.872 688.378 106.496 688.378 130.304C688.378 153.728 681.754 172.16 668.506 185.6C656.602 197.888 640.666 204.032 620.698 204.032C600.73 204.032 584.602 197.888 572.314 185.6C559.066 172.352 552.442 153.92 552.442 130.304C552.442 106.304 559.066 87.68 572.314 74.432C584.41 62.336 600.538 56.288 620.698 56.288ZM654.394 130.016C654.394 115.232 651.514 104.192 645.754 96.896C639.994 89.408 631.93 85.664 621.562 85.664C611.386 85.664 603.034 89.408 596.506 96.896C589.978 104.192 586.714 115.232 586.714 130.016C586.714 144.8 589.594 155.936 595.354 163.424C601.306 170.72 609.37 174.368 619.546 174.368C629.722 174.368 638.074 170.72 644.602 163.424C651.13 155.936 654.394 144.8 654.394 130.016ZM746.095 60.032L779.791 160.832L809.167 60.032H843.727L790.159 225.344C784.591 242.048 777.775 254.048 769.711 261.344C761.839 268.64 751.759 272.288 739.471 272.288C726.991 272.288 714.511 269.216 702.031 263.072V233.12C712.015 239.456 722.095 242.624 732.271 242.624C738.991 242.624 744.463 239.936 748.687 234.56C753.103 229.184 756.655 222.176 759.343 213.536L763.663 200L707.503 60.032H746.095ZM905.044 79.04C913.876 63.872 927.316 56.288 945.364 56.288C962.644 56.288 977.428 62.816 989.716 75.872C1002.77 89.696 1009.3 107.744 1009.3 130.016C1009.3 152.48 1002.68 170.624 989.428 184.448C977.14 197.504 962.452 204.032 945.364 204.032C928.276 204.032 915.796 198.944 907.924 188.768V268.256H873.94V60.032H901.876L905.044 79.04ZM939.316 173.216C943.348 173.216 947.476 172.352 951.7 170.624C956.116 168.896 960.052 166.208 963.508 162.56C971.188 154.496 975.028 143.744 975.028 130.304C975.028 116.672 971.668 106.016 964.948 98.336C958.42 90.656 950.356 86.816 940.756 86.816C931.348 86.816 923.572 89.6 917.428 95.168C911.476 100.544 908.308 108.32 907.924 118.496V143.552C907.924 152.576 911.092 159.872 917.428 165.44C923.38 170.624 930.676 173.216 939.316 173.216ZM1147.35 76.736C1152.15 82.88 1155.71 89.984 1158.01 98.048C1160.51 106.112 1161.75 113.504 1161.75 120.224C1161.75 126.944 1161.37 132.992 1160.6 138.368H1070.17C1070.55 149.696 1073.34 158.912 1078.52 166.016C1083.71 173.12 1091.58 176.672 1102.14 176.672C1116.15 176.672 1124.51 170.528 1127.19 158.24H1161.47C1159.16 172.256 1152.73 183.296 1142.17 191.36C1131.23 199.808 1117.88 204.032 1102.14 204.032C1083.71 204.032 1068.25 197.312 1055.77 183.872C1042.91 169.856 1036.47 151.904 1036.47 130.016C1036.47 107.552 1042.91 89.504 1055.77 75.872C1068.06 62.816 1083.51 56.288 1102.14 56.288C1121.53 56.288 1136.6 63.104 1147.35 76.736ZM1102.43 83.36C1092.83 83.36 1085.34 86.528 1079.96 92.864C1074.59 99.008 1071.42 106.976 1070.46 116.768H1130.07C1130.07 101.6 1125.27 91.424 1115.67 86.24C1112.03 84.32 1107.61 83.36 1102.43 83.36ZM1293.74 178.4C1285.1 195.488 1271.85 204.032 1253.99 204.032C1236.14 204.032 1221.16 197.216 1209.06 183.584C1196.58 169.376 1190.34 151.328 1190.34 129.44C1190.34 107.552 1196.3 89.792 1208.2 76.16C1219.91 62.912 1234.5 56.288 1251.98 56.288C1269.45 56.288 1282.6 63.296 1291.43 77.312V2.43199H1325.7V200H1297.77L1293.74 178.4ZM1258.31 86.816C1248.71 86.816 1240.65 90.752 1234.12 98.624C1227.78 106.304 1224.62 116.672 1224.62 129.728C1224.62 142.784 1227.88 153.344 1234.41 161.408C1240.94 169.28 1249.19 173.216 1259.18 173.216C1267.43 173.216 1274.82 169.952 1281.35 163.424C1288.07 156.704 1291.43 148.256 1291.43 138.08V119.936C1291.05 109.952 1287.69 101.792 1281.35 95.456C1275.59 89.696 1267.91 86.816 1258.31 86.816ZM1436.93 60.032H1457.66V43.616C1457.66 29.216 1461.89 18.176 1470.33 10.496C1478.01 3.58399 1488 0.127998 1500.29 0.127998C1508.16 0.127998 1517.85 1.27999 1529.37 3.58399L1522.75 29.792C1517.37 27.872 1512.48 26.912 1508.06 26.912C1503.84 26.912 1500.09 28.16 1496.83 30.656C1493.57 32.96 1491.93 37.376 1491.93 43.904V60.032H1517.57V82.784H1491.93V200H1457.66V82.784H1436.93V60.032ZM1557.66 2.43199H1591.64V200H1557.66V2.43199ZM1700.14 56.288C1709.54 56.288 1718.38 57.824 1726.63 60.896C1734.89 63.776 1741.99 68.288 1747.94 74.432C1761.19 87.872 1767.82 106.496 1767.82 130.304C1767.82 153.728 1761.19 172.16 1747.94 185.6C1736.04 197.888 1720.1 204.032 1700.14 204.032C1680.17 204.032 1664.04 197.888 1651.75 185.6C1638.5 172.352 1631.88 153.92 1631.88 130.304C1631.88 106.304 1638.5 87.68 1651.75 74.432C1663.85 62.336 1679.98 56.288 1700.14 56.288ZM1733.83 130.016C1733.83 115.232 1730.95 104.192 1725.19 96.896C1719.43 89.408 1711.37 85.664 1701 85.664C1690.82 85.664 1682.47 89.408 1675.94 96.896C1669.42 104.192 1666.15 115.232 1666.15 130.016C1666.15 144.8 1669.03 155.936 1674.79 163.424C1680.74 170.72 1688.81 174.368 1698.98 174.368C1709.16 174.368 1717.51 170.72 1724.04 163.424C1730.57 155.936 1733.83 144.8 1733.83 130.016ZM1820.64 60.032L1848.86 159.968L1875.64 67.808H1906.46L1933.24 160.256L1961.76 60.032H1995.74L1949.66 200H1916.25L1890.33 116.192L1864.99 200H1831.29L1784.92 60.032H1820.64Z" fill="black"/>
</svg>
