<svg width="414" height="771" viewBox="0 0 414 771" fill="none" xmlns="http://www.w3.org/2000/svg">
<rect x="0.5" y="0.5" width="413" height="770" fill="#181826"/>
<circle cx="207" cy="723" r="8" fill="#DFBC60"/>
<circle cx="234" cy="723" r="8" fill="#C4C4C4"/>
<circle cx="180" cy="723" r="8" fill="#C4C4C4"/>
<g clip-path="url(#clip0)">
<path d="M134.369 239.186C133.282 280.036 187.752 321.736 255.743 321.736C323.734 321.736 432.01 241.203 380.586 239.186C281.498 235.301 247.542 194.277 257.477 165.195C275.271 113.113 136.508 158.753 134.369 239.186Z" fill="white"/>
<path d="M224.809 206.833L223.98 206.305L224.508 205.477L224.281 205.333L223.754 206.162L222.925 205.634L222.781 205.86L223.61 206.388L223.083 207.216L223.309 207.36L223.836 206.531L224.665 207.059L224.809 206.833Z" fill="#6C63FF"/>
<path d="M286.454 266.836L285.625 266.309L286.152 265.48L285.926 265.336L285.399 266.165L284.57 265.638L284.426 265.863L285.255 266.391L284.727 267.22L284.953 267.364L285.481 266.535L286.31 267.062L286.454 266.836Z" fill="#6C63FF"/>
<path d="M186.686 259.539L185.857 259.011L186.385 258.182L186.158 258.039L185.631 258.868L184.802 258.34L184.658 258.566L185.487 259.093L184.96 259.922L185.186 260.066L185.713 259.237L186.542 259.764L186.686 259.539Z" fill="#6C63FF"/>
<path d="M261.309 298.46L260.48 297.932L261.008 297.103L260.781 296.96L260.254 297.789L259.425 297.261L259.281 297.487L260.11 298.014L259.583 298.843L259.809 298.987L260.336 298.158L261.165 298.685L261.309 298.46Z" fill="#6C63FF"/>
<path d="M191.958 283.459L191.129 282.931L191.657 282.103L191.431 281.959L190.904 282.788L190.075 282.26L189.931 282.486L190.76 283.014L190.232 283.842L190.458 283.986L190.986 283.158L191.814 283.685L191.958 283.459Z" fill="#6C63FF"/>
<path d="M359.048 263.593L358.219 263.065L358.747 262.237L358.521 262.093L357.993 262.922L357.164 262.394L357.021 262.62L357.849 263.148L357.322 263.976L357.548 264.12L358.075 263.292L358.904 263.819L359.048 263.593Z" fill="#6C63FF"/>
<path d="M174.925 214.536L174.096 214.009L174.624 213.18L174.398 213.036L173.87 213.865L173.041 213.338L172.897 213.563L173.726 214.091L173.199 214.92L173.425 215.064L173.952 214.235L174.781 214.762L174.925 214.536Z" fill="#6C63FF"/>
<path d="M244.275 223.65L243.115 222.912L243.853 221.751L243.537 221.55L242.798 222.71L241.638 221.972L241.437 222.289L242.597 223.026L241.859 224.187L242.175 224.388L242.914 223.228L244.074 223.966L244.275 223.65Z" fill="white"/>
<path d="M202.503 238.984C203.175 238.984 203.719 238.439 203.719 237.767C203.719 237.096 203.175 236.551 202.503 236.551C201.831 236.551 201.286 237.096 201.286 237.767C201.286 238.439 201.831 238.984 202.503 238.984Z" fill="#6C63FF"/>
<path d="M155.053 238.984C155.725 238.984 156.269 238.439 156.269 237.767C156.269 237.096 155.725 236.551 155.053 236.551C154.381 236.551 153.836 237.096 153.836 237.767C153.836 238.439 154.381 238.984 155.053 238.984Z" fill="#6C63FF"/>
<path d="M237.787 194.386C238.459 194.386 239.004 193.842 239.004 193.17C239.004 192.498 238.459 191.954 237.787 191.954C237.115 191.954 236.57 192.498 236.57 193.17C236.57 193.842 237.115 194.386 237.787 194.386Z" fill="#6C63FF"/>
<path d="M226.432 268.58C227.103 268.58 227.648 268.035 227.648 267.363C227.648 266.692 227.103 266.147 226.432 266.147C225.76 266.147 225.215 266.692 225.215 267.363C225.215 268.035 225.76 268.58 226.432 268.58Z" fill="#6C63FF"/>
<path d="M225.62 242.632C226.068 242.632 226.431 242.269 226.431 241.822C226.431 241.374 226.068 241.011 225.62 241.011C225.172 241.011 224.809 241.374 224.809 241.822C224.809 242.269 225.172 242.632 225.62 242.632Z" fill="#6C63FF"/>
<path d="M308.759 278.31C309.207 278.31 309.57 277.947 309.57 277.499C309.57 277.052 309.207 276.688 308.759 276.688C308.311 276.688 307.948 277.052 307.948 277.499C307.948 277.947 308.311 278.31 308.759 278.31Z" fill="#FF6584"/>
<path d="M184.659 234.118C185.107 234.118 185.47 233.755 185.47 233.307C185.47 232.86 185.107 232.497 184.659 232.497C184.211 232.497 183.848 232.86 183.848 233.307C183.848 233.755 184.211 234.118 184.659 234.118Z" fill="#FF6584"/>
<path d="M235.353 168.439C235.801 168.439 236.164 168.076 236.164 167.628C236.164 167.18 235.801 166.817 235.353 166.817C234.905 166.817 234.542 167.18 234.542 167.628C234.542 168.076 234.905 168.439 235.353 168.439Z" fill="#FF6584"/>
<path d="M202.097 206.144C202.545 206.144 202.908 205.781 202.908 205.333C202.908 204.885 202.545 204.522 202.097 204.522C201.649 204.522 201.286 204.885 201.286 205.333C201.286 205.781 201.649 206.144 202.097 206.144Z" fill="#6C63FF"/>
<path d="M212.236 178.98C212.684 178.98 213.047 178.617 213.047 178.169C213.047 177.721 212.684 177.358 212.236 177.358C211.788 177.358 211.425 177.721 211.425 178.169C211.425 178.617 211.788 178.98 212.236 178.98Z" fill="white"/>
<path d="M333.499 252.363C334.171 252.363 334.716 251.818 334.716 251.146C334.716 250.475 334.171 249.93 333.499 249.93C332.827 249.93 332.282 250.475 332.282 251.146C332.282 251.818 332.827 252.363 333.499 252.363Z" fill="#6C63FF"/>
<path d="M252.792 256.822C253.464 256.822 254.009 256.278 254.009 255.606C254.009 254.934 253.464 254.39 252.792 254.39C252.12 254.39 251.575 254.934 251.575 255.606C251.575 256.278 252.12 256.822 252.792 256.822Z" fill="#6C63FF"/>
<path d="M232.108 288.446C234.348 288.446 236.164 286.631 236.164 284.391C236.164 282.152 234.348 280.337 232.108 280.337C229.868 280.337 228.053 282.152 228.053 284.391C228.053 286.631 229.868 288.446 232.108 288.446Z" fill="#6C63FF"/>
<path d="M281.182 241.416C281.853 241.416 282.398 240.871 282.398 240.2C282.398 239.528 281.853 238.983 281.182 238.983C280.51 238.983 279.965 239.528 279.965 240.2C279.965 240.871 280.51 241.416 281.182 241.416Z" fill="white"/>
<g filter="url(#filter0_i)">
<path d="M57.2828 435.158C57.2828 435.158 55.0129 444.647 57.0765 445.06C59.1401 445.472 69.2514 445.339 71.7277 445.752C74.2039 446.164 79.3628 445.472 79.3628 443.616C79.3628 441.759 73.9976 440.521 73.9976 440.521C73.9976 440.521 66.3624 436.396 66.1561 436.189C65.9497 435.983 57.2828 435.158 57.2828 435.158Z" fill="#D0CDE1"/>
</g>
<g filter="url(#filter1_d)">
<path d="M59.7135 367.401C59.7135 367.401 60.4536 375.787 60.4536 376.527C60.4536 377.267 56.0127 416.236 56.9995 424.129C57.9864 432.021 56.9082 434.542 56.9082 436.022C56.9082 437.502 64.8946 436.954 64.8946 436.954L73.5298 382.446L69.0888 366.168L59.7135 367.401Z" fill="#F9F6F6"/>
</g>
<path d="M60.171 437.235C60.171 437.235 58.1075 444.661 60.171 445.074C62.2346 445.487 72.346 444.601 74.8222 445.014C77.2984 445.426 82.4573 445.487 82.4573 443.63C82.4573 441.773 77.0921 440.536 77.0921 440.536C77.0921 440.536 69.457 436.41 69.2506 436.204C69.0443 435.997 60.171 437.235 60.171 437.235Z" fill="#D0CDE1"/>
<path d="M57.4925 357.536C57.4925 357.536 54.5319 364.688 57.9859 368.388C61.44 372.088 65.3875 379.487 65.3875 379.98C65.3875 380.473 58.4794 429.555 59.4663 432.761C60.4531 435.968 60.2064 437.941 59.9597 438.434C59.713 438.927 62.4269 441.64 65.3875 441.64C68.3482 441.64 72.7891 439.421 73.2825 437.448C73.776 435.474 72.5424 418.456 72.7891 415.25C73.0358 412.044 82.9046 360.742 81.671 359.509C80.4375 358.276 57.4925 357.536 57.4925 357.536Z" fill="white"/>
<path d="M76.243 300.808C80.8758 300.808 84.6315 297.054 84.6315 292.423C84.6315 287.791 80.8758 284.037 76.243 284.037C71.6101 284.037 67.8545 287.791 67.8545 292.423C67.8545 297.054 71.6101 300.808 76.243 300.808Z" fill="#9F616A"/>
<path d="M71.0615 296.616C71.0615 296.616 72.7886 305.741 71.555 306.728C70.3214 307.715 80.9303 309.194 80.9303 309.194C80.9303 309.194 82.1639 297.109 82.4106 295.876C82.6574 294.642 71.0615 296.616 71.0615 296.616Z" fill="#9F616A"/>
<path d="M82.4109 308.665C82.4109 308.665 84.0023 299.974 71.9131 302.441C71.9131 302.441 60.8751 311.488 61.3686 319.874C61.862 328.26 57.4922 352.567 57.9857 354.293C58.4791 356.02 55.025 358.239 56.5054 358.979C57.9857 359.719 84.6314 364.159 85.3716 358.979C86.1117 353.8 85.1248 340.728 85.6183 338.261C86.1117 335.795 85.6183 315.077 84.138 312.611C82.6576 310.144 82.4109 308.665 82.4109 308.665Z" fill="#7075A5"/>
<path d="M77.229 368.635C77.229 368.635 73.5282 382.693 78.2159 382.693C82.9036 382.693 82.6569 368.141 82.6569 368.141L77.229 368.635Z" fill="#9F616A"/>
<path d="M79.6602 293.822C79.5532 294.529 78.4607 294.823 76.8572 294.685L76.8547 294.685C76.1756 294.621 75.5024 294.506 74.8408 294.34C73.84 294.094 73.2761 294.984 72.9125 296.217C72.3155 298.249 72.2704 301.218 71.7453 301.605C68.0791 303.631 57.2463 290.049 62.7973 286.532C64.7744 285.28 71.4297 280.604 76.0278 281.549C80.6258 282.493 78.7644 288.199 78.7644 288.199C78.7644 288.199 78.9331 288.948 79.1244 289.909C79.3967 291.121 79.5808 292.351 79.6754 293.59C79.6753 293.667 79.6703 293.745 79.6602 293.822Z" fill="#2F2E41"/>
<path d="M80.1908 310.921C80.1908 310.921 71.8024 310.427 71.0622 322.759C70.322 335.092 70.5688 346.684 70.5688 346.93C70.5688 347.177 74.0228 370.608 77.2302 370.608C80.4376 370.608 82.9048 370.115 83.6449 368.881C84.3851 367.648 81.6712 349.89 81.6712 349.89C81.6712 349.89 80.4376 331.145 82.4113 325.226C84.385 319.306 84.6318 311.661 80.1908 310.921Z" fill="#7075A5"/>
<path opacity="0.1" d="M70.697 326.151L68.2637 352.504L76.3748 370.748L71.1026 352.098L70.697 325.746" fill="black"/>
<path opacity="0.1" d="M82.4572 328.989L83.0769 360.057L80.835 343.179L82.4572 328.989Z" fill="black"/>
<path d="M124.528 446H20V445.146H124.683L124.528 446Z" fill="#3F3D56"/>
</g>
<path d="M89.474 486.678L95.09 495.768V486.678H96.512V498H94.928L89.222 488.784V498H87.782V486.678H89.474ZM103.236 489.18C104.436 489.18 105.402 489.57 106.134 490.35C106.878 491.13 107.25 492.246 107.25 493.698C107.25 495.138 106.878 496.248 106.134 497.028C105.402 497.808 104.436 498.198 103.236 498.198C102.036 498.198 101.064 497.808 100.32 497.028C99.5883 496.248 99.2223 495.138 99.2223 493.698C99.2223 492.246 99.5883 491.13 100.32 490.35C101.064 489.57 102.036 489.18 103.236 489.18ZM105.81 493.698C105.81 492.666 105.594 491.862 105.162 491.286C104.73 490.698 104.094 490.404 103.254 490.404C102.426 490.404 101.79 490.698 101.346 491.286C100.902 491.862 100.68 492.666 100.68 493.698C100.68 494.718 100.89 495.522 101.31 496.11C101.73 496.686 102.354 496.974 103.182 496.974C104.022 496.974 104.67 496.686 105.126 496.11C105.582 495.522 105.81 494.718 105.81 493.698ZM109.948 489.396L112.036 496.254L114.088 489.81H115.276L117.31 496.326L119.416 489.396H120.82L118.012 498H116.626L114.646 491.97L112.702 498H111.334L108.472 489.396H109.948ZM131.798 497.748C130.766 498.228 129.824 498.33 128.972 498.054C128.36 497.862 127.928 497.46 127.676 496.848C127.544 496.548 127.478 496.188 127.478 495.768V490.476H126.092V489.396H127.478V487.002H128.882V489.396H131.582V490.476H128.882V495.75C128.882 496.626 129.29 497.064 130.106 497.064C130.55 497.064 131.048 496.956 131.6 496.74L131.798 497.748ZM135.488 490.98C136.064 489.78 137.018 489.18 138.35 489.18C139.37 489.18 140.162 489.516 140.726 490.188C141.302 490.86 141.59 491.778 141.59 492.942V498H140.186V492.942C140.186 492.114 139.988 491.49 139.592 491.07C139.208 490.65 138.65 490.44 137.918 490.44C137.186 490.44 136.598 490.752 136.154 491.376C135.71 491.988 135.488 492.84 135.488 493.932V498H134.066V485.742H135.488V490.98ZM150.257 492.42C150.257 491.64 150.095 491.082 149.771 490.746C149.447 490.41 148.973 490.242 148.349 490.242C147.737 490.242 147.239 490.368 146.855 490.62C146.483 490.86 146.297 491.244 146.297 491.772H144.731C144.731 490.452 145.439 489.636 146.855 489.324C147.287 489.228 147.755 489.18 148.259 489.18C149.327 489.18 150.161 489.45 150.761 489.99C151.361 490.53 151.661 491.352 151.661 492.456V498H150.437L150.293 496.56C149.765 497.652 148.811 498.198 147.431 498.198C146.507 498.198 145.763 497.94 145.199 497.424C144.647 496.908 144.371 496.266 144.371 495.498C144.371 494.73 144.677 494.13 145.289 493.698C145.913 493.266 146.687 493.05 147.611 493.05C148.535 493.05 149.417 493.206 150.257 493.518V492.42ZM150.257 494.418C149.405 494.178 148.661 494.058 148.025 494.058C147.389 494.058 146.873 494.172 146.477 494.4C146.081 494.628 145.883 494.988 145.883 495.48C145.883 496.56 146.495 497.1 147.719 497.1C148.415 497.1 149.009 496.854 149.501 496.362C150.005 495.858 150.257 495.21 150.257 494.418ZM159.502 497.748C158.47 498.228 157.528 498.33 156.676 498.054C156.064 497.862 155.632 497.46 155.38 496.848C155.248 496.548 155.182 496.188 155.182 495.768V490.476H153.796V489.396H155.182V487.002H156.586V489.396H159.286V490.476H156.586V495.75C156.586 496.626 156.994 497.064 157.81 497.064C158.254 497.064 158.752 496.956 159.304 496.74L159.502 497.748ZM166.04 489.396L168.128 496.254L170.18 489.81H171.368L173.402 496.326L175.508 489.396H176.912L174.104 498H172.718L170.738 491.97L168.794 498H167.426L164.564 489.396H166.04ZM182.071 497.046C183.259 497.046 183.937 496.524 184.105 495.48H185.563C185.431 496.344 185.047 497.016 184.411 497.496C183.787 497.964 183.007 498.198 182.071 498.198C180.919 498.198 179.983 497.79 179.263 496.974C178.543 496.146 178.183 495.048 178.183 493.68C178.183 492.312 178.543 491.22 179.263 490.404C179.995 489.588 180.961 489.18 182.161 489.18C183.373 489.18 184.273 489.648 184.861 490.584C185.461 491.52 185.671 492.66 185.491 494.004H179.605C179.605 494.892 179.821 495.624 180.253 496.2C180.685 496.764 181.291 497.046 182.071 497.046ZM183.115 490.53C182.839 490.386 182.503 490.314 182.107 490.314C181.375 490.314 180.793 490.566 180.361 491.07C179.941 491.562 179.695 492.18 179.623 492.924H184.213C184.213 491.724 183.847 490.926 183.115 490.53ZM187.195 487.668C187.195 487.404 187.291 487.182 187.483 487.002C187.675 486.822 187.939 486.732 188.275 486.732C188.623 486.732 188.905 486.864 189.121 487.128C189.349 487.392 189.463 487.734 189.463 488.154C189.463 488.574 189.319 489 189.031 489.432C188.755 489.852 188.353 490.2 187.825 490.476L186.817 489.936C187.561 489.552 188.011 489.096 188.167 488.568C187.891 488.544 187.657 488.454 187.465 488.298C187.285 488.142 187.195 487.932 187.195 487.668ZM192.322 489.396L194.914 496.506L197.524 489.396H199.126L195.706 498H194.14L190.72 489.396H192.322ZM204.237 497.046C205.425 497.046 206.103 496.524 206.271 495.48H207.729C207.597 496.344 207.213 497.016 206.577 497.496C205.953 497.964 205.173 498.198 204.237 498.198C203.085 498.198 202.149 497.79 201.429 496.974C200.709 496.146 200.349 495.048 200.349 493.68C200.349 492.312 200.709 491.22 201.429 490.404C202.161 489.588 203.127 489.18 204.327 489.18C205.539 489.18 206.439 489.648 207.027 490.584C207.627 491.52 207.837 492.66 207.657 494.004H201.771C201.771 494.892 201.987 495.624 202.419 496.2C202.851 496.764 203.457 497.046 204.237 497.046ZM205.281 490.53C205.005 490.386 204.669 490.314 204.273 490.314C203.541 490.314 202.959 490.566 202.527 491.07C202.107 491.562 201.861 492.18 201.789 492.924H206.379C206.379 491.724 206.013 490.926 205.281 490.53ZM216.188 491.052C216.752 489.804 217.718 489.18 219.086 489.18C219.83 489.18 220.454 489.366 220.958 489.738C221.462 490.098 221.828 490.602 222.056 491.25C222.596 489.87 223.598 489.18 225.062 489.18C226.094 489.18 226.892 489.516 227.456 490.188C228.02 490.86 228.302 491.778 228.302 492.942V498H226.898V492.942C226.898 492.114 226.7 491.49 226.304 491.07C225.92 490.65 225.362 490.44 224.63 490.44C223.898 490.44 223.328 490.74 222.92 491.34C222.524 491.94 222.326 492.768 222.326 493.824V498H220.922V492.942C220.922 492.114 220.724 491.49 220.328 491.07C219.944 490.65 219.392 490.44 218.672 490.44C217.952 490.44 217.37 490.734 216.926 491.322C216.482 491.91 216.248 492.726 216.224 493.77V498H214.802V489.396H216.026L216.188 491.052ZM234.612 497.046C235.8 497.046 236.478 496.524 236.646 495.48H238.104C237.972 496.344 237.588 497.016 236.952 497.496C236.328 497.964 235.548 498.198 234.612 498.198C233.46 498.198 232.524 497.79 231.804 496.974C231.084 496.146 230.724 495.048 230.724 493.68C230.724 492.312 231.084 491.22 231.804 490.404C232.536 489.588 233.502 489.18 234.702 489.18C235.914 489.18 236.814 489.648 237.402 490.584C238.002 491.52 238.212 492.66 238.032 494.004H232.146C232.146 494.892 232.362 495.624 232.794 496.2C233.226 496.764 233.832 497.046 234.612 497.046ZM235.656 490.53C235.38 490.386 235.044 490.314 234.648 490.314C233.916 490.314 233.334 490.566 232.902 491.07C232.482 491.562 232.236 492.18 232.164 492.924H236.754C236.754 491.724 236.388 490.926 235.656 490.53ZM245.406 497.748C244.374 498.228 243.432 498.33 242.58 498.054C241.968 497.862 241.536 497.46 241.284 496.848C241.152 496.548 241.086 496.188 241.086 495.768V490.476H239.7V489.396H241.086V487.002H242.49V489.396H245.19V490.476H242.49V495.75C242.49 496.626 242.898 497.064 243.714 497.064C244.158 497.064 244.656 496.956 245.208 496.74L245.406 497.748ZM250.235 500.502C250.823 500.958 251.441 501.186 252.089 501.186C252.569 501.186 252.983 500.946 253.331 500.466C253.583 500.118 253.811 499.59 254.015 498.882L254.267 498L250.739 489.396H252.323L254.933 496.254L256.967 489.396H258.407L255.185 499.71C254.909 500.586 254.543 501.258 254.087 501.726C253.643 502.194 253.073 502.428 252.377 502.428C251.693 502.428 250.979 502.218 250.235 501.798V500.502ZM263.777 489.18C264.977 489.18 265.943 489.57 266.675 490.35C267.419 491.13 267.791 492.246 267.791 493.698C267.791 495.138 267.419 496.248 266.675 497.028C265.943 497.808 264.977 498.198 263.777 498.198C262.577 498.198 261.605 497.808 260.861 497.028C260.129 496.248 259.763 495.138 259.763 493.698C259.763 492.246 260.129 491.13 260.861 490.35C261.605 489.57 262.577 489.18 263.777 489.18ZM266.351 493.698C266.351 492.666 266.135 491.862 265.703 491.286C265.271 490.698 264.635 490.404 263.795 490.404C262.967 490.404 262.331 490.698 261.887 491.286C261.443 491.862 261.221 492.666 261.221 493.698C261.221 494.718 261.431 495.522 261.851 496.11C262.271 496.686 262.895 496.974 263.723 496.974C264.563 496.974 265.211 496.686 265.667 496.11C266.123 495.522 266.351 494.718 266.351 493.698ZM276.357 496.29C275.769 497.538 274.815 498.162 273.495 498.162C272.523 498.162 271.737 497.892 271.137 497.352C270.549 496.812 270.255 495.978 270.255 494.85V489.378H271.677V494.742C271.677 496.194 272.349 496.92 273.693 496.92C274.473 496.92 275.103 496.62 275.583 496.02C276.075 495.42 276.333 494.652 276.357 493.716V489.378H277.779V498H276.357V496.29ZM285.695 489.396L287.783 496.254L289.835 489.81H291.023L293.057 496.326L295.163 489.396H296.567L293.759 498H292.373L290.393 491.97L288.449 498H287.081L284.219 489.396H285.695ZM301.726 497.046C302.914 497.046 303.592 496.524 303.76 495.48H305.218C305.086 496.344 304.702 497.016 304.066 497.496C303.442 497.964 302.662 498.198 301.726 498.198C300.574 498.198 299.638 497.79 298.918 496.974C298.198 496.146 297.838 495.048 297.838 493.68C297.838 492.312 298.198 491.22 298.918 490.404C299.65 489.588 300.616 489.18 301.816 489.18C303.028 489.18 303.928 489.648 304.516 490.584C305.116 491.52 305.326 492.66 305.146 494.004H299.26C299.26 494.892 299.476 495.624 299.908 496.2C300.34 496.764 300.946 497.046 301.726 497.046ZM302.77 490.53C302.494 490.386 302.158 490.314 301.762 490.314C301.03 490.314 300.448 490.566 300.016 491.07C299.596 491.562 299.35 492.18 299.278 492.924H303.868C303.868 491.724 303.502 490.926 302.77 490.53ZM315.17 489.18C316.19 489.18 317 489.444 317.6 489.972C318.2 490.488 318.59 491.136 318.77 491.916L317.33 492.042C317.174 491.538 316.922 491.148 316.574 490.872C316.226 490.584 315.842 490.44 315.422 490.44C314.654 490.44 314.03 490.728 313.55 491.304C313.082 491.88 312.848 492.666 312.848 493.662C312.848 494.646 313.076 495.438 313.532 496.038C314 496.638 314.576 496.938 315.26 496.938C315.956 496.938 316.472 496.782 316.808 496.47C317.156 496.146 317.33 495.69 317.33 495.102H318.788C318.788 496.026 318.464 496.776 317.816 497.352C317.18 497.916 316.346 498.198 315.314 498.198C314.222 498.198 313.292 497.784 312.524 496.956C311.768 496.128 311.39 495.03 311.39 493.662C311.39 492.282 311.768 491.19 312.524 490.386C313.28 489.582 314.162 489.18 315.17 489.18ZM326.9 492.42C326.9 491.64 326.738 491.082 326.414 490.746C326.09 490.41 325.616 490.242 324.992 490.242C324.38 490.242 323.882 490.368 323.498 490.62C323.126 490.86 322.94 491.244 322.94 491.772H321.374C321.374 490.452 322.082 489.636 323.498 489.324C323.93 489.228 324.398 489.18 324.902 489.18C325.97 489.18 326.804 489.45 327.404 489.99C328.004 490.53 328.304 491.352 328.304 492.456V498H327.08L326.936 496.56C326.408 497.652 325.454 498.198 324.074 498.198C323.15 498.198 322.406 497.94 321.842 497.424C321.29 496.908 321.014 496.266 321.014 495.498C321.014 494.73 321.32 494.13 321.932 493.698C322.556 493.266 323.33 493.05 324.254 493.05C325.178 493.05 326.06 493.206 326.9 493.518V492.42ZM326.9 494.418C326.048 494.178 325.304 494.058 324.668 494.058C324.032 494.058 323.516 494.172 323.12 494.4C322.724 494.628 322.526 494.988 322.526 495.48C322.526 496.56 323.138 497.1 324.362 497.1C325.058 497.1 325.652 496.854 326.144 496.362C326.648 495.858 326.9 495.21 326.9 494.418ZM333.012 491.052C333.576 489.804 334.542 489.18 335.91 489.18C336.93 489.18 337.722 489.516 338.286 490.188C338.862 490.86 339.15 491.778 339.15 492.942V498H337.746V492.942C337.746 492.114 337.548 491.49 337.152 491.07C336.768 490.65 336.216 490.44 335.496 490.44C334.776 490.44 334.194 490.734 333.75 491.322C333.306 491.91 333.072 492.726 333.048 493.77V498H331.626V489.396H332.85L333.012 491.052ZM90.68 510.18C91.7 510.18 92.51 510.444 93.11 510.972C93.71 511.488 94.1 512.136 94.28 512.916L92.84 513.042C92.684 512.538 92.432 512.148 92.084 511.872C91.736 511.584 91.352 511.44 90.932 511.44C90.164 511.44 89.54 511.728 89.06 512.304C88.592 512.88 88.358 513.666 88.358 514.662C88.358 515.646 88.586 516.438 89.042 517.038C89.51 517.638 90.086 517.938 90.77 517.938C91.466 517.938 91.982 517.782 92.318 517.47C92.666 517.146 92.84 516.69 92.84 516.102H94.298C94.298 517.026 93.974 517.776 93.326 518.352C92.69 518.916 91.856 519.198 90.824 519.198C89.732 519.198 88.802 518.784 88.034 517.956C87.278 517.128 86.9 516.03 86.9 514.662C86.9 513.282 87.278 512.19 88.034 511.386C88.79 510.582 89.672 510.18 90.68 510.18ZM100.592 511.602C99.2357 511.602 98.5337 512.67 98.4857 514.806V519H97.0637V510.378H98.4857V512.034C98.9177 510.834 99.6797 510.234 100.772 510.234C101.12 510.234 101.45 510.288 101.762 510.396L101.69 511.782C101.33 511.662 100.964 511.602 100.592 511.602ZM106.907 518.046C108.095 518.046 108.773 517.524 108.941 516.48H110.399C110.267 517.344 109.883 518.016 109.247 518.496C108.623 518.964 107.843 519.198 106.907 519.198C105.755 519.198 104.819 518.79 104.099 517.974C103.379 517.146 103.019 516.048 103.019 514.68C103.019 513.312 103.379 512.22 104.099 511.404C104.831 510.588 105.797 510.18 106.997 510.18C108.209 510.18 109.109 510.648 109.697 511.584C110.297 512.52 110.507 513.66 110.327 515.004H104.441C104.441 515.892 104.657 516.624 105.089 517.2C105.521 517.764 106.127 518.046 106.907 518.046ZM107.951 511.53C107.675 511.386 107.339 511.314 106.943 511.314C106.211 511.314 105.629 511.566 105.197 512.07C104.777 512.562 104.531 513.18 104.459 513.924H109.049C109.049 512.724 108.683 511.926 107.951 511.53ZM118.529 513.42C118.529 512.64 118.367 512.082 118.043 511.746C117.719 511.41 117.245 511.242 116.621 511.242C116.009 511.242 115.511 511.368 115.127 511.62C114.755 511.86 114.569 512.244 114.569 512.772H113.003C113.003 511.452 113.711 510.636 115.127 510.324C115.559 510.228 116.027 510.18 116.531 510.18C117.599 510.18 118.433 510.45 119.033 510.99C119.633 511.53 119.933 512.352 119.933 513.456V519H118.709L118.565 517.56C118.037 518.652 117.083 519.198 115.703 519.198C114.779 519.198 114.035 518.94 113.471 518.424C112.919 517.908 112.643 517.266 112.643 516.498C112.643 515.73 112.949 515.13 113.561 514.698C114.185 514.266 114.959 514.05 115.883 514.05C116.807 514.05 117.689 514.206 118.529 514.518V513.42ZM118.529 515.418C117.677 515.178 116.933 515.058 116.297 515.058C115.661 515.058 115.145 515.172 114.749 515.4C114.353 515.628 114.155 515.988 114.155 516.48C114.155 517.56 114.767 518.1 115.991 518.1C116.687 518.1 117.281 517.854 117.773 517.362C118.277 516.858 118.529 516.21 118.529 515.418ZM127.773 518.748C126.741 519.228 125.799 519.33 124.947 519.054C124.335 518.862 123.903 518.46 123.651 517.848C123.519 517.548 123.453 517.188 123.453 516.768V511.476H122.067V510.396H123.453V508.002H124.857V510.396H127.557V511.476H124.857V516.75C124.857 517.626 125.265 518.064 126.081 518.064C126.525 518.064 127.023 517.956 127.575 517.74L127.773 518.748ZM133.011 518.046C134.199 518.046 134.877 517.524 135.045 516.48H136.503C136.371 517.344 135.987 518.016 135.351 518.496C134.727 518.964 133.947 519.198 133.011 519.198C131.859 519.198 130.923 518.79 130.203 517.974C129.483 517.146 129.123 516.048 129.123 514.68C129.123 513.312 129.483 512.22 130.203 511.404C130.935 510.588 131.901 510.18 133.101 510.18C134.313 510.18 135.213 510.648 135.801 511.584C136.401 512.52 136.611 513.66 136.431 515.004H130.545C130.545 515.892 130.761 516.624 131.193 517.2C131.625 517.764 132.231 518.046 133.011 518.046ZM134.055 511.53C133.779 511.386 133.443 511.314 133.047 511.314C132.315 511.314 131.733 511.566 131.301 512.07C130.881 512.562 130.635 513.18 130.563 513.924H135.153C135.153 512.724 134.787 511.926 134.055 511.53ZM148.921 513.42C148.921 512.64 148.759 512.082 148.435 511.746C148.111 511.41 147.637 511.242 147.013 511.242C146.401 511.242 145.903 511.368 145.519 511.62C145.147 511.86 144.961 512.244 144.961 512.772H143.395C143.395 511.452 144.103 510.636 145.519 510.324C145.951 510.228 146.419 510.18 146.923 510.18C147.991 510.18 148.825 510.45 149.425 510.99C150.025 511.53 150.325 512.352 150.325 513.456V519H149.101L148.957 517.56C148.429 518.652 147.475 519.198 146.095 519.198C145.171 519.198 144.427 518.94 143.863 518.424C143.311 517.908 143.035 517.266 143.035 516.498C143.035 515.73 143.341 515.13 143.953 514.698C144.577 514.266 145.351 514.05 146.275 514.05C147.199 514.05 148.081 514.206 148.921 514.518V513.42ZM148.921 515.418C148.069 515.178 147.325 515.058 146.689 515.058C146.053 515.058 145.537 515.172 145.141 515.4C144.745 515.628 144.547 515.988 144.547 516.48C144.547 517.56 145.159 518.1 146.383 518.1C147.079 518.1 147.673 517.854 148.165 517.362C148.669 516.858 148.921 516.21 148.921 515.418ZM162.131 507.948C161.735 507.792 161.423 507.714 161.195 507.714C160.775 507.714 160.445 507.816 160.205 508.02C159.965 508.224 159.845 508.584 159.845 509.1V510.396H161.627V511.368H159.845V519H158.441V511.368H157.019V510.396H158.441V509.082C158.441 508.23 158.675 507.606 159.143 507.21C159.611 506.802 160.151 506.598 160.763 506.598C161.375 506.598 161.915 506.676 162.383 506.832L162.131 507.948ZM167.635 511.602C166.279 511.602 165.577 512.67 165.529 514.806V519H164.107V510.378H165.529V512.034C165.961 510.834 166.723 510.234 167.815 510.234C168.163 510.234 168.493 510.288 168.805 510.396L168.733 511.782C168.373 511.662 168.007 511.602 167.635 511.602ZM173.95 518.046C175.138 518.046 175.816 517.524 175.984 516.48H177.442C177.31 517.344 176.926 518.016 176.29 518.496C175.666 518.964 174.886 519.198 173.95 519.198C172.798 519.198 171.862 518.79 171.142 517.974C170.422 517.146 170.062 516.048 170.062 514.68C170.062 513.312 170.422 512.22 171.142 511.404C171.874 510.588 172.84 510.18 174.04 510.18C175.252 510.18 176.152 510.648 176.74 511.584C177.34 512.52 177.55 513.66 177.37 515.004H171.484C171.484 515.892 171.7 516.624 172.132 517.2C172.564 517.764 173.17 518.046 173.95 518.046ZM174.994 511.53C174.718 511.386 174.382 511.314 173.986 511.314C173.254 511.314 172.672 511.566 172.24 512.07C171.82 512.562 171.574 513.18 171.502 513.924H176.092C176.092 512.724 175.726 511.926 174.994 511.53ZM183.214 518.046C184.402 518.046 185.08 517.524 185.248 516.48H186.706C186.574 517.344 186.19 518.016 185.554 518.496C184.93 518.964 184.15 519.198 183.214 519.198C182.062 519.198 181.126 518.79 180.406 517.974C179.686 517.146 179.326 516.048 179.326 514.68C179.326 513.312 179.686 512.22 180.406 511.404C181.138 510.588 182.104 510.18 183.304 510.18C184.516 510.18 185.416 510.648 186.004 511.584C186.604 512.52 186.814 513.66 186.634 515.004H180.748C180.748 515.892 180.964 516.624 181.396 517.2C181.828 517.764 182.434 518.046 183.214 518.046ZM184.258 511.53C183.982 511.386 183.646 511.314 183.25 511.314C182.518 511.314 181.936 511.566 181.504 512.07C181.084 512.562 180.838 513.18 180.766 513.924H185.356C185.356 512.724 184.99 511.926 184.258 511.53ZM199.125 513.42C199.125 512.64 198.963 512.082 198.639 511.746C198.315 511.41 197.841 511.242 197.217 511.242C196.605 511.242 196.107 511.368 195.723 511.62C195.351 511.86 195.165 512.244 195.165 512.772H193.599C193.599 511.452 194.307 510.636 195.723 510.324C196.155 510.228 196.623 510.18 197.127 510.18C198.195 510.18 199.029 510.45 199.629 510.99C200.229 511.53 200.529 512.352 200.529 513.456V519H199.305L199.161 517.56C198.633 518.652 197.679 519.198 196.299 519.198C195.375 519.198 194.631 518.94 194.067 518.424C193.515 517.908 193.239 517.266 193.239 516.498C193.239 515.73 193.545 515.13 194.157 514.698C194.781 514.266 195.555 514.05 196.479 514.05C197.403 514.05 198.285 514.206 199.125 514.518V513.42ZM199.125 515.418C198.273 515.178 197.529 515.058 196.893 515.058C196.257 515.058 195.741 515.172 195.345 515.4C194.949 515.628 194.751 515.988 194.751 516.48C194.751 517.56 195.363 518.1 196.587 518.1C197.283 518.1 197.877 517.854 198.369 517.362C198.873 516.858 199.125 516.21 199.125 515.418ZM205.237 512.052C205.801 510.804 206.767 510.18 208.135 510.18C209.155 510.18 209.947 510.516 210.511 511.188C211.087 511.86 211.375 512.778 211.375 513.942V519H209.971V513.942C209.971 513.114 209.773 512.49 209.377 512.07C208.993 511.65 208.441 511.44 207.721 511.44C207.001 511.44 206.419 511.734 205.975 512.322C205.531 512.91 205.297 513.726 205.273 514.77V519H203.851V510.396H205.075L205.237 512.052ZM220.348 511.674V506.742H221.752V519H220.6L220.42 517.56C220.144 518.1 219.778 518.508 219.322 518.784C218.866 519.06 218.368 519.198 217.828 519.198C216.736 519.198 215.818 518.778 215.074 517.938C214.342 517.098 213.976 516.006 213.976 514.662C213.976 513.306 214.336 512.22 215.056 511.404C215.788 510.588 216.706 510.18 217.81 510.18C218.926 510.18 219.772 510.678 220.348 511.674ZM217.9 511.44C217.204 511.44 216.616 511.734 216.136 512.322C215.668 512.91 215.434 513.696 215.434 514.68C215.434 515.664 215.674 516.456 216.154 517.056C216.634 517.644 217.21 517.938 217.882 517.938C218.554 517.938 219.124 517.716 219.592 517.272C220.072 516.816 220.324 516.21 220.348 515.454V514.05C220.348 513.246 220.114 512.61 219.646 512.142C219.178 511.674 218.596 511.44 217.9 511.44ZM231.023 511.71C231.587 510.69 232.427 510.18 233.543 510.18C234.671 510.18 235.607 510.594 236.351 511.422C237.107 512.25 237.485 513.342 237.485 514.698C237.485 516.054 237.107 517.146 236.351 517.974C235.595 518.79 234.665 519.198 233.561 519.198C232.457 519.198 231.641 518.784 231.113 517.956V523.23H229.691V510.396H230.861L231.023 511.71ZM233.489 517.938C234.161 517.938 234.749 517.65 235.253 517.074C235.769 516.498 236.027 515.712 236.027 514.716C236.027 513.708 235.781 512.91 235.289 512.322C234.809 511.734 234.221 511.44 233.525 511.44C232.829 511.44 232.259 511.662 231.815 512.106C231.371 512.538 231.137 513.126 231.113 513.87V515.508C231.113 516.264 231.341 516.858 231.797 517.29C232.253 517.722 232.817 517.938 233.489 517.938ZM243.349 518.046C244.537 518.046 245.215 517.524 245.383 516.48H246.841C246.709 517.344 246.325 518.016 245.689 518.496C245.065 518.964 244.285 519.198 243.349 519.198C242.197 519.198 241.261 518.79 240.541 517.974C239.821 517.146 239.461 516.048 239.461 514.68C239.461 513.312 239.821 512.22 240.541 511.404C241.273 510.588 242.239 510.18 243.439 510.18C244.651 510.18 245.551 510.648 246.139 511.584C246.739 512.52 246.949 513.66 246.769 515.004H240.883C240.883 515.892 241.099 516.624 241.531 517.2C241.963 517.764 242.569 518.046 243.349 518.046ZM244.393 511.53C244.117 511.386 243.781 511.314 243.385 511.314C242.653 511.314 242.071 511.566 241.639 512.07C241.219 512.562 240.973 513.18 240.901 513.924H245.491C245.491 512.724 245.125 511.926 244.393 511.53ZM253.152 511.602C251.796 511.602 251.094 512.67 251.046 514.806V519H249.624V510.378H251.046V512.034C251.478 510.834 252.24 510.234 253.332 510.234C253.68 510.234 254.01 510.288 254.322 510.396L254.25 511.782C253.89 511.662 253.524 511.602 253.152 511.602ZM256.048 512.502C256.048 511.794 256.348 511.23 256.948 510.81C257.56 510.39 258.382 510.18 259.414 510.18C260.446 510.18 261.25 510.396 261.826 510.828C262.414 511.26 262.72 511.806 262.744 512.466H261.358C261.25 511.686 260.59 511.296 259.378 511.296C258.79 511.296 258.334 511.428 258.01 511.692C257.698 511.956 257.542 512.244 257.542 512.556C257.542 512.856 257.662 513.114 257.902 513.33C258.142 513.534 258.526 513.714 259.054 513.87L260.782 514.446C261.514 514.674 262.072 514.968 262.456 515.328C262.852 515.676 263.05 516.162 263.05 516.786C263.05 517.398 262.732 517.956 262.096 518.46C261.46 518.952 260.572 519.198 259.432 519.198C258.292 519.198 257.404 518.946 256.768 518.442C256.132 517.926 255.796 517.266 255.76 516.462H257.128C257.152 517.002 257.368 517.41 257.776 517.686C258.196 517.95 258.718 518.082 259.342 518.082C259.966 518.082 260.482 517.95 260.89 517.686C261.298 517.422 261.502 517.11 261.502 516.75C261.502 516.378 261.382 516.096 261.142 515.904C260.902 515.712 260.512 515.544 259.972 515.4L258.298 514.842C256.798 514.398 256.048 513.618 256.048 512.502ZM269.068 510.18C270.268 510.18 271.234 510.57 271.966 511.35C272.71 512.13 273.082 513.246 273.082 514.698C273.082 516.138 272.71 517.248 271.966 518.028C271.234 518.808 270.268 519.198 269.068 519.198C267.868 519.198 266.896 518.808 266.152 518.028C265.42 517.248 265.054 516.138 265.054 514.698C265.054 513.246 265.42 512.13 266.152 511.35C266.896 510.57 267.868 510.18 269.068 510.18ZM271.642 514.698C271.642 513.666 271.426 512.862 270.994 512.286C270.562 511.698 269.926 511.404 269.086 511.404C268.258 511.404 267.622 511.698 267.178 512.286C266.734 512.862 266.512 513.666 266.512 514.698C266.512 515.718 266.722 516.522 267.142 517.11C267.562 517.686 268.186 517.974 269.014 517.974C269.854 517.974 270.502 517.686 270.958 517.11C271.414 516.522 271.642 515.718 271.642 514.698ZM277.166 512.052C277.73 510.804 278.696 510.18 280.064 510.18C281.084 510.18 281.876 510.516 282.44 511.188C283.016 511.86 283.304 512.778 283.304 513.942V519H281.9V513.942C281.9 513.114 281.702 512.49 281.306 512.07C280.922 511.65 280.37 511.44 279.65 511.44C278.93 511.44 278.348 511.734 277.904 512.322C277.46 512.91 277.226 513.726 277.202 514.77V519H275.78V510.396H277.004L277.166 512.052ZM291.972 513.42C291.972 512.64 291.81 512.082 291.486 511.746C291.162 511.41 290.688 511.242 290.064 511.242C289.452 511.242 288.954 511.368 288.57 511.62C288.198 511.86 288.012 512.244 288.012 512.772H286.446C286.446 511.452 287.154 510.636 288.57 510.324C289.002 510.228 289.47 510.18 289.974 510.18C291.042 510.18 291.876 510.45 292.476 510.99C293.076 511.53 293.376 512.352 293.376 513.456V519H292.152L292.008 517.56C291.48 518.652 290.526 519.198 289.146 519.198C288.222 519.198 287.478 518.94 286.914 518.424C286.362 517.908 286.086 517.266 286.086 516.498C286.086 515.73 286.392 515.13 287.004 514.698C287.628 514.266 288.402 514.05 289.326 514.05C290.25 514.05 291.132 514.206 291.972 514.518V513.42ZM291.972 515.418C291.12 515.178 290.376 515.058 289.74 515.058C289.104 515.058 288.588 515.172 288.192 515.4C287.796 515.628 287.598 515.988 287.598 516.48C287.598 517.56 288.21 518.1 289.434 518.1C290.13 518.1 290.724 517.854 291.216 517.362C291.72 516.858 291.972 516.21 291.972 515.418ZM296.716 506.742H298.138V519H296.716V506.742ZM301.851 510.378H303.273V519H301.851V510.378ZM302.553 508.362C302.265 508.362 302.037 508.284 301.869 508.128C301.713 507.96 301.635 507.744 301.635 507.48C301.635 507.204 301.713 506.988 301.869 506.832C302.037 506.664 302.265 506.58 302.553 506.58C302.841 506.58 303.069 506.664 303.237 506.832C303.417 506.988 303.507 507.204 303.507 507.48C303.507 507.744 303.417 507.96 303.237 508.128C303.069 508.284 302.841 508.362 302.553 508.362ZM306.276 517.848L311.334 511.548H306.276V510.396H312.936V511.548L307.95 517.848H312.936V519H306.276V517.848ZM318.653 518.046C319.841 518.046 320.519 517.524 320.687 516.48H322.145C322.013 517.344 321.629 518.016 320.993 518.496C320.369 518.964 319.589 519.198 318.653 519.198C317.501 519.198 316.565 518.79 315.845 517.974C315.125 517.146 314.765 516.048 314.765 514.68C314.765 513.312 315.125 512.22 315.845 511.404C316.577 510.588 317.543 510.18 318.743 510.18C319.955 510.18 320.855 510.648 321.443 511.584C322.043 512.52 322.253 513.66 322.073 515.004H316.187C316.187 515.892 316.403 516.624 316.835 517.2C317.267 517.764 317.873 518.046 318.653 518.046ZM319.697 511.53C319.421 511.386 319.085 511.314 318.689 511.314C317.957 511.314 317.375 511.566 316.943 512.07C316.523 512.562 316.277 513.18 316.205 513.924H320.795C320.795 512.724 320.429 511.926 319.697 511.53ZM330.581 511.674V506.742H331.985V519H330.833L330.653 517.56C330.377 518.1 330.011 518.508 329.555 518.784C329.099 519.06 328.601 519.198 328.061 519.198C326.969 519.198 326.051 518.778 325.307 517.938C324.575 517.098 324.209 516.006 324.209 514.662C324.209 513.306 324.569 512.22 325.289 511.404C326.021 510.588 326.939 510.18 328.043 510.18C329.159 510.18 330.005 510.678 330.581 511.674ZM328.133 511.44C327.437 511.44 326.849 511.734 326.369 512.322C325.901 512.91 325.667 513.696 325.667 514.68C325.667 515.664 325.907 516.456 326.387 517.056C326.867 517.644 327.443 517.938 328.115 517.938C328.787 517.938 329.357 517.716 329.825 517.272C330.305 516.816 330.557 516.21 330.581 515.454V514.05C330.581 513.246 330.347 512.61 329.879 512.142C329.411 511.674 328.829 511.44 328.133 511.44ZM89.186 533.052C89.75 531.804 90.716 531.18 92.084 531.18C93.104 531.18 93.896 531.516 94.46 532.188C95.036 532.86 95.324 533.778 95.324 534.942V540H93.92V534.942C93.92 534.114 93.722 533.49 93.326 533.07C92.942 532.65 92.39 532.44 91.67 532.44C90.95 532.44 90.368 532.734 89.924 533.322C89.48 533.91 89.246 534.726 89.222 535.77V540H87.8V531.396H89.024L89.186 533.052ZM103.992 534.42C103.992 533.64 103.83 533.082 103.506 532.746C103.182 532.41 102.708 532.242 102.084 532.242C101.472 532.242 100.974 532.368 100.59 532.62C100.218 532.86 100.032 533.244 100.032 533.772H98.4657C98.4657 532.452 99.1737 531.636 100.59 531.324C101.022 531.228 101.49 531.18 101.994 531.18C103.062 531.18 103.896 531.45 104.496 531.99C105.096 532.53 105.396 533.352 105.396 534.456V540H104.172L104.028 538.56C103.5 539.652 102.546 540.198 101.166 540.198C100.242 540.198 99.4977 539.94 98.9337 539.424C98.3817 538.908 98.1057 538.266 98.1057 537.498C98.1057 536.73 98.4117 536.13 99.0237 535.698C99.6477 535.266 100.422 535.05 101.346 535.05C102.27 535.05 103.152 535.206 103.992 535.518V534.42ZM103.992 536.418C103.14 536.178 102.396 536.058 101.76 536.058C101.124 536.058 100.608 536.172 100.212 536.4C99.8157 536.628 99.6177 536.988 99.6177 537.48C99.6177 538.56 100.23 539.1 101.454 539.1C102.15 539.1 102.744 538.854 103.236 538.362C103.74 537.858 103.992 537.21 103.992 536.418ZM113.236 539.748C112.204 540.228 111.262 540.33 110.41 540.054C109.798 539.862 109.366 539.46 109.114 538.848C108.982 538.548 108.916 538.188 108.916 537.768V532.476H107.53V531.396H108.916V529.002H110.32V531.396H113.02V532.476H110.32V537.75C110.32 538.626 110.728 539.064 111.544 539.064C111.988 539.064 112.486 538.956 113.038 538.74L113.236 539.748ZM120.832 534.42C120.832 533.64 120.67 533.082 120.346 532.746C120.022 532.41 119.548 532.242 118.924 532.242C118.312 532.242 117.814 532.368 117.43 532.62C117.058 532.86 116.872 533.244 116.872 533.772H115.306C115.306 532.452 116.014 531.636 117.43 531.324C117.862 531.228 118.33 531.18 118.834 531.18C119.902 531.18 120.736 531.45 121.336 531.99C121.936 532.53 122.236 533.352 122.236 534.456V540H121.012L120.868 538.56C120.34 539.652 119.386 540.198 118.006 540.198C117.082 540.198 116.338 539.94 115.774 539.424C115.222 538.908 114.946 538.266 114.946 537.498C114.946 536.73 115.252 536.13 115.864 535.698C116.488 535.266 117.262 535.05 118.186 535.05C119.11 535.05 119.992 535.206 120.832 535.518V534.42ZM120.832 536.418C119.98 536.178 119.236 536.058 118.6 536.058C117.964 536.058 117.448 536.172 117.052 536.4C116.656 536.628 116.458 536.988 116.458 537.48C116.458 538.56 117.07 539.1 118.294 539.1C118.99 539.1 119.584 538.854 120.076 538.362C120.58 537.858 120.832 537.21 120.832 536.418ZM125.576 527.742H126.998V540H125.576V527.742ZM137.772 531.18C138.792 531.18 139.602 531.444 140.202 531.972C140.802 532.488 141.192 533.136 141.372 533.916L139.932 534.042C139.776 533.538 139.524 533.148 139.176 532.872C138.828 532.584 138.444 532.44 138.024 532.44C137.256 532.44 136.632 532.728 136.152 533.304C135.684 533.88 135.45 534.666 135.45 535.662C135.45 536.646 135.678 537.438 136.134 538.038C136.602 538.638 137.178 538.938 137.862 538.938C138.558 538.938 139.074 538.782 139.41 538.47C139.758 538.146 139.932 537.69 139.932 537.102H141.39C141.39 538.026 141.066 538.776 140.418 539.352C139.782 539.916 138.948 540.198 137.916 540.198C136.824 540.198 135.894 539.784 135.126 538.956C134.37 538.128 133.992 537.03 133.992 535.662C133.992 534.282 134.37 533.19 135.126 532.386C135.882 531.582 136.764 531.18 137.772 531.18ZM145.595 532.98C146.171 531.78 147.125 531.18 148.457 531.18C149.477 531.18 150.269 531.516 150.833 532.188C151.409 532.86 151.697 533.778 151.697 534.942V540H150.293V534.942C150.293 534.114 150.095 533.49 149.699 533.07C149.315 532.65 148.757 532.44 148.025 532.44C147.293 532.44 146.705 532.752 146.261 533.376C145.817 533.988 145.595 534.84 145.595 535.932V540H144.173V527.742H145.595V532.98ZM160.365 534.42C160.365 533.64 160.203 533.082 159.879 532.746C159.555 532.41 159.081 532.242 158.457 532.242C157.845 532.242 157.347 532.368 156.963 532.62C156.591 532.86 156.405 533.244 156.405 533.772H154.839C154.839 532.452 155.547 531.636 156.963 531.324C157.395 531.228 157.863 531.18 158.367 531.18C159.435 531.18 160.269 531.45 160.869 531.99C161.469 532.53 161.769 533.352 161.769 534.456V540H160.545L160.401 538.56C159.873 539.652 158.919 540.198 157.539 540.198C156.615 540.198 155.871 539.94 155.307 539.424C154.755 538.908 154.479 538.266 154.479 537.498C154.479 536.73 154.785 536.13 155.397 535.698C156.021 535.266 156.795 535.05 157.719 535.05C158.643 535.05 159.525 535.206 160.365 535.518V534.42ZM160.365 536.418C159.513 536.178 158.769 536.058 158.133 536.058C157.497 536.058 156.981 536.172 156.585 536.4C156.189 536.628 155.991 536.988 155.991 537.48C155.991 538.56 156.603 539.1 157.827 539.1C158.523 539.1 159.117 538.854 159.609 538.362C160.113 537.858 160.365 537.21 160.365 536.418ZM168.619 532.602C167.263 532.602 166.561 533.67 166.513 535.806V540H165.091V531.378H166.513V533.034C166.945 531.834 167.707 531.234 168.799 531.234C169.147 531.234 169.477 531.288 169.789 531.396L169.717 532.782C169.357 532.662 168.991 532.602 168.619 532.602ZM176.464 539.748C175.432 540.228 174.49 540.33 173.638 540.054C173.026 539.862 172.594 539.46 172.342 538.848C172.21 538.548 172.144 538.188 172.144 537.768V532.476H170.758V531.396H172.144V529.002H173.548V531.396H176.248V532.476H173.548V537.75C173.548 538.626 173.956 539.064 174.772 539.064C175.216 539.064 175.714 538.956 176.266 538.74L176.464 539.748ZM183.003 531.396L185.091 538.254L187.143 531.81H188.331L190.365 538.326L192.471 531.396H193.875L191.067 540H189.681L187.701 533.97L185.757 540H184.389L181.527 531.396H183.003ZM196.154 531.378H197.576V540H196.154V531.378ZM196.856 529.362C196.568 529.362 196.34 529.284 196.172 529.128C196.016 528.96 195.938 528.744 195.938 528.48C195.938 528.204 196.016 527.988 196.172 527.832C196.34 527.664 196.568 527.58 196.856 527.58C197.144 527.58 197.372 527.664 197.54 527.832C197.72 527.988 197.81 528.204 197.81 528.48C197.81 528.744 197.72 528.96 197.54 529.128C197.372 529.284 197.144 529.362 196.856 529.362ZM205.943 539.748C204.911 540.228 203.969 540.33 203.117 540.054C202.505 539.862 202.073 539.46 201.821 538.848C201.689 538.548 201.623 538.188 201.623 537.768V532.476H200.237V531.396H201.623V529.002H203.027V531.396H205.727V532.476H203.027V537.75C203.027 538.626 203.435 539.064 204.251 539.064C204.695 539.064 205.193 538.956 205.745 538.74L205.943 539.748ZM209.633 532.98C210.209 531.78 211.163 531.18 212.495 531.18C213.515 531.18 214.307 531.516 214.871 532.188C215.447 532.86 215.735 533.778 215.735 534.942V540H214.331V534.942C214.331 534.114 214.133 533.49 213.737 533.07C213.353 532.65 212.795 532.44 212.063 532.44C211.331 532.44 210.743 532.752 210.299 533.376C209.855 533.988 209.633 534.84 209.633 535.932V540H208.211V527.742H209.633V532.98ZM228.691 534.42C228.691 533.64 228.529 533.082 228.205 532.746C227.881 532.41 227.407 532.242 226.783 532.242C226.171 532.242 225.673 532.368 225.289 532.62C224.917 532.86 224.731 533.244 224.731 533.772H223.165C223.165 532.452 223.873 531.636 225.289 531.324C225.721 531.228 226.189 531.18 226.693 531.18C227.761 531.18 228.595 531.45 229.195 531.99C229.795 532.53 230.095 533.352 230.095 534.456V540H228.871L228.727 538.56C228.199 539.652 227.245 540.198 225.865 540.198C224.941 540.198 224.197 539.94 223.633 539.424C223.081 538.908 222.805 538.266 222.805 537.498C222.805 536.73 223.111 536.13 223.723 535.698C224.347 535.266 225.121 535.05 226.045 535.05C226.969 535.05 227.851 535.206 228.691 535.518V534.42ZM228.691 536.418C227.839 536.178 227.095 536.058 226.459 536.058C225.823 536.058 225.307 536.172 224.911 536.4C224.515 536.628 224.317 536.988 224.317 537.48C224.317 538.56 224.929 539.1 226.153 539.1C226.849 539.1 227.443 538.854 227.935 538.362C228.439 537.858 228.691 537.21 228.691 536.418ZM238.084 539.73C237.364 539.382 237.004 538.848 237.004 538.128C237.004 537.756 237.142 537.432 237.418 537.156C237.706 536.868 238.06 536.676 238.48 536.58C237.832 536.004 237.508 535.248 237.508 534.312C237.508 533.376 237.838 532.62 238.498 532.044C239.17 531.468 239.962 531.18 240.874 531.18C241.786 531.18 242.56 531.396 243.196 531.828C243.28 531.192 243.532 530.682 243.952 530.298C244.384 529.914 244.948 529.722 245.644 529.722L245.518 531.126C244.462 531.126 243.91 531.57 243.862 532.458C244.282 532.974 244.492 533.592 244.492 534.312C244.492 535.236 244.156 535.998 243.484 536.598C242.824 537.186 241.996 537.48 241 537.48C240.316 537.48 239.71 537.342 239.182 537.066C238.942 537.114 238.726 537.228 238.534 537.408C238.342 537.576 238.246 537.81 238.246 538.11C238.246 538.746 238.774 539.064 239.83 539.064H243.178C243.982 539.064 244.618 539.238 245.086 539.586C245.554 539.922 245.788 540.396 245.788 541.008C245.788 541.92 245.326 542.718 244.402 543.402C243.49 544.086 242.332 544.428 240.928 544.428C239.524 544.428 238.42 544.164 237.616 543.636C236.812 543.12 236.41 542.466 236.41 541.674C236.41 541.158 236.56 540.738 236.86 540.414C237.172 540.09 237.58 539.862 238.084 539.73ZM237.814 541.62C237.814 542.076 238.06 542.466 238.552 542.79C239.056 543.126 239.812 543.294 240.82 543.294C241.84 543.294 242.686 543.072 243.358 542.628C244.042 542.196 244.384 541.686 244.384 541.098C244.384 540.822 244.282 540.582 244.078 540.378C243.886 540.186 243.586 540.09 243.178 540.09H239.704C239.092 540.114 238.624 540.258 238.3 540.522C237.976 540.798 237.814 541.164 237.814 541.62ZM243.106 534.312C243.106 533.688 242.92 533.184 242.548 532.8C242.176 532.404 241.66 532.206 241 532.206C240.352 532.206 239.842 532.404 239.47 532.8C239.098 533.184 238.912 533.688 238.912 534.312C238.912 534.936 239.098 535.452 239.47 535.86C239.854 536.256 240.37 536.454 241.018 536.454C241.666 536.454 242.176 536.25 242.548 535.842C242.92 535.434 243.106 534.924 243.106 534.312ZM253.752 538.29C253.164 539.538 252.21 540.162 250.89 540.162C249.918 540.162 249.132 539.892 248.532 539.352C247.944 538.812 247.65 537.978 247.65 536.85V531.378H249.072V536.742C249.072 538.194 249.744 538.92 251.088 538.92C251.868 538.92 252.498 538.62 252.978 538.02C253.47 537.42 253.728 536.652 253.752 535.716V531.378H255.174V540H253.752V538.29ZM258.908 531.378H260.33V540H258.908V531.378ZM259.61 529.362C259.322 529.362 259.094 529.284 258.926 529.128C258.77 528.96 258.692 528.744 258.692 528.48C258.692 528.204 258.77 527.988 258.926 527.832C259.094 527.664 259.322 527.58 259.61 527.58C259.898 527.58 260.126 527.664 260.294 527.832C260.474 527.988 260.564 528.204 260.564 528.48C260.564 528.744 260.474 528.96 260.294 529.128C260.126 529.284 259.898 529.362 259.61 529.362ZM269.831 532.674V527.742H271.235V540H270.083L269.903 538.56C269.627 539.1 269.261 539.508 268.805 539.784C268.349 540.06 267.851 540.198 267.311 540.198C266.219 540.198 265.301 539.778 264.557 538.938C263.825 538.098 263.459 537.006 263.459 535.662C263.459 534.306 263.819 533.22 264.539 532.404C265.271 531.588 266.189 531.18 267.293 531.18C268.409 531.18 269.255 531.678 269.831 532.674ZM267.383 532.44C266.687 532.44 266.099 532.734 265.619 533.322C265.151 533.91 264.917 534.696 264.917 535.68C264.917 536.664 265.157 537.456 265.637 538.056C266.117 538.644 266.693 538.938 267.365 538.938C268.037 538.938 268.607 538.716 269.075 538.272C269.555 537.816 269.807 537.21 269.831 536.454V535.05C269.831 534.246 269.597 533.61 269.129 533.142C268.661 532.674 268.079 532.44 267.383 532.44ZM277.854 539.046C279.042 539.046 279.72 538.524 279.888 537.48H281.346C281.214 538.344 280.83 539.016 280.194 539.496C279.57 539.964 278.79 540.198 277.854 540.198C276.702 540.198 275.766 539.79 275.046 538.974C274.326 538.146 273.966 537.048 273.966 535.68C273.966 534.312 274.326 533.22 275.046 532.404C275.778 531.588 276.744 531.18 277.944 531.18C279.156 531.18 280.056 531.648 280.644 532.584C281.244 533.52 281.454 534.66 281.274 536.004H275.388C275.388 536.892 275.604 537.624 276.036 538.2C276.468 538.764 277.074 539.046 277.854 539.046ZM278.898 532.53C278.622 532.386 278.286 532.314 277.89 532.314C277.158 532.314 276.576 532.566 276.144 533.07C275.724 533.562 275.478 534.18 275.406 534.924H279.996C279.996 533.724 279.63 532.926 278.898 532.53ZM287.244 531.18C288.444 531.18 289.41 531.57 290.142 532.35C290.886 533.13 291.258 534.246 291.258 535.698C291.258 537.138 290.886 538.248 290.142 539.028C289.41 539.808 288.444 540.198 287.244 540.198C286.044 540.198 285.072 539.808 284.328 539.028C283.596 538.248 283.23 537.138 283.23 535.698C283.23 534.246 283.596 533.13 284.328 532.35C285.072 531.57 286.044 531.18 287.244 531.18ZM289.818 535.698C289.818 534.666 289.602 533.862 289.17 533.286C288.738 532.698 288.102 532.404 287.262 532.404C286.434 532.404 285.798 532.698 285.354 533.286C284.91 533.862 284.688 534.666 284.688 535.698C284.688 536.718 284.898 537.522 285.318 538.11C285.738 538.686 286.362 538.974 287.19 538.974C288.03 538.974 288.678 538.686 289.134 538.11C289.59 537.522 289.818 536.718 289.818 535.698ZM295.342 533.052C295.906 531.804 296.872 531.18 298.24 531.18C299.26 531.18 300.052 531.516 300.616 532.188C301.192 532.86 301.48 533.778 301.48 534.942V540H300.076V534.942C300.076 534.114 299.878 533.49 299.482 533.07C299.098 532.65 298.546 532.44 297.826 532.44C297.106 532.44 296.524 532.734 296.08 533.322C295.636 533.91 295.402 534.726 295.378 535.77V540H293.956V531.396H295.18L295.342 533.052ZM310.531 532.98C311.107 531.78 312.061 531.18 313.393 531.18C314.413 531.18 315.205 531.516 315.769 532.188C316.345 532.86 316.633 533.778 316.633 534.942V540H315.229V534.942C315.229 534.114 315.031 533.49 314.635 533.07C314.251 532.65 313.693 532.44 312.961 532.44C312.229 532.44 311.641 532.752 311.197 533.376C310.753 533.988 310.531 534.84 310.531 535.932V540H309.109V527.742H310.531V532.98ZM323.068 531.18C324.268 531.18 325.234 531.57 325.966 532.35C326.71 533.13 327.082 534.246 327.082 535.698C327.082 537.138 326.71 538.248 325.966 539.028C325.234 539.808 324.268 540.198 323.068 540.198C321.868 540.198 320.896 539.808 320.152 539.028C319.42 538.248 319.054 537.138 319.054 535.698C319.054 534.246 319.42 533.13 320.152 532.35C320.896 531.57 321.868 531.18 323.068 531.18ZM325.642 535.698C325.642 534.666 325.426 533.862 324.994 533.286C324.562 532.698 323.926 532.404 323.086 532.404C322.258 532.404 321.622 532.698 321.178 533.286C320.734 533.862 320.512 534.666 320.512 535.698C320.512 536.718 320.722 537.522 321.142 538.11C321.562 538.686 322.186 538.974 323.014 538.974C323.854 538.974 324.502 538.686 324.958 538.11C325.414 537.522 325.642 536.718 325.642 535.698ZM329.78 531.396L331.868 538.254L333.92 531.81H335.108L337.142 538.326L339.248 531.396H340.652L337.844 540H336.458L334.478 533.97L332.534 540H331.166L328.304 531.396H329.78ZM92.318 560.748C91.286 561.228 90.344 561.33 89.492 561.054C88.88 560.862 88.448 560.46 88.196 559.848C88.064 559.548 87.998 559.188 87.998 558.768V553.476H86.612V552.396H87.998V550.002H89.402V552.396H92.102V553.476H89.402V558.75C89.402 559.626 89.81 560.064 90.626 560.064C91.07 560.064 91.568 559.956 92.12 559.74L92.318 560.748ZM97.6816 552.18C98.8816 552.18 99.8476 552.57 100.58 553.35C101.324 554.13 101.696 555.246 101.696 556.698C101.696 558.138 101.324 559.248 100.58 560.028C99.8476 560.808 98.8816 561.198 97.6816 561.198C96.4816 561.198 95.5096 560.808 94.7656 560.028C94.0336 559.248 93.6676 558.138 93.6676 556.698C93.6676 555.246 94.0336 554.13 94.7656 553.35C95.5096 552.57 96.4816 552.18 97.6816 552.18ZM100.256 556.698C100.256 555.666 100.04 554.862 99.6076 554.286C99.1756 553.698 98.5396 553.404 97.6996 553.404C96.8716 553.404 96.2356 553.698 95.7916 554.286C95.3476 554.862 95.1256 555.666 95.1256 556.698C95.1256 557.718 95.3356 558.522 95.7556 559.11C96.1756 559.686 96.7996 559.974 97.6276 559.974C98.4676 559.974 99.1156 559.686 99.5716 559.11C100.028 558.522 100.256 557.718 100.256 556.698ZM112.211 553.602C110.855 553.602 110.153 554.67 110.105 556.806V561H108.683V552.378H110.105V554.034C110.537 552.834 111.299 552.234 112.391 552.234C112.739 552.234 113.069 552.288 113.381 552.396L113.309 553.782C112.949 553.662 112.583 553.602 112.211 553.602ZM118.526 560.046C119.714 560.046 120.392 559.524 120.56 558.48H122.018C121.886 559.344 121.502 560.016 120.866 560.496C120.242 560.964 119.462 561.198 118.526 561.198C117.374 561.198 116.438 560.79 115.718 559.974C114.998 559.146 114.638 558.048 114.638 556.68C114.638 555.312 114.998 554.22 115.718 553.404C116.45 552.588 117.416 552.18 118.616 552.18C119.828 552.18 120.728 552.648 121.316 553.584C121.916 554.52 122.126 555.66 121.946 557.004H116.06C116.06 557.892 116.276 558.624 116.708 559.2C117.14 559.764 117.746 560.046 118.526 560.046ZM119.57 553.53C119.294 553.386 118.958 553.314 118.562 553.314C117.83 553.314 117.248 553.566 116.816 554.07C116.396 554.562 116.15 555.18 116.078 555.924H120.668C120.668 554.724 120.302 553.926 119.57 553.53ZM130.148 555.42C130.148 554.64 129.986 554.082 129.662 553.746C129.338 553.41 128.864 553.242 128.24 553.242C127.628 553.242 127.13 553.368 126.746 553.62C126.374 553.86 126.188 554.244 126.188 554.772H124.622C124.622 553.452 125.33 552.636 126.746 552.324C127.178 552.228 127.646 552.18 128.15 552.18C129.218 552.18 130.052 552.45 130.652 552.99C131.252 553.53 131.552 554.352 131.552 555.456V561H130.328L130.184 559.56C129.656 560.652 128.702 561.198 127.322 561.198C126.398 561.198 125.654 560.94 125.09 560.424C124.538 559.908 124.262 559.266 124.262 558.498C124.262 557.73 124.568 557.13 125.18 556.698C125.804 556.266 126.578 556.05 127.502 556.05C128.426 556.05 129.308 556.206 130.148 556.518V555.42ZM130.148 557.418C129.296 557.178 128.552 557.058 127.916 557.058C127.28 557.058 126.764 557.172 126.368 557.4C125.972 557.628 125.774 557.988 125.774 558.48C125.774 559.56 126.386 560.1 127.61 560.1C128.306 560.1 128.9 559.854 129.392 559.362C129.896 558.858 130.148 558.21 130.148 557.418ZM140.526 553.674V548.742H141.93V561H140.778L140.598 559.56C140.322 560.1 139.956 560.508 139.5 560.784C139.044 561.06 138.546 561.198 138.006 561.198C136.914 561.198 135.996 560.778 135.252 559.938C134.52 559.098 134.154 558.006 134.154 556.662C134.154 555.306 134.514 554.22 135.234 553.404C135.966 552.588 136.884 552.18 137.988 552.18C139.104 552.18 139.95 552.678 140.526 553.674ZM138.078 553.44C137.382 553.44 136.794 553.734 136.314 554.322C135.846 554.91 135.612 555.696 135.612 556.68C135.612 557.664 135.852 558.456 136.332 559.056C136.812 559.644 137.388 559.938 138.06 559.938C138.732 559.938 139.302 559.716 139.77 559.272C140.25 558.816 140.502 558.21 140.526 557.454V556.05C140.526 555.246 140.292 554.61 139.824 554.142C139.356 553.674 138.774 553.44 138.078 553.44ZM149.959 552.378H151.381V561H149.959V552.378ZM150.661 550.362C150.373 550.362 150.145 550.284 149.977 550.128C149.821 549.96 149.743 549.744 149.743 549.48C149.743 549.204 149.821 548.988 149.977 548.832C150.145 548.664 150.373 548.58 150.661 548.58C150.949 548.58 151.177 548.664 151.345 548.832C151.525 548.988 151.615 549.204 151.615 549.48C151.615 549.744 151.525 549.96 151.345 550.128C151.177 550.284 150.949 550.362 150.661 550.362ZM159.748 560.748C158.716 561.228 157.774 561.33 156.922 561.054C156.31 560.862 155.878 560.46 155.626 559.848C155.494 559.548 155.428 559.188 155.428 558.768V553.476H154.042V552.396H155.428V550.002H156.832V552.396H159.532V553.476H156.832V558.75C156.832 559.626 157.24 560.064 158.056 560.064C158.5 560.064 158.998 559.956 159.55 559.74L159.748 560.748ZM161.781 561.162C161.481 561.162 161.229 561.066 161.025 560.874C160.833 560.67 160.737 560.43 160.737 560.154C160.737 559.866 160.833 559.626 161.025 559.434C161.229 559.23 161.481 559.128 161.781 559.128C162.093 559.128 162.351 559.23 162.555 559.434C162.759 559.626 162.861 559.866 162.861 560.154C162.861 560.43 162.759 560.67 162.555 560.874C162.351 561.066 162.093 561.162 161.781 561.162Z" fill="white"/>
<rect x="0.5" y="0.5" width="413" height="770" stroke="black"/>
<defs>
<filter id="filter0_i" x="56.21" y="435.158" width="23.1528" height="14.709" filterUnits="userSpaceOnUse" color-interpolation-filters="sRGB">
<feFlood flood-opacity="0" result="BackgroundImageFix"/>
<feBlend mode="normal" in="SourceGraphic" in2="BackgroundImageFix" result="shape"/>
<feColorMatrix in="SourceAlpha" type="matrix" values="0 0 0 0 0 0 0 0 0 0 0 0 0 0 0 0 0 0 127 0" result="hardAlpha"/>
<feOffset dy="4"/>
<feGaussianBlur stdDeviation="2"/>
<feComposite in2="hardAlpha" operator="arithmetic" k2="-1" k3="1"/>
<feColorMatrix type="matrix" values="0 0 0 0 0 0 0 0 0 0 0 0 0 0 0 0 0 0 0.25 0"/>
<feBlend mode="normal" in2="shape" result="effect1_innerShadow"/>
</filter>
<filter id="filter1_d" x="52.8564" y="366.168" width="24.6733" height="78.885" filterUnits="userSpaceOnUse" color-interpolation-filters="sRGB">
<feFlood flood-opacity="0" result="BackgroundImageFix"/>
<feColorMatrix in="SourceAlpha" type="matrix" values="0 0 0 0 0 0 0 0 0 0 0 0 0 0 0 0 0 0 127 0"/>
<feOffset dy="4"/>
<feGaussianBlur stdDeviation="2"/>
<feColorMatrix type="matrix" values="0 0 0 0 0 0 0 0 0 0 0 0 0 0 0 0 0 0 0.25 0"/>
<feBlend mode="normal" in2="BackgroundImageFix" result="effect1_dropShadow"/>
<feBlend mode="normal" in="SourceGraphic" in2="effect1_dropShadow" result="shape"/>
</filter>
<clipPath id="clip0">
<rect width="374" height="303" fill="white" transform="translate(20 143)"/>
</clipPath>
</defs>
</svg>
