<svg width="414" height="771" viewBox="0 0 414 771" fill="none" xmlns="http://www.w3.org/2000/svg">
<rect x="0.5" y="0.5" width="413" height="770" fill="white"/>
<circle cx="207" cy="723" r="8" fill="#C4C4C4"/>
<circle cx="234" cy="723" r="8" fill="#C4C4C4"/>
<circle cx="180" cy="723" r="8" fill="#DFBC60"/>
<g clip-path="url(#clip0)">
<path d="M379.531 206.446H213.059V290.079H379.531V206.446Z" fill="#E6E6E6"/>
<path d="M193.92 365.926L197.863 364.784C198.562 362.964 199.159 361.106 199.651 359.218L197.799 359.15L199.818 358.565C200.402 356.225 200.642 354.638 200.642 354.638C200.642 354.638 192.645 357.031 186.623 361.701L185.88 366.938L185.169 362.911C184.514 363.496 183.896 364.121 183.319 364.783C177.521 371.48 174.998 378.812 177.684 381.159C180.369 383.505 187.246 379.979 193.043 373.282C194.837 371.107 196.289 368.669 197.348 366.052L193.92 365.926Z" fill="#E6E6E6"/>
<path d="M44.5405 342.065L42.2932 333.158C38.3083 331.461 34.2313 329.992 30.0816 328.756L29.7979 332.895L28.6472 328.335C23.501 326.859 20 326.208 20 326.208C20 326.208 24.729 344.277 34.6478 358.091L46.2054 360.131L37.2266 361.431C38.4748 362.94 39.8163 364.368 41.243 365.708C55.672 379.165 71.7432 385.339 77.1391 379.498C82.5349 373.657 75.212 358.013 60.783 344.556C56.3099 340.385 50.6906 337.037 45.0658 334.402L44.5405 342.065Z" fill="#E6E6E6"/>
<path d="M65.9148 332.393L68.5728 323.601C66.0344 320.079 63.3004 316.704 60.3837 313.491L58.0115 316.887L59.3724 312.385C55.7265 308.449 53.0641 306.074 53.0641 306.074C53.0641 306.074 47.8169 323.997 49.2014 340.974L58.0458 348.723L49.6904 345.173C49.9828 347.113 50.3963 349.032 50.9285 350.92C56.3574 369.933 66.9388 383.566 74.5627 381.368C82.1866 379.17 83.966 361.975 78.5371 342.962C76.8541 337.067 73.7661 331.283 70.3065 326.106L65.9148 332.393Z" fill="#E6E6E6"/>
<path d="M101.867 369.194L102.796 373.39L109.292 372.924L108.828 368.261L101.867 369.194Z" fill="#FFB8B8"/>
<path d="M85.6279 369.194L84.7 373.39L78.2031 372.924L78.6675 368.261L85.6279 369.194Z" fill="#FFB8B8"/>
<path d="M83.7737 233.051C88.643 233.051 92.5904 229.085 92.5904 224.192C92.5904 219.3 88.643 215.333 83.7737 215.333C78.9044 215.333 74.957 219.3 74.957 224.192C74.957 229.085 78.9044 233.051 83.7737 233.051Z" fill="#FFB8B8"/>
<path d="M78.2027 226.523L75.8828 237.247L87.4834 240.977L87.0194 227.456L78.2027 226.523Z" fill="#FFB8B8"/>
<path d="M82.3813 238.646L76.5431 234.205C76.5431 234.205 75.4208 232.585 74.9568 233.983C74.4927 235.382 70.3164 240.511 70.3164 240.511L73.5647 278.743L98.1585 279.209C98.1585 279.209 88.5484 234.641 87.321 236.177C86.0936 237.713 82.8454 237.713 82.3813 238.646Z" fill="#D0CDE1"/>
<path d="M87.2504 233.284C87.2504 233.284 85.3943 235.149 86.3224 236.548C87.2504 237.946 86.5544 240.54 87.4824 240.759C88.4105 240.977 86.5544 256.829 89.3386 261.025C92.1228 265.222 90.7307 275.945 90.7307 277.81C90.7307 279.675 93.5149 290.865 93.5149 290.865C93.5149 290.865 102.796 291.798 102.796 289.466C102.796 287.135 99.5474 270.817 99.5474 270.817L102.332 241.909C102.332 241.909 102.332 239.112 99.0833 238.179C95.8351 237.247 89.3386 234.916 89.3386 234.916L87.2504 233.284Z" fill="#2F2E41"/>
<path d="M100.477 267.087H98.1565C98.1565 267.087 86.0916 268.019 87.0197 262.89C87.9478 257.762 97.2285 261.492 97.2285 261.492L100.013 262.89L100.477 267.087Z" fill="#FFB8B8"/>
<path d="M76.9122 232.5C76.9122 232.5 73.1009 234.916 72.6368 235.848C72.1728 236.781 61.5 241.91 61.5 245.64C61.5 249.369 64.7482 253.566 64.7482 253.566L68.9246 294.595C68.9246 294.595 75.8851 296.926 76.3491 295.061C76.8132 293.196 78.6693 252.167 77.7412 250.302C76.8132 248.437 76.8132 236.315 76.8132 236.315L76.9122 232.5Z" fill="#2F2E41"/>
<path d="M64.7453 300.19L64.2812 302.987C64.2812 302.987 64.7453 312.312 68.4576 311.846C72.1698 311.38 69.8497 302.055 69.8497 302.055L69.3856 300.19H64.7453Z" fill="#FFB8B8"/>
<path d="M70.3164 276.412C70.3164 276.412 70.7804 318.374 73.1006 331.895C75.4208 345.416 76.3489 368.728 76.3489 368.728C76.3489 368.728 82.3813 369.66 83.3094 370.127C84.2375 370.593 86.5576 369.194 86.5576 369.194L87.0217 300.19L95.8383 331.428C95.8383 331.428 97.2304 369.194 100.015 370.127C102.799 371.059 111.152 369.194 111.152 369.194C111.152 369.194 107.903 333.293 106.975 331.895C106.047 330.496 103.727 289.466 100.015 282.007L98.6226 276.878C98.6226 276.878 72.1725 277.81 70.3164 276.412Z" fill="#2F2E41"/>
<path d="M103.262 371.525C103.262 371.525 100.941 369.66 100.941 371.059C100.941 372.458 98.6213 381.083 101.406 381.083C104.19 381.083 122.751 382.715 122.287 378.985C121.823 375.255 110.657 369.299 110.657 369.299C110.657 369.299 106.51 370.593 106.046 371.059C105.582 371.525 103.262 371.525 103.262 371.525Z" fill="#2F2E41"/>
<path d="M84.2371 371.525C84.2371 371.525 86.5573 369.66 86.5573 371.059C86.5573 372.458 88.8775 381.083 86.0933 381.083C83.3091 381.083 64.7476 382.715 65.2117 378.985C65.6757 375.255 76.8419 369.299 76.8419 369.299C76.8419 369.299 80.9889 370.593 81.4529 371.059C81.917 371.525 84.2371 371.525 84.2371 371.525Z" fill="#2F2E41"/>
<path d="M99.0859 241.443L102.334 241.909L108.831 260.559C108.831 260.559 110.687 269.884 107.903 271.283C105.118 272.681 99.8635 272.408 99.8635 272.408L99.0859 261.958L101.406 262.424L99.0859 257.762V241.443Z" fill="#2F2E41"/>
<path d="M63.8197 243.774L61.4995 245.639C61.4995 245.639 59.1794 269.418 59.6434 271.749C60.1074 274.08 62.8916 302.521 62.8916 302.521L70.7802 300.656L65.2118 244.241L63.8197 243.774Z" fill="#2F2E41"/>
<path d="M74.0192 217.753C74.0192 217.753 71.4522 214.482 74.0192 212.846V213.664C74.0192 213.664 79.5198 207.529 82.8201 209.165L85.7538 208.347V209.165L87.5873 208.347L87.2206 209.574H89.7876L88.6874 210.392C88.6874 210.392 97.1217 209.983 91.9878 216.118C91.9878 216.118 94.4281 219.796 92.1078 221.842C92.1078 221.842 90.1543 217.345 87.5873 218.571C86.892 218.934 86.1075 219.088 85.3273 219.016C84.5472 218.943 83.8042 218.647 83.1868 218.162C83.1868 218.162 78.0529 217.753 78.7864 220.207C79.5198 222.661 79.1531 223.479 79.1531 223.479C79.1531 223.479 77.3195 224.706 77.6862 225.524C78.053 226.342 78.053 228.796 78.053 228.796C78.053 228.796 76.2194 225.933 75.486 226.342C74.7526 226.751 70.7188 222.661 74.0192 217.753Z" fill="#2F2E41"/>
<path d="M174.618 247.037L155.107 247.523L152.48 224.147H174.618V247.037Z" fill="#2F2E41"/>
<path d="M153.965 277.34L146.843 326.955C146.843 326.955 140.671 344.607 140.196 353.194L138.297 365.598L146.843 367.506L155.865 332.68L168.21 301.193L166.785 337.451L163.936 367.029L172.483 368.46L177.706 330.772L183.404 303.102C183.404 303.102 187.677 279.248 181.029 276.863L153.965 277.34Z" fill="#2F2E41"/>
<path d="M146.273 362.553L145.323 374.164C145.323 374.164 155.493 380.072 152.23 381.217C148.967 382.363 144.5 380.889 143.586 380.629C142.622 380.354 140.82 379.916 139.457 379.591C138.827 379.446 138.259 379.102 137.837 378.609C137.415 378.116 137.162 377.5 137.114 376.851L137.111 376.809C137.029 375.38 140.237 362.963 140.237 362.963L146.273 362.553Z" fill="#2F2E41"/>
<path d="M170.97 362.843L171.771 373.946C171.771 373.946 183.352 378.27 180.367 380.02C177.382 381.771 172.717 381.182 171.771 381.102C170.026 380.955 165.684 380.807 165.684 380.807C165.684 380.807 164.882 381.506 164.529 380.119C164.177 378.732 164.999 366.345 164.999 366.345L170.97 362.843Z" fill="#2F2E41"/>
<path d="M163.935 237.266C168.918 237.266 172.957 233.208 172.957 228.202C172.957 223.196 168.918 219.138 163.935 219.138C158.953 219.138 154.914 223.196 154.914 228.202C154.914 233.208 158.953 237.266 163.935 237.266Z" fill="#FFB8B8"/>
<path d="M158.712 233.45L156.812 243.946L164.884 247.762L166.783 234.404L158.712 233.45Z" fill="#FFB8B8"/>
<path d="M157.762 283.065L167.733 290.221C167.733 290.221 172.006 301.193 175.33 299.285C178.653 297.377 171.531 287.835 171.531 287.835L163.459 279.725L157.762 283.065Z" fill="#FFB8B8"/>
<path d="M186.251 279.725L187.2 285.45C187.2 285.45 184.826 297.377 181.977 294.991C179.129 292.606 182.927 284.973 182.927 284.973L182.452 280.202L186.251 279.725Z" fill="#FFB8B8"/>
<path d="M163.934 244.9L162.984 241.083L157.287 238.221L155.387 240.606L149.215 242.514L156.337 280.68C156.337 280.68 180.552 282.111 181.027 278.294C181.502 274.478 176.279 263.982 176.279 263.982C176.279 263.982 177.703 258.735 177.228 255.872L175.329 244.423L167.732 242.037L165.997 239.928L164.409 242.514L163.934 244.9Z" fill="#D0CDE1"/>
<path d="M150.641 243.468L149.217 242.514C149.217 242.514 146.368 242.991 145.419 246.808C144.469 250.624 145.419 267.799 147.793 271.138C150.167 274.478 156.814 284.496 156.814 284.496L165.835 280.202L156.339 269.23L153.965 255.395L150.641 243.468Z" fill="#D0CDE1"/>
<path d="M171.531 245.377L175.33 244.423C175.33 244.423 177.704 245.377 178.653 248.716C179.603 252.056 184.826 268.753 184.351 270.184C183.876 271.615 188.624 281.157 188.624 281.157L181.977 281.634L178.179 271.615L174.38 261.597L171.531 245.377Z" fill="#D0CDE1"/>
<path d="M148.299 236.81C150.201 235.76 151.086 233.404 151.15 231.224C151.213 229.044 150.686 226.887 150.645 224.707C150.624 224.26 150.662 223.814 150.758 223.377C150.915 222.836 151.161 222.325 151.485 221.864C153.959 218.055 158.26 215.376 162.79 215.334C163.444 215.325 164.094 215.445 164.703 215.687C165.171 215.875 165.324 215.852 165.414 216.43C166.487 216.074 167.651 216.112 168.699 216.535C169.738 216.959 170.706 217.539 171.572 218.254C172.087 218.639 172.572 219.061 173.025 219.518C175.419 222.01 175.97 225.85 175.276 229.243C175.051 230.346 176.133 231.41 177.028 232.088C177.923 232.765 178.957 233.387 179.396 234.423C179.819 235.419 179.587 236.559 179.672 237.639C179.768 238.659 180.145 239.633 180.762 240.449C181.379 241.266 182.211 241.893 183.164 242.259C182.97 242.493 182.716 242.67 182.43 242.771C182.144 242.872 181.836 242.894 181.539 242.834C180.918 242.702 180.338 242.425 179.845 242.024C177.992 240.644 176.666 238.668 176.089 236.425C175.826 237.626 175.928 238.865 175.938 240.096C175.915 241.468 176.167 242.832 176.678 244.105C177.198 245.385 178.151 246.439 179.368 247.082C178.194 247.659 176.9 247.241 175.905 246.388C174.951 245.479 174.262 244.325 173.912 243.052C173.244 241.019 172.974 238.876 173.115 236.741C172.022 238.588 171.623 240.767 171.989 242.884C172.371 245.043 173.493 246.999 175.16 248.414C172.254 248.39 169.395 247.666 166.824 246.305C166.16 246.003 165.575 245.55 165.114 244.982C164.287 243.829 164.483 242.256 164.715 240.853C164.898 239.744 163.519 238.141 164.309 237.345C164.543 237.112 164.857 236.977 165.187 236.966C166.374 236.877 167.526 236.514 168.552 235.906C169.578 235.299 170.451 234.462 171.104 233.462C172.015 232.086 172.532 230.485 172.6 228.834C172.599 227.621 172.338 226.423 171.834 225.322C171.33 224.22 170.596 223.241 169.68 222.45C168.765 221.66 167.691 221.078 166.531 220.744C165.371 220.409 164.153 220.33 162.96 220.512C161.767 220.694 160.628 221.132 159.619 221.798C158.61 222.463 157.756 223.339 157.116 224.367C156.475 225.394 156.063 226.548 155.907 227.751C155.751 228.953 155.855 230.175 156.213 231.333C156.498 232.265 156.702 233.219 156.823 234.187C156.966 235.309 157.193 236.419 157.503 237.507C158.101 239.597 159.113 241.731 160.986 242.821C160.331 243.103 159.628 243.253 158.915 243.262C156.565 243.522 154.093 243.464 151.965 242.427C149.838 241.39 148.147 239.181 148.299 236.81Z" fill="#2F2E41"/>
<path d="M153.43 227.556C160.18 224.838 166.835 224.258 173.316 227.556V222.077C173.316 221.131 172.942 220.223 172.276 219.554C171.61 218.884 170.706 218.508 169.764 218.508H156.236C155.867 218.508 155.502 218.581 155.162 218.723C154.821 218.865 154.512 219.072 154.252 219.334C153.991 219.596 153.784 219.907 153.643 220.249C153.502 220.591 153.43 220.957 153.43 221.328V227.556Z" fill="#2F2E41"/>
<path d="M155.53 230.949C156.08 230.949 156.525 230.233 156.525 229.35C156.525 228.467 156.08 227.75 155.53 227.75C154.981 227.75 154.535 228.467 154.535 229.35C154.535 230.233 154.981 230.949 155.53 230.949Z" fill="#FFB8B8"/>
<path d="M239.132 381.153H20V382H239.132V381.153Z" fill="#3F3D56"/>
<path d="M394 278.48H226.684V194H394V278.48ZM227.526 277.633H393.157V194.847H227.526V277.633Z" fill="#3F3D56"/>
<path d="M309.856 262.716C309.855 264.067 309.455 265.387 308.708 266.51C307.96 267.633 306.898 268.508 305.655 269.025C304.413 269.542 303.046 269.676 301.727 269.413C300.408 269.149 299.197 268.498 298.246 267.543C297.295 266.587 296.647 265.37 296.385 264.045C296.122 262.72 296.257 261.347 296.771 260.098C297.285 258.85 298.156 257.783 299.273 257.031C300.391 256.28 301.705 255.879 303.05 255.878C303.944 255.875 304.83 256.05 305.657 256.393C306.484 256.736 307.235 257.239 307.868 257.875C308.5 258.51 309.002 259.265 309.343 260.096C309.684 260.927 309.858 261.817 309.856 262.716Z" fill="#6C63FF"/>
<path opacity="0.3" d="M309.856 262.716C309.855 264.067 309.455 265.387 308.708 266.51C307.96 267.633 306.898 268.508 305.655 269.025C304.413 269.542 303.046 269.676 301.727 269.413C300.408 269.149 299.197 268.498 298.246 267.543C297.295 266.587 296.647 265.37 296.385 264.045C296.122 262.72 296.257 261.347 296.771 260.098C297.285 258.85 298.156 257.783 299.273 257.031C300.391 256.28 301.705 255.879 303.05 255.878C303.944 255.875 304.83 256.05 305.657 256.393C306.484 256.736 307.235 257.239 307.868 257.875C308.5 258.51 309.002 259.265 309.343 260.096C309.684 260.927 309.858 261.817 309.856 262.716Z" fill="black"/>
<path d="M322.182 228.246C322.195 230.481 321.737 232.693 320.838 234.737C320.448 235.617 319.981 236.46 319.443 237.256C318.327 238.877 316.987 240.331 315.465 241.575C315.203 241.795 314.917 242.024 314.533 242.32C314.053 242.68 313.518 243.057 312.902 243.463C311.816 244.169 310.771 244.937 309.771 245.762C309.179 246.227 308.665 246.784 308.25 247.414C307.732 248.324 307.47 250.086 307.47 252.651V253.075H296.109V251.093C296.109 249.544 296.147 248.239 296.219 247.105C296.27 246.076 296.377 245.052 296.539 244.035C296.65 243.141 296.919 242.273 297.331 241.473C298.077 240.224 299.877 238.526 302.827 236.282C302.953 236.189 303.079 236.092 303.21 235.994C303.332 235.91 303.45 235.821 303.572 235.728C304.594 234.998 305.535 234.161 306.379 233.229C306.626 232.939 306.854 232.634 307.062 232.315L307.117 232.23C307.777 231.054 308.101 229.718 308.052 228.369C308.055 228.027 308.033 227.686 307.985 227.348C307.854 226.03 307.245 224.806 306.274 223.91C305.22 222.94 303.862 222.371 302.435 222.301C302.253 222.284 302.085 222.28 301.912 222.28C301.24 222.276 300.571 222.356 299.919 222.517C298.696 222.82 297.6 223.501 296.784 224.465C296.351 224.978 295.983 225.542 295.688 226.146C294.692 228.453 294.056 230.901 293.8 233.403L293.758 233.848L283.062 230.985V226.247C283.113 226.057 283.168 225.866 283.227 225.68C283.91 223.304 284.998 221.065 286.442 219.062C287.06 218.212 287.755 217.423 288.52 216.704C288.701 216.521 288.899 216.344 289.097 216.17C290.384 215.047 291.814 214.102 293.349 213.359L293.484 213.295C296.392 211.945 299.564 211.268 302.768 211.313C303.1 211.313 303.492 211.318 303.88 211.339C307.063 211.42 310.187 212.22 313.02 213.68C314.293 214.342 315.485 215.149 316.573 216.085C319.626 218.586 321.592 222.181 322.055 226.112C322.14 226.82 322.182 227.533 322.182 228.246Z" fill="#6C63FF"/>
<path opacity="0.3" d="M322.182 228.246C322.195 230.481 321.737 232.693 320.838 234.737C320.448 235.617 319.981 236.46 319.443 237.256C318.327 238.877 316.987 240.331 315.465 241.575C315.203 241.795 314.917 242.024 314.533 242.32C314.053 242.68 313.518 243.057 312.902 243.463C311.816 244.169 310.771 244.937 309.771 245.762C309.179 246.227 308.665 246.784 308.25 247.414C307.732 248.324 307.47 250.086 307.47 252.651V253.075H296.109V251.093C296.109 249.544 296.147 248.239 296.219 247.105C296.27 246.076 296.377 245.052 296.539 244.035C296.65 243.141 296.919 242.273 297.331 241.473C298.077 240.224 299.877 238.526 302.827 236.282C302.953 236.189 303.079 236.092 303.21 235.994C303.332 235.91 303.45 235.821 303.572 235.728C304.594 234.998 305.535 234.161 306.379 233.229C306.626 232.939 306.854 232.634 307.062 232.315L307.117 232.23C307.777 231.054 308.101 229.718 308.052 228.369C308.055 228.027 308.033 227.686 307.985 227.348C307.854 226.03 307.245 224.806 306.274 223.91C305.22 222.94 303.862 222.371 302.435 222.301C302.253 222.284 302.085 222.28 301.912 222.28C301.24 222.276 300.571 222.356 299.919 222.517C298.696 222.82 297.6 223.501 296.784 224.465C296.351 224.978 295.983 225.542 295.688 226.146C294.692 228.453 294.056 230.901 293.8 233.403L293.758 233.848L283.062 230.985V226.247C283.113 226.057 283.168 225.866 283.227 225.68C283.91 223.304 284.998 221.065 286.442 219.062C287.06 218.212 287.755 217.423 288.52 216.704C288.701 216.521 288.899 216.344 289.097 216.17C290.384 215.047 291.814 214.102 293.349 213.359L293.484 213.295C296.392 211.945 299.564 211.268 302.768 211.313C303.1 211.313 303.492 211.318 303.88 211.339C307.063 211.42 310.187 212.22 313.02 213.68C314.293 214.342 315.485 215.149 316.573 216.085C319.626 218.586 321.592 222.181 322.055 226.112C322.14 226.82 322.182 227.533 322.182 228.246Z" fill="black"/>
<path d="M305.223 262.716C305.222 264.067 304.822 265.387 304.075 266.51C303.327 267.633 302.265 268.508 301.022 269.025C299.78 269.542 298.413 269.676 297.094 269.413C295.775 269.149 294.564 268.498 293.613 267.543C292.662 266.587 292.015 265.37 291.752 264.045C291.489 262.72 291.624 261.347 292.138 260.098C292.652 258.85 293.523 257.783 294.641 257.031C295.758 256.28 297.072 255.879 298.417 255.878C299.312 255.875 300.198 256.05 301.025 256.393C301.851 256.736 302.603 257.239 303.235 257.875C303.868 258.51 304.369 259.265 304.71 260.096C305.051 260.927 305.225 261.817 305.223 262.716Z" fill="#6C63FF"/>
<path d="M317.549 228.246C317.562 230.481 317.104 232.693 316.205 234.737C315.815 235.617 315.349 236.46 314.81 237.256C313.694 238.877 312.354 240.331 310.832 241.575C310.571 241.795 310.284 242.024 309.9 242.32C309.42 242.68 308.885 243.057 308.27 243.463C307.183 244.169 306.138 244.937 305.139 245.762C304.546 246.227 304.032 246.784 303.617 247.414C303.099 248.324 302.838 250.086 302.838 252.651V253.075H291.477V251.093C291.477 249.544 291.515 248.239 291.586 247.105C291.638 246.076 291.745 245.052 291.906 244.035C292.018 243.141 292.286 242.273 292.699 241.473C293.444 240.224 295.244 238.526 298.194 236.282C298.32 236.189 298.447 236.092 298.577 235.994C298.7 235.91 298.817 235.821 298.94 235.728C299.962 234.998 300.902 234.161 301.746 233.229C301.993 232.939 302.221 232.634 302.429 232.315L302.484 232.23C303.144 231.054 303.468 229.718 303.419 228.369C303.422 228.027 303.4 227.686 303.352 227.348C303.221 226.03 302.612 224.806 301.641 223.91C300.587 222.94 299.229 222.371 297.802 222.301C297.621 222.284 297.452 222.28 297.279 222.28C296.608 222.276 295.938 222.356 295.286 222.517C294.064 222.82 292.967 223.501 292.151 224.465C291.718 224.978 291.35 225.542 291.055 226.146C290.297 227.666 289.804 229.681 289.589 232.133L289.546 232.577L277.52 230.854L277.578 230.435C277.79 228.825 278.129 227.235 278.594 225.68C279.277 223.304 280.365 221.065 281.809 219.062C282.427 218.212 283.122 217.423 283.887 216.704C284.068 216.521 284.266 216.344 284.464 216.17C285.751 215.047 287.181 214.102 288.716 213.359L288.851 213.295C291.759 211.945 294.932 211.268 298.135 211.313C298.468 211.313 298.86 211.318 299.247 211.339C302.43 211.42 305.554 212.22 308.388 213.68C309.66 214.342 310.852 215.149 311.94 216.085C314.993 218.586 316.959 222.181 317.423 226.112C317.507 226.82 317.549 227.533 317.549 228.246Z" fill="#6C63FF"/>
</g>
<path d="M72.836 497.678L75.59 507.092L78.38 498.848H79.334L82.106 507.092L85.274 497.678H86.84L82.844 509H81.35L78.884 501.746L76.328 509H74.834L71.252 497.678H72.836ZM91.2919 508.046C92.4799 508.046 93.1579 507.524 93.3259 506.48H94.7839C94.6519 507.344 94.2679 508.016 93.6319 508.496C93.0079 508.964 92.2279 509.198 91.2919 509.198C90.1399 509.198 89.2039 508.79 88.4839 507.974C87.7639 507.146 87.4039 506.048 87.4039 504.68C87.4039 503.312 87.7639 502.22 88.4839 501.404C89.2159 500.588 90.1819 500.18 91.3819 500.18C92.5939 500.18 93.4939 500.648 94.0819 501.584C94.6819 502.52 94.8919 503.66 94.7119 505.004H88.8259C88.8259 505.892 89.0419 506.624 89.4739 507.2C89.9059 507.764 90.5119 508.046 91.2919 508.046ZM92.3359 501.53C92.0599 501.386 91.7239 501.314 91.3279 501.314C90.5959 501.314 90.0139 501.566 89.5819 502.07C89.1619 502.562 88.9159 503.18 88.8439 503.924H93.4339C93.4339 502.724 93.0679 501.926 92.3359 501.53ZM107.203 503.42C107.203 502.64 107.041 502.082 106.717 501.746C106.393 501.41 105.919 501.242 105.295 501.242C104.683 501.242 104.185 501.368 103.801 501.62C103.429 501.86 103.243 502.244 103.243 502.772H101.677C101.677 501.452 102.385 500.636 103.801 500.324C104.233 500.228 104.701 500.18 105.205 500.18C106.273 500.18 107.107 500.45 107.707 500.99C108.307 501.53 108.607 502.352 108.607 503.456V509H107.383L107.239 507.56C106.711 508.652 105.757 509.198 104.377 509.198C103.453 509.198 102.709 508.94 102.145 508.424C101.593 507.908 101.317 507.266 101.317 506.498C101.317 505.73 101.623 505.13 102.235 504.698C102.859 504.266 103.633 504.05 104.557 504.05C105.481 504.05 106.363 504.206 107.203 504.518V503.42ZM107.203 505.418C106.351 505.178 105.607 505.058 104.971 505.058C104.335 505.058 103.819 505.172 103.423 505.4C103.027 505.628 102.829 505.988 102.829 506.48C102.829 507.56 103.441 508.1 104.665 508.1C105.361 508.1 105.955 507.854 106.447 507.362C106.951 506.858 107.203 506.21 107.203 505.418ZM111.497 502.502C111.497 501.794 111.797 501.23 112.397 500.81C113.009 500.39 113.831 500.18 114.863 500.18C115.895 500.18 116.699 500.396 117.275 500.828C117.863 501.26 118.169 501.806 118.193 502.466H116.807C116.699 501.686 116.039 501.296 114.827 501.296C114.239 501.296 113.783 501.428 113.459 501.692C113.147 501.956 112.991 502.244 112.991 502.556C112.991 502.856 113.111 503.114 113.351 503.33C113.591 503.534 113.975 503.714 114.503 503.87L116.231 504.446C116.963 504.674 117.521 504.968 117.905 505.328C118.301 505.676 118.499 506.162 118.499 506.786C118.499 507.398 118.181 507.956 117.545 508.46C116.909 508.952 116.021 509.198 114.881 509.198C113.741 509.198 112.853 508.946 112.217 508.442C111.581 507.926 111.245 507.266 111.209 506.462H112.577C112.601 507.002 112.817 507.41 113.225 507.686C113.645 507.95 114.167 508.082 114.791 508.082C115.415 508.082 115.931 507.95 116.339 507.686C116.747 507.422 116.951 507.11 116.951 506.75C116.951 506.378 116.831 506.096 116.591 505.904C116.351 505.712 115.961 505.544 115.421 505.4L113.747 504.842C112.247 504.398 111.497 503.618 111.497 502.502ZM123.996 504.446L122.844 505.382V509H121.422V496.742H122.844V503.87L127.002 500.396H128.982L125.022 503.618L129.18 509H127.434L123.996 504.446ZM141.199 503.42C141.199 502.64 141.037 502.082 140.713 501.746C140.389 501.41 139.915 501.242 139.291 501.242C138.679 501.242 138.181 501.368 137.797 501.62C137.425 501.86 137.239 502.244 137.239 502.772H135.673C135.673 501.452 136.381 500.636 137.797 500.324C138.229 500.228 138.697 500.18 139.201 500.18C140.269 500.18 141.103 500.45 141.703 500.99C142.303 501.53 142.603 502.352 142.603 503.456V509H141.379L141.235 507.56C140.707 508.652 139.753 509.198 138.373 509.198C137.449 509.198 136.705 508.94 136.141 508.424C135.589 507.908 135.313 507.266 135.313 506.498C135.313 505.73 135.619 505.13 136.231 504.698C136.855 504.266 137.629 504.05 138.553 504.05C139.477 504.05 140.359 504.206 141.199 504.518V503.42ZM141.199 505.418C140.347 505.178 139.603 505.058 138.967 505.058C138.331 505.058 137.815 505.172 137.419 505.4C137.023 505.628 136.825 505.988 136.825 506.48C136.825 507.56 137.437 508.1 138.661 508.1C139.357 508.1 139.951 507.854 140.443 507.362C140.947 506.858 141.199 506.21 141.199 505.418ZM149.782 502.502C149.782 501.794 150.082 501.23 150.682 500.81C151.294 500.39 152.116 500.18 153.148 500.18C154.18 500.18 154.984 500.396 155.56 500.828C156.148 501.26 156.454 501.806 156.478 502.466H155.092C154.984 501.686 154.324 501.296 153.112 501.296C152.524 501.296 152.068 501.428 151.744 501.692C151.432 501.956 151.276 502.244 151.276 502.556C151.276 502.856 151.396 503.114 151.636 503.33C151.876 503.534 152.26 503.714 152.788 503.87L154.516 504.446C155.248 504.674 155.806 504.968 156.19 505.328C156.586 505.676 156.784 506.162 156.784 506.786C156.784 507.398 156.466 507.956 155.83 508.46C155.194 508.952 154.306 509.198 153.166 509.198C152.026 509.198 151.138 508.946 150.502 508.442C149.866 507.926 149.53 507.266 149.494 506.462H150.862C150.886 507.002 151.102 507.41 151.51 507.686C151.93 507.95 152.452 508.082 153.076 508.082C153.7 508.082 154.216 507.95 154.624 507.686C155.032 507.422 155.236 507.11 155.236 506.75C155.236 506.378 155.116 506.096 154.876 505.904C154.636 505.712 154.246 505.544 153.706 505.4L152.032 504.842C150.532 504.398 149.782 503.618 149.782 502.502ZM162.677 508.046C163.865 508.046 164.543 507.524 164.711 506.48H166.169C166.037 507.344 165.653 508.016 165.017 508.496C164.393 508.964 163.613 509.198 162.677 509.198C161.525 509.198 160.589 508.79 159.869 507.974C159.149 507.146 158.789 506.048 158.789 504.68C158.789 503.312 159.149 502.22 159.869 501.404C160.601 500.588 161.567 500.18 162.767 500.18C163.979 500.18 164.879 500.648 165.467 501.584C166.067 502.52 166.277 503.66 166.097 505.004H160.211C160.211 505.892 160.427 506.624 160.859 507.2C161.291 507.764 161.897 508.046 162.677 508.046ZM163.721 501.53C163.445 501.386 163.109 501.314 162.713 501.314C161.981 501.314 161.399 501.566 160.967 502.07C160.547 502.562 160.301 503.18 160.229 503.924H164.819C164.819 502.724 164.453 501.926 163.721 501.53ZM172.48 501.602C171.124 501.602 170.422 502.67 170.374 504.806V509H168.952V500.378H170.374V502.034C170.806 500.834 171.568 500.234 172.66 500.234C173.008 500.234 173.338 500.288 173.65 500.396L173.578 501.782C173.218 501.662 172.852 501.602 172.48 501.602ZM175.916 500.378H177.338V509H175.916V500.378ZM176.618 498.362C176.33 498.362 176.102 498.284 175.934 498.128C175.778 497.96 175.7 497.744 175.7 497.48C175.7 497.204 175.778 496.988 175.934 496.832C176.102 496.664 176.33 496.58 176.618 496.58C176.906 496.58 177.134 496.664 177.302 496.832C177.482 496.988 177.572 497.204 177.572 497.48C177.572 497.744 177.482 497.96 177.302 498.128C177.134 498.284 176.906 498.362 176.618 498.362ZM184.175 508.046C185.363 508.046 186.041 507.524 186.209 506.48H187.667C187.535 507.344 187.151 508.016 186.515 508.496C185.891 508.964 185.111 509.198 184.175 509.198C183.023 509.198 182.087 508.79 181.367 507.974C180.647 507.146 180.287 506.048 180.287 504.68C180.287 503.312 180.647 502.22 181.367 501.404C182.099 500.588 183.065 500.18 184.265 500.18C185.477 500.18 186.377 500.648 186.965 501.584C187.565 502.52 187.775 503.66 187.595 505.004H181.709C181.709 505.892 181.925 506.624 182.357 507.2C182.789 507.764 183.395 508.046 184.175 508.046ZM185.219 501.53C184.943 501.386 184.607 501.314 184.211 501.314C183.479 501.314 182.897 501.566 182.465 502.07C182.045 502.562 181.799 503.18 181.727 503.924H186.317C186.317 502.724 185.951 501.926 185.219 501.53ZM190.018 502.502C190.018 501.794 190.318 501.23 190.918 500.81C191.53 500.39 192.352 500.18 193.384 500.18C194.416 500.18 195.22 500.396 195.796 500.828C196.384 501.26 196.69 501.806 196.714 502.466H195.328C195.22 501.686 194.56 501.296 193.348 501.296C192.76 501.296 192.304 501.428 191.98 501.692C191.668 501.956 191.512 502.244 191.512 502.556C191.512 502.856 191.632 503.114 191.872 503.33C192.112 503.534 192.496 503.714 193.024 503.87L194.752 504.446C195.484 504.674 196.042 504.968 196.426 505.328C196.822 505.676 197.02 506.162 197.02 506.786C197.02 507.398 196.702 507.956 196.066 508.46C195.43 508.952 194.542 509.198 193.402 509.198C192.262 509.198 191.374 508.946 190.738 508.442C190.102 507.926 189.766 507.266 189.73 506.462H191.098C191.122 507.002 191.338 507.41 191.746 507.686C192.166 507.95 192.688 508.082 193.312 508.082C193.936 508.082 194.452 507.95 194.86 507.686C195.268 507.422 195.472 507.11 195.472 506.75C195.472 506.378 195.352 506.096 195.112 505.904C194.872 505.712 194.482 505.544 193.942 505.4L192.268 504.842C190.768 504.398 190.018 503.618 190.018 502.502ZM207.328 500.18C208.528 500.18 209.494 500.57 210.226 501.35C210.97 502.13 211.342 503.246 211.342 504.698C211.342 506.138 210.97 507.248 210.226 508.028C209.494 508.808 208.528 509.198 207.328 509.198C206.128 509.198 205.156 508.808 204.412 508.028C203.68 507.248 203.314 506.138 203.314 504.698C203.314 503.246 203.68 502.13 204.412 501.35C205.156 500.57 206.128 500.18 207.328 500.18ZM209.902 504.698C209.902 503.666 209.686 502.862 209.254 502.286C208.822 501.698 208.186 501.404 207.346 501.404C206.518 501.404 205.882 501.698 205.438 502.286C204.994 502.862 204.772 503.666 204.772 504.698C204.772 505.718 204.982 506.522 205.402 507.11C205.822 507.686 206.446 507.974 207.274 507.974C208.114 507.974 208.762 507.686 209.218 507.11C209.674 506.522 209.902 505.718 209.902 504.698ZM218.234 497.948C217.838 497.792 217.526 497.714 217.298 497.714C216.878 497.714 216.548 497.816 216.308 498.02C216.068 498.224 215.948 498.584 215.948 499.1V500.396H217.73V501.368H215.948V509H214.544V501.368H213.122V500.396H214.544V499.082C214.544 498.23 214.778 497.606 215.246 497.21C215.714 496.802 216.254 496.598 216.866 496.598C217.478 496.598 218.018 496.676 218.486 496.832L218.234 497.948ZM227.451 500.18C228.675 500.18 229.563 500.72 230.115 501.8L230.421 500.396H231.393V510.458C231.393 511.046 231.459 511.436 231.591 511.628C231.735 511.832 231.891 511.976 232.059 512.06C232.239 512.156 232.455 512.246 232.707 512.33L232.239 513.428C231.423 513.212 230.841 512.87 230.493 512.402C230.157 511.934 229.989 511.256 229.989 510.368V507.632C229.497 508.676 228.687 509.198 227.559 509.198C226.443 509.198 225.507 508.79 224.751 507.974C223.995 507.146 223.617 506.054 223.617 504.698C223.617 503.342 223.989 502.25 224.733 501.422C225.489 500.594 226.395 500.18 227.451 500.18ZM227.577 501.44C226.881 501.44 226.287 501.734 225.795 502.322C225.315 502.91 225.075 503.708 225.075 504.716C225.075 505.712 225.333 506.498 225.849 507.074C226.365 507.65 226.965 507.938 227.649 507.938C228.633 507.938 229.335 507.5 229.755 506.624C229.899 506.348 229.977 506.018 229.989 505.634V503.996C229.989 503.204 229.761 502.58 229.305 502.124C228.849 501.668 228.273 501.44 227.577 501.44ZM240.897 507.29C240.309 508.538 239.355 509.162 238.035 509.162C237.063 509.162 236.277 508.892 235.677 508.352C235.089 507.812 234.795 506.978 234.795 505.85V500.378H236.217V505.742C236.217 507.194 236.889 507.92 238.233 507.92C239.013 507.92 239.643 507.62 240.123 507.02C240.615 506.42 240.873 505.652 240.897 504.716V500.378H242.319V509H240.897V507.29ZM248.933 508.046C250.121 508.046 250.799 507.524 250.967 506.48H252.425C252.293 507.344 251.909 508.016 251.273 508.496C250.649 508.964 249.869 509.198 248.933 509.198C247.781 509.198 246.845 508.79 246.125 507.974C245.405 507.146 245.045 506.048 245.045 504.68C245.045 503.312 245.405 502.22 246.125 501.404C246.857 500.588 247.823 500.18 249.023 500.18C250.235 500.18 251.135 500.648 251.723 501.584C252.323 502.52 252.533 503.66 252.353 505.004H246.467C246.467 505.892 246.683 506.624 247.115 507.2C247.547 507.764 248.153 508.046 248.933 508.046ZM249.977 501.53C249.701 501.386 249.365 501.314 248.969 501.314C248.237 501.314 247.655 501.566 247.223 502.07C246.803 502.562 246.557 503.18 246.485 503.924H251.075C251.075 502.724 250.709 501.926 249.977 501.53ZM254.776 502.502C254.776 501.794 255.076 501.23 255.676 500.81C256.288 500.39 257.11 500.18 258.142 500.18C259.174 500.18 259.978 500.396 260.554 500.828C261.142 501.26 261.448 501.806 261.472 502.466H260.086C259.978 501.686 259.318 501.296 258.106 501.296C257.518 501.296 257.062 501.428 256.738 501.692C256.426 501.956 256.27 502.244 256.27 502.556C256.27 502.856 256.39 503.114 256.63 503.33C256.87 503.534 257.254 503.714 257.782 503.87L259.51 504.446C260.242 504.674 260.8 504.968 261.184 505.328C261.58 505.676 261.778 506.162 261.778 506.786C261.778 507.398 261.46 507.956 260.824 508.46C260.188 508.952 259.3 509.198 258.16 509.198C257.02 509.198 256.132 508.946 255.496 508.442C254.86 507.926 254.524 507.266 254.488 506.462H255.856C255.88 507.002 256.096 507.41 256.504 507.686C256.924 507.95 257.446 508.082 258.07 508.082C258.694 508.082 259.21 507.95 259.618 507.686C260.026 507.422 260.23 507.11 260.23 506.75C260.23 506.378 260.11 506.096 259.87 505.904C259.63 505.712 259.24 505.544 258.7 505.4L257.026 504.842C255.526 504.398 254.776 503.618 254.776 502.502ZM269.201 508.748C268.169 509.228 267.227 509.33 266.375 509.054C265.763 508.862 265.331 508.46 265.079 507.848C264.947 507.548 264.881 507.188 264.881 506.768V501.476H263.495V500.396H264.881V498.002H266.285V500.396H268.985V501.476H266.285V506.75C266.285 507.626 266.693 508.064 267.509 508.064C267.953 508.064 268.451 507.956 269.003 507.74L269.201 508.748ZM271.558 500.378H272.98V509H271.558V500.378ZM272.26 498.362C271.972 498.362 271.744 498.284 271.576 498.128C271.42 497.96 271.342 497.744 271.342 497.48C271.342 497.204 271.42 496.988 271.576 496.832C271.744 496.664 271.972 496.58 272.26 496.58C272.548 496.58 272.776 496.664 272.944 496.832C273.124 496.988 273.214 497.204 273.214 497.48C273.214 497.744 273.124 497.96 272.944 498.128C272.776 498.284 272.548 498.362 272.26 498.362ZM279.943 500.18C281.143 500.18 282.109 500.57 282.841 501.35C283.585 502.13 283.957 503.246 283.957 504.698C283.957 506.138 283.585 507.248 282.841 508.028C282.109 508.808 281.143 509.198 279.943 509.198C278.743 509.198 277.771 508.808 277.027 508.028C276.295 507.248 275.929 506.138 275.929 504.698C275.929 503.246 276.295 502.13 277.027 501.35C277.771 500.57 278.743 500.18 279.943 500.18ZM282.517 504.698C282.517 503.666 282.301 502.862 281.869 502.286C281.437 501.698 280.801 501.404 279.961 501.404C279.133 501.404 278.497 501.698 278.053 502.286C277.609 502.862 277.387 503.666 277.387 504.698C277.387 505.718 277.597 506.522 278.017 507.11C278.437 507.686 279.061 507.974 279.889 507.974C280.729 507.974 281.377 507.686 281.833 507.11C282.289 506.522 282.517 505.718 282.517 504.698ZM288.041 502.052C288.605 500.804 289.571 500.18 290.939 500.18C291.959 500.18 292.751 500.516 293.315 501.188C293.891 501.86 294.179 502.778 294.179 503.942V509H292.775V503.942C292.775 503.114 292.577 502.49 292.181 502.07C291.797 501.65 291.245 501.44 290.525 501.44C289.805 501.44 289.223 501.734 288.779 502.322C288.335 502.91 288.101 503.726 288.077 504.77V509H286.655V500.396H287.879L288.041 502.052ZM297.069 502.502C297.069 501.794 297.369 501.23 297.969 500.81C298.581 500.39 299.403 500.18 300.435 500.18C301.467 500.18 302.271 500.396 302.847 500.828C303.435 501.26 303.741 501.806 303.765 502.466H302.379C302.271 501.686 301.611 501.296 300.399 501.296C299.811 501.296 299.355 501.428 299.031 501.692C298.719 501.956 298.563 502.244 298.563 502.556C298.563 502.856 298.683 503.114 298.923 503.33C299.163 503.534 299.547 503.714 300.075 503.87L301.803 504.446C302.535 504.674 303.093 504.968 303.477 505.328C303.873 505.676 304.071 506.162 304.071 506.786C304.071 507.398 303.753 507.956 303.117 508.46C302.481 508.952 301.593 509.198 300.453 509.198C299.313 509.198 298.425 508.946 297.789 508.442C297.153 507.926 296.817 507.266 296.781 506.462H298.149C298.173 507.002 298.389 507.41 298.797 507.686C299.217 507.95 299.739 508.082 300.363 508.082C300.987 508.082 301.503 507.95 301.911 507.686C302.319 507.422 302.523 507.11 302.523 506.75C302.523 506.378 302.403 506.096 302.163 505.904C301.923 505.712 301.533 505.544 300.993 505.4L299.319 504.842C297.819 504.398 297.069 503.618 297.069 502.502ZM310.833 502.502C310.833 501.794 311.133 501.23 311.733 500.81C312.345 500.39 313.167 500.18 314.199 500.18C315.231 500.18 316.035 500.396 316.611 500.828C317.199 501.26 317.505 501.806 317.529 502.466H316.143C316.035 501.686 315.375 501.296 314.163 501.296C313.575 501.296 313.119 501.428 312.795 501.692C312.483 501.956 312.327 502.244 312.327 502.556C312.327 502.856 312.447 503.114 312.687 503.33C312.927 503.534 313.311 503.714 313.839 503.87L315.567 504.446C316.299 504.674 316.857 504.968 317.241 505.328C317.637 505.676 317.835 506.162 317.835 506.786C317.835 507.398 317.517 507.956 316.881 508.46C316.245 508.952 315.357 509.198 314.217 509.198C313.077 509.198 312.189 508.946 311.553 508.442C310.917 507.926 310.581 507.266 310.545 506.462H311.913C311.937 507.002 312.153 507.41 312.561 507.686C312.981 507.95 313.503 508.082 314.127 508.082C314.751 508.082 315.267 507.95 315.675 507.686C316.083 507.422 316.287 507.11 316.287 506.75C316.287 506.378 316.167 506.096 315.927 505.904C315.687 505.712 315.297 505.544 314.757 505.4L313.083 504.842C311.583 504.398 310.833 503.618 310.833 502.502ZM323.853 500.18C325.053 500.18 326.019 500.57 326.751 501.35C327.495 502.13 327.867 503.246 327.867 504.698C327.867 506.138 327.495 507.248 326.751 508.028C326.019 508.808 325.053 509.198 323.853 509.198C322.653 509.198 321.681 508.808 320.937 508.028C320.205 507.248 319.839 506.138 319.839 504.698C319.839 503.246 320.205 502.13 320.937 501.35C321.681 500.57 322.653 500.18 323.853 500.18ZM326.427 504.698C326.427 503.666 326.211 502.862 325.779 502.286C325.347 501.698 324.711 501.404 323.871 501.404C323.043 501.404 322.407 501.698 321.963 502.286C321.519 502.862 321.297 503.666 321.297 504.698C321.297 505.718 321.507 506.522 321.927 507.11C322.347 507.686 322.971 507.974 323.799 507.974C324.639 507.974 325.287 507.686 325.743 507.11C326.199 506.522 326.427 505.718 326.427 504.698ZM77.318 529.748C76.286 530.228 75.344 530.33 74.492 530.054C73.88 529.862 73.448 529.46 73.196 528.848C73.064 528.548 72.998 528.188 72.998 527.768V522.476H71.612V521.396H72.998V519.002H74.402V521.396H77.102V522.476H74.402V527.75C74.402 528.626 74.81 529.064 75.626 529.064C76.07 529.064 76.568 528.956 77.12 528.74L77.318 529.748ZM81.0076 522.98C81.5836 521.78 82.5376 521.18 83.8696 521.18C84.8896 521.18 85.6816 521.516 86.2456 522.188C86.8216 522.86 87.1096 523.778 87.1096 524.942V530H85.7056V524.942C85.7056 524.114 85.5076 523.49 85.1116 523.07C84.7276 522.65 84.1696 522.44 83.4376 522.44C82.7056 522.44 82.1176 522.752 81.6736 523.376C81.2296 523.988 81.0076 524.84 81.0076 525.932V530H79.5856V517.742H81.0076V522.98ZM95.7769 524.42C95.7769 523.64 95.6149 523.082 95.2909 522.746C94.9669 522.41 94.4929 522.242 93.8689 522.242C93.2569 522.242 92.7589 522.368 92.3749 522.62C92.0029 522.86 91.8169 523.244 91.8169 523.772H90.2509C90.2509 522.452 90.9589 521.636 92.3749 521.324C92.8069 521.228 93.2749 521.18 93.7789 521.18C94.8469 521.18 95.6809 521.45 96.2809 521.99C96.8809 522.53 97.1809 523.352 97.1809 524.456V530H95.9569L95.8129 528.56C95.2849 529.652 94.3309 530.198 92.9509 530.198C92.0269 530.198 91.2829 529.94 90.7189 529.424C90.1669 528.908 89.8909 528.266 89.8909 527.498C89.8909 526.73 90.1969 526.13 90.8089 525.698C91.4329 525.266 92.2069 525.05 93.1309 525.05C94.0549 525.05 94.9369 525.206 95.7769 525.518V524.42ZM95.7769 526.418C94.9249 526.178 94.1809 526.058 93.5449 526.058C92.9089 526.058 92.3929 526.172 91.9969 526.4C91.6009 526.628 91.4029 526.988 91.4029 527.48C91.4029 528.56 92.0149 529.1 93.2389 529.1C93.9349 529.1 94.5289 528.854 95.0209 528.362C95.5249 527.858 95.7769 527.21 95.7769 526.418ZM105.021 529.748C103.989 530.228 103.047 530.33 102.195 530.054C101.583 529.862 101.151 529.46 100.899 528.848C100.767 528.548 100.701 528.188 100.701 527.768V522.476H99.3151V521.396H100.701V519.002H102.105V521.396H104.805V522.476H102.105V527.75C102.105 528.626 102.513 529.064 103.329 529.064C103.773 529.064 104.271 528.956 104.823 528.74L105.021 529.748ZM111.56 521.396L113.648 528.254L115.7 521.81H116.888L118.922 528.326L121.028 521.396H122.432L119.624 530H118.238L116.258 523.97L114.314 530H112.946L110.084 521.396H111.56ZM127.591 529.046C128.779 529.046 129.457 528.524 129.625 527.48H131.083C130.951 528.344 130.567 529.016 129.931 529.496C129.307 529.964 128.527 530.198 127.591 530.198C126.439 530.198 125.503 529.79 124.783 528.974C124.063 528.146 123.703 527.048 123.703 525.68C123.703 524.312 124.063 523.22 124.783 522.404C125.515 521.588 126.481 521.18 127.681 521.18C128.893 521.18 129.793 521.648 130.381 522.584C130.981 523.52 131.191 524.66 131.011 526.004H125.125C125.125 526.892 125.341 527.624 125.773 528.2C126.205 528.764 126.811 529.046 127.591 529.046ZM128.635 522.53C128.359 522.386 128.023 522.314 127.627 522.314C126.895 522.314 126.313 522.566 125.881 523.07C125.461 523.562 125.215 524.18 125.143 524.924H129.733C129.733 523.724 129.367 522.926 128.635 522.53ZM141.035 521.18C142.055 521.18 142.865 521.444 143.465 521.972C144.065 522.488 144.455 523.136 144.635 523.916L143.195 524.042C143.039 523.538 142.787 523.148 142.439 522.872C142.091 522.584 141.707 522.44 141.287 522.44C140.519 522.44 139.895 522.728 139.415 523.304C138.947 523.88 138.713 524.666 138.713 525.662C138.713 526.646 138.941 527.438 139.397 528.038C139.865 528.638 140.441 528.938 141.125 528.938C141.821 528.938 142.337 528.782 142.673 528.47C143.021 528.146 143.195 527.69 143.195 527.102H144.653C144.653 528.026 144.329 528.776 143.681 529.352C143.045 529.916 142.211 530.198 141.179 530.198C140.087 530.198 139.157 529.784 138.389 528.956C137.633 528.128 137.255 527.03 137.255 525.662C137.255 524.282 137.633 523.19 138.389 522.386C139.145 521.582 140.027 521.18 141.035 521.18ZM152.765 524.42C152.765 523.64 152.603 523.082 152.279 522.746C151.955 522.41 151.481 522.242 150.857 522.242C150.245 522.242 149.747 522.368 149.363 522.62C148.991 522.86 148.805 523.244 148.805 523.772H147.239C147.239 522.452 147.947 521.636 149.363 521.324C149.795 521.228 150.263 521.18 150.767 521.18C151.835 521.18 152.669 521.45 153.269 521.99C153.869 522.53 154.169 523.352 154.169 524.456V530H152.945L152.801 528.56C152.273 529.652 151.319 530.198 149.939 530.198C149.015 530.198 148.271 529.94 147.707 529.424C147.155 528.908 146.879 528.266 146.879 527.498C146.879 526.73 147.185 526.13 147.797 525.698C148.421 525.266 149.195 525.05 150.119 525.05C151.043 525.05 151.925 525.206 152.765 525.518V524.42ZM152.765 526.418C151.913 526.178 151.169 526.058 150.533 526.058C149.897 526.058 149.381 526.172 148.985 526.4C148.589 526.628 148.391 526.988 148.391 527.48C148.391 528.56 149.003 529.1 150.227 529.1C150.923 529.1 151.517 528.854 152.009 528.362C152.513 527.858 152.765 527.21 152.765 526.418ZM158.877 523.052C159.441 521.804 160.407 521.18 161.775 521.18C162.795 521.18 163.587 521.516 164.151 522.188C164.727 522.86 165.015 523.778 165.015 524.942V530H163.611V524.942C163.611 524.114 163.413 523.49 163.017 523.07C162.633 522.65 162.081 522.44 161.361 522.44C160.641 522.44 160.059 522.734 159.615 523.322C159.171 523.91 158.937 524.726 158.913 525.77V530H157.491V521.396H158.715L158.877 523.052ZM173.004 529.73C172.284 529.382 171.924 528.848 171.924 528.128C171.924 527.756 172.062 527.432 172.338 527.156C172.626 526.868 172.98 526.676 173.4 526.58C172.752 526.004 172.428 525.248 172.428 524.312C172.428 523.376 172.758 522.62 173.418 522.044C174.09 521.468 174.882 521.18 175.794 521.18C176.706 521.18 177.48 521.396 178.116 521.828C178.2 521.192 178.452 520.682 178.872 520.298C179.304 519.914 179.868 519.722 180.564 519.722L180.438 521.126C179.382 521.126 178.83 521.57 178.782 522.458C179.202 522.974 179.412 523.592 179.412 524.312C179.412 525.236 179.076 525.998 178.404 526.598C177.744 527.186 176.916 527.48 175.92 527.48C175.236 527.48 174.63 527.342 174.102 527.066C173.862 527.114 173.646 527.228 173.454 527.408C173.262 527.576 173.166 527.81 173.166 528.11C173.166 528.746 173.694 529.064 174.75 529.064H178.098C178.902 529.064 179.538 529.238 180.006 529.586C180.474 529.922 180.708 530.396 180.708 531.008C180.708 531.92 180.246 532.718 179.322 533.402C178.41 534.086 177.252 534.428 175.848 534.428C174.444 534.428 173.34 534.164 172.536 533.636C171.732 533.12 171.33 532.466 171.33 531.674C171.33 531.158 171.48 530.738 171.78 530.414C172.092 530.09 172.5 529.862 173.004 529.73ZM172.734 531.62C172.734 532.076 172.98 532.466 173.472 532.79C173.976 533.126 174.732 533.294 175.74 533.294C176.76 533.294 177.606 533.072 178.278 532.628C178.962 532.196 179.304 531.686 179.304 531.098C179.304 530.822 179.202 530.582 178.998 530.378C178.806 530.186 178.506 530.09 178.098 530.09H174.624C174.012 530.114 173.544 530.258 173.22 530.522C172.896 530.798 172.734 531.164 172.734 531.62ZM178.026 524.312C178.026 523.688 177.84 523.184 177.468 522.8C177.096 522.404 176.58 522.206 175.92 522.206C175.272 522.206 174.762 522.404 174.39 522.8C174.018 523.184 173.832 523.688 173.832 524.312C173.832 524.936 174.018 525.452 174.39 525.86C174.774 526.256 175.29 526.454 175.938 526.454C176.586 526.454 177.096 526.25 177.468 525.842C177.84 525.434 178.026 524.924 178.026 524.312ZM185.792 529.046C186.98 529.046 187.658 528.524 187.826 527.48H189.284C189.152 528.344 188.768 529.016 188.132 529.496C187.508 529.964 186.728 530.198 185.792 530.198C184.64 530.198 183.704 529.79 182.984 528.974C182.264 528.146 181.904 527.048 181.904 525.68C181.904 524.312 182.264 523.22 182.984 522.404C183.716 521.588 184.682 521.18 185.882 521.18C187.094 521.18 187.994 521.648 188.582 522.584C189.182 523.52 189.392 524.66 189.212 526.004H183.326C183.326 526.892 183.542 527.624 183.974 528.2C184.406 528.764 185.012 529.046 185.792 529.046ZM186.836 522.53C186.56 522.386 186.224 522.314 185.828 522.314C185.096 522.314 184.514 522.566 184.082 523.07C183.662 523.562 183.416 524.18 183.344 524.924H187.934C187.934 523.724 187.568 522.926 186.836 522.53ZM196.586 529.748C195.554 530.228 194.612 530.33 193.76 530.054C193.148 529.862 192.716 529.46 192.464 528.848C192.332 528.548 192.266 528.188 192.266 527.768V522.476H190.88V521.396H192.266V519.002H193.67V521.396H196.37V522.476H193.67V527.75C193.67 528.626 194.078 529.064 194.894 529.064C195.338 529.064 195.836 528.956 196.388 528.74L196.586 529.748ZM207.642 529.748C206.61 530.228 205.668 530.33 204.816 530.054C204.204 529.862 203.772 529.46 203.52 528.848C203.388 528.548 203.322 528.188 203.322 527.768V522.476H201.936V521.396H203.322V519.002H204.726V521.396H207.426V522.476H204.726V527.75C204.726 528.626 205.134 529.064 205.95 529.064C206.394 529.064 206.892 528.956 207.444 528.74L207.642 529.748ZM213.006 521.18C214.206 521.18 215.172 521.57 215.904 522.35C216.648 523.13 217.02 524.246 217.02 525.698C217.02 527.138 216.648 528.248 215.904 529.028C215.172 529.808 214.206 530.198 213.006 530.198C211.806 530.198 210.834 529.808 210.09 529.028C209.358 528.248 208.992 527.138 208.992 525.698C208.992 524.246 209.358 523.13 210.09 522.35C210.834 521.57 211.806 521.18 213.006 521.18ZM215.58 525.698C215.58 524.666 215.364 523.862 214.932 523.286C214.5 522.698 213.864 522.404 213.024 522.404C212.196 522.404 211.56 522.698 211.116 523.286C210.672 523.862 210.45 524.666 210.45 525.698C210.45 526.718 210.66 527.522 211.08 528.11C211.5 528.686 212.124 528.974 212.952 528.974C213.792 528.974 214.44 528.686 214.896 528.11C215.352 527.522 215.58 526.718 215.58 525.698ZM226.599 525.446L225.447 526.382V530H224.025V517.742H225.447V524.87L229.605 521.396H231.585L227.625 524.618L231.783 530H230.037L226.599 525.446ZM235.553 523.052C236.117 521.804 237.083 521.18 238.451 521.18C239.471 521.18 240.263 521.516 240.827 522.188C241.403 522.86 241.691 523.778 241.691 524.942V530H240.287V524.942C240.287 524.114 240.089 523.49 239.693 523.07C239.309 522.65 238.757 522.44 238.037 522.44C237.317 522.44 236.735 522.734 236.291 523.322C235.847 523.91 235.613 524.726 235.589 525.77V530H234.167V521.396H235.391L235.553 523.052ZM248.127 521.18C249.327 521.18 250.293 521.57 251.025 522.35C251.769 523.13 252.141 524.246 252.141 525.698C252.141 527.138 251.769 528.248 251.025 529.028C250.293 529.808 249.327 530.198 248.127 530.198C246.927 530.198 245.955 529.808 245.211 529.028C244.479 528.248 244.113 527.138 244.113 525.698C244.113 524.246 244.479 523.13 245.211 522.35C245.955 521.57 246.927 521.18 248.127 521.18ZM250.701 525.698C250.701 524.666 250.485 523.862 250.053 523.286C249.621 522.698 248.985 522.404 248.145 522.404C247.317 522.404 246.681 522.698 246.237 523.286C245.793 523.862 245.571 524.666 245.571 525.698C245.571 526.718 245.781 527.522 246.201 528.11C246.621 528.686 247.245 528.974 248.073 528.974C248.913 528.974 249.561 528.686 250.017 528.11C250.473 527.522 250.701 526.718 250.701 525.698ZM254.839 521.396L256.927 528.254L258.979 521.81H260.167L262.201 528.326L264.307 521.396H265.711L262.903 530H261.517L259.537 523.97L257.593 530H256.225L253.363 521.396H254.839ZM270.461 532.502C271.049 532.958 271.667 533.186 272.315 533.186C272.795 533.186 273.209 532.946 273.557 532.466C273.809 532.118 274.037 531.59 274.241 530.882L274.493 530L270.965 521.396H272.549L275.159 528.254L277.193 521.396H278.633L275.411 531.71C275.135 532.586 274.769 533.258 274.313 533.726C273.869 534.194 273.299 534.428 272.603 534.428C271.919 534.428 271.205 534.218 270.461 533.798V532.502ZM284.004 521.18C285.204 521.18 286.17 521.57 286.902 522.35C287.646 523.13 288.018 524.246 288.018 525.698C288.018 527.138 287.646 528.248 286.902 529.028C286.17 529.808 285.204 530.198 284.004 530.198C282.804 530.198 281.832 529.808 281.088 529.028C280.356 528.248 279.99 527.138 279.99 525.698C279.99 524.246 280.356 523.13 281.088 522.35C281.832 521.57 282.804 521.18 284.004 521.18ZM286.578 525.698C286.578 524.666 286.362 523.862 285.93 523.286C285.498 522.698 284.862 522.404 284.022 522.404C283.194 522.404 282.558 522.698 282.114 523.286C281.67 523.862 281.448 524.666 281.448 525.698C281.448 526.718 281.658 527.522 282.078 528.11C282.498 528.686 283.122 528.974 283.95 528.974C284.79 528.974 285.438 528.686 285.894 528.11C286.35 527.522 286.578 526.718 286.578 525.698ZM296.584 528.29C295.996 529.538 295.042 530.162 293.722 530.162C292.75 530.162 291.964 529.892 291.364 529.352C290.776 528.812 290.482 527.978 290.482 526.85V521.378H291.904V526.742C291.904 528.194 292.576 528.92 293.92 528.92C294.7 528.92 295.33 528.62 295.81 528.02C296.302 527.42 296.56 526.652 296.584 525.716V521.378H298.006V530H296.584V528.29ZM311.267 524.42C311.267 523.64 311.105 523.082 310.781 522.746C310.457 522.41 309.983 522.242 309.359 522.242C308.747 522.242 308.249 522.368 307.865 522.62C307.493 522.86 307.307 523.244 307.307 523.772H305.741C305.741 522.452 306.449 521.636 307.865 521.324C308.297 521.228 308.765 521.18 309.269 521.18C310.337 521.18 311.171 521.45 311.771 521.99C312.371 522.53 312.671 523.352 312.671 524.456V530H311.447L311.303 528.56C310.775 529.652 309.821 530.198 308.441 530.198C307.517 530.198 306.773 529.94 306.209 529.424C305.657 528.908 305.381 528.266 305.381 527.498C305.381 526.73 305.687 526.13 306.299 525.698C306.923 525.266 307.697 525.05 308.621 525.05C309.545 525.05 310.427 525.206 311.267 525.518V524.42ZM311.267 526.418C310.415 526.178 309.671 526.058 309.035 526.058C308.399 526.058 307.883 526.172 307.487 526.4C307.091 526.628 306.893 526.988 306.893 527.48C306.893 528.56 307.505 529.1 308.729 529.1C309.425 529.1 310.019 528.854 310.511 528.362C311.015 527.858 311.267 527.21 311.267 526.418ZM317.379 523.052C317.943 521.804 318.909 521.18 320.277 521.18C321.297 521.18 322.089 521.516 322.653 522.188C323.229 522.86 323.517 523.778 323.517 524.942V530H322.113V524.942C322.113 524.114 321.915 523.49 321.519 523.07C321.135 522.65 320.583 522.44 319.863 522.44C319.143 522.44 318.561 522.734 318.117 523.322C317.673 523.91 317.439 524.726 317.415 525.77V530H315.993V521.396H317.217L317.379 523.052ZM332.491 522.674V517.742H333.895V530H332.743L332.563 528.56C332.287 529.1 331.921 529.508 331.465 529.784C331.009 530.06 330.511 530.198 329.971 530.198C328.879 530.198 327.961 529.778 327.217 528.938C326.485 528.098 326.119 527.006 326.119 525.662C326.119 524.306 326.479 523.22 327.199 522.404C327.931 521.588 328.849 521.18 329.953 521.18C331.069 521.18 331.915 521.678 332.491 522.674ZM330.043 522.44C329.347 522.44 328.759 522.734 328.279 523.322C327.811 523.91 327.577 524.696 327.577 525.68C327.577 526.664 327.817 527.456 328.297 528.056C328.777 528.644 329.353 528.938 330.025 528.938C330.697 528.938 331.267 528.716 331.735 528.272C332.215 527.816 332.467 527.21 332.491 526.454V525.05C332.491 524.246 332.257 523.61 331.789 523.142C331.321 522.674 330.739 522.44 330.043 522.44ZM76.994 539.948C76.598 539.792 76.286 539.714 76.058 539.714C75.638 539.714 75.308 539.816 75.068 540.02C74.828 540.224 74.708 540.584 74.708 541.1V542.396H76.49V543.368H74.708V551H73.304V543.368H71.882V542.396H73.304V541.082C73.304 540.23 73.538 539.606 74.006 539.21C74.474 538.802 75.014 538.598 75.626 538.598C76.238 538.598 76.778 538.676 77.246 538.832L76.994 539.948ZM79.0779 542.378H80.4999V551H79.0779V542.378ZM79.7799 540.362C79.4919 540.362 79.2639 540.284 79.0959 540.128C78.9399 539.96 78.8619 539.744 78.8619 539.48C78.8619 539.204 78.9399 538.988 79.0959 538.832C79.2639 538.664 79.4919 538.58 79.7799 538.58C80.0679 538.58 80.2959 538.664 80.4639 538.832C80.6439 538.988 80.7339 539.204 80.7339 539.48C80.7339 539.744 80.6439 539.96 80.4639 540.128C80.2959 540.284 80.0679 540.362 79.7799 540.362ZM85.7348 544.052C86.2988 542.804 87.2648 542.18 88.6328 542.18C89.6528 542.18 90.4448 542.516 91.0088 543.188C91.5848 543.86 91.8728 544.778 91.8728 545.942V551H90.4688V545.942C90.4688 545.114 90.2708 544.49 89.8748 544.07C89.4908 543.65 88.9388 543.44 88.2188 543.44C87.4988 543.44 86.9168 543.734 86.4728 544.322C86.0288 544.91 85.7948 545.726 85.7708 546.77V551H84.3488V542.396H85.5728L85.7348 544.052ZM100.847 543.674V538.742H102.251V551H101.099L100.919 549.56C100.643 550.1 100.277 550.508 99.8205 550.784C99.3645 551.06 98.8665 551.198 98.3265 551.198C97.2345 551.198 96.3165 550.778 95.5725 549.938C94.8405 549.098 94.4745 548.006 94.4745 546.662C94.4745 545.306 94.8345 544.22 95.5545 543.404C96.2865 542.588 97.2045 542.18 98.3085 542.18C99.4245 542.18 100.271 542.678 100.847 543.674ZM98.3985 543.44C97.7025 543.44 97.1145 543.734 96.6345 544.322C96.1665 544.91 95.9325 545.696 95.9325 546.68C95.9325 547.664 96.1725 548.456 96.6525 549.056C97.1325 549.644 97.7085 549.938 98.3805 549.938C99.0525 549.938 99.6225 549.716 100.091 549.272C100.571 548.816 100.823 548.21 100.847 547.454V546.05C100.847 545.246 100.613 544.61 100.145 544.142C99.6765 543.674 99.0945 543.44 98.3985 543.44ZM110.549 550.73C109.829 550.382 109.469 549.848 109.469 549.128C109.469 548.756 109.607 548.432 109.883 548.156C110.171 547.868 110.525 547.676 110.945 547.58C110.297 547.004 109.973 546.248 109.973 545.312C109.973 544.376 110.303 543.62 110.963 543.044C111.635 542.468 112.427 542.18 113.339 542.18C114.251 542.18 115.025 542.396 115.661 542.828C115.745 542.192 115.997 541.682 116.417 541.298C116.849 540.914 117.413 540.722 118.109 540.722L117.983 542.126C116.927 542.126 116.375 542.57 116.327 543.458C116.747 543.974 116.957 544.592 116.957 545.312C116.957 546.236 116.621 546.998 115.949 547.598C115.289 548.186 114.461 548.48 113.465 548.48C112.781 548.48 112.175 548.342 111.647 548.066C111.407 548.114 111.191 548.228 110.999 548.408C110.807 548.576 110.711 548.81 110.711 549.11C110.711 549.746 111.239 550.064 112.295 550.064H115.643C116.447 550.064 117.083 550.238 117.551 550.586C118.019 550.922 118.253 551.396 118.253 552.008C118.253 552.92 117.791 553.718 116.867 554.402C115.955 555.086 114.797 555.428 113.393 555.428C111.989 555.428 110.885 555.164 110.081 554.636C109.277 554.12 108.875 553.466 108.875 552.674C108.875 552.158 109.025 551.738 109.325 551.414C109.637 551.09 110.045 550.862 110.549 550.73ZM110.279 552.62C110.279 553.076 110.525 553.466 111.017 553.79C111.521 554.126 112.277 554.294 113.285 554.294C114.305 554.294 115.151 554.072 115.823 553.628C116.507 553.196 116.849 552.686 116.849 552.098C116.849 551.822 116.747 551.582 116.543 551.378C116.351 551.186 116.051 551.09 115.643 551.09H112.169C111.557 551.114 111.089 551.258 110.765 551.522C110.441 551.798 110.279 552.164 110.279 552.62ZM115.571 545.312C115.571 544.688 115.385 544.184 115.013 543.8C114.641 543.404 114.125 543.206 113.465 543.206C112.817 543.206 112.307 543.404 111.935 543.8C111.563 544.184 111.377 544.688 111.377 545.312C111.377 545.936 111.563 546.452 111.935 546.86C112.319 547.256 112.835 547.454 113.483 547.454C114.131 547.454 114.641 547.25 115.013 546.842C115.385 546.434 115.571 545.924 115.571 545.312ZM123.877 543.602C122.521 543.602 121.819 544.67 121.771 546.806V551H120.349V542.378H121.771V544.034C122.203 542.834 122.965 542.234 124.057 542.234C124.405 542.234 124.735 542.288 125.047 542.396L124.975 543.782C124.615 543.662 124.249 543.602 123.877 543.602ZM130.192 550.046C131.38 550.046 132.058 549.524 132.226 548.48H133.684C133.552 549.344 133.168 550.016 132.532 550.496C131.908 550.964 131.128 551.198 130.192 551.198C129.04 551.198 128.104 550.79 127.384 549.974C126.664 549.146 126.304 548.048 126.304 546.68C126.304 545.312 126.664 544.22 127.384 543.404C128.116 542.588 129.082 542.18 130.282 542.18C131.494 542.18 132.394 542.648 132.982 543.584C133.582 544.52 133.792 545.66 133.612 547.004H127.726C127.726 547.892 127.942 548.624 128.374 549.2C128.806 549.764 129.412 550.046 130.192 550.046ZM131.236 543.53C130.96 543.386 130.624 543.314 130.228 543.314C129.496 543.314 128.914 543.566 128.482 544.07C128.062 544.562 127.816 545.18 127.744 545.924H132.334C132.334 544.724 131.968 543.926 131.236 543.53ZM141.814 545.42C141.814 544.64 141.652 544.082 141.328 543.746C141.004 543.41 140.53 543.242 139.906 543.242C139.294 543.242 138.796 543.368 138.412 543.62C138.04 543.86 137.854 544.244 137.854 544.772H136.288C136.288 543.452 136.996 542.636 138.412 542.324C138.844 542.228 139.312 542.18 139.816 542.18C140.884 542.18 141.718 542.45 142.318 542.99C142.918 543.53 143.218 544.352 143.218 545.456V551H141.994L141.85 549.56C141.322 550.652 140.368 551.198 138.988 551.198C138.064 551.198 137.32 550.94 136.756 550.424C136.204 549.908 135.928 549.266 135.928 548.498C135.928 547.73 136.234 547.13 136.846 546.698C137.47 546.266 138.244 546.05 139.168 546.05C140.092 546.05 140.974 546.206 141.814 546.518V545.42ZM141.814 547.418C140.962 547.178 140.218 547.058 139.582 547.058C138.946 547.058 138.43 547.172 138.034 547.4C137.638 547.628 137.44 547.988 137.44 548.48C137.44 549.56 138.052 550.1 139.276 550.1C139.972 550.1 140.566 549.854 141.058 549.362C141.562 548.858 141.814 548.21 141.814 547.418ZM151.058 550.748C150.026 551.228 149.084 551.33 148.232 551.054C147.62 550.862 147.188 550.46 146.936 549.848C146.804 549.548 146.738 549.188 146.738 548.768V543.476H145.352V542.396H146.738V540.002H148.142V542.396H150.842V543.476H148.142V548.75C148.142 549.626 148.55 550.064 149.366 550.064C149.81 550.064 150.308 549.956 150.86 549.74L151.058 550.748ZM158.983 544.052C159.547 542.804 160.513 542.18 161.881 542.18C162.625 542.18 163.249 542.366 163.753 542.738C164.257 543.098 164.623 543.602 164.851 544.25C165.391 542.87 166.393 542.18 167.857 542.18C168.889 542.18 169.687 542.516 170.251 543.188C170.815 543.86 171.097 544.778 171.097 545.942V551H169.693V545.942C169.693 545.114 169.495 544.49 169.099 544.07C168.715 543.65 168.157 543.44 167.425 543.44C166.693 543.44 166.123 543.74 165.715 544.34C165.319 544.94 165.121 545.768 165.121 546.824V551H163.717V545.942C163.717 545.114 163.519 544.49 163.123 544.07C162.739 543.65 162.187 543.44 161.467 543.44C160.747 543.44 160.165 543.734 159.721 544.322C159.277 544.91 159.043 545.726 159.019 546.77V551H157.597V542.396H158.821L158.983 544.052ZM179.765 545.42C179.765 544.64 179.603 544.082 179.279 543.746C178.955 543.41 178.481 543.242 177.857 543.242C177.245 543.242 176.747 543.368 176.363 543.62C175.991 543.86 175.805 544.244 175.805 544.772H174.239C174.239 543.452 174.947 542.636 176.363 542.324C176.795 542.228 177.263 542.18 177.767 542.18C178.835 542.18 179.669 542.45 180.269 542.99C180.869 543.53 181.169 544.352 181.169 545.456V551H179.945L179.801 549.56C179.273 550.652 178.319 551.198 176.939 551.198C176.015 551.198 175.271 550.94 174.707 550.424C174.155 549.908 173.879 549.266 173.879 548.498C173.879 547.73 174.185 547.13 174.797 546.698C175.421 546.266 176.195 546.05 177.119 546.05C178.043 546.05 178.925 546.206 179.765 546.518V545.42ZM179.765 547.418C178.913 547.178 178.169 547.058 177.533 547.058C176.897 547.058 176.381 547.172 175.985 547.4C175.589 547.628 175.391 547.988 175.391 548.48C175.391 549.56 176.003 550.1 177.227 550.1C177.923 550.1 178.517 549.854 179.009 549.362C179.513 548.858 179.765 548.21 179.765 547.418ZM189.009 550.748C187.977 551.228 187.035 551.33 186.183 551.054C185.571 550.862 185.139 550.46 184.887 549.848C184.755 549.548 184.689 549.188 184.689 548.768V543.476H183.303V542.396H184.689V540.002H186.093V542.396H188.793V543.476H186.093V548.75C186.093 549.626 186.501 550.064 187.317 550.064C187.761 550.064 188.259 549.956 188.811 549.74L189.009 550.748ZM194.139 542.18C195.159 542.18 195.969 542.444 196.569 542.972C197.169 543.488 197.559 544.136 197.739 544.916L196.299 545.042C196.143 544.538 195.891 544.148 195.543 543.872C195.195 543.584 194.811 543.44 194.391 543.44C193.623 543.44 192.999 543.728 192.519 544.304C192.051 544.88 191.817 545.666 191.817 546.662C191.817 547.646 192.045 548.438 192.501 549.038C192.969 549.638 193.545 549.938 194.229 549.938C194.925 549.938 195.441 549.782 195.777 549.47C196.125 549.146 196.299 548.69 196.299 548.102H197.757C197.757 549.026 197.433 549.776 196.785 550.352C196.149 550.916 195.315 551.198 194.283 551.198C193.191 551.198 192.261 550.784 191.493 549.956C190.737 549.128 190.359 548.03 190.359 546.662C190.359 545.282 190.737 544.19 191.493 543.386C192.249 542.582 193.131 542.18 194.139 542.18ZM201.963 543.98C202.539 542.78 203.493 542.18 204.825 542.18C205.845 542.18 206.637 542.516 207.201 543.188C207.777 543.86 208.065 544.778 208.065 545.942V551H206.661V545.942C206.661 545.114 206.463 544.49 206.067 544.07C205.683 543.65 205.125 543.44 204.393 543.44C203.661 543.44 203.073 543.752 202.629 544.376C202.185 544.988 201.963 545.84 201.963 546.932V551H200.541V538.742H201.963V543.98ZM214.374 550.046C215.562 550.046 216.24 549.524 216.408 548.48H217.866C217.734 549.344 217.35 550.016 216.714 550.496C216.09 550.964 215.31 551.198 214.374 551.198C213.222 551.198 212.286 550.79 211.566 549.974C210.846 549.146 210.486 548.048 210.486 546.68C210.486 545.312 210.846 544.22 211.566 543.404C212.298 542.588 213.264 542.18 214.464 542.18C215.676 542.18 216.576 542.648 217.164 543.584C217.764 544.52 217.974 545.66 217.794 547.004H211.908C211.908 547.892 212.124 548.624 212.556 549.2C212.988 549.764 213.594 550.046 214.374 550.046ZM215.418 543.53C215.142 543.386 214.806 543.314 214.41 543.314C213.678 543.314 213.096 543.566 212.664 544.07C212.244 544.562 211.998 545.18 211.926 545.924H216.516C216.516 544.724 216.15 543.926 215.418 543.53ZM220.218 544.502C220.218 543.794 220.518 543.23 221.118 542.81C221.73 542.39 222.552 542.18 223.584 542.18C224.616 542.18 225.42 542.396 225.996 542.828C226.584 543.26 226.89 543.806 226.914 544.466H225.528C225.42 543.686 224.76 543.296 223.548 543.296C222.96 543.296 222.504 543.428 222.18 543.692C221.868 543.956 221.712 544.244 221.712 544.556C221.712 544.856 221.832 545.114 222.072 545.33C222.312 545.534 222.696 545.714 223.224 545.87L224.952 546.446C225.684 546.674 226.242 546.968 226.626 547.328C227.022 547.676 227.22 548.162 227.22 548.786C227.22 549.398 226.902 549.956 226.266 550.46C225.63 550.952 224.742 551.198 223.602 551.198C222.462 551.198 221.574 550.946 220.938 550.442C220.302 549.926 219.966 549.266 219.93 548.462H221.298C221.322 549.002 221.538 549.41 221.946 549.686C222.366 549.95 222.888 550.082 223.512 550.082C224.136 550.082 224.652 549.95 225.06 549.686C225.468 549.422 225.672 549.11 225.672 548.75C225.672 548.378 225.552 548.096 225.312 547.904C225.072 547.712 224.682 547.544 224.142 547.4L222.468 546.842C220.968 546.398 220.218 545.618 220.218 544.502ZM238.607 539.948C238.211 539.792 237.899 539.714 237.671 539.714C237.251 539.714 236.921 539.816 236.681 540.02C236.441 540.224 236.321 540.584 236.321 541.1V542.396H238.103V543.368H236.321V551H234.917V543.368H233.495V542.396H234.917V541.082C234.917 540.23 235.151 539.606 235.619 539.21C236.087 538.802 236.627 538.598 237.239 538.598C237.851 538.598 238.391 538.676 238.859 538.832L238.607 539.948ZM243.697 542.18C244.897 542.18 245.863 542.57 246.595 543.35C247.339 544.13 247.711 545.246 247.711 546.698C247.711 548.138 247.339 549.248 246.595 550.028C245.863 550.808 244.897 551.198 243.697 551.198C242.497 551.198 241.525 550.808 240.781 550.028C240.049 549.248 239.683 548.138 239.683 546.698C239.683 545.246 240.049 544.13 240.781 543.35C241.525 542.57 242.497 542.18 243.697 542.18ZM246.271 546.698C246.271 545.666 246.055 544.862 245.623 544.286C245.191 543.698 244.555 543.404 243.715 543.404C242.887 543.404 242.251 543.698 241.807 544.286C241.363 544.862 241.141 545.666 241.141 546.698C241.141 547.718 241.351 548.522 241.771 549.11C242.191 549.686 242.815 549.974 243.643 549.974C244.483 549.974 245.131 549.686 245.587 549.11C246.043 548.522 246.271 547.718 246.271 546.698ZM253.937 543.602C252.581 543.602 251.879 544.67 251.831 546.806V551H250.409V542.378H251.831V544.034C252.263 542.834 253.025 542.234 254.117 542.234C254.465 542.234 254.795 542.288 255.107 542.396L255.035 543.782C254.675 543.662 254.309 543.602 253.937 543.602ZM259.844 553.502C260.432 553.958 261.05 554.186 261.698 554.186C262.178 554.186 262.592 553.946 262.94 553.466C263.192 553.118 263.42 552.59 263.624 551.882L263.876 551L260.348 542.396H261.932L264.542 549.254L266.576 542.396H268.016L264.794 552.71C264.518 553.586 264.152 554.258 263.696 554.726C263.252 555.194 262.682 555.428 261.986 555.428C261.302 555.428 260.588 555.218 259.844 554.798V553.502ZM273.387 542.18C274.587 542.18 275.553 542.57 276.285 543.35C277.029 544.13 277.401 545.246 277.401 546.698C277.401 548.138 277.029 549.248 276.285 550.028C275.553 550.808 274.587 551.198 273.387 551.198C272.187 551.198 271.215 550.808 270.471 550.028C269.739 549.248 269.373 548.138 269.373 546.698C269.373 545.246 269.739 544.13 270.471 543.35C271.215 542.57 272.187 542.18 273.387 542.18ZM275.961 546.698C275.961 545.666 275.745 544.862 275.313 544.286C274.881 543.698 274.245 543.404 273.405 543.404C272.577 543.404 271.941 543.698 271.497 544.286C271.053 544.862 270.831 545.666 270.831 546.698C270.831 547.718 271.041 548.522 271.461 549.11C271.881 549.686 272.505 549.974 273.333 549.974C274.173 549.974 274.821 549.686 275.277 549.11C275.733 548.522 275.961 547.718 275.961 546.698ZM285.967 549.29C285.379 550.538 284.425 551.162 283.105 551.162C282.133 551.162 281.347 550.892 280.747 550.352C280.159 549.812 279.865 548.978 279.865 547.85V542.378H281.287V547.742C281.287 549.194 281.959 549.92 283.303 549.92C284.083 549.92 284.713 549.62 285.193 549.02C285.685 548.42 285.943 547.652 285.967 546.716V542.378H287.389V551H285.967V549.29ZM290.799 551.162C290.499 551.162 290.247 551.066 290.043 550.874C289.851 550.67 289.755 550.43 289.755 550.154C289.755 549.866 289.851 549.626 290.043 549.434C290.247 549.23 290.499 549.128 290.799 549.128C291.111 549.128 291.369 549.23 291.573 549.434C291.777 549.626 291.879 549.866 291.879 550.154C291.879 550.43 291.777 550.67 291.573 550.874C291.369 551.066 291.111 551.162 290.799 551.162Z" fill="black"/>
<rect x="0.5" y="0.5" width="413" height="770" stroke="black"/>
<defs>
<clipPath id="clip0">
<rect width="374" height="188" fill="white" transform="translate(20 194)"/>
</clipPath>
</defs>
</svg>
