<svg width="414" height="771" viewBox="0 0 414 771" fill="none" xmlns="http://www.w3.org/2000/svg">
<rect x="0.5" y="0.5" width="413" height="770" fill="#181826"/>
<circle cx="207" cy="723" r="8" fill="#C4C4C4"/>
<circle cx="234" cy="723" r="8" fill="#DFBC60"/>
<circle cx="180" cy="723" r="8" fill="#C4C4C4"/>
<g clip-path="url(#clip0)">
<path d="M265.48 256.239L140.119 181L121.042 211.587C126.194 214.87 129.837 219.996 131.195 225.873C132.552 231.751 131.518 237.916 128.312 243.057C125.105 248.198 119.98 251.908 114.027 253.398C108.074 254.888 101.764 254.04 96.4386 251.035L90.248 260.961H143.09V323.73L271.837 401L298.783 357.796H265.48V256.239Z" fill="#F2F2F2"/>
<path d="M203.816 349.28C216.354 349.28 226.519 347.739 226.519 345.837C226.519 343.936 216.354 342.395 203.816 342.395C191.277 342.395 181.112 343.936 181.112 345.837C181.112 347.739 191.277 349.28 203.816 349.28Z" fill="#6C63FF"/>
<path d="M204.55 315.348L227.425 289.677C229.099 287.999 230.419 286.014 231.31 283.835C232.201 281.657 232.647 279.327 232.62 276.98C232.594 274.632 232.097 272.313 231.156 270.154C230.216 267.995 228.852 266.039 227.141 264.397C225.43 262.756 223.407 261.461 221.186 260.586C218.965 259.712 216.59 259.275 214.197 259.301C211.804 259.327 209.44 259.815 207.239 260.737C205.038 261.659 203.044 262.998 201.371 264.676C199.66 263.034 197.637 261.739 195.416 260.865C193.195 259.991 190.82 259.554 188.427 259.58C186.034 259.606 183.67 260.093 181.469 261.016C179.268 261.938 177.274 263.276 175.601 264.955C173.927 266.633 172.607 268.618 171.716 270.796C170.824 272.975 170.379 275.305 170.405 277.652C170.432 280 170.929 282.319 171.869 284.478C172.809 286.637 174.174 288.593 175.885 290.234L201.334 315.348" fill="#6C63FF"/>
<path d="M143.806 260.61H20.3584V370.414H143.806V260.61Z" stroke="white" stroke-width="2" stroke-miterlimit="10"/>
<path d="M389.643 247.641H266.195V357.445H389.643V247.641Z" stroke="white" stroke-width="2" stroke-miterlimit="10"/>
<path d="M109.144 246.645C117.63 246.645 124.509 239.897 124.509 231.573C124.509 223.249 117.63 216.5 109.144 216.5C100.658 216.5 93.7793 223.249 93.7793 231.573C93.7793 239.897 100.658 246.645 109.144 246.645Z" fill="#6C63FF"/>
<path d="M145.591 313.595C145.591 313.595 164.886 306.935 173.105 316.049C181.323 325.162 204.192 310.791 204.192 310.791" stroke="#3F3D56" stroke-width="2" stroke-miterlimit="10"/>
<path d="M302.456 316.049C302.456 316.049 298.883 307.636 274.585 315.348C250.287 323.059 215.984 322.709 207.409 310.791L230.284 285.121C231.957 283.442 233.277 281.457 234.168 279.279C235.06 277.1 235.505 274.771 235.479 272.423C235.452 270.076 234.955 267.756 234.015 265.597C233.075 263.439 231.71 261.482 230 259.841C228.289 258.199 226.265 256.904 224.044 256.03C221.823 255.155 219.449 254.719 217.056 254.744C214.663 254.77 212.298 255.258 210.098 256.181C207.897 257.103 205.903 258.441 204.229 260.119C200.774 256.804 196.118 254.971 191.285 255.023C186.453 255.075 181.839 257.009 178.459 260.398C175.079 263.787 173.211 268.355 173.264 273.095C173.317 277.836 175.288 282.362 178.743 285.678L204.193 310.791" stroke="#3F3D56" stroke-width="2" stroke-miterlimit="10"/>
<path d="M206.714 346.419C219.253 346.419 229.417 344.877 229.417 342.976C229.417 341.075 219.253 339.533 206.714 339.533C194.175 339.533 184.011 341.075 184.011 342.976C184.011 344.877 194.175 346.419 206.714 346.419Z" stroke="#3F3D56" stroke-width="2" stroke-miterlimit="10"/>
<path d="M204.299 369.905C214.169 369.905 222.171 368.691 222.171 367.194C222.171 365.698 214.169 364.484 204.299 364.484C194.428 364.484 186.426 365.698 186.426 367.194C186.426 368.691 194.428 369.905 204.299 369.905Z" fill="#6C63FF"/>
<path d="M204.299 389.658C210.968 389.658 216.375 388.838 216.375 387.827C216.375 386.815 210.968 385.996 204.299 385.996C197.629 385.996 192.223 386.815 192.223 387.827C192.223 388.838 197.629 389.658 204.299 389.658Z" fill="#6C63FF"/>
<path d="M206.714 367.49C216.584 367.49 224.586 366.277 224.586 364.78C224.586 363.283 216.584 362.07 206.714 362.07C196.843 362.07 188.841 363.283 188.841 364.78C188.841 366.277 196.843 367.49 206.714 367.49Z" stroke="#3F3D56" stroke-width="2" stroke-miterlimit="10"/>
<path d="M206.714 387.841C213.383 387.841 218.79 387.021 218.79 386.01C218.79 384.998 213.383 384.178 206.714 384.178C200.044 384.178 194.638 384.998 194.638 386.01C194.638 387.021 200.044 387.841 206.714 387.841Z" stroke="#3F3D56" stroke-width="2" stroke-miterlimit="10"/>
<path d="M92.3935 317.961C98.9556 317.961 104.275 312.743 104.275 306.306C104.275 299.869 98.9556 294.65 92.3935 294.65C85.8314 294.65 80.5117 299.869 80.5117 306.306C80.5117 312.743 85.8314 317.961 92.3935 317.961Z" fill="#2F2E41"/>
<path d="M86.7216 312.194C86.7216 312.194 82.8515 320.601 81.7457 320.872C80.64 321.143 90.8681 326.024 90.8681 326.024C90.8681 326.024 92.8031 315.72 93.6325 315.177C94.4618 314.635 86.7216 312.194 86.7216 312.194Z" fill="#9F616A"/>
<path d="M92.5264 318.431C96.9538 318.431 100.543 314.91 100.543 310.567C100.543 306.224 96.9538 302.703 92.5264 302.703C88.0989 302.703 84.5098 306.224 84.5098 310.567C84.5098 314.91 88.0989 318.431 92.5264 318.431Z" fill="#9F616A"/>
<path d="M99.2399 370.414H65.1514C66.2912 366.352 67.5097 362.324 68.1958 360.088C68.5424 358.966 68.7532 358.293 68.7532 358.293C68.7532 358.293 94.4625 363.716 95.0128 363.989C95.3223 364.313 95.5965 364.668 95.8311 365.048C96.635 366.205 97.9178 368.192 99.2399 370.414Z" fill="#2F2E41"/>
<path d="M56.8665 293.754L48.5734 281.28C48.5734 281.28 50.6242 268.195 47.8599 270.635C45.0955 273.076 44.2207 282.932 44.2207 282.932L53.8257 297.28L56.8665 293.754Z" fill="#9F616A"/>
<path d="M132.056 316.533L139.52 315.991C139.52 315.991 148.366 306.771 148.918 309.754C149.471 312.737 141.731 319.245 141.731 319.245L131.503 320.33L132.056 316.533Z" fill="#9F616A"/>
<path d="M77.5989 319.245V316.533C77.5989 316.533 70.4116 311.923 70.688 311.11C70.9645 310.296 70.1352 309.754 70.1352 309.754C70.1352 309.754 69.3059 308.669 69.3059 308.398C69.3059 308.127 68.2001 307.855 68.2001 307.855L61.2892 299.991C61.2892 299.991 57.4191 292.399 56.5898 292.67C55.7605 292.941 51.3376 294.568 51.8904 295.653C52.4433 296.737 67.9237 320.058 67.9237 320.058C67.9237 320.058 68.753 325.211 70.1352 325.211C71.5174 325.211 77.5989 319.245 77.5989 319.245Z" fill="#3F3D56"/>
<path d="M96.1204 322.499C96.1204 322.499 102.202 322.228 102.478 322.499C102.755 322.77 106.625 322.499 106.625 322.499C106.625 322.499 117.129 320.058 117.959 319.245C118.788 318.431 132.61 314.906 133.163 316.533C133.716 318.16 135.098 321.414 133.716 321.956C132.333 322.499 95.0146 331.719 95.0146 331.719L96.1204 322.499Z" fill="#3F3D56"/>
<path d="M88.2359 298.861C90.9513 298.861 93.1525 296.702 93.1525 294.038C93.1525 291.375 90.9513 289.215 88.2359 289.215C85.5206 289.215 83.3193 291.375 83.3193 294.038C83.3193 296.702 85.5206 298.861 88.2359 298.861Z" fill="#2F2E41"/>
<path d="M81.6815 291.426C81.6816 290.234 82.1317 289.084 82.945 288.198C83.7584 287.312 84.8773 286.753 86.086 286.629C85.9158 286.612 85.7449 286.603 85.5738 286.603C84.2699 286.603 83.0193 287.111 82.0973 288.015C81.1752 288.92 80.6572 290.147 80.6572 291.426C80.6572 292.705 81.1752 293.932 82.0973 294.836C83.0193 295.741 84.2699 296.249 85.5738 296.249C85.7449 296.249 85.9158 296.24 86.086 296.223C84.8773 296.098 83.7584 295.539 82.945 294.654C82.1317 293.768 81.6816 292.618 81.6815 291.426Z" fill="#2F2E41"/>
<path d="M93.7754 308.657C98.301 308.657 101.97 306.498 101.97 303.834C101.97 301.171 98.301 299.011 93.7754 299.011C89.2498 299.011 85.5811 301.171 85.5811 303.834C85.5811 306.498 89.2498 308.657 93.7754 308.657Z" fill="#2F2E41"/>
<path d="M84.3717 316.397C84.3717 316.397 81.8838 318.296 81.3309 318.567C80.7781 318.838 77.4608 316.126 76.908 316.126C76.3551 316.126 69.1678 324.261 69.1678 324.261C69.1678 324.261 70.5035 325.771 69.1678 333.481C68.6668 336.373 67.673 348.736 67.673 350.363C67.673 351.99 62.2569 355.989 67.2327 359.514C72.2086 363.039 95.982 366.836 96.2585 364.666C96.5349 362.497 93.4941 356.802 94.8763 354.091C96.2584 351.379 96.2585 341.345 96.2585 341.345L97.9171 330.77L99.2992 322.363C99.2992 322.363 92.803 320.601 92.2501 320.601C91.6973 320.601 89.2093 324.397 84.3717 316.397Z" fill="#3F3D56"/>
<path d="M333.474 290.497L327.817 290.713L328.099 297.847L333.756 297.632L333.474 290.497Z" fill="#6C63FF"/>
<path d="M307.957 315.484C307.957 315.484 300.123 311.812 300.249 314.983C300.374 318.154 308.145 320.24 308.145 320.24L307.957 315.484Z" fill="#FFB9B9"/>
<path d="M344.384 357.445H307.227C308.002 353.877 309.478 349.572 310.632 346.47C311.547 344.017 312.254 342.313 312.254 342.313C316.474 337.644 322.599 337.525 328.344 338.678C329.03 338.815 329.713 338.969 330.385 339.141C330.463 339.158 330.542 339.179 330.62 339.2C331.964 339.54 333.268 339.933 334.501 340.326C336.627 341.006 338.546 341.693 340.097 342.159C340.876 342.412 341.678 342.596 342.491 342.709C342.669 342.728 342.848 342.735 343.027 342.73C343.641 342.706 344.066 343.354 344.342 344.486C344.963 347.042 344.82 352.075 344.384 357.445Z" fill="#2F2E41"/>
<path d="M337.054 283.812C337.054 283.812 341.361 290.396 343.04 291.92C344.719 293.444 339.996 296.799 339.996 296.799L331.542 297.915C331.542 297.915 331.648 290.368 331.213 289.591C330.778 288.814 337.054 283.812 337.054 283.812Z" fill="#FFB9B9"/>
<path d="M329.706 292.427C329.706 292.427 331.448 295.537 333.064 295.475C334.68 295.414 343.04 291.92 343.397 290.716C343.754 289.511 346.166 299.343 346.166 299.343L325.71 334.656L320.721 331.274L323.138 310.54L325.124 299.35L329.706 292.427Z" fill="#6C63FF"/>
<path d="M344.151 324.031C343.307 325.641 342.876 327.429 342.896 329.239C342.9 329.318 342.903 329.398 342.91 329.477C343.103 333.145 344.481 337.388 344.975 340.473C345.334 342.686 345.232 344.302 343.912 344.682C340.711 345.597 344.378 346.252 331.994 350.295C319.609 354.339 317.448 350.849 317.417 350.056C317.385 349.263 319.171 343.241 318.751 342.86C318.331 342.479 312.878 347.847 311.231 347.116C309.583 346.384 311.043 342.359 311.043 342.359C311.043 342.359 314.754 333.882 314.676 331.9C314.597 329.919 320.298 320.572 320.298 320.572L324.175 295.813C324.175 295.813 325.666 292.581 327.67 292.108C328.933 291.85 330.249 292.085 331.338 292.762L327.984 300.035L324.445 312.872L325.037 317.613C325.037 317.613 329.152 309.12 331.855 305.842C334.558 302.563 340.321 294.802 340.321 294.802C340.321 294.802 341.667 290.349 340.651 289.018C339.635 287.683 344.888 287.483 347.127 292.955C348.314 295.856 350.242 300.18 351.449 304.207C352.525 307.775 353.033 311.11 351.967 313.016C350.338 315.928 346.24 319.756 344.151 324.031Z" fill="#575A89"/>
<path opacity="0.1" d="M351.968 313.016C350.339 315.928 346.241 319.756 344.152 324.031C343.606 322.103 342.941 320.107 342.941 320.107C342.941 320.107 340.388 306.708 347.939 303.245C349.191 303.127 350.442 303.47 351.449 304.207C352.525 307.775 353.033 311.11 351.968 313.016Z" fill="black"/>
<path d="M321.989 312.171L315.587 314.003L306.698 314.341L305.783 321.918L320.392 322.95C320.392 322.95 324.04 312.887 321.989 312.171Z" fill="#575A89"/>
<path d="M332.428 337.647C332.428 337.647 323.864 339.041 325.818 341.57C327.773 344.098 335.361 341.44 335.361 341.44L332.428 337.647Z" fill="#FFB9B9"/>
<path opacity="0.1" d="M342.91 329.477C343.103 333.145 344.481 337.388 344.975 340.473C342.247 343.006 339.652 345.241 338.674 345.278C336.654 345.355 333.406 345.081 332.21 345.524C331.013 345.966 330.312 338.451 330.312 338.451C330.312 338.451 331.026 336.042 334.211 334.73C336.361 333.842 340.482 331.435 342.91 329.477Z" fill="black"/>
<path d="M347.845 300.867C347.845 300.867 354.682 299.813 354.313 310.942C353.944 322.071 355.034 329.174 352.284 331.264C349.534 333.353 340.601 342.823 338.581 342.9C336.561 342.976 333.312 342.703 332.116 343.146C330.92 343.588 330.218 336.073 330.218 336.073C330.218 336.073 330.932 333.664 334.117 332.352C337.303 331.04 344.807 326.388 344.744 324.802C344.682 323.217 342.846 317.729 342.846 317.729C342.846 317.729 340.293 304.33 347.845 300.867Z" fill="#575A89"/>
<path d="M331.025 293.561C335.938 293.561 339.92 289.654 339.92 284.835C339.92 280.015 335.938 276.108 331.025 276.108C326.112 276.108 322.129 280.015 322.129 284.835C322.129 289.654 326.112 293.561 331.025 293.561Z" fill="#FFB9B9"/>
<path d="M325.035 272.328C324.82 272.509 324.563 272.635 324.287 272.696C324.148 272.72 324.005 272.689 323.889 272.611C323.773 272.532 323.694 272.411 323.668 272.275C323.508 272.711 323.211 273.085 322.82 273.343C322.404 273.556 321.762 273.378 321.702 272.922C321.641 273.268 321.485 273.591 321.25 273.856C321.128 273.983 320.96 274.058 320.782 274.064C320.604 274.069 320.43 274.006 320.3 273.888C320.482 274.863 320.369 275.866 320.427 276.857C320.484 277.847 320.753 278.896 321.516 279.548C322.628 280.497 324.3 280.263 325.763 280.083C325.984 280.037 326.214 280.05 326.429 280.119C326.977 280.348 326.952 281.096 326.959 281.68C327.004 282.704 327.417 283.68 328.126 284.435C328.835 285.189 329.793 285.672 330.831 285.798C331.412 285.886 332.004 285.745 332.478 285.404C332.893 285.059 333.106 284.496 333.582 284.236C334.356 283.814 335.295 284.43 335.861 285.098C336.427 285.766 336.985 286.588 337.862 286.711C339.022 286.873 339.905 285.713 340.338 284.646C340.936 283.149 341.223 281.551 341.181 279.944C341.139 278.337 340.77 276.755 340.094 275.291C337.673 270.112 329.4 269.293 325.035 272.328Z" fill="#2F2E41"/>
</g>
<path d="M72.818 476.678H79.694V477.902H74.24V481.664H79.316V482.888H74.24V488H72.818V476.678ZM82.3475 479.378H83.7695V488H82.3475V479.378ZM83.0495 477.362C82.7615 477.362 82.5335 477.284 82.3655 477.128C82.2095 476.96 82.1315 476.744 82.1315 476.48C82.1315 476.204 82.2095 475.988 82.3655 475.832C82.5335 475.664 82.7615 475.58 83.0495 475.58C83.3375 475.58 83.5655 475.664 83.7335 475.832C83.9135 475.988 84.0035 476.204 84.0035 476.48C84.0035 476.744 83.9135 476.96 83.7335 477.128C83.5655 477.284 83.3375 477.362 83.0495 477.362ZM89.0044 481.052C89.5684 479.804 90.5344 479.18 91.9024 479.18C92.9224 479.18 93.7144 479.516 94.2784 480.188C94.8544 480.86 95.1424 481.778 95.1424 482.942V488H93.7384V482.942C93.7384 482.114 93.5404 481.49 93.1444 481.07C92.7604 480.65 92.2084 480.44 91.4884 480.44C90.7684 480.44 90.1864 480.734 89.7424 481.322C89.2984 481.91 89.0644 482.726 89.0404 483.77V488H87.6184V479.396H88.8424L89.0044 481.052ZM103.81 482.42C103.81 481.64 103.648 481.082 103.324 480.746C103 480.41 102.526 480.242 101.902 480.242C101.29 480.242 100.792 480.368 100.408 480.62C100.036 480.86 99.8501 481.244 99.8501 481.772H98.2841C98.2841 480.452 98.9921 479.636 100.408 479.324C100.84 479.228 101.308 479.18 101.812 479.18C102.88 479.18 103.714 479.45 104.314 479.99C104.914 480.53 105.214 481.352 105.214 482.456V488H103.99L103.846 486.56C103.318 487.652 102.364 488.198 100.984 488.198C100.06 488.198 99.3161 487.94 98.7521 487.424C98.2001 486.908 97.9241 486.266 97.9241 485.498C97.9241 484.73 98.2301 484.13 98.8421 483.698C99.4661 483.266 100.24 483.05 101.164 483.05C102.088 483.05 102.97 483.206 103.81 483.518V482.42ZM103.81 484.418C102.958 484.178 102.214 484.058 101.578 484.058C100.942 484.058 100.426 484.172 100.03 484.4C99.6341 484.628 99.4361 484.988 99.4361 485.48C99.4361 486.56 100.048 487.1 101.272 487.1C101.968 487.1 102.562 486.854 103.054 486.362C103.558 485.858 103.81 485.21 103.81 484.418ZM108.554 475.742H109.976V488H108.554V475.742ZM113.599 475.742H115.021V488H113.599V475.742ZM116.916 490.502C117.504 490.958 118.122 491.186 118.77 491.186C119.25 491.186 119.664 490.946 120.012 490.466C120.264 490.118 120.492 489.59 120.696 488.882L120.948 488L117.42 479.396H119.004L121.614 486.254L123.648 479.396H125.088L121.866 489.71C121.59 490.586 121.224 491.258 120.768 491.726C120.324 492.194 119.754 492.428 119.058 492.428C118.374 492.428 117.66 492.218 116.916 491.798V490.502ZM131.634 479.396L133.722 486.254L135.774 479.81H136.962L138.996 486.326L141.102 479.396H142.506L139.698 488H138.312L136.332 481.97L134.388 488H133.02L130.158 479.396H131.634ZM146.117 480.98C146.693 479.78 147.647 479.18 148.979 479.18C149.999 479.18 150.791 479.516 151.355 480.188C151.931 480.86 152.219 481.778 152.219 482.942V488H150.815V482.942C150.815 482.114 150.617 481.49 150.221 481.07C149.837 480.65 149.279 480.44 148.547 480.44C147.815 480.44 147.227 480.752 146.783 481.376C146.339 481.988 146.117 482.84 146.117 483.932V488H144.695V475.742H146.117V480.98ZM160.886 482.42C160.886 481.64 160.724 481.082 160.4 480.746C160.076 480.41 159.602 480.242 158.978 480.242C158.366 480.242 157.868 480.368 157.484 480.62C157.112 480.86 156.926 481.244 156.926 481.772H155.36C155.36 480.452 156.068 479.636 157.484 479.324C157.916 479.228 158.384 479.18 158.888 479.18C159.956 479.18 160.79 479.45 161.39 479.99C161.99 480.53 162.29 481.352 162.29 482.456V488H161.066L160.922 486.56C160.394 487.652 159.44 488.198 158.06 488.198C157.136 488.198 156.392 487.94 155.828 487.424C155.276 486.908 155 486.266 155 485.498C155 484.73 155.306 484.13 155.918 483.698C156.542 483.266 157.316 483.05 158.24 483.05C159.164 483.05 160.046 483.206 160.886 483.518V482.42ZM160.886 484.418C160.034 484.178 159.29 484.058 158.654 484.058C158.018 484.058 157.502 484.172 157.106 484.4C156.71 484.628 156.512 484.988 156.512 485.48C156.512 486.56 157.124 487.1 158.348 487.1C159.044 487.1 159.638 486.854 160.13 486.362C160.634 485.858 160.886 485.21 160.886 484.418ZM170.131 487.748C169.099 488.228 168.157 488.33 167.305 488.054C166.693 487.862 166.261 487.46 166.009 486.848C165.877 486.548 165.811 486.188 165.811 485.768V480.476H164.425V479.396H165.811V477.002H167.215V479.396H169.915V480.476H167.215V485.75C167.215 486.626 167.623 487.064 168.438 487.064C168.882 487.064 169.381 486.956 169.933 486.74L170.131 487.748ZM178.109 480.674C178.685 479.678 179.525 479.18 180.629 479.18C181.733 479.18 182.651 479.594 183.383 480.422C184.115 481.238 184.481 482.324 184.481 483.68C184.481 485.024 184.109 486.116 183.365 486.956C182.621 487.784 181.715 488.198 180.647 488.198C180.071 488.198 179.549 488.054 179.081 487.766C178.625 487.478 178.265 487.052 178.001 486.488L177.677 488H176.687V475.742H178.109V480.674ZM180.539 480.44C179.855 480.44 179.285 480.662 178.829 481.106C178.373 481.538 178.133 482.144 178.109 482.924V484.328C178.109 485.12 178.343 485.756 178.811 486.236C179.291 486.704 179.867 486.938 180.539 486.938C181.211 486.938 181.793 486.644 182.285 486.056C182.777 485.456 183.023 484.664 183.023 483.68C183.023 482.696 182.777 481.91 182.285 481.322C181.805 480.734 181.223 480.44 180.539 480.44ZM190.709 480.602C189.353 480.602 188.651 481.67 188.603 483.806V488H187.181V479.378H188.603V481.034C189.035 479.834 189.797 479.234 190.889 479.234C191.237 479.234 191.567 479.288 191.879 479.396L191.807 480.782C191.447 480.662 191.081 480.602 190.709 480.602ZM197.15 479.18C198.35 479.18 199.316 479.57 200.048 480.35C200.792 481.13 201.164 482.246 201.164 483.698C201.164 485.138 200.792 486.248 200.048 487.028C199.316 487.808 198.35 488.198 197.15 488.198C195.95 488.198 194.978 487.808 194.234 487.028C193.502 486.248 193.136 485.138 193.136 483.698C193.136 482.246 193.502 481.13 194.234 480.35C194.978 479.57 195.95 479.18 197.15 479.18ZM199.724 483.698C199.724 482.666 199.508 481.862 199.076 481.286C198.644 480.698 198.008 480.404 197.168 480.404C196.34 480.404 195.704 480.698 195.26 481.286C194.816 481.862 194.594 482.666 194.594 483.698C194.594 484.718 194.804 485.522 195.224 486.11C195.644 486.686 196.268 486.974 197.096 486.974C197.936 486.974 198.584 486.686 199.04 486.11C199.496 485.522 199.724 484.718 199.724 483.698ZM209.731 486.29C209.143 487.538 208.189 488.162 206.869 488.162C205.897 488.162 205.111 487.892 204.511 487.352C203.923 486.812 203.629 485.978 203.629 484.85V479.378H205.051V484.742C205.051 486.194 205.723 486.92 207.067 486.92C207.847 486.92 208.477 486.62 208.957 486.02C209.449 485.42 209.707 484.652 209.731 483.716V479.378H211.152V488H209.731V486.29ZM215.157 487.73C214.437 487.382 214.077 486.848 214.077 486.128C214.077 485.756 214.215 485.432 214.491 485.156C214.779 484.868 215.133 484.676 215.553 484.58C214.905 484.004 214.581 483.248 214.581 482.312C214.581 481.376 214.911 480.62 215.571 480.044C216.243 479.468 217.035 479.18 217.947 479.18C218.859 479.18 219.633 479.396 220.269 479.828C220.353 479.192 220.605 478.682 221.025 478.298C221.457 477.914 222.021 477.722 222.717 477.722L222.591 479.126C221.535 479.126 220.983 479.57 220.935 480.458C221.355 480.974 221.565 481.592 221.565 482.312C221.565 483.236 221.229 483.998 220.557 484.598C219.897 485.186 219.069 485.48 218.073 485.48C217.389 485.48 216.783 485.342 216.255 485.066C216.015 485.114 215.799 485.228 215.607 485.408C215.415 485.576 215.319 485.81 215.319 486.11C215.319 486.746 215.847 487.064 216.903 487.064H220.251C221.055 487.064 221.691 487.238 222.159 487.586C222.627 487.922 222.861 488.396 222.861 489.008C222.861 489.92 222.399 490.718 221.475 491.402C220.563 492.086 219.405 492.428 218.001 492.428C216.597 492.428 215.493 492.164 214.689 491.636C213.885 491.12 213.483 490.466 213.483 489.674C213.483 489.158 213.633 488.738 213.933 488.414C214.245 488.09 214.653 487.862 215.157 487.73ZM214.887 489.62C214.887 490.076 215.133 490.466 215.625 490.79C216.129 491.126 216.885 491.294 217.893 491.294C218.913 491.294 219.759 491.072 220.431 490.628C221.115 490.196 221.457 489.686 221.457 489.098C221.457 488.822 221.355 488.582 221.151 488.378C220.959 488.186 220.659 488.09 220.251 488.09H216.777C216.165 488.114 215.697 488.258 215.373 488.522C215.049 488.798 214.887 489.164 214.887 489.62ZM220.179 482.312C220.179 481.688 219.993 481.184 219.621 480.8C219.249 480.404 218.733 480.206 218.073 480.206C217.425 480.206 216.915 480.404 216.543 480.8C216.171 481.184 215.985 481.688 215.985 482.312C215.985 482.936 216.171 483.452 216.543 483.86C216.927 484.256 217.443 484.454 218.091 484.454C218.739 484.454 219.249 484.25 219.621 483.842C219.993 483.434 220.179 482.924 220.179 482.312ZM226.396 480.98C226.972 479.78 227.926 479.18 229.258 479.18C230.278 479.18 231.07 479.516 231.634 480.188C232.21 480.86 232.498 481.778 232.498 482.942V488H231.094V482.942C231.094 482.114 230.896 481.49 230.5 481.07C230.116 480.65 229.558 480.44 228.826 480.44C228.094 480.44 227.506 480.752 227.062 481.376C226.618 481.988 226.396 482.84 226.396 483.932V488H224.974V475.742H226.396V480.98ZM240.338 487.748C239.306 488.228 238.364 488.33 237.512 488.054C236.9 487.862 236.468 487.46 236.216 486.848C236.084 486.548 236.018 486.188 236.018 485.768V480.476H234.632V479.396H236.018V477.002H237.422V479.396H240.122V480.476H237.422V485.75C237.422 486.626 237.83 487.064 238.646 487.064C239.09 487.064 239.588 486.956 240.14 486.74L240.338 487.748ZM245.166 490.502C245.754 490.958 246.372 491.186 247.02 491.186C247.5 491.186 247.914 490.946 248.262 490.466C248.514 490.118 248.742 489.59 248.946 488.882L249.198 488L245.67 479.396H247.254L249.864 486.254L251.898 479.396H253.338L250.116 489.71C249.84 490.586 249.474 491.258 249.018 491.726C248.574 492.194 248.004 492.428 247.308 492.428C246.624 492.428 245.91 492.218 245.166 491.798V490.502ZM258.709 479.18C259.909 479.18 260.875 479.57 261.607 480.35C262.351 481.13 262.723 482.246 262.723 483.698C262.723 485.138 262.351 486.248 261.607 487.028C260.875 487.808 259.909 488.198 258.709 488.198C257.509 488.198 256.537 487.808 255.793 487.028C255.061 486.248 254.695 485.138 254.695 483.698C254.695 482.246 255.061 481.13 255.793 480.35C256.537 479.57 257.509 479.18 258.709 479.18ZM261.283 483.698C261.283 482.666 261.067 481.862 260.635 481.286C260.203 480.698 259.567 480.404 258.727 480.404C257.899 480.404 257.263 480.698 256.819 481.286C256.375 481.862 256.153 482.666 256.153 483.698C256.153 484.718 256.363 485.522 256.783 486.11C257.203 486.686 257.827 486.974 258.655 486.974C259.495 486.974 260.143 486.686 260.599 486.11C261.055 485.522 261.283 484.718 261.283 483.698ZM271.289 486.29C270.701 487.538 269.747 488.162 268.427 488.162C267.455 488.162 266.669 487.892 266.069 487.352C265.481 486.812 265.187 485.978 265.187 484.85V479.378H266.609V484.742C266.609 486.194 267.281 486.92 268.625 486.92C269.405 486.92 270.035 486.62 270.515 486.02C271.007 485.42 271.265 484.652 271.289 483.716V479.378H272.711V488H271.289V486.29ZM285.144 487.748C284.112 488.228 283.17 488.33 282.318 488.054C281.706 487.862 281.274 487.46 281.022 486.848C280.89 486.548 280.824 486.188 280.824 485.768V480.476H279.438V479.396H280.824V477.002H282.228V479.396H284.928V480.476H282.228V485.75C282.228 486.626 282.636 487.064 283.452 487.064C283.896 487.064 284.394 486.956 284.946 486.74L285.144 487.748ZM290.508 479.18C291.708 479.18 292.674 479.57 293.406 480.35C294.15 481.13 294.522 482.246 294.522 483.698C294.522 485.138 294.15 486.248 293.406 487.028C292.674 487.808 291.708 488.198 290.508 488.198C289.308 488.198 288.336 487.808 287.592 487.028C286.86 486.248 286.494 485.138 286.494 483.698C286.494 482.246 286.86 481.13 287.592 480.35C288.336 479.57 289.308 479.18 290.508 479.18ZM293.082 483.698C293.082 482.666 292.866 481.862 292.434 481.286C292.002 480.698 291.366 480.404 290.526 480.404C289.698 480.404 289.062 480.698 288.618 481.286C288.174 481.862 287.952 482.666 287.952 483.698C287.952 484.718 288.162 485.522 288.582 486.11C289.002 486.686 289.626 486.974 290.454 486.974C291.294 486.974 291.942 486.686 292.398 486.11C292.854 485.522 293.082 484.718 293.082 483.698ZM304.623 479.18C305.823 479.18 306.789 479.57 307.521 480.35C308.265 481.13 308.637 482.246 308.637 483.698C308.637 485.138 308.265 486.248 307.521 487.028C306.789 487.808 305.823 488.198 304.623 488.198C303.423 488.198 302.451 487.808 301.707 487.028C300.975 486.248 300.609 485.138 300.609 483.698C300.609 482.246 300.975 481.13 301.707 480.35C302.451 479.57 303.423 479.18 304.623 479.18ZM307.197 483.698C307.197 482.666 306.981 481.862 306.549 481.286C306.117 480.698 305.481 480.404 304.641 480.404C303.813 480.404 303.177 480.698 302.733 481.286C302.289 481.862 302.067 482.666 302.067 483.698C302.067 484.718 302.277 485.522 302.697 486.11C303.117 486.686 303.741 486.974 304.569 486.974C305.409 486.974 306.057 486.686 306.513 486.11C306.969 485.522 307.197 484.718 307.197 483.698ZM317.203 486.29C316.615 487.538 315.661 488.162 314.341 488.162C313.369 488.162 312.583 487.892 311.983 487.352C311.395 486.812 311.101 485.978 311.101 484.85V479.378H312.523V484.742C312.523 486.194 313.195 486.92 314.539 486.92C315.319 486.92 315.949 486.62 316.429 486.02C316.921 485.42 317.179 484.652 317.203 483.716V479.378H318.625V488H317.203V486.29ZM325.779 480.602C324.423 480.602 323.721 481.67 323.673 483.806V488H322.251V479.378H323.673V481.034C324.105 479.834 324.867 479.234 325.959 479.234C326.307 479.234 326.637 479.288 326.949 479.396L326.877 480.782C326.517 480.662 326.151 480.602 325.779 480.602ZM74.186 502.052C74.75 500.804 75.716 500.18 77.084 500.18C77.828 500.18 78.452 500.366 78.956 500.738C79.46 501.098 79.826 501.602 80.054 502.25C80.594 500.87 81.596 500.18 83.06 500.18C84.092 500.18 84.89 500.516 85.454 501.188C86.018 501.86 86.3 502.778 86.3 503.942V509H84.896V503.942C84.896 503.114 84.698 502.49 84.302 502.07C83.918 501.65 83.36 501.44 82.628 501.44C81.896 501.44 81.326 501.74 80.918 502.34C80.522 502.94 80.324 503.768 80.324 504.824V509H78.92V503.942C78.92 503.114 78.722 502.49 78.326 502.07C77.942 501.65 77.39 501.44 76.67 501.44C75.95 501.44 75.368 501.734 74.924 502.322C74.48 502.91 74.246 503.726 74.222 504.77V509H72.8V500.396H74.024L74.186 502.052ZM92.7363 500.18C93.9363 500.18 94.9023 500.57 95.6343 501.35C96.3783 502.13 96.7503 503.246 96.7503 504.698C96.7503 506.138 96.3783 507.248 95.6343 508.028C94.9023 508.808 93.9363 509.198 92.7363 509.198C91.5363 509.198 90.5643 508.808 89.8203 508.028C89.0883 507.248 88.7223 506.138 88.7223 504.698C88.7223 503.246 89.0883 502.13 89.8203 501.35C90.5643 500.57 91.5363 500.18 92.7363 500.18ZM95.3103 504.698C95.3103 503.666 95.0943 502.862 94.6623 502.286C94.2303 501.698 93.5943 501.404 92.7543 501.404C91.9263 501.404 91.2903 501.698 90.8463 502.286C90.4023 502.862 90.1803 503.666 90.1803 504.698C90.1803 505.718 90.3903 506.522 90.8103 507.11C91.2303 507.686 91.8543 507.974 92.6823 507.974C93.5223 507.974 94.1703 507.686 94.6263 507.11C95.0823 506.522 95.3103 505.718 95.3103 504.698ZM100.888 501.674C101.464 500.678 102.304 500.18 103.408 500.18C104.512 500.18 105.43 500.594 106.162 501.422C106.894 502.238 107.26 503.324 107.26 504.68C107.26 506.024 106.888 507.116 106.144 507.956C105.4 508.784 104.494 509.198 103.426 509.198C102.85 509.198 102.328 509.054 101.86 508.766C101.404 508.478 101.044 508.052 100.78 507.488L100.456 509H99.4664V496.742H100.888V501.674ZM103.318 501.44C102.634 501.44 102.064 501.662 101.608 502.106C101.152 502.538 100.912 503.144 100.888 503.924V505.328C100.888 506.12 101.122 506.756 101.59 507.236C102.07 507.704 102.646 507.938 103.318 507.938C103.99 507.938 104.572 507.644 105.064 507.056C105.556 506.456 105.802 505.664 105.802 504.68C105.802 503.696 105.556 502.91 105.064 502.322C104.584 501.734 104.002 501.44 103.318 501.44ZM110.068 500.378H111.49V509H110.068V500.378ZM110.77 498.362C110.482 498.362 110.254 498.284 110.086 498.128C109.93 497.96 109.852 497.744 109.852 497.48C109.852 497.204 109.93 496.988 110.086 496.832C110.254 496.664 110.482 496.58 110.77 496.58C111.058 496.58 111.286 496.664 111.454 496.832C111.634 496.988 111.724 497.204 111.724 497.48C111.724 497.744 111.634 497.96 111.454 498.128C111.286 498.284 111.058 498.362 110.77 498.362ZM115.357 496.742H116.779V509H115.357V496.742ZM123.372 508.046C124.56 508.046 125.238 507.524 125.406 506.48H126.864C126.732 507.344 126.348 508.016 125.712 508.496C125.088 508.964 124.308 509.198 123.372 509.198C122.22 509.198 121.284 508.79 120.564 507.974C119.844 507.146 119.484 506.048 119.484 504.68C119.484 503.312 119.844 502.22 120.564 501.404C121.296 500.588 122.262 500.18 123.462 500.18C124.674 500.18 125.574 500.648 126.162 501.584C126.762 502.52 126.972 503.66 126.792 505.004H120.906C120.906 505.892 121.122 506.624 121.554 507.2C121.986 507.764 122.592 508.046 123.372 508.046ZM124.416 501.53C124.14 501.386 123.804 501.314 123.408 501.314C122.676 501.314 122.094 501.566 121.662 502.07C121.242 502.562 120.996 503.18 120.924 503.924H125.514C125.514 502.724 125.148 501.926 124.416 501.53ZM133.937 500.396L136.025 507.254L138.077 500.81H139.265L141.299 507.326L143.405 500.396H144.809L142.001 509H140.615L138.635 502.97L136.691 509H135.323L132.461 500.396H133.937ZM149.968 508.046C151.156 508.046 151.834 507.524 152.002 506.48H153.46C153.328 507.344 152.944 508.016 152.308 508.496C151.684 508.964 150.904 509.198 149.968 509.198C148.816 509.198 147.88 508.79 147.16 507.974C146.44 507.146 146.08 506.048 146.08 504.68C146.08 503.312 146.44 502.22 147.16 501.404C147.892 500.588 148.858 500.18 150.058 500.18C151.27 500.18 152.17 500.648 152.758 501.584C153.358 502.52 153.568 503.66 153.388 505.004H147.502C147.502 505.892 147.718 506.624 148.15 507.2C148.582 507.764 149.188 508.046 149.968 508.046ZM151.012 501.53C150.736 501.386 150.4 501.314 150.004 501.314C149.272 501.314 148.69 501.566 148.258 502.07C147.838 502.562 147.592 503.18 147.52 503.924H152.11C152.11 502.724 151.744 501.926 151.012 501.53ZM157.683 501.674C158.259 500.678 159.099 500.18 160.203 500.18C161.307 500.18 162.225 500.594 162.957 501.422C163.689 502.238 164.055 503.324 164.055 504.68C164.055 506.024 163.683 507.116 162.939 507.956C162.195 508.784 161.289 509.198 160.221 509.198C159.645 509.198 159.123 509.054 158.655 508.766C158.199 508.478 157.839 508.052 157.575 507.488L157.251 509H156.261V496.742H157.683V501.674ZM160.113 501.44C159.429 501.44 158.859 501.662 158.403 502.106C157.947 502.538 157.707 503.144 157.683 503.924V505.328C157.683 506.12 157.917 506.756 158.385 507.236C158.865 507.704 159.441 507.938 160.113 507.938C160.785 507.938 161.367 507.644 161.859 507.056C162.351 506.456 162.597 505.664 162.597 504.68C162.597 503.696 162.351 502.91 161.859 502.322C161.379 501.734 160.797 501.44 160.113 501.44ZM166.323 502.502C166.323 501.794 166.623 501.23 167.223 500.81C167.835 500.39 168.657 500.18 169.689 500.18C170.721 500.18 171.525 500.396 172.101 500.828C172.689 501.26 172.995 501.806 173.019 502.466H171.633C171.525 501.686 170.865 501.296 169.653 501.296C169.065 501.296 168.609 501.428 168.285 501.692C167.973 501.956 167.817 502.244 167.817 502.556C167.817 502.856 167.937 503.114 168.177 503.33C168.417 503.534 168.801 503.714 169.329 503.87L171.057 504.446C171.789 504.674 172.347 504.968 172.731 505.328C173.127 505.676 173.325 506.162 173.325 506.786C173.325 507.398 173.007 507.956 172.371 508.46C171.735 508.952 170.847 509.198 169.707 509.198C168.567 509.198 167.679 508.946 167.043 508.442C166.407 507.926 166.071 507.266 166.035 506.462H167.403C167.427 507.002 167.643 507.41 168.051 507.686C168.471 507.95 168.993 508.082 169.617 508.082C170.241 508.082 170.757 507.95 171.165 507.686C171.573 507.422 171.777 507.11 171.777 506.75C171.777 506.378 171.657 506.096 171.417 505.904C171.177 505.712 170.787 505.544 170.247 505.4L168.573 504.842C167.073 504.398 166.323 503.618 166.323 502.502ZM176.338 500.378H177.76V509H176.338V500.378ZM177.04 498.362C176.752 498.362 176.524 498.284 176.356 498.128C176.2 497.96 176.122 497.744 176.122 497.48C176.122 497.204 176.2 496.988 176.356 496.832C176.524 496.664 176.752 496.58 177.04 496.58C177.328 496.58 177.556 496.664 177.724 496.832C177.904 496.988 177.994 497.204 177.994 497.48C177.994 497.744 177.904 497.96 177.724 498.128C177.556 498.284 177.328 498.362 177.04 498.362ZM186.127 508.748C185.095 509.228 184.153 509.33 183.301 509.054C182.689 508.862 182.257 508.46 182.005 507.848C181.873 507.548 181.807 507.188 181.807 506.768V501.476H180.421V500.396H181.807V498.002H183.211V500.396H185.911V501.476H183.211V506.75C183.211 507.626 183.619 508.064 184.435 508.064C184.879 508.064 185.377 507.956 185.929 507.74L186.127 508.748ZM191.364 508.046C192.552 508.046 193.23 507.524 193.398 506.48H194.856C194.724 507.344 194.34 508.016 193.704 508.496C193.08 508.964 192.3 509.198 191.364 509.198C190.212 509.198 189.276 508.79 188.556 507.974C187.836 507.146 187.476 506.048 187.476 504.68C187.476 503.312 187.836 502.22 188.556 501.404C189.288 500.588 190.254 500.18 191.454 500.18C192.666 500.18 193.566 500.648 194.154 501.584C194.754 502.52 194.964 503.66 194.784 505.004H188.898C188.898 505.892 189.114 506.624 189.546 507.2C189.978 507.764 190.584 508.046 191.364 508.046ZM192.408 501.53C192.132 501.386 191.796 501.314 191.4 501.314C190.668 501.314 190.086 501.566 189.654 502.07C189.234 502.562 188.988 503.18 188.916 503.924H193.506C193.506 502.724 193.14 501.926 192.408 501.53ZM197.73 509.09C197.454 509.066 197.226 508.976 197.046 508.82C196.866 508.664 196.776 508.454 196.776 508.19C196.776 507.926 196.866 507.704 197.046 507.524C197.238 507.344 197.502 507.254 197.838 507.254C198.186 507.254 198.474 507.392 198.702 507.668C198.93 507.932 199.044 508.268 199.044 508.676C199.044 509.084 198.912 509.498 198.648 509.918C198.384 510.35 197.982 510.698 197.442 510.962L196.38 510.44C197.124 510.08 197.574 509.63 197.73 509.09ZM210.226 508.748C209.194 509.228 208.252 509.33 207.4 509.054C206.788 508.862 206.356 508.46 206.104 507.848C205.972 507.548 205.906 507.188 205.906 506.768V501.476H204.52V500.396H205.906V498.002H207.31V500.396H210.01V501.476H207.31V506.75C207.31 507.626 207.718 508.064 208.534 508.064C208.978 508.064 209.476 507.956 210.028 507.74L210.226 508.748ZM213.916 501.98C214.492 500.78 215.446 500.18 216.778 500.18C217.798 500.18 218.59 500.516 219.154 501.188C219.73 501.86 220.018 502.778 220.018 503.942V509H218.614V503.942C218.614 503.114 218.416 502.49 218.02 502.07C217.636 501.65 217.078 501.44 216.346 501.44C215.614 501.44 215.026 501.752 214.582 502.376C214.138 502.988 213.916 503.84 213.916 504.932V509H212.494V496.742H213.916V501.98ZM226.327 508.046C227.515 508.046 228.193 507.524 228.361 506.48H229.819C229.687 507.344 229.303 508.016 228.667 508.496C228.043 508.964 227.263 509.198 226.327 509.198C225.175 509.198 224.239 508.79 223.519 507.974C222.799 507.146 222.439 506.048 222.439 504.68C222.439 503.312 222.799 502.22 223.519 501.404C224.251 500.588 225.217 500.18 226.417 500.18C227.629 500.18 228.529 500.648 229.117 501.584C229.717 502.52 229.927 503.66 229.747 505.004H223.861C223.861 505.892 224.077 506.624 224.509 507.2C224.941 507.764 225.547 508.046 226.327 508.046ZM227.371 501.53C227.095 501.386 226.759 501.314 226.363 501.314C225.631 501.314 225.049 501.566 224.617 502.07C224.197 502.562 223.951 503.18 223.879 503.924H228.469C228.469 502.724 228.103 501.926 227.371 501.53ZM238.278 502.052C238.842 500.804 239.808 500.18 241.176 500.18C241.92 500.18 242.544 500.366 243.048 500.738C243.552 501.098 243.918 501.602 244.146 502.25C244.686 500.87 245.688 500.18 247.152 500.18C248.184 500.18 248.982 500.516 249.546 501.188C250.11 501.86 250.392 502.778 250.392 503.942V509H248.988V503.942C248.988 503.114 248.79 502.49 248.394 502.07C248.01 501.65 247.452 501.44 246.72 501.44C245.988 501.44 245.418 501.74 245.01 502.34C244.614 502.94 244.416 503.768 244.416 504.824V509H243.012V503.942C243.012 503.114 242.814 502.49 242.418 502.07C242.034 501.65 241.482 501.44 240.762 501.44C240.042 501.44 239.46 501.734 239.016 502.322C238.572 502.91 238.338 503.726 238.314 504.77V509H236.892V500.396H238.116L238.278 502.052ZM259.06 503.42C259.06 502.64 258.898 502.082 258.574 501.746C258.25 501.41 257.776 501.242 257.152 501.242C256.54 501.242 256.042 501.368 255.658 501.62C255.286 501.86 255.1 502.244 255.1 502.772H253.534C253.534 501.452 254.242 500.636 255.658 500.324C256.09 500.228 256.558 500.18 257.062 500.18C258.13 500.18 258.964 500.45 259.564 500.99C260.164 501.53 260.464 502.352 260.464 503.456V509H259.24L259.096 507.56C258.568 508.652 257.614 509.198 256.234 509.198C255.31 509.198 254.566 508.94 254.002 508.424C253.45 507.908 253.174 507.266 253.174 506.498C253.174 505.73 253.48 505.13 254.092 504.698C254.716 504.266 255.49 504.05 256.414 504.05C257.338 504.05 258.22 504.206 259.06 504.518V503.42ZM259.06 505.418C258.208 505.178 257.464 505.058 256.828 505.058C256.192 505.058 255.676 505.172 255.28 505.4C254.884 505.628 254.686 505.988 254.686 506.48C254.686 507.56 255.298 508.1 256.522 508.1C257.218 508.1 257.812 507.854 258.304 507.362C258.808 506.858 259.06 506.21 259.06 505.418ZM268.304 508.748C267.272 509.228 266.33 509.33 265.478 509.054C264.866 508.862 264.434 508.46 264.182 507.848C264.05 507.548 263.984 507.188 263.984 506.768V501.476H262.598V500.396H263.984V498.002H265.388V500.396H268.088V501.476H265.388V506.75C265.388 507.626 265.796 508.064 266.612 508.064C267.056 508.064 267.554 507.956 268.106 507.74L268.304 508.748ZM273.434 500.18C274.454 500.18 275.264 500.444 275.864 500.972C276.464 501.488 276.854 502.136 277.034 502.916L275.594 503.042C275.438 502.538 275.186 502.148 274.838 501.872C274.49 501.584 274.106 501.44 273.686 501.44C272.918 501.44 272.294 501.728 271.814 502.304C271.346 502.88 271.112 503.666 271.112 504.662C271.112 505.646 271.34 506.438 271.796 507.038C272.264 507.638 272.84 507.938 273.524 507.938C274.22 507.938 274.736 507.782 275.072 507.47C275.42 507.146 275.594 506.69 275.594 506.102H277.052C277.052 507.026 276.728 507.776 276.08 508.352C275.444 508.916 274.61 509.198 273.578 509.198C272.486 509.198 271.556 508.784 270.788 507.956C270.032 507.128 269.654 506.03 269.654 504.662C269.654 503.282 270.032 502.19 270.788 501.386C271.544 500.582 272.426 500.18 273.434 500.18ZM281.258 501.98C281.834 500.78 282.788 500.18 284.12 500.18C285.14 500.18 285.932 500.516 286.496 501.188C287.072 501.86 287.36 502.778 287.36 503.942V509H285.956V503.942C285.956 503.114 285.758 502.49 285.362 502.07C284.978 501.65 284.42 501.44 283.688 501.44C282.956 501.44 282.368 501.752 281.924 502.376C281.48 502.988 281.258 503.84 281.258 504.932V509H279.836V496.742H281.258V501.98ZM293.669 508.046C294.857 508.046 295.535 507.524 295.703 506.48H297.161C297.029 507.344 296.645 508.016 296.009 508.496C295.385 508.964 294.605 509.198 293.669 509.198C292.517 509.198 291.581 508.79 290.861 507.974C290.141 507.146 289.781 506.048 289.781 504.68C289.781 503.312 290.141 502.22 290.861 501.404C291.593 500.588 292.559 500.18 293.759 500.18C294.971 500.18 295.871 500.648 296.459 501.584C297.059 502.52 297.269 503.66 297.089 505.004H291.203C291.203 505.892 291.419 506.624 291.851 507.2C292.283 507.764 292.889 508.046 293.669 508.046ZM294.713 501.53C294.437 501.386 294.101 501.314 293.705 501.314C292.973 501.314 292.391 501.566 291.959 502.07C291.539 502.562 291.293 503.18 291.221 503.924H295.811C295.811 502.724 295.445 501.926 294.713 501.53ZM299.513 502.502C299.513 501.794 299.813 501.23 300.413 500.81C301.025 500.39 301.847 500.18 302.879 500.18C303.911 500.18 304.715 500.396 305.291 500.828C305.879 501.26 306.185 501.806 306.209 502.466H304.823C304.715 501.686 304.055 501.296 302.843 501.296C302.255 501.296 301.799 501.428 301.475 501.692C301.163 501.956 301.007 502.244 301.007 502.556C301.007 502.856 301.127 503.114 301.367 503.33C301.607 503.534 301.991 503.714 302.519 503.87L304.247 504.446C304.979 504.674 305.537 504.968 305.921 505.328C306.317 505.676 306.515 506.162 306.515 506.786C306.515 507.398 306.197 507.956 305.561 508.46C304.925 508.952 304.037 509.198 302.897 509.198C301.757 509.198 300.869 508.946 300.233 508.442C299.597 507.926 299.261 507.266 299.225 506.462H300.593C300.617 507.002 300.833 507.41 301.241 507.686C301.661 507.95 302.183 508.082 302.807 508.082C303.431 508.082 303.947 507.95 304.355 507.686C304.763 507.422 304.967 507.11 304.967 506.75C304.967 506.378 304.847 506.096 304.607 505.904C304.367 505.712 303.977 505.544 303.437 505.4L301.763 504.842C300.263 504.398 299.513 503.618 299.513 502.502ZM309.509 509.09C309.233 509.066 309.005 508.976 308.825 508.82C308.645 508.664 308.555 508.454 308.555 508.19C308.555 507.926 308.645 507.704 308.825 507.524C309.017 507.344 309.281 507.254 309.617 507.254C309.965 507.254 310.253 507.392 310.481 507.668C310.709 507.932 310.823 508.268 310.823 508.676C310.823 509.084 310.691 509.498 310.427 509.918C310.163 510.35 309.761 510.698 309.221 510.962L308.159 510.44C308.903 510.08 309.353 509.63 309.509 509.09ZM317.488 500.396L319.576 507.254L321.628 500.81H322.816L324.85 507.326L326.956 500.396H328.36L325.552 509H324.166L322.186 502.97L320.242 509H318.874L316.012 500.396H317.488ZM333.518 508.046C334.706 508.046 335.384 507.524 335.552 506.48H337.01C336.878 507.344 336.494 508.016 335.858 508.496C335.234 508.964 334.454 509.198 333.518 509.198C332.366 509.198 331.43 508.79 330.71 507.974C329.99 507.146 329.63 506.048 329.63 504.68C329.63 503.312 329.99 502.22 330.71 501.404C331.442 500.588 332.408 500.18 333.608 500.18C334.82 500.18 335.72 500.648 336.308 501.584C336.908 502.52 337.118 503.66 336.938 505.004H331.052C331.052 505.892 331.268 506.624 331.7 507.2C332.132 507.764 332.738 508.046 333.518 508.046ZM334.562 501.53C334.286 501.386 333.95 501.314 333.554 501.314C332.822 501.314 332.24 501.566 331.808 502.07C331.388 502.562 331.142 503.18 331.07 503.924H335.66C335.66 502.724 335.294 501.926 334.562 501.53ZM75.68 521.18C76.7 521.18 77.51 521.444 78.11 521.972C78.71 522.488 79.1 523.136 79.28 523.916L77.84 524.042C77.684 523.538 77.432 523.148 77.084 522.872C76.736 522.584 76.352 522.44 75.932 522.44C75.164 522.44 74.54 522.728 74.06 523.304C73.592 523.88 73.358 524.666 73.358 525.662C73.358 526.646 73.586 527.438 74.042 528.038C74.51 528.638 75.086 528.938 75.77 528.938C76.466 528.938 76.982 528.782 77.318 528.47C77.666 528.146 77.84 527.69 77.84 527.102H79.298C79.298 528.026 78.974 528.776 78.326 529.352C77.69 529.916 76.856 530.198 75.824 530.198C74.732 530.198 73.802 529.784 73.034 528.956C72.278 528.128 71.9 527.03 71.9 525.662C71.9 524.282 72.278 523.19 73.034 522.386C73.79 521.582 74.672 521.18 75.68 521.18ZM85.5917 522.602C84.2357 522.602 83.5337 523.67 83.4857 525.806V530H82.0637V521.378H83.4857V523.034C83.9177 521.834 84.6797 521.234 85.7717 521.234C86.1197 521.234 86.4497 521.288 86.7617 521.396L86.6897 522.782C86.3297 522.662 85.9637 522.602 85.5917 522.602ZM91.9071 529.046C93.0951 529.046 93.7731 528.524 93.9411 527.48H95.3991C95.2671 528.344 94.8831 529.016 94.2471 529.496C93.6231 529.964 92.8431 530.198 91.9071 530.198C90.7551 530.198 89.8191 529.79 89.0991 528.974C88.3791 528.146 88.0191 527.048 88.0191 525.68C88.0191 524.312 88.3791 523.22 89.0991 522.404C89.8311 521.588 90.7971 521.18 91.9971 521.18C93.2091 521.18 94.1091 521.648 94.6971 522.584C95.2971 523.52 95.5071 524.66 95.3271 526.004H89.4411C89.4411 526.892 89.6571 527.624 90.0891 528.2C90.5211 528.764 91.1271 529.046 91.9071 529.046ZM92.9511 522.53C92.6751 522.386 92.3391 522.314 91.9431 522.314C91.2111 522.314 90.6291 522.566 90.1971 523.07C89.7771 523.562 89.5311 524.18 89.4591 524.924H94.0491C94.0491 523.724 93.6831 522.926 92.9511 522.53ZM103.529 524.42C103.529 523.64 103.367 523.082 103.043 522.746C102.719 522.41 102.245 522.242 101.621 522.242C101.009 522.242 100.511 522.368 100.127 522.62C99.7548 522.86 99.5688 523.244 99.5688 523.772H98.0028C98.0028 522.452 98.7108 521.636 100.127 521.324C100.559 521.228 101.027 521.18 101.531 521.18C102.599 521.18 103.433 521.45 104.033 521.99C104.633 522.53 104.933 523.352 104.933 524.456V530H103.709L103.565 528.56C103.037 529.652 102.083 530.198 100.703 530.198C99.7788 530.198 99.0348 529.94 98.4708 529.424C97.9188 528.908 97.6428 528.266 97.6428 527.498C97.6428 526.73 97.9488 526.13 98.5608 525.698C99.1848 525.266 99.9588 525.05 100.883 525.05C101.807 525.05 102.689 525.206 103.529 525.518V524.42ZM103.529 526.418C102.677 526.178 101.933 526.058 101.297 526.058C100.661 526.058 100.145 526.172 99.7488 526.4C99.3528 526.628 99.1548 526.988 99.1548 527.48C99.1548 528.56 99.7668 529.1 100.991 529.1C101.687 529.1 102.281 528.854 102.773 528.362C103.277 527.858 103.529 527.21 103.529 526.418ZM112.773 529.748C111.741 530.228 110.799 530.33 109.947 530.054C109.335 529.862 108.903 529.46 108.651 528.848C108.519 528.548 108.453 528.188 108.453 527.768V522.476H107.067V521.396H108.453V519.002H109.857V521.396H112.557V522.476H109.857V527.75C109.857 528.626 110.265 529.064 111.081 529.064C111.525 529.064 112.023 528.956 112.575 528.74L112.773 529.748ZM118.011 529.046C119.199 529.046 119.877 528.524 120.045 527.48H121.503C121.371 528.344 120.987 529.016 120.351 529.496C119.727 529.964 118.947 530.198 118.011 530.198C116.859 530.198 115.923 529.79 115.203 528.974C114.483 528.146 114.123 527.048 114.123 525.68C114.123 524.312 114.483 523.22 115.203 522.404C115.935 521.588 116.901 521.18 118.101 521.18C119.313 521.18 120.213 521.648 120.801 522.584C121.401 523.52 121.611 524.66 121.431 526.004H115.545C115.545 526.892 115.761 527.624 116.193 528.2C116.625 528.764 117.231 529.046 118.011 529.046ZM119.055 522.53C118.779 522.386 118.443 522.314 118.047 522.314C117.315 522.314 116.733 522.566 116.301 523.07C115.881 523.562 115.635 524.18 115.563 524.924H120.153C120.153 523.724 119.787 522.926 119.055 522.53ZM126.865 532.502C127.453 532.958 128.071 533.186 128.719 533.186C129.199 533.186 129.613 532.946 129.961 532.466C130.213 532.118 130.441 531.59 130.645 530.882L130.897 530L127.369 521.396H128.953L131.563 528.254L133.597 521.396H135.037L131.815 531.71C131.539 532.586 131.173 533.258 130.717 533.726C130.273 534.194 129.703 534.428 129.007 534.428C128.323 534.428 127.609 534.218 126.865 533.798V532.502ZM140.408 521.18C141.608 521.18 142.574 521.57 143.306 522.35C144.05 523.13 144.422 524.246 144.422 525.698C144.422 527.138 144.05 528.248 143.306 529.028C142.574 529.808 141.608 530.198 140.408 530.198C139.208 530.198 138.236 529.808 137.492 529.028C136.76 528.248 136.394 527.138 136.394 525.698C136.394 524.246 136.76 523.13 137.492 522.35C138.236 521.57 139.208 521.18 140.408 521.18ZM142.982 525.698C142.982 524.666 142.766 523.862 142.334 523.286C141.902 522.698 141.266 522.404 140.426 522.404C139.598 522.404 138.962 522.698 138.518 523.286C138.074 523.862 137.852 524.666 137.852 525.698C137.852 526.718 138.062 527.522 138.482 528.11C138.902 528.686 139.526 528.974 140.354 528.974C141.194 528.974 141.842 528.686 142.298 528.11C142.754 527.522 142.982 526.718 142.982 525.698ZM152.988 528.29C152.4 529.538 151.446 530.162 150.126 530.162C149.154 530.162 148.368 529.892 147.768 529.352C147.18 528.812 146.886 527.978 146.886 526.85V521.378H148.308V526.742C148.308 528.194 148.98 528.92 150.324 528.92C151.104 528.92 151.734 528.62 152.214 528.02C152.706 527.42 152.964 526.652 152.988 525.716V521.378H154.41V530H152.988V528.29ZM161.564 522.602C160.208 522.602 159.506 523.67 159.458 525.806V530H158.036V521.378H159.458V523.034C159.89 521.834 160.652 521.234 161.744 521.234C162.092 521.234 162.422 521.288 162.734 521.396L162.662 522.782C162.302 522.662 161.936 522.602 161.564 522.602ZM170.531 522.71C171.095 521.69 171.935 521.18 173.051 521.18C174.179 521.18 175.115 521.594 175.859 522.422C176.615 523.25 176.993 524.342 176.993 525.698C176.993 527.054 176.615 528.146 175.859 528.974C175.103 529.79 174.173 530.198 173.069 530.198C171.965 530.198 171.149 529.784 170.621 528.956V534.23H169.199V521.396H170.369L170.531 522.71ZM172.997 528.938C173.669 528.938 174.257 528.65 174.761 528.074C175.277 527.498 175.535 526.712 175.535 525.716C175.535 524.708 175.289 523.91 174.797 523.322C174.317 522.734 173.729 522.44 173.033 522.44C172.337 522.44 171.767 522.662 171.323 523.106C170.879 523.538 170.645 524.126 170.621 524.87V526.508C170.621 527.264 170.849 527.858 171.305 528.29C171.761 528.722 172.325 528.938 172.997 528.938ZM183.396 522.602C182.04 522.602 181.338 523.67 181.29 525.806V530H179.868V521.378H181.29V523.034C181.722 521.834 182.484 521.234 183.576 521.234C183.924 521.234 184.254 521.288 184.566 521.396L184.494 522.782C184.134 522.662 183.768 522.602 183.396 522.602ZM189.838 521.18C191.038 521.18 192.004 521.57 192.736 522.35C193.48 523.13 193.852 524.246 193.852 525.698C193.852 527.138 193.48 528.248 192.736 529.028C192.004 529.808 191.038 530.198 189.838 530.198C188.638 530.198 187.666 529.808 186.922 529.028C186.19 528.248 185.824 527.138 185.824 525.698C185.824 524.246 186.19 523.13 186.922 522.35C187.666 521.57 188.638 521.18 189.838 521.18ZM192.412 525.698C192.412 524.666 192.196 523.862 191.764 523.286C191.332 522.698 190.696 522.404 189.856 522.404C189.028 522.404 188.392 522.698 187.948 523.286C187.504 523.862 187.282 524.666 187.282 525.698C187.282 526.718 187.492 527.522 187.912 528.11C188.332 528.686 188.956 528.974 189.784 528.974C190.624 528.974 191.272 528.686 191.728 528.11C192.184 527.522 192.412 526.718 192.412 525.698ZM200.744 518.948C200.348 518.792 200.036 518.714 199.808 518.714C199.388 518.714 199.058 518.816 198.818 519.02C198.578 519.224 198.458 519.584 198.458 520.1V521.396H200.24V522.368H198.458V530H197.054V522.368H195.632V521.396H197.054V520.082C197.054 519.23 197.288 518.606 197.756 518.21C198.224 517.802 198.764 517.598 199.376 517.598C199.988 517.598 200.528 517.676 200.996 517.832L200.744 518.948ZM202.828 521.378H204.25V530H202.828V521.378ZM203.53 519.362C203.242 519.362 203.014 519.284 202.846 519.128C202.69 518.96 202.612 518.744 202.612 518.48C202.612 518.204 202.69 517.988 202.846 517.832C203.014 517.664 203.242 517.58 203.53 517.58C203.818 517.58 204.046 517.664 204.214 517.832C204.394 517.988 204.484 518.204 204.484 518.48C204.484 518.744 204.394 518.96 204.214 519.128C204.046 519.284 203.818 519.362 203.53 519.362ZM208.117 517.742H209.539V530H208.117V517.742ZM216.132 529.046C217.32 529.046 217.998 528.524 218.166 527.48H219.624C219.492 528.344 219.108 529.016 218.472 529.496C217.848 529.964 217.068 530.198 216.132 530.198C214.98 530.198 214.044 529.79 213.324 528.974C212.604 528.146 212.244 527.048 212.244 525.68C212.244 524.312 212.604 523.22 213.324 522.404C214.056 521.588 215.022 521.18 216.222 521.18C217.434 521.18 218.334 521.648 218.922 522.584C219.522 523.52 219.732 524.66 219.552 526.004H213.666C213.666 526.892 213.882 527.624 214.314 528.2C214.746 528.764 215.352 529.046 216.132 529.046ZM217.176 522.53C216.9 522.386 216.564 522.314 216.168 522.314C215.436 522.314 214.854 522.566 214.422 523.07C214.002 523.562 213.756 524.18 213.684 524.924H218.274C218.274 523.724 217.908 522.926 217.176 522.53ZM228.136 522.674C228.712 521.678 229.552 521.18 230.656 521.18C231.76 521.18 232.678 521.594 233.41 522.422C234.142 523.238 234.508 524.324 234.508 525.68C234.508 527.024 234.136 528.116 233.392 528.956C232.648 529.784 231.742 530.198 230.674 530.198C230.098 530.198 229.576 530.054 229.108 529.766C228.652 529.478 228.292 529.052 228.028 528.488L227.704 530H226.714V517.742H228.136V522.674ZM230.566 522.44C229.882 522.44 229.312 522.662 228.856 523.106C228.4 523.538 228.16 524.144 228.136 524.924V526.328C228.136 527.12 228.37 527.756 228.838 528.236C229.318 528.704 229.894 528.938 230.566 528.938C231.238 528.938 231.82 528.644 232.312 528.056C232.804 527.456 233.05 526.664 233.05 525.68C233.05 524.696 232.804 523.91 232.312 523.322C231.832 522.734 231.25 522.44 230.566 522.44ZM242.554 524.42C242.554 523.64 242.392 523.082 242.068 522.746C241.744 522.41 241.27 522.242 240.646 522.242C240.034 522.242 239.536 522.368 239.152 522.62C238.78 522.86 238.594 523.244 238.594 523.772H237.028C237.028 522.452 237.736 521.636 239.152 521.324C239.584 521.228 240.052 521.18 240.556 521.18C241.624 521.18 242.458 521.45 243.058 521.99C243.658 522.53 243.958 523.352 243.958 524.456V530H242.734L242.59 528.56C242.062 529.652 241.108 530.198 239.728 530.198C238.804 530.198 238.06 529.94 237.496 529.424C236.944 528.908 236.668 528.266 236.668 527.498C236.668 526.73 236.974 526.13 237.586 525.698C238.21 525.266 238.984 525.05 239.908 525.05C240.832 525.05 241.714 525.206 242.554 525.518V524.42ZM242.554 526.418C241.702 526.178 240.958 526.058 240.322 526.058C239.686 526.058 239.17 526.172 238.774 526.4C238.378 526.628 238.18 526.988 238.18 527.48C238.18 528.56 238.792 529.1 240.016 529.1C240.712 529.1 241.306 528.854 241.798 528.362C242.302 527.858 242.554 527.21 242.554 526.418ZM246.848 523.502C246.848 522.794 247.148 522.23 247.748 521.81C248.36 521.39 249.182 521.18 250.214 521.18C251.246 521.18 252.05 521.396 252.626 521.828C253.214 522.26 253.52 522.806 253.544 523.466H252.158C252.05 522.686 251.39 522.296 250.178 522.296C249.59 522.296 249.134 522.428 248.81 522.692C248.498 522.956 248.342 523.244 248.342 523.556C248.342 523.856 248.462 524.114 248.702 524.33C248.942 524.534 249.326 524.714 249.854 524.87L251.582 525.446C252.314 525.674 252.872 525.968 253.256 526.328C253.652 526.676 253.85 527.162 253.85 527.786C253.85 528.398 253.532 528.956 252.896 529.46C252.26 529.952 251.372 530.198 250.232 530.198C249.092 530.198 248.204 529.946 247.568 529.442C246.932 528.926 246.596 528.266 246.56 527.462H247.928C247.952 528.002 248.168 528.41 248.576 528.686C248.996 528.95 249.518 529.082 250.142 529.082C250.766 529.082 251.282 528.95 251.69 528.686C252.098 528.422 252.302 528.11 252.302 527.75C252.302 527.378 252.182 527.096 251.942 526.904C251.702 526.712 251.312 526.544 250.772 526.4L249.098 525.842C247.598 525.398 246.848 524.618 246.848 523.502ZM259.743 529.046C260.931 529.046 261.609 528.524 261.777 527.48H263.235C263.103 528.344 262.719 529.016 262.083 529.496C261.459 529.964 260.679 530.198 259.743 530.198C258.591 530.198 257.655 529.79 256.935 528.974C256.215 528.146 255.855 527.048 255.855 525.68C255.855 524.312 256.215 523.22 256.935 522.404C257.667 521.588 258.633 521.18 259.833 521.18C261.045 521.18 261.945 521.648 262.533 522.584C263.133 523.52 263.343 524.66 263.163 526.004H257.277C257.277 526.892 257.493 527.624 257.925 528.2C258.357 528.764 258.963 529.046 259.743 529.046ZM260.787 522.53C260.511 522.386 260.175 522.314 259.779 522.314C259.047 522.314 258.465 522.566 258.033 523.07C257.613 523.562 257.367 524.18 257.295 524.924H261.885C261.885 523.724 261.519 522.926 260.787 522.53ZM271.671 522.674V517.742H273.075V530H271.923L271.743 528.56C271.467 529.1 271.101 529.508 270.645 529.784C270.189 530.06 269.691 530.198 269.151 530.198C268.059 530.198 267.141 529.778 266.397 528.938C265.665 528.098 265.299 527.006 265.299 525.662C265.299 524.306 265.659 523.22 266.379 522.404C267.111 521.588 268.029 521.18 269.133 521.18C270.249 521.18 271.095 521.678 271.671 522.674ZM269.223 522.44C268.527 522.44 267.939 522.734 267.459 523.322C266.991 523.91 266.757 524.696 266.757 525.68C266.757 526.664 266.997 527.456 267.477 528.056C267.957 528.644 268.533 528.938 269.205 528.938C269.877 528.938 270.447 528.716 270.915 528.272C271.395 527.816 271.647 527.21 271.671 526.454V525.05C271.671 524.246 271.437 523.61 270.969 523.142C270.501 522.674 269.919 522.44 269.223 522.44ZM284.109 521.18C285.309 521.18 286.275 521.57 287.007 522.35C287.751 523.13 288.123 524.246 288.123 525.698C288.123 527.138 287.751 528.248 287.007 529.028C286.275 529.808 285.309 530.198 284.109 530.198C282.909 530.198 281.937 529.808 281.193 529.028C280.461 528.248 280.095 527.138 280.095 525.698C280.095 524.246 280.461 523.13 281.193 522.35C281.937 521.57 282.909 521.18 284.109 521.18ZM286.683 525.698C286.683 524.666 286.467 523.862 286.035 523.286C285.603 522.698 284.967 522.404 284.127 522.404C283.299 522.404 282.663 522.698 282.219 523.286C281.775 523.862 281.553 524.666 281.553 525.698C281.553 526.718 281.763 527.522 282.183 528.11C282.603 528.686 283.227 528.974 284.055 528.974C284.895 528.974 285.543 528.686 285.999 528.11C286.455 527.522 286.683 526.718 286.683 525.698ZM292.207 523.052C292.771 521.804 293.737 521.18 295.105 521.18C296.125 521.18 296.917 521.516 297.481 522.188C298.057 522.86 298.345 523.778 298.345 524.942V530H296.941V524.942C296.941 524.114 296.743 523.49 296.347 523.07C295.963 522.65 295.411 522.44 294.691 522.44C293.971 522.44 293.389 522.734 292.945 523.322C292.501 523.91 292.267 524.726 292.243 525.77V530H290.821V521.396H292.045L292.207 523.052ZM304.246 532.502C304.834 532.958 305.452 533.186 306.1 533.186C306.58 533.186 306.994 532.946 307.342 532.466C307.594 532.118 307.822 531.59 308.026 530.882L308.278 530L304.75 521.396H306.334L308.944 528.254L310.978 521.396H312.418L309.196 531.71C308.92 532.586 308.554 533.258 308.098 533.726C307.654 534.194 307.084 534.428 306.388 534.428C305.704 534.428 304.99 534.218 304.246 533.798V532.502ZM317.789 521.18C318.989 521.18 319.955 521.57 320.687 522.35C321.431 523.13 321.803 524.246 321.803 525.698C321.803 527.138 321.431 528.248 320.687 529.028C319.955 529.808 318.989 530.198 317.789 530.198C316.589 530.198 315.617 529.808 314.873 529.028C314.141 528.248 313.775 527.138 313.775 525.698C313.775 524.246 314.141 523.13 314.873 522.35C315.617 521.57 316.589 521.18 317.789 521.18ZM320.363 525.698C320.363 524.666 320.147 523.862 319.715 523.286C319.283 522.698 318.647 522.404 317.807 522.404C316.979 522.404 316.343 522.698 315.899 523.286C315.455 523.862 315.233 524.666 315.233 525.698C315.233 526.718 315.443 527.522 315.863 528.11C316.283 528.686 316.907 528.974 317.735 528.974C318.575 528.974 319.223 528.686 319.679 528.11C320.135 527.522 320.363 526.718 320.363 525.698ZM330.369 528.29C329.781 529.538 328.827 530.162 327.507 530.162C326.535 530.162 325.749 529.892 325.149 529.352C324.561 528.812 324.267 527.978 324.267 526.85V521.378H325.689V526.742C325.689 528.194 326.361 528.92 327.705 528.92C328.485 528.92 329.115 528.62 329.595 528.02C330.087 527.42 330.345 526.652 330.369 525.716V521.378H331.791V530H330.369V528.29ZM338.945 522.602C337.589 522.602 336.887 523.67 336.839 525.806V530H335.417V521.378H336.839V523.034C337.271 521.834 338.033 521.234 339.125 521.234C339.473 521.234 339.803 521.288 340.115 521.396L340.043 522.782C339.683 522.662 339.317 522.602 338.945 522.602ZM74.186 544.052C74.75 542.804 75.716 542.18 77.084 542.18C78.104 542.18 78.896 542.516 79.46 543.188C80.036 543.86 80.324 544.778 80.324 545.942V551H78.92V545.942C78.92 545.114 78.722 544.49 78.326 544.07C77.942 543.65 77.39 543.44 76.67 543.44C75.95 543.44 75.368 543.734 74.924 544.322C74.48 544.91 74.246 545.726 74.222 546.77V551H72.8V542.396H74.024L74.186 544.052ZM88.9917 545.42C88.9917 544.64 88.8297 544.082 88.5057 543.746C88.1817 543.41 87.7077 543.242 87.0837 543.242C86.4717 543.242 85.9737 543.368 85.5897 543.62C85.2177 543.86 85.0317 544.244 85.0317 544.772H83.4657C83.4657 543.452 84.1737 542.636 85.5897 542.324C86.0217 542.228 86.4897 542.18 86.9937 542.18C88.0617 542.18 88.8957 542.45 89.4957 542.99C90.0957 543.53 90.3957 544.352 90.3957 545.456V551H89.1717L89.0277 549.56C88.4997 550.652 87.5457 551.198 86.1657 551.198C85.2417 551.198 84.4977 550.94 83.9337 550.424C83.3817 549.908 83.1057 549.266 83.1057 548.498C83.1057 547.73 83.4117 547.13 84.0237 546.698C84.6477 546.266 85.4217 546.05 86.3457 546.05C87.2697 546.05 88.1517 546.206 88.9917 546.518V545.42ZM88.9917 547.418C88.1397 547.178 87.3957 547.058 86.7597 547.058C86.1237 547.058 85.6077 547.172 85.2117 547.4C84.8157 547.628 84.6177 547.988 84.6177 548.48C84.6177 549.56 85.2297 550.1 86.4537 550.1C87.1497 550.1 87.7437 549.854 88.2357 549.362C88.7397 548.858 88.9917 548.21 88.9917 547.418ZM98.236 550.748C97.204 551.228 96.262 551.33 95.41 551.054C94.798 550.862 94.366 550.46 94.114 549.848C93.982 549.548 93.916 549.188 93.916 548.768V543.476H92.53V542.396H93.916V540.002H95.32V542.396H98.02V543.476H95.32V548.75C95.32 549.626 95.728 550.064 96.544 550.064C96.988 550.064 97.486 549.956 98.038 549.74L98.236 550.748ZM105.832 545.42C105.832 544.64 105.67 544.082 105.346 543.746C105.022 543.41 104.548 543.242 103.924 543.242C103.312 543.242 102.814 543.368 102.43 543.62C102.058 543.86 101.872 544.244 101.872 544.772H100.306C100.306 543.452 101.014 542.636 102.43 542.324C102.862 542.228 103.33 542.18 103.834 542.18C104.902 542.18 105.736 542.45 106.336 542.99C106.936 543.53 107.236 544.352 107.236 545.456V551H106.012L105.868 549.56C105.34 550.652 104.386 551.198 103.006 551.198C102.082 551.198 101.338 550.94 100.774 550.424C100.222 549.908 99.9455 549.266 99.9455 548.498C99.9455 547.73 100.252 547.13 100.864 546.698C101.488 546.266 102.262 546.05 103.186 546.05C104.11 546.05 104.992 546.206 105.832 546.518V545.42ZM105.832 547.418C104.98 547.178 104.236 547.058 103.6 547.058C102.964 547.058 102.448 547.172 102.052 547.4C101.656 547.628 101.458 547.988 101.458 548.48C101.458 549.56 102.07 550.1 103.294 550.1C103.99 550.1 104.584 549.854 105.076 549.362C105.58 548.858 105.832 548.21 105.832 547.418ZM110.576 538.742H111.998V551H110.576V538.742ZM122.772 542.18C123.792 542.18 124.602 542.444 125.202 542.972C125.802 543.488 126.192 544.136 126.372 544.916L124.932 545.042C124.776 544.538 124.524 544.148 124.176 543.872C123.828 543.584 123.444 543.44 123.024 543.44C122.256 543.44 121.632 543.728 121.152 544.304C120.684 544.88 120.45 545.666 120.45 546.662C120.45 547.646 120.678 548.438 121.134 549.038C121.602 549.638 122.178 549.938 122.862 549.938C123.558 549.938 124.074 549.782 124.41 549.47C124.758 549.146 124.932 548.69 124.932 548.102H126.39C126.39 549.026 126.066 549.776 125.418 550.352C124.782 550.916 123.948 551.198 122.916 551.198C121.824 551.198 120.894 550.784 120.126 549.956C119.37 549.128 118.992 548.03 118.992 546.662C118.992 545.282 119.37 544.19 120.126 543.386C120.882 542.582 121.764 542.18 122.772 542.18ZM130.595 543.98C131.171 542.78 132.125 542.18 133.457 542.18C134.477 542.18 135.269 542.516 135.833 543.188C136.409 543.86 136.697 544.778 136.697 545.942V551H135.293V545.942C135.293 545.114 135.095 544.49 134.699 544.07C134.315 543.65 133.757 543.44 133.025 543.44C132.293 543.44 131.705 543.752 131.261 544.376C130.817 544.988 130.595 545.84 130.595 546.932V551H129.173V538.742H130.595V543.98ZM145.365 545.42C145.365 544.64 145.203 544.082 144.879 543.746C144.555 543.41 144.081 543.242 143.457 543.242C142.845 543.242 142.347 543.368 141.963 543.62C141.591 543.86 141.405 544.244 141.405 544.772H139.839C139.839 543.452 140.547 542.636 141.963 542.324C142.395 542.228 142.863 542.18 143.367 542.18C144.435 542.18 145.269 542.45 145.869 542.99C146.469 543.53 146.769 544.352 146.769 545.456V551H145.545L145.401 549.56C144.873 550.652 143.919 551.198 142.539 551.198C141.615 551.198 140.871 550.94 140.307 550.424C139.755 549.908 139.479 549.266 139.479 548.498C139.479 547.73 139.785 547.13 140.397 546.698C141.021 546.266 141.795 546.05 142.719 546.05C143.643 546.05 144.525 546.206 145.365 546.518V545.42ZM145.365 547.418C144.513 547.178 143.769 547.058 143.133 547.058C142.497 547.058 141.981 547.172 141.585 547.4C141.189 547.628 140.991 547.988 140.991 548.48C140.991 549.56 141.603 550.1 142.827 550.1C143.523 550.1 144.117 549.854 144.609 549.362C145.113 548.858 145.365 548.21 145.365 547.418ZM153.619 543.602C152.263 543.602 151.561 544.67 151.513 546.806V551H150.091V542.378H151.513V544.034C151.945 542.834 152.707 542.234 153.799 542.234C154.147 542.234 154.477 542.288 154.789 542.396L154.717 543.782C154.357 543.662 153.991 543.602 153.619 543.602ZM161.464 550.748C160.432 551.228 159.49 551.33 158.638 551.054C158.026 550.862 157.594 550.46 157.342 549.848C157.21 549.548 157.144 549.188 157.144 548.768V543.476H155.758V542.396H157.144V540.002H158.548V542.396H161.248V543.476H158.548V548.75C158.548 549.626 158.956 550.064 159.772 550.064C160.216 550.064 160.714 549.956 161.266 549.74L161.464 550.748ZM173.349 545.42C173.349 544.64 173.187 544.082 172.863 543.746C172.539 543.41 172.065 543.242 171.441 543.242C170.829 543.242 170.331 543.368 169.947 543.62C169.575 543.86 169.389 544.244 169.389 544.772H167.823C167.823 543.452 168.531 542.636 169.947 542.324C170.379 542.228 170.847 542.18 171.351 542.18C172.419 542.18 173.253 542.45 173.853 542.99C174.453 543.53 174.753 544.352 174.753 545.456V551H173.529L173.385 549.56C172.857 550.652 171.903 551.198 170.523 551.198C169.599 551.198 168.855 550.94 168.291 550.424C167.739 549.908 167.463 549.266 167.463 548.498C167.463 547.73 167.769 547.13 168.381 546.698C169.005 546.266 169.779 546.05 170.703 546.05C171.627 546.05 172.509 546.206 173.349 546.518V545.42ZM173.349 547.418C172.497 547.178 171.753 547.058 171.117 547.058C170.481 547.058 169.965 547.172 169.569 547.4C169.173 547.628 168.975 547.988 168.975 548.48C168.975 549.56 169.587 550.1 170.811 550.1C171.507 550.1 172.101 549.854 172.593 549.362C173.097 548.858 173.349 548.21 173.349 547.418ZM179.461 544.052C180.025 542.804 180.991 542.18 182.359 542.18C183.379 542.18 184.171 542.516 184.735 543.188C185.311 543.86 185.599 544.778 185.599 545.942V551H184.195V545.942C184.195 545.114 183.997 544.49 183.601 544.07C183.217 543.65 182.665 543.44 181.945 543.44C181.225 543.44 180.643 543.734 180.199 544.322C179.755 544.91 179.521 545.726 179.497 546.77V551H178.075V542.396H179.299L179.461 544.052ZM194.573 543.674V538.742H195.977V551H194.825L194.645 549.56C194.369 550.1 194.003 550.508 193.547 550.784C193.091 551.06 192.593 551.198 192.053 551.198C190.961 551.198 190.043 550.778 189.299 549.938C188.567 549.098 188.201 548.006 188.201 546.662C188.201 545.306 188.561 544.22 189.281 543.404C190.013 542.588 190.931 542.18 192.035 542.18C193.151 542.18 193.997 542.678 194.573 543.674ZM192.125 543.44C191.429 543.44 190.841 543.734 190.361 544.322C189.893 544.91 189.659 545.696 189.659 546.68C189.659 547.664 189.899 548.456 190.379 549.056C190.859 549.644 191.435 549.938 192.107 549.938C192.779 549.938 193.349 549.716 193.817 549.272C194.297 548.816 194.549 548.21 194.573 547.454V546.05C194.573 545.246 194.339 544.61 193.871 544.142C193.403 543.674 192.821 543.44 192.125 543.44ZM209.244 545.42C209.244 544.64 209.082 544.082 208.758 543.746C208.434 543.41 207.96 543.242 207.336 543.242C206.724 543.242 206.226 543.368 205.842 543.62C205.47 543.86 205.284 544.244 205.284 544.772H203.718C203.718 543.452 204.426 542.636 205.842 542.324C206.274 542.228 206.742 542.18 207.246 542.18C208.314 542.18 209.148 542.45 209.748 542.99C210.348 543.53 210.648 544.352 210.648 545.456V551H209.424L209.28 549.56C208.752 550.652 207.798 551.198 206.418 551.198C205.494 551.198 204.75 550.94 204.186 550.424C203.634 549.908 203.358 549.266 203.358 548.498C203.358 547.73 203.664 547.13 204.276 546.698C204.9 546.266 205.674 546.05 206.598 546.05C207.522 546.05 208.404 546.206 209.244 546.518V545.42ZM209.244 547.418C208.392 547.178 207.648 547.058 207.012 547.058C206.376 547.058 205.86 547.172 205.464 547.4C205.068 547.628 204.87 547.988 204.87 548.48C204.87 549.56 205.482 550.1 206.706 550.1C207.402 550.1 207.996 549.854 208.488 549.362C208.992 548.858 209.244 548.21 209.244 547.418ZM215.356 544.052C215.92 542.804 216.886 542.18 218.254 542.18C219.274 542.18 220.066 542.516 220.63 543.188C221.206 543.86 221.494 544.778 221.494 545.942V551H220.09V545.942C220.09 545.114 219.892 544.49 219.496 544.07C219.112 543.65 218.56 543.44 217.84 543.44C217.12 543.44 216.538 543.734 216.094 544.322C215.65 544.91 215.416 545.726 215.392 546.77V551H213.97V542.396H215.194L215.356 544.052ZM224.384 544.502C224.384 543.794 224.684 543.23 225.284 542.81C225.896 542.39 226.718 542.18 227.75 542.18C228.782 542.18 229.586 542.396 230.162 542.828C230.75 543.26 231.056 543.806 231.08 544.466H229.694C229.586 543.686 228.926 543.296 227.714 543.296C227.126 543.296 226.67 543.428 226.346 543.692C226.034 543.956 225.878 544.244 225.878 544.556C225.878 544.856 225.998 545.114 226.238 545.33C226.478 545.534 226.862 545.714 227.39 545.87L229.118 546.446C229.85 546.674 230.408 546.968 230.792 547.328C231.188 547.676 231.386 548.162 231.386 548.786C231.386 549.398 231.068 549.956 230.432 550.46C229.796 550.952 228.908 551.198 227.768 551.198C226.628 551.198 225.74 550.946 225.104 550.442C224.468 549.926 224.132 549.266 224.096 548.462H225.464C225.488 549.002 225.704 549.41 226.112 549.686C226.532 549.95 227.054 550.082 227.678 550.082C228.302 550.082 228.818 549.95 229.226 549.686C229.634 549.422 229.838 549.11 229.838 548.75C229.838 548.378 229.718 548.096 229.478 547.904C229.238 547.712 228.848 547.544 228.308 547.4L226.634 546.842C225.134 546.398 224.384 545.618 224.384 544.502ZM234.29 542.396L236.378 549.254L238.43 542.81H239.618L241.652 549.326L243.758 542.396H245.162L242.354 551H240.968L238.988 544.97L237.044 551H235.676L232.814 542.396H234.29ZM250.321 550.046C251.509 550.046 252.187 549.524 252.355 548.48H253.813C253.681 549.344 253.297 550.016 252.661 550.496C252.037 550.964 251.257 551.198 250.321 551.198C249.169 551.198 248.233 550.79 247.513 549.974C246.793 549.146 246.433 548.048 246.433 546.68C246.433 545.312 246.793 544.22 247.513 543.404C248.245 542.588 249.211 542.18 250.411 542.18C251.623 542.18 252.523 542.648 253.111 543.584C253.711 544.52 253.921 545.66 253.741 547.004H247.855C247.855 547.892 248.071 548.624 248.503 549.2C248.935 549.764 249.541 550.046 250.321 550.046ZM251.365 543.53C251.089 543.386 250.753 543.314 250.357 543.314C249.625 543.314 249.043 543.566 248.611 544.07C248.191 544.562 247.945 545.18 247.873 545.924H252.463C252.463 544.724 252.097 543.926 251.365 543.53ZM260.125 543.602C258.769 543.602 258.067 544.67 258.019 546.806V551H256.597V542.378H258.019V544.034C258.451 542.834 259.213 542.234 260.305 542.234C260.653 542.234 260.983 542.288 261.295 542.396L261.223 543.782C260.863 543.662 260.497 543.602 260.125 543.602ZM263.02 544.502C263.02 543.794 263.32 543.23 263.92 542.81C264.532 542.39 265.354 542.18 266.386 542.18C267.418 542.18 268.222 542.396 268.798 542.828C269.386 543.26 269.692 543.806 269.716 544.466H268.33C268.222 543.686 267.562 543.296 266.35 543.296C265.762 543.296 265.306 543.428 264.982 543.692C264.67 543.956 264.514 544.244 264.514 544.556C264.514 544.856 264.634 545.114 264.874 545.33C265.114 545.534 265.498 545.714 266.026 545.87L267.754 546.446C268.486 546.674 269.044 546.968 269.428 547.328C269.824 547.676 270.022 548.162 270.022 548.786C270.022 549.398 269.704 549.956 269.068 550.46C268.432 550.952 267.544 551.198 266.404 551.198C265.264 551.198 264.376 550.946 263.74 550.442C263.104 549.926 262.768 549.266 262.732 548.462H264.1C264.124 549.002 264.34 549.41 264.748 549.686C265.168 549.95 265.69 550.082 266.314 550.082C266.938 550.082 267.454 549.95 267.862 549.686C268.27 549.422 268.474 549.11 268.474 548.75C268.474 548.378 268.354 548.096 268.114 547.904C267.874 547.712 267.484 547.544 266.944 547.4L265.27 546.842C263.77 546.398 263.02 545.618 263.02 544.502ZM281.734 550.748C280.702 551.228 279.76 551.33 278.908 551.054C278.296 550.862 277.864 550.46 277.612 549.848C277.48 549.548 277.414 549.188 277.414 548.768V543.476H276.028V542.396H277.414V540.002H278.818V542.396H281.518V543.476H278.818V548.75C278.818 549.626 279.226 550.064 280.042 550.064C280.486 550.064 280.984 549.956 281.536 549.74L281.734 550.748ZM287.098 542.18C288.298 542.18 289.264 542.57 289.996 543.35C290.74 544.13 291.112 545.246 291.112 546.698C291.112 548.138 290.74 549.248 289.996 550.028C289.264 550.808 288.298 551.198 287.098 551.198C285.898 551.198 284.926 550.808 284.182 550.028C283.45 549.248 283.084 548.138 283.084 546.698C283.084 545.246 283.45 544.13 284.182 543.35C284.926 542.57 285.898 542.18 287.098 542.18ZM289.672 546.698C289.672 545.666 289.456 544.862 289.024 544.286C288.592 543.698 287.956 543.404 287.116 543.404C286.288 543.404 285.652 543.698 285.208 544.286C284.764 544.862 284.542 545.666 284.542 546.698C284.542 547.718 284.752 548.522 285.172 549.11C285.592 549.686 286.216 549.974 287.044 549.974C287.884 549.974 288.532 549.686 288.988 549.11C289.444 548.522 289.672 547.718 289.672 546.698ZM296.389 553.502C296.977 553.958 297.595 554.186 298.243 554.186C298.723 554.186 299.137 553.946 299.485 553.466C299.737 553.118 299.965 552.59 300.169 551.882L300.421 551L296.893 542.396H298.477L301.087 549.254L303.121 542.396H304.561L301.339 552.71C301.063 553.586 300.697 554.258 300.241 554.726C299.797 555.194 299.227 555.428 298.531 555.428C297.847 555.428 297.133 555.218 296.389 554.798V553.502ZM309.932 542.18C311.132 542.18 312.098 542.57 312.83 543.35C313.574 544.13 313.946 545.246 313.946 546.698C313.946 548.138 313.574 549.248 312.83 550.028C312.098 550.808 311.132 551.198 309.932 551.198C308.732 551.198 307.76 550.808 307.016 550.028C306.284 549.248 305.918 548.138 305.918 546.698C305.918 545.246 306.284 544.13 307.016 543.35C307.76 542.57 308.732 542.18 309.932 542.18ZM312.506 546.698C312.506 545.666 312.29 544.862 311.858 544.286C311.426 543.698 310.79 543.404 309.95 543.404C309.122 543.404 308.486 543.698 308.042 544.286C307.598 544.862 307.376 545.666 307.376 546.698C307.376 547.718 307.586 548.522 308.006 549.11C308.426 549.686 309.05 549.974 309.878 549.974C310.718 549.974 311.366 549.686 311.822 549.11C312.278 548.522 312.506 547.718 312.506 546.698ZM322.512 549.29C321.924 550.538 320.97 551.162 319.65 551.162C318.678 551.162 317.892 550.892 317.292 550.352C316.704 549.812 316.41 548.978 316.41 547.85V542.378H317.832V547.742C317.832 549.194 318.504 549.92 319.848 549.92C320.628 549.92 321.258 549.62 321.738 549.02C322.23 548.42 322.488 547.652 322.512 546.716V542.378H323.934V551H322.512V549.29ZM331.088 543.602C329.732 543.602 329.03 544.67 328.982 546.806V551H327.56V542.378H328.982V544.034C329.414 542.834 330.176 542.234 331.268 542.234C331.616 542.234 331.946 542.288 332.258 542.396L332.186 543.782C331.826 543.662 331.46 543.602 331.088 543.602ZM75.914 563.18C77.114 563.18 78.08 563.57 78.812 564.35C79.556 565.13 79.928 566.246 79.928 567.698C79.928 569.138 79.556 570.248 78.812 571.028C78.08 571.808 77.114 572.198 75.914 572.198C74.714 572.198 73.742 571.808 72.998 571.028C72.266 570.248 71.9 569.138 71.9 567.698C71.9 566.246 72.266 565.13 72.998 564.35C73.742 563.57 74.714 563.18 75.914 563.18ZM78.488 567.698C78.488 566.666 78.272 565.862 77.84 565.286C77.408 564.698 76.772 564.404 75.932 564.404C75.104 564.404 74.468 564.698 74.024 565.286C73.58 565.862 73.358 566.666 73.358 567.698C73.358 568.718 73.568 569.522 73.988 570.11C74.408 570.686 75.032 570.974 75.86 570.974C76.7 570.974 77.348 570.686 77.804 570.11C78.26 569.522 78.488 568.718 78.488 567.698ZM84.0122 565.052C84.5762 563.804 85.5422 563.18 86.9102 563.18C87.9302 563.18 88.7222 563.516 89.2862 564.188C89.8622 564.86 90.1502 565.778 90.1502 566.942V572H88.7462V566.942C88.7462 566.114 88.5482 565.49 88.1522 565.07C87.7682 564.65 87.2162 564.44 86.4962 564.44C85.7762 564.44 85.1942 564.734 84.7502 565.322C84.3062 565.91 84.0722 566.726 84.0482 567.77V572H82.6262V563.396H83.8502L84.0122 565.052ZM94.9119 564.674C95.4879 563.678 96.3279 563.18 97.4319 563.18C98.5359 563.18 99.4539 563.594 100.186 564.422C100.918 565.238 101.284 566.324 101.284 567.68C101.284 569.024 100.912 570.116 100.168 570.956C99.4239 571.784 98.5179 572.198 97.4499 572.198C96.8739 572.198 96.3519 572.054 95.8839 571.766C95.4279 571.478 95.0679 571.052 94.8039 570.488L94.4799 572H93.4899V559.742H94.9119V564.674ZM97.3419 564.44C96.6579 564.44 96.0879 564.662 95.6319 565.106C95.1759 565.538 94.9359 566.144 94.9119 566.924V568.328C94.9119 569.12 95.1459 569.756 95.6139 570.236C96.0939 570.704 96.6699 570.938 97.3419 570.938C98.0139 570.938 98.5959 570.644 99.0879 570.056C99.5799 569.456 99.8259 568.664 99.8259 567.68C99.8259 566.696 99.5799 565.91 99.0879 565.322C98.6079 564.734 98.0259 564.44 97.3419 564.44ZM107.098 563.18C108.298 563.18 109.264 563.57 109.996 564.35C110.74 565.13 111.112 566.246 111.112 567.698C111.112 569.138 110.74 570.248 109.996 571.028C109.264 571.808 108.298 572.198 107.098 572.198C105.898 572.198 104.926 571.808 104.182 571.028C103.45 570.248 103.084 569.138 103.084 567.698C103.084 566.246 103.45 565.13 104.182 564.35C104.926 563.57 105.898 563.18 107.098 563.18ZM109.672 567.698C109.672 566.666 109.456 565.862 109.024 565.286C108.592 564.698 107.956 564.404 107.116 564.404C106.288 564.404 105.652 564.698 105.208 565.286C104.764 565.862 104.542 566.666 104.542 567.698C104.542 568.718 104.752 569.522 105.172 570.11C105.592 570.686 106.216 570.974 107.044 570.974C107.884 570.974 108.532 570.686 108.988 570.11C109.444 569.522 109.672 568.718 109.672 567.698ZM119.156 566.42C119.156 565.64 118.994 565.082 118.67 564.746C118.346 564.41 117.872 564.242 117.248 564.242C116.636 564.242 116.138 564.368 115.754 564.62C115.382 564.86 115.196 565.244 115.196 565.772H113.63C113.63 564.452 114.338 563.636 115.754 563.324C116.186 563.228 116.654 563.18 117.158 563.18C118.226 563.18 119.06 563.45 119.66 563.99C120.26 564.53 120.56 565.352 120.56 566.456V572H119.336L119.192 570.56C118.664 571.652 117.71 572.198 116.33 572.198C115.406 572.198 114.662 571.94 114.098 571.424C113.546 570.908 113.27 570.266 113.27 569.498C113.27 568.73 113.576 568.13 114.188 567.698C114.812 567.266 115.586 567.05 116.51 567.05C117.434 567.05 118.316 567.206 119.156 567.518V566.42ZM119.156 568.418C118.304 568.178 117.56 568.058 116.924 568.058C116.288 568.058 115.772 568.172 115.376 568.4C114.98 568.628 114.782 568.988 114.782 569.48C114.782 570.56 115.394 571.1 116.618 571.1C117.314 571.1 117.908 570.854 118.4 570.362C118.904 569.858 119.156 569.21 119.156 568.418ZM127.41 564.602C126.054 564.602 125.352 565.67 125.304 567.806V572H123.882V563.378H125.304V565.034C125.736 563.834 126.498 563.234 127.59 563.234C127.938 563.234 128.268 563.288 128.58 563.396L128.508 564.782C128.148 564.662 127.782 564.602 127.41 564.602ZM136.39 564.674V559.742H137.794V572H136.642L136.462 570.56C136.186 571.1 135.82 571.508 135.364 571.784C134.908 572.06 134.41 572.198 133.87 572.198C132.778 572.198 131.86 571.778 131.116 570.938C130.384 570.098 130.018 569.006 130.018 567.662C130.018 566.306 130.378 565.22 131.098 564.404C131.83 563.588 132.748 563.18 133.852 563.18C134.968 563.18 135.814 563.678 136.39 564.674ZM133.942 564.44C133.246 564.44 132.658 564.734 132.178 565.322C131.71 565.91 131.476 566.696 131.476 567.68C131.476 568.664 131.716 569.456 132.196 570.056C132.676 570.644 133.252 570.938 133.924 570.938C134.596 570.938 135.166 570.716 135.634 570.272C136.114 569.816 136.366 569.21 136.39 568.454V567.05C136.39 566.246 136.156 565.61 135.688 565.142C135.22 564.674 134.638 564.44 133.942 564.44ZM141.533 563.378H142.955V572H141.533V563.378ZM142.235 561.362C141.947 561.362 141.719 561.284 141.551 561.128C141.395 560.96 141.317 560.744 141.317 560.48C141.317 560.204 141.395 559.988 141.551 559.832C141.719 559.664 141.947 559.58 142.235 559.58C142.523 559.58 142.751 559.664 142.919 559.832C143.099 559.988 143.189 560.204 143.189 560.48C143.189 560.744 143.099 560.96 142.919 561.128C142.751 561.284 142.523 561.362 142.235 561.362ZM148.19 565.052C148.754 563.804 149.72 563.18 151.088 563.18C152.108 563.18 152.9 563.516 153.464 564.188C154.04 564.86 154.328 565.778 154.328 566.942V572H152.924V566.942C152.924 566.114 152.726 565.49 152.33 565.07C151.946 564.65 151.394 564.44 150.674 564.44C149.954 564.44 149.372 564.734 148.928 565.322C148.484 565.91 148.25 566.726 148.226 567.77V572H146.804V563.396H148.028L148.19 565.052ZM158.028 571.73C157.308 571.382 156.948 570.848 156.948 570.128C156.948 569.756 157.086 569.432 157.362 569.156C157.65 568.868 158.004 568.676 158.424 568.58C157.776 568.004 157.452 567.248 157.452 566.312C157.452 565.376 157.782 564.62 158.442 564.044C159.114 563.468 159.906 563.18 160.818 563.18C161.73 563.18 162.504 563.396 163.14 563.828C163.224 563.192 163.476 562.682 163.896 562.298C164.328 561.914 164.892 561.722 165.588 561.722L165.462 563.126C164.406 563.126 163.854 563.57 163.806 564.458C164.226 564.974 164.436 565.592 164.436 566.312C164.436 567.236 164.1 567.998 163.428 568.598C162.768 569.186 161.94 569.48 160.944 569.48C160.26 569.48 159.654 569.342 159.126 569.066C158.886 569.114 158.67 569.228 158.478 569.408C158.286 569.576 158.19 569.81 158.19 570.11C158.19 570.746 158.718 571.064 159.774 571.064H163.122C163.926 571.064 164.562 571.238 165.03 571.586C165.498 571.922 165.732 572.396 165.732 573.008C165.732 573.92 165.27 574.718 164.346 575.402C163.434 576.086 162.276 576.428 160.872 576.428C159.468 576.428 158.364 576.164 157.56 575.636C156.756 575.12 156.354 574.466 156.354 573.674C156.354 573.158 156.504 572.738 156.804 572.414C157.116 572.09 157.524 571.862 158.028 571.73ZM157.758 573.62C157.758 574.076 158.004 574.466 158.496 574.79C159 575.126 159.756 575.294 160.764 575.294C161.784 575.294 162.63 575.072 163.302 574.628C163.986 574.196 164.328 573.686 164.328 573.098C164.328 572.822 164.226 572.582 164.022 572.378C163.83 572.186 163.53 572.09 163.122 572.09H159.648C159.036 572.114 158.568 572.258 158.244 572.522C157.92 572.798 157.758 573.164 157.758 573.62ZM163.05 566.312C163.05 565.688 162.864 565.184 162.492 564.8C162.12 564.404 161.604 564.206 160.944 564.206C160.296 564.206 159.786 564.404 159.414 564.8C159.042 565.184 158.856 565.688 158.856 566.312C158.856 566.936 159.042 567.452 159.414 567.86C159.798 568.256 160.314 568.454 160.962 568.454C161.61 568.454 162.12 568.25 162.492 567.842C162.864 567.434 163.05 566.924 163.05 566.312ZM175.068 563.18C176.292 563.18 177.18 563.72 177.732 564.8L178.038 563.396H179.01V573.458C179.01 574.046 179.076 574.436 179.208 574.628C179.352 574.832 179.508 574.976 179.676 575.06C179.856 575.156 180.072 575.246 180.324 575.33L179.856 576.428C179.04 576.212 178.458 575.87 178.11 575.402C177.774 574.934 177.606 574.256 177.606 573.368V570.632C177.114 571.676 176.304 572.198 175.176 572.198C174.06 572.198 173.124 571.79 172.368 570.974C171.612 570.146 171.234 569.054 171.234 567.698C171.234 566.342 171.606 565.25 172.35 564.422C173.106 563.594 174.012 563.18 175.068 563.18ZM175.194 564.44C174.498 564.44 173.904 564.734 173.412 565.322C172.932 565.91 172.692 566.708 172.692 567.716C172.692 568.712 172.95 569.498 173.466 570.074C173.982 570.65 174.582 570.938 175.266 570.938C176.25 570.938 176.952 570.5 177.372 569.624C177.516 569.348 177.594 569.018 177.606 568.634V566.996C177.606 566.204 177.378 565.58 176.922 565.124C176.466 564.668 175.89 564.44 175.194 564.44ZM188.514 570.29C187.926 571.538 186.972 572.162 185.652 572.162C184.68 572.162 183.894 571.892 183.294 571.352C182.706 570.812 182.412 569.978 182.412 568.85V563.378H183.834V568.742C183.834 570.194 184.506 570.92 185.85 570.92C186.63 570.92 187.26 570.62 187.74 570.02C188.232 569.42 188.49 568.652 188.514 567.716V563.378H189.936V572H188.514V570.29ZM196.55 571.046C197.738 571.046 198.416 570.524 198.584 569.48H200.042C199.91 570.344 199.526 571.016 198.89 571.496C198.266 571.964 197.486 572.198 196.55 572.198C195.398 572.198 194.462 571.79 193.742 570.974C193.022 570.146 192.662 569.048 192.662 567.68C192.662 566.312 193.022 565.22 193.742 564.404C194.474 563.588 195.44 563.18 196.64 563.18C197.852 563.18 198.752 563.648 199.34 564.584C199.94 565.52 200.15 566.66 199.97 568.004H194.084C194.084 568.892 194.3 569.624 194.732 570.2C195.164 570.764 195.77 571.046 196.55 571.046ZM197.594 564.53C197.318 564.386 196.982 564.314 196.586 564.314C195.854 564.314 195.272 564.566 194.84 565.07C194.42 565.562 194.174 566.18 194.102 566.924H198.692C198.692 565.724 198.326 564.926 197.594 564.53ZM202.393 565.502C202.393 564.794 202.693 564.23 203.293 563.81C203.905 563.39 204.727 563.18 205.759 563.18C206.791 563.18 207.595 563.396 208.171 563.828C208.759 564.26 209.065 564.806 209.089 565.466H207.703C207.595 564.686 206.935 564.296 205.723 564.296C205.135 564.296 204.679 564.428 204.355 564.692C204.043 564.956 203.887 565.244 203.887 565.556C203.887 565.856 204.007 566.114 204.247 566.33C204.487 566.534 204.871 566.714 205.399 566.87L207.127 567.446C207.859 567.674 208.417 567.968 208.801 568.328C209.197 568.676 209.395 569.162 209.395 569.786C209.395 570.398 209.077 570.956 208.441 571.46C207.805 571.952 206.917 572.198 205.777 572.198C204.637 572.198 203.749 571.946 203.113 571.442C202.477 570.926 202.141 570.266 202.105 569.462H203.473C203.497 570.002 203.713 570.41 204.121 570.686C204.541 570.95 205.063 571.082 205.687 571.082C206.311 571.082 206.827 570.95 207.235 570.686C207.643 570.422 207.847 570.11 207.847 569.75C207.847 569.378 207.727 569.096 207.487 568.904C207.247 568.712 206.857 568.544 206.317 568.4L204.643 567.842C203.143 567.398 202.393 566.618 202.393 565.502ZM216.818 571.748C215.786 572.228 214.844 572.33 213.992 572.054C213.38 571.862 212.948 571.46 212.696 570.848C212.564 570.548 212.498 570.188 212.498 569.768V564.476H211.112V563.396H212.498V561.002H213.902V563.396H216.602V564.476H213.902V569.75C213.902 570.626 214.31 571.064 215.126 571.064C215.57 571.064 216.068 570.956 216.62 570.74L216.818 571.748ZM219.176 563.378H220.598V572H219.176V563.378ZM219.878 561.362C219.59 561.362 219.362 561.284 219.194 561.128C219.038 560.96 218.96 560.744 218.96 560.48C218.96 560.204 219.038 559.988 219.194 559.832C219.362 559.664 219.59 559.58 219.878 559.58C220.166 559.58 220.394 559.664 220.562 559.832C220.742 559.988 220.832 560.204 220.832 560.48C220.832 560.744 220.742 560.96 220.562 561.128C220.394 561.284 220.166 561.362 219.878 561.362ZM227.56 563.18C228.76 563.18 229.726 563.57 230.458 564.35C231.202 565.13 231.574 566.246 231.574 567.698C231.574 569.138 231.202 570.248 230.458 571.028C229.726 571.808 228.76 572.198 227.56 572.198C226.36 572.198 225.388 571.808 224.644 571.028C223.912 570.248 223.546 569.138 223.546 567.698C223.546 566.246 223.912 565.13 224.644 564.35C225.388 563.57 226.36 563.18 227.56 563.18ZM230.134 567.698C230.134 566.666 229.918 565.862 229.486 565.286C229.054 564.698 228.418 564.404 227.578 564.404C226.75 564.404 226.114 564.698 225.67 565.286C225.226 565.862 225.004 566.666 225.004 567.698C225.004 568.718 225.214 569.522 225.634 570.11C226.054 570.686 226.678 570.974 227.506 570.974C228.346 570.974 228.994 570.686 229.45 570.11C229.906 569.522 230.134 568.718 230.134 567.698ZM235.659 565.052C236.223 563.804 237.189 563.18 238.557 563.18C239.577 563.18 240.369 563.516 240.933 564.188C241.509 564.86 241.797 565.778 241.797 566.942V572H240.393V566.942C240.393 566.114 240.195 565.49 239.799 565.07C239.415 564.65 238.863 564.44 238.143 564.44C237.423 564.44 236.841 564.734 236.397 565.322C235.953 565.91 235.719 566.726 235.695 567.77V572H234.273V563.396H235.497L235.659 565.052ZM250.464 566.42C250.464 565.64 250.302 565.082 249.978 564.746C249.654 564.41 249.18 564.242 248.556 564.242C247.944 564.242 247.446 564.368 247.062 564.62C246.69 564.86 246.504 565.244 246.504 565.772H244.938C244.938 564.452 245.646 563.636 247.062 563.324C247.494 563.228 247.962 563.18 248.466 563.18C249.534 563.18 250.368 563.45 250.968 563.99C251.568 564.53 251.868 565.352 251.868 566.456V572H250.644L250.5 570.56C249.972 571.652 249.018 572.198 247.638 572.198C246.714 572.198 245.97 571.94 245.406 571.424C244.854 570.908 244.578 570.266 244.578 569.498C244.578 568.73 244.884 568.13 245.496 567.698C246.12 567.266 246.894 567.05 247.818 567.05C248.742 567.05 249.624 567.206 250.464 567.518V566.42ZM250.464 568.418C249.612 568.178 248.868 568.058 248.232 568.058C247.596 568.058 247.08 568.172 246.684 568.4C246.288 568.628 246.09 568.988 246.09 569.48C246.09 570.56 246.702 571.1 247.926 571.1C248.622 571.1 249.216 570.854 249.708 570.362C250.212 569.858 250.464 569.21 250.464 568.418ZM255.299 563.378H256.721V572H255.299V563.378ZM256.001 561.362C255.713 561.362 255.485 561.284 255.317 561.128C255.161 560.96 255.083 560.744 255.083 560.48C255.083 560.204 255.161 559.988 255.317 559.832C255.485 559.664 255.713 559.58 256.001 559.58C256.289 559.58 256.517 559.664 256.685 559.832C256.865 559.988 256.955 560.204 256.955 560.48C256.955 560.744 256.865 560.96 256.685 561.128C256.517 561.284 256.289 561.362 256.001 561.362ZM264.098 564.602C262.742 564.602 262.04 565.67 261.992 567.806V572H260.57V563.378H261.992V565.034C262.424 563.834 263.186 563.234 264.278 563.234C264.626 563.234 264.956 563.288 265.268 563.396L265.196 564.782C264.836 564.662 264.47 564.602 264.098 564.602ZM270.413 571.046C271.601 571.046 272.279 570.524 272.447 569.48H273.905C273.773 570.344 273.389 571.016 272.753 571.496C272.129 571.964 271.349 572.198 270.413 572.198C269.261 572.198 268.325 571.79 267.605 570.974C266.885 570.146 266.525 569.048 266.525 567.68C266.525 566.312 266.885 565.22 267.605 564.404C268.337 563.588 269.303 563.18 270.503 563.18C271.715 563.18 272.615 563.648 273.203 564.584C273.803 565.52 274.013 566.66 273.833 568.004H267.947C267.947 568.892 268.163 569.624 268.595 570.2C269.027 570.764 269.633 571.046 270.413 571.046ZM271.457 564.53C271.181 564.386 270.845 564.314 270.449 564.314C269.717 564.314 269.135 564.566 268.703 565.07C268.283 565.562 268.037 566.18 267.965 566.924H272.555C272.555 565.724 272.189 564.926 271.457 564.53ZM276.473 572.162C276.173 572.162 275.921 572.066 275.717 571.874C275.525 571.67 275.429 571.43 275.429 571.154C275.429 570.866 275.525 570.626 275.717 570.434C275.921 570.23 276.173 570.128 276.473 570.128C276.785 570.128 277.043 570.23 277.247 570.434C277.451 570.626 277.553 570.866 277.553 571.154C277.553 571.43 277.451 571.67 277.247 571.874C277.043 572.066 276.785 572.162 276.473 572.162Z" fill="white"/>
<rect x="0.5" y="0.5" width="413" height="770" stroke="#181826"/>
<defs>
<clipPath id="clip0">
<rect width="370" height="220" fill="white" transform="translate(20 181)"/>
</clipPath>
</defs>
</svg>
