<svg width="653" height="39" viewBox="0 0 653 39" fill="none" xmlns="http://www.w3.org/2000/svg">
<path d="M21.3203 1.5625V20.8984C21.3073 23.5807 20.4609 25.7747 18.7812 27.4805C17.1146 29.1862 14.849 30.1432 11.9844 30.3516L10.9883 30.3906C7.8763 30.3906 5.39583 29.5508 3.54688 27.8711C1.69792 26.1914 0.760417 23.8802 0.734375 20.9375V1.5625H4.44531V20.8203C4.44531 22.8776 5.01172 24.4792 6.14453 25.625C7.27734 26.7578 8.89193 27.3242 10.9883 27.3242C13.1107 27.3242 14.7318 26.7578 15.8516 25.625C16.9844 24.4922 17.5508 22.8971 17.5508 20.8398V1.5625H21.3203ZM38.9766 24.3945C38.9766 23.418 38.6055 22.6628 37.8633 22.1289C37.1341 21.582 35.8516 21.1133 34.0156 20.7227C32.1927 20.332 30.7409 19.8633 29.6602 19.3164C28.5924 18.7695 27.7982 18.1185 27.2773 17.3633C26.7695 16.6081 26.5156 15.7096 26.5156 14.668C26.5156 12.9362 27.2448 11.4714 28.7031 10.2734C30.1745 9.07552 32.0495 8.47656 34.3281 8.47656C36.724 8.47656 38.6641 9.09505 40.1484 10.332C41.6458 11.569 42.3945 13.151 42.3945 15.0781H38.7617C38.7617 14.0885 38.3385 13.2357 37.4922 12.5195C36.6589 11.8034 35.6042 11.4453 34.3281 11.4453C33.013 11.4453 31.9844 11.7318 31.2422 12.3047C30.5 12.8776 30.1289 13.6263 30.1289 14.5508C30.1289 15.4232 30.474 16.0807 31.1641 16.5234C31.8542 16.9661 33.0977 17.3893 34.8945 17.793C36.7044 18.1966 38.1693 18.6784 39.2891 19.2383C40.4089 19.7982 41.2357 20.4753 41.7695 21.2695C42.3164 22.0508 42.5898 23.0078 42.5898 24.1406C42.5898 26.0286 41.8346 27.5456 40.3242 28.6914C38.8138 29.8242 36.8542 30.3906 34.4453 30.3906C32.7526 30.3906 31.2552 30.0911 29.9531 29.4922C28.651 28.8932 27.6289 28.0599 26.8867 26.9922C26.1576 25.9115 25.793 24.7461 25.793 23.4961H29.4062C29.4714 24.707 29.9531 25.6706 30.8516 26.3867C31.763 27.0898 32.9609 27.4414 34.4453 27.4414C35.8125 27.4414 36.9062 27.168 37.7266 26.6211C38.5599 26.0612 38.9766 25.319 38.9766 24.3945ZM56.0664 30.3906C53.2018 30.3906 50.8711 29.4531 49.0742 27.5781C47.2773 25.6901 46.3789 23.1706 46.3789 20.0195V19.3555C46.3789 17.2591 46.776 15.3906 47.5703 13.75C48.3776 12.0964 49.4974 10.8073 50.9297 9.88281C52.375 8.94531 53.9375 8.47656 55.6172 8.47656C58.3646 8.47656 60.5 9.38151 62.0234 11.1914C63.5469 13.0013 64.3086 15.5924 64.3086 18.9648V20.4688H49.9922C50.0443 22.5521 50.6497 24.2383 51.8086 25.5273C52.9805 26.8034 54.4648 27.4414 56.2617 27.4414C57.5378 27.4414 58.6185 27.181 59.5039 26.6602C60.3893 26.1393 61.1641 25.4492 61.8281 24.5898L64.0352 26.3086C62.2643 29.0299 59.6081 30.3906 56.0664 30.3906ZM55.6172 11.4453C54.1589 11.4453 52.9349 11.9792 51.9453 13.0469C50.9557 14.1016 50.3438 15.5859 50.1094 17.5H60.6953V17.2266C60.5911 15.3906 60.0964 13.9714 59.2109 12.9688C58.3255 11.9531 57.1276 11.4453 55.6172 11.4453ZM78.7227 12.1094C78.1758 12.0182 77.5833 11.9727 76.9453 11.9727C74.5755 11.9727 72.9674 12.9818 72.1211 15V30H68.5078V8.86719H72.0234L72.082 11.3086C73.2669 9.42057 74.9466 8.47656 77.1211 8.47656C77.8242 8.47656 78.3581 8.56771 78.7227 8.75V12.1094ZM108.234 17.4414H96.3008V30H92.5508V1.5625H110.168V4.64844H96.3008V14.375H108.234V17.4414ZM118.02 30H114.406V0H118.02V30ZM122.863 19.2383C122.863 17.168 123.267 15.306 124.074 13.6523C124.895 11.9987 126.027 10.7227 127.473 9.82422C128.931 8.92578 130.591 8.47656 132.453 8.47656C135.331 8.47656 137.655 9.47266 139.426 11.4648C141.21 13.457 142.102 16.1068 142.102 19.4141V19.668C142.102 21.7253 141.704 23.5742 140.91 25.2148C140.129 26.8424 139.003 28.112 137.531 29.0234C136.073 29.9349 134.393 30.3906 132.492 30.3906C129.628 30.3906 127.303 29.3945 125.52 27.4023C123.749 25.4102 122.863 22.7734 122.863 19.4922V19.2383ZM126.496 19.668C126.496 22.0117 127.036 23.8932 128.117 25.3125C129.211 26.7318 130.669 27.4414 132.492 27.4414C134.328 27.4414 135.786 26.7253 136.867 25.293C137.948 23.8477 138.488 21.8294 138.488 19.2383C138.488 16.9206 137.935 15.0456 136.828 13.6133C135.734 12.168 134.276 11.4453 132.453 11.4453C130.669 11.4453 129.23 12.1549 128.137 13.5742C127.043 14.9935 126.496 17.0247 126.496 19.668ZM165.344 25.0195L169.406 8.86719H173.02L166.867 30H163.938L158.801 13.9844L153.801 30H150.871L144.738 8.86719H148.332L152.492 24.6875L157.414 8.86719H160.324L165.344 25.0195ZM191.516 14.0234H194.23C195.936 13.9974 197.277 13.5482 198.254 12.6758C199.23 11.8034 199.719 10.625 199.719 9.14062C199.719 5.80729 198.059 4.14062 194.738 4.14062C193.176 4.14062 191.926 4.58984 190.988 5.48828C190.064 6.3737 189.602 7.55208 189.602 9.02344H185.988C185.988 6.77083 186.809 4.90234 188.449 3.41797C190.103 1.92057 192.199 1.17188 194.738 1.17188C197.421 1.17188 199.523 1.88151 201.047 3.30078C202.57 4.72005 203.332 6.69271 203.332 9.21875C203.332 10.4557 202.928 11.6536 202.121 12.8125C201.327 13.9714 200.24 14.8372 198.859 15.4102C200.422 15.9049 201.626 16.7253 202.473 17.8711C203.332 19.0169 203.762 20.4167 203.762 22.0703C203.762 24.6224 202.928 26.6471 201.262 28.1445C199.595 29.6419 197.427 30.3906 194.758 30.3906C192.089 30.3906 189.914 29.668 188.234 28.2227C186.568 26.7773 185.734 24.8698 185.734 22.5H189.367C189.367 23.9974 189.855 25.1953 190.832 26.0938C191.809 26.9922 193.117 27.4414 194.758 27.4414C196.503 27.4414 197.837 26.9857 198.762 26.0742C199.686 25.1628 200.148 23.8542 200.148 22.1484C200.148 20.4948 199.641 19.2253 198.625 18.3398C197.609 17.4544 196.145 16.9987 194.23 16.9727H191.516V14.0234ZM208.977 28.1055C208.977 27.4805 209.159 26.9596 209.523 26.543C209.901 26.1263 210.461 25.918 211.203 25.918C211.945 25.918 212.505 26.1263 212.883 26.543C213.273 26.9596 213.469 27.4805 213.469 28.1055C213.469 28.7044 213.273 29.2057 212.883 29.6094C212.505 30.013 211.945 30.2148 211.203 30.2148C210.461 30.2148 209.901 30.013 209.523 29.6094C209.159 29.2057 208.977 28.7044 208.977 28.1055ZM208.996 10.8594C208.996 10.2344 209.178 9.71354 209.543 9.29688C209.921 8.88021 210.48 8.67188 211.223 8.67188C211.965 8.67188 212.525 8.88021 212.902 9.29688C213.293 9.71354 213.488 10.2344 213.488 10.8594C213.488 11.4583 213.293 11.9596 212.902 12.3633C212.525 12.7669 211.965 12.9688 211.223 12.9688C210.48 12.9688 209.921 12.7669 209.543 12.3633C209.178 11.9596 208.996 11.4583 208.996 10.8594ZM249.289 1.5625V20.8984C249.276 23.5807 248.43 25.7747 246.75 27.4805C245.083 29.1862 242.818 30.1432 239.953 30.3516L238.957 30.3906C235.845 30.3906 233.365 29.5508 231.516 27.8711C229.667 26.1914 228.729 23.8802 228.703 20.9375V1.5625H232.414V20.8203C232.414 22.8776 232.98 24.4792 234.113 25.625C235.246 26.7578 236.861 27.3242 238.957 27.3242C241.079 27.3242 242.701 26.7578 243.82 25.625C244.953 24.4922 245.52 22.8971 245.52 20.8398V1.5625H249.289ZM266.945 24.3945C266.945 23.418 266.574 22.6628 265.832 22.1289C265.103 21.582 263.82 21.1133 261.984 20.7227C260.161 20.332 258.71 19.8633 257.629 19.3164C256.561 18.7695 255.767 18.1185 255.246 17.3633C254.738 16.6081 254.484 15.7096 254.484 14.668C254.484 12.9362 255.214 11.4714 256.672 10.2734C258.143 9.07552 260.018 8.47656 262.297 8.47656C264.693 8.47656 266.633 9.09505 268.117 10.332C269.615 11.569 270.363 13.151 270.363 15.0781H266.73C266.73 14.0885 266.307 13.2357 265.461 12.5195C264.628 11.8034 263.573 11.4453 262.297 11.4453C260.982 11.4453 259.953 11.7318 259.211 12.3047C258.469 12.8776 258.098 13.6263 258.098 14.5508C258.098 15.4232 258.443 16.0807 259.133 16.5234C259.823 16.9661 261.066 17.3893 262.863 17.793C264.673 18.1966 266.138 18.6784 267.258 19.2383C268.378 19.7982 269.204 20.4753 269.738 21.2695C270.285 22.0508 270.559 23.0078 270.559 24.1406C270.559 26.0286 269.803 27.5456 268.293 28.6914C266.783 29.8242 264.823 30.3906 262.414 30.3906C260.721 30.3906 259.224 30.0911 257.922 29.4922C256.62 28.8932 255.598 28.0599 254.855 26.9922C254.126 25.9115 253.762 24.7461 253.762 23.4961H257.375C257.44 24.707 257.922 25.6706 258.82 26.3867C259.732 27.0898 260.93 27.4414 262.414 27.4414C263.781 27.4414 264.875 27.168 265.695 26.6211C266.529 26.0612 266.945 25.319 266.945 24.3945ZM284.035 30.3906C281.171 30.3906 278.84 29.4531 277.043 27.5781C275.246 25.6901 274.348 23.1706 274.348 20.0195V19.3555C274.348 17.2591 274.745 15.3906 275.539 13.75C276.346 12.0964 277.466 10.8073 278.898 9.88281C280.344 8.94531 281.906 8.47656 283.586 8.47656C286.333 8.47656 288.469 9.38151 289.992 11.1914C291.516 13.0013 292.277 15.5924 292.277 18.9648V20.4688H277.961C278.013 22.5521 278.618 24.2383 279.777 25.5273C280.949 26.8034 282.434 27.4414 284.23 27.4414C285.507 27.4414 286.587 27.181 287.473 26.6602C288.358 26.1393 289.133 25.4492 289.797 24.5898L292.004 26.3086C290.233 29.0299 287.577 30.3906 284.035 30.3906ZM283.586 11.4453C282.128 11.4453 280.904 11.9792 279.914 13.0469C278.924 14.1016 278.312 15.5859 278.078 17.5H288.664V17.2266C288.56 15.3906 288.065 13.9714 287.18 12.9688C286.294 11.9531 285.096 11.4453 283.586 11.4453ZM306.691 12.1094C306.145 12.0182 305.552 11.9727 304.914 11.9727C302.544 11.9727 300.936 12.9818 300.09 15V30H296.477V8.86719H299.992L300.051 11.3086C301.236 9.42057 302.915 8.47656 305.09 8.47656C305.793 8.47656 306.327 8.56771 306.691 8.75V12.1094ZM323.352 8.86719L323.449 11.2109C324.999 9.38802 327.089 8.47656 329.719 8.47656C332.674 8.47656 334.686 9.60938 335.754 11.875C336.457 10.8594 337.368 10.0391 338.488 9.41406C339.621 8.78906 340.956 8.47656 342.492 8.47656C347.128 8.47656 349.484 10.931 349.562 15.8398V30H345.949V16.0547C345.949 14.5443 345.604 13.418 344.914 12.6758C344.224 11.9206 343.065 11.543 341.438 11.543C340.096 11.543 338.983 11.9466 338.098 12.7539C337.212 13.5482 336.698 14.6224 336.555 15.9766V30H332.922V16.1523C332.922 13.0794 331.418 11.543 328.41 11.543C326.04 11.543 324.419 12.5521 323.547 14.5703V30H319.934V8.86719H323.352ZM368.078 30C367.87 29.5833 367.701 28.8411 367.57 27.7734C365.891 29.5182 363.885 30.3906 361.555 30.3906C359.471 30.3906 357.759 29.8047 356.418 28.6328C355.09 27.4479 354.426 25.9505 354.426 24.1406C354.426 21.9401 355.259 20.2344 356.926 19.0234C358.605 17.7995 360.962 17.1875 363.996 17.1875H367.512V15.5273C367.512 14.2643 367.134 13.2617 366.379 12.5195C365.624 11.7643 364.51 11.3867 363.039 11.3867C361.75 11.3867 360.669 11.7122 359.797 12.3633C358.924 13.0143 358.488 13.8021 358.488 14.7266H354.855C354.855 13.6719 355.227 12.6562 355.969 11.6797C356.724 10.6901 357.74 9.90885 359.016 9.33594C360.305 8.76302 361.717 8.47656 363.254 8.47656C365.689 8.47656 367.596 9.08854 368.977 10.3125C370.357 11.5234 371.073 13.1966 371.125 15.332V25.0586C371.125 26.9987 371.372 28.5417 371.867 29.6875V30H368.078ZM362.082 27.2461C363.215 27.2461 364.289 26.9531 365.305 26.3672C366.32 25.7812 367.056 25.0195 367.512 24.082V19.7461H364.68C360.253 19.7461 358.039 21.0417 358.039 23.6328C358.039 24.7656 358.417 25.651 359.172 26.2891C359.927 26.9271 360.897 27.2461 362.082 27.2461ZM382.688 20.2148L380.422 22.5781V30H376.809V0H380.422V18.1445L382.355 15.8203L388.938 8.86719H393.332L385.109 17.6953L394.289 30H390.051L382.688 20.2148ZM400.988 30H397.375V8.86719H400.988V30ZM397.082 3.26172C397.082 2.67578 397.258 2.18099 397.609 1.77734C397.974 1.3737 398.508 1.17188 399.211 1.17188C399.914 1.17188 400.448 1.3737 400.812 1.77734C401.177 2.18099 401.359 2.67578 401.359 3.26172C401.359 3.84766 401.177 4.33594 400.812 4.72656C400.448 5.11719 399.914 5.3125 399.211 5.3125C398.508 5.3125 397.974 5.11719 397.609 4.72656C397.258 4.33594 397.082 3.84766 397.082 3.26172ZM410.207 8.86719L410.324 11.5234C411.939 9.49219 414.048 8.47656 416.652 8.47656C421.118 8.47656 423.371 10.9961 423.41 16.0352V30H419.797V16.0156C419.784 14.4922 419.432 13.3659 418.742 12.6367C418.065 11.9076 417.004 11.543 415.559 11.543C414.387 11.543 413.358 11.8555 412.473 12.4805C411.587 13.1055 410.897 13.9258 410.402 14.9414V30H406.789V8.86719H410.207ZM428 19.2578C428 15.9635 428.762 13.3464 430.285 11.4062C431.809 9.45312 433.827 8.47656 436.34 8.47656C438.918 8.47656 440.93 9.38802 442.375 11.2109L442.551 8.86719H445.852V29.4922C445.852 32.2266 445.038 34.3815 443.41 35.957C441.796 37.5326 439.621 38.3203 436.887 38.3203C435.363 38.3203 433.872 37.9948 432.414 37.3438C430.956 36.6927 429.842 35.8008 429.074 34.668L430.949 32.5C432.499 34.4141 434.393 35.3711 436.633 35.3711C438.391 35.3711 439.758 34.8763 440.734 33.8867C441.724 32.8971 442.219 31.5039 442.219 29.707V27.8906C440.773 29.5573 438.801 30.3906 436.301 30.3906C433.827 30.3906 431.822 29.3945 430.285 27.4023C428.762 25.4102 428 22.6953 428 19.2578ZM431.633 19.668C431.633 22.0508 432.121 23.9258 433.098 25.293C434.074 26.6471 435.441 27.3242 437.199 27.3242C439.478 27.3242 441.151 26.2891 442.219 24.2188V14.5703C441.112 12.5521 439.452 11.543 437.238 11.543C435.48 11.543 434.107 12.2266 433.117 13.5938C432.128 14.9609 431.633 16.9857 431.633 19.668ZM474.289 30C474.081 29.5833 473.911 28.8411 473.781 27.7734C472.102 29.5182 470.096 30.3906 467.766 30.3906C465.682 30.3906 463.97 29.8047 462.629 28.6328C461.301 27.4479 460.637 25.9505 460.637 24.1406C460.637 21.9401 461.47 20.2344 463.137 19.0234C464.816 17.7995 467.173 17.1875 470.207 17.1875H473.723V15.5273C473.723 14.2643 473.345 13.2617 472.59 12.5195C471.835 11.7643 470.721 11.3867 469.25 11.3867C467.961 11.3867 466.88 11.7122 466.008 12.3633C465.135 13.0143 464.699 13.8021 464.699 14.7266H461.066C461.066 13.6719 461.438 12.6562 462.18 11.6797C462.935 10.6901 463.951 9.90885 465.227 9.33594C466.516 8.76302 467.928 8.47656 469.465 8.47656C471.9 8.47656 473.807 9.08854 475.188 10.3125C476.568 11.5234 477.284 13.1966 477.336 15.332V25.0586C477.336 26.9987 477.583 28.5417 478.078 29.6875V30H474.289ZM468.293 27.2461C469.426 27.2461 470.5 26.9531 471.516 26.3672C472.531 25.7812 473.267 25.0195 473.723 24.082V19.7461H470.891C466.464 19.7461 464.25 21.0417 464.25 23.6328C464.25 24.7656 464.628 25.651 465.383 26.2891C466.138 26.9271 467.108 27.2461 468.293 27.2461ZM510.773 19.668C510.773 22.8841 510.038 25.4753 508.566 27.4414C507.095 29.4076 505.103 30.3906 502.59 30.3906C500.025 30.3906 498.007 29.5768 496.535 27.9492V38.125H492.922V8.86719H496.223L496.398 11.2109C497.87 9.38802 499.914 8.47656 502.531 8.47656C505.07 8.47656 507.076 9.43359 508.547 11.3477C510.031 13.2617 510.773 15.9245 510.773 19.3359V19.668ZM507.16 19.2578C507.16 16.875 506.652 14.9935 505.637 13.6133C504.621 12.2331 503.228 11.543 501.457 11.543C499.27 11.543 497.629 12.513 496.535 14.4531V24.5508C497.616 26.4779 499.27 27.4414 501.496 27.4414C503.228 27.4414 504.602 26.7578 505.617 25.3906C506.646 24.0104 507.16 21.9661 507.16 19.2578ZM528.43 27.9102C527.023 29.5638 524.96 30.3906 522.238 30.3906C519.986 30.3906 518.267 29.7396 517.082 28.4375C515.91 27.1224 515.318 25.1823 515.305 22.6172V8.86719H518.918V22.5195C518.918 25.7227 520.22 27.3242 522.824 27.3242C525.585 27.3242 527.421 26.2956 528.332 24.2383V8.86719H531.945V30H528.508L528.43 27.9102ZM547.668 12.1094C547.121 12.0182 546.529 11.9727 545.891 11.9727C543.521 11.9727 541.913 12.9818 541.066 15V30H537.453V8.86719H540.969L541.027 11.3086C542.212 9.42057 543.892 8.47656 546.066 8.47656C546.77 8.47656 547.303 8.56771 547.668 8.75V12.1094ZM559.094 27.4414C560.383 27.4414 561.509 27.0508 562.473 26.2695C563.436 25.4883 563.97 24.5117 564.074 23.3398H567.492C567.427 24.5508 567.01 25.7031 566.242 26.7969C565.474 27.8906 564.445 28.763 563.156 29.4141C561.88 30.0651 560.526 30.3906 559.094 30.3906C556.216 30.3906 553.924 29.4336 552.219 27.5195C550.526 25.5924 549.68 22.9622 549.68 19.6289V19.0234C549.68 16.9661 550.057 15.1367 550.812 13.5352C551.568 11.9336 552.648 10.6901 554.055 9.80469C555.474 8.91927 557.147 8.47656 559.074 8.47656C561.444 8.47656 563.41 9.1862 564.973 10.6055C566.548 12.0247 567.388 13.8672 567.492 16.1328H564.074C563.97 14.7656 563.449 13.6458 562.512 12.7734C561.587 11.888 560.441 11.4453 559.074 11.4453C557.238 11.4453 555.812 12.1094 554.797 13.4375C553.794 14.7526 553.293 16.6602 553.293 19.1602V19.8438C553.293 22.2786 553.794 24.1536 554.797 25.4688C555.799 26.7839 557.232 27.4414 559.094 27.4414ZM575.168 11.4258C576.77 9.45964 578.853 8.47656 581.418 8.47656C585.884 8.47656 588.137 10.9961 588.176 16.0352V30H584.562V16.0156C584.549 14.4922 584.198 13.3659 583.508 12.6367C582.831 11.9076 581.77 11.543 580.324 11.543C579.152 11.543 578.124 11.8555 577.238 12.4805C576.353 13.1055 575.663 13.9258 575.168 14.9414V30H571.555V0H575.168V11.4258ZM606.633 30C606.424 29.5833 606.255 28.8411 606.125 27.7734C604.445 29.5182 602.44 30.3906 600.109 30.3906C598.026 30.3906 596.314 29.8047 594.973 28.6328C593.645 27.4479 592.98 25.9505 592.98 24.1406C592.98 21.9401 593.814 20.2344 595.48 19.0234C597.16 17.7995 599.517 17.1875 602.551 17.1875H606.066V15.5273C606.066 14.2643 605.689 13.2617 604.934 12.5195C604.178 11.7643 603.065 11.3867 601.594 11.3867C600.305 11.3867 599.224 11.7122 598.352 12.3633C597.479 13.0143 597.043 13.8021 597.043 14.7266H593.41C593.41 13.6719 593.781 12.6562 594.523 11.6797C595.279 10.6901 596.294 9.90885 597.57 9.33594C598.859 8.76302 600.272 8.47656 601.809 8.47656C604.243 8.47656 606.151 9.08854 607.531 10.3125C608.911 11.5234 609.628 13.1966 609.68 15.332V25.0586C609.68 26.9987 609.927 28.5417 610.422 29.6875V30H606.633ZM600.637 27.2461C601.77 27.2461 602.844 26.9531 603.859 26.3672C604.875 25.7812 605.611 25.0195 606.066 24.082V19.7461H603.234C598.807 19.7461 596.594 21.0417 596.594 23.6328C596.594 24.7656 596.971 25.651 597.727 26.2891C598.482 26.9271 599.452 27.2461 600.637 27.2461ZM627.648 24.3945C627.648 23.418 627.277 22.6628 626.535 22.1289C625.806 21.582 624.523 21.1133 622.688 20.7227C620.865 20.332 619.413 19.8633 618.332 19.3164C617.264 18.7695 616.47 18.1185 615.949 17.3633C615.441 16.6081 615.188 15.7096 615.188 14.668C615.188 12.9362 615.917 11.4714 617.375 10.2734C618.846 9.07552 620.721 8.47656 623 8.47656C625.396 8.47656 627.336 9.09505 628.82 10.332C630.318 11.569 631.066 13.151 631.066 15.0781H627.434C627.434 14.0885 627.01 13.2357 626.164 12.5195C625.331 11.8034 624.276 11.4453 623 11.4453C621.685 11.4453 620.656 11.7318 619.914 12.3047C619.172 12.8776 618.801 13.6263 618.801 14.5508C618.801 15.4232 619.146 16.0807 619.836 16.5234C620.526 16.9661 621.77 17.3893 623.566 17.793C625.376 18.1966 626.841 18.6784 627.961 19.2383C629.081 19.7982 629.908 20.4753 630.441 21.2695C630.988 22.0508 631.262 23.0078 631.262 24.1406C631.262 26.0286 630.507 27.5456 628.996 28.6914C627.486 29.8242 625.526 30.3906 623.117 30.3906C621.424 30.3906 619.927 30.0911 618.625 29.4922C617.323 28.8932 616.301 28.0599 615.559 26.9922C614.829 25.9115 614.465 24.7461 614.465 23.4961H618.078C618.143 24.707 618.625 25.6706 619.523 26.3867C620.435 27.0898 621.633 27.4414 623.117 27.4414C624.484 27.4414 625.578 27.168 626.398 26.6211C627.232 26.0612 627.648 25.319 627.648 24.3945ZM644.738 30.3906C641.874 30.3906 639.543 29.4531 637.746 27.5781C635.949 25.6901 635.051 23.1706 635.051 20.0195V19.3555C635.051 17.2591 635.448 15.3906 636.242 13.75C637.049 12.0964 638.169 10.8073 639.602 9.88281C641.047 8.94531 642.609 8.47656 644.289 8.47656C647.036 8.47656 649.172 9.38151 650.695 11.1914C652.219 13.0013 652.98 15.5924 652.98 18.9648V20.4688H638.664C638.716 22.5521 639.322 24.2383 640.48 25.5273C641.652 26.8034 643.137 27.4414 644.934 27.4414C646.21 27.4414 647.29 27.181 648.176 26.6602C649.061 26.1393 649.836 25.4492 650.5 24.5898L652.707 26.3086C650.936 29.0299 648.28 30.3906 644.738 30.3906ZM644.289 11.4453C642.831 11.4453 641.607 11.9792 640.617 13.0469C639.628 14.1016 639.016 15.5859 638.781 17.5H649.367V17.2266C649.263 15.3906 648.768 13.9714 647.883 12.9688C646.997 11.9531 645.799 11.4453 644.289 11.4453Z" fill="black"/>
</svg>
