<svg width="62" height="62" viewBox="0 0 62 62" fill="none" xmlns="http://www.w3.org/2000/svg">
<path d="M25.018 50C30.6123 50.005 36.0449 48.1237 40.438 44.66L57.018 61.24L61.258 57L44.678 40.42C48.1661 35.9687 50.042 30.4663 49.9993 24.8112C49.9566 19.1562 47.9978 13.6827 44.4429 9.28459C40.8879 4.88646 35.9468 1.82356 30.4265 0.596058C24.9061 -0.631446 19.1326 0.0489726 14.0489 2.5262C8.96514 5.00343 4.87147 9.13111 2.43638 14.2352C0.00128865 19.3392 -0.631349 25.1181 0.641778 30.6282C1.9149 36.1382 5.01857 41.0538 9.44595 44.5722C13.8733 48.0907 19.3628 50.0041 25.018 50ZM25.018 6.00002C28.7759 6.00002 32.4493 7.11435 35.5739 9.2021C38.6984 11.2898 41.1337 14.2572 42.5717 17.729C44.0098 21.2008 44.3861 25.0211 43.653 28.7067C42.9198 32.3924 41.1103 35.7779 38.4531 38.4351C35.7959 41.0922 32.4104 42.9018 28.7247 43.6349C25.0391 44.3681 21.2188 43.9918 17.747 42.5537C14.2752 41.1157 11.3079 38.6804 9.22011 35.5559C7.13236 32.4313 6.01803 28.7579 6.01803 25C6.01803 19.9609 8.01981 15.1282 11.583 11.565C15.1462 8.0018 19.9789 6.00002 25.018 6.00002Z" fill="black"/>
</svg>
