<svg width="32" height="8" viewBox="0 0 32 8" fill="none" xmlns="http://www.w3.org/2000/svg">
<path d="M2.21191 6.08105L2.43164 7.18457L2.7002 6.12988L4.24316 0.890625H4.78516L6.30859 6.12988L6.57227 7.19434L6.80664 6.08105L8.09082 0.890625H8.70605L6.88477 8H6.30859L4.69727 2.43848L4.5166 1.73535L4.34082 2.43848L2.69043 8H2.11426L0.297852 0.890625H0.913086L2.21191 6.08105ZM13.4863 6.00781H10.2588L9.52637 8H8.89648L11.5869 0.890625H12.1582L14.8486 8H14.2236L13.4863 6.00781ZM10.4443 5.49512H13.2959L11.8701 1.62305L10.4443 5.49512ZM20.0879 1.40332H17.6514V8H17.0508V1.40332H14.6191V0.890625H20.0879V1.40332ZM25.166 4.5918H21.8408V7.49219H25.6641V8H21.2402V0.890625H25.6396V1.40332H21.8408V4.08398H25.166V4.5918ZM29.5898 5.04102H27.5244V8H26.9189V0.890625H29.2285C29.987 0.890625 30.5794 1.07454 31.0059 1.44238C31.4323 1.81022 31.6455 2.32454 31.6455 2.98535C31.6455 3.44108 31.512 3.8431 31.2451 4.19141C30.9782 4.53971 30.6201 4.7806 30.1709 4.91406L31.9482 7.93652V8H31.3086L29.5898 5.04102ZM27.5244 4.52832H29.3652C29.8698 4.52832 30.2751 4.38509 30.5811 4.09863C30.887 3.81217 31.04 3.44108 31.04 2.98535C31.04 2.48405 30.8805 2.09505 30.5615 1.81836C30.2425 1.54167 29.7949 1.40332 29.2188 1.40332H27.5244V4.52832Z" fill="white"/>
</svg>
