<svg width="108" height="17" viewBox="0 0 108 17" fill="none" xmlns="http://www.w3.org/2000/svg">
<path d="M0.217781 16V15.616L1.75378 14.824L7.89778 0.0399995H8.97778L15.0258 14.752L16.6338 15.616V16H10.6818V15.616L12.7938 14.8L10.9938 10.36H5.16178L3.38578 14.8L5.40178 15.616V16H0.217781ZM5.71378 9.04H10.4658L8.08978 3.136L5.71378 9.04ZM22.3034 16.24C21.5514 16.24 20.9034 16.176 20.3594 16.048C19.8154 15.92 19.2634 15.712 18.7034 15.424V12.736H19.0394L19.8074 14.056C20.3034 14.936 21.1114 15.376 22.2314 15.376C22.8714 15.376 23.3674 15.224 23.7194 14.92C24.0874 14.616 24.2714 14.2 24.2714 13.672C24.2714 13.208 24.1594 12.848 23.9354 12.592C23.7114 12.336 23.3914 12.112 22.9754 11.92C22.5754 11.712 22.0954 11.48 21.5354 11.224C20.7194 10.856 20.0874 10.456 19.6394 10.024C19.2074 9.576 18.9914 8.952 18.9914 8.152C18.9914 7.56 19.1594 7.024 19.4954 6.544C19.8314 6.064 20.2554 5.68 20.7674 5.392C21.2954 5.104 21.8394 4.96 22.3994 4.96C22.9914 4.96 23.5354 5.032 24.0314 5.176C24.5274 5.32 25.0314 5.52 25.5434 5.776V8.392H25.2074L24.4154 7.12C24.1434 6.688 23.8474 6.376 23.5274 6.184C23.2074 5.992 22.8634 5.896 22.4954 5.896C21.9514 5.896 21.5114 6.032 21.1754 6.304C20.8554 6.576 20.6954 6.952 20.6954 7.432C20.6954 7.976 20.8874 8.392 21.2714 8.68C21.6714 8.952 22.2474 9.264 22.9994 9.616C23.4474 9.84 23.8954 10.064 24.3434 10.288C24.8074 10.512 25.1834 10.832 25.4714 11.248C25.7754 11.648 25.9274 12.224 25.9274 12.976C25.9274 13.68 25.7354 14.28 25.3514 14.776C24.9674 15.256 24.4954 15.624 23.9354 15.88C23.3754 16.12 22.8314 16.24 22.3034 16.24ZM32.3084 16.24C31.6044 16.24 30.9964 16.032 30.4844 15.616C29.9724 15.2 29.7164 14.616 29.7164 13.864V6.328H27.7484V6.184L29.7884 5.2L31.4924 2.56H31.6364V5.2H34.8044V6.328H31.6364V13.456C31.6364 13.872 31.8204 14.176 32.1884 14.368C32.5564 14.56 32.9884 14.656 33.4844 14.656C33.7884 14.656 34.0684 14.64 34.3244 14.608C34.5964 14.576 34.8284 14.536 35.0204 14.488H35.0924V14.728C34.9324 15.096 34.6124 15.44 34.1324 15.76C33.6684 16.08 33.0604 16.24 32.3084 16.24ZM37.2832 16V15.616L38.7952 14.848V7.696L37.3552 6.448V6.28L40.3312 4.96H40.4752L40.6912 7H40.7872C41.1552 6.408 41.4912 5.968 41.7952 5.68C42.1152 5.376 42.4112 5.184 42.6832 5.104C42.9552 5.008 43.2272 4.96 43.4992 4.96C43.6272 4.96 43.7712 4.984 43.9312 5.032C44.1072 5.08 44.2512 5.128 44.3632 5.176C44.5392 5.256 44.6992 5.352 44.8432 5.464C45.0032 5.576 45.0832 5.704 45.0832 5.848C45.0832 5.992 45.0512 6.136 44.9872 6.28L44.5072 7.456H44.3392L43.4272 7.096C43.2512 7.016 43.0752 6.968 42.8992 6.952C42.7392 6.936 42.5792 6.928 42.4192 6.928C41.7472 6.928 41.1792 7.272 40.7152 7.96V14.848L42.4192 15.616V16H37.2832ZM52.0542 16.24C50.9982 16.24 50.0702 15.992 49.2702 15.496C48.4862 15 47.8702 14.328 47.4222 13.48C46.9902 12.632 46.7742 11.672 46.7742 10.6C46.7742 9.528 46.9902 8.568 47.4222 7.72C47.8702 6.872 48.4862 6.2 49.2702 5.704C50.0702 5.208 50.9982 4.96 52.0542 4.96C53.1102 4.96 54.0302 5.208 54.8142 5.704C55.6142 6.2 56.2302 6.872 56.6622 7.72C57.1102 8.568 57.3342 9.528 57.3342 10.6C57.3342 11.672 57.1102 12.632 56.6622 13.48C56.2302 14.328 55.6142 15 54.8142 15.496C54.0302 15.992 53.1102 16.24 52.0542 16.24ZM52.3902 15.208C53.0302 15.208 53.5582 15.008 53.9742 14.608C54.3902 14.208 54.6942 13.696 54.8862 13.072C55.0782 12.432 55.1742 11.768 55.1742 11.08C55.1742 10.232 55.0542 9.416 54.8142 8.632C54.5902 7.848 54.2222 7.208 53.7102 6.712C53.2142 6.216 52.5662 5.968 51.7662 5.968C51.1102 5.968 50.5742 6.168 50.1582 6.568C49.7422 6.968 49.4302 7.48 49.2222 8.104C49.0302 8.728 48.9342 9.392 48.9342 10.096C48.9342 10.944 49.0542 11.76 49.2942 12.544C49.5342 13.328 49.9102 13.968 50.4222 14.464C50.9342 14.96 51.5902 15.208 52.3902 15.208ZM60.0952 16V15.616L62.0152 14.656V1.504L60.0952 0.543999V0.159999H67.1272C68.8872 0.159999 70.3912 0.471999 71.6392 1.096C72.8872 1.72 73.8312 2.576 74.4712 3.664C75.1272 4.752 75.4552 5.984 75.4552 7.36C75.4552 8.608 75.2392 9.76 74.8072 10.816C74.3912 11.872 73.7992 12.784 73.0312 13.552C72.2632 14.32 71.3592 14.92 70.3192 15.352C69.2952 15.784 68.1752 16 66.9592 16H60.0952ZM66.5752 1.48H64.1752V14.68H66.9352C68.2152 14.68 69.3192 14.416 70.2472 13.888C71.1912 13.344 71.9112 12.584 72.4072 11.608C72.9192 10.616 73.1752 9.448 73.1752 8.104C73.1752 6.776 72.9192 5.616 72.4072 4.624C71.8952 3.616 71.1432 2.84 70.1512 2.296C69.1752 1.752 67.9832 1.48 66.5752 1.48ZM80.8885 16.24C80.1365 16.24 79.5125 16.024 79.0165 15.592C78.5205 15.144 78.2725 14.528 78.2725 13.744C78.2725 12.96 78.5605 12.28 79.1365 11.704C79.7285 11.128 80.7125 10.68 82.0885 10.36L84.3685 9.832V8.08C84.3685 7.536 84.1445 7.072 83.6965 6.688C83.2645 6.288 82.7685 6.088 82.2085 6.088C81.6005 6.088 81.1765 6.256 80.9365 6.592C80.6965 6.912 80.5765 7.344 80.5765 7.888V8.56L80.4565 8.68H79.2085C78.9685 8.68 78.8005 8.64 78.7045 8.56C78.6245 8.48 78.5845 8.296 78.5845 8.008C78.5845 7.656 78.6885 7.296 78.8965 6.928C79.1045 6.56 79.4245 6.24 79.8565 5.968C80.3045 5.68 80.7685 5.44 81.2485 5.248C81.7445 5.056 82.2725 4.96 82.8325 4.96C83.3925 4.96 83.9365 5.04 84.4645 5.2C85.0085 5.36 85.4485 5.632 85.7845 6.016C86.1205 6.384 86.2885 6.904 86.2885 7.576V14.392C86.4005 14.504 86.5605 14.6 86.7685 14.68C86.9765 14.76 87.2645 14.8 87.6325 14.8H88.5445L88.6165 14.848V14.92C88.4245 15.272 88.1365 15.584 87.7525 15.856C87.3845 16.112 86.9285 16.24 86.3845 16.24C85.8885 16.24 85.4805 16.112 85.1605 15.856C84.8565 15.584 84.6405 15.232 84.5125 14.8H84.3685C83.9525 15.216 83.4325 15.56 82.8085 15.832C82.2005 16.104 81.5605 16.24 80.8885 16.24ZM80.1445 13.264C80.1445 14.256 80.7445 14.752 81.9445 14.752C82.3285 14.752 82.7045 14.712 83.0725 14.632C83.4565 14.552 83.8885 14.408 84.3685 14.2V10.648C83.0885 10.888 82.1525 11.144 81.5605 11.416C80.9685 11.672 80.5845 11.952 80.4085 12.256C80.2325 12.56 80.1445 12.896 80.1445 13.264ZM93.8787 16.24C93.1747 16.24 92.5667 16.032 92.0547 15.616C91.5427 15.2 91.2867 14.616 91.2867 13.864V6.328H89.3187V6.184L91.3587 5.2L93.0627 2.56H93.2067V5.2H96.3747V6.328H93.2067V13.456C93.2067 13.872 93.3907 14.176 93.7587 14.368C94.1267 14.56 94.5587 14.656 95.0547 14.656C95.3587 14.656 95.6387 14.64 95.8947 14.608C96.1667 14.576 96.3987 14.536 96.5907 14.488H96.6627V14.728C96.5027 15.096 96.1827 15.44 95.7027 15.76C95.2387 16.08 94.6307 16.24 93.8787 16.24ZM103.587 16.24C102.035 16.24 100.811 15.768 99.9151 14.824C99.0191 13.88 98.5711 12.632 98.5711 11.08C98.5711 9.88 98.8031 8.824 99.2671 7.912C99.7471 6.984 100.371 6.264 101.139 5.752C101.923 5.224 102.771 4.96 103.683 4.96C104.947 4.96 105.939 5.4 106.659 6.28C107.395 7.16 107.763 8.424 107.763 10.072L107.643 10.192H100.467C100.483 10.928 100.627 11.624 100.899 12.28C101.171 12.92 101.603 13.44 102.195 13.84C102.803 14.24 103.611 14.44 104.619 14.44C105.499 14.44 106.531 14.12 107.715 13.48H107.787V13.72C107.419 14.408 106.867 15 106.131 15.496C105.411 15.992 104.563 16.24 103.587 16.24ZM103.299 6.016C102.531 6.016 101.899 6.288 101.403 6.832C100.923 7.36 100.627 8.112 100.515 9.088H105.939C105.763 8 105.451 7.216 105.003 6.736C104.571 6.256 104.003 6.016 103.299 6.016Z" fill="#DFBC60"/>
</svg>
