<svg width="374" height="44" viewBox="0 0 374 44" fill="none" xmlns="http://www.w3.org/2000/svg">
<rect x="0.5" y="0.5" width="373" height="43" rx="19.5" fill="#DFBC60" stroke="#181827"/>
<path d="M68.4256 14.424V24.12C68.4256 25.4 68.7456 26.32 69.3856 26.88C70.0416 27.44 70.8816 27.72 71.9056 27.72C72.9296 27.72 73.7616 27.44 74.4016 26.88C75.0576 26.32 75.3856 25.4 75.3856 24.12V14.424H78.2176V24.12C78.2176 26.104 77.6656 27.64 76.5616 28.728C75.4576 29.8 73.9056 30.336 71.9056 30.336C69.9056 30.336 68.3536 29.8 67.2496 28.728C66.1456 27.64 65.5936 26.104 65.5936 24.12V14.424H68.4256ZM84.9959 19.92C85.7319 18.656 86.8519 18.024 88.3559 18.024C89.7959 18.024 91.0279 18.568 92.0519 19.656C93.1399 20.808 93.6839 22.312 93.6839 24.168C93.6839 26.04 93.1319 27.552 92.0279 28.704C91.0039 29.792 89.7799 30.336 88.3559 30.336C86.9319 30.336 85.8919 29.912 85.2359 29.064V35.688H82.4039V18.336H84.7319L84.9959 19.92ZM87.8519 27.768C88.1879 27.768 88.5319 27.696 88.8839 27.552C89.2519 27.408 89.5799 27.184 89.8679 26.88C90.5079 26.208 90.8279 25.312 90.8279 24.192C90.8279 23.056 90.5479 22.168 89.9879 21.528C89.4439 20.888 88.7719 20.568 87.9719 20.568C87.1879 20.568 86.5399 20.8 86.0279 21.264C85.5319 21.712 85.2679 22.36 85.2359 23.208V25.296C85.2359 26.048 85.4999 26.656 86.0279 27.12C86.5239 27.552 87.1319 27.768 87.8519 27.768ZM98.0603 25.224C97.1163 24.424 96.6443 23.424 96.6443 22.224C96.6443 20.96 97.1403 19.936 98.1323 19.152C99.0923 18.4 100.188 18.024 101.42 18.024C102.668 18.024 103.708 18.256 104.54 18.72C104.636 17.808 105.028 17.072 105.716 16.512C106.388 15.952 107.18 15.672 108.092 15.672L107.948 18.384C106.572 18.384 105.86 18.84 105.812 19.752C106.404 20.488 106.7 21.24 106.7 22.008C106.7 22.776 106.564 23.424 106.292 23.952C106.02 24.464 105.652 24.896 105.188 25.248C104.228 26.016 103.06 26.4 101.684 26.4C100.9 26.4 100.188 26.28 99.5483 26.04C98.9083 26.232 98.5883 26.616 98.5883 27.192C98.5883 27.912 99.1963 28.272 100.412 28.272H104.324C106.98 28.272 108.308 29.2 108.308 31.056C108.308 31.68 108.148 32.288 107.828 32.88C107.524 33.488 107.076 34.024 106.484 34.488C105.172 35.512 103.524 36.024 101.54 36.024C99.6203 36.024 98.0603 35.632 96.8603 34.848C95.7403 34.096 95.1803 33.176 95.1803 32.088C95.1803 31.368 95.3963 30.792 95.8283 30.36C96.2763 29.944 96.8603 29.68 97.5803 29.568C96.6363 28.992 96.1643 28.28 96.1643 27.432C96.1643 26.872 96.3403 26.408 96.6923 26.04C97.0443 25.656 97.5003 25.384 98.0603 25.224ZM100.22 30.264C98.7163 30.328 97.9643 30.896 97.9643 31.968C97.9643 32.512 98.2763 32.944 98.9003 33.264C99.5403 33.6 100.292 33.768 101.156 33.768C102.02 33.768 102.692 33.696 103.172 33.552C103.668 33.408 104.084 33.216 104.42 32.976C105.14 32.496 105.5 31.92 105.5 31.248C105.5 30.96 105.396 30.72 105.188 30.528C104.996 30.352 104.708 30.264 104.324 30.264H100.22ZM103.892 22.2C103.892 21.544 103.708 21.016 103.34 20.616C102.988 20.2 102.444 19.992 101.708 19.992C100.972 19.992 100.412 20.2 100.028 20.616C99.6443 21.016 99.4523 21.544 99.4523 22.2C99.4523 22.84 99.6443 23.368 100.028 23.784C100.412 24.2 100.972 24.408 101.708 24.408C102.444 24.408 102.988 24.2 103.34 23.784C103.708 23.368 103.892 22.84 103.892 22.2ZM113.853 20.64C114.557 18.96 115.613 18.12 117.021 18.12C117.293 18.12 117.637 18.176 118.053 18.288L118.005 21.12C117.557 21.024 117.117 20.976 116.685 20.976C114.797 20.976 113.853 22.28 113.853 24.888V30H111.021V18.312H113.853V20.64ZM124.845 23.184C125.773 23.184 126.845 23.336 128.061 23.64V22.488C128.061 21.672 127.893 21.072 127.557 20.688C127.237 20.288 126.701 20.088 125.949 20.088C125.213 20.088 124.645 20.24 124.245 20.544C123.845 20.832 123.645 21.248 123.645 21.792H120.549C120.549 20.464 121.013 19.504 121.941 18.912C122.885 18.32 124.197 18.024 125.877 18.024C128.277 18.024 129.829 18.864 130.533 20.544C130.773 21.12 130.893 21.8 130.893 22.584V30H128.421L128.205 28.44C127.453 29.704 126.301 30.336 124.749 30.336C123.245 30.336 122.077 29.968 121.245 29.232C120.477 28.528 120.093 27.64 120.093 26.568C120.093 25.48 120.517 24.648 121.365 24.072C122.213 23.48 123.373 23.184 124.845 23.184ZM128.061 25.44C127.117 25.184 126.237 25.056 125.421 25.056C123.885 25.056 123.117 25.568 123.117 26.592C123.117 27.024 123.293 27.4 123.645 27.72C123.997 28.024 124.557 28.176 125.325 28.176C126.109 28.176 126.749 27.92 127.245 27.408C127.757 26.88 128.029 26.224 128.061 25.44ZM142.629 28.2C141.909 29.624 140.805 30.336 139.317 30.336C137.829 30.336 136.581 29.768 135.573 28.632C134.533 27.448 134.013 25.944 134.013 24.12C134.013 22.296 134.509 20.816 135.501 19.68C136.477 18.576 137.693 18.024 139.149 18.024C140.605 18.024 141.701 18.608 142.437 19.776V13.536H145.293V30H142.965L142.629 28.2ZM139.677 20.568C138.877 20.568 138.205 20.896 137.661 21.552C137.133 22.192 136.869 23.056 136.869 24.144C136.869 25.232 137.141 26.112 137.685 26.784C138.229 27.44 138.917 27.768 139.749 27.768C140.437 27.768 141.053 27.496 141.597 26.952C142.157 26.392 142.437 25.688 142.437 24.84V23.328C142.405 22.496 142.125 21.816 141.597 21.288C141.117 20.808 140.477 20.568 139.677 20.568ZM157.899 19.728C158.299 20.24 158.595 20.832 158.787 21.504C158.995 22.176 159.099 22.792 159.099 23.352C159.099 23.912 159.067 24.416 159.003 24.864H151.467C151.499 25.808 151.731 26.576 152.163 27.168C152.595 27.76 153.251 28.056 154.131 28.056C155.299 28.056 155.995 27.544 156.219 26.52H159.075C158.883 27.688 158.347 28.608 157.467 29.28C156.555 29.984 155.443 30.336 154.131 30.336C152.595 30.336 151.307 29.776 150.267 28.656C149.195 27.488 148.659 25.992 148.659 24.168C148.659 22.296 149.195 20.792 150.267 19.656C151.291 18.568 152.579 18.024 154.131 18.024C155.747 18.024 157.003 18.592 157.899 19.728ZM154.155 20.28C153.355 20.28 152.731 20.544 152.283 21.072C151.835 21.584 151.571 22.248 151.491 23.064H156.459C156.459 21.8 156.059 20.952 155.259 20.52C154.955 20.36 154.587 20.28 154.155 20.28ZM172.616 14.424L176.888 23.688L181.16 14.424H185.072V30H182.216V18.168L177.8 28.296H175.952L171.392 17.832V30H168.56V14.424H172.616ZM197.673 19.728C198.073 20.24 198.369 20.832 198.561 21.504C198.769 22.176 198.873 22.792 198.873 23.352C198.873 23.912 198.841 24.416 198.777 24.864H191.241C191.273 25.808 191.505 26.576 191.937 27.168C192.369 27.76 193.025 28.056 193.905 28.056C195.073 28.056 195.769 27.544 195.993 26.52H198.849C198.657 27.688 198.121 28.608 197.241 29.28C196.329 29.984 195.217 30.336 193.905 30.336C192.369 30.336 191.081 29.776 190.041 28.656C188.969 27.488 188.433 25.992 188.433 24.168C188.433 22.296 188.969 20.792 190.041 19.656C191.065 18.568 192.353 18.024 193.905 18.024C195.521 18.024 196.777 18.592 197.673 19.728ZM193.929 20.28C193.129 20.28 192.505 20.544 192.057 21.072C191.609 21.584 191.345 22.248 191.265 23.064H196.233C196.233 21.8 195.833 20.952 195.033 20.52C194.729 20.36 194.361 20.28 193.929 20.28ZM212.631 20.544C213.383 18.864 214.703 18.024 216.591 18.024C217.983 18.024 219.063 18.496 219.831 19.44C220.567 20.336 220.935 21.584 220.935 23.184V30H218.079V23.184C218.079 22.32 217.871 21.672 217.455 21.24C217.039 20.792 216.455 20.568 215.703 20.568C214.951 20.568 214.335 20.896 213.855 21.552C213.375 22.208 213.119 23.2 213.087 24.528V30H210.255V23.184C210.255 22.32 210.047 21.672 209.631 21.24C209.215 20.792 208.631 20.568 207.879 20.568C207.127 20.568 206.479 20.904 205.935 21.576C205.407 22.248 205.127 23.256 205.095 24.6V30H202.263V18.336H204.735L205.047 20.352C205.815 18.8 207.047 18.024 208.743 18.024C209.719 18.024 210.527 18.248 211.167 18.696C211.823 19.144 212.311 19.76 212.631 20.544ZM234.837 19.704C235.829 20.824 236.325 22.296 236.325 24.12C236.325 25.944 235.805 27.448 234.765 28.632C233.757 29.768 232.501 30.336 230.997 30.336C230.277 30.336 229.613 30.144 229.005 29.76C228.413 29.376 227.941 28.784 227.589 27.984L226.893 30H225.045V13.536H227.877V19.8C228.613 18.616 229.709 18.024 231.165 18.024C232.637 18.024 233.861 18.584 234.837 19.704ZM227.877 23.448V24.984C227.909 25.8 228.205 26.472 228.765 27C229.293 27.512 229.933 27.768 230.685 27.768C231.453 27.768 232.109 27.44 232.653 26.784C233.197 26.112 233.469 25.232 233.469 24.144C233.469 23.056 233.197 22.192 232.653 21.552C232.125 20.896 231.461 20.568 230.661 20.568C229.861 20.568 229.197 20.832 228.669 21.36C228.141 21.888 227.877 22.584 227.877 23.448ZM247.923 19.728C248.323 20.24 248.619 20.832 248.811 21.504C249.019 22.176 249.123 22.792 249.123 23.352C249.123 23.912 249.091 24.416 249.027 24.864H241.491C241.523 25.808 241.755 26.576 242.187 27.168C242.619 27.76 243.275 28.056 244.155 28.056C245.323 28.056 246.019 27.544 246.243 26.52H249.099C248.907 27.688 248.371 28.608 247.491 29.28C246.579 29.984 245.467 30.336 244.155 30.336C242.619 30.336 241.331 29.776 240.291 28.656C239.219 27.488 238.683 25.992 238.683 24.168C238.683 22.296 239.219 20.792 240.291 19.656C241.315 18.568 242.603 18.024 244.155 18.024C245.771 18.024 247.027 18.592 247.923 19.728ZM244.179 20.28C243.379 20.28 242.755 20.544 242.307 21.072C241.859 21.584 241.595 22.248 241.515 23.064H246.483C246.483 21.8 246.083 20.952 245.283 20.52C244.979 20.36 244.611 20.28 244.179 20.28ZM255.345 20.64C256.049 18.96 257.105 18.12 258.513 18.12C258.785 18.12 259.129 18.176 259.545 18.288L259.497 21.12C259.049 21.024 258.609 20.976 258.177 20.976C256.289 20.976 255.345 22.28 255.345 24.888V30H252.513V18.312H255.345V20.64ZM264.082 26.448C264.114 27.552 264.922 28.104 266.506 28.104C267.114 28.104 267.61 27.976 267.994 27.72C268.394 27.448 268.594 27.136 268.594 26.784C268.594 26.432 268.474 26.16 268.234 25.968C267.994 25.776 267.618 25.6 267.106 25.44L264.562 24.528C262.674 23.872 261.73 22.8 261.73 21.312C261.73 20.32 262.17 19.528 263.05 18.936C263.946 18.328 265.138 18.024 266.626 18.024C268.13 18.024 269.282 18.352 270.082 19.008C270.898 19.664 271.322 20.488 271.354 21.48H268.69C268.658 21.096 268.474 20.792 268.138 20.568C267.802 20.344 267.322 20.232 266.698 20.232C266.074 20.232 265.586 20.36 265.234 20.616C264.898 20.856 264.73 21.136 264.73 21.456C264.73 22.016 265.202 22.432 266.146 22.704L268.906 23.736C269.818 24.04 270.514 24.432 270.994 24.912C271.49 25.376 271.738 25.984 271.738 26.736C271.738 27.696 271.282 28.528 270.37 29.232C269.426 29.968 268.178 30.336 266.626 30.336C265.074 30.336 263.826 30 262.882 29.328C261.938 28.64 261.458 27.68 261.442 26.448H264.082ZM277.986 20.232C278.786 18.76 279.954 18.024 281.49 18.024C283.026 18.024 284.154 18.496 284.874 19.44C285.61 20.384 285.978 21.632 285.978 23.184V30H283.146V23.184C283.146 22.32 282.938 21.672 282.522 21.24C282.106 20.792 281.522 20.568 280.77 20.568C280.018 20.568 279.37 20.904 278.826 21.576C278.298 22.248 278.018 23.256 277.986 24.6V30H275.154V13.536H277.986V20.232ZM290.347 18.312H293.179V30H290.347V18.312ZM290.011 14.568C290.011 14.056 290.163 13.656 290.467 13.368C290.771 13.064 291.203 12.912 291.763 12.912C292.307 12.912 292.731 13.064 293.035 13.368C293.355 13.656 293.515 14.056 293.515 14.568C293.515 15.08 293.355 15.488 293.035 15.792C292.731 16.08 292.307 16.224 291.763 16.224C291.203 16.224 290.771 16.08 290.467 15.792C290.163 15.488 290.011 15.08 290.011 14.568ZM300.574 19.92C301.31 18.656 302.43 18.024 303.934 18.024C305.374 18.024 306.606 18.568 307.63 19.656C308.718 20.808 309.262 22.312 309.262 24.168C309.262 26.04 308.71 27.552 307.606 28.704C306.582 29.792 305.358 30.336 303.934 30.336C302.51 30.336 301.47 29.912 300.814 29.064V35.688H297.982V18.336H300.31L300.574 19.92ZM303.43 27.768C303.766 27.768 304.11 27.696 304.462 27.552C304.83 27.408 305.158 27.184 305.446 26.88C306.086 26.208 306.406 25.312 306.406 24.192C306.406 23.056 306.126 22.168 305.566 21.528C305.022 20.888 304.35 20.568 303.55 20.568C302.766 20.568 302.118 20.8 301.606 21.264C301.11 21.712 300.846 22.36 300.814 23.208V25.296C300.814 26.048 301.078 26.656 301.606 27.12C302.102 27.552 302.71 27.768 303.43 27.768Z" fill="#181827"/>
</svg>
