<svg width="77" height="77" viewBox="0 0 77 77" fill="none" xmlns="http://www.w3.org/2000/svg">
<path d="M38.4535 77C46.0685 77.0092 53.5151 74.76 59.8516 70.5368C66.1882 66.3137 71.1301 60.3063 74.0523 53.2744C76.9745 46.2425 77.7458 38.502 76.2687 31.0317C74.7915 23.5615 71.1323 16.697 65.7537 11.3065C60.3751 5.91603 53.5187 2.24159 46.0518 0.747926C38.5848 -0.745742 30.8426 0.0084467 23.8042 2.91511C16.7659 5.82178 10.7476 10.7504 6.51047 17.0776C2.27333 23.4048 0.00766179 30.8464 0 38.4613C0.016294 48.6626 4.07017 58.4428 11.2756 65.6642C18.4811 72.8856 28.2523 76.9611 38.4535 77ZM27.4602 72.3549C27.1428 73.1988 27.1273 73.2065 26.2602 72.8968C21.2558 71.117 16.6987 68.2692 12.9056 64.5512C11.9634 63.6301 11.0693 62.6611 10.2269 61.648C9.97145 61.3306 9.84757 61.0983 10.1805 60.7267C13.8888 56.5926 20.09 55.3849 24.5183 59.1396C25.7139 60.1703 26.6716 61.4482 27.3252 62.8851C27.9788 64.3219 28.3128 65.8836 28.304 67.4621C28.315 69.1327 28.0293 70.7919 27.4602 72.3626V72.3549ZM71.9601 23.8835C73.5917 27.6478 74.5783 31.6599 74.8787 35.7516C74.9407 36.6729 74.9871 37.5942 75.0258 38.2522C74.987 40.7501 74.728 43.2397 74.2517 45.6921C74.0426 46.714 73.9497 46.7837 72.9046 46.7373C70.7955 46.654 68.7925 45.7904 67.284 44.3141C65.164 42.3024 63.837 39.5963 63.5447 36.6884C63.0868 33.5981 63.7191 30.4447 65.3331 27.7698C66.5504 25.6553 68.5267 24.0832 70.8607 23.3725C71.4801 23.2022 71.7278 23.3415 71.9601 23.8912V23.8835ZM4.73024 24.4873C7.33824 18.1969 11.6528 12.7609 17.1867 8.79277C22.7207 4.82468 29.2537 2.48259 36.0483 2.0309C42.8429 1.57922 49.6285 3.03592 55.639 6.23657C61.6495 9.43722 66.6456 14.2544 70.0633 20.1442C70.2646 20.4848 70.4427 20.8409 70.7137 21.3287C68.2785 21.9858 66.1234 23.418 64.5744 25.4086C60.0067 31.1453 60.5332 40.4432 65.7279 45.5373C67.4675 47.2885 69.7601 48.3828 72.2156 48.634C72.6135 48.6076 73.0125 48.6683 73.3846 48.8121C68.2982 67.524 47.8831 79.0051 29.1247 73.6633C29.5964 72.3878 29.9362 71.0674 30.1389 69.7227C30.6653 64.9073 29.4653 60.6803 25.6718 57.4829C21.5067 53.9681 15.561 53.9681 10.9624 57.3435C10.1644 57.9485 9.41381 58.6137 8.71727 59.3332C8.38437 59.2325 8.28373 58.9538 8.13664 58.7293C5.09378 54.1684 3.1123 48.9832 2.33803 43.5554C2.17545 42.4406 2.18319 42.4328 3.11221 42.0535C6.37925 40.7606 8.06696 38.1826 8.70179 34.9C9.06096 33.0717 8.90551 31.1795 8.25276 29.4343C7.6783 27.8765 6.5847 26.5642 5.15604 25.7183C4.41283 25.3079 4.39735 25.3157 4.73024 24.4873ZM6.87472 34.2497C6.59602 37.1529 4.55218 39.8471 2.08255 40.4432C1.79947 36.0039 2.37244 31.5515 3.77026 27.3286C6.20119 28.3582 7.1302 31.0679 6.87472 34.2497Z" fill="white"/>
<path d="M29.3051 43.8601C31.4229 43.8474 33.4894 43.2078 35.244 42.022C36.9986 40.8362 38.3628 39.1573 39.1644 37.1971C39.966 35.237 40.1691 33.0833 39.7481 31.0079C39.3272 28.9324 38.301 27.0281 36.799 25.5351C35.2971 24.0421 33.3866 23.0274 31.3086 22.6189C29.2307 22.2105 27.0782 22.4265 25.1229 23.2399C23.1676 24.0532 21.4969 25.4274 20.3216 27.1891C19.1464 28.9508 18.5192 31.021 18.5191 33.1388C18.5137 34.5537 18.7895 35.9556 19.3304 37.263C19.8713 38.5704 20.6667 39.7574 21.6702 40.7549C22.6737 41.7524 23.8654 42.5405 25.1761 43.0736C26.4867 43.6067 27.8903 43.874 29.3051 43.8601ZM29.1599 24.4988C30.8717 24.486 32.5487 24.9815 33.9787 25.9226C35.4086 26.8636 36.5271 28.2078 37.1925 29.785C37.8579 31.3622 38.0403 33.1013 37.7165 34.7822C37.3927 36.4631 36.5774 38.0101 35.3738 39.2273C34.1702 40.4445 32.6324 41.2771 30.9552 41.6197C29.278 41.9623 27.5369 41.7994 25.9523 41.1518C24.3678 40.5041 23.0111 39.4008 22.0541 37.9815C21.097 36.5622 20.5827 34.8909 20.5763 33.1791C20.5656 30.8869 21.4653 28.6842 23.0779 27.055C24.6904 25.4258 26.8838 24.5035 29.1761 24.4907L29.1599 24.4988Z" fill="white"/>
<path d="M49.1095 71.1511C50.5563 71.1748 51.9772 70.7399 53.1922 69.9016C54.4072 69.0632 55.3616 67.8591 55.9345 66.4418C56.5074 65.0244 56.6731 63.4576 56.4105 61.9397C56.148 60.4218 55.469 59.0212 54.4596 57.9152C53.4502 56.8093 52.1558 56.0478 50.7404 55.7271C49.3249 55.4065 47.8521 55.5412 46.5084 56.1141C45.1648 56.687 44.0108 57.6724 43.1926 58.9455C42.3743 60.2185 41.9287 61.7219 41.9122 63.2653C41.8881 65.3285 42.6324 67.3176 43.9818 68.7961C45.3311 70.2745 47.1753 71.1215 49.1095 71.1511ZM49.1546 57.6178C50.223 57.6019 51.2717 57.9254 52.1672 58.5471C53.0627 59.1689 53.7646 60.0607 54.1835 61.1092C54.6024 62.1578 54.7194 63.3155 54.5196 64.4351C54.3198 65.5548 53.8122 66.5857 53.0614 67.3967C52.3107 68.2078 51.3507 68.7622 50.3037 68.9895C49.2566 69.2168 48.1698 69.1067 47.1816 68.6732C46.1934 68.2396 45.3485 67.5023 44.7543 66.555C44.1601 65.6078 43.8436 64.4933 43.845 63.3536C43.8299 62.602 43.9564 61.8549 44.217 61.1564C44.4776 60.458 44.867 59.8225 45.3622 59.2875C45.8574 58.7526 46.4482 58.3292 47.0996 58.0424C47.7511 57.7556 48.4499 57.6112 49.1546 57.6178Z" fill="white"/>
<path d="M51.7149 24.3668C52.7313 24.3396 53.698 23.9209 54.4137 23.198C55.1294 22.4751 55.5388 21.5036 55.5566 20.4861C55.5604 19.9695 55.4613 19.4574 55.2652 18.9797C55.069 18.5019 54.7797 18.0681 54.4141 17.7035C54.0486 17.3389 53.6141 17.0509 53.136 16.8562C52.658 16.6616 52.146 16.5643 51.63 16.57C51.1174 16.5651 50.6091 16.6632 50.1351 16.8584C49.661 17.0536 49.2309 17.3419 48.8701 17.7063C48.5093 18.0708 48.2252 18.5039 48.0345 18.9801C47.8438 19.4564 47.7505 19.966 47.7599 20.479C47.7618 20.995 47.8658 21.5055 48.0661 21.981C48.2664 22.4565 48.5589 22.8875 48.9267 23.2491C49.2945 23.6107 49.7303 23.8957 50.2089 24.0875C50.6875 24.2793 51.1994 24.3743 51.7149 24.3668ZM51.6795 18.397C51.956 18.3969 52.2296 18.4522 52.4844 18.5595C52.7392 18.6669 52.97 18.8242 53.1631 19.0221C53.3563 19.2201 53.5079 19.4547 53.6092 19.7122C53.7104 19.9697 53.7591 20.2449 53.7525 20.5215C53.7331 21.0593 53.5105 21.5697 53.1296 21.9495C52.7488 22.3294 52.2381 22.5505 51.7007 22.5681C51.4238 22.5747 51.1483 22.5257 50.8906 22.4239C50.6328 22.3222 50.3981 22.1698 50.2003 21.9757C50.0024 21.7816 49.8454 21.5498 49.7386 21.2939C49.6317 21.0381 49.5772 20.7634 49.5782 20.4861C49.566 20.2073 49.6122 19.929 49.7137 19.6691C49.8151 19.4092 49.9697 19.1733 50.1675 18.9767C50.3654 18.78 50.602 18.6269 50.8624 18.527C51.1227 18.4272 51.4011 18.3829 51.6795 18.397Z" fill="white"/>
<path d="M50.2776 45.8101C51.1747 45.7696 52.024 45.2851 52.6456 44.4595C53.2672 43.6339 53.6122 42.5321 53.6074 41.3877C53.6074 40.2341 53.248 39.1277 52.6082 38.312C51.9685 37.4963 51.1008 37.038 50.196 37.038C49.2913 37.038 48.4236 37.4963 47.7838 38.312C47.1441 39.1277 46.7847 40.2341 46.7847 41.3877C46.7857 41.9707 46.877 42.5477 47.0532 43.0857C47.2294 43.6236 47.4871 44.112 47.8116 44.5228C48.1361 44.9336 48.5209 45.2588 48.9441 45.4797C49.3672 45.7006 49.8204 45.8129 50.2776 45.8101ZM50.1307 39.7748C50.3099 39.7503 50.4912 39.773 50.6632 39.8417C50.8352 39.9103 50.9943 40.0233 51.1306 40.1737C51.2669 40.324 51.3774 40.5085 51.4554 40.7157C51.5334 40.9229 51.5771 41.1483 51.5838 41.378C51.5906 41.6076 51.5602 41.8365 51.4945 42.0506C51.4289 42.2646 51.3295 42.4591 51.2024 42.622C51.0753 42.785 50.9232 42.9128 50.7557 42.9976C50.5882 43.0824 50.4088 43.1224 50.2287 43.115C49.8962 43.1014 49.58 42.9275 49.3442 42.6283C49.1083 42.3292 48.9702 41.927 48.9578 41.5031C48.9453 41.0792 49.0595 40.6651 49.2772 40.3443C49.4949 40.0235 49.7999 39.82 50.1307 39.7748Z" fill="white"/>
<path d="M31.9832 11.046C31.682 11.3317 31.2855 11.4933 30.8721 11.4998C30.4919 11.4662 30.138 11.2885 29.8829 11.002C29.6278 10.7154 29.491 10.342 29.5005 9.95782C29.554 9.54511 29.7588 9.16724 30.0747 8.8979C30.3942 8.62553 30.8039 8.48416 31.2221 8.50141C31.5785 8.52699 31.9113 8.69084 32.1499 8.95887L32.5073 8.64076L32.1499 8.95887C32.389 9.22753 32.5143 9.57951 32.4987 9.93984C32.4728 10.3611 32.2884 10.7564 31.9832 11.046Z" stroke="white"/>
<path d="M36.499 51.9518L36.4989 51.9518L36.4988 51.9625C36.4925 52.3533 36.3342 52.7301 36.0512 53.0165C35.7779 53.2931 35.4076 53.4653 35.0094 53.4978C34.628 53.4423 34.2764 53.2703 34.0055 53.009C33.7381 52.751 33.5638 52.4199 33.5038 52.0643C33.5516 51.6592 33.7442 51.2797 34.0528 50.9931C34.3673 50.701 34.781 50.5257 35.2198 50.5013C35.5809 50.5463 35.91 50.7183 36.1451 50.9812C36.3872 51.2519 36.5123 51.5989 36.499 51.9518Z" stroke="white"/>
</svg>
