<svg width="130" height="37" viewBox="0 0 130 37" fill="none" xmlns="http://www.w3.org/2000/svg">
<path d="M12.8302 25.5385C12.6299 25.8231 12.2073 25.8211 12.0097 25.5345L1.49281 10.2839C1.26408 9.95222 1.50151 9.50006 1.90443 9.50006L23.1553 9.50006C23.5604 9.50006 23.7974 9.95658 23.5642 10.2878L12.8302 25.5385Z" stroke="white"/>
<path d="M7.38358 17.4352L12.5405 9.8864L17.6974 17.4352H7.38358Z" stroke="white"/>
<line x1="18.8203" y1="14.6797" x2="1.39178" y2="14.6797" stroke="white"/>
<path d="M20.2178 26V25.616L21.7538 24.824L27.8978 10.04H28.9778L35.0258 24.752L36.6338 25.616V26H30.6818V25.616L32.7938 24.8L30.9938 20.36H25.1618L23.3858 24.8L25.4018 25.616V26H20.2178ZM25.7138 19.04H30.4658L28.0898 13.136L25.7138 19.04ZM42.3034 26.24C41.5514 26.24 40.9034 26.176 40.3594 26.048C39.8154 25.92 39.2634 25.712 38.7034 25.424V22.736H39.0394L39.8074 24.056C40.3034 24.936 41.1114 25.376 42.2314 25.376C42.8714 25.376 43.3674 25.224 43.7194 24.92C44.0874 24.616 44.2714 24.2 44.2714 23.672C44.2714 23.208 44.1594 22.848 43.9354 22.592C43.7114 22.336 43.3914 22.112 42.9754 21.92C42.5754 21.712 42.0954 21.48 41.5354 21.224C40.7194 20.856 40.0874 20.456 39.6394 20.024C39.2074 19.576 38.9914 18.952 38.9914 18.152C38.9914 17.56 39.1594 17.024 39.4954 16.544C39.8314 16.064 40.2554 15.68 40.7674 15.392C41.2954 15.104 41.8394 14.96 42.3994 14.96C42.9914 14.96 43.5354 15.032 44.0314 15.176C44.5274 15.32 45.0314 15.52 45.5434 15.776V18.392H45.2074L44.4154 17.12C44.1434 16.688 43.8474 16.376 43.5274 16.184C43.2074 15.992 42.8634 15.896 42.4954 15.896C41.9514 15.896 41.5114 16.032 41.1754 16.304C40.8554 16.576 40.6954 16.952 40.6954 17.432C40.6954 17.976 40.8874 18.392 41.2714 18.68C41.6714 18.952 42.2474 19.264 42.9994 19.616C43.4474 19.84 43.8954 20.064 44.3434 20.288C44.8074 20.512 45.1834 20.832 45.4714 21.248C45.7754 21.648 45.9274 22.224 45.9274 22.976C45.9274 23.68 45.7354 24.28 45.3514 24.776C44.9674 25.256 44.4954 25.624 43.9354 25.88C43.3754 26.12 42.8314 26.24 42.3034 26.24ZM52.3084 26.24C51.6044 26.24 50.9964 26.032 50.4844 25.616C49.9724 25.2 49.7164 24.616 49.7164 23.864V16.328H47.7484V16.184L49.7884 15.2L51.4924 12.56H51.6364V15.2H54.8044V16.328H51.6364V23.456C51.6364 23.872 51.8204 24.176 52.1884 24.368C52.5564 24.56 52.9884 24.656 53.4844 24.656C53.7884 24.656 54.0684 24.64 54.3244 24.608C54.5964 24.576 54.8284 24.536 55.0204 24.488H55.0924V24.728C54.9324 25.096 54.6124 25.44 54.1324 25.76C53.6684 26.08 53.0604 26.24 52.3084 26.24ZM57.2832 26V25.616L58.7952 24.848V17.696L57.3552 16.448V16.28L60.3312 14.96H60.4752L60.6912 17H60.7872C61.1552 16.408 61.4912 15.968 61.7952 15.68C62.1152 15.376 62.4112 15.184 62.6832 15.104C62.9552 15.008 63.2272 14.96 63.4992 14.96C63.6272 14.96 63.7712 14.984 63.9312 15.032C64.1072 15.08 64.2512 15.128 64.3632 15.176C64.5392 15.256 64.6992 15.352 64.8432 15.464C65.0032 15.576 65.0832 15.704 65.0832 15.848C65.0832 15.992 65.0512 16.136 64.9872 16.28L64.5072 17.456H64.3392L63.4272 17.096C63.2512 17.016 63.0752 16.968 62.8992 16.952C62.7392 16.936 62.5792 16.928 62.4192 16.928C61.7472 16.928 61.1792 17.272 60.7152 17.96V24.848L62.4192 25.616V26H57.2832ZM72.0542 26.24C70.9982 26.24 70.0702 25.992 69.2702 25.496C68.4862 25 67.8702 24.328 67.4222 23.48C66.9902 22.632 66.7742 21.672 66.7742 20.6C66.7742 19.528 66.9902 18.568 67.4222 17.72C67.8702 16.872 68.4862 16.2 69.2702 15.704C70.0702 15.208 70.9982 14.96 72.0542 14.96C73.1102 14.96 74.0302 15.208 74.8142 15.704C75.6142 16.2 76.2302 16.872 76.6622 17.72C77.1102 18.568 77.3342 19.528 77.3342 20.6C77.3342 21.672 77.1102 22.632 76.6622 23.48C76.2302 24.328 75.6142 25 74.8142 25.496C74.0302 25.992 73.1102 26.24 72.0542 26.24ZM72.3902 25.208C73.0302 25.208 73.5582 25.008 73.9742 24.608C74.3902 24.208 74.6942 23.696 74.8862 23.072C75.0782 22.432 75.1742 21.768 75.1742 21.08C75.1742 20.232 75.0542 19.416 74.8142 18.632C74.5902 17.848 74.2222 17.208 73.7102 16.712C73.2142 16.216 72.5662 15.968 71.7662 15.968C71.1102 15.968 70.5742 16.168 70.1582 16.568C69.7422 16.968 69.4302 17.48 69.2222 18.104C69.0302 18.728 68.9342 19.392 68.9342 20.096C68.9342 20.944 69.0542 21.76 69.2942 22.544C69.5342 23.328 69.9102 23.968 70.4222 24.464C70.9342 24.96 71.5902 25.208 72.3902 25.208ZM80.0952 26V25.616L82.0152 24.656V11.504L80.0952 10.544V10.16H87.1272C88.8872 10.16 90.3912 10.472 91.6392 11.096C92.8872 11.72 93.8312 12.576 94.4712 13.664C95.1272 14.752 95.4552 15.984 95.4552 17.36C95.4552 18.608 95.2392 19.76 94.8072 20.816C94.3912 21.872 93.7992 22.784 93.0312 23.552C92.2632 24.32 91.3592 24.92 90.3192 25.352C89.2952 25.784 88.1752 26 86.9592 26H80.0952ZM86.5752 11.48H84.1752V24.68H86.9352C88.2152 24.68 89.3192 24.416 90.2472 23.888C91.1912 23.344 91.9112 22.584 92.4072 21.608C92.9192 20.616 93.1752 19.448 93.1752 18.104C93.1752 16.776 92.9192 15.616 92.4072 14.624C91.8952 13.616 91.1432 12.84 90.1512 12.296C89.1752 11.752 87.9832 11.48 86.5752 11.48ZM100.889 26.24C100.137 26.24 99.5125 26.024 99.0165 25.592C98.5205 25.144 98.2725 24.528 98.2725 23.744C98.2725 22.96 98.5605 22.28 99.1365 21.704C99.7285 21.128 100.713 20.68 102.089 20.36L104.369 19.832V18.08C104.369 17.536 104.145 17.072 103.697 16.688C103.265 16.288 102.769 16.088 102.209 16.088C101.601 16.088 101.177 16.256 100.937 16.592C100.697 16.912 100.577 17.344 100.577 17.888V18.56L100.457 18.68H99.2085C98.9685 18.68 98.8005 18.64 98.7045 18.56C98.6245 18.48 98.5845 18.296 98.5845 18.008C98.5845 17.656 98.6885 17.296 98.8965 16.928C99.1045 16.56 99.4245 16.24 99.8565 15.968C100.305 15.68 100.769 15.44 101.249 15.248C101.745 15.056 102.273 14.96 102.833 14.96C103.393 14.96 103.937 15.04 104.465 15.2C105.009 15.36 105.449 15.632 105.785 16.016C106.121 16.384 106.289 16.904 106.289 17.576V24.392C106.401 24.504 106.561 24.6 106.769 24.68C106.977 24.76 107.265 24.8 107.633 24.8H108.545L108.617 24.848V24.92C108.425 25.272 108.137 25.584 107.753 25.856C107.385 26.112 106.929 26.24 106.385 26.24C105.889 26.24 105.481 26.112 105.161 25.856C104.857 25.584 104.641 25.232 104.513 24.8H104.369C103.953 25.216 103.433 25.56 102.809 25.832C102.201 26.104 101.561 26.24 100.889 26.24ZM100.145 23.264C100.145 24.256 100.745 24.752 101.945 24.752C102.329 24.752 102.705 24.712 103.073 24.632C103.457 24.552 103.889 24.408 104.369 24.2V20.648C103.089 20.888 102.153 21.144 101.561 21.416C100.969 21.672 100.585 21.952 100.409 22.256C100.233 22.56 100.145 22.896 100.145 23.264ZM113.879 26.24C113.175 26.24 112.567 26.032 112.055 25.616C111.543 25.2 111.287 24.616 111.287 23.864V16.328H109.319V16.184L111.359 15.2L113.063 12.56H113.207V15.2H116.375V16.328H113.207V23.456C113.207 23.872 113.391 24.176 113.759 24.368C114.127 24.56 114.559 24.656 115.055 24.656C115.359 24.656 115.639 24.64 115.895 24.608C116.167 24.576 116.399 24.536 116.591 24.488H116.663V24.728C116.503 25.096 116.183 25.44 115.703 25.76C115.239 26.08 114.631 26.24 113.879 26.24ZM123.587 26.24C122.035 26.24 120.811 25.768 119.915 24.824C119.019 23.88 118.571 22.632 118.571 21.08C118.571 19.88 118.803 18.824 119.267 17.912C119.747 16.984 120.371 16.264 121.139 15.752C121.923 15.224 122.771 14.96 123.683 14.96C124.947 14.96 125.939 15.4 126.659 16.28C127.395 17.16 127.763 18.424 127.763 20.072L127.643 20.192H120.467C120.483 20.928 120.627 21.624 120.899 22.28C121.171 22.92 121.603 23.44 122.195 23.84C122.803 24.24 123.611 24.44 124.619 24.44C125.499 24.44 126.531 24.12 127.715 23.48H127.787V23.72C127.419 24.408 126.867 25 126.131 25.496C125.411 25.992 124.563 26.24 123.587 26.24ZM123.299 16.016C122.531 16.016 121.899 16.288 121.403 16.832C120.923 17.36 120.627 18.112 120.515 19.088H125.939C125.763 18 125.451 17.216 125.003 16.736C124.571 16.256 124.003 16.016 123.299 16.016Z" fill="#DFBC60"/>
</svg>
