<svg width="245" height="25" viewBox="0 0 245 25" fill="none" xmlns="http://www.w3.org/2000/svg">
<path d="M3.42556 2.424V12.12C3.42556 13.4 3.74556 14.32 4.38556 14.88C5.04156 15.44 5.88156 15.72 6.90556 15.72C7.92956 15.72 8.76156 15.44 9.40156 14.88C10.0576 14.32 10.3856 13.4 10.3856 12.12V2.424H13.2176V12.12C13.2176 14.104 12.6656 15.64 11.5616 16.728C10.4576 17.8 8.90556 18.336 6.90556 18.336C4.90556 18.336 3.35356 17.8 2.24956 16.728C1.14556 15.64 0.593563 14.104 0.593563 12.12V2.424H3.42556ZM19.9959 7.92C20.7319 6.656 21.8519 6.024 23.3559 6.024C24.7959 6.024 26.0279 6.568 27.0519 7.656C28.1399 8.808 28.6839 10.312 28.6839 12.168C28.6839 14.04 28.1319 15.552 27.0279 16.704C26.0039 17.792 24.7799 18.336 23.3559 18.336C21.9319 18.336 20.8919 17.912 20.2359 17.064V23.688H17.4039V6.336H19.7319L19.9959 7.92ZM22.8519 15.768C23.1879 15.768 23.5319 15.696 23.8839 15.552C24.2519 15.408 24.5799 15.184 24.8679 14.88C25.5079 14.208 25.8279 13.312 25.8279 12.192C25.8279 11.056 25.5479 10.168 24.9879 9.528C24.4439 8.888 23.7719 8.568 22.9719 8.568C22.1879 8.568 21.5399 8.8 21.0279 9.264C20.5319 9.712 20.2679 10.36 20.2359 11.208V13.296C20.2359 14.048 20.4999 14.656 21.0279 15.12C21.5239 15.552 22.1319 15.768 22.8519 15.768ZM33.0603 13.224C32.1163 12.424 31.6443 11.424 31.6443 10.224C31.6443 8.96 32.1403 7.936 33.1323 7.152C34.0923 6.4 35.1883 6.024 36.4203 6.024C37.6683 6.024 38.7083 6.256 39.5403 6.72C39.6363 5.808 40.0283 5.072 40.7163 4.512C41.3883 3.952 42.1803 3.672 43.0923 3.672L42.9483 6.384C41.5723 6.384 40.8603 6.84 40.8123 7.752C41.4043 8.488 41.7003 9.24 41.7003 10.008C41.7003 10.776 41.5643 11.424 41.2923 11.952C41.0203 12.464 40.6523 12.896 40.1883 13.248C39.2283 14.016 38.0603 14.4 36.6843 14.4C35.9003 14.4 35.1883 14.28 34.5483 14.04C33.9083 14.232 33.5883 14.616 33.5883 15.192C33.5883 15.912 34.1963 16.272 35.4123 16.272H39.3243C41.9803 16.272 43.3083 17.2 43.3083 19.056C43.3083 19.68 43.1483 20.288 42.8283 20.88C42.5243 21.488 42.0763 22.024 41.4843 22.488C40.1723 23.512 38.5243 24.024 36.5403 24.024C34.6203 24.024 33.0603 23.632 31.8603 22.848C30.7403 22.096 30.1803 21.176 30.1803 20.088C30.1803 19.368 30.3963 18.792 30.8283 18.36C31.2763 17.944 31.8603 17.68 32.5803 17.568C31.6363 16.992 31.1643 16.28 31.1643 15.432C31.1643 14.872 31.3403 14.408 31.6923 14.04C32.0443 13.656 32.5003 13.384 33.0603 13.224ZM35.2203 18.264C33.7163 18.328 32.9643 18.896 32.9643 19.968C32.9643 20.512 33.2763 20.944 33.9003 21.264C34.5403 21.6 35.2923 21.768 36.1563 21.768C37.0203 21.768 37.6923 21.696 38.1723 21.552C38.6683 21.408 39.0843 21.216 39.4203 20.976C40.1403 20.496 40.5003 19.92 40.5003 19.248C40.5003 18.96 40.3963 18.72 40.1883 18.528C39.9963 18.352 39.7083 18.264 39.3243 18.264H35.2203ZM38.8923 10.2C38.8923 9.544 38.7083 9.016 38.3403 8.616C37.9883 8.2 37.4443 7.992 36.7083 7.992C35.9723 7.992 35.4123 8.2 35.0283 8.616C34.6443 9.016 34.4523 9.544 34.4523 10.2C34.4523 10.84 34.6443 11.368 35.0283 11.784C35.4123 12.2 35.9723 12.408 36.7083 12.408C37.4443 12.408 37.9883 12.2 38.3403 11.784C38.7083 11.368 38.8923 10.84 38.8923 10.2ZM48.8531 8.64C49.5571 6.96 50.6131 6.12 52.0211 6.12C52.2931 6.12 52.6371 6.176 53.0531 6.288L53.0051 9.12C52.5571 9.024 52.1171 8.976 51.6851 8.976C49.7971 8.976 48.8531 10.28 48.8531 12.888V18H46.0211V6.312H48.8531V8.64ZM59.8454 11.184C60.7734 11.184 61.8454 11.336 63.0614 11.64V10.488C63.0614 9.672 62.8934 9.072 62.5574 8.688C62.2374 8.288 61.7014 8.088 60.9494 8.088C60.2134 8.088 59.6454 8.24 59.2454 8.544C58.8454 8.832 58.6454 9.248 58.6454 9.792H55.5494C55.5494 8.464 56.0134 7.504 56.9414 6.912C57.8854 6.32 59.1974 6.024 60.8774 6.024C63.2774 6.024 64.8294 6.864 65.5334 8.544C65.7734 9.12 65.8934 9.8 65.8934 10.584V18H63.4214L63.2054 16.44C62.4534 17.704 61.3014 18.336 59.7494 18.336C58.2454 18.336 57.0774 17.968 56.2454 17.232C55.4774 16.528 55.0934 15.64 55.0934 14.568C55.0934 13.48 55.5174 12.648 56.3654 12.072C57.2134 11.48 58.3734 11.184 59.8454 11.184ZM63.0614 13.44C62.1174 13.184 61.2374 13.056 60.4214 13.056C58.8854 13.056 58.1174 13.568 58.1174 14.592C58.1174 15.024 58.2934 15.4 58.6454 15.72C58.9974 16.024 59.5574 16.176 60.3254 16.176C61.1094 16.176 61.7494 15.92 62.2454 15.408C62.7574 14.88 63.0294 14.224 63.0614 13.44ZM77.6291 16.2C76.9091 17.624 75.8051 18.336 74.3171 18.336C72.8291 18.336 71.5811 17.768 70.5731 16.632C69.5331 15.448 69.0131 13.944 69.0131 12.12C69.0131 10.296 69.5091 8.816 70.5011 7.68C71.4771 6.576 72.6931 6.024 74.1491 6.024C75.6051 6.024 76.7011 6.608 77.4371 7.776V1.536H80.2931V18H77.9651L77.6291 16.2ZM74.6771 8.568C73.8771 8.568 73.2051 8.896 72.6611 9.552C72.1331 10.192 71.8691 11.056 71.8691 12.144C71.8691 13.232 72.1411 14.112 72.6851 14.784C73.2291 15.44 73.9171 15.768 74.7491 15.768C75.4371 15.768 76.0531 15.496 76.5971 14.952C77.1571 14.392 77.4371 13.688 77.4371 12.84V11.328C77.4051 10.496 77.1251 9.816 76.5971 9.288C76.1171 8.808 75.4771 8.568 74.6771 8.568ZM92.8993 7.728C93.2993 8.24 93.5953 8.832 93.7873 9.504C93.9953 10.176 94.0993 10.792 94.0993 11.352C94.0993 11.912 94.0673 12.416 94.0033 12.864H86.4673C86.4993 13.808 86.7313 14.576 87.1633 15.168C87.5953 15.76 88.2513 16.056 89.1313 16.056C90.2993 16.056 90.9953 15.544 91.2193 14.52H94.0753C93.8833 15.688 93.3473 16.608 92.4673 17.28C91.5553 17.984 90.4433 18.336 89.1313 18.336C87.5953 18.336 86.3073 17.776 85.2673 16.656C84.1953 15.488 83.6593 13.992 83.6593 12.168C83.6593 10.296 84.1953 8.792 85.2673 7.656C86.2913 6.568 87.5793 6.024 89.1313 6.024C90.7473 6.024 92.0033 6.592 92.8993 7.728ZM89.1553 8.28C88.3553 8.28 87.7313 8.544 87.2833 9.072C86.8353 9.584 86.5713 10.248 86.4913 11.064H91.4593C91.4593 9.8 91.0593 8.952 90.2593 8.52C89.9553 8.36 89.5873 8.28 89.1553 8.28ZM107.616 2.424L111.888 11.688L116.16 2.424H120.072V18H117.216V6.168L112.8 16.296H110.952L106.392 5.832V18H103.56V2.424H107.616ZM132.673 7.728C133.073 8.24 133.369 8.832 133.561 9.504C133.769 10.176 133.873 10.792 133.873 11.352C133.873 11.912 133.841 12.416 133.777 12.864H126.241C126.273 13.808 126.505 14.576 126.937 15.168C127.369 15.76 128.025 16.056 128.905 16.056C130.073 16.056 130.769 15.544 130.993 14.52H133.849C133.657 15.688 133.121 16.608 132.241 17.28C131.329 17.984 130.217 18.336 128.905 18.336C127.369 18.336 126.081 17.776 125.041 16.656C123.969 15.488 123.433 13.992 123.433 12.168C123.433 10.296 123.969 8.792 125.041 7.656C126.065 6.568 127.353 6.024 128.905 6.024C130.521 6.024 131.777 6.592 132.673 7.728ZM128.929 8.28C128.129 8.28 127.505 8.544 127.057 9.072C126.609 9.584 126.345 10.248 126.265 11.064H131.233C131.233 9.8 130.833 8.952 130.033 8.52C129.729 8.36 129.361 8.28 128.929 8.28ZM147.631 8.544C148.383 6.864 149.703 6.024 151.591 6.024C152.983 6.024 154.063 6.496 154.831 7.44C155.567 8.336 155.935 9.584 155.935 11.184V18H153.079V11.184C153.079 10.32 152.871 9.672 152.455 9.24C152.039 8.792 151.455 8.568 150.703 8.568C149.951 8.568 149.335 8.896 148.855 9.552C148.375 10.208 148.119 11.2 148.087 12.528V18H145.255V11.184C145.255 10.32 145.047 9.672 144.631 9.24C144.215 8.792 143.631 8.568 142.879 8.568C142.127 8.568 141.479 8.904 140.935 9.576C140.407 10.248 140.127 11.256 140.095 12.6V18H137.263V6.336H139.735L140.047 8.352C140.815 6.8 142.047 6.024 143.743 6.024C144.719 6.024 145.527 6.248 146.167 6.696C146.823 7.144 147.311 7.76 147.631 8.544ZM169.837 7.704C170.829 8.824 171.325 10.296 171.325 12.12C171.325 13.944 170.805 15.448 169.765 16.632C168.757 17.768 167.501 18.336 165.997 18.336C165.277 18.336 164.613 18.144 164.005 17.76C163.413 17.376 162.941 16.784 162.589 15.984L161.893 18H160.045V1.536H162.877V7.8C163.613 6.616 164.709 6.024 166.165 6.024C167.637 6.024 168.861 6.584 169.837 7.704ZM162.877 11.448V12.984C162.909 13.8 163.205 14.472 163.765 15C164.293 15.512 164.933 15.768 165.685 15.768C166.453 15.768 167.109 15.44 167.653 14.784C168.197 14.112 168.469 13.232 168.469 12.144C168.469 11.056 168.197 10.192 167.653 9.552C167.125 8.896 166.461 8.568 165.661 8.568C164.861 8.568 164.197 8.832 163.669 9.36C163.141 9.888 162.877 10.584 162.877 11.448ZM182.923 7.728C183.323 8.24 183.619 8.832 183.811 9.504C184.019 10.176 184.123 10.792 184.123 11.352C184.123 11.912 184.091 12.416 184.027 12.864H176.491C176.523 13.808 176.755 14.576 177.187 15.168C177.619 15.76 178.275 16.056 179.155 16.056C180.323 16.056 181.019 15.544 181.243 14.52H184.099C183.907 15.688 183.371 16.608 182.491 17.28C181.579 17.984 180.467 18.336 179.155 18.336C177.619 18.336 176.331 17.776 175.291 16.656C174.219 15.488 173.683 13.992 173.683 12.168C173.683 10.296 174.219 8.792 175.291 7.656C176.315 6.568 177.603 6.024 179.155 6.024C180.771 6.024 182.027 6.592 182.923 7.728ZM179.179 8.28C178.379 8.28 177.755 8.544 177.307 9.072C176.859 9.584 176.595 10.248 176.515 11.064H181.483C181.483 9.8 181.083 8.952 180.283 8.52C179.979 8.36 179.611 8.28 179.179 8.28ZM190.345 8.64C191.049 6.96 192.105 6.12 193.513 6.12C193.785 6.12 194.129 6.176 194.545 6.288L194.497 9.12C194.049 9.024 193.609 8.976 193.177 8.976C191.289 8.976 190.345 10.28 190.345 12.888V18H187.513V6.312H190.345V8.64ZM199.082 14.448C199.114 15.552 199.922 16.104 201.506 16.104C202.114 16.104 202.61 15.976 202.994 15.72C203.394 15.448 203.594 15.136 203.594 14.784C203.594 14.432 203.474 14.16 203.234 13.968C202.994 13.776 202.618 13.6 202.106 13.44L199.562 12.528C197.674 11.872 196.73 10.8 196.73 9.312C196.73 8.32 197.17 7.528 198.05 6.936C198.946 6.328 200.138 6.024 201.626 6.024C203.13 6.024 204.282 6.352 205.082 7.008C205.898 7.664 206.322 8.488 206.354 9.48H203.69C203.658 9.096 203.474 8.792 203.138 8.568C202.802 8.344 202.322 8.232 201.698 8.232C201.074 8.232 200.586 8.36 200.234 8.616C199.898 8.856 199.73 9.136 199.73 9.456C199.73 10.016 200.202 10.432 201.146 10.704L203.906 11.736C204.818 12.04 205.514 12.432 205.994 12.912C206.49 13.376 206.738 13.984 206.738 14.736C206.738 15.696 206.282 16.528 205.37 17.232C204.426 17.968 203.178 18.336 201.626 18.336C200.074 18.336 198.826 18 197.882 17.328C196.938 16.64 196.458 15.68 196.442 14.448H199.082ZM212.986 8.232C213.786 6.76 214.954 6.024 216.49 6.024C218.026 6.024 219.154 6.496 219.874 7.44C220.61 8.384 220.978 9.632 220.978 11.184V18H218.146V11.184C218.146 10.32 217.938 9.672 217.522 9.24C217.106 8.792 216.522 8.568 215.77 8.568C215.018 8.568 214.37 8.904 213.826 9.576C213.298 10.248 213.018 11.256 212.986 12.6V18H210.154V1.536H212.986V8.232ZM225.347 6.312H228.179V18H225.347V6.312ZM225.011 2.568C225.011 2.056 225.163 1.656 225.467 1.368C225.771 1.064 226.203 0.912 226.763 0.912C227.307 0.912 227.731 1.064 228.035 1.368C228.355 1.656 228.515 2.056 228.515 2.568C228.515 3.08 228.355 3.488 228.035 3.792C227.731 4.08 227.307 4.224 226.763 4.224C226.203 4.224 225.771 4.08 225.467 3.792C225.163 3.488 225.011 3.08 225.011 2.568ZM235.574 7.92C236.31 6.656 237.43 6.024 238.934 6.024C240.374 6.024 241.606 6.568 242.63 7.656C243.718 8.808 244.262 10.312 244.262 12.168C244.262 14.04 243.71 15.552 242.606 16.704C241.582 17.792 240.358 18.336 238.934 18.336C237.51 18.336 236.47 17.912 235.814 17.064V23.688H232.982V6.336H235.31L235.574 7.92ZM238.43 15.768C238.766 15.768 239.11 15.696 239.462 15.552C239.83 15.408 240.158 15.184 240.446 14.88C241.086 14.208 241.406 13.312 241.406 12.192C241.406 11.056 241.126 10.168 240.566 9.528C240.022 8.888 239.35 8.568 238.55 8.568C237.766 8.568 237.118 8.8 236.606 9.264C236.11 9.712 235.846 10.36 235.814 11.208V13.296C235.814 14.048 236.078 14.656 236.606 15.12C237.102 15.552 237.71 15.768 238.43 15.768Z" fill="#181827"/>
</svg>
