<svg width="20" height="20" viewBox="0 0 20 20" fill="none" xmlns="http://www.w3.org/2000/svg">
<path d="M10.0003 0C4.47767 0 7.44228e-08 4.47733 7.44228e-08 10C-0.000666592 15.5227 4.47767 20 9.99967 20C15.523 20 20.0007 15.5227 20 10C20.0007 4.47733 15.5223 0 10.0003 0ZM15.7047 14.3047C15.6779 14.3601 15.6437 14.4117 15.603 14.458L15.6023 14.4577L15.5953 14.4673L13.9963 16.113C13.8597 16.254 13.6923 16.3283 13.5127 16.3283C13.2313 16.3283 12.9533 16.1357 12.8373 15.8603C12.7273 15.5993 12.783 15.3193 12.986 15.1103L13.4083 14.6757C12.2993 14.5797 11.5023 13.8037 11.369 12.6813C11.354 12.6257 11.3467 12.5683 11.3473 12.5107V6.16867C11.3213 5.67833 10.9673 5.455 10.6283 5.455C10.2893 5.455 9.93467 5.67833 9.90833 6.17733V13.9883C9.90833 14.8993 8.484 14.8993 8.484 13.9883V6.16867C8.45767 5.67833 8.10367 5.455 7.76467 5.455C7.428 5.455 7.07533 5.676 7.04567 6.17L7.047 13.9883C7.047 14.8993 5.62233 14.8993 5.62233 13.9883L5.61967 6.16867C5.60567 5.745 5.302 5.433 4.89867 5.42267C4.43867 5.409 4.20367 5.04033 4.209 4.683C4.214 4.34233 4.448 3.99733 4.88533 3.99733C5.44133 4.01333 5.94067 4.215 6.32633 4.56933C6.72433 4.173 7.231 3.96967 7.773 3.99767C8.323 4.02833 8.80767 4.22667 9.185 4.574C9.58333 4.17433 10.0907 3.97033 10.636 3.99767C11.77 4.06033 12.6197 4.865 12.7507 6.00067C12.7577 6.02133 12.772 6.08767 12.772 6.16867V12.5103C12.793 12.872 12.9647 13.0943 13.33 13.2043L12.9877 12.8597C12.7827 12.653 12.7247 12.374 12.833 12.114C12.9487 11.836 13.2287 11.642 13.5133 11.642C13.6917 11.642 13.8583 11.715 13.9953 11.8527C14.3947 12.256 14.794 12.658 15.1933 13.0597L15.621 13.4937C15.655 13.536 15.684 13.583 15.7097 13.637C15.8207 13.8373 15.8207 14.0903 15.7047 14.3047Z" fill="white"/>
</svg>
