<svg width="374" height="188" viewBox="0 0 374 188" fill="none" xmlns="http://www.w3.org/2000/svg">
<path d="M359.532 12.4464H193.06V96.0788H359.532V12.4464Z" fill="#E6E6E6"/>
<path d="M81.8691 175.194L82.7975 179.39L89.2939 178.924L88.83 174.262L81.8691 175.194Z" fill="#FFB8B8"/>
<path d="M65.6279 175.194L64.7 179.39L58.2031 178.924L58.6675 174.262L65.6279 175.194Z" fill="#FFB8B8"/>
<path d="M63.7717 39.0508C68.6411 39.0508 72.5884 35.0846 72.5884 30.1921C72.5884 25.2996 68.6411 21.3335 63.7717 21.3335C58.9024 21.3335 54.9551 25.2996 54.9551 30.1921C54.9551 35.0846 58.9024 39.0508 63.7717 39.0508Z" fill="#FFB8B8"/>
<path d="M58.2032 32.5233L55.8833 43.2471L67.4838 46.977L67.0199 33.4561L58.2032 32.5233Z" fill="#FFB8B8"/>
<path d="M62.3799 44.6457L56.5416 40.2045C56.5416 40.2045 55.4193 38.5845 54.9553 39.9833C54.4913 41.382 50.3149 46.5107 50.3149 46.5107L53.5632 84.7427L78.1571 85.2089C78.1571 85.2089 68.5469 40.6408 67.3195 42.177C66.0921 43.7132 62.8439 43.7132 62.3799 44.6457Z" fill="#D0CDE1"/>
<path d="M67.2524 39.2839C67.2524 39.2839 65.3962 41.1489 66.3243 42.5476C67.2524 43.9464 66.5563 46.5401 67.4844 46.7585C68.4125 46.977 66.5563 62.8293 69.3405 67.0254C72.1248 71.2216 70.7326 81.9452 70.7326 83.8102C70.7326 85.6752 73.5169 96.865 73.5169 96.865C73.5169 96.865 82.7976 97.7975 82.7976 95.4663C82.7976 93.1351 79.5493 76.8166 79.5493 76.8166L82.3335 47.9094C82.3335 47.9094 82.3335 45.112 79.0853 44.1795C75.837 43.247 69.3405 40.9158 69.3405 40.9158L67.2524 39.2839Z" fill="#7075A5"/>
<path d="M80.4772 73.0866H78.157C78.157 73.0866 66.0921 74.0191 67.0202 68.8904C67.9482 63.7618 77.229 67.4917 77.229 67.4917L80.0132 68.8904L80.4772 73.0866Z" fill="#FFB8B8"/>
<path d="M56.9102 38.4999C56.9102 38.4999 53.0989 40.9158 52.6349 41.8483C52.1709 42.7808 41.498 47.9094 41.498 51.6394C41.498 55.3693 44.7463 59.5655 44.7463 59.5655L48.9226 100.595C48.9226 100.595 55.8831 102.926 56.3472 101.061C56.8112 99.1963 58.6674 58.1668 57.7393 56.3018C56.8112 54.4368 56.8112 42.3145 56.8112 42.3145L56.9102 38.4999Z" fill="#7075A5"/>
<path d="M44.7463 106.19L44.2822 108.987C44.2822 108.987 44.7463 118.312 48.4585 117.846C52.1708 117.38 49.8506 108.055 49.8506 108.055L49.3866 106.19H44.7463Z" fill="#FFB8B8"/>
<path d="M50.3149 82.4115C50.3149 82.4115 50.779 124.373 53.0992 137.895C55.4193 151.416 56.3474 174.728 56.3474 174.728C56.3474 174.728 62.3799 175.66 63.3079 176.127C64.236 176.593 66.5562 175.194 66.5562 175.194L67.0202 106.19L75.8369 137.428C75.8369 137.428 77.229 175.194 80.0132 176.127C82.7974 177.059 91.1501 175.194 91.1501 175.194C91.1501 175.194 87.9018 139.293 86.9737 137.895C86.0457 136.496 83.7255 95.4663 80.0132 88.0064L78.6211 82.8777C78.6211 82.8777 52.1711 83.8102 50.3149 82.4115Z" fill="white"/>
<path d="M83.2617 177.525C83.2617 177.525 80.9415 175.66 80.9415 177.059C80.9415 178.458 78.6213 187.083 81.4055 187.083C84.1897 187.083 102.751 188.715 102.287 184.985C101.823 181.255 90.6568 175.299 90.6568 175.299C90.6568 175.299 86.5099 176.593 86.0459 177.059C85.5818 177.525 83.2617 177.525 83.2617 177.525Z" fill="#D0CDE1"/>
<path d="M64.2361 177.525C64.2361 177.525 66.5563 175.66 66.5563 177.059C66.5563 178.458 68.8765 187.083 66.0923 187.083C63.3081 187.083 44.7467 188.715 45.2107 184.985C45.6747 181.255 56.841 175.299 56.841 175.299C56.841 175.299 60.9879 176.593 61.4519 177.059C61.916 177.525 64.2361 177.525 64.2361 177.525Z" fill="#D0CDE1"/>
<path d="M79.0854 47.4432L82.3337 47.9095L88.8302 66.5592C88.8302 66.5592 90.6864 75.8841 87.9021 77.2828C85.1179 78.6816 79.863 78.4083 79.863 78.4083L79.0854 67.958L81.4056 68.4242L79.0854 63.7618V47.4432Z" fill="#7075A5"/>
<path d="M43.8182 49.7743L41.4981 51.6393C41.4981 51.6393 39.1779 75.4177 39.6419 77.7489C40.106 80.0802 42.8902 108.521 42.8902 108.521L50.7788 106.656L45.2103 50.2406L43.8182 49.7743Z" fill="#7075A5"/>
<path d="M54.0182 23.7535C54.0182 23.7535 51.4512 20.4816 54.0182 18.8457V19.6637C54.0182 19.6637 59.5188 13.5289 62.8191 15.1649L65.7528 14.3469V15.1649L67.5863 14.3469L67.2196 15.5739H69.7866L68.6865 16.3918C68.6865 16.3918 77.1207 15.9829 71.9868 22.1176C71.9868 22.1176 74.4271 25.7957 72.1069 27.842C72.1069 27.842 70.1533 23.3445 67.5863 24.5715C66.891 24.9342 66.1065 25.0885 65.3264 25.016C64.5462 24.9434 63.8032 24.6472 63.1859 24.1625C63.1859 24.1625 58.052 23.7535 58.7854 26.2074C59.5188 28.6613 59.1521 29.4792 59.1521 29.4792C59.1521 29.4792 57.3185 30.7062 57.6853 31.5241C58.052 32.3421 58.052 34.796 58.052 34.796C58.052 34.796 56.2184 31.9331 55.485 32.3421C54.7516 32.7511 50.7178 28.6613 54.0182 23.7535Z" fill="#2F2E41"/>
<path d="M154.619 53.0364L135.107 53.5234L132.481 30.1471H154.619V53.0364Z" fill="#2F2E41"/>
<path d="M133.965 83.3402L126.842 132.955C126.842 132.955 120.67 150.607 120.195 159.194L118.296 171.598L126.842 173.506L135.864 138.68L148.209 107.194L146.784 143.451L143.935 173.029L152.482 174.46L157.705 136.772L163.403 109.102C163.403 109.102 167.676 85.2485 161.029 82.8632L133.965 83.3402Z" fill="white"/>
<path d="M126.271 168.553L125.321 180.164C125.321 180.164 135.491 186.072 132.228 187.217C128.965 188.363 124.498 186.889 123.584 186.629C122.62 186.354 120.818 185.916 119.455 185.591C118.825 185.446 118.257 185.102 117.835 184.609C117.413 184.116 117.16 183.5 117.112 182.851L117.109 182.809C117.027 181.38 120.235 168.963 120.235 168.963L126.271 168.553Z" fill="#D0CDE1"/>
<path d="M150.97 168.843L151.77 179.946C151.77 179.946 163.352 184.27 160.366 186.02C157.381 187.771 152.717 187.182 151.77 187.102C150.026 186.955 145.684 186.807 145.684 186.807C145.684 186.807 144.881 187.506 144.529 186.119C144.176 184.732 144.999 172.344 144.999 172.344L150.97 168.843Z" fill="#D0CDE1"/>
<path d="M143.935 43.2665C148.918 43.2665 152.957 39.2083 152.957 34.2022C152.957 29.1962 148.918 25.1379 143.935 25.1379C138.953 25.1379 134.914 29.1962 134.914 34.2022C134.914 39.2083 138.953 43.2665 143.935 43.2665Z" fill="#FFB8B8"/>
<path d="M138.713 39.4498L136.813 49.9454L144.885 53.7621L146.784 40.4042L138.713 39.4498Z" fill="#FFB8B8"/>
<path d="M137.763 89.0649L147.734 96.2209C147.734 96.2209 152.007 107.193 155.331 105.285C158.655 103.377 151.533 93.8356 151.533 93.8356L143.461 85.7255L137.763 89.0649Z" fill="#FFB8B8"/>
<path d="M166.252 85.7255L167.201 91.4503C167.201 91.4503 164.827 103.377 161.978 100.992C159.13 98.6063 162.928 90.9732 162.928 90.9732L162.453 86.2025L166.252 85.7255Z" fill="#FFB8B8"/>
<path d="M143.936 50.8996L142.986 47.0831L137.289 44.2207L135.389 46.606L129.217 48.5143L136.339 86.6797C136.339 86.6797 160.554 88.1109 161.029 84.2943C161.504 80.4778 156.281 69.9823 156.281 69.9823C156.281 69.9823 157.705 64.7346 157.23 61.8722L155.331 50.4226L147.734 48.0372L145.999 45.9282L144.411 48.5143L143.936 50.8996Z" fill="#D0CDE1"/>
<path d="M130.641 49.4684L129.217 48.5143C129.217 48.5143 126.368 48.9914 125.419 52.8079C124.469 56.6244 125.419 73.7988 127.793 77.1383C130.167 80.4778 136.814 90.4962 136.814 90.4962L145.835 86.2026L136.339 75.23L133.965 61.3951L130.641 49.4684Z" fill="#D0CDE1"/>
<path d="M151.533 51.3766L155.331 50.4225C155.331 50.4225 157.705 51.3766 158.655 54.7161C159.604 58.0556 164.827 74.7529 164.353 76.1841C163.878 77.6153 168.626 87.1566 168.626 87.1566L161.978 87.6337L158.18 77.6153L154.382 67.5969L151.533 51.3766Z" fill="#D0CDE1"/>
<path d="M128.3 42.8102C130.203 41.7605 131.088 39.4043 131.151 37.2244C131.214 35.0445 130.688 32.8871 130.647 30.7067C130.625 30.2606 130.663 29.8136 130.759 29.3776C130.917 28.8363 131.163 28.325 131.487 27.8643C133.961 24.0553 138.261 21.376 142.791 21.3338C143.446 21.3252 144.096 21.4452 144.704 21.6871C145.173 21.8756 145.326 21.8525 145.416 22.4303C146.489 22.0746 147.652 22.1118 148.701 22.5353C149.739 22.9595 150.708 23.5391 151.574 24.2544C152.088 24.6389 152.574 25.0613 153.026 25.518C155.42 28.0098 155.971 31.8503 155.278 35.2428C155.052 36.3457 156.134 37.4105 157.029 38.088C157.924 38.7654 158.958 39.3875 159.398 40.4233C159.821 41.4196 159.588 42.5591 159.673 43.6388C159.769 44.6595 160.147 45.633 160.764 46.4495C161.381 47.266 162.213 47.893 163.165 48.2596C162.971 48.4935 162.717 48.6702 162.431 48.7713C162.145 48.8724 161.837 48.894 161.54 48.8339C160.92 48.7026 160.339 48.4249 159.846 48.0238C157.994 46.6443 156.668 44.668 156.091 42.4248C155.828 43.6263 155.93 44.8655 155.939 46.0957C155.916 47.4685 156.168 48.832 156.679 50.1053C157.2 51.3847 158.152 52.4387 159.37 53.0818C158.196 53.6595 156.902 53.2407 155.906 52.3885C154.953 51.4789 154.264 50.3255 153.914 49.0521C153.246 47.0195 152.975 44.8765 153.116 42.7408C152.024 44.5884 151.625 46.7673 151.991 48.8846C152.373 51.0432 153.494 52.9995 155.161 54.4145C152.255 54.3897 149.397 53.6665 146.825 52.3051C146.161 52.0028 145.576 51.5499 145.116 50.9821C144.288 49.8288 144.484 48.2559 144.716 46.8534C144.9 45.7445 143.52 44.1413 144.31 43.345C144.545 43.1121 144.858 42.9767 145.188 42.9659C146.376 42.8766 147.527 42.5142 148.553 41.9066C149.579 41.299 150.453 40.4625 151.106 39.4617C152.016 38.0857 152.534 36.4849 152.601 34.8338C152.601 33.6214 152.339 32.4234 151.836 31.3217C151.332 30.2201 150.597 29.2407 149.682 28.4506C148.767 27.6605 147.693 27.0782 146.533 26.7437C145.373 26.4091 144.155 26.3301 142.962 26.512C141.769 26.6939 140.629 27.1325 139.62 27.7978C138.612 28.4631 137.758 29.3394 137.117 30.3668C136.476 31.3942 136.064 32.5485 135.908 33.7507C135.752 34.953 135.857 36.1749 136.214 37.3328C136.499 38.2647 136.703 39.2196 136.824 40.1868C136.968 41.3091 137.195 42.419 137.505 43.5068C138.102 45.5974 139.115 47.7307 140.988 48.8212C140.333 49.103 139.629 49.2527 138.917 49.2618C136.566 49.522 134.094 49.4646 131.967 48.4274C129.839 47.3901 128.148 45.1812 128.3 42.8102Z" fill="#2F2E41"/>
<path d="M133.429 33.5564C140.18 30.838 146.834 30.2581 153.316 33.5564V28.0771C153.316 27.1306 152.942 26.2228 152.275 25.5536C151.609 24.8843 150.706 24.5083 149.764 24.5083H136.235C135.867 24.5083 135.502 24.5812 135.161 24.7229C134.821 24.8646 134.512 25.0723 134.251 25.3341C133.99 25.5959 133.784 25.9067 133.643 26.2487C133.502 26.5908 133.429 26.9574 133.429 27.3277V33.5564Z" fill="#2F2E41"/>
<path d="M135.53 36.9494C136.079 36.9494 136.525 36.2333 136.525 35.35C136.525 34.4666 136.079 33.7505 135.53 33.7505C134.98 33.7505 134.535 34.4666 134.535 35.35C134.535 36.2333 134.98 36.9494 135.53 36.9494Z" fill="#FFB8B8"/>
<path d="M219.132 187.153H0V188H219.132V187.153Z" fill="#3F3D56"/>
<path d="M374 84.4796H206.684V0H374V84.4796ZM207.527 83.6328H373.157V0.846828H207.527V83.6328Z" fill="white"/>
<path d="M288.858 68.716C288.857 70.067 288.457 71.3875 287.709 72.5105C286.962 73.6334 285.9 74.5085 284.657 75.0251C283.415 75.5417 282.048 75.6766 280.729 75.4128C279.41 75.149 278.199 74.4983 277.248 73.5429C276.297 72.5876 275.649 71.3705 275.387 70.0454C275.124 68.7204 275.258 67.3468 275.773 66.0984C276.287 64.85 277.158 63.7827 278.275 63.0315C279.393 62.2803 280.707 61.8788 282.052 61.8778C282.946 61.8753 283.832 62.0504 284.659 62.3932C285.486 62.7359 286.237 63.2395 286.87 63.875C287.502 64.5105 288.004 65.2653 288.345 66.0961C288.686 66.9269 288.86 67.8173 288.858 68.716Z" fill="#7075A5"/>
<path d="M285.222 68.716C285.221 70.067 284.822 71.3875 284.074 72.5105C283.327 73.6334 282.264 74.5085 281.022 75.0251C279.779 75.5417 278.412 75.6766 277.094 75.4128C275.775 75.149 274.563 74.4983 273.613 73.5429C272.662 72.5876 272.014 71.3705 271.752 70.0454C271.489 68.7204 271.623 67.3468 272.137 66.0984C272.651 64.85 273.522 63.7827 274.64 63.0315C275.758 62.2803 277.072 61.8788 278.417 61.8778C279.311 61.8753 280.197 62.0504 281.024 62.3932C281.851 62.7359 282.602 63.2395 283.235 63.875C283.867 64.5105 284.368 65.2653 284.709 66.0961C285.051 66.9269 285.225 67.8173 285.222 68.716Z" fill="#DFBC60"/>
</svg>
