<svg width="20" height="20" viewBox="0 0 20 20" fill="none" xmlns="http://www.w3.org/2000/svg">
<path d="M10.0006 0.625C4.8225 0.625 0.625 4.8225 0.625 10C0.624375 15.1775 4.8225 19.375 10 19.375C15.1781 19.375 19.3756 15.1775 19.375 10C19.3756 4.8225 15.1775 0.625 10.0006 0.625ZM4.77437 7.73656C4.78344 7.70125 4.805 7.65187 4.83313 7.60469C4.85578 7.55941 4.88425 7.51728 4.91781 7.47937C5.04046 7.29955 5.18536 7.13596 5.34906 6.9925C5.38464 6.93324 5.42984 6.88033 5.48281 6.83594C6.79938 5.73656 8.37344 5.15594 10.0353 5.15594C11.1509 5.15594 12.2478 5.41625 13.2941 5.93C13.5437 6.0525 13.6606 6.29125 13.5997 6.55344C13.5091 6.94281 13.0609 7.17937 12.6947 6.99906C11.8469 6.58281 10.9519 6.37187 10.0344 6.37187C9.37625 6.37187 8.73344 6.48187 8.11969 6.69938C9.26531 7.48125 9.65219 9.01625 8.98219 10.1219C8.51844 10.8875 7.67844 11.3819 6.84187 11.3819C6.43257 11.3839 6.03252 11.2601 5.69594 11.0272C4.61031 10.2869 4.23969 8.96437 4.77437 7.73656ZM15.2256 12.2644C15.2116 12.3106 15.1917 12.355 15.1666 12.3962C15.1497 12.4316 15.1197 12.4775 15.0812 12.5206C14.9591 12.7 14.8146 12.8631 14.6512 13.0059C14.6157 13.0662 14.57 13.1199 14.5162 13.1647C13.2006 14.2628 11.6266 14.8438 9.96437 14.8438C8.84812 14.8438 7.75187 14.5831 6.70594 14.0697C6.45656 13.9469 6.33969 13.7078 6.40063 13.4459C6.49094 13.0566 6.93875 12.8203 7.30562 13.0003C8.74844 13.7091 10.4231 13.8162 11.8806 13.3006C10.7353 12.5194 10.3488 10.9844 11.0184 9.87781C11.4812 9.1125 12.3216 8.61781 13.1588 8.61781C13.5741 8.61781 13.9597 8.73719 14.3044 8.97219C15.39 9.71375 15.7606 11.0369 15.2256 12.2644Z" fill="white"/>
</svg>
