<svg width="78" height="78" viewBox="0 0 78 78" fill="none" xmlns="http://www.w3.org/2000/svg">
<mask id="path-1-inside-1" fill="white">
<path d="M77.9074 37.1012L77.9049 37.0963C76.9056 16.4482 59.8967 0 39 0C17.4598 0 0 17.4598 0 39C0 60.5402 17.4598 78 39 78C60.5402 78 78 60.5402 78 39C78 38.3589 77.9342 37.7349 77.9049 37.1036L77.9074 37.1012ZM27.2439 3.11512C27.4853 9.17719 23.5804 12.246 20.9308 14.2862C19.6609 15.2612 18.8199 15.9096 18.7322 16.7042C18.4982 18.8053 13.5769 21.7206 10.9663 21.7425C8.9115 21.7596 8.74819 24.2263 8.60194 26.403C8.50444 27.8972 8.39231 29.5912 7.73419 30.3054C7.53431 30.5248 7.30519 30.6248 7.01513 30.6248C7.01269 30.6248 7.01025 30.6248 7.00538 30.6248C6.05475 30.6174 4.57031 29.5644 2.93231 27.7436C6.56906 16.1168 15.6902 6.91031 27.2439 3.11512ZM1.2285 38.7904C1.638 39 2.10356 39.1731 2.58375 39.351C4.26075 39.9628 5.36494 40.4674 5.44537 41.8177C5.51119 42.9024 6.28875 43.2388 6.97125 43.5362C7.42462 43.7336 7.89263 43.9359 8.34356 44.3649C8.67994 45.2278 10.4203 51.3654 10.3594 53.0156C10.3423 53.4885 10.257 54.0247 10.1546 54.6414C9.88406 56.3233 9.50625 58.6268 10.3862 61.5786C10.7543 62.8193 10.9956 63.7479 11.1613 64.4573C5.00906 57.7298 1.21875 48.8109 1.21875 39C1.21875 38.9293 1.2285 38.8611 1.2285 38.7904ZM25.3963 69.3932C25.0331 68.9349 23.4926 66.7509 22.5688 65.2397C25.1306 66.8119 28.4968 67.1288 31.4998 67.4164C32.0848 67.47 32.6625 67.5261 33.2158 67.587C33.7374 67.6455 34.0787 67.7844 34.1811 67.9746C34.4077 68.406 33.8423 69.4785 33.4303 70.2634C32.9282 71.2213 32.4943 72.0427 32.6991 72.735C32.9867 73.7027 34.5174 75.4382 35.6265 76.6106C32.37 76.3206 29.2451 75.5966 26.2762 74.5314C25.8326 69.9831 25.5036 69.5297 25.3963 69.3932ZM37.4156 76.7008C36.1116 75.4016 34.1104 73.203 33.8691 72.3889C33.8179 72.1524 34.2493 71.3237 34.5101 70.8289C35.1097 69.6906 35.7849 68.3987 35.2584 67.4017C34.9538 66.8289 34.3127 66.4828 33.3548 66.3756C32.7917 66.3122 32.2067 66.2561 31.6144 66.2001C28.4456 65.9003 24.8552 65.559 22.5054 63.7114C22.1106 63.4018 21.3793 62.8217 20.8577 63.3433C19.89 64.3159 23.9704 69.5541 24.4067 70.0976C24.5578 70.4169 24.8113 72.2353 25.0063 74.0634C20.3872 72.2134 16.2191 69.4858 12.7067 66.0758C12.6555 65.5687 12.4434 64.2208 11.5537 61.2276C10.7591 58.5439 11.0931 56.4891 11.3612 54.8364C11.4636 54.2027 11.5586 53.6079 11.5806 53.0571C11.6391 51.3971 9.76219 44.0554 9.27956 43.5703C8.64094 42.9317 7.98525 42.6465 7.45875 42.4174C6.78113 42.1224 6.68362 42.0396 6.66656 41.7422C6.52762 39.4948 4.48988 38.7489 3.00544 38.2054C2.3205 37.9543 1.63556 37.6911 1.30406 37.362C1.42594 34.5296 1.85494 31.7801 2.57156 29.1403C3.87075 30.4809 5.53556 31.8313 6.99806 31.8411C7.00537 31.8411 7.01269 31.8411 7.01756 31.8411C7.64644 31.8411 8.20219 31.5949 8.63119 31.1318C9.58425 30.0983 9.70369 28.2604 9.82069 26.4834C9.95962 24.3604 10.1156 22.9686 10.9761 22.9613C13.8742 22.9369 19.617 19.7827 19.9436 16.8407C19.9826 16.5555 20.9601 15.7999 21.6767 15.2539C24.4018 13.1576 28.8819 9.65494 28.4554 2.74706C31.8069 1.76962 35.3389 1.21875 39 1.21875C58.6609 1.21875 74.8434 16.3191 76.6058 35.5266C75.5674 34.4321 74.0415 33.1695 72.4523 33.1695C71.0604 33.1695 71.0044 34.3346 70.8996 36.6502C70.8289 38.2249 68.3109 39.8531 66.9289 40.5722C66.2659 39.6289 64.5791 36.6576 64.5791 30.7174C64.5791 28.9575 64.1452 28.1287 63.5992 27.0782C63.0776 26.0788 62.4317 24.8357 61.7711 22.2032C60.5621 17.3769 58.7559 15.8584 57.0107 14.3934C56.6792 14.118 56.3477 13.8377 56.0137 13.5306C55.2606 12.8408 54.5488 12.8627 54.0832 12.9992C52.4014 13.5038 50.8341 16.6018 49.4325 22.2008C48.5696 25.6474 47.7701 25.8716 46.5636 26.2129C45.8689 26.4079 45.0036 26.6516 44.0505 27.4633C42.9829 28.3725 42.4174 29.2646 41.9201 30.0544C41.184 31.2171 40.6063 32.136 38.6344 32.9428C37.5278 33.3986 36.8672 33.5449 36.4723 33.6351C35.5778 33.8374 35.3852 34.1006 35.4412 35.0439C35.4583 35.3145 35.4803 35.7045 35.4656 36.2822C35.412 38.5003 35.022 39.8068 34.7782 39.9896C33.2889 41.0743 33.1524 41.5886 32.877 43.3851C32.8258 43.7166 32.7673 44.1017 32.6869 44.5575C32.3871 46.2686 33.7862 47.9773 35.139 49.6275C36.2286 50.9584 37.3547 52.3307 37.4107 53.4934C37.5546 56.4281 38.8464 58.3367 38.9001 58.4196L39.0536 58.6438L39.3218 58.6804C39.4509 58.6999 42.7732 59.0558 45.0133 53.2521C45.201 52.767 45.3473 52.5208 45.4374 52.4014C45.7568 52.845 46.137 54.2417 46.3101 54.8779C46.4514 55.3922 46.5733 55.8309 46.6733 56.0649C46.9682 56.745 47.0754 59.4628 47.073 61.0131V61.4396L47.4727 61.5883C49.4179 62.2928 50.1028 62.1758 50.7512 61.6785C50.9316 61.5493 51.1339 61.3933 52.5866 61.9661L53.5299 62.3293C54.8145 62.8217 55.6652 63.1459 55.8651 63.6334C56.0625 64.1111 55.8163 65.0374 55.0461 66.7266C53.5738 69.9514 54.4757 72.0622 55.1874 73.0836C50.2734 75.4309 44.7988 76.7812 39 76.7812C38.4662 76.7812 37.9446 76.7227 37.4156 76.7008ZM56.2941 72.5522C55.7724 71.8746 54.8413 70.1171 56.1551 67.2336C56.9692 65.4518 57.3934 64.1501 56.9936 63.1727C56.5939 62.1977 55.5482 61.8004 53.9662 61.1934L53.0351 60.8351C51.2509 60.1283 50.6342 60.2355 50.0126 60.7133C49.8298 60.8546 49.6056 61.0204 48.2918 60.5816C48.282 59.3726 48.2113 56.5427 47.7945 55.5799C47.7067 55.38 47.6068 54.9997 47.4874 54.5561C46.9438 52.5647 46.4831 51.1509 45.4886 51.0998C44.7208 51.0096 44.1943 51.9919 43.8774 52.8133C42.3491 56.7791 40.4381 57.3787 39.7459 57.4592C39.4241 56.8815 38.7246 55.4141 38.6295 53.4373C38.5539 51.8724 37.2962 50.3393 36.0823 48.8573C34.905 47.4167 33.6862 45.9298 33.8886 44.7671C33.969 44.304 34.0324 43.9091 34.0836 43.5703C34.3371 41.9421 34.3541 41.808 35.4998 40.9768C36.4504 40.2821 36.6527 37.7569 36.6868 36.3139C36.7039 35.6899 36.6771 35.2658 36.66 34.9708C36.6576 34.9245 36.6527 34.8831 36.6502 34.8441C36.6795 34.8368 36.7087 34.8294 36.7453 34.8221C37.1768 34.7246 37.8958 34.5638 39.0975 34.0689C41.4302 33.1134 42.2004 31.8874 42.9512 30.7027C43.4241 29.952 43.914 29.1769 44.8402 28.3896C45.5934 27.7485 46.254 27.5632 46.8951 27.3853C48.5672 26.9149 49.6494 26.3494 50.6123 22.4957C52.0479 16.7676 53.5275 14.4373 54.4318 14.1643C54.5951 14.1131 54.8316 14.1009 55.1899 14.4276C55.5384 14.7444 55.8821 15.0345 56.2258 15.3221C57.9711 16.7871 59.4774 18.0497 60.5914 22.4932C61.2836 25.2671 61.9978 26.6346 62.5194 27.6339C63.0459 28.6431 63.3628 29.2524 63.3628 30.7125C63.3628 38.6319 66.2025 41.6325 66.3244 41.7568L66.6242 42.0639L67.0142 41.8836C67.5236 41.6496 71.9916 39.507 72.1208 36.7014C72.1573 35.9044 72.2158 34.5735 72.4547 34.3834C74.061 34.3834 75.9184 36.4479 76.7106 37.5156C76.7252 38.0153 76.7812 38.5003 76.7812 39C76.7812 53.5982 68.4426 66.2634 56.2941 72.5522Z"/>
</mask>
<path d="M77.9074 37.1012L77.9049 37.0963C76.9056 16.4482 59.8967 0 39 0C17.4598 0 0 17.4598 0 39C0 60.5402 17.4598 78 39 78C60.5402 78 78 60.5402 78 39C78 38.3589 77.9342 37.7349 77.9049 37.1036L77.9074 37.1012ZM27.2439 3.11512C27.4853 9.17719 23.5804 12.246 20.9308 14.2862C19.6609 15.2612 18.8199 15.9096 18.7322 16.7042C18.4982 18.8053 13.5769 21.7206 10.9663 21.7425C8.9115 21.7596 8.74819 24.2263 8.60194 26.403C8.50444 27.8972 8.39231 29.5912 7.73419 30.3054C7.53431 30.5248 7.30519 30.6248 7.01513 30.6248C7.01269 30.6248 7.01025 30.6248 7.00538 30.6248C6.05475 30.6174 4.57031 29.5644 2.93231 27.7436C6.56906 16.1168 15.6902 6.91031 27.2439 3.11512ZM1.2285 38.7904C1.638 39 2.10356 39.1731 2.58375 39.351C4.26075 39.9628 5.36494 40.4674 5.44537 41.8177C5.51119 42.9024 6.28875 43.2388 6.97125 43.5362C7.42462 43.7336 7.89263 43.9359 8.34356 44.3649C8.67994 45.2278 10.4203 51.3654 10.3594 53.0156C10.3423 53.4885 10.257 54.0247 10.1546 54.6414C9.88406 56.3233 9.50625 58.6268 10.3862 61.5786C10.7543 62.8193 10.9956 63.7479 11.1613 64.4573C5.00906 57.7298 1.21875 48.8109 1.21875 39C1.21875 38.9293 1.2285 38.8611 1.2285 38.7904ZM25.3963 69.3932C25.0331 68.9349 23.4926 66.7509 22.5688 65.2397C25.1306 66.8119 28.4968 67.1288 31.4998 67.4164C32.0848 67.47 32.6625 67.5261 33.2158 67.587C33.7374 67.6455 34.0787 67.7844 34.1811 67.9746C34.4077 68.406 33.8423 69.4785 33.4303 70.2634C32.9282 71.2213 32.4943 72.0427 32.6991 72.735C32.9867 73.7027 34.5174 75.4382 35.6265 76.6106C32.37 76.3206 29.2451 75.5966 26.2762 74.5314C25.8326 69.9831 25.5036 69.5297 25.3963 69.3932ZM37.4156 76.7008C36.1116 75.4016 34.1104 73.203 33.8691 72.3889C33.8179 72.1524 34.2493 71.3237 34.5101 70.8289C35.1097 69.6906 35.7849 68.3987 35.2584 67.4017C34.9538 66.8289 34.3127 66.4828 33.3548 66.3756C32.7917 66.3122 32.2067 66.2561 31.6144 66.2001C28.4456 65.9003 24.8552 65.559 22.5054 63.7114C22.1106 63.4018 21.3793 62.8217 20.8577 63.3433C19.89 64.3159 23.9704 69.5541 24.4067 70.0976C24.5578 70.4169 24.8113 72.2353 25.0063 74.0634C20.3872 72.2134 16.2191 69.4858 12.7067 66.0758C12.6555 65.5687 12.4434 64.2208 11.5537 61.2276C10.7591 58.5439 11.0931 56.4891 11.3612 54.8364C11.4636 54.2027 11.5586 53.6079 11.5806 53.0571C11.6391 51.3971 9.76219 44.0554 9.27956 43.5703C8.64094 42.9317 7.98525 42.6465 7.45875 42.4174C6.78113 42.1224 6.68362 42.0396 6.66656 41.7422C6.52762 39.4948 4.48988 38.7489 3.00544 38.2054C2.3205 37.9543 1.63556 37.6911 1.30406 37.362C1.42594 34.5296 1.85494 31.7801 2.57156 29.1403C3.87075 30.4809 5.53556 31.8313 6.99806 31.8411C7.00537 31.8411 7.01269 31.8411 7.01756 31.8411C7.64644 31.8411 8.20219 31.5949 8.63119 31.1318C9.58425 30.0983 9.70369 28.2604 9.82069 26.4834C9.95962 24.3604 10.1156 22.9686 10.9761 22.9613C13.8742 22.9369 19.617 19.7827 19.9436 16.8407C19.9826 16.5555 20.9601 15.7999 21.6767 15.2539C24.4018 13.1576 28.8819 9.65494 28.4554 2.74706C31.8069 1.76962 35.3389 1.21875 39 1.21875C58.6609 1.21875 74.8434 16.3191 76.6058 35.5266C75.5674 34.4321 74.0415 33.1695 72.4523 33.1695C71.0604 33.1695 71.0044 34.3346 70.8996 36.6502C70.8289 38.2249 68.3109 39.8531 66.9289 40.5722C66.2659 39.6289 64.5791 36.6576 64.5791 30.7174C64.5791 28.9575 64.1452 28.1287 63.5992 27.0782C63.0776 26.0788 62.4317 24.8357 61.7711 22.2032C60.5621 17.3769 58.7559 15.8584 57.0107 14.3934C56.6792 14.118 56.3477 13.8377 56.0137 13.5306C55.2606 12.8408 54.5488 12.8627 54.0832 12.9992C52.4014 13.5038 50.8341 16.6018 49.4325 22.2008C48.5696 25.6474 47.7701 25.8716 46.5636 26.2129C45.8689 26.4079 45.0036 26.6516 44.0505 27.4633C42.9829 28.3725 42.4174 29.2646 41.9201 30.0544C41.184 31.2171 40.6063 32.136 38.6344 32.9428C37.5278 33.3986 36.8672 33.5449 36.4723 33.6351C35.5778 33.8374 35.3852 34.1006 35.4412 35.0439C35.4583 35.3145 35.4803 35.7045 35.4656 36.2822C35.412 38.5003 35.022 39.8068 34.7782 39.9896C33.2889 41.0743 33.1524 41.5886 32.877 43.3851C32.8258 43.7166 32.7673 44.1017 32.6869 44.5575C32.3871 46.2686 33.7862 47.9773 35.139 49.6275C36.2286 50.9584 37.3547 52.3307 37.4107 53.4934C37.5546 56.4281 38.8464 58.3367 38.9001 58.4196L39.0536 58.6438L39.3218 58.6804C39.4509 58.6999 42.7732 59.0558 45.0133 53.2521C45.201 52.767 45.3473 52.5208 45.4374 52.4014C45.7568 52.845 46.137 54.2417 46.3101 54.8779C46.4514 55.3922 46.5733 55.8309 46.6733 56.0649C46.9682 56.745 47.0754 59.4628 47.073 61.0131V61.4396L47.4727 61.5883C49.4179 62.2928 50.1028 62.1758 50.7512 61.6785C50.9316 61.5493 51.1339 61.3933 52.5866 61.9661L53.5299 62.3293C54.8145 62.8217 55.6652 63.1459 55.8651 63.6334C56.0625 64.1111 55.8163 65.0374 55.0461 66.7266C53.5738 69.9514 54.4757 72.0622 55.1874 73.0836C50.2734 75.4309 44.7988 76.7812 39 76.7812C38.4662 76.7812 37.9446 76.7227 37.4156 76.7008ZM56.2941 72.5522C55.7724 71.8746 54.8413 70.1171 56.1551 67.2336C56.9692 65.4518 57.3934 64.1501 56.9936 63.1727C56.5939 62.1977 55.5482 61.8004 53.9662 61.1934L53.0351 60.8351C51.2509 60.1283 50.6342 60.2355 50.0126 60.7133C49.8298 60.8546 49.6056 61.0204 48.2918 60.5816C48.282 59.3726 48.2113 56.5427 47.7945 55.5799C47.7067 55.38 47.6068 54.9997 47.4874 54.5561C46.9438 52.5647 46.4831 51.1509 45.4886 51.0998C44.7208 51.0096 44.1943 51.9919 43.8774 52.8133C42.3491 56.7791 40.4381 57.3787 39.7459 57.4592C39.4241 56.8815 38.7246 55.4141 38.6295 53.4373C38.5539 51.8724 37.2962 50.3393 36.0823 48.8573C34.905 47.4167 33.6862 45.9298 33.8886 44.7671C33.969 44.304 34.0324 43.9091 34.0836 43.5703C34.3371 41.9421 34.3541 41.808 35.4998 40.9768C36.4504 40.2821 36.6527 37.7569 36.6868 36.3139C36.7039 35.6899 36.6771 35.2658 36.66 34.9708C36.6576 34.9245 36.6527 34.8831 36.6502 34.8441C36.6795 34.8368 36.7087 34.8294 36.7453 34.8221C37.1768 34.7246 37.8958 34.5638 39.0975 34.0689C41.4302 33.1134 42.2004 31.8874 42.9512 30.7027C43.4241 29.952 43.914 29.1769 44.8402 28.3896C45.5934 27.7485 46.254 27.5632 46.8951 27.3853C48.5672 26.9149 49.6494 26.3494 50.6123 22.4957C52.0479 16.7676 53.5275 14.4373 54.4318 14.1643C54.5951 14.1131 54.8316 14.1009 55.1899 14.4276C55.5384 14.7444 55.8821 15.0345 56.2258 15.3221C57.9711 16.7871 59.4774 18.0497 60.5914 22.4932C61.2836 25.2671 61.9978 26.6346 62.5194 27.6339C63.0459 28.6431 63.3628 29.2524 63.3628 30.7125C63.3628 38.6319 66.2025 41.6325 66.3244 41.7568L66.6242 42.0639L67.0142 41.8836C67.5236 41.6496 71.9916 39.507 72.1208 36.7014C72.1573 35.9044 72.2158 34.5735 72.4547 34.3834C74.061 34.3834 75.9184 36.4479 76.7106 37.5156C76.7252 38.0153 76.7812 38.5003 76.7812 39C76.7812 53.5982 68.4426 66.2634 56.2941 72.5522Z" fill="black" stroke="white" stroke-width="6" mask="url(#path-1-inside-1)"/>
</svg>
