<svg width="20" height="20" viewBox="0 0 20 20" fill="none" xmlns="http://www.w3.org/2000/svg">
<path d="M10 0C4.47733 0 1.86097e-08 4.47733 1.86097e-08 10C-0.000333315 15.5227 4.47733 20 10 20C15.523 20 20.0003 15.5227 20 10C20.0003 4.47733 15.5227 0 10 0ZM15.5 9.99933C15.5 10.834 14.197 10.834 14.197 9.99933V6.724L8.49767 12.424L10.461 14.387C10.6493 14.5753 10.703 14.83 10.6043 15.0687C10.4993 15.3227 10.243 15.5003 9.98167 15.5003C9.818 15.5003 9.66533 15.434 9.53967 15.3083L7.57633 13.3447L5.597 15.323C5.56842 15.3511 5.53703 15.3763 5.50333 15.398C5.44679 15.436 5.38391 15.4637 5.31767 15.4797L5.26967 15.4867C5.23447 15.496 5.19808 15.5002 5.16167 15.499L5.113 15.4967C4.99144 15.4929 4.87382 15.4526 4.77544 15.3811C4.67706 15.3096 4.60246 15.2101 4.56133 15.0957C4.449 14.874 4.487 14.6123 4.67067 14.4117L6.655 12.424L4.69167 10.4603C4.50333 10.272 4.44967 10.0173 4.54833 9.77867C4.65333 9.52467 4.90967 9.347 5.171 9.347C5.33467 9.347 5.48733 9.41333 5.613 9.539L7.57633 11.5027L13.276 5.80267H10.0007C9.58333 5.80267 9.36467 5.475 9.36467 5.15133C9.36467 4.82767 9.58333 4.5 10.0007 4.5L14.885 4.504C15.0435 4.51348 15.1931 4.58048 15.3057 4.69242C15.4183 4.80436 15.4862 4.95355 15.4967 5.112L15.5 5.15033V9.99933Z" fill="white"/>
</svg>
