<svg width="20" height="20" viewBox="0 0 20 20" fill="none" xmlns="http://www.w3.org/2000/svg">
<path d="M10 0C4.47733 0 0 4.47733 0 10C0 15.5227 4.47733 20 10 20C15.5227 20 20 15.5227 20 10C20 4.47733 15.5227 0 10 0ZM15.479 11.991C15.3287 13.2573 14.3047 14.2283 13.1007 14.2283C13.0623 14.2283 13.0233 14.227 12.9837 14.225C12.3615 14.1895 11.767 13.9556 11.2873 13.5577C10.7053 14.7777 9.758 15.465 8.59967 15.5L8.577 15.5003C8.178 15.5003 7.964 15.1853 7.959 14.874C7.95433 14.5473 8.16933 14.2093 8.59 14.1967C9.55533 14.1687 10.0133 13.274 10.1653 12.891C10.2827 12.595 10.3683 12.3227 10.428 12.0573C10.4333 12.032 10.4677 11.842 10.4677 11.842C10.2023 11.0097 8.81467 6.386 8.70433 6.21267C8.54033 5.956 8.25533 5.79667 7.96133 5.79667C7.55567 5.79667 7.25933 6.079 7.16767 6.552L7.17267 13.5743C7.173 13.751 7.11167 13.9057 6.99667 14.0213C6.66533 14.354 5.869 14.227 5.868 13.5747L5.86667 6.476C5.85267 6.09633 5.54333 5.81433 5.13167 5.80333C4.71133 5.792 4.49567 5.45533 4.5 5.129C4.50433 4.81667 4.71833 4.50033 5.11967 4.50033C5.66933 4.515 6.17467 4.72 6.54633 5.06933C6.93367 4.724 7.45533 4.52833 8.00233 4.52833C8.94867 4.52833 9.71933 5.08133 10.014 5.97167C10.373 7.057 11.277 10.044 11.277 10.044C11.746 9.58433 12.3587 9.336 13.0007 9.37333C14.3423 9.44267 15.34 10.351 15.483 11.633C15.4967 11.6817 15.4963 11.9213 15.479 11.991Z" fill="white"/>
</svg>
