<svg width="370" height="220" viewBox="0 0 370 220" fill="none" xmlns="http://www.w3.org/2000/svg">
<g clip-path="url(#clip0)">
<path d="M245.48 75.2389L120.119 0L101.042 30.587C106.194 33.8698 109.837 38.9955 111.195 44.8732C112.552 50.7509 111.518 56.9163 108.312 62.0572C105.105 67.1981 99.9803 70.9083 94.0274 72.3983C88.0745 73.8883 81.7638 73.0404 76.4386 70.0349L70.248 79.9606H123.09V142.73L251.837 220L278.783 176.796H245.48V75.2389Z" fill="#F2F2F2"/>
<path d="M183.816 168.28C196.354 168.28 206.519 166.739 206.519 164.837C206.519 162.936 196.354 161.395 183.816 161.395C171.277 161.395 161.112 162.936 161.112 164.837C161.112 166.739 171.277 168.28 183.816 168.28Z" fill="#6C63FF"/>
<path d="M184.55 134.348L207.425 108.677C209.099 106.999 210.419 105.014 211.31 102.835C212.201 100.657 212.647 98.3272 212.62 95.9797C212.594 93.6323 212.097 91.3129 211.156 89.154C210.216 86.9952 208.852 85.0391 207.141 83.3975C205.43 81.7559 203.407 80.4609 201.186 79.5865C198.965 78.712 196.59 78.2753 194.197 78.3011C191.804 78.327 189.44 78.815 187.239 79.7372C185.038 80.6594 183.044 81.9978 181.371 83.676C179.66 82.0344 177.637 80.7394 175.416 79.865C173.195 78.9905 170.82 78.5538 168.427 78.5797C166.034 78.6055 163.67 79.0935 161.469 80.0157C159.268 80.9379 157.274 82.2764 155.601 83.9545C153.927 85.6327 152.607 87.6178 151.716 89.7965C150.824 91.9751 150.379 94.3047 150.405 96.6521C150.432 98.9996 150.929 101.319 151.869 103.478C152.809 105.637 154.174 107.593 155.885 109.234L181.334 134.348" fill="#6C63FF"/>
<path d="M123.806 79.6101H0.358398V189.414H123.806V79.6101Z" stroke="white" stroke-width="2" stroke-miterlimit="10"/>
<path d="M369.643 66.6409H246.195V176.445H369.643V66.6409Z" stroke="white" stroke-width="2" stroke-miterlimit="10"/>
<path d="M89.1441 65.6453C97.6299 65.6453 104.509 58.8972 104.509 50.5729C104.509 42.2486 97.6299 35.5005 89.1441 35.5005C80.6584 35.5005 73.7793 42.2486 73.7793 50.5729C73.7793 58.8972 80.6584 65.6453 89.1441 65.6453Z" fill="#6C63FF"/>
<path d="M125.591 132.595C125.591 132.595 144.886 125.935 153.105 135.049C161.323 144.162 184.192 129.791 184.192 129.791" stroke="#3F3D56" stroke-width="2" stroke-miterlimit="10"/>
<path d="M282.456 135.049C282.456 135.049 278.883 126.636 254.585 134.348C230.287 142.059 195.984 141.709 187.409 129.791L210.284 104.121C211.957 102.442 213.277 100.457 214.168 98.2787C215.06 96.1001 215.505 93.7705 215.479 91.4231C215.452 89.0756 214.955 86.7562 214.015 84.5974C213.075 82.4385 211.71 80.4825 210 78.8408C208.289 77.1992 206.265 75.9042 204.044 75.0298C201.823 74.1554 199.449 73.7186 197.056 73.7445C194.663 73.7704 192.298 74.2583 190.098 75.1806C187.897 76.1028 185.903 77.4412 184.229 79.1194C180.774 75.804 176.118 73.9708 171.285 74.023C166.453 74.0752 161.839 76.0087 158.459 79.3979C155.079 82.7871 153.211 87.3546 153.264 92.0955C153.317 96.8364 155.288 101.362 158.743 104.678L184.193 129.791" stroke="#3F3D56" stroke-width="2" stroke-miterlimit="10"/>
<path d="M186.714 165.419C199.253 165.419 209.417 163.877 209.417 161.976C209.417 160.075 199.253 158.533 186.714 158.533C174.175 158.533 164.011 160.075 164.011 161.976C164.011 163.877 174.175 165.419 186.714 165.419Z" stroke="#3F3D56" stroke-width="2" stroke-miterlimit="10"/>
<path d="M184.299 188.905C194.169 188.905 202.171 187.691 202.171 186.194C202.171 184.698 194.169 183.484 184.299 183.484C174.428 183.484 166.426 184.698 166.426 186.194C166.426 187.691 174.428 188.905 184.299 188.905Z" fill="#6C63FF"/>
<path d="M184.299 208.658C190.968 208.658 196.375 207.838 196.375 206.827C196.375 205.815 190.968 204.996 184.299 204.996C177.629 204.996 172.223 205.815 172.223 206.827C172.223 207.838 177.629 208.658 184.299 208.658Z" fill="#6C63FF"/>
<path d="M186.714 186.49C196.584 186.49 204.586 185.277 204.586 183.78C204.586 182.283 196.584 181.07 186.714 181.07C176.843 181.07 168.841 182.283 168.841 183.78C168.841 185.277 176.843 186.49 186.714 186.49Z" stroke="#3F3D56" stroke-width="2" stroke-miterlimit="10"/>
<path d="M186.714 206.841C193.383 206.841 198.79 206.021 198.79 205.01C198.79 203.998 193.383 203.178 186.714 203.178C180.044 203.178 174.638 203.998 174.638 205.01C174.638 206.021 180.044 206.841 186.714 206.841Z" stroke="#3F3D56" stroke-width="2" stroke-miterlimit="10"/>
<path d="M72.3935 136.961C78.9556 136.961 84.2753 131.743 84.2753 125.306C84.2753 118.869 78.9556 113.65 72.3935 113.65C65.8314 113.65 60.5117 118.869 60.5117 125.306C60.5117 131.743 65.8314 136.961 72.3935 136.961Z" fill="#2F2E41"/>
<path d="M66.7216 131.194C66.7216 131.194 62.8515 139.601 61.7457 139.872C60.64 140.143 70.8681 145.024 70.8681 145.024C70.8681 145.024 72.8031 134.72 73.6325 134.177C74.4618 133.635 66.7216 131.194 66.7216 131.194Z" fill="#9F616A"/>
<path d="M72.5264 137.431C76.9538 137.431 80.543 133.91 80.543 129.567C80.543 125.224 76.9538 121.703 72.5264 121.703C68.0989 121.703 64.5098 125.224 64.5098 129.567C64.5098 133.91 68.0989 137.431 72.5264 137.431Z" fill="#9F616A"/>
<path d="M79.2399 189.414H45.1514C46.2912 185.352 47.5097 181.324 48.1958 179.088C48.5424 177.966 48.7532 177.293 48.7532 177.293C48.7532 177.293 74.4625 182.716 75.0128 182.989C75.3223 183.313 75.5965 183.668 75.8311 184.048C76.635 185.205 77.9178 187.192 79.2399 189.414Z" fill="#2F2E41"/>
<path d="M36.8665 112.754L28.5734 100.28C28.5734 100.28 30.6242 87.1949 27.8599 89.6354C25.0955 92.076 24.2207 101.932 24.2207 101.932L33.8257 116.28L36.8665 112.754Z" fill="#9F616A"/>
<path d="M112.056 135.533L119.52 134.991C119.52 134.991 128.366 125.771 128.918 128.754C129.471 131.737 121.731 138.245 121.731 138.245L111.503 139.33L112.056 135.533Z" fill="#9F616A"/>
<path d="M57.5989 138.245V135.533C57.5989 135.533 50.4116 130.923 50.688 130.11C50.9645 129.296 50.1352 128.754 50.1352 128.754C50.1352 128.754 49.3059 127.669 49.3059 127.398C49.3059 127.127 48.2001 126.855 48.2001 126.855L41.2892 118.991C41.2892 118.991 37.4191 111.399 36.5898 111.67C35.7605 111.941 31.3376 113.568 31.8904 114.653C32.4433 115.737 47.9237 139.058 47.9237 139.058C47.9237 139.058 48.753 144.211 50.1352 144.211C51.5174 144.211 57.5989 138.245 57.5989 138.245Z" fill="#3F3D56"/>
<path d="M76.1204 141.499C76.1204 141.499 82.202 141.228 82.4784 141.499C82.7548 141.77 86.6249 141.499 86.6249 141.499C86.6249 141.499 97.1295 139.058 97.9588 138.245C98.7881 137.431 112.61 133.906 113.163 135.533C113.716 137.16 115.098 140.414 113.716 140.956C112.333 141.499 75.0146 150.719 75.0146 150.719L76.1204 141.499Z" fill="#3F3D56"/>
<path d="M68.2359 117.861C70.9513 117.861 73.1525 115.702 73.1525 113.038C73.1525 110.375 70.9513 108.215 68.2359 108.215C65.5206 108.215 63.3193 110.375 63.3193 113.038C63.3193 115.702 65.5206 117.861 68.2359 117.861Z" fill="#2F2E41"/>
<path d="M61.6815 110.426C61.6816 109.234 62.1317 108.084 62.945 107.198C63.7584 106.312 64.8773 105.753 66.086 105.629C65.9158 105.612 65.7449 105.603 65.5738 105.603C64.2699 105.603 63.0193 106.111 62.0973 107.015C61.1752 107.92 60.6572 109.147 60.6572 110.426C60.6572 111.705 61.1752 112.932 62.0973 113.836C63.0193 114.741 64.2699 115.249 65.5738 115.249C65.7449 115.249 65.9158 115.24 66.086 115.223C64.8773 115.098 63.7584 114.539 62.945 113.654C62.1317 112.768 61.6816 111.618 61.6815 110.426Z" fill="#2F2E41"/>
<path d="M73.7754 127.657C78.301 127.657 81.9697 125.498 81.9697 122.834C81.9697 120.171 78.301 118.011 73.7754 118.011C69.2498 118.011 65.5811 120.171 65.5811 122.834C65.5811 125.498 69.2498 127.657 73.7754 127.657Z" fill="#2F2E41"/>
<path d="M64.3717 135.397C64.3717 135.397 61.8838 137.296 61.3309 137.567C60.7781 137.838 57.4608 135.126 56.908 135.126C56.3551 135.126 49.1678 143.261 49.1678 143.261C49.1678 143.261 50.5035 144.771 49.1678 152.481C48.6668 155.373 47.673 167.736 47.673 169.363C47.673 170.99 42.2569 174.989 47.2327 178.514C52.2086 182.039 75.982 185.836 76.2585 183.666C76.5349 181.497 73.4941 175.802 74.8763 173.091C76.2584 170.379 76.2585 160.345 76.2585 160.345L77.9171 149.77L79.2992 141.363C79.2992 141.363 72.803 139.601 72.2501 139.601C71.6973 139.601 69.2093 143.397 64.3717 135.397Z" fill="#3F3D56"/>
<path d="M313.474 109.497L307.817 109.713L308.099 116.847L313.756 116.632L313.474 109.497Z" fill="#6C63FF"/>
<path d="M287.957 134.484C287.957 134.484 280.123 130.812 280.249 133.983C280.374 137.154 288.145 139.24 288.145 139.24L287.957 134.484Z" fill="#FFB9B9"/>
<path d="M324.384 176.445H287.227C288.002 172.877 289.478 168.572 290.632 165.47C291.547 163.017 292.254 161.313 292.254 161.313C296.474 156.644 302.599 156.525 308.344 157.678C309.03 157.815 309.713 157.969 310.385 158.141C310.463 158.158 310.542 158.179 310.62 158.2C311.964 158.54 313.268 158.933 314.501 159.326C316.627 160.006 318.546 160.693 320.097 161.159C320.876 161.412 321.678 161.596 322.491 161.709C322.669 161.728 322.848 161.735 323.027 161.73C323.641 161.706 324.066 162.354 324.342 163.486C324.963 166.042 324.82 171.075 324.384 176.445Z" fill="#2F2E41"/>
<path d="M317.054 102.812C317.054 102.812 321.361 109.396 323.04 110.92C324.719 112.444 319.996 115.799 319.996 115.799L311.542 116.915C311.542 116.915 311.648 109.368 311.213 108.591C310.778 107.814 317.054 102.812 317.054 102.812Z" fill="#FFB9B9"/>
<path d="M309.706 111.427C309.706 111.427 311.448 114.537 313.064 114.475C314.68 114.414 323.04 110.92 323.397 109.716C323.754 108.511 326.166 118.343 326.166 118.343L305.71 153.656L300.721 150.274L303.138 129.54L305.124 118.35L309.706 111.427Z" fill="#6C63FF"/>
<path d="M324.151 143.031C323.307 144.641 322.876 146.429 322.896 148.239C322.9 148.318 322.903 148.398 322.91 148.477C323.103 152.145 324.481 156.388 324.975 159.473C325.334 161.686 325.232 163.302 323.912 163.682C320.711 164.597 324.378 165.252 311.994 169.295C299.609 173.339 297.448 169.849 297.417 169.056C297.385 168.263 299.171 162.241 298.751 161.86C298.331 161.479 292.878 166.847 291.231 166.116C289.583 165.384 291.043 161.359 291.043 161.359C291.043 161.359 294.754 152.882 294.676 150.9C294.597 148.919 300.298 139.572 300.298 139.572L304.175 114.813C304.175 114.813 305.666 111.581 307.67 111.108C308.933 110.85 310.249 111.085 311.338 111.762L307.984 119.035L304.445 131.872L305.037 136.613C305.037 136.613 309.152 128.12 311.855 124.842C314.558 121.563 320.321 113.802 320.321 113.802C320.321 113.802 321.667 109.349 320.651 108.018C319.635 106.683 324.888 106.483 327.127 111.955C328.314 114.856 330.242 119.18 331.449 123.207C332.525 126.775 333.033 130.11 331.967 132.016C330.338 134.928 326.24 138.756 324.151 143.031Z" fill="#575A89"/>
<path opacity="0.1" d="M331.968 132.016C330.339 134.928 326.241 138.756 324.152 143.031C323.606 141.103 322.941 139.107 322.941 139.107C322.941 139.107 320.388 125.708 327.939 122.245C329.191 122.127 330.442 122.47 331.449 123.207C332.525 126.775 333.033 130.11 331.968 132.016Z" fill="black"/>
<path d="M301.989 131.171L295.587 133.003L286.698 133.341L285.783 140.918L300.392 141.95C300.392 141.95 304.04 131.887 301.989 131.171Z" fill="#575A89"/>
<path d="M312.428 156.647C312.428 156.647 303.864 158.041 305.818 160.57C307.773 163.098 315.361 160.44 315.361 160.44L312.428 156.647Z" fill="#FFB9B9"/>
<path opacity="0.1" d="M322.91 148.477C323.103 152.145 324.481 156.388 324.975 159.473C322.247 162.006 319.652 164.241 318.674 164.278C316.654 164.355 313.406 164.081 312.21 164.524C311.013 164.966 310.312 157.451 310.312 157.451C310.312 157.451 311.026 155.042 314.211 153.73C316.361 152.842 320.482 150.435 322.91 148.477Z" fill="black"/>
<path d="M327.845 119.867C327.845 119.867 334.682 118.813 334.313 129.942C333.944 141.071 335.034 148.174 332.284 150.264C329.534 152.353 320.601 161.823 318.581 161.9C316.561 161.976 313.312 161.703 312.116 162.146C310.92 162.588 310.218 155.073 310.218 155.073C310.218 155.073 310.932 152.664 314.117 151.352C317.303 150.04 324.807 145.388 324.744 143.802C324.682 142.217 322.846 136.729 322.846 136.729C322.846 136.729 320.293 123.33 327.845 119.867Z" fill="#575A89"/>
<path d="M311.025 112.561C315.938 112.561 319.92 108.654 319.92 103.835C319.92 99.0154 315.938 95.1084 311.025 95.1084C306.112 95.1084 302.129 99.0154 302.129 103.835C302.129 108.654 306.112 112.561 311.025 112.561Z" fill="#FFB9B9"/>
<path d="M305.035 91.3276C304.82 91.5089 304.563 91.6354 304.287 91.6958C304.148 91.72 304.005 91.6894 303.889 91.6107C303.773 91.532 303.694 91.4114 303.668 91.2755C303.508 91.7109 303.211 92.0849 302.82 92.3432C302.404 92.5557 301.762 92.3776 301.702 91.9217C301.641 92.2678 301.485 92.5911 301.25 92.8564C301.128 92.9833 300.96 93.0578 300.782 93.0636C300.604 93.0694 300.43 93.0062 300.3 92.8876C300.482 93.8631 300.369 94.8664 300.427 95.8566C300.484 96.8467 300.753 97.8964 301.516 98.5476C302.628 99.4971 304.3 99.2628 305.763 99.0829C305.984 99.0373 306.214 99.0496 306.429 99.1186C306.977 99.3475 306.952 100.096 306.959 100.68C307.004 101.704 307.417 102.68 308.126 103.435C308.835 104.189 309.793 104.672 310.831 104.798C311.412 104.886 312.004 104.745 312.478 104.404C312.893 104.059 313.106 103.496 313.582 103.236C314.356 102.814 315.295 103.43 315.861 104.098C316.427 104.766 316.985 105.588 317.862 105.711C319.022 105.873 319.905 104.713 320.338 103.646C320.936 102.149 321.223 100.551 321.181 98.9438C321.139 97.3372 320.77 95.755 320.094 94.2905C317.673 89.1122 309.4 88.2931 305.035 91.3276Z" fill="#2F2E41"/>
</g>
<defs>
<clipPath id="clip0">
<rect width="370" height="220" fill="white"/>
</clipPath>
</defs>
</svg>
