<svg width="374" height="188" viewBox="0 0 374 188" fill="none" xmlns="http://www.w3.org/2000/svg">
<g clip-path="url(#clip0)">
<path d="M359.531 12.4463H193.059V96.0787H359.531V12.4463Z" fill="#E6E6E6"/>
<path d="M173.92 171.926L177.863 170.784C178.562 168.964 179.159 167.106 179.651 165.218L177.799 165.15L179.818 164.565C180.402 162.225 180.642 160.638 180.642 160.638C180.642 160.638 172.645 163.031 166.623 167.701L165.88 172.938L165.169 168.911C164.514 169.496 163.896 170.121 163.319 170.783C157.521 177.48 154.998 184.812 157.684 187.159C160.369 189.505 167.246 185.979 173.043 179.282C174.837 177.107 176.289 174.669 177.348 172.052L173.92 171.926Z" fill="#E6E6E6"/>
<path d="M24.5405 148.065L22.2932 139.158C18.3083 137.461 14.2313 135.992 10.0816 134.756L9.79786 138.895L8.64723 134.335C3.50099 132.859 0 132.208 0 132.208C0 132.208 4.72905 150.277 14.6478 164.091L26.2054 166.131L17.2266 167.431C18.4748 168.94 19.8163 170.368 21.243 171.708C35.672 185.165 51.7432 191.339 57.1391 185.498C62.5349 179.657 55.212 164.013 40.783 150.556C36.3099 146.385 30.6906 143.037 25.0658 140.402L24.5405 148.065Z" fill="#E6E6E6"/>
<path d="M45.9148 138.393L48.5728 129.601C46.0344 126.079 43.3004 122.704 40.3837 119.491L38.0115 122.887L39.3724 118.385C35.7265 114.449 33.0641 112.074 33.0641 112.074C33.0641 112.074 27.8169 129.997 29.2014 146.974L38.0458 154.723L29.6904 151.173C29.9828 153.113 30.3963 155.032 30.9285 156.92C36.3574 175.933 46.9388 189.566 54.5627 187.368C62.1866 185.17 63.966 167.975 58.5371 148.962C56.8541 143.067 53.7661 137.283 50.3065 132.106L45.9148 138.393Z" fill="#E6E6E6"/>
<path d="M81.8672 175.194L82.7956 179.39L89.292 178.924L88.828 174.261L81.8672 175.194Z" fill="#FFB8B8"/>
<path d="M65.6279 175.194L64.7 179.39L58.2031 178.924L58.6675 174.261L65.6279 175.194Z" fill="#FFB8B8"/>
<path d="M63.7737 39.0508C68.643 39.0508 72.5904 35.0846 72.5904 30.1921C72.5904 25.2996 68.643 21.3335 63.7737 21.3335C58.9044 21.3335 54.957 25.2996 54.957 30.1921C54.957 35.0846 58.9044 39.0508 63.7737 39.0508Z" fill="#FFB8B8"/>
<path d="M58.2027 32.5232L55.8828 43.247L67.4834 46.9769L67.0194 33.456L58.2027 32.5232Z" fill="#FFB8B8"/>
<path d="M62.3813 44.6458L56.5431 40.2046C56.5431 40.2046 55.4208 38.5846 54.9568 39.9834C54.4927 41.3821 50.3164 46.5108 50.3164 46.5108L53.5647 84.7428L78.1585 85.2091C78.1585 85.2091 68.5484 40.641 67.321 42.1772C66.0936 43.7134 62.8454 43.7133 62.3813 44.6458Z" fill="#D0CDE1"/>
<path d="M67.2504 39.2839C67.2504 39.2839 65.3943 41.1489 66.3224 42.5476C67.2504 43.9464 66.5544 46.5401 67.4824 46.7585C68.4105 46.977 66.5544 62.8293 69.3386 67.0254C72.1228 71.2216 70.7307 81.9452 70.7307 83.8102C70.7307 85.6752 73.5149 96.865 73.5149 96.865C73.5149 96.865 82.7956 97.7975 82.7956 95.4663C82.7956 93.1351 79.5474 76.8166 79.5474 76.8166L82.3316 47.9094C82.3316 47.9094 82.3316 45.112 79.0833 44.1795C75.8351 43.247 69.3386 40.9158 69.3386 40.9158L67.2504 39.2839Z" fill="#2F2E41"/>
<path d="M80.4767 73.0866H78.1565C78.1565 73.0866 66.0916 74.0191 67.0197 68.8904C67.9478 63.7618 77.2285 67.4917 77.2285 67.4917L80.0127 68.8904L80.4767 73.0866Z" fill="#FFB8B8"/>
<path d="M56.9122 38.5C56.9122 38.5 53.1009 40.9159 52.6368 41.8484C52.1728 42.7809 41.5 47.9096 41.5 51.6395C41.5 55.3695 44.7482 59.5657 44.7482 59.5657L48.9246 100.595C48.9246 100.595 55.8851 102.926 56.3491 101.061C56.8132 99.1964 58.6693 58.1669 57.7412 56.302C56.8132 54.437 56.8132 42.3146 56.8132 42.3146L56.9122 38.5Z" fill="#2F2E41"/>
<path d="M44.7453 106.19L44.2812 108.987C44.2812 108.987 44.7453 118.312 48.4576 117.846C52.1698 117.38 49.8497 108.055 49.8497 108.055L49.3856 106.19H44.7453Z" fill="#FFB8B8"/>
<path d="M50.3164 82.4116C50.3164 82.4116 50.7804 124.374 53.1006 137.895C55.4208 151.416 56.3489 174.728 56.3489 174.728C56.3489 174.728 62.3813 175.66 63.3094 176.127C64.2375 176.593 66.5576 175.194 66.5576 175.194L67.0217 106.19L75.8383 137.428C75.8383 137.428 77.2304 175.194 80.0147 176.127C82.7989 177.059 91.1515 175.194 91.1515 175.194C91.1515 175.194 87.9033 139.293 86.9752 137.895C86.0471 136.496 83.7269 95.4664 80.0147 88.0065L78.6226 82.8779C78.6226 82.8779 52.1725 83.8104 50.3164 82.4116Z" fill="#2F2E41"/>
<path d="M83.2617 177.525C83.2617 177.525 80.9415 175.66 80.9415 177.059C80.9415 178.458 78.6213 187.083 81.4055 187.083C84.1897 187.083 102.751 188.715 102.287 184.985C101.823 181.255 90.6568 175.299 90.6568 175.299C90.6568 175.299 86.5099 176.593 86.0459 177.059C85.5818 177.525 83.2617 177.525 83.2617 177.525Z" fill="#2F2E41"/>
<path d="M64.2371 177.525C64.2371 177.525 66.5573 175.66 66.5573 177.059C66.5573 178.458 68.8775 187.083 66.0933 187.083C63.3091 187.083 44.7476 188.715 45.2117 184.985C45.6757 181.255 56.8419 175.299 56.8419 175.299C56.8419 175.299 60.9889 176.593 61.4529 177.059C61.917 177.525 64.2371 177.525 64.2371 177.525Z" fill="#2F2E41"/>
<path d="M79.0859 47.4431L82.3342 47.9094L88.8307 66.5591C88.8307 66.5591 90.6868 75.884 87.9026 77.2827C85.1184 78.6815 79.8635 78.4082 79.8635 78.4082L79.0859 67.9578L81.4061 68.4241L79.0859 63.7616V47.4431Z" fill="#2F2E41"/>
<path d="M43.8197 49.7744L41.4995 51.6394C41.4995 51.6394 39.1794 75.4178 39.6434 77.7491C40.1074 80.0803 42.8916 108.521 42.8916 108.521L50.7802 106.656L45.2118 50.2407L43.8197 49.7744Z" fill="#2F2E41"/>
<path d="M54.0192 23.7535C54.0192 23.7535 51.4522 20.4816 54.0192 18.8457V19.6637C54.0192 19.6637 59.5198 13.5289 62.8201 15.1649L65.7538 14.3469V15.1649L67.5873 14.3469L67.2206 15.5739H69.7876L68.6874 16.3918C68.6874 16.3918 77.1217 15.9829 71.9878 22.1176C71.9878 22.1176 74.4281 25.7957 72.1078 27.842C72.1078 27.842 70.1543 23.3445 67.5873 24.5715C66.892 24.9342 66.1075 25.0885 65.3273 25.016C64.5472 24.9434 63.8042 24.6472 63.1868 24.1625C63.1868 24.1625 58.0529 23.7535 58.7864 26.2074C59.5198 28.6613 59.1531 29.4792 59.1531 29.4792C59.1531 29.4792 57.3195 30.7062 57.6862 31.5241C58.053 32.3421 58.053 34.796 58.053 34.796C58.053 34.796 56.2194 31.9331 55.486 32.3421C54.7526 32.7511 50.7188 28.6613 54.0192 23.7535Z" fill="#2F2E41"/>
<path d="M154.618 53.0366L135.107 53.5235L132.48 30.1472H154.618V53.0366Z" fill="#2F2E41"/>
<path d="M133.965 83.3401L126.843 132.955C126.843 132.955 120.671 150.607 120.196 159.194L118.297 171.598L126.843 173.506L135.865 138.68L148.21 107.193L146.785 143.451L143.936 173.029L152.483 174.46L157.706 136.772L163.404 109.102C163.404 109.102 167.677 85.2484 161.029 82.863L133.965 83.3401Z" fill="#2F2E41"/>
<path d="M126.273 168.553L125.323 180.164C125.323 180.164 135.493 186.072 132.23 187.217C128.967 188.363 124.5 186.889 123.586 186.629C122.622 186.354 120.82 185.916 119.457 185.591C118.827 185.446 118.259 185.102 117.837 184.609C117.415 184.116 117.162 183.5 117.114 182.851L117.111 182.809C117.029 181.38 120.237 168.963 120.237 168.963L126.273 168.553Z" fill="#2F2E41"/>
<path d="M150.97 168.843L151.771 179.946C151.771 179.946 163.352 184.27 160.367 186.02C157.382 187.771 152.717 187.182 151.771 187.102C150.026 186.955 145.684 186.807 145.684 186.807C145.684 186.807 144.882 187.506 144.529 186.119C144.177 184.732 144.999 172.345 144.999 172.345L150.97 168.843Z" fill="#2F2E41"/>
<path d="M143.935 43.2665C148.918 43.2665 152.957 39.2083 152.957 34.2022C152.957 29.1962 148.918 25.1379 143.935 25.1379C138.953 25.1379 134.914 29.1962 134.914 34.2022C134.914 39.2083 138.953 43.2665 143.935 43.2665Z" fill="#FFB8B8"/>
<path d="M138.712 39.45L136.812 49.9455L144.884 53.7622L146.783 40.4043L138.712 39.45Z" fill="#FFB8B8"/>
<path d="M137.762 89.0648L147.733 96.2208C147.733 96.2208 152.006 107.193 155.33 105.285C158.653 103.377 151.531 93.8355 151.531 93.8355L143.459 85.7253L137.762 89.0648Z" fill="#FFB8B8"/>
<path d="M166.251 85.7253L167.2 91.4501C167.2 91.4501 164.826 103.377 161.977 100.991C159.129 98.6061 162.927 90.9731 162.927 90.9731L162.452 86.2024L166.251 85.7253Z" fill="#FFB8B8"/>
<path d="M143.934 50.8996L142.984 47.0831L137.287 44.2207L135.387 46.606L129.215 48.5143L136.337 86.6797C136.337 86.6797 160.552 88.1109 161.027 84.2943C161.502 80.4778 156.279 69.9823 156.279 69.9823C156.279 69.9823 157.703 64.7346 157.228 61.8722L155.329 50.4226L147.732 48.0372L145.997 45.9282L144.409 48.5143L143.934 50.8996Z" fill="#D0CDE1"/>
<path d="M130.641 49.4683L129.217 48.5142C129.217 48.5142 126.368 48.9912 125.419 52.8078C124.469 56.6243 125.419 73.7987 127.793 77.1382C130.167 80.4777 136.814 90.4961 136.814 90.4961L145.835 86.2024L136.339 75.2299L133.965 61.395L130.641 49.4683Z" fill="#D0CDE1"/>
<path d="M151.531 51.3767L155.33 50.4226C155.33 50.4226 157.704 51.3767 158.653 54.7162C159.603 58.0557 164.826 74.753 164.351 76.1842C163.876 77.6154 168.624 87.1567 168.624 87.1567L161.977 87.6338L158.179 77.6154L154.38 67.597L151.531 51.3767Z" fill="#D0CDE1"/>
<path d="M128.299 42.8101C130.201 41.7604 131.086 39.4042 131.15 37.2243C131.213 35.0444 130.686 32.887 130.645 30.7065C130.624 30.2605 130.662 29.8135 130.758 29.3774C130.915 28.8362 131.161 28.3248 131.485 27.8642C133.959 24.0552 138.26 21.3758 142.79 21.3337C143.444 21.3251 144.094 21.4451 144.703 21.687C145.171 21.8755 145.324 21.8524 145.414 22.4302C146.487 22.0745 147.651 22.1117 148.699 22.5352C149.738 22.9594 150.706 23.5389 151.572 24.2543C152.087 24.6388 152.572 25.0611 153.025 25.5179C155.419 28.0097 155.97 31.8501 155.276 35.2427C155.051 36.3456 156.133 37.4104 157.028 38.0879C157.923 38.7653 158.957 39.3874 159.396 40.4232C159.819 41.4195 159.587 42.559 159.672 43.6387C159.768 44.6594 160.145 45.6329 160.762 46.4494C161.379 47.2659 162.211 47.8928 163.164 48.2595C162.97 48.4933 162.716 48.6701 162.43 48.7712C162.144 48.8723 161.836 48.8939 161.539 48.8338C160.918 48.7025 160.338 48.4248 159.845 48.0237C157.992 46.6442 156.666 44.6679 156.089 42.4246C155.826 43.6261 155.928 44.8654 155.938 46.0956C155.915 47.4684 156.167 48.8319 156.678 50.1052C157.198 51.3846 158.151 52.4386 159.368 53.0816C158.194 53.6593 156.9 53.2406 155.905 52.3884C154.951 51.4788 154.262 50.3254 153.912 49.052C153.244 47.0194 152.974 44.8764 153.115 42.7407C152.022 44.5883 151.623 46.7672 151.989 48.8845C152.371 51.0431 153.493 52.9994 155.16 54.4144C152.254 54.3896 149.395 53.6664 146.824 52.305C146.16 52.0027 145.575 51.5498 145.114 50.982C144.287 49.8287 144.483 48.2557 144.715 46.8533C144.898 45.7443 143.519 44.1412 144.309 43.3449C144.543 43.1119 144.857 42.9765 145.187 42.9658C146.374 42.8765 147.526 42.5141 148.552 41.9065C149.578 41.2989 150.451 40.4624 151.104 39.4616C152.015 38.0856 152.532 36.4848 152.6 34.8336C152.599 33.6212 152.338 32.4233 151.834 31.3216C151.33 30.22 150.596 29.2406 149.68 28.4505C148.765 27.6604 147.691 27.0781 146.531 26.7435C145.371 26.409 144.153 26.3299 142.96 26.5119C141.767 26.6938 140.628 27.1324 139.619 27.7977C138.61 28.463 137.756 29.3393 137.116 30.3667C136.475 31.3941 136.063 32.5484 135.907 33.7506C135.751 34.9529 135.855 36.1747 136.213 37.3327C136.498 38.2646 136.702 39.2194 136.823 40.1867C136.966 41.309 137.193 42.4188 137.503 43.5067C138.101 45.5973 139.113 47.7306 140.986 48.821C140.331 49.1029 139.628 49.2526 138.915 49.2617C136.565 49.5219 134.093 49.4645 131.965 48.4272C129.838 47.39 128.147 45.1811 128.299 42.8101Z" fill="#2F2E41"/>
<path d="M133.43 33.5564C140.18 30.838 146.835 30.2581 153.316 33.5564V28.0771C153.316 27.1306 152.942 26.2228 152.276 25.5536C151.61 24.8843 150.706 24.5083 149.764 24.5083H136.236C135.867 24.5083 135.502 24.5812 135.162 24.7229C134.821 24.8646 134.512 25.0723 134.252 25.3341C133.991 25.5959 133.784 25.9067 133.643 26.2487C133.502 26.5908 133.43 26.9574 133.43 27.3277V33.5564Z" fill="#2F2E41"/>
<path d="M135.53 36.9494C136.08 36.9494 136.525 36.2333 136.525 35.35C136.525 34.4666 136.08 33.7505 135.53 33.7505C134.981 33.7505 134.535 34.4666 134.535 35.35C134.535 36.2333 134.981 36.9494 135.53 36.9494Z" fill="#FFB8B8"/>
<path d="M219.132 187.153H0V188H219.132V187.153Z" fill="#3F3D56"/>
<path d="M374 84.4796H206.684V0H374V84.4796ZM207.526 83.6328H373.157V0.846828H207.526V83.6328Z" fill="#3F3D56"/>
<path d="M289.856 68.7158C289.855 70.0669 289.455 71.3874 288.708 72.5103C287.96 73.6333 286.898 74.5084 285.655 75.025C284.413 75.5416 283.046 75.6765 281.727 75.4127C280.408 75.1489 279.197 74.4982 278.246 73.5428C277.295 72.5875 276.647 71.3704 276.385 70.0453C276.122 68.7202 276.257 67.3467 276.771 66.0983C277.285 64.8499 278.156 63.7826 279.273 63.0314C280.391 62.2802 281.705 61.8787 283.05 61.8777C283.944 61.8752 284.83 62.0503 285.657 62.3931C286.484 62.7358 287.235 63.2394 287.868 63.8749C288.5 64.5104 289.002 65.2652 289.343 66.096C289.684 66.9268 289.858 67.8171 289.856 68.7158Z" fill="#6C63FF"/>
<path opacity="0.3" d="M289.856 68.7158C289.855 70.0669 289.455 71.3874 288.708 72.5103C287.96 73.6333 286.898 74.5084 285.655 75.025C284.413 75.5416 283.046 75.6765 281.727 75.4127C280.408 75.1489 279.197 74.4982 278.246 73.5428C277.295 72.5875 276.647 71.3704 276.385 70.0453C276.122 68.7202 276.257 67.3467 276.771 66.0983C277.285 64.8499 278.156 63.7826 279.273 63.0314C280.391 62.2802 281.705 61.8787 283.05 61.8777C283.944 61.8752 284.83 62.0503 285.657 62.3931C286.484 62.7358 287.235 63.2394 287.868 63.8749C288.5 64.5104 289.002 65.2652 289.343 66.096C289.684 66.9268 289.858 67.8171 289.856 68.7158Z" fill="black"/>
<path d="M302.182 34.2458C302.195 36.4806 301.737 38.6927 300.838 40.7368C300.448 41.6166 299.981 42.4598 299.443 43.2561C298.327 44.8774 296.987 46.3315 295.465 47.5749C295.203 47.7951 294.917 48.0237 294.533 48.3201C294.053 48.68 293.518 49.0569 292.902 49.4634C291.816 50.1693 290.771 50.9369 289.771 51.7625C289.179 52.2266 288.665 52.7843 288.25 53.4138C287.732 54.3241 287.47 56.0855 287.47 58.6514V59.0748H276.109V57.0933C276.109 55.5436 276.147 54.2395 276.219 53.1047C276.27 52.0764 276.377 51.0517 276.539 50.035C276.65 49.1407 276.919 48.2734 277.331 47.4733C278.077 46.2242 279.877 44.5264 282.827 42.2823C282.953 42.1891 283.079 42.0917 283.21 41.9943C283.332 41.9096 283.45 41.8207 283.572 41.7276C284.594 40.9983 285.535 40.1607 286.379 39.2294C286.626 38.9394 286.854 38.6339 287.062 38.3149L287.117 38.2302C287.777 37.0544 288.101 35.7179 288.052 34.3686C288.055 34.0273 288.033 33.6862 287.985 33.3482C287.854 32.03 287.245 30.8063 286.274 29.9101C285.22 28.9399 283.862 28.3706 282.435 28.3011C282.253 28.2841 282.085 28.2799 281.912 28.2799C281.24 28.2762 280.571 28.3558 279.919 28.517C278.696 28.82 277.6 29.5014 276.784 30.4647C276.351 30.9777 275.983 31.5423 275.688 32.1457C274.692 34.4534 274.056 36.901 273.8 39.403L273.758 39.8476L263.062 36.9853V32.2473C263.113 32.0568 263.168 31.8662 263.227 31.6799C263.91 29.3037 264.998 27.0645 266.442 25.062C267.06 24.2122 267.755 23.4226 268.52 22.7035C268.701 22.5215 268.899 22.3437 269.097 22.1701C270.384 21.0475 271.814 20.102 273.349 19.3586L273.484 19.2951C276.392 17.9447 279.564 17.2675 282.768 17.3135C283.1 17.3135 283.492 17.3177 283.88 17.3389C287.063 17.42 290.187 18.2202 293.02 19.6804C294.293 20.3421 295.485 21.1491 296.573 22.0853C299.626 24.586 301.592 28.1814 302.055 32.1118C302.14 32.82 302.182 33.5326 302.182 34.2458Z" fill="#6C63FF"/>
<path opacity="0.3" d="M302.182 34.2458C302.195 36.4806 301.737 38.6927 300.838 40.7368C300.448 41.6166 299.981 42.4598 299.443 43.2561C298.327 44.8774 296.987 46.3315 295.465 47.5749C295.203 47.7951 294.917 48.0237 294.533 48.3201C294.053 48.68 293.518 49.0569 292.902 49.4634C291.816 50.1693 290.771 50.9369 289.771 51.7625C289.179 52.2266 288.665 52.7843 288.25 53.4138C287.732 54.3241 287.47 56.0855 287.47 58.6514V59.0748H276.109V57.0933C276.109 55.5436 276.147 54.2395 276.219 53.1047C276.27 52.0764 276.377 51.0517 276.539 50.035C276.65 49.1407 276.919 48.2734 277.331 47.4733C278.077 46.2242 279.877 44.5264 282.827 42.2823C282.953 42.1891 283.079 42.0917 283.21 41.9943C283.332 41.9096 283.45 41.8207 283.572 41.7276C284.594 40.9983 285.535 40.1607 286.379 39.2294C286.626 38.9394 286.854 38.6339 287.062 38.3149L287.117 38.2302C287.777 37.0544 288.101 35.7179 288.052 34.3686C288.055 34.0273 288.033 33.6862 287.985 33.3482C287.854 32.03 287.245 30.8063 286.274 29.9101C285.22 28.9399 283.862 28.3706 282.435 28.3011C282.253 28.2841 282.085 28.2799 281.912 28.2799C281.24 28.2762 280.571 28.3558 279.919 28.517C278.696 28.82 277.6 29.5014 276.784 30.4647C276.351 30.9777 275.983 31.5423 275.688 32.1457C274.692 34.4534 274.056 36.901 273.8 39.403L273.758 39.8476L263.062 36.9853V32.2473C263.113 32.0568 263.168 31.8662 263.227 31.6799C263.91 29.3037 264.998 27.0645 266.442 25.062C267.06 24.2122 267.755 23.4226 268.52 22.7035C268.701 22.5215 268.899 22.3437 269.097 22.1701C270.384 21.0475 271.814 20.102 273.349 19.3586L273.484 19.2951C276.392 17.9447 279.564 17.2675 282.768 17.3135C283.1 17.3135 283.492 17.3177 283.88 17.3389C287.063 17.42 290.187 18.2202 293.02 19.6804C294.293 20.3421 295.485 21.1491 296.573 22.0853C299.626 24.586 301.592 28.1814 302.055 32.1118C302.14 32.82 302.182 33.5326 302.182 34.2458Z" fill="black"/>
<path d="M285.223 68.7158C285.222 70.0669 284.822 71.3874 284.075 72.5103C283.327 73.6333 282.265 74.5084 281.022 75.025C279.78 75.5416 278.413 75.6765 277.094 75.4127C275.775 75.1489 274.564 74.4982 273.613 73.5428C272.662 72.5875 272.015 71.3704 271.752 70.0453C271.489 68.7202 271.624 67.3467 272.138 66.0983C272.652 64.8499 273.523 63.7826 274.641 63.0314C275.758 62.2802 277.072 61.8787 278.417 61.8777C279.312 61.8752 280.198 62.0503 281.025 62.3931C281.851 62.7358 282.603 63.2394 283.235 63.8749C283.868 64.5104 284.369 65.2652 284.71 66.096C285.051 66.9268 285.225 67.8171 285.223 68.7158Z" fill="#6C63FF"/>
<path d="M297.549 34.2458C297.562 36.4806 297.104 38.6927 296.205 40.7368C295.815 41.6166 295.349 42.4598 294.81 43.2561C293.694 44.8774 292.354 46.3315 290.832 47.5749C290.571 47.7951 290.284 48.0237 289.9 48.3201C289.42 48.68 288.885 49.0569 288.27 49.4634C287.183 50.1693 286.138 50.9369 285.139 51.7625C284.546 52.2266 284.032 52.7843 283.617 53.4138C283.099 54.3241 282.838 56.0855 282.838 58.6514V59.0748H271.477V57.0933C271.477 55.5436 271.515 54.2395 271.586 53.1047C271.638 52.0764 271.745 51.0517 271.906 50.035C272.018 49.1407 272.286 48.2734 272.699 47.4733C273.444 46.2242 275.244 44.5264 278.194 42.2823C278.32 42.1891 278.447 42.0917 278.577 41.9943C278.7 41.9096 278.817 41.8207 278.94 41.7276C279.962 40.9983 280.902 40.1607 281.746 39.2294C281.993 38.9394 282.221 38.6339 282.429 38.3149L282.484 38.2302C283.144 37.0544 283.468 35.7179 283.419 34.3686C283.422 34.0273 283.4 33.6862 283.352 33.3482C283.221 32.03 282.612 30.8063 281.641 29.9101C280.587 28.9399 279.229 28.3706 277.802 28.3011C277.621 28.2841 277.452 28.2799 277.279 28.2799C276.608 28.2762 275.938 28.3558 275.286 28.517C274.064 28.82 272.967 29.5014 272.151 30.4647C271.718 30.9777 271.35 31.5423 271.055 32.1457C270.297 33.6658 269.804 35.6812 269.589 38.1328L269.546 38.5774L257.52 36.8541L257.578 36.4349C257.79 34.8251 258.129 33.235 258.594 31.6799C259.277 29.3037 260.365 27.0645 261.809 25.062C262.427 24.2122 263.122 23.4226 263.887 22.7035C264.068 22.5215 264.266 22.3437 264.464 22.1701C265.751 21.0475 267.181 20.102 268.716 19.3586L268.851 19.2951C271.759 17.9447 274.932 17.2675 278.135 17.3135C278.468 17.3135 278.86 17.3177 279.247 17.3389C282.43 17.42 285.554 18.2202 288.388 19.6804C289.66 20.3421 290.852 21.1491 291.94 22.0853C294.993 24.586 296.959 28.1814 297.423 32.1118C297.507 32.82 297.549 33.5326 297.549 34.2458Z" fill="#6C63FF"/>
</g>
<defs>
<clipPath id="clip0">
<rect width="374" height="188" fill="white"/>
</clipPath>
</defs>
</svg>
