<svg width="60" height="60" viewBox="0 0 60 60" fill="none" xmlns="http://www.w3.org/2000/svg">
<path d="M30 0C13.432 0 0 13.432 0 30C0 46.568 13.432 60 30 60C46.568 60 60 46.568 60 30C60 13.432 46.568 0 30 0ZM49.5 42.396C49.5 44.992 45.57 44.992 45.57 42.396V37.543L36.855 44.113C36.5674 44.3334 36.2153 44.4532 35.853 44.454C34.804 44.454 33.849 43.473 33.849 42.395V37.542L25.136 44.112C24.8484 44.3324 24.4963 44.4522 24.134 44.453C23.085 44.453 22.13 43.472 22.13 42.394V37.541L13.417 44.111C13.077 44.367 12.715 44.498 12.343 44.498C11.593 44.498 10.901 43.935 10.621 43.1C10.314 42.185 10.596 41.233 11.337 40.674L23.056 31.838C23.344 31.6177 23.6964 31.4979 24.059 31.497C25.106 31.497 26.06 32.478 26.06 33.556V38.409L34.775 31.839C35.063 31.6187 35.4154 31.4989 35.778 31.498C36.825 31.498 37.779 32.479 37.779 33.557V38.41L46.496 31.84C46.7839 31.6194 47.1363 31.4996 47.499 31.499C48.546 31.499 49.5 32.48 49.5 33.558V42.396ZM49.5 26.396C49.5 28.992 45.57 28.992 45.57 26.396V21.543L36.855 28.113C36.5674 28.3334 36.2153 28.4532 35.853 28.454C34.804 28.454 33.849 27.473 33.849 26.395V21.542L25.136 28.112C24.8484 28.3324 24.4963 28.4522 24.134 28.453C23.085 28.453 22.13 27.472 22.13 26.394V21.541L13.417 28.111C13.077 28.367 12.715 28.498 12.343 28.498C11.593 28.498 10.901 27.935 10.621 27.1C10.314 26.185 10.596 25.233 11.337 24.674L23.056 15.838C23.344 15.6177 23.6964 15.4979 24.059 15.497C25.106 15.497 26.06 16.478 26.06 17.556V22.409L34.775 15.839C35.063 15.6187 35.4154 15.4989 35.778 15.498C36.825 15.498 37.779 16.479 37.779 17.557V22.41L46.496 15.84C46.7839 15.6194 47.1363 15.4996 47.499 15.499C48.546 15.499 49.5 16.48 49.5 17.558V26.396Z" fill="white"/>
</svg>
