<svg width="60" height="60" viewBox="0 0 60 60" fill="none" xmlns="http://www.w3.org/2000/svg">
<path d="M30 0C13.432 0 0 13.432 0 30C0 46.568 13.432 60 30 60C46.568 60 60 46.568 60 30C60 13.432 46.568 0 30 0ZM49.014 23.951C48.666 24.316 48.155 24.526 47.608 24.526C46.64 24.526 45.626 23.859 45.559 22.587C45.455 20.56 43.939 18.366 41.696 18.513C39.821 18.64 38.549 20.098 37.693 23.1L31.9 44.044C31.656 44.928 30.91 45.499 30.001 45.499C29.092 45.499 28.346 44.928 28.102 44.043L22.308 23.097C21.712 21.006 20.571 18.509 18.516 18.509L18.369 18.513C16.141 18.637 14.564 20.274 14.444 22.587C14.378 23.86 13.363 24.526 12.395 24.526C11.848 24.526 11.335 24.316 10.989 23.951C10.643 23.587 10.475 23.097 10.505 22.534C10.698 18.827 13.276 14.756 17.675 14.513C21.651 14.279 24.694 17.051 26.107 22.02L30 36.103L33.895 22.023C35.309 17.05 38.364 14.279 42.33 14.513C46.727 14.758 49.306 18.829 49.499 22.534C49.527 23.097 49.359 23.587 49.014 23.951Z" fill="white"/>
</svg>
