<svg width="60" height="60" viewBox="0 0 60 60" fill="none" xmlns="http://www.w3.org/2000/svg">
<path d="M30 0C13.432 0 0 13.432 0 30C0 46.568 13.432 60 30 60C46.568 60 60 46.568 60 30C60 13.432 46.568 0 30 0ZM46.437 35.973C45.986 39.772 42.914 42.685 39.302 42.685C39.187 42.685 39.07 42.681 38.951 42.675C37.0844 42.5684 35.3009 41.8668 33.862 40.673C32.116 44.333 29.274 46.395 25.799 46.5L25.731 46.501C24.534 46.501 23.892 45.556 23.877 44.622C23.863 43.642 24.508 42.628 25.77 42.59C28.666 42.506 30.04 39.822 30.496 38.673C30.848 37.785 31.105 36.968 31.284 36.172C31.3 36.096 31.403 35.526 31.403 35.526C30.607 33.029 26.444 19.158 26.113 18.638C25.621 17.868 24.766 17.39 23.884 17.39C22.667 17.39 21.778 18.237 21.503 19.656L21.518 40.723C21.519 41.253 21.335 41.717 20.99 42.064C19.996 43.062 17.607 42.681 17.604 40.724L17.6 19.428C17.558 18.289 16.63 17.443 15.395 17.41C14.134 17.376 13.487 16.366 13.5 15.387C13.513 14.45 14.155 13.501 15.359 13.501C17.008 13.545 18.524 14.16 19.639 15.208C20.801 14.172 22.366 13.585 24.007 13.585C26.846 13.585 29.158 15.244 30.042 17.915C31.119 21.171 33.831 30.132 33.831 30.132C35.238 28.753 37.076 28.008 39.002 28.12C43.027 28.328 46.02 31.053 46.449 34.899C46.49 35.045 46.489 35.764 46.437 35.973Z" fill="white"/>
</svg>
