<svg width="60" height="60" viewBox="0 0 60 60" fill="none" xmlns="http://www.w3.org/2000/svg">
<path d="M30.002 0C13.434 0 2.23252e-07 13.432 2.23252e-07 30C-0.00199978 46.568 13.434 60 30 60C46.57 60 60.002 46.568 60 30C60.002 13.432 46.568 0 30.002 0ZM44.45 39.041C43.549 43.105 41.096 47.852 37.153 47.852H37.152C36.768 47.852 36.374 47.805 35.978 47.717C33.926 47.252 32.508 46.197 31.762 44.582C30.744 42.375 31.102 39.215 32.721 36.129L33.45 34.758C35.189 31.494 36.987 28.12 37.658 24.556C38.116 22.123 38.53 18.655 36.845 16.624C35.87 15.448 34.24 14.852 31.999 14.852C29.641 14.852 28.001 15.498 27.127 16.771C24.937 19.96 27.568 26.8 29.31 31.327C29.827 32.671 30.273 33.831 30.561 34.772C30.599 34.901 30.618 35.016 30.633 35.133C31.151 36.781 30.991 38.621 30.152 40.371C30.111 40.5 30.032 40.66 29.935 40.803C29.8517 40.9508 29.748 41.0861 29.627 41.205C28.105 43.193 25.574 44.457 23.063 44.457C21.7634 44.4654 20.4871 44.1119 19.377 43.436C17.49 42.29 16.098 40.387 15.653 38.346C15.268 36.578 15.591 34.869 16.588 33.401C18.263 30.938 21.425 29.452 24.332 29.806C22.451 24.93 20.976 19.924 23.175 16.017C24.968 12.831 28.371 10.852 32.056 10.852C34.1153 10.8565 36.1277 11.4665 37.843 12.606C45.132 17.414 41.291 27.853 39.302 32.117C38.904 32.971 38.406 33.844 37.878 34.769C36.62 36.974 35.32 39.255 35.271 41.451C35.261 41.89 35.413 42.285 35.71 42.588C36.067 42.955 36.62 43.174 37.187 43.174C37.927 43.174 38.547 42.819 38.888 42.201C39.27 41.572 39.58 40.918 39.822 40.242C40.058 39.554 40.304 38.812 40.472 38.051C40.67 37.16 41.372 36.608 42.304 36.608C42.993 36.608 43.676 36.924 44.087 37.436C44.45 37.887 44.579 38.457 44.45 39.041Z" fill="white"/>
</svg>
