<svg width="57" height="57" viewBox="0 0 57 57" fill="none" xmlns="http://www.w3.org/2000/svg">
<path d="M28.5 0C12.7604 0 0 12.7604 0 28.5C0 44.2396 12.7604 57 28.5 57C44.2396 57 57 44.2396 57 28.5C57 12.7604 44.2396 0 28.5 0ZM13.6933 31.938H19.6128C18.7976 30.9396 18.2628 29.7654 17.7831 28.6368C16.7618 26.24 16.5499 23.1382 17.2444 20.7366C18.5849 16.0892 22.8808 11.3848 28.5 11.3848C34.1012 11.3848 38.4332 15.5762 39.5371 22.0628C39.9627 24.5641 39.4905 27.5548 38.3325 29.6799C38.1615 29.9934 37.4214 30.9301 36.5778 31.8858H43.3057C44.4999 31.8858 45.1231 32.8377 45.1231 33.7772C45.1231 34.7168 44.4999 35.6687 43.3057 35.6687H31.8677C30.8408 35.6687 30.0048 34.8204 30.0048 33.7782V33.6091C30.0048 32.9232 30.3819 32.2629 30.9434 31.9656C34.2731 30.2062 36.9816 26.1336 35.719 21.7531C34.8051 18.5915 32.4292 15.2123 28.4991 15.2123C24.2202 15.2123 21.9754 18.4281 21.2999 21.4377C20.4725 25.1285 21.5859 30.0466 25.9853 32.1242C26.6152 32.4226 26.9439 33.1825 26.9439 33.7782C26.9439 34.8726 26.1079 35.7229 25.0809 35.7229H13.6933C12.5001 35.7229 11.875 34.771 11.875 33.8304C11.875 32.8899 12.5001 31.938 13.6933 31.938ZM43.2877 42.7348H13.7123C12.5058 42.7348 11.875 41.7715 11.875 40.8206C11.875 39.8696 12.5068 38.9063 13.7123 38.9063H43.2887C44.4952 38.9063 45.1269 39.8696 45.1269 40.8206C45.1269 41.7715 44.4942 42.7348 43.2877 42.7348Z" fill="white"/>
</svg>
