<svg width="60" height="60" viewBox="0 0 60 60" fill="none" xmlns="http://www.w3.org/2000/svg">
<path d="M30 0C13.432 0 0 13.432 0 30C0 46.568 13.432 60 30 60C46.568 60 60 46.568 60 30C60 13.432 46.568 0 30 0ZM43.578 43.455C44.341 44.03 44.621 44.964 44.31 45.889C44.024 46.742 43.308 47.315 42.528 47.315C42.135 47.315 41.756 47.178 41.398 46.907C36.424 43.143 33.381 37.882 32.793 32.05H27.489C26.888 38.024 23.743 43.358 18.594 47.111C18.238 47.371 17.861 47.503 17.472 47.503C16.673 47.503 15.947 46.92 15.664 46.054C15.364 45.132 15.657 44.211 16.428 43.649C20.362 40.779 22.822 36.677 23.397 32.051H17.51C16.189 32.051 15.498 31.026 15.498 30.013C15.498 29 16.189 27.975 17.51 27.975H23.395C22.818 23.337 20.348 19.228 16.398 16.358C15.626 15.796 15.332 14.876 15.631 13.954C16.05 12.668 17.47 12.1 18.562 12.893C23.729 16.649 26.886 21.99 27.489 27.975H32.793C33.383 22.143 36.425 16.88 41.397 13.116C42.463 12.305 43.878 12.85 44.308 14.133C44.62 15.059 44.339 15.992 43.577 16.57C39.805 19.426 37.441 23.461 36.879 27.976H42.487C43.808 27.976 44.499 29.001 44.499 30.014C44.499 31.027 43.809 32.052 42.487 32.052H36.88C37.442 36.565 39.806 40.6 43.578 43.455Z" fill="white"/>
</svg>
