<svg width="58" height="58" viewBox="0 0 58 58" fill="none" xmlns="http://www.w3.org/2000/svg">
<path d="M29 0.875C13.4675 0.875 0.875 13.4675 0.875 29C0.874063 44.5325 13.4675 57.125 29 57.125C44.5334 57.125 57.1259 44.5325 57.125 29C57.1259 13.4675 44.5325 0.875 29 0.875ZM44.4688 28.9981C44.4688 31.3456 40.8041 31.3456 40.8041 28.9981V19.7863L24.7747 35.8175L30.2966 41.3384C30.8263 41.8681 30.9772 42.5844 30.6997 43.2556C30.4044 43.97 29.6834 44.4697 28.9484 44.4697C28.4881 44.4697 28.0588 44.2831 27.7053 43.9297L22.1834 38.4069L16.6166 43.9709C16.5362 44.05 16.4479 44.1207 16.3531 44.1819C16.1941 44.2888 16.0173 44.3666 15.8309 44.4116L15.6959 44.4312C15.5969 44.4576 15.4946 44.4693 15.3922 44.4659L15.2553 44.4594C14.9134 44.4487 14.5826 44.3354 14.3059 44.1343C14.0292 43.9332 13.8194 43.6535 13.7037 43.3316C13.3878 42.7081 13.4947 41.9722 14.0112 41.4078L19.5922 35.8175L14.0703 30.2947C13.5406 29.765 13.3897 29.0487 13.6672 28.3775C13.9625 27.6631 14.6834 27.1634 15.4184 27.1634C15.8788 27.1634 16.3081 27.35 16.6616 27.7034L22.1834 33.2262L38.2137 17.195H29.0019C27.8281 17.195 27.2131 16.2734 27.2131 15.3631C27.2131 14.4528 27.8281 13.5312 29.0019 13.5312L42.7391 13.5425C43.1849 13.5692 43.6056 13.7576 43.9223 14.0724C44.2391 14.3873 44.43 14.8069 44.4594 15.2525L44.4688 15.3603V28.9981Z" fill="white"/>
</svg>
