<svg width="57" height="57" viewBox="0 0 57 57" fill="none" xmlns="http://www.w3.org/2000/svg">
<path d="M28.5009 0C12.7613 0 2.12105e-07 12.7604 2.12105e-07 28.5C-0.00189979 44.2396 12.7614 57 28.4991 57C44.2406 57 57.0019 44.2396 57 28.5C57.0019 12.7604 44.2386 0 28.5009 0ZM44.7583 40.7683C44.6819 40.9264 44.5844 41.0734 44.4685 41.2053L44.4666 41.2043L44.4467 41.2319L39.8895 45.9221C39.5 46.3239 39.0231 46.5358 38.5111 46.5358C37.7093 46.5358 36.917 45.9867 36.5864 45.202C36.2729 44.4581 36.4315 43.6601 37.0101 43.0644L38.2137 41.8256C35.0531 41.5521 32.7816 39.3405 32.4016 36.1418C32.3589 35.9833 32.3381 35.8196 32.3399 35.6554V17.5807C32.2658 16.1833 31.2569 15.5467 30.2907 15.5467C29.3246 15.5467 28.3138 16.1832 28.2388 17.6054V39.8667C28.2388 42.4631 24.1794 42.4631 24.1794 39.8667V17.5807C24.1043 16.1833 23.0954 15.5467 22.1293 15.5467C21.1698 15.5467 20.1647 16.1766 20.0801 17.5845L20.084 39.8667C20.084 42.4631 16.0237 42.4631 16.0237 39.8667L16.016 17.5807C15.9761 16.3733 15.1107 15.484 13.9612 15.4546C12.6502 15.4156 11.9804 14.3649 11.9956 13.3465C12.0099 12.3756 12.6768 11.3924 13.9232 11.3924C15.5078 11.438 16.9309 12.0127 18.0301 13.0226C19.1644 11.8931 20.6084 11.3135 22.153 11.3933C23.7206 11.4808 25.1019 12.046 26.1772 13.0359C27.3125 11.8968 28.7584 11.3154 30.3126 11.3933C33.5445 11.5719 35.966 13.8653 36.3394 17.1019C36.3593 17.1608 36.4002 17.3498 36.4002 17.5807V35.6544C36.4601 36.6852 36.9493 37.3188 37.9905 37.6323L37.0149 36.65C36.4306 36.061 36.2653 35.2659 36.5741 34.5249C36.9037 33.7326 37.7017 33.1797 38.513 33.1797C39.0213 33.1797 39.4963 33.3877 39.8867 33.7801C41.0248 34.9296 42.1629 36.0753 43.301 37.2201L44.5198 38.4569C44.6167 38.5776 44.6994 38.7115 44.7726 38.8654C45.0889 39.4364 45.0889 40.1575 44.7583 40.7683Z" fill="white"/>
</svg>
