<svg width="60" height="60" viewBox="0 0 60 60" fill="none" xmlns="http://www.w3.org/2000/svg">
<path d="M30.001 0C13.432 0 2.23285e-07 13.432 2.23285e-07 30C-0.00199978 46.568 13.432 60 29.999 60C46.57 60 60.002 46.568 60 30C60.002 13.432 46.568 0 30.001 0ZM44.59 18.498C40.888 18.542 39.011 20.195 37.019 23.035C36.432 23.873 35.883 24.543 35.326 25.098C38.389 26.928 40.316 30.136 40.648 34.008C40.685 34.142 40.703 34.326 40.691 34.518C40.703 34.659 40.684 34.845 40.635 35.052C40.175 40.152 36.227 45.5 30.437 45.5C30.265 45.5 30.091 45.495 29.917 45.485C24.498 45.187 18.859 40.888 19.197 34.464C19.403 30.55 21.468 26.891 24.519 24.949C23.9536 24.3533 23.4385 23.7117 22.979 23.031C21.079 20.265 19.151 18.543 15.41 18.498C14.147 18.482 13.494 17.464 13.5 16.467C13.506 15.489 14.158 14.5 15.394 14.5C18.627 14.536 20.948 15.186 22.517 16.486C23.49 17.294 24.312 18.422 25.107 19.511C26.541 21.479 27.895 23.337 30.038 23.489C32.108 23.338 33.462 21.48 34.896 19.513C35.692 18.421 36.514 17.293 37.487 16.486C39.055 15.185 41.376 14.536 44.58 14.5C45.844 14.5 46.496 15.489 46.502 16.467C46.506 17.464 45.853 18.482 44.59 18.498Z" fill="white"/>
</svg>
