<svg width="60" height="60" viewBox="0 0 60 60" fill="none" xmlns="http://www.w3.org/2000/svg">
<path d="M30 0C13.432 0 0 13.432 0 30C0 46.568 13.432 60 30 60C46.568 60 60 46.568 60 30C60 13.432 46.568 0 30 0ZM42.43 42.648C43.17 43.216 43.445 44.183 43.129 45.113C42.847 45.941 42.163 46.5 41.427 46.5C41.056 46.498 40.697 46.367 40.358 46.107C38.7387 44.8517 37.4231 43.2477 36.509 41.414C35.94 41.9822 35.3527 42.5318 34.748 43.062C34.374 43.388 33.931 43.562 33.466 43.562C32.618 43.562 31.81 42.988 31.5 42.164C31.223 41.428 31.425 40.664 32.04 40.125C33.2444 39.0794 34.3817 37.9589 35.445 36.77V28.913C35.4305 28.7736 35.4316 28.6331 35.448 28.494L35.445 19.647C35.373 18.282 34.363 17.66 33.394 17.66C32.425 17.66 31.415 18.283 31.342 19.674L31.343 41.595C31.343 44.212 27.445 44.212 27.445 41.595V19.646C27.373 18.283 26.365 17.661 25.399 17.661C24.436 17.661 23.429 18.28 23.347 19.662H23.343L23.344 19.751L23.349 41.594C23.35 42.358 23.016 42.826 22.735 43.082C21.7 44.031 19.452 43.586 19.45 41.594L19.444 19.592L19.445 19.584C19.378 18.46 18.52 17.627 17.385 17.596C16.127 17.56 15.484 16.503 15.498 15.476C15.512 14.497 16.153 13.505 17.352 13.505C18.9 13.55 20.293 14.131 21.373 15.156C22.486 14.013 23.899 13.428 25.419 13.506C26.929 13.59 28.308 14.175 29.359 15.168C30.473 14.018 31.905 13.433 33.419 13.506C36.554 13.681 38.907 15.947 39.278 19.147C39.317 19.283 39.341 19.462 39.341 19.646V22.712C40.262 22.251 41.291 21.966 42.412 21.863L42.535 21.858C43.367 21.858 44.232 22.605 44.349 23.425C45.201 29.311 42.185 34.642 39.439 38.134C39.796 39.863 41.188 41.693 42.43 42.648Z" fill="white"/>
</svg>
