<svg width="374" height="188" viewBox="0 0 374 188" fill="none" xmlns="http://www.w3.org/2000/svg">
<path d="M359.532 12.4463H193.06V96.0787H359.532V12.4463Z" fill="#E6E6E6"/>
<path d="M81.8691 175.194L82.7975 179.39L89.2939 178.924L88.83 174.261L81.8691 175.194Z" fill="#FFB8B8"/>
<path d="M65.6279 175.194L64.7 179.39L58.2031 178.924L58.6675 174.261L65.6279 175.194Z" fill="#FFB8B8"/>
<path d="M63.7717 39.0508C68.6411 39.0508 72.5884 35.0846 72.5884 30.1921C72.5884 25.2996 68.6411 21.3335 63.7717 21.3335C58.9024 21.3335 54.9551 25.2996 54.9551 30.1921C54.9551 35.0846 58.9024 39.0508 63.7717 39.0508Z" fill="#FFB8B8"/>
<path d="M58.2027 32.5232L55.8828 43.247L67.4834 46.9769L67.0194 33.456L58.2027 32.5232Z" fill="#FFB8B8"/>
<path d="M62.3794 44.6458L56.5412 40.2046C56.5412 40.2046 55.4188 38.5846 54.9548 39.9834C54.4908 41.3821 50.3145 46.5108 50.3145 46.5108L53.5627 84.7428L78.1566 85.2091C78.1566 85.2091 68.5464 40.641 67.319 42.1772C66.0917 43.7134 62.8434 43.7133 62.3794 44.6458Z" fill="#D0CDE1"/>
<path d="M67.2524 39.2839C67.2524 39.2839 65.3962 41.1489 66.3243 42.5476C67.2524 43.9464 66.5563 46.5401 67.4844 46.7585C68.4125 46.977 66.5563 62.8293 69.3405 67.0254C72.1248 71.2216 70.7326 81.9452 70.7326 83.8102C70.7326 85.6752 73.5169 96.865 73.5169 96.865C73.5169 96.865 82.7976 97.7975 82.7976 95.4663C82.7976 93.1351 79.5493 76.8166 79.5493 76.8166L82.3335 47.9094C82.3335 47.9094 82.3335 45.112 79.0853 44.1795C75.837 43.247 69.3405 40.9158 69.3405 40.9158L67.2524 39.2839Z" fill="#7075A5"/>
<path d="M80.4767 73.0866H78.1565C78.1565 73.0866 66.0916 74.0191 67.0197 68.8904C67.9478 63.7618 77.2285 67.4917 77.2285 67.4917L80.0127 68.8904L80.4767 73.0866Z" fill="#FFB8B8"/>
<path d="M56.9102 38.5C56.9102 38.5 53.0989 40.9159 52.6349 41.8484C52.1709 42.7809 41.498 47.9096 41.498 51.6395C41.498 55.3695 44.7463 59.5657 44.7463 59.5657L48.9226 100.595C48.9226 100.595 55.8831 102.926 56.3472 101.061C56.8112 99.1964 58.6674 58.1669 57.7393 56.302C56.8112 54.437 56.8112 42.3146 56.8112 42.3146L56.9102 38.5Z" fill="#7075A5"/>
<path d="M44.7463 106.19L44.2822 108.987C44.2822 108.987 44.7463 118.312 48.4585 117.846C52.1708 117.38 49.8506 108.055 49.8506 108.055L49.3866 106.19H44.7463Z" fill="#FFB8B8"/>
<path d="M50.3145 82.4116C50.3145 82.4116 50.7785 124.374 53.0987 137.895C55.4188 151.416 56.3469 174.728 56.3469 174.728C56.3469 174.728 62.3794 175.66 63.3074 176.127C64.2355 176.593 66.5557 175.194 66.5557 175.194L67.0197 106.19L75.8364 137.428C75.8364 137.428 77.2285 175.194 80.0127 176.127C82.7969 177.059 91.1496 175.194 91.1496 175.194C91.1496 175.194 87.9013 139.293 86.9732 137.895C86.0452 136.496 83.725 95.4664 80.0127 88.0065L78.6206 82.8779C78.6206 82.8779 52.1706 83.8104 50.3145 82.4116Z" fill="white"/>
<path d="M83.2617 177.525C83.2617 177.525 80.9415 175.66 80.9415 177.059C80.9415 178.458 78.6213 187.083 81.4055 187.083C84.1897 187.083 102.751 188.715 102.287 184.985C101.823 181.255 90.6568 175.299 90.6568 175.299C90.6568 175.299 86.5099 176.593 86.0459 177.059C85.5818 177.525 83.2617 177.525 83.2617 177.525Z" fill="#D0CDE1"/>
<path d="M64.2361 177.525C64.2361 177.525 66.5563 175.66 66.5563 177.059C66.5563 178.458 68.8765 187.083 66.0923 187.083C63.3081 187.083 44.7467 188.715 45.2107 184.985C45.6747 181.255 56.841 175.299 56.841 175.299C56.841 175.299 60.9879 176.593 61.4519 177.059C61.916 177.525 64.2361 177.525 64.2361 177.525Z" fill="#D0CDE1"/>
<path d="M79.085 47.4431L82.3332 47.9094L88.8297 66.5591C88.8297 66.5591 90.6859 75.884 87.9016 77.2827C85.1174 78.6815 79.8625 78.4082 79.8625 78.4082L79.085 67.9578L81.4051 68.4241L79.085 63.7616V47.4431Z" fill="#7075A5"/>
<path d="M43.8187 49.7744L41.4986 51.6394C41.4986 51.6394 39.1784 75.4178 39.6424 77.7491C40.1065 80.0803 42.8907 108.521 42.8907 108.521L50.7793 106.656L45.2108 50.2407L43.8187 49.7744Z" fill="#7075A5"/>
<path d="M54.0182 23.7535C54.0182 23.7535 51.4512 20.4816 54.0182 18.8457V19.6637C54.0182 19.6637 59.5188 13.5289 62.8191 15.1649L65.7528 14.3469V15.1649L67.5863 14.3469L67.2196 15.5739H69.7866L68.6865 16.3918C68.6865 16.3918 77.1207 15.9829 71.9868 22.1176C71.9868 22.1176 74.4271 25.7957 72.1069 27.842C72.1069 27.842 70.1533 23.3445 67.5863 24.5715C66.891 24.9342 66.1065 25.0885 65.3264 25.016C64.5462 24.9434 63.8032 24.6472 63.1859 24.1625C63.1859 24.1625 58.052 23.7535 58.7854 26.2074C59.5188 28.6613 59.1521 29.4792 59.1521 29.4792C59.1521 29.4792 57.3185 30.7062 57.6853 31.5241C58.052 32.3421 58.052 34.796 58.052 34.796C58.052 34.796 56.2184 31.9331 55.485 32.3421C54.7516 32.7511 50.7178 28.6613 54.0182 23.7535Z" fill="#2F2E41"/>
<path d="M154.618 53.0366L135.107 53.5235L132.48 30.1472H154.618V53.0366Z" fill="#2F2E41"/>
<path d="M133.965 83.3401L126.842 132.955C126.842 132.955 120.67 150.607 120.195 159.194L118.296 171.598L126.842 173.506L135.864 138.68L148.209 107.193L146.784 143.451L143.935 173.029L152.482 174.46L157.705 136.772L163.403 109.102C163.403 109.102 167.676 85.2484 161.029 82.863L133.965 83.3401Z" fill="white"/>
<path d="M126.271 168.553L125.321 180.164C125.321 180.164 135.491 186.072 132.228 187.217C128.965 188.363 124.498 186.889 123.584 186.629C122.62 186.354 120.818 185.916 119.455 185.591C118.825 185.446 118.257 185.102 117.835 184.609C117.413 184.116 117.16 183.5 117.112 182.851L117.109 182.809C117.027 181.38 120.235 168.963 120.235 168.963L126.271 168.553Z" fill="#D0CDE1"/>
<path d="M150.969 168.843L151.77 179.946C151.77 179.946 163.351 184.27 160.366 186.02C157.381 187.771 152.716 187.182 151.77 187.102C150.025 186.955 145.683 186.807 145.683 186.807C145.683 186.807 144.881 187.506 144.528 186.119C144.176 184.732 144.998 172.345 144.998 172.345L150.969 168.843Z" fill="#D0CDE1"/>
<path d="M143.935 43.2665C148.918 43.2665 152.957 39.2083 152.957 34.2022C152.957 29.1962 148.918 25.1379 143.935 25.1379C138.953 25.1379 134.914 29.1962 134.914 34.2022C134.914 39.2083 138.953 43.2665 143.935 43.2665Z" fill="#FFB8B8"/>
<path d="M138.713 39.45L136.813 49.9455L144.885 53.7622L146.784 40.4043L138.713 39.45Z" fill="#FFB8B8"/>
<path d="M137.764 89.0648L147.735 96.2208C147.735 96.2208 152.008 107.193 155.332 105.285C158.655 103.377 151.533 93.8355 151.533 93.8355L143.461 85.7253L137.764 89.0648Z" fill="#FFB8B8"/>
<path d="M166.252 85.7253L167.201 91.4501C167.201 91.4501 164.827 103.377 161.978 100.991C159.13 98.6061 162.928 90.9731 162.928 90.9731L162.453 86.2024L166.252 85.7253Z" fill="#FFB8B8"/>
<path d="M143.936 50.8996L142.986 47.0831L137.289 44.2207L135.389 46.606L129.217 48.5143L136.339 86.6797C136.339 86.6797 160.554 88.1109 161.029 84.2943C161.504 80.4778 156.281 69.9823 156.281 69.9823C156.281 69.9823 157.705 64.7346 157.23 61.8722L155.331 50.4226L147.734 48.0372L145.999 45.9282L144.411 48.5143L143.936 50.8996Z" fill="#D0CDE1"/>
<path d="M130.641 49.4683L129.217 48.5142C129.217 48.5142 126.368 48.9912 125.419 52.8078C124.469 56.6243 125.419 73.7987 127.793 77.1382C130.167 80.4777 136.814 90.4961 136.814 90.4961L145.835 86.2024L136.339 75.2299L133.965 61.395L130.641 49.4683Z" fill="#D0CDE1"/>
<path d="M151.532 51.3767L155.331 50.4226C155.331 50.4226 157.705 51.3767 158.654 54.7162C159.604 58.0557 164.827 74.753 164.352 76.1842C163.877 77.6154 168.625 87.1567 168.625 87.1567L161.978 87.6338L158.18 77.6154L154.381 67.597L151.532 51.3767Z" fill="#D0CDE1"/>
<path d="M128.3 42.8101C130.203 41.7604 131.088 39.4042 131.151 37.2243C131.215 35.0444 130.688 32.887 130.647 30.7065C130.626 30.2605 130.664 29.8135 130.76 29.3774C130.917 28.8362 131.163 28.3248 131.487 27.8642C133.961 24.0552 138.262 21.3758 142.792 21.3337C143.446 21.3251 144.096 21.4451 144.705 21.687C145.173 21.8755 145.326 21.8524 145.416 22.4302C146.489 22.0745 147.653 22.1117 148.701 22.5352C149.74 22.9594 150.708 23.5389 151.574 24.2543C152.089 24.6388 152.574 25.0611 153.027 25.5179C155.421 28.0097 155.972 31.8501 155.278 35.2427C155.053 36.3456 156.135 37.4104 157.03 38.0879C157.925 38.7653 158.959 39.3874 159.398 40.4232C159.821 41.4195 159.589 42.559 159.674 43.6387C159.769 44.6594 160.147 45.6329 160.764 46.4494C161.381 47.2659 162.213 47.8928 163.166 48.2595C162.971 48.4933 162.718 48.6701 162.432 48.7712C162.146 48.8723 161.838 48.8939 161.541 48.8338C160.92 48.7025 160.34 48.4248 159.847 48.0237C157.994 46.6442 156.668 44.6679 156.091 42.4246C155.828 43.6261 155.93 44.8654 155.94 46.0956C155.917 47.4684 156.169 48.8319 156.68 50.1052C157.2 51.3846 158.153 52.4386 159.37 53.0816C158.196 53.6593 156.902 53.2406 155.907 52.3884C154.953 51.4788 154.264 50.3254 153.914 49.052C153.246 47.0194 152.976 44.8764 153.117 42.7407C152.024 44.5883 151.625 46.7672 151.991 48.8845C152.373 51.0431 153.495 52.9994 155.162 54.4144C152.255 54.3896 149.397 53.6664 146.826 52.305C146.162 52.0027 145.577 51.5498 145.116 50.982C144.289 49.8287 144.484 48.2557 144.717 46.8533C144.9 45.7443 143.521 44.1412 144.311 43.3449C144.545 43.1119 144.859 42.9765 145.189 42.9658C146.376 42.8765 147.528 42.5141 148.554 41.9065C149.58 41.2989 150.453 40.4624 151.106 39.4616C152.017 38.0856 152.534 36.4848 152.602 34.8336C152.601 33.6212 152.34 32.4233 151.836 31.3216C151.332 30.22 150.598 29.2406 149.682 28.4505C148.767 27.6604 147.693 27.0781 146.533 26.7435C145.373 26.409 144.155 26.3299 142.962 26.5119C141.769 26.6938 140.63 27.1324 139.621 27.7977C138.612 28.463 137.758 29.3393 137.118 30.3667C136.477 31.3941 136.065 32.5484 135.909 33.7506C135.753 34.9529 135.857 36.1747 136.215 37.3327C136.5 38.2646 136.704 39.2194 136.825 40.1867C136.968 41.309 137.195 42.4188 137.505 43.5067C138.103 45.5973 139.115 47.7306 140.988 48.821C140.333 49.1029 139.63 49.2526 138.917 49.2617C136.567 49.5219 134.095 49.4645 131.967 48.4272C129.84 47.39 128.149 45.1811 128.3 42.8101Z" fill="#2F2E41"/>
<path d="M133.429 33.5564C140.179 30.838 146.834 30.2581 153.315 33.5564V28.0771C153.315 27.1306 152.941 26.2228 152.275 25.5536C151.609 24.8843 150.705 24.5083 149.763 24.5083H136.235C135.866 24.5083 135.501 24.5812 135.161 24.7229C134.82 24.8646 134.511 25.0723 134.251 25.3341C133.99 25.5959 133.783 25.9067 133.642 26.2487C133.501 26.5908 133.429 26.9574 133.429 27.3277V33.5564Z" fill="#2F2E41"/>
<path d="M135.529 36.9494C136.079 36.9494 136.524 36.2333 136.524 35.35C136.524 34.4666 136.079 33.7505 135.529 33.7505C134.98 33.7505 134.534 34.4666 134.534 35.35C134.534 36.2333 134.98 36.9494 135.529 36.9494Z" fill="#FFB8B8"/>
<path d="M219.132 187.153H0V188H219.132V187.153Z" fill="#3F3D56"/>
<path d="M374 84.4796H206.684V0H374V84.4796ZM207.526 83.6328H373.157V0.846828H207.526V83.6328Z" fill="white"/>
<path d="M289.858 68.7158C289.857 70.0669 289.457 71.3874 288.709 72.5103C287.962 73.6333 286.9 74.5084 285.657 75.025C284.415 75.5416 283.048 75.6765 281.729 75.4127C280.41 75.1489 279.199 74.4982 278.248 73.5428C277.297 72.5875 276.649 71.3704 276.387 70.0453C276.124 68.7202 276.258 67.3467 276.773 66.0983C277.287 64.8499 278.158 63.7826 279.275 63.0314C280.393 62.2802 281.707 61.8787 283.052 61.8777C283.946 61.8752 284.832 62.0503 285.659 62.3931C286.486 62.7358 287.237 63.2394 287.87 63.8749C288.502 64.5104 289.004 65.2652 289.345 66.096C289.686 66.9268 289.86 67.8171 289.858 68.7158Z" fill="#6C63FF"/>
<path opacity="0.3" d="M289.858 68.7158C289.857 70.0669 289.457 71.3874 288.709 72.5103C287.962 73.6333 286.9 74.5084 285.657 75.025C284.415 75.5416 283.048 75.6765 281.729 75.4127C280.41 75.1489 279.199 74.4982 278.248 73.5428C277.297 72.5875 276.649 71.3704 276.387 70.0453C276.124 68.7202 276.258 67.3467 276.773 66.0983C277.287 64.8499 278.158 63.7826 279.275 63.0314C280.393 62.2802 281.707 61.8787 283.052 61.8777C283.946 61.8752 284.832 62.0503 285.659 62.3931C286.486 62.7358 287.237 63.2394 287.87 63.8749C288.502 64.5104 289.004 65.2652 289.345 66.096C289.686 66.9268 289.86 67.8171 289.858 68.7158Z" fill="black"/>
<path d="M302.184 34.2458C302.197 36.4806 301.739 38.6927 300.84 40.7368C300.45 41.6166 299.983 42.4598 299.445 43.2561C298.328 44.8774 296.989 46.3315 295.467 47.5749C295.205 47.7951 294.919 48.0237 294.535 48.3201C294.055 48.68 293.52 49.0569 292.904 49.4634C291.818 50.1693 290.773 50.9369 289.773 51.7625C289.181 52.2266 288.667 52.7843 288.252 53.4138C287.734 54.3241 287.472 56.0855 287.472 58.6514V59.0748H276.111V57.0933C276.111 55.5436 276.149 54.2395 276.221 53.1047C276.272 52.0764 276.379 51.0517 276.541 50.035C276.652 49.1407 276.921 48.2734 277.333 47.4733C278.079 46.2242 279.879 44.5264 282.828 42.2823C282.955 42.1891 283.081 42.0917 283.212 41.9943C283.334 41.9096 283.452 41.8207 283.574 41.7276C284.596 40.9983 285.537 40.1607 286.381 39.2294C286.628 38.9394 286.856 38.6339 287.064 38.3149L287.118 38.2302C287.779 37.0544 288.103 35.7179 288.054 34.3686C288.057 34.0273 288.035 33.6862 287.987 33.3482C287.856 32.03 287.247 30.8063 286.276 29.9101C285.222 28.9399 283.864 28.3706 282.437 28.3011C282.255 28.2841 282.087 28.2799 281.914 28.2799C281.242 28.2762 280.573 28.3558 279.921 28.517C278.698 28.82 277.602 29.5014 276.786 30.4647C276.353 30.9777 275.985 31.5423 275.69 32.1457C274.694 34.4534 274.058 36.901 273.802 39.403L273.76 39.8476L263.064 36.9853V32.2473C263.115 32.0568 263.17 31.8662 263.229 31.6799C263.912 29.3037 265 27.0645 266.444 25.062C267.062 24.2122 267.757 23.4226 268.522 22.7035C268.703 22.5215 268.901 22.3437 269.099 22.1701C270.386 21.0475 271.816 20.102 273.351 19.3586L273.486 19.2951C276.394 17.9447 279.566 17.2675 282.769 17.3135C283.102 17.3135 283.494 17.3177 283.882 17.3389C287.065 17.42 290.189 18.2202 293.022 19.6804C294.295 20.3421 295.487 21.1491 296.575 22.0853C299.628 24.586 301.594 28.1814 302.057 32.1118C302.142 32.82 302.184 33.5326 302.184 34.2458Z" fill="#6C63FF"/>
<path opacity="0.3" d="M302.184 34.2458C302.197 36.4806 301.739 38.6927 300.84 40.7368C300.45 41.6166 299.983 42.4598 299.445 43.2561C298.328 44.8774 296.989 46.3315 295.467 47.5749C295.205 47.7951 294.919 48.0237 294.535 48.3201C294.055 48.68 293.52 49.0569 292.904 49.4634C291.818 50.1693 290.773 50.9369 289.773 51.7625C289.181 52.2266 288.667 52.7843 288.252 53.4138C287.734 54.3241 287.472 56.0855 287.472 58.6514V59.0748H276.111V57.0933C276.111 55.5436 276.149 54.2395 276.221 53.1047C276.272 52.0764 276.379 51.0517 276.541 50.035C276.652 49.1407 276.921 48.2734 277.333 47.4733C278.079 46.2242 279.879 44.5264 282.828 42.2823C282.955 42.1891 283.081 42.0917 283.212 41.9943C283.334 41.9096 283.452 41.8207 283.574 41.7276C284.596 40.9983 285.537 40.1607 286.381 39.2294C286.628 38.9394 286.856 38.6339 287.064 38.3149L287.118 38.2302C287.779 37.0544 288.103 35.7179 288.054 34.3686C288.057 34.0273 288.035 33.6862 287.987 33.3482C287.856 32.03 287.247 30.8063 286.276 29.9101C285.222 28.9399 283.864 28.3706 282.437 28.3011C282.255 28.2841 282.087 28.2799 281.914 28.2799C281.242 28.2762 280.573 28.3558 279.921 28.517C278.698 28.82 277.602 29.5014 276.786 30.4647C276.353 30.9777 275.985 31.5423 275.69 32.1457C274.694 34.4534 274.058 36.901 273.802 39.403L273.76 39.8476L263.064 36.9853V32.2473C263.115 32.0568 263.17 31.8662 263.229 31.6799C263.912 29.3037 265 27.0645 266.444 25.062C267.062 24.2122 267.757 23.4226 268.522 22.7035C268.703 22.5215 268.901 22.3437 269.099 22.1701C270.386 21.0475 271.816 20.102 273.351 19.3586L273.486 19.2951C276.394 17.9447 279.566 17.2675 282.769 17.3135C283.102 17.3135 283.494 17.3177 283.882 17.3389C287.065 17.42 290.189 18.2202 293.022 19.6804C294.295 20.3421 295.487 21.1491 296.575 22.0853C299.628 24.586 301.594 28.1814 302.057 32.1118C302.142 32.82 302.184 33.5326 302.184 34.2458Z" fill="black"/>
<path d="M285.222 68.7158C285.221 70.0669 284.821 71.3874 284.074 72.5103C283.326 73.6333 282.264 74.5084 281.021 75.025C279.779 75.5416 278.412 75.6765 277.093 75.4127C275.774 75.1489 274.563 74.4982 273.612 73.5428C272.661 72.5875 272.014 71.3704 271.751 70.0453C271.488 68.7202 271.623 67.3467 272.137 66.0983C272.651 64.8499 273.522 63.7826 274.64 63.0314C275.757 62.2802 277.071 61.8787 278.416 61.8777C279.311 61.8752 280.197 62.0503 281.024 62.3931C281.85 62.7358 282.602 63.2394 283.234 63.8749C283.867 64.5104 284.368 65.2652 284.709 66.096C285.05 66.9268 285.224 67.8171 285.222 68.7158Z" fill="#6C63FF"/>
<path d="M297.548 34.2458C297.561 36.4806 297.103 38.6927 296.204 40.7368C295.814 41.6166 295.348 42.4598 294.809 43.2561C293.693 44.8774 292.353 46.3315 290.831 47.5749C290.57 47.7951 290.283 48.0237 289.899 48.3201C289.419 48.68 288.884 49.0569 288.269 49.4634C287.182 50.1693 286.137 50.9369 285.138 51.7625C284.545 52.2266 284.031 52.7843 283.616 53.4138C283.098 54.3241 282.837 56.0855 282.837 58.6514V59.0748H271.476V57.0933C271.476 55.5436 271.514 54.2395 271.585 53.1047C271.637 52.0764 271.744 51.0517 271.905 50.035C272.017 49.1407 272.285 48.2734 272.698 47.4733C273.443 46.2242 275.243 44.5264 278.193 42.2823C278.319 42.1891 278.446 42.0917 278.576 41.9943C278.699 41.9096 278.816 41.8207 278.939 41.7276C279.961 40.9983 280.902 40.1607 281.745 39.2294C281.992 38.9394 282.22 38.6339 282.428 38.3149L282.483 38.2302C283.143 37.0544 283.467 35.7179 283.418 34.3686C283.421 34.0273 283.399 33.6862 283.351 33.3482C283.22 32.03 282.611 30.8063 281.64 29.9101C280.586 28.9399 279.228 28.3706 277.801 28.3011C277.62 28.2841 277.451 28.2799 277.278 28.2799C276.607 28.2762 275.937 28.3558 275.285 28.517C274.063 28.82 272.966 29.5014 272.15 30.4647C271.717 30.9777 271.349 31.5423 271.054 32.1457C270.296 33.6658 269.803 35.6812 269.588 38.1328L269.545 38.5774L257.519 36.8541L257.578 36.4349C257.789 34.8251 258.128 33.235 258.593 31.6799C259.276 29.3037 260.364 27.0645 261.808 25.062C262.426 24.2122 263.121 23.4226 263.886 22.7035C264.067 22.5215 264.265 22.3437 264.463 22.1701C265.75 21.0475 267.18 20.102 268.715 19.3586L268.85 19.2951C271.758 17.9447 274.931 17.2675 278.134 17.3135C278.467 17.3135 278.859 17.3177 279.246 17.3389C282.429 17.42 285.553 18.2202 288.387 19.6804C289.659 20.3421 290.851 21.1491 291.939 22.0853C294.992 24.586 296.958 28.1814 297.422 32.1118C297.506 32.82 297.548 33.5326 297.548 34.2458Z" fill="#6C63FF"/>
</svg>
