<svg width="216" height="33" viewBox="0 0 216 33" fill="none" xmlns="http://www.w3.org/2000/svg">
<path d="M0.584 32V31.232L3.656 29.648L15.944 0.079999H18.104L30.2 29.504L33.416 31.232V32H21.512V31.232L25.736 29.6L22.136 20.72H10.472L6.92 29.6L10.952 31.232V32H0.584ZM11.576 18.08H21.08L16.328 6.272L11.576 18.08ZM44.7553 32.48C43.2513 32.48 41.9553 32.352 40.8672 32.096C39.7793 31.84 38.6753 31.424 37.5553 30.848V25.472H38.2273L39.7633 28.112C40.7553 29.872 42.3713 30.752 44.6113 30.752C45.8913 30.752 46.8833 30.448 47.5873 29.84C48.3233 29.232 48.6913 28.4 48.6913 27.344C48.6913 26.416 48.4673 25.696 48.0193 25.184C47.5713 24.672 46.9313 24.224 46.0993 23.84C45.2993 23.424 44.3393 22.96 43.2193 22.448C41.5873 21.712 40.3233 20.912 39.4273 20.048C38.5633 19.152 38.1313 17.904 38.1313 16.304C38.1313 15.12 38.4673 14.048 39.1393 13.088C39.8113 12.128 40.6593 11.36 41.6833 10.784C42.7393 10.208 43.8273 9.92 44.9473 9.92C46.1313 9.92 47.2193 10.064 48.2113 10.352C49.2033 10.64 50.2113 11.04 51.2353 11.552V16.784H50.5633L48.9793 14.24C48.4353 13.376 47.8433 12.752 47.2032 12.368C46.5633 11.984 45.8753 11.792 45.1393 11.792C44.0513 11.792 43.1713 12.064 42.4993 12.608C41.8593 13.152 41.5393 13.904 41.5393 14.864C41.5393 15.952 41.9233 16.784 42.6913 17.36C43.4913 17.904 44.6433 18.528 46.1473 19.232C47.0433 19.68 47.9393 20.128 48.8353 20.576C49.7633 21.024 50.5153 21.664 51.0913 22.496C51.6993 23.296 52.0033 24.448 52.0033 25.952C52.0033 27.36 51.6193 28.56 50.8513 29.552C50.0833 30.512 49.1393 31.248 48.0193 31.76C46.8993 32.24 45.8113 32.48 44.7553 32.48ZM64.7653 32.48C63.3573 32.48 62.1413 32.064 61.1172 31.232C60.0933 30.4 59.5813 29.232 59.5813 27.728V12.656H55.6453V12.368L59.7253 10.4L63.1333 5.12H63.4213V10.4H69.7573V12.656H63.4213V26.912C63.4213 27.744 63.7893 28.352 64.5253 28.736C65.2613 29.12 66.1253 29.312 67.1172 29.312C67.7253 29.312 68.2853 29.28 68.7973 29.216C69.3413 29.152 69.8053 29.072 70.1893 28.976H70.3333V29.456C70.0133 30.192 69.3733 30.88 68.4133 31.52C67.4853 32.16 66.2693 32.48 64.7653 32.48ZM74.7148 32V31.232L77.7388 29.696V15.392L74.8588 12.896V12.56L80.8108 9.92H81.0988L81.5308 14H81.7228C82.4588 12.816 83.1308 11.936 83.7388 11.36C84.3788 10.752 84.9708 10.368 85.5148 10.208C86.0588 10.016 86.6028 9.92 87.1468 9.92C87.4028 9.92 87.6908 9.968 88.0108 10.064C88.3628 10.16 88.6508 10.256 88.8748 10.352C89.2268 10.512 89.5468 10.704 89.8348 10.928C90.1548 11.152 90.3148 11.408 90.3148 11.696C90.3148 11.984 90.2508 12.272 90.1228 12.56L89.1628 14.912H88.8268L87.0028 14.192C86.6508 14.032 86.2988 13.936 85.9468 13.904C85.6268 13.872 85.3068 13.856 84.9868 13.856C83.6428 13.856 82.5068 14.544 81.5788 15.92V29.696L84.9868 31.232V32H74.7148ZM104.257 32.48C102.145 32.48 100.289 31.984 98.6889 30.992C97.1209 30 95.8889 28.656 94.9929 26.96C94.1289 25.264 93.6969 23.344 93.6969 21.2C93.6969 19.056 94.1289 17.136 94.9929 15.44C95.8889 13.744 97.1209 12.4 98.6889 11.408C100.289 10.416 102.145 9.92 104.257 9.92C106.369 9.92 108.209 10.416 109.777 11.408C111.377 12.4 112.609 13.744 113.473 15.44C114.369 17.136 114.817 19.056 114.817 21.2C114.817 23.344 114.369 25.264 113.473 26.96C112.609 28.656 111.377 30 109.777 30.992C108.209 31.984 106.369 32.48 104.257 32.48ZM104.929 30.416C106.209 30.416 107.265 30.016 108.097 29.216C108.929 28.416 109.537 27.392 109.921 26.144C110.305 24.864 110.497 23.536 110.497 22.16C110.497 20.464 110.257 18.832 109.777 17.264C109.329 15.696 108.593 14.416 107.569 13.424C106.577 12.432 105.281 11.936 103.681 11.936C102.369 11.936 101.297 12.336 100.465 13.136C99.6329 13.936 99.0089 14.96 98.5929 16.208C98.2089 17.456 98.0169 18.784 98.0169 20.192C98.0169 21.888 98.2569 23.52 98.7369 25.088C99.2169 26.656 99.9689 27.936 100.993 28.928C102.017 29.92 103.329 30.416 104.929 30.416ZM120.339 32V31.232L124.179 29.312V3.008L120.339 1.088V0.319999H134.403C137.923 0.319999 140.931 0.943998 143.427 2.192C145.923 3.44 147.811 5.152 149.091 7.328C150.403 9.504 151.059 11.968 151.059 14.72C151.059 17.216 150.627 19.52 149.763 21.632C148.931 23.744 147.747 25.568 146.211 27.104C144.675 28.64 142.867 29.84 140.787 30.704C138.739 31.568 136.499 32 134.067 32H120.339ZM133.299 2.96H128.499V29.36H134.019C136.579 29.36 138.787 28.832 140.643 27.776C142.531 26.688 143.971 25.168 144.963 23.216C145.987 21.232 146.499 18.896 146.499 16.208C146.499 13.552 145.987 11.232 144.963 9.248C143.939 7.232 142.435 5.68 140.451 4.592C138.499 3.504 136.115 2.96 133.299 2.96ZM161.926 32.48C160.422 32.48 159.174 32.048 158.182 31.184C157.19 30.288 156.694 29.056 156.694 27.488C156.694 25.92 157.27 24.56 158.422 23.408C159.606 22.256 161.574 21.36 164.326 20.72L168.886 19.664V16.16C168.886 15.072 168.438 14.144 167.542 13.376C166.678 12.576 165.686 12.176 164.566 12.176C163.35 12.176 162.502 12.512 162.022 13.184C161.542 13.824 161.302 14.688 161.302 15.776V17.12L161.062 17.36H158.566C158.086 17.36 157.75 17.28 157.558 17.12C157.398 16.96 157.318 16.592 157.318 16.016C157.318 15.312 157.526 14.592 157.942 13.856C158.358 13.12 158.998 12.48 159.862 11.936C160.758 11.36 161.686 10.88 162.646 10.496C163.638 10.112 164.694 9.92 165.814 9.92C166.934 9.92 168.022 10.08 169.078 10.4C170.166 10.72 171.046 11.264 171.718 12.032C172.39 12.768 172.726 13.808 172.726 15.152V28.784C172.95 29.008 173.27 29.2 173.686 29.36C174.102 29.52 174.678 29.6 175.414 29.6H177.238L177.382 29.696V29.84C176.998 30.544 176.422 31.168 175.654 31.712C174.918 32.224 174.006 32.48 172.918 32.48C171.926 32.48 171.11 32.224 170.47 31.712C169.862 31.168 169.43 30.464 169.174 29.6H168.886C168.054 30.432 167.014 31.12 165.766 31.664C164.55 32.208 163.27 32.48 161.926 32.48ZM160.438 26.528C160.438 28.512 161.638 29.504 164.038 29.504C164.806 29.504 165.558 29.424 166.294 29.264C167.062 29.104 167.926 28.816 168.886 28.4V21.296C166.326 21.776 164.454 22.288 163.27 22.832C162.086 23.344 161.318 23.904 160.966 24.512C160.614 25.12 160.438 25.792 160.438 26.528ZM187.906 32.48C186.498 32.48 185.282 32.064 184.258 31.232C183.234 30.4 182.722 29.232 182.722 27.728V12.656H178.786V12.368L182.866 10.4L186.274 5.12H186.562V10.4H192.898V12.656H186.562V26.912C186.562 27.744 186.93 28.352 187.666 28.736C188.402 29.12 189.266 29.312 190.258 29.312C190.866 29.312 191.426 29.28 191.938 29.216C192.482 29.152 192.946 29.072 193.33 28.976H193.474V29.456C193.154 30.192 192.514 30.88 191.554 31.52C190.626 32.16 189.41 32.48 187.906 32.48ZM207.323 32.48C204.219 32.48 201.771 31.536 199.979 29.648C198.187 27.76 197.291 25.264 197.291 22.16C197.291 19.76 197.755 17.648 198.683 15.824C199.643 13.968 200.891 12.528 202.427 11.504C203.995 10.448 205.691 9.92 207.515 9.92C210.043 9.92 212.027 10.8 213.467 12.56C214.939 14.32 215.675 16.848 215.675 20.144L215.435 20.384H201.083C201.115 21.856 201.403 23.248 201.947 24.56C202.491 25.84 203.355 26.88 204.539 27.68C205.755 28.48 207.371 28.88 209.387 28.88C211.147 28.88 213.211 28.24 215.579 26.96H215.723V27.44C214.987 28.816 213.883 30 212.411 30.992C210.971 31.984 209.275 32.48 207.323 32.48ZM206.747 12.032C205.211 12.032 203.947 12.576 202.955 13.664C201.995 14.72 201.403 16.224 201.179 18.176H212.027C211.675 16 211.051 14.432 210.155 13.472C209.291 12.512 208.155 12.032 206.747 12.032Z" fill="white"/>
</svg>
