<svg width="374" height="44" viewBox="0 0 374 44" fill="none" xmlns="http://www.w3.org/2000/svg">
<rect x="0.5" y="0.5" width="373" height="43" rx="19.5" fill="#DFBC60" stroke="#181827"/>
<path d="M41.2402 18.72C40.9842 17.36 40.0242 16.68 38.3602 16.68C37.5442 16.68 36.9042 16.848 36.4402 17.184C35.9922 17.504 35.7682 17.896 35.7682 18.36C35.7682 18.824 35.9122 19.192 36.2002 19.464C36.5042 19.72 36.9682 19.96 37.5922 20.184L40.9762 21.504C42.1282 21.952 43.0162 22.52 43.6402 23.208C44.2642 23.88 44.5762 24.728 44.5762 25.752C44.5762 27.16 44.0482 28.28 42.9922 29.112C41.9362 29.928 40.4322 30.336 38.4802 30.336C36.7522 30.336 35.3522 29.912 34.2802 29.064C33.0802 28.136 32.4482 26.824 32.3842 25.128H35.1922C35.1922 26.408 35.8562 27.216 37.1842 27.552C37.5842 27.664 38.1122 27.72 38.7682 27.72C39.4242 27.72 40.0322 27.56 40.5922 27.24C41.1522 26.904 41.4322 26.464 41.4322 25.92C41.4322 25.36 41.2802 24.936 40.9762 24.648C40.6722 24.344 40.1762 24.064 39.4882 23.808L36.3922 22.584C35.1922 22.12 34.2722 21.576 33.6322 20.952C32.9922 20.328 32.6722 19.464 32.6722 18.36C32.6722 17.064 33.1762 16.04 34.1842 15.288C35.2082 14.504 36.5922 14.112 38.3362 14.112C40.0962 14.112 41.4482 14.52 42.3922 15.336C43.3522 16.136 43.9042 17.264 44.0482 18.72H41.2402ZM48.6009 18.312H51.4329V30H48.6009V18.312ZM48.2649 14.568C48.2649 14.056 48.4169 13.656 48.7209 13.368C49.0249 13.064 49.4569 12.912 50.0169 12.912C50.5609 12.912 50.9849 13.064 51.2889 13.368C51.6089 13.656 51.7689 14.056 51.7689 14.568C51.7689 15.08 51.6089 15.488 51.2889 15.792C50.9849 16.08 50.5609 16.224 50.0169 16.224C49.4569 16.224 49.0249 16.08 48.7209 15.792C48.4169 15.488 48.2649 15.08 48.2649 14.568ZM57.2439 25.224C56.2999 24.424 55.8279 23.424 55.8279 22.224C55.8279 20.96 56.3239 19.936 57.3159 19.152C58.2759 18.4 59.3719 18.024 60.6039 18.024C61.8519 18.024 62.8919 18.256 63.7239 18.72C63.8199 17.808 64.2119 17.072 64.8999 16.512C65.5719 15.952 66.3639 15.672 67.2759 15.672L67.1319 18.384C65.7559 18.384 65.0439 18.84 64.9959 19.752C65.5879 20.488 65.8839 21.24 65.8839 22.008C65.8839 22.776 65.7479 23.424 65.4759 23.952C65.2039 24.464 64.8359 24.896 64.3719 25.248C63.4119 26.016 62.2439 26.4 60.8679 26.4C60.0839 26.4 59.3719 26.28 58.7319 26.04C58.0919 26.232 57.7719 26.616 57.7719 27.192C57.7719 27.912 58.3799 28.272 59.5959 28.272H63.5079C66.1639 28.272 67.4919 29.2 67.4919 31.056C67.4919 31.68 67.3319 32.288 67.0119 32.88C66.7079 33.488 66.2599 34.024 65.6679 34.488C64.3559 35.512 62.7079 36.024 60.7239 36.024C58.8039 36.024 57.2439 35.632 56.0439 34.848C54.9239 34.096 54.3639 33.176 54.3639 32.088C54.3639 31.368 54.5799 30.792 55.0119 30.36C55.4599 29.944 56.0439 29.68 56.7639 29.568C55.8199 28.992 55.3479 28.28 55.3479 27.432C55.3479 26.872 55.5239 26.408 55.8759 26.04C56.2279 25.656 56.6839 25.384 57.2439 25.224ZM59.4039 30.264C57.8999 30.328 57.1479 30.896 57.1479 31.968C57.1479 32.512 57.4599 32.944 58.0839 33.264C58.7239 33.6 59.4759 33.768 60.3399 33.768C61.2039 33.768 61.8759 33.696 62.3559 33.552C62.8519 33.408 63.2679 33.216 63.6039 32.976C64.3239 32.496 64.6839 31.92 64.6839 31.248C64.6839 30.96 64.5799 30.72 64.3719 30.528C64.1799 30.352 63.8919 30.264 63.5079 30.264H59.4039ZM63.0759 22.2C63.0759 21.544 62.8919 21.016 62.5239 20.616C62.1719 20.2 61.6279 19.992 60.8919 19.992C60.1559 19.992 59.5959 20.2 59.2119 20.616C58.8279 21.016 58.6359 21.544 58.6359 22.2C58.6359 22.84 58.8279 23.368 59.2119 23.784C59.5959 24.2 60.1559 24.408 60.8919 24.408C61.6279 24.408 62.1719 24.2 62.5239 23.784C62.8919 23.368 63.0759 22.84 63.0759 22.2ZM72.9887 20.352C73.7567 18.8 74.9887 18.024 76.6847 18.024C78.1247 18.024 79.2047 18.496 79.9247 19.44C80.6607 20.384 81.0287 21.632 81.0287 23.184V30H78.1967V23.184C78.1967 22.32 77.9887 21.672 77.5727 21.24C77.1567 20.792 76.5727 20.568 75.8207 20.568C75.0687 20.568 74.4207 20.904 73.8767 21.576C73.3487 22.248 73.0687 23.256 73.0367 24.6V30H70.2047V18.336H72.6767L72.9887 20.352ZM91.4681 18.312H94.3001V30H91.4681V18.312ZM91.1321 14.568C91.1321 14.056 91.2841 13.656 91.5881 13.368C91.8921 13.064 92.3241 12.912 92.8841 12.912C93.4281 12.912 93.8521 13.064 94.1561 13.368C94.4761 13.656 94.6361 14.056 94.6361 14.568C94.6361 15.08 94.4761 15.488 94.1561 15.792C93.8521 16.08 93.4281 16.224 92.8841 16.224C92.3241 16.224 91.8921 16.08 91.5881 15.792C91.2841 15.488 91.1321 15.08 91.1321 14.568ZM101.887 20.352C102.655 18.8 103.887 18.024 105.583 18.024C107.023 18.024 108.103 18.496 108.823 19.44C109.559 20.384 109.927 21.632 109.927 23.184V30H107.095V23.184C107.095 22.32 106.887 21.672 106.471 21.24C106.055 20.792 105.471 20.568 104.719 20.568C103.967 20.568 103.319 20.904 102.775 21.576C102.247 22.248 101.967 23.256 101.935 24.6V30H99.1031V18.336H101.575L101.887 20.352ZM121.159 18.336L123.511 26.664L125.743 18.984H128.311L130.543 26.688L132.919 18.336H135.751L131.911 30H129.127L126.967 23.016L124.855 30H122.047L118.183 18.336H121.159ZM138.554 18.312H141.386V30H138.554V18.312ZM138.218 14.568C138.218 14.056 138.37 13.656 138.674 13.368C138.978 13.064 139.41 12.912 139.97 12.912C140.514 12.912 140.938 13.064 141.242 13.368C141.562 13.656 141.722 14.056 141.722 14.568C141.722 15.08 141.562 15.488 141.242 15.792C140.938 16.08 140.514 16.224 139.97 16.224C139.41 16.224 138.978 16.08 138.674 15.792C138.37 15.488 138.218 15.08 138.218 14.568ZM152.765 29.712C151.709 30.128 150.877 30.336 150.269 30.336C149.661 30.336 149.125 30.264 148.661 30.12C148.213 29.976 147.813 29.76 147.461 29.472C146.725 28.816 146.357 27.912 146.357 26.76V20.232H144.725V18.336H146.357V15.264H149.189V18.336H152.357V20.232H149.189V26.664C149.189 27.624 149.645 28.104 150.557 28.104C151.021 28.104 151.621 27.976 152.357 27.72L152.765 29.712ZM158.49 20.232C159.29 18.76 160.458 18.024 161.994 18.024C163.53 18.024 164.658 18.496 165.378 19.44C166.114 20.384 166.482 21.632 166.482 23.184V30H163.65V23.184C163.65 22.32 163.442 21.672 163.026 21.24C162.61 20.792 162.026 20.568 161.274 20.568C160.522 20.568 159.874 20.904 159.33 21.576C158.802 22.248 158.522 23.256 158.49 24.6V30H155.658V13.536H158.49V20.232ZM182.105 14.424C183.865 14.424 185.233 14.856 186.209 15.72C187.201 16.568 187.697 17.792 187.697 19.392C187.697 20.976 187.201 22.2 186.209 23.064C185.233 23.912 183.865 24.336 182.105 24.336H179.465V30H176.609V14.424H182.105ZM182.105 21.864C182.985 21.864 183.649 21.632 184.097 21.168C184.545 20.704 184.769 20.112 184.769 19.392C184.769 18.656 184.545 18.056 184.097 17.592C183.649 17.112 182.985 16.872 182.105 16.872H179.465V21.864H182.105ZM193.459 20.232C194.259 18.76 195.427 18.024 196.963 18.024C198.499 18.024 199.627 18.496 200.347 19.44C201.083 20.384 201.451 21.632 201.451 23.184V30H198.619V23.184C198.619 22.32 198.411 21.672 197.995 21.24C197.579 20.792 196.995 20.568 196.243 20.568C195.491 20.568 194.843 20.904 194.299 21.576C193.771 22.248 193.491 23.256 193.459 24.6V30H190.627V13.536H193.459V20.232ZM210.164 18.024C210.948 18.024 211.684 18.152 212.372 18.408C213.06 18.648 213.652 19.024 214.148 19.536C215.252 20.656 215.804 22.208 215.804 24.192C215.804 26.144 215.252 27.68 214.148 28.8C213.156 29.824 211.828 30.336 210.164 30.336C208.5 30.336 207.156 29.824 206.132 28.8C205.028 27.696 204.476 26.16 204.476 24.192C204.476 22.192 205.028 20.64 206.132 19.536C207.14 18.528 208.484 18.024 210.164 18.024ZM212.972 24.168C212.972 22.936 212.732 22.016 212.252 21.408C211.772 20.784 211.1 20.472 210.236 20.472C209.388 20.472 208.692 20.784 208.148 21.408C207.604 22.016 207.332 22.936 207.332 24.168C207.332 25.4 207.572 26.328 208.052 26.952C208.548 27.56 209.22 27.864 210.068 27.864C210.916 27.864 211.612 27.56 212.156 26.952C212.7 26.328 212.972 25.4 212.972 24.168ZM221.957 20.352C222.725 18.8 223.957 18.024 225.653 18.024C227.093 18.024 228.173 18.496 228.893 19.44C229.629 20.384 229.997 21.632 229.997 23.184V30H227.165V23.184C227.165 22.32 226.957 21.672 226.541 21.24C226.125 20.792 225.541 20.568 224.789 20.568C224.037 20.568 223.389 20.904 222.845 21.576C222.317 22.248 222.037 23.256 222.005 24.6V30H219.173V18.336H221.645L221.957 20.352ZM242.263 19.728C242.663 20.24 242.959 20.832 243.151 21.504C243.359 22.176 243.463 22.792 243.463 23.352C243.463 23.912 243.431 24.416 243.367 24.864H235.831C235.863 25.808 236.095 26.576 236.527 27.168C236.959 27.76 237.615 28.056 238.495 28.056C239.663 28.056 240.359 27.544 240.583 26.52H243.439C243.247 27.688 242.711 28.608 241.831 29.28C240.919 29.984 239.807 30.336 238.495 30.336C236.959 30.336 235.671 29.776 234.631 28.656C233.559 27.488 233.023 25.992 233.023 24.168C233.023 22.296 233.559 20.792 234.631 19.656C235.655 18.568 236.943 18.024 238.495 18.024C240.111 18.024 241.367 18.592 242.263 19.728ZM238.519 20.28C237.719 20.28 237.095 20.544 236.647 21.072C236.199 21.584 235.935 22.248 235.855 23.064H240.823C240.823 21.8 240.423 20.952 239.623 20.52C239.319 20.36 238.951 20.28 238.519 20.28ZM255.971 14.424L262.835 25.464V14.424H265.667V30H262.787L255.707 18.576V30H252.875V14.424H255.971ZM277.879 27.888C277.143 29.44 275.959 30.216 274.327 30.216C272.263 30.216 270.903 29.408 270.247 27.792C270.007 27.232 269.887 26.552 269.887 25.752V18.312H272.719V25.464C272.719 26.232 272.903 26.808 273.271 27.192C273.639 27.56 274.087 27.744 274.615 27.744C275.159 27.744 275.615 27.672 275.983 27.528C276.351 27.368 276.671 27.136 276.943 26.832C277.535 26.144 277.847 25.224 277.879 24.072V18.312H280.711V30H277.879V27.888ZM295.541 20.544C296.293 18.864 297.613 18.024 299.501 18.024C300.893 18.024 301.973 18.496 302.741 19.44C303.477 20.336 303.845 21.584 303.845 23.184V30H300.989V23.184C300.989 22.32 300.781 21.672 300.365 21.24C299.949 20.792 299.365 20.568 298.613 20.568C297.861 20.568 297.245 20.896 296.765 21.552C296.285 22.208 296.029 23.2 295.997 24.528V30H293.165V23.184C293.165 22.32 292.957 21.672 292.541 21.24C292.125 20.792 291.541 20.568 290.789 20.568C290.037 20.568 289.389 20.904 288.845 21.576C288.317 22.248 288.037 23.256 288.005 24.6V30H285.173V18.336H287.645L287.957 20.352C288.725 18.8 289.957 18.024 291.653 18.024C292.629 18.024 293.437 18.248 294.077 18.696C294.733 19.144 295.221 19.76 295.541 20.544ZM317.747 19.704C318.739 20.824 319.235 22.296 319.235 24.12C319.235 25.944 318.715 27.448 317.675 28.632C316.667 29.768 315.411 30.336 313.907 30.336C313.187 30.336 312.523 30.144 311.915 29.76C311.323 29.376 310.851 28.784 310.499 27.984L309.803 30H307.955V13.536H310.787V19.8C311.523 18.616 312.619 18.024 314.075 18.024C315.547 18.024 316.771 18.584 317.747 19.704ZM310.787 23.448V24.984C310.819 25.8 311.115 26.472 311.675 27C312.203 27.512 312.843 27.768 313.595 27.768C314.363 27.768 315.019 27.44 315.563 26.784C316.107 26.112 316.379 25.232 316.379 24.144C316.379 23.056 316.107 22.192 315.563 21.552C315.035 20.896 314.371 20.568 313.571 20.568C312.771 20.568 312.107 20.832 311.579 21.36C311.051 21.888 310.787 22.584 310.787 23.448ZM330.833 19.728C331.233 20.24 331.529 20.832 331.721 21.504C331.929 22.176 332.033 22.792 332.033 23.352C332.033 23.912 332.001 24.416 331.937 24.864H324.401C324.433 25.808 324.665 26.576 325.097 27.168C325.529 27.76 326.185 28.056 327.065 28.056C328.233 28.056 328.929 27.544 329.153 26.52H332.009C331.817 27.688 331.281 28.608 330.401 29.28C329.489 29.984 328.377 30.336 327.065 30.336C325.529 30.336 324.241 29.776 323.201 28.656C322.129 27.488 321.593 25.992 321.593 24.168C321.593 22.296 322.129 20.792 323.201 19.656C324.225 18.568 325.513 18.024 327.065 18.024C328.681 18.024 329.937 18.592 330.833 19.728ZM327.089 20.28C326.289 20.28 325.665 20.544 325.217 21.072C324.769 21.584 324.505 22.248 324.425 23.064H329.393C329.393 21.8 328.993 20.952 328.193 20.52C327.889 20.36 327.521 20.28 327.089 20.28ZM338.255 20.64C338.959 18.96 340.015 18.12 341.423 18.12C341.695 18.12 342.039 18.176 342.455 18.288L342.407 21.12C341.959 21.024 341.519 20.976 341.087 20.976C339.199 20.976 338.255 22.28 338.255 24.888V30H335.423V18.312H338.255V20.64Z" fill="#181827"/>
</svg>
