<svg width="374" height="44" viewBox="0 0 374 44" fill="none" xmlns="http://www.w3.org/2000/svg">
<rect x="0.5" y="0.5" width="373" height="43" rx="19.5" fill="#DFBC60" stroke="#181827"/>
<path d="M71.7324 18.72C71.4764 17.36 70.5164 16.68 68.8524 16.68C68.0364 16.68 67.3964 16.848 66.9324 17.184C66.4844 17.504 66.2604 17.896 66.2604 18.36C66.2604 18.824 66.4044 19.192 66.6924 19.464C66.9964 19.72 67.4604 19.96 68.0844 20.184L71.4684 21.504C72.6204 21.952 73.5084 22.52 74.1324 23.208C74.7564 23.88 75.0684 24.728 75.0684 25.752C75.0684 27.16 74.5404 28.28 73.4844 29.112C72.4284 29.928 70.9244 30.336 68.9724 30.336C67.2444 30.336 65.8444 29.912 64.7724 29.064C63.5724 28.136 62.9404 26.824 62.8764 25.128H65.6844C65.6844 26.408 66.3484 27.216 67.6764 27.552C68.0764 27.664 68.6044 27.72 69.2604 27.72C69.9164 27.72 70.5244 27.56 71.0844 27.24C71.6444 26.904 71.9244 26.464 71.9244 25.92C71.9244 25.36 71.7724 24.936 71.4684 24.648C71.1644 24.344 70.6684 24.064 69.9804 23.808L66.8844 22.584C65.6844 22.12 64.7644 21.576 64.1244 20.952C63.4844 20.328 63.1644 19.464 63.1644 18.36C63.1644 17.064 63.6684 16.04 64.6764 15.288C65.7004 14.504 67.0844 14.112 68.8284 14.112C70.5884 14.112 71.9404 14.52 72.8844 15.336C73.8444 16.136 74.3964 17.264 74.5404 18.72H71.7324ZM79.0931 18.312H81.9251V30H79.0931V18.312ZM78.7571 14.568C78.7571 14.056 78.9091 13.656 79.2131 13.368C79.5171 13.064 79.9491 12.912 80.5091 12.912C81.0531 12.912 81.4771 13.064 81.7811 13.368C82.1011 13.656 82.2611 14.056 82.2611 14.568C82.2611 15.08 82.1011 15.488 81.7811 15.792C81.4771 16.08 81.0531 16.224 80.5091 16.224C79.9491 16.224 79.5171 16.08 79.2131 15.792C78.9091 15.488 78.7571 15.08 78.7571 14.568ZM87.7361 25.224C86.7921 24.424 86.3201 23.424 86.3201 22.224C86.3201 20.96 86.8161 19.936 87.8081 19.152C88.7681 18.4 89.8641 18.024 91.0961 18.024C92.3441 18.024 93.3841 18.256 94.2161 18.72C94.3121 17.808 94.7041 17.072 95.3921 16.512C96.0641 15.952 96.8561 15.672 97.7681 15.672L97.6241 18.384C96.2481 18.384 95.5361 18.84 95.4881 19.752C96.0801 20.488 96.3761 21.24 96.3761 22.008C96.3761 22.776 96.2401 23.424 95.9681 23.952C95.6961 24.464 95.3281 24.896 94.8641 25.248C93.9041 26.016 92.7361 26.4 91.3601 26.4C90.5761 26.4 89.8641 26.28 89.2241 26.04C88.5841 26.232 88.2641 26.616 88.2641 27.192C88.2641 27.912 88.8721 28.272 90.0881 28.272H94.0001C96.6561 28.272 97.9841 29.2 97.9841 31.056C97.9841 31.68 97.8241 32.288 97.5041 32.88C97.2001 33.488 96.7521 34.024 96.1601 34.488C94.8481 35.512 93.2001 36.024 91.2161 36.024C89.2961 36.024 87.7361 35.632 86.5361 34.848C85.4161 34.096 84.8561 33.176 84.8561 32.088C84.8561 31.368 85.0721 30.792 85.5041 30.36C85.9521 29.944 86.5361 29.68 87.2561 29.568C86.3121 28.992 85.8401 28.28 85.8401 27.432C85.8401 26.872 86.0161 26.408 86.3681 26.04C86.7201 25.656 87.1761 25.384 87.7361 25.224ZM89.8961 30.264C88.3921 30.328 87.6401 30.896 87.6401 31.968C87.6401 32.512 87.9521 32.944 88.5761 33.264C89.2161 33.6 89.9681 33.768 90.8321 33.768C91.6961 33.768 92.3681 33.696 92.8481 33.552C93.3441 33.408 93.7601 33.216 94.0961 32.976C94.8161 32.496 95.1761 31.92 95.1761 31.248C95.1761 30.96 95.0721 30.72 94.8641 30.528C94.6721 30.352 94.3841 30.264 94.0001 30.264H89.8961ZM93.5681 22.2C93.5681 21.544 93.3841 21.016 93.0161 20.616C92.6641 20.2 92.1201 19.992 91.3841 19.992C90.6481 19.992 90.0881 20.2 89.7041 20.616C89.3201 21.016 89.1281 21.544 89.1281 22.2C89.1281 22.84 89.3201 23.368 89.7041 23.784C90.0881 24.2 90.6481 24.408 91.3841 24.408C92.1201 24.408 92.6641 24.2 93.0161 23.784C93.3841 23.368 93.5681 22.84 93.5681 22.2ZM103.481 20.352C104.249 18.8 105.481 18.024 107.177 18.024C108.617 18.024 109.697 18.496 110.417 19.44C111.153 20.384 111.521 21.632 111.521 23.184V30H108.689V23.184C108.689 22.32 108.481 21.672 108.065 21.24C107.649 20.792 107.065 20.568 106.313 20.568C105.561 20.568 104.913 20.904 104.369 21.576C103.841 22.248 103.561 23.256 103.529 24.6V30H100.697V18.336H103.169L103.481 20.352ZM121.96 18.312H124.792V30H121.96V18.312ZM121.624 14.568C121.624 14.056 121.776 13.656 122.08 13.368C122.384 13.064 122.816 12.912 123.376 12.912C123.92 12.912 124.344 13.064 124.648 13.368C124.968 13.656 125.128 14.056 125.128 14.568C125.128 15.08 124.968 15.488 124.648 15.792C124.344 16.08 123.92 16.224 123.376 16.224C122.816 16.224 122.384 16.08 122.08 15.792C121.776 15.488 121.624 15.08 121.624 14.568ZM132.379 20.352C133.147 18.8 134.379 18.024 136.075 18.024C137.515 18.024 138.595 18.496 139.315 19.44C140.051 20.384 140.419 21.632 140.419 23.184V30H137.587V23.184C137.587 22.32 137.379 21.672 136.963 21.24C136.547 20.792 135.963 20.568 135.211 20.568C134.459 20.568 133.811 20.904 133.267 21.576C132.739 22.248 132.459 23.256 132.427 24.6V30H129.595V18.336H132.067L132.379 20.352ZM151.651 18.336L154.003 26.664L156.235 18.984H158.803L161.035 26.688L163.411 18.336H166.243L162.403 30H159.619L157.459 23.016L155.347 30H152.539L148.675 18.336H151.651ZM169.046 18.312H171.878V30H169.046V18.312ZM168.71 14.568C168.71 14.056 168.862 13.656 169.166 13.368C169.47 13.064 169.902 12.912 170.462 12.912C171.006 12.912 171.43 13.064 171.734 13.368C172.054 13.656 172.214 14.056 172.214 14.568C172.214 15.08 172.054 15.488 171.734 15.792C171.43 16.08 171.006 16.224 170.462 16.224C169.902 16.224 169.47 16.08 169.166 15.792C168.862 15.488 168.71 15.08 168.71 14.568ZM183.257 29.712C182.201 30.128 181.369 30.336 180.761 30.336C180.153 30.336 179.617 30.264 179.153 30.12C178.705 29.976 178.305 29.76 177.953 29.472C177.217 28.816 176.849 27.912 176.849 26.76V20.232H175.217V18.336H176.849V15.264H179.681V18.336H182.849V20.232H179.681V26.664C179.681 27.624 180.137 28.104 181.049 28.104C181.513 28.104 182.113 27.976 182.849 27.72L183.257 29.712ZM188.982 20.232C189.782 18.76 190.95 18.024 192.486 18.024C194.022 18.024 195.15 18.496 195.87 19.44C196.606 20.384 196.974 21.632 196.974 23.184V30H194.142V23.184C194.142 22.32 193.934 21.672 193.518 21.24C193.102 20.792 192.518 20.568 191.766 20.568C191.014 20.568 190.366 20.904 189.822 21.576C189.294 22.248 189.014 23.256 188.982 24.6V30H186.15V13.536H188.982V20.232ZM207.173 14.424H216.989V16.872H210.005V20.976H216.389V23.4H210.005V30H207.173V14.424ZM223.552 23.184C224.48 23.184 225.552 23.336 226.768 23.64V22.488C226.768 21.672 226.6 21.072 226.264 20.688C225.944 20.288 225.408 20.088 224.656 20.088C223.92 20.088 223.352 20.24 222.952 20.544C222.552 20.832 222.352 21.248 222.352 21.792H219.256C219.256 20.464 219.72 19.504 220.648 18.912C221.592 18.32 222.904 18.024 224.584 18.024C226.984 18.024 228.536 18.864 229.24 20.544C229.48 21.12 229.6 21.8 229.6 22.584V30H227.128L226.912 28.44C226.16 29.704 225.008 30.336 223.456 30.336C221.952 30.336 220.784 29.968 219.952 29.232C219.184 28.528 218.8 27.64 218.8 26.568C218.8 25.48 219.224 24.648 220.072 24.072C220.92 23.48 222.08 23.184 223.552 23.184ZM226.768 25.44C225.824 25.184 224.944 25.056 224.128 25.056C222.592 25.056 221.824 25.568 221.824 26.592C221.824 27.024 222 27.4 222.352 27.72C222.704 28.024 223.264 28.176 224.032 28.176C224.816 28.176 225.456 27.92 225.952 27.408C226.464 26.88 226.736 26.224 226.768 25.44ZM238.168 18.024C238.904 18.024 239.56 18.152 240.136 18.408C240.728 18.648 241.224 18.968 241.624 19.368C242.424 20.136 242.896 21.104 243.04 22.272L240.184 22.344C240.056 21.832 239.816 21.408 239.464 21.072C239.128 20.736 238.736 20.568 238.288 20.568C237.84 20.568 237.456 20.64 237.136 20.784C236.816 20.912 236.536 21.12 236.296 21.408C235.752 22.08 235.48 23.008 235.48 24.192C235.48 25.376 235.736 26.272 236.248 26.88C236.76 27.472 237.376 27.768 238.096 27.768C238.832 27.768 239.36 27.6 239.68 27.264C240.016 26.912 240.184 26.44 240.184 25.848H243.04C243.04 27.128 242.616 28.192 241.768 29.04C240.904 29.904 239.696 30.336 238.144 30.336C236.608 30.336 235.32 29.776 234.28 28.656C233.176 27.456 232.624 25.96 232.624 24.168C232.624 22.28 233.176 20.768 234.28 19.632C235.32 18.56 236.616 18.024 238.168 18.024ZM254.591 19.728C254.991 20.24 255.287 20.832 255.479 21.504C255.687 22.176 255.791 22.792 255.791 23.352C255.791 23.912 255.759 24.416 255.695 24.864H248.159C248.191 25.808 248.423 26.576 248.855 27.168C249.287 27.76 249.943 28.056 250.823 28.056C251.991 28.056 252.687 27.544 252.911 26.52H255.767C255.575 27.688 255.039 28.608 254.159 29.28C253.247 29.984 252.135 30.336 250.823 30.336C249.287 30.336 247.999 29.776 246.959 28.656C245.887 27.488 245.351 25.992 245.351 24.168C245.351 22.296 245.887 20.792 246.959 19.656C247.983 18.568 249.271 18.024 250.823 18.024C252.439 18.024 253.695 18.592 254.591 19.728ZM250.847 20.28C250.047 20.28 249.423 20.544 248.975 21.072C248.527 21.584 248.263 22.248 248.183 23.064H253.151C253.151 21.8 252.751 20.952 251.951 20.52C251.647 20.36 251.279 20.28 250.847 20.28ZM268.973 19.704C269.965 20.824 270.461 22.296 270.461 24.12C270.461 25.944 269.941 27.448 268.901 28.632C267.893 29.768 266.637 30.336 265.133 30.336C264.413 30.336 263.749 30.144 263.141 29.76C262.549 29.376 262.077 28.784 261.725 27.984L261.029 30H259.181V13.536H262.013V19.8C262.749 18.616 263.845 18.024 265.301 18.024C266.773 18.024 267.997 18.584 268.973 19.704ZM262.013 23.448V24.984C262.045 25.8 262.341 26.472 262.901 27C263.429 27.512 264.069 27.768 264.821 27.768C265.589 27.768 266.245 27.44 266.789 26.784C267.333 26.112 267.605 25.232 267.605 24.144C267.605 23.056 267.333 22.192 266.789 21.552C266.261 20.896 265.597 20.568 264.797 20.568C263.997 20.568 263.333 20.832 262.805 21.36C262.277 21.888 262.013 22.584 262.013 23.448ZM278.507 18.024C279.291 18.024 280.027 18.152 280.715 18.408C281.403 18.648 281.995 19.024 282.491 19.536C283.595 20.656 284.147 22.208 284.147 24.192C284.147 26.144 283.595 27.68 282.491 28.8C281.499 29.824 280.171 30.336 278.507 30.336C276.843 30.336 275.499 29.824 274.475 28.8C273.371 27.696 272.819 26.16 272.819 24.192C272.819 22.192 273.371 20.64 274.475 19.536C275.483 18.528 276.827 18.024 278.507 18.024ZM281.315 24.168C281.315 22.936 281.075 22.016 280.595 21.408C280.115 20.784 279.443 20.472 278.579 20.472C277.731 20.472 277.035 20.784 276.491 21.408C275.947 22.016 275.675 22.936 275.675 24.168C275.675 25.4 275.915 26.328 276.395 26.952C276.891 27.56 277.563 27.864 278.411 27.864C279.259 27.864 279.955 27.56 280.499 26.952C281.043 26.328 281.315 25.4 281.315 24.168ZM292.101 18.024C292.885 18.024 293.621 18.152 294.309 18.408C294.997 18.648 295.589 19.024 296.085 19.536C297.189 20.656 297.741 22.208 297.741 24.192C297.741 26.144 297.189 27.68 296.085 28.8C295.093 29.824 293.765 30.336 292.101 30.336C290.437 30.336 289.093 29.824 288.069 28.8C286.965 27.696 286.413 26.16 286.413 24.192C286.413 22.192 286.965 20.64 288.069 19.536C289.077 18.528 290.421 18.024 292.101 18.024ZM294.909 24.168C294.909 22.936 294.669 22.016 294.189 21.408C293.709 20.784 293.037 20.472 292.173 20.472C291.325 20.472 290.629 20.784 290.085 21.408C289.541 22.016 289.269 22.936 289.269 24.168C289.269 25.4 289.509 26.328 289.989 26.952C290.485 27.56 291.157 27.864 292.005 27.864C292.853 27.864 293.549 27.56 294.093 26.952C294.637 26.328 294.909 25.4 294.909 24.168ZM305.239 24.312L303.943 25.392V30H301.111V13.536H303.943V22.44L308.551 18.336H312.391L307.231 22.656L312.679 30H309.223L305.239 24.312Z" fill="#181827"/>
</svg>
