<svg width="374" height="44" viewBox="0 0 374 44" fill="none" xmlns="http://www.w3.org/2000/svg">
<rect x="0.5" y="0.5" width="373" height="43" rx="19.5" fill="#DFBC60" stroke="#181827"/>
<path d="M86.8965 18.72C86.6405 17.36 85.6805 16.68 84.0165 16.68C83.2005 16.68 82.5605 16.848 82.0965 17.184C81.6485 17.504 81.4245 17.896 81.4245 18.36C81.4245 18.824 81.5685 19.192 81.8565 19.464C82.1605 19.72 82.6245 19.96 83.2485 20.184L86.6325 21.504C87.7845 21.952 88.6725 22.52 89.2965 23.208C89.9205 23.88 90.2325 24.728 90.2325 25.752C90.2325 27.16 89.7045 28.28 88.6485 29.112C87.5925 29.928 86.0885 30.336 84.1365 30.336C82.4085 30.336 81.0085 29.912 79.9365 29.064C78.7365 28.136 78.1045 26.824 78.0405 25.128H80.8485C80.8485 26.408 81.5125 27.216 82.8405 27.552C83.2405 27.664 83.7685 27.72 84.4245 27.72C85.0805 27.72 85.6885 27.56 86.2485 27.24C86.8085 26.904 87.0885 26.464 87.0885 25.92C87.0885 25.36 86.9365 24.936 86.6325 24.648C86.3285 24.344 85.8325 24.064 85.1445 23.808L82.0485 22.584C80.8485 22.12 79.9285 21.576 79.2885 20.952C78.6485 20.328 78.3285 19.464 78.3285 18.36C78.3285 17.064 78.8325 16.04 79.8405 15.288C80.8645 14.504 82.2485 14.112 83.9925 14.112C85.7525 14.112 87.1045 14.52 88.0485 15.336C89.0085 16.136 89.5605 17.264 89.7045 18.72H86.8965ZM94.2572 18.312H97.0892V30H94.2572V18.312ZM93.9212 14.568C93.9212 14.056 94.0732 13.656 94.3772 13.368C94.6812 13.064 95.1132 12.912 95.6732 12.912C96.2172 12.912 96.6412 13.064 96.9452 13.368C97.2652 13.656 97.4252 14.056 97.4252 14.568C97.4252 15.08 97.2652 15.488 96.9452 15.792C96.6412 16.08 96.2172 16.224 95.6732 16.224C95.1132 16.224 94.6812 16.08 94.3772 15.792C94.0732 15.488 93.9212 15.08 93.9212 14.568ZM102.9 25.224C101.956 24.424 101.484 23.424 101.484 22.224C101.484 20.96 101.98 19.936 102.972 19.152C103.932 18.4 105.028 18.024 106.26 18.024C107.508 18.024 108.548 18.256 109.38 18.72C109.476 17.808 109.868 17.072 110.556 16.512C111.228 15.952 112.02 15.672 112.932 15.672L112.788 18.384C111.412 18.384 110.7 18.84 110.652 19.752C111.244 20.488 111.54 21.24 111.54 22.008C111.54 22.776 111.404 23.424 111.132 23.952C110.86 24.464 110.492 24.896 110.028 25.248C109.068 26.016 107.9 26.4 106.524 26.4C105.74 26.4 105.028 26.28 104.388 26.04C103.748 26.232 103.428 26.616 103.428 27.192C103.428 27.912 104.036 28.272 105.252 28.272H109.164C111.82 28.272 113.148 29.2 113.148 31.056C113.148 31.68 112.988 32.288 112.668 32.88C112.364 33.488 111.916 34.024 111.324 34.488C110.012 35.512 108.364 36.024 106.38 36.024C104.46 36.024 102.9 35.632 101.7 34.848C100.58 34.096 100.02 33.176 100.02 32.088C100.02 31.368 100.236 30.792 100.668 30.36C101.116 29.944 101.7 29.68 102.42 29.568C101.476 28.992 101.004 28.28 101.004 27.432C101.004 26.872 101.18 26.408 101.532 26.04C101.884 25.656 102.34 25.384 102.9 25.224ZM105.06 30.264C103.556 30.328 102.804 30.896 102.804 31.968C102.804 32.512 103.116 32.944 103.74 33.264C104.38 33.6 105.132 33.768 105.996 33.768C106.86 33.768 107.532 33.696 108.012 33.552C108.508 33.408 108.924 33.216 109.26 32.976C109.98 32.496 110.34 31.92 110.34 31.248C110.34 30.96 110.236 30.72 110.028 30.528C109.836 30.352 109.548 30.264 109.164 30.264H105.06ZM108.732 22.2C108.732 21.544 108.548 21.016 108.18 20.616C107.828 20.2 107.284 19.992 106.548 19.992C105.812 19.992 105.252 20.2 104.868 20.616C104.484 21.016 104.292 21.544 104.292 22.2C104.292 22.84 104.484 23.368 104.868 23.784C105.252 24.2 105.812 24.408 106.548 24.408C107.284 24.408 107.828 24.2 108.18 23.784C108.548 23.368 108.732 22.84 108.732 22.2ZM118.645 20.352C119.413 18.8 120.645 18.024 122.341 18.024C123.781 18.024 124.861 18.496 125.581 19.44C126.317 20.384 126.685 21.632 126.685 23.184V30H123.853V23.184C123.853 22.32 123.645 21.672 123.229 21.24C122.813 20.792 122.229 20.568 121.477 20.568C120.725 20.568 120.077 20.904 119.533 21.576C119.005 22.248 118.725 23.256 118.693 24.6V30H115.861V18.336H118.333L118.645 20.352ZM137.124 18.312H139.956V30H137.124V18.312ZM136.788 14.568C136.788 14.056 136.94 13.656 137.244 13.368C137.548 13.064 137.98 12.912 138.54 12.912C139.084 12.912 139.508 13.064 139.812 13.368C140.132 13.656 140.292 14.056 140.292 14.568C140.292 15.08 140.132 15.488 139.812 15.792C139.508 16.08 139.084 16.224 138.54 16.224C137.98 16.224 137.548 16.08 137.244 15.792C136.94 15.488 136.788 15.08 136.788 14.568ZM147.543 20.352C148.311 18.8 149.543 18.024 151.239 18.024C152.679 18.024 153.759 18.496 154.479 19.44C155.215 20.384 155.583 21.632 155.583 23.184V30H152.751V23.184C152.751 22.32 152.543 21.672 152.127 21.24C151.711 20.792 151.127 20.568 150.375 20.568C149.623 20.568 148.975 20.904 148.431 21.576C147.903 22.248 147.623 23.256 147.591 24.6V30H144.759V18.336H147.231L147.543 20.352ZM166.815 18.336L169.167 26.664L171.399 18.984H173.967L176.199 26.688L178.575 18.336H181.407L177.567 30H174.783L172.623 23.016L170.511 30H167.703L163.839 18.336H166.815ZM184.21 18.312H187.042V30H184.21V18.312ZM183.874 14.568C183.874 14.056 184.026 13.656 184.33 13.368C184.634 13.064 185.066 12.912 185.626 12.912C186.17 12.912 186.594 13.064 186.898 13.368C187.218 13.656 187.378 14.056 187.378 14.568C187.378 15.08 187.218 15.488 186.898 15.792C186.594 16.08 186.17 16.224 185.626 16.224C185.066 16.224 184.634 16.08 184.33 15.792C184.026 15.488 183.874 15.08 183.874 14.568ZM198.421 29.712C197.365 30.128 196.533 30.336 195.925 30.336C195.317 30.336 194.781 30.264 194.317 30.12C193.869 29.976 193.469 29.76 193.117 29.472C192.381 28.816 192.013 27.912 192.013 26.76V20.232H190.381V18.336H192.013V15.264H194.845V18.336H198.013V20.232H194.845V26.664C194.845 27.624 195.301 28.104 196.213 28.104C196.677 28.104 197.277 27.976 198.013 27.72L198.421 29.712ZM204.146 20.232C204.946 18.76 206.114 18.024 207.65 18.024C209.186 18.024 210.314 18.496 211.034 19.44C211.77 20.384 212.138 21.632 212.138 23.184V30H209.306V23.184C209.306 22.32 209.098 21.672 208.682 21.24C208.266 20.792 207.682 20.568 206.93 20.568C206.178 20.568 205.53 20.904 204.986 21.576C204.458 22.248 204.178 23.256 204.146 24.6V30H201.314V13.536H204.146V20.232ZM231.889 27.528C231.217 29.4 229.929 30.336 228.025 30.336C226.073 30.336 224.465 29.6 223.201 28.128C221.889 26.608 221.233 24.664 221.233 22.296C221.233 19.8 221.937 17.8 223.345 16.296C224.705 14.84 226.457 14.112 228.601 14.112C230.057 14.112 231.273 14.432 232.249 15.072C233.241 15.696 234.017 16.688 234.577 18.048L231.673 18.72C230.825 17.36 229.753 16.68 228.457 16.68C227.273 16.68 226.289 17.184 225.505 18.192C224.689 19.216 224.281 20.584 224.281 22.296C224.281 23.912 224.649 25.224 225.385 26.232C226.105 27.224 227.065 27.72 228.265 27.72C229.289 27.72 230.129 27.392 230.785 26.736C231.457 26.064 231.793 25.144 231.793 23.976V23.88L228.289 23.808V21.984H234.505V30H232.201L231.889 27.528ZM243.164 18.024C243.948 18.024 244.684 18.152 245.372 18.408C246.06 18.648 246.652 19.024 247.148 19.536C248.252 20.656 248.804 22.208 248.804 24.192C248.804 26.144 248.252 27.68 247.148 28.8C246.156 29.824 244.828 30.336 243.164 30.336C241.5 30.336 240.156 29.824 239.132 28.8C238.028 27.696 237.476 26.16 237.476 24.192C237.476 22.192 238.028 20.64 239.132 19.536C240.14 18.528 241.484 18.024 243.164 18.024ZM245.972 24.168C245.972 22.936 245.732 22.016 245.252 21.408C244.772 20.784 244.1 20.472 243.236 20.472C242.388 20.472 241.692 20.784 241.148 21.408C240.604 22.016 240.332 22.936 240.332 24.168C240.332 25.4 240.572 26.328 241.052 26.952C241.548 27.56 242.22 27.864 243.068 27.864C243.916 27.864 244.612 27.56 245.156 26.952C245.7 26.328 245.972 25.4 245.972 24.168ZM256.757 18.024C257.541 18.024 258.277 18.152 258.965 18.408C259.653 18.648 260.245 19.024 260.741 19.536C261.845 20.656 262.397 22.208 262.397 24.192C262.397 26.144 261.845 27.68 260.741 28.8C259.749 29.824 258.421 30.336 256.757 30.336C255.093 30.336 253.749 29.824 252.725 28.8C251.621 27.696 251.069 26.16 251.069 24.192C251.069 22.192 251.621 20.64 252.725 19.536C253.733 18.528 255.077 18.024 256.757 18.024ZM259.565 24.168C259.565 22.936 259.325 22.016 258.845 21.408C258.365 20.784 257.693 20.472 256.829 20.472C255.981 20.472 255.285 20.784 254.741 21.408C254.197 22.016 253.925 22.936 253.925 24.168C253.925 25.4 254.165 26.328 254.645 26.952C255.141 27.56 255.813 27.864 256.661 27.864C257.509 27.864 258.205 27.56 258.749 26.952C259.293 26.328 259.565 25.4 259.565 24.168ZM266.775 25.224C265.831 24.424 265.359 23.424 265.359 22.224C265.359 20.96 265.855 19.936 266.847 19.152C267.807 18.4 268.903 18.024 270.135 18.024C271.383 18.024 272.423 18.256 273.255 18.72C273.351 17.808 273.743 17.072 274.431 16.512C275.103 15.952 275.895 15.672 276.807 15.672L276.663 18.384C275.287 18.384 274.575 18.84 274.527 19.752C275.119 20.488 275.415 21.24 275.415 22.008C275.415 22.776 275.279 23.424 275.007 23.952C274.735 24.464 274.367 24.896 273.903 25.248C272.943 26.016 271.775 26.4 270.399 26.4C269.615 26.4 268.903 26.28 268.263 26.04C267.623 26.232 267.303 26.616 267.303 27.192C267.303 27.912 267.911 28.272 269.127 28.272H273.039C275.695 28.272 277.023 29.2 277.023 31.056C277.023 31.68 276.863 32.288 276.543 32.88C276.239 33.488 275.791 34.024 275.199 34.488C273.887 35.512 272.239 36.024 270.255 36.024C268.335 36.024 266.775 35.632 265.575 34.848C264.455 34.096 263.895 33.176 263.895 32.088C263.895 31.368 264.111 30.792 264.543 30.36C264.991 29.944 265.575 29.68 266.295 29.568C265.351 28.992 264.879 28.28 264.879 27.432C264.879 26.872 265.055 26.408 265.407 26.04C265.759 25.656 266.215 25.384 266.775 25.224ZM268.935 30.264C267.431 30.328 266.679 30.896 266.679 31.968C266.679 32.512 266.991 32.944 267.615 33.264C268.255 33.6 269.007 33.768 269.871 33.768C270.735 33.768 271.407 33.696 271.887 33.552C272.383 33.408 272.799 33.216 273.135 32.976C273.855 32.496 274.215 31.92 274.215 31.248C274.215 30.96 274.111 30.72 273.903 30.528C273.711 30.352 273.423 30.264 273.039 30.264H268.935ZM272.607 22.2C272.607 21.544 272.423 21.016 272.055 20.616C271.703 20.2 271.159 19.992 270.423 19.992C269.687 19.992 269.127 20.2 268.743 20.616C268.359 21.016 268.167 21.544 268.167 22.2C268.167 22.84 268.359 23.368 268.743 23.784C269.127 24.2 269.687 24.408 270.423 24.408C271.159 24.408 271.703 24.2 272.055 23.784C272.423 23.368 272.607 22.84 272.607 22.2ZM279.736 13.536H282.568V30H279.736V13.536ZM295.161 19.728C295.561 20.24 295.857 20.832 296.049 21.504C296.257 22.176 296.361 22.792 296.361 23.352C296.361 23.912 296.329 24.416 296.265 24.864H288.729C288.761 25.808 288.993 26.576 289.425 27.168C289.857 27.76 290.513 28.056 291.393 28.056C292.561 28.056 293.257 27.544 293.481 26.52H296.337C296.145 27.688 295.609 28.608 294.729 29.28C293.817 29.984 292.705 30.336 291.393 30.336C289.857 30.336 288.569 29.776 287.529 28.656C286.457 27.488 285.921 25.992 285.921 24.168C285.921 22.296 286.457 20.792 287.529 19.656C288.553 18.568 289.841 18.024 291.393 18.024C293.009 18.024 294.265 18.592 295.161 19.728ZM291.417 20.28C290.617 20.28 289.993 20.544 289.545 21.072C289.097 21.584 288.833 22.248 288.753 23.064H293.721C293.721 21.8 293.321 20.952 292.521 20.52C292.217 20.36 291.849 20.28 291.417 20.28Z" fill="#181827"/>
</svg>
