<svg width="349" height="26" viewBox="0 0 349 26" fill="none" xmlns="http://www.w3.org/2000/svg">
<path d="M0.535 2.985H13.905V5.365H3.3V12.68H13.17V15.06H3.3V25H0.535V2.985ZM19.0645 8.235H21.8295V25H19.0645V8.235ZM20.4295 4.315C19.8695 4.315 19.4262 4.16333 19.0995 3.86C18.7962 3.53333 18.6445 3.11333 18.6445 2.6C18.6445 2.06333 18.7962 1.64333 19.0995 1.34C19.4262 1.01333 19.8695 0.849998 20.4295 0.849998C20.9895 0.849998 21.4328 1.01333 21.7595 1.34C22.1095 1.64333 22.2845 2.06333 22.2845 2.6C22.2845 3.11333 22.1095 3.53333 21.7595 3.86C21.4328 4.16333 20.9895 4.315 20.4295 4.315ZM32.0085 11.49C33.1051 9.06333 34.9835 7.85 37.6435 7.85C39.6268 7.85 41.1668 8.50333 42.2635 9.81C43.3835 11.1167 43.9435 12.9017 43.9435 15.165V25H41.2135V15.165C41.2135 13.555 40.8285 12.3417 40.0585 11.525C39.3118 10.7083 38.2385 10.3 36.8385 10.3C35.4385 10.3 34.3068 10.8717 33.4435 12.015C32.5801 13.1583 32.1251 14.745 32.0785 16.775V25H29.3135V8.27H31.6935L32.0085 11.49ZM61.3923 10.755V1.165H64.1223V25H61.8823L61.5323 22.2C60.9957 23.25 60.284 24.0433 59.3973 24.58C58.5107 25.1167 57.5423 25.385 56.4923 25.385C54.369 25.385 52.584 24.5683 51.1373 22.935C49.714 21.3017 49.0023 19.1783 49.0023 16.565C49.0023 13.9283 49.7023 11.8167 51.1023 10.23C52.5257 8.64333 54.3107 7.85 56.4573 7.85C58.6273 7.85 60.2723 8.81833 61.3923 10.755ZM56.6323 10.3C55.279 10.3 54.1357 10.8717 53.2023 12.015C52.2923 13.1583 51.8373 14.6867 51.8373 16.6C51.8373 18.5133 52.304 20.0533 53.2373 21.22C54.1707 22.3633 55.2907 22.935 56.5973 22.935C57.904 22.935 59.0123 22.5033 59.9223 21.64C60.8557 20.7533 61.3457 19.575 61.3923 18.105V15.375C61.3923 13.8117 60.9373 12.575 60.0273 11.665C59.1173 10.755 57.9857 10.3 56.6323 10.3ZM82.3234 22.585H92.1234V25H79.5584V2.985H82.3234V22.585ZM101.951 7.85C104.284 7.85 106.162 8.60833 107.586 10.125C109.032 11.6417 109.756 13.8117 109.756 16.635C109.756 19.435 109.032 21.5933 107.586 23.11C106.162 24.6267 104.284 25.385 101.951 25.385C99.6172 25.385 97.7272 24.6267 96.2805 23.11C94.8572 21.5933 94.1455 19.435 94.1455 16.635C94.1455 13.8117 94.8572 11.6417 96.2805 10.125C97.7272 8.60833 99.6172 7.85 101.951 7.85ZM106.956 16.635C106.956 14.6283 106.536 13.065 105.696 11.945C104.856 10.8017 103.619 10.23 101.986 10.23C100.376 10.23 99.1388 10.8017 98.2755 11.945C97.4122 13.065 96.9805 14.6283 96.9805 16.635C96.9805 18.6183 97.3888 20.1817 98.2055 21.325C99.0222 22.445 100.236 23.005 101.846 23.005C103.479 23.005 104.739 22.445 105.626 21.325C106.512 20.1817 106.956 18.6183 106.956 16.635ZM115.247 8.27L120.287 22.095L125.362 8.27H128.477L121.827 25H118.782L112.132 8.27H115.247ZM138.414 23.145C140.724 23.145 142.043 22.13 142.369 20.1H145.204C144.948 21.78 144.201 23.0867 142.964 24.02C141.751 24.93 140.234 25.385 138.414 25.385C136.174 25.385 134.354 24.5917 132.954 23.005C131.554 21.395 130.854 19.26 130.854 16.6C130.854 13.94 131.554 11.8167 132.954 10.23C134.378 8.64333 136.256 7.85 138.589 7.85C140.946 7.85 142.696 8.76 143.839 10.58C145.006 12.4 145.414 14.6167 145.064 17.23H133.619C133.619 18.9567 134.039 20.38 134.879 21.5C135.719 22.5967 136.898 23.145 138.414 23.145ZM140.444 10.475C139.908 10.195 139.254 10.055 138.484 10.055C137.061 10.055 135.929 10.545 135.089 11.525C134.273 12.4817 133.794 13.6833 133.654 15.13H142.579C142.579 12.7967 141.868 11.245 140.444 10.475ZM159.167 8.235H161.932V25H159.167V8.235ZM160.532 4.315C159.972 4.315 159.529 4.16333 159.202 3.86C158.899 3.53333 158.747 3.11333 158.747 2.6C158.747 2.06333 158.899 1.64333 159.202 1.34C159.529 1.01333 159.972 0.849998 160.532 0.849998C161.092 0.849998 161.535 1.01333 161.862 1.34C162.212 1.64333 162.387 2.06333 162.387 2.6C162.387 3.11333 162.212 3.53333 161.862 3.86C161.535 4.16333 161.092 4.315 160.532 4.315ZM172.111 11.49C173.208 9.06333 175.086 7.85 177.746 7.85C179.729 7.85 181.269 8.50333 182.366 9.81C183.486 11.1167 184.046 12.9017 184.046 15.165V25H181.316V15.165C181.316 13.555 180.931 12.3417 180.161 11.525C179.414 10.7083 178.341 10.3 176.941 10.3C175.541 10.3 174.409 10.8717 173.546 12.015C172.683 13.1583 172.228 14.745 172.181 16.775V25H169.416V8.27H171.796L172.111 11.49ZM207.63 24.51C205.623 25.4433 203.791 25.6417 202.135 25.105C200.945 24.7317 200.105 23.95 199.615 22.76C199.358 22.1767 199.23 21.4767 199.23 20.66V10.37H196.535V8.27H199.23V3.615H201.96V8.27H207.21V10.37H201.96V20.625C201.96 22.3283 202.753 23.18 204.34 23.18C205.203 23.18 206.171 22.97 207.245 22.55L207.63 24.51ZM214.804 11.35C215.924 9.01667 217.779 7.85 220.369 7.85C222.352 7.85 223.892 8.50333 224.989 9.81C226.109 11.1167 226.669 12.9017 226.669 15.165V25H223.939V15.165C223.939 13.555 223.554 12.3417 222.784 11.525C222.037 10.7083 220.952 10.3 219.529 10.3C218.106 10.3 216.962 10.9067 216.099 12.12C215.236 13.31 214.804 14.9667 214.804 17.09V25H212.039V1.165H214.804V11.35ZM238.937 23.145C241.247 23.145 242.565 22.13 242.892 20.1H245.727C245.47 21.78 244.724 23.0867 243.487 24.02C242.274 24.93 240.757 25.385 238.937 25.385C236.697 25.385 234.877 24.5917 233.477 23.005C232.077 21.395 231.377 19.26 231.377 16.6C231.377 13.94 232.077 11.8167 233.477 10.23C234.9 8.64333 236.779 7.85 239.112 7.85C241.469 7.85 243.219 8.76 244.362 10.58C245.529 12.4 245.937 14.6167 245.587 17.23H234.142C234.142 18.9567 234.562 20.38 235.402 21.5C236.242 22.5967 237.42 23.145 238.937 23.145ZM240.967 10.475C240.43 10.195 239.777 10.055 239.007 10.055C237.584 10.055 236.452 10.545 235.612 11.525C234.795 12.4817 234.317 13.6833 234.177 15.13H243.102C243.102 12.7967 242.39 11.245 240.967 10.475ZM271.239 8.34C270.843 6.19333 269.268 5.12 266.514 5.12C265.044 5.12 263.913 5.44667 263.119 6.1C262.326 6.73 261.929 7.5 261.929 8.41C261.929 9.29667 262.174 9.97333 262.664 10.44C263.154 10.9067 263.948 11.315 265.044 11.665L269.629 13.24C271.193 13.7767 272.429 14.5117 273.339 15.445C274.273 16.3783 274.739 17.6967 274.739 19.4C274.739 21.08 274.016 22.5033 272.569 23.67C271.123 24.8133 269.186 25.385 266.759 25.385C264.333 25.385 262.338 24.7783 260.774 23.565C259.234 22.3283 258.441 20.6017 258.394 18.385H261.089C261.089 19.8317 261.591 20.94 262.594 21.71C263.621 22.48 264.928 22.865 266.514 22.865C268.124 22.865 269.396 22.515 270.329 21.815C271.263 21.0917 271.729 20.2517 271.729 19.295C271.729 18.315 271.438 17.545 270.854 16.985C270.294 16.425 269.454 15.9583 268.334 15.585L264.449 14.15C262.629 13.5433 261.253 12.82 260.319 11.98C259.386 11.14 258.919 9.915 258.919 8.305C258.919 6.67167 259.573 5.31833 260.879 4.245C262.186 3.14833 264.018 2.6 266.374 2.6C268.731 2.6 270.528 3.125 271.764 4.175C273.024 5.20167 273.748 6.59 273.934 8.34H271.239ZM289.456 24.51C287.449 25.4433 285.618 25.6417 283.961 25.105C282.771 24.7317 281.931 23.95 281.441 22.76C281.184 22.1767 281.056 21.4767 281.056 20.66V10.37H278.361V8.27H281.056V3.615H283.786V8.27H289.036V10.37H283.786V20.625C283.786 22.3283 284.579 23.18 286.166 23.18C287.029 23.18 287.998 22.97 289.071 22.55L289.456 24.51ZM304.225 14.15C304.225 12.6333 303.91 11.5483 303.28 10.895C302.65 10.2417 301.728 9.915 300.515 9.915C299.325 9.915 298.357 10.16 297.61 10.65C296.887 11.1167 296.525 11.8633 296.525 12.89H293.48C293.48 10.3233 294.857 8.73667 297.61 8.13C298.45 7.94333 299.36 7.85 300.34 7.85C302.417 7.85 304.038 8.375 305.205 9.425C306.372 10.475 306.955 12.0733 306.955 14.22V25H304.575L304.295 22.2C303.268 24.3233 301.413 25.385 298.73 25.385C296.933 25.385 295.487 24.8833 294.39 23.88C293.317 22.8767 292.78 21.6283 292.78 20.135C292.78 18.6417 293.375 17.475 294.565 16.635C295.778 15.795 297.283 15.375 299.08 15.375C300.877 15.375 302.592 15.6783 304.225 16.285V14.15ZM304.225 18.035C302.568 17.5683 301.122 17.335 299.885 17.335C298.648 17.335 297.645 17.5567 296.875 18C296.105 18.4433 295.72 19.1433 295.72 20.1C295.72 22.2 296.91 23.25 299.29 23.25C300.643 23.25 301.798 22.7717 302.755 21.815C303.735 20.835 304.225 19.575 304.225 18.035ZM320.275 10.615C317.638 10.615 316.273 12.6917 316.18 16.845V25H313.415V8.235H316.18V11.455C317.02 9.12167 318.502 7.955 320.625 7.955C321.302 7.955 321.943 8.06 322.55 8.27L322.41 10.965C321.71 10.7317 320.998 10.615 320.275 10.615ZM325.905 12.365C325.905 10.9883 326.488 9.89167 327.655 9.075C328.845 8.25833 330.443 7.85 332.45 7.85C334.457 7.85 336.02 8.27 337.14 9.11C338.283 9.95 338.878 11.0117 338.925 12.295H336.23C336.02 10.7783 334.737 10.02 332.38 10.02C331.237 10.02 330.35 10.2767 329.72 10.79C329.113 11.3033 328.81 11.8633 328.81 12.47C328.81 13.0533 329.043 13.555 329.51 13.975C329.977 14.3717 330.723 14.7217 331.75 15.025L335.11 16.145C336.533 16.5883 337.618 17.16 338.365 17.86C339.135 18.5367 339.52 19.4817 339.52 20.695C339.52 21.885 338.902 22.97 337.665 23.95C336.428 24.9067 334.702 25.385 332.485 25.385C330.268 25.385 328.542 24.895 327.305 23.915C326.068 22.9117 325.415 21.6283 325.345 20.065H328.005C328.052 21.115 328.472 21.9083 329.265 22.445C330.082 22.9583 331.097 23.215 332.31 23.215C333.523 23.215 334.527 22.9583 335.32 22.445C336.113 21.9317 336.51 21.325 336.51 20.625C336.51 19.9017 336.277 19.3533 335.81 18.98C335.343 18.6067 334.585 18.28 333.535 18L330.28 16.915C327.363 16.0517 325.905 14.535 325.905 12.365ZM345.133 3.055H348.038L347.723 18.84H345.483L345.133 3.055ZM346.568 25.315C345.985 25.315 345.495 25.1283 345.098 24.755C344.725 24.3583 344.538 23.8917 344.538 23.355C344.538 22.795 344.725 22.3283 345.098 21.955C345.495 21.5583 345.985 21.36 346.568 21.36C347.175 21.36 347.676 21.5583 348.073 21.955C348.493 22.3283 348.703 22.795 348.703 23.355C348.703 23.8917 348.493 24.3583 348.073 24.755C347.676 25.1283 347.175 25.315 346.568 25.315Z" fill="white"/>
</svg>
