<svg width="311" height="25" viewBox="0 0 311 25" fill="none" xmlns="http://www.w3.org/2000/svg">
<path d="M9.24022 6.72C8.98422 5.36 8.02422 4.68 6.36022 4.68C5.54422 4.68 4.90422 4.848 4.44022 5.184C3.99222 5.504 3.76822 5.896 3.76822 6.36C3.76822 6.824 3.91222 7.192 4.20022 7.464C4.50422 7.72 4.96822 7.96 5.59222 8.184L8.97622 9.504C10.1282 9.952 11.0162 10.52 11.6402 11.208C12.2642 11.88 12.5762 12.728 12.5762 13.752C12.5762 15.16 12.0482 16.28 10.9922 17.112C9.93622 17.928 8.43222 18.336 6.48022 18.336C4.75222 18.336 3.35222 17.912 2.28022 17.064C1.08022 16.136 0.448219 14.824 0.384219 13.128H3.19222C3.19222 14.408 3.85622 15.216 5.18422 15.552C5.58422 15.664 6.11222 15.72 6.76822 15.72C7.42422 15.72 8.03222 15.56 8.59222 15.24C9.15222 14.904 9.43222 14.464 9.43222 13.92C9.43222 13.36 9.28022 12.936 8.97622 12.648C8.67222 12.344 8.17622 12.064 7.48822 11.808L4.39222 10.584C3.19222 10.12 2.27222 9.576 1.63222 8.952C0.992219 8.328 0.672219 7.464 0.672219 6.36C0.672219 5.064 1.17622 4.04 2.18422 3.288C3.20822 2.504 4.59222 2.112 6.33622 2.112C8.09622 2.112 9.44822 2.52 10.3922 3.336C11.3522 4.136 11.9042 5.264 12.0482 6.72H9.24022ZM16.6009 6.312H19.4329V18H16.6009V6.312ZM16.2649 2.568C16.2649 2.056 16.4169 1.656 16.7209 1.368C17.0249 1.064 17.4569 0.912 18.0169 0.912C18.5609 0.912 18.9849 1.064 19.2889 1.368C19.6089 1.656 19.7689 2.056 19.7689 2.568C19.7689 3.08 19.6089 3.488 19.2889 3.792C18.9849 4.08 18.5609 4.224 18.0169 4.224C17.4569 4.224 17.0249 4.08 16.7209 3.792C16.4169 3.488 16.2649 3.08 16.2649 2.568ZM25.2439 13.224C24.2999 12.424 23.8279 11.424 23.8279 10.224C23.8279 8.96 24.3239 7.936 25.3159 7.152C26.2759 6.4 27.3719 6.024 28.6039 6.024C29.8519 6.024 30.8919 6.256 31.7239 6.72C31.8199 5.808 32.2119 5.072 32.8999 4.512C33.5719 3.952 34.3639 3.672 35.2759 3.672L35.1319 6.384C33.7559 6.384 33.0439 6.84 32.9959 7.752C33.5879 8.488 33.8839 9.24 33.8839 10.008C33.8839 10.776 33.7479 11.424 33.4759 11.952C33.2039 12.464 32.8359 12.896 32.3719 13.248C31.4119 14.016 30.2439 14.4 28.8679 14.4C28.0839 14.4 27.3719 14.28 26.7319 14.04C26.0919 14.232 25.7719 14.616 25.7719 15.192C25.7719 15.912 26.3799 16.272 27.5959 16.272H31.5079C34.1639 16.272 35.4919 17.2 35.4919 19.056C35.4919 19.68 35.3319 20.288 35.0119 20.88C34.7079 21.488 34.2599 22.024 33.6679 22.488C32.3559 23.512 30.7079 24.024 28.7239 24.024C26.8039 24.024 25.2439 23.632 24.0439 22.848C22.9239 22.096 22.3639 21.176 22.3639 20.088C22.3639 19.368 22.5799 18.792 23.0119 18.36C23.4599 17.944 24.0439 17.68 24.7639 17.568C23.8199 16.992 23.3479 16.28 23.3479 15.432C23.3479 14.872 23.5239 14.408 23.8759 14.04C24.2279 13.656 24.6839 13.384 25.2439 13.224ZM27.4039 18.264C25.8999 18.328 25.1479 18.896 25.1479 19.968C25.1479 20.512 25.4599 20.944 26.0839 21.264C26.7239 21.6 27.4759 21.768 28.3399 21.768C29.2039 21.768 29.8759 21.696 30.3559 21.552C30.8519 21.408 31.2679 21.216 31.6039 20.976C32.3239 20.496 32.6839 19.92 32.6839 19.248C32.6839 18.96 32.5799 18.72 32.3719 18.528C32.1799 18.352 31.8919 18.264 31.5079 18.264H27.4039ZM31.0759 10.2C31.0759 9.544 30.8919 9.016 30.5239 8.616C30.1719 8.2 29.6279 7.992 28.8919 7.992C28.1559 7.992 27.5959 8.2 27.2119 8.616C26.8279 9.016 26.6359 9.544 26.6359 10.2C26.6359 10.84 26.8279 11.368 27.2119 11.784C27.5959 12.2 28.1559 12.408 28.8919 12.408C29.6279 12.408 30.1719 12.2 30.5239 11.784C30.8919 11.368 31.0759 10.84 31.0759 10.2ZM40.9887 8.352C41.7567 6.8 42.9887 6.024 44.6847 6.024C46.1247 6.024 47.2047 6.496 47.9247 7.44C48.6607 8.384 49.0287 9.632 49.0287 11.184V18H46.1967V11.184C46.1967 10.32 45.9887 9.672 45.5727 9.24C45.1567 8.792 44.5727 8.568 43.8207 8.568C43.0687 8.568 42.4207 8.904 41.8767 9.576C41.3487 10.248 41.0687 11.256 41.0367 12.6V18H38.2047V6.336H40.6767L40.9887 8.352ZM59.4681 6.312H62.3001V18H59.4681V6.312ZM59.1321 2.568C59.1321 2.056 59.2841 1.656 59.5881 1.368C59.8921 1.064 60.3241 0.912 60.8841 0.912C61.4281 0.912 61.8521 1.064 62.1561 1.368C62.4761 1.656 62.6361 2.056 62.6361 2.568C62.6361 3.08 62.4761 3.488 62.1561 3.792C61.8521 4.08 61.4281 4.224 60.8841 4.224C60.3241 4.224 59.8921 4.08 59.5881 3.792C59.2841 3.488 59.1321 3.08 59.1321 2.568ZM69.8871 8.352C70.6551 6.8 71.8871 6.024 73.5831 6.024C75.0231 6.024 76.1031 6.496 76.8231 7.44C77.5591 8.384 77.9271 9.632 77.9271 11.184V18H75.0951V11.184C75.0951 10.32 74.8871 9.672 74.4711 9.24C74.0551 8.792 73.4711 8.568 72.7191 8.568C71.9671 8.568 71.3191 8.904 70.7751 9.576C70.2471 10.248 69.9671 11.256 69.9351 12.6V18H67.1031V6.336H69.5751L69.8871 8.352ZM89.1585 6.336L91.5105 14.664L93.7425 6.984H96.3105L98.5425 14.688L100.919 6.336H103.751L99.9105 18H97.1265L94.9665 11.016L92.8545 18H90.0465L86.1825 6.336H89.1585ZM106.554 6.312H109.386V18H106.554V6.312ZM106.218 2.568C106.218 2.056 106.37 1.656 106.674 1.368C106.978 1.064 107.41 0.912 107.97 0.912C108.514 0.912 108.938 1.064 109.242 1.368C109.562 1.656 109.722 2.056 109.722 2.568C109.722 3.08 109.562 3.488 109.242 3.792C108.938 4.08 108.514 4.224 107.97 4.224C107.41 4.224 106.978 4.08 106.674 3.792C106.37 3.488 106.218 3.08 106.218 2.568ZM120.765 17.712C119.709 18.128 118.877 18.336 118.269 18.336C117.661 18.336 117.125 18.264 116.661 18.12C116.213 17.976 115.813 17.76 115.461 17.472C114.725 16.816 114.357 15.912 114.357 14.76V8.232H112.725V6.336H114.357V3.264H117.189V6.336H120.357V8.232H117.189V14.664C117.189 15.624 117.645 16.104 118.557 16.104C119.021 16.104 119.621 15.976 120.357 15.72L120.765 17.712ZM126.49 8.232C127.29 6.76 128.458 6.024 129.994 6.024C131.53 6.024 132.658 6.496 133.378 7.44C134.114 8.384 134.482 9.632 134.482 11.184V18H131.65V11.184C131.65 10.32 131.442 9.672 131.026 9.24C130.61 8.792 130.026 8.568 129.274 8.568C128.522 8.568 127.874 8.904 127.33 9.576C126.802 10.248 126.522 11.256 126.49 12.6V18H123.658V1.536H126.49V8.232ZM150.105 2.424C151.865 2.424 153.233 2.856 154.209 3.72C155.201 4.568 155.697 5.792 155.697 7.392C155.697 8.976 155.201 10.2 154.209 11.064C153.233 11.912 151.865 12.336 150.105 12.336H147.465V18H144.609V2.424H150.105ZM150.105 9.864C150.985 9.864 151.649 9.632 152.097 9.168C152.545 8.704 152.769 8.112 152.769 7.392C152.769 6.656 152.545 6.056 152.097 5.592C151.649 5.112 150.985 4.872 150.105 4.872H147.465V9.864H150.105ZM161.459 8.232C162.259 6.76 163.427 6.024 164.963 6.024C166.499 6.024 167.627 6.496 168.347 7.44C169.083 8.384 169.451 9.632 169.451 11.184V18H166.619V11.184C166.619 10.32 166.411 9.672 165.995 9.24C165.579 8.792 164.995 8.568 164.243 8.568C163.491 8.568 162.843 8.904 162.299 9.576C161.771 10.248 161.491 11.256 161.459 12.6V18H158.627V1.536H161.459V8.232ZM178.164 6.024C178.948 6.024 179.684 6.152 180.372 6.408C181.06 6.648 181.652 7.024 182.148 7.536C183.252 8.656 183.804 10.208 183.804 12.192C183.804 14.144 183.252 15.68 182.148 16.8C181.156 17.824 179.828 18.336 178.164 18.336C176.5 18.336 175.156 17.824 174.132 16.8C173.028 15.696 172.476 14.16 172.476 12.192C172.476 10.192 173.028 8.64 174.132 7.536C175.14 6.528 176.484 6.024 178.164 6.024ZM180.972 12.168C180.972 10.936 180.732 10.016 180.252 9.408C179.772 8.784 179.1 8.472 178.236 8.472C177.388 8.472 176.692 8.784 176.148 9.408C175.604 10.016 175.332 10.936 175.332 12.168C175.332 13.4 175.572 14.328 176.052 14.952C176.548 15.56 177.22 15.864 178.068 15.864C178.916 15.864 179.612 15.56 180.156 14.952C180.7 14.328 180.972 13.4 180.972 12.168ZM189.957 8.352C190.725 6.8 191.957 6.024 193.653 6.024C195.093 6.024 196.173 6.496 196.893 7.44C197.629 8.384 197.997 9.632 197.997 11.184V18H195.165V11.184C195.165 10.32 194.957 9.672 194.541 9.24C194.125 8.792 193.541 8.568 192.789 8.568C192.037 8.568 191.389 8.904 190.845 9.576C190.317 10.248 190.037 11.256 190.005 12.6V18H187.173V6.336H189.645L189.957 8.352ZM210.263 7.728C210.663 8.24 210.959 8.832 211.151 9.504C211.359 10.176 211.463 10.792 211.463 11.352C211.463 11.912 211.431 12.416 211.367 12.864H203.831C203.863 13.808 204.095 14.576 204.527 15.168C204.959 15.76 205.615 16.056 206.495 16.056C207.663 16.056 208.359 15.544 208.583 14.52H211.439C211.247 15.688 210.711 16.608 209.831 17.28C208.919 17.984 207.807 18.336 206.495 18.336C204.959 18.336 203.671 17.776 202.631 16.656C201.559 15.488 201.023 13.992 201.023 12.168C201.023 10.296 201.559 8.792 202.631 7.656C203.655 6.568 204.943 6.024 206.495 6.024C208.111 6.024 209.367 6.592 210.263 7.728ZM206.519 8.28C205.719 8.28 205.095 8.544 204.647 9.072C204.199 9.584 203.935 10.248 203.855 11.064H208.823C208.823 9.8 208.423 8.952 207.623 8.52C207.319 8.36 206.951 8.28 206.519 8.28ZM223.971 2.424L230.835 13.464V2.424H233.667V18H230.787L223.707 6.576V18H220.875V2.424H223.971ZM245.879 15.888C245.143 17.44 243.959 18.216 242.327 18.216C240.263 18.216 238.903 17.408 238.247 15.792C238.007 15.232 237.887 14.552 237.887 13.752V6.312H240.719V13.464C240.719 14.232 240.903 14.808 241.271 15.192C241.639 15.56 242.087 15.744 242.615 15.744C243.159 15.744 243.615 15.672 243.983 15.528C244.351 15.368 244.671 15.136 244.943 14.832C245.535 14.144 245.847 13.224 245.879 12.072V6.312H248.711V18H245.879V15.888ZM263.541 8.544C264.293 6.864 265.613 6.024 267.501 6.024C268.893 6.024 269.973 6.496 270.741 7.44C271.477 8.336 271.845 9.584 271.845 11.184V18H268.989V11.184C268.989 10.32 268.781 9.672 268.365 9.24C267.949 8.792 267.365 8.568 266.613 8.568C265.861 8.568 265.245 8.896 264.765 9.552C264.285 10.208 264.029 11.2 263.997 12.528V18H261.165V11.184C261.165 10.32 260.957 9.672 260.541 9.24C260.125 8.792 259.541 8.568 258.789 8.568C258.037 8.568 257.389 8.904 256.845 9.576C256.317 10.248 256.037 11.256 256.005 12.6V18H253.173V6.336H255.645L255.957 8.352C256.725 6.8 257.957 6.024 259.653 6.024C260.629 6.024 261.437 6.248 262.077 6.696C262.733 7.144 263.221 7.76 263.541 8.544ZM285.747 7.704C286.739 8.824 287.235 10.296 287.235 12.12C287.235 13.944 286.715 15.448 285.675 16.632C284.667 17.768 283.411 18.336 281.907 18.336C281.187 18.336 280.523 18.144 279.915 17.76C279.323 17.376 278.851 16.784 278.499 15.984L277.803 18H275.955V1.536H278.787V7.8C279.523 6.616 280.619 6.024 282.075 6.024C283.547 6.024 284.771 6.584 285.747 7.704ZM278.787 11.448V12.984C278.819 13.8 279.115 14.472 279.675 15C280.203 15.512 280.843 15.768 281.595 15.768C282.363 15.768 283.019 15.44 283.563 14.784C284.107 14.112 284.379 13.232 284.379 12.144C284.379 11.056 284.107 10.192 283.563 9.552C283.035 8.896 282.371 8.568 281.571 8.568C280.771 8.568 280.107 8.832 279.579 9.36C279.051 9.888 278.787 10.584 278.787 11.448ZM298.833 7.728C299.233 8.24 299.529 8.832 299.721 9.504C299.929 10.176 300.033 10.792 300.033 11.352C300.033 11.912 300.001 12.416 299.937 12.864H292.401C292.433 13.808 292.665 14.576 293.097 15.168C293.529 15.76 294.185 16.056 295.065 16.056C296.233 16.056 296.929 15.544 297.153 14.52H300.009C299.817 15.688 299.281 16.608 298.401 17.28C297.489 17.984 296.377 18.336 295.065 18.336C293.529 18.336 292.241 17.776 291.201 16.656C290.129 15.488 289.593 13.992 289.593 12.168C289.593 10.296 290.129 8.792 291.201 7.656C292.225 6.568 293.513 6.024 295.065 6.024C296.681 6.024 297.937 6.592 298.833 7.728ZM295.089 8.28C294.289 8.28 293.665 8.544 293.217 9.072C292.769 9.584 292.505 10.248 292.425 11.064H297.393C297.393 9.8 296.993 8.952 296.193 8.52C295.889 8.36 295.521 8.28 295.089 8.28ZM306.255 8.64C306.959 6.96 308.015 6.12 309.423 6.12C309.695 6.12 310.039 6.176 310.455 6.288L310.407 9.12C309.959 9.024 309.519 8.976 309.087 8.976C307.199 8.976 306.255 10.28 306.255 12.888V18H303.423V6.312H306.255V8.64Z" fill="#181827"/>
</svg>
