<svg width="219" height="25" viewBox="0 0 219 25" fill="none" xmlns="http://www.w3.org/2000/svg">
<path d="M8.89647 6.72C8.64047 5.36 7.68047 4.68 6.01647 4.68C5.20047 4.68 4.56047 4.848 4.09647 5.184C3.64847 5.504 3.42447 5.896 3.42447 6.36C3.42447 6.824 3.56847 7.192 3.85647 7.464C4.16047 7.72 4.62447 7.96 5.24847 8.184L8.63247 9.504C9.78447 9.952 10.6725 10.52 11.2965 11.208C11.9205 11.88 12.2325 12.728 12.2325 13.752C12.2325 15.16 11.7045 16.28 10.6485 17.112C9.59247 17.928 8.08847 18.336 6.13647 18.336C4.40847 18.336 3.00847 17.912 1.93647 17.064C0.736469 16.136 0.104469 14.824 0.0404689 13.128H2.84847C2.84847 14.408 3.51247 15.216 4.84047 15.552C5.24047 15.664 5.76847 15.72 6.42447 15.72C7.08047 15.72 7.68847 15.56 8.24847 15.24C8.80847 14.904 9.08847 14.464 9.08847 13.92C9.08847 13.36 8.93647 12.936 8.63247 12.648C8.32847 12.344 7.83247 12.064 7.14447 11.808L4.04847 10.584C2.84847 10.12 1.92847 9.576 1.28847 8.952C0.648469 8.328 0.328469 7.464 0.328469 6.36C0.328469 5.064 0.832469 4.04 1.84047 3.288C2.86447 2.504 4.24847 2.112 5.99247 2.112C7.75247 2.112 9.10447 2.52 10.0485 3.336C11.0085 4.136 11.5605 5.264 11.7045 6.72H8.89647ZM16.2572 6.312H19.0892V18H16.2572V6.312ZM15.9212 2.568C15.9212 2.056 16.0732 1.656 16.3772 1.368C16.6812 1.064 17.1132 0.912 17.6732 0.912C18.2172 0.912 18.6412 1.064 18.9452 1.368C19.2652 1.656 19.4252 2.056 19.4252 2.568C19.4252 3.08 19.2652 3.488 18.9452 3.792C18.6412 4.08 18.2172 4.224 17.6732 4.224C17.1132 4.224 16.6812 4.08 16.3772 3.792C16.0732 3.488 15.9212 3.08 15.9212 2.568ZM24.9002 13.224C23.9562 12.424 23.4842 11.424 23.4842 10.224C23.4842 8.96 23.9802 7.936 24.9722 7.152C25.9322 6.4 27.0282 6.024 28.2602 6.024C29.5082 6.024 30.5482 6.256 31.3802 6.72C31.4762 5.808 31.8682 5.072 32.5562 4.512C33.2282 3.952 34.0202 3.672 34.9322 3.672L34.7882 6.384C33.4122 6.384 32.7002 6.84 32.6522 7.752C33.2442 8.488 33.5402 9.24 33.5402 10.008C33.5402 10.776 33.4042 11.424 33.1322 11.952C32.8602 12.464 32.4922 12.896 32.0282 13.248C31.0682 14.016 29.9002 14.4 28.5242 14.4C27.7402 14.4 27.0282 14.28 26.3882 14.04C25.7482 14.232 25.4282 14.616 25.4282 15.192C25.4282 15.912 26.0362 16.272 27.2522 16.272H31.1642C33.8202 16.272 35.1482 17.2 35.1482 19.056C35.1482 19.68 34.9882 20.288 34.6682 20.88C34.3642 21.488 33.9162 22.024 33.3242 22.488C32.0122 23.512 30.3642 24.024 28.3802 24.024C26.4602 24.024 24.9002 23.632 23.7002 22.848C22.5802 22.096 22.0202 21.176 22.0202 20.088C22.0202 19.368 22.2362 18.792 22.6682 18.36C23.1162 17.944 23.7002 17.68 24.4202 17.568C23.4762 16.992 23.0042 16.28 23.0042 15.432C23.0042 14.872 23.1802 14.408 23.5322 14.04C23.8842 13.656 24.3402 13.384 24.9002 13.224ZM27.0602 18.264C25.5562 18.328 24.8042 18.896 24.8042 19.968C24.8042 20.512 25.1162 20.944 25.7402 21.264C26.3802 21.6 27.1322 21.768 27.9962 21.768C28.8602 21.768 29.5322 21.696 30.0122 21.552C30.5082 21.408 30.9242 21.216 31.2602 20.976C31.9802 20.496 32.3402 19.92 32.3402 19.248C32.3402 18.96 32.2362 18.72 32.0282 18.528C31.8362 18.352 31.5482 18.264 31.1642 18.264H27.0602ZM30.7322 10.2C30.7322 9.544 30.5482 9.016 30.1802 8.616C29.8282 8.2 29.2842 7.992 28.5482 7.992C27.8122 7.992 27.2522 8.2 26.8682 8.616C26.4842 9.016 26.2922 9.544 26.2922 10.2C26.2922 10.84 26.4842 11.368 26.8682 11.784C27.2522 12.2 27.8122 12.408 28.5482 12.408C29.2842 12.408 29.8282 12.2 30.1802 11.784C30.5482 11.368 30.7322 10.84 30.7322 10.2ZM40.6449 8.352C41.4129 6.8 42.6449 6.024 44.3409 6.024C45.7809 6.024 46.8609 6.496 47.5809 7.44C48.3169 8.384 48.6849 9.632 48.6849 11.184V18H45.8529V11.184C45.8529 10.32 45.6449 9.672 45.2289 9.24C44.8129 8.792 44.2289 8.568 43.4769 8.568C42.7249 8.568 42.0769 8.904 41.5329 9.576C41.0049 10.248 40.7249 11.256 40.6929 12.6V18H37.8609V6.336H40.3329L40.6449 8.352ZM59.1243 6.312H61.9563V18H59.1243V6.312ZM58.7883 2.568C58.7883 2.056 58.9403 1.656 59.2443 1.368C59.5483 1.064 59.9803 0.912 60.5403 0.912C61.0843 0.912 61.5083 1.064 61.8123 1.368C62.1323 1.656 62.2923 2.056 62.2923 2.568C62.2923 3.08 62.1323 3.488 61.8123 3.792C61.5083 4.08 61.0843 4.224 60.5403 4.224C59.9803 4.224 59.5483 4.08 59.2443 3.792C58.9403 3.488 58.7883 3.08 58.7883 2.568ZM69.5433 8.352C70.3113 6.8 71.5433 6.024 73.2393 6.024C74.6793 6.024 75.7593 6.496 76.4793 7.44C77.2153 8.384 77.5833 9.632 77.5833 11.184V18H74.7513V11.184C74.7513 10.32 74.5433 9.672 74.1273 9.24C73.7113 8.792 73.1273 8.568 72.3753 8.568C71.6233 8.568 70.9753 8.904 70.4313 9.576C69.9033 10.248 69.6233 11.256 69.5913 12.6V18H66.7593V6.336H69.2313L69.5433 8.352ZM88.8148 6.336L91.1668 14.664L93.3988 6.984H95.9668L98.1988 14.688L100.575 6.336H103.407L99.5668 18H96.7828L94.6228 11.016L92.5108 18H89.7028L85.8388 6.336H88.8148ZM106.21 6.312H109.042V18H106.21V6.312ZM105.874 2.568C105.874 2.056 106.026 1.656 106.33 1.368C106.634 1.064 107.066 0.912 107.626 0.912C108.17 0.912 108.594 1.064 108.898 1.368C109.218 1.656 109.378 2.056 109.378 2.568C109.378 3.08 109.218 3.488 108.898 3.792C108.594 4.08 108.17 4.224 107.626 4.224C107.066 4.224 106.634 4.08 106.33 3.792C106.026 3.488 105.874 3.08 105.874 2.568ZM120.421 17.712C119.365 18.128 118.533 18.336 117.925 18.336C117.317 18.336 116.781 18.264 116.317 18.12C115.869 17.976 115.469 17.76 115.117 17.472C114.381 16.816 114.013 15.912 114.013 14.76V8.232H112.381V6.336H114.013V3.264H116.845V6.336H120.013V8.232H116.845V14.664C116.845 15.624 117.301 16.104 118.213 16.104C118.677 16.104 119.277 15.976 120.013 15.72L120.421 17.712ZM126.146 8.232C126.946 6.76 128.114 6.024 129.65 6.024C131.186 6.024 132.314 6.496 133.034 7.44C133.77 8.384 134.138 9.632 134.138 11.184V18H131.306V11.184C131.306 10.32 131.098 9.672 130.682 9.24C130.266 8.792 129.682 8.568 128.93 8.568C128.178 8.568 127.53 8.904 126.986 9.576C126.458 10.248 126.178 11.256 126.146 12.6V18H123.314V1.536H126.146V8.232ZM153.889 15.528C153.217 17.4 151.929 18.336 150.025 18.336C148.073 18.336 146.465 17.6 145.201 16.128C143.889 14.608 143.233 12.664 143.233 10.296C143.233 7.8 143.937 5.8 145.345 4.296C146.705 2.84 148.457 2.112 150.601 2.112C152.057 2.112 153.273 2.432 154.249 3.072C155.241 3.696 156.017 4.688 156.577 6.048L153.673 6.72C152.825 5.36 151.753 4.68 150.457 4.68C149.273 4.68 148.289 5.184 147.505 6.192C146.689 7.216 146.281 8.584 146.281 10.296C146.281 11.912 146.649 13.224 147.385 14.232C148.105 15.224 149.065 15.72 150.265 15.72C151.289 15.72 152.129 15.392 152.785 14.736C153.457 14.064 153.793 13.144 153.793 11.976V11.88L150.289 11.808V9.984H156.505V18H154.201L153.889 15.528ZM165.164 6.024C165.948 6.024 166.684 6.152 167.372 6.408C168.06 6.648 168.652 7.024 169.148 7.536C170.252 8.656 170.804 10.208 170.804 12.192C170.804 14.144 170.252 15.68 169.148 16.8C168.156 17.824 166.828 18.336 165.164 18.336C163.5 18.336 162.156 17.824 161.132 16.8C160.028 15.696 159.476 14.16 159.476 12.192C159.476 10.192 160.028 8.64 161.132 7.536C162.14 6.528 163.484 6.024 165.164 6.024ZM167.972 12.168C167.972 10.936 167.732 10.016 167.252 9.408C166.772 8.784 166.1 8.472 165.236 8.472C164.388 8.472 163.692 8.784 163.148 9.408C162.604 10.016 162.332 10.936 162.332 12.168C162.332 13.4 162.572 14.328 163.052 14.952C163.548 15.56 164.22 15.864 165.068 15.864C165.916 15.864 166.612 15.56 167.156 14.952C167.7 14.328 167.972 13.4 167.972 12.168ZM178.757 6.024C179.541 6.024 180.277 6.152 180.965 6.408C181.653 6.648 182.245 7.024 182.741 7.536C183.845 8.656 184.397 10.208 184.397 12.192C184.397 14.144 183.845 15.68 182.741 16.8C181.749 17.824 180.421 18.336 178.757 18.336C177.093 18.336 175.749 17.824 174.725 16.8C173.621 15.696 173.069 14.16 173.069 12.192C173.069 10.192 173.621 8.64 174.725 7.536C175.733 6.528 177.077 6.024 178.757 6.024ZM181.565 12.168C181.565 10.936 181.325 10.016 180.845 9.408C180.365 8.784 179.693 8.472 178.829 8.472C177.981 8.472 177.285 8.784 176.741 9.408C176.197 10.016 175.925 10.936 175.925 12.168C175.925 13.4 176.165 14.328 176.645 14.952C177.141 15.56 177.813 15.864 178.661 15.864C179.509 15.864 180.205 15.56 180.749 14.952C181.293 14.328 181.565 13.4 181.565 12.168ZM188.775 13.224C187.831 12.424 187.359 11.424 187.359 10.224C187.359 8.96 187.855 7.936 188.847 7.152C189.807 6.4 190.903 6.024 192.135 6.024C193.383 6.024 194.423 6.256 195.255 6.72C195.351 5.808 195.743 5.072 196.431 4.512C197.103 3.952 197.895 3.672 198.807 3.672L198.663 6.384C197.287 6.384 196.575 6.84 196.527 7.752C197.119 8.488 197.415 9.24 197.415 10.008C197.415 10.776 197.279 11.424 197.007 11.952C196.735 12.464 196.367 12.896 195.903 13.248C194.943 14.016 193.775 14.4 192.399 14.4C191.615 14.4 190.903 14.28 190.263 14.04C189.623 14.232 189.303 14.616 189.303 15.192C189.303 15.912 189.911 16.272 191.127 16.272H195.039C197.695 16.272 199.023 17.2 199.023 19.056C199.023 19.68 198.863 20.288 198.543 20.88C198.239 21.488 197.791 22.024 197.199 22.488C195.887 23.512 194.239 24.024 192.255 24.024C190.335 24.024 188.775 23.632 187.575 22.848C186.455 22.096 185.895 21.176 185.895 20.088C185.895 19.368 186.111 18.792 186.543 18.36C186.991 17.944 187.575 17.68 188.295 17.568C187.351 16.992 186.879 16.28 186.879 15.432C186.879 14.872 187.055 14.408 187.407 14.04C187.759 13.656 188.215 13.384 188.775 13.224ZM190.935 18.264C189.431 18.328 188.679 18.896 188.679 19.968C188.679 20.512 188.991 20.944 189.615 21.264C190.255 21.6 191.007 21.768 191.871 21.768C192.735 21.768 193.407 21.696 193.887 21.552C194.383 21.408 194.799 21.216 195.135 20.976C195.855 20.496 196.215 19.92 196.215 19.248C196.215 18.96 196.111 18.72 195.903 18.528C195.711 18.352 195.423 18.264 195.039 18.264H190.935ZM194.607 10.2C194.607 9.544 194.423 9.016 194.055 8.616C193.703 8.2 193.159 7.992 192.423 7.992C191.687 7.992 191.127 8.2 190.743 8.616C190.359 9.016 190.167 9.544 190.167 10.2C190.167 10.84 190.359 11.368 190.743 11.784C191.127 12.2 191.687 12.408 192.423 12.408C193.159 12.408 193.703 12.2 194.055 11.784C194.423 11.368 194.607 10.84 194.607 10.2ZM201.736 1.536H204.568V18H201.736V1.536ZM217.161 7.728C217.561 8.24 217.857 8.832 218.049 9.504C218.257 10.176 218.361 10.792 218.361 11.352C218.361 11.912 218.329 12.416 218.265 12.864H210.729C210.761 13.808 210.993 14.576 211.425 15.168C211.857 15.76 212.513 16.056 213.393 16.056C214.561 16.056 215.257 15.544 215.481 14.52H218.337C218.145 15.688 217.609 16.608 216.729 17.28C215.817 17.984 214.705 18.336 213.393 18.336C211.857 18.336 210.569 17.776 209.529 16.656C208.457 15.488 207.921 13.992 207.921 12.168C207.921 10.296 208.457 8.792 209.529 7.656C210.553 6.568 211.841 6.024 213.393 6.024C215.009 6.024 216.265 6.592 217.161 7.728ZM213.417 8.28C212.617 8.28 211.993 8.544 211.545 9.072C211.097 9.584 210.833 10.248 210.753 11.064H215.721C215.721 9.8 215.321 8.952 214.521 8.52C214.217 8.36 213.849 8.28 213.417 8.28Z" fill="#181827"/>
</svg>
