<svg width="251" height="25" viewBox="0 0 251 25" fill="none" xmlns="http://www.w3.org/2000/svg">
<path d="M9.73241 6.72C9.47641 5.36 8.51641 4.68 6.85241 4.68C6.03641 4.68 5.39641 4.848 4.93241 5.184C4.48441 5.504 4.26041 5.896 4.26041 6.36C4.26041 6.824 4.40441 7.192 4.69241 7.464C4.99641 7.72 5.46041 7.96 6.08441 8.184L9.46841 9.504C10.6204 9.952 11.5084 10.52 12.1324 11.208C12.7564 11.88 13.0684 12.728 13.0684 13.752C13.0684 15.16 12.5404 16.28 11.4844 17.112C10.4284 17.928 8.92441 18.336 6.97241 18.336C5.24441 18.336 3.84441 17.912 2.77241 17.064C1.57241 16.136 0.940406 14.824 0.876406 13.128H3.68441C3.68441 14.408 4.34841 15.216 5.67641 15.552C6.07641 15.664 6.60441 15.72 7.26041 15.72C7.91641 15.72 8.52441 15.56 9.08441 15.24C9.64441 14.904 9.92441 14.464 9.92441 13.92C9.92441 13.36 9.77241 12.936 9.46841 12.648C9.16441 12.344 8.66841 12.064 7.98041 11.808L4.88441 10.584C3.68441 10.12 2.76441 9.576 2.12441 8.952C1.48441 8.328 1.16441 7.464 1.16441 6.36C1.16441 5.064 1.66841 4.04 2.67641 3.288C3.70041 2.504 5.08441 2.112 6.82841 2.112C8.58841 2.112 9.94041 2.52 10.8844 3.336C11.8444 4.136 12.3964 5.264 12.5404 6.72H9.73241ZM17.0931 6.312H19.9251V18H17.0931V6.312ZM16.7571 2.568C16.7571 2.056 16.9091 1.656 17.2131 1.368C17.5171 1.064 17.9491 0.912 18.5091 0.912C19.0531 0.912 19.4771 1.064 19.7811 1.368C20.1011 1.656 20.2611 2.056 20.2611 2.568C20.2611 3.08 20.1011 3.488 19.7811 3.792C19.4771 4.08 19.0531 4.224 18.5091 4.224C17.9491 4.224 17.5171 4.08 17.2131 3.792C16.9091 3.488 16.7571 3.08 16.7571 2.568ZM25.7361 13.224C24.7921 12.424 24.3201 11.424 24.3201 10.224C24.3201 8.96 24.8161 7.936 25.8081 7.152C26.7681 6.4 27.8641 6.024 29.0961 6.024C30.3441 6.024 31.3841 6.256 32.2161 6.72C32.3121 5.808 32.7041 5.072 33.3921 4.512C34.0641 3.952 34.8561 3.672 35.7681 3.672L35.6241 6.384C34.2481 6.384 33.5361 6.84 33.4881 7.752C34.0801 8.488 34.3761 9.24 34.3761 10.008C34.3761 10.776 34.2401 11.424 33.9681 11.952C33.6961 12.464 33.3281 12.896 32.8641 13.248C31.9041 14.016 30.7361 14.4 29.3601 14.4C28.5761 14.4 27.8641 14.28 27.2241 14.04C26.5841 14.232 26.2641 14.616 26.2641 15.192C26.2641 15.912 26.8721 16.272 28.0881 16.272H32.0001C34.6561 16.272 35.9841 17.2 35.9841 19.056C35.9841 19.68 35.8241 20.288 35.5041 20.88C35.2001 21.488 34.7521 22.024 34.1601 22.488C32.8481 23.512 31.2001 24.024 29.2161 24.024C27.2961 24.024 25.7361 23.632 24.5361 22.848C23.4161 22.096 22.8561 21.176 22.8561 20.088C22.8561 19.368 23.0721 18.792 23.5041 18.36C23.9521 17.944 24.5361 17.68 25.2561 17.568C24.3121 16.992 23.8401 16.28 23.8401 15.432C23.8401 14.872 24.0161 14.408 24.3681 14.04C24.7201 13.656 25.1761 13.384 25.7361 13.224ZM27.8961 18.264C26.3921 18.328 25.6401 18.896 25.6401 19.968C25.6401 20.512 25.9521 20.944 26.5761 21.264C27.2161 21.6 27.9681 21.768 28.8321 21.768C29.6961 21.768 30.3681 21.696 30.8481 21.552C31.3441 21.408 31.7601 21.216 32.0961 20.976C32.8161 20.496 33.1761 19.92 33.1761 19.248C33.1761 18.96 33.0721 18.72 32.8641 18.528C32.6721 18.352 32.3841 18.264 32.0001 18.264H27.8961ZM31.5681 10.2C31.5681 9.544 31.3841 9.016 31.0161 8.616C30.6641 8.2 30.1201 7.992 29.3841 7.992C28.6481 7.992 28.0881 8.2 27.7041 8.616C27.3201 9.016 27.1281 9.544 27.1281 10.2C27.1281 10.84 27.3201 11.368 27.7041 11.784C28.0881 12.2 28.6481 12.408 29.3841 12.408C30.1201 12.408 30.6641 12.2 31.0161 11.784C31.3841 11.368 31.5681 10.84 31.5681 10.2ZM41.4808 8.352C42.2488 6.8 43.4808 6.024 45.1768 6.024C46.6168 6.024 47.6968 6.496 48.4168 7.44C49.1528 8.384 49.5208 9.632 49.5208 11.184V18H46.6888V11.184C46.6888 10.32 46.4808 9.672 46.0648 9.24C45.6488 8.792 45.0648 8.568 44.3128 8.568C43.5608 8.568 42.9128 8.904 42.3688 9.576C41.8408 10.248 41.5608 11.256 41.5288 12.6V18H38.6968V6.336H41.1688L41.4808 8.352ZM59.9603 6.312H62.7923V18H59.9603V6.312ZM59.6243 2.568C59.6243 2.056 59.7763 1.656 60.0803 1.368C60.3843 1.064 60.8163 0.912 61.3763 0.912C61.9203 0.912 62.3443 1.064 62.6483 1.368C62.9683 1.656 63.1283 2.056 63.1283 2.568C63.1283 3.08 62.9683 3.488 62.6483 3.792C62.3443 4.08 61.9203 4.224 61.3763 4.224C60.8163 4.224 60.3843 4.08 60.0803 3.792C59.7763 3.488 59.6243 3.08 59.6243 2.568ZM70.3793 8.352C71.1473 6.8 72.3793 6.024 74.0753 6.024C75.5153 6.024 76.5953 6.496 77.3153 7.44C78.0513 8.384 78.4193 9.632 78.4193 11.184V18H75.5873V11.184C75.5873 10.32 75.3793 9.672 74.9633 9.24C74.5473 8.792 73.9633 8.568 73.2113 8.568C72.4593 8.568 71.8113 8.904 71.2673 9.576C70.7393 10.248 70.4593 11.256 70.4273 12.6V18H67.5953V6.336H70.0673L70.3793 8.352ZM89.6507 6.336L92.0027 14.664L94.2347 6.984H96.8027L99.0347 14.688L101.411 6.336H104.243L100.403 18H97.6187L95.4587 11.016L93.3467 18H90.5387L86.6747 6.336H89.6507ZM107.046 6.312H109.878V18H107.046V6.312ZM106.71 2.568C106.71 2.056 106.862 1.656 107.166 1.368C107.47 1.064 107.902 0.912 108.462 0.912C109.006 0.912 109.43 1.064 109.734 1.368C110.054 1.656 110.214 2.056 110.214 2.568C110.214 3.08 110.054 3.488 109.734 3.792C109.43 4.08 109.006 4.224 108.462 4.224C107.902 4.224 107.47 4.08 107.166 3.792C106.862 3.488 106.71 3.08 106.71 2.568ZM121.257 17.712C120.201 18.128 119.369 18.336 118.761 18.336C118.153 18.336 117.617 18.264 117.153 18.12C116.705 17.976 116.305 17.76 115.953 17.472C115.217 16.816 114.849 15.912 114.849 14.76V8.232H113.217V6.336H114.849V3.264H117.681V6.336H120.849V8.232H117.681V14.664C117.681 15.624 118.137 16.104 119.049 16.104C119.513 16.104 120.113 15.976 120.849 15.72L121.257 17.712ZM126.982 8.232C127.782 6.76 128.95 6.024 130.486 6.024C132.022 6.024 133.15 6.496 133.87 7.44C134.606 8.384 134.974 9.632 134.974 11.184V18H132.142V11.184C132.142 10.32 131.934 9.672 131.518 9.24C131.102 8.792 130.518 8.568 129.766 8.568C129.014 8.568 128.366 8.904 127.822 9.576C127.294 10.248 127.014 11.256 126.982 12.6V18H124.15V1.536H126.982V8.232ZM145.173 2.424H154.989V4.872H148.005V8.976H154.389V11.4H148.005V18H145.173V2.424ZM161.552 11.184C162.48 11.184 163.552 11.336 164.768 11.64V10.488C164.768 9.672 164.6 9.072 164.264 8.688C163.944 8.288 163.408 8.088 162.656 8.088C161.92 8.088 161.352 8.24 160.952 8.544C160.552 8.832 160.352 9.248 160.352 9.792H157.256C157.256 8.464 157.72 7.504 158.648 6.912C159.592 6.32 160.904 6.024 162.584 6.024C164.984 6.024 166.536 6.864 167.24 8.544C167.48 9.12 167.6 9.8 167.6 10.584V18H165.128L164.912 16.44C164.16 17.704 163.008 18.336 161.456 18.336C159.952 18.336 158.784 17.968 157.952 17.232C157.184 16.528 156.8 15.64 156.8 14.568C156.8 13.48 157.224 12.648 158.072 12.072C158.92 11.48 160.08 11.184 161.552 11.184ZM164.768 13.44C163.824 13.184 162.944 13.056 162.128 13.056C160.592 13.056 159.824 13.568 159.824 14.592C159.824 15.024 160 15.4 160.352 15.72C160.704 16.024 161.264 16.176 162.032 16.176C162.816 16.176 163.456 15.92 163.952 15.408C164.464 14.88 164.736 14.224 164.768 13.44ZM176.168 6.024C176.904 6.024 177.56 6.152 178.136 6.408C178.728 6.648 179.224 6.968 179.624 7.368C180.424 8.136 180.896 9.104 181.04 10.272L178.184 10.344C178.056 9.832 177.816 9.408 177.464 9.072C177.128 8.736 176.736 8.568 176.288 8.568C175.84 8.568 175.456 8.64 175.136 8.784C174.816 8.912 174.536 9.12 174.296 9.408C173.752 10.08 173.48 11.008 173.48 12.192C173.48 13.376 173.736 14.272 174.248 14.88C174.76 15.472 175.376 15.768 176.096 15.768C176.832 15.768 177.36 15.6 177.68 15.264C178.016 14.912 178.184 14.44 178.184 13.848H181.04C181.04 15.128 180.616 16.192 179.768 17.04C178.904 17.904 177.696 18.336 176.144 18.336C174.608 18.336 173.32 17.776 172.28 16.656C171.176 15.456 170.624 13.96 170.624 12.168C170.624 10.28 171.176 8.768 172.28 7.632C173.32 6.56 174.616 6.024 176.168 6.024ZM192.591 7.728C192.991 8.24 193.287 8.832 193.479 9.504C193.687 10.176 193.791 10.792 193.791 11.352C193.791 11.912 193.759 12.416 193.695 12.864H186.159C186.191 13.808 186.423 14.576 186.855 15.168C187.287 15.76 187.943 16.056 188.823 16.056C189.991 16.056 190.687 15.544 190.911 14.52H193.767C193.575 15.688 193.039 16.608 192.159 17.28C191.247 17.984 190.135 18.336 188.823 18.336C187.287 18.336 185.999 17.776 184.959 16.656C183.887 15.488 183.351 13.992 183.351 12.168C183.351 10.296 183.887 8.792 184.959 7.656C185.983 6.568 187.271 6.024 188.823 6.024C190.439 6.024 191.695 6.592 192.591 7.728ZM188.847 8.28C188.047 8.28 187.423 8.544 186.975 9.072C186.527 9.584 186.263 10.248 186.183 11.064H191.151C191.151 9.8 190.751 8.952 189.951 8.52C189.647 8.36 189.279 8.28 188.847 8.28ZM206.973 7.704C207.965 8.824 208.461 10.296 208.461 12.12C208.461 13.944 207.941 15.448 206.901 16.632C205.893 17.768 204.637 18.336 203.133 18.336C202.413 18.336 201.749 18.144 201.141 17.76C200.549 17.376 200.077 16.784 199.725 15.984L199.029 18H197.181V1.536H200.013V7.8C200.749 6.616 201.845 6.024 203.301 6.024C204.773 6.024 205.997 6.584 206.973 7.704ZM200.013 11.448V12.984C200.045 13.8 200.341 14.472 200.901 15C201.429 15.512 202.069 15.768 202.821 15.768C203.589 15.768 204.245 15.44 204.789 14.784C205.333 14.112 205.605 13.232 205.605 12.144C205.605 11.056 205.333 10.192 204.789 9.552C204.261 8.896 203.597 8.568 202.797 8.568C201.997 8.568 201.333 8.832 200.805 9.36C200.277 9.888 200.013 10.584 200.013 11.448ZM216.507 6.024C217.291 6.024 218.027 6.152 218.715 6.408C219.403 6.648 219.995 7.024 220.491 7.536C221.595 8.656 222.147 10.208 222.147 12.192C222.147 14.144 221.595 15.68 220.491 16.8C219.499 17.824 218.171 18.336 216.507 18.336C214.843 18.336 213.499 17.824 212.475 16.8C211.371 15.696 210.819 14.16 210.819 12.192C210.819 10.192 211.371 8.64 212.475 7.536C213.483 6.528 214.827 6.024 216.507 6.024ZM219.315 12.168C219.315 10.936 219.075 10.016 218.595 9.408C218.115 8.784 217.443 8.472 216.579 8.472C215.731 8.472 215.035 8.784 214.491 9.408C213.947 10.016 213.675 10.936 213.675 12.168C213.675 13.4 213.915 14.328 214.395 14.952C214.891 15.56 215.563 15.864 216.411 15.864C217.259 15.864 217.955 15.56 218.499 14.952C219.043 14.328 219.315 13.4 219.315 12.168ZM230.101 6.024C230.885 6.024 231.621 6.152 232.309 6.408C232.997 6.648 233.589 7.024 234.085 7.536C235.189 8.656 235.741 10.208 235.741 12.192C235.741 14.144 235.189 15.68 234.085 16.8C233.093 17.824 231.765 18.336 230.101 18.336C228.437 18.336 227.093 17.824 226.069 16.8C224.965 15.696 224.413 14.16 224.413 12.192C224.413 10.192 224.965 8.64 226.069 7.536C227.077 6.528 228.421 6.024 230.101 6.024ZM232.909 12.168C232.909 10.936 232.669 10.016 232.189 9.408C231.709 8.784 231.037 8.472 230.173 8.472C229.325 8.472 228.629 8.784 228.085 9.408C227.541 10.016 227.269 10.936 227.269 12.168C227.269 13.4 227.509 14.328 227.989 14.952C228.485 15.56 229.157 15.864 230.005 15.864C230.853 15.864 231.549 15.56 232.093 14.952C232.637 14.328 232.909 13.4 232.909 12.168ZM243.239 12.312L241.943 13.392V18H239.111V1.536H241.943V10.44L246.551 6.336H250.391L245.231 10.656L250.679 18H247.223L243.239 12.312Z" fill="#181827"/>
</svg>
