<svg width="184" height="43" viewBox="0 0 184 43" fill="none" xmlns="http://www.w3.org/2000/svg">
<path d="M4.86 1.02H7.82L12.08 14H9.58L8.68 11.2H3.86L2.94 14H0.44L4.86 1.02ZM4.46 9.42H8.1L6.3 3.84L4.46 9.42ZM14.3795 0.279999H16.7395V14H14.3795V0.279999ZM29.0938 6.12C29.7204 4.72 30.8204 4.02 32.3938 4.02C33.5538 4.02 34.4538 4.41333 35.0938 5.2C35.7071 5.94667 36.0138 6.98667 36.0138 8.32V14H33.6338V8.32C33.6338 7.6 33.4604 7.06 33.1138 6.7C32.7671 6.32667 32.2804 6.14 31.6538 6.14C31.0271 6.14 30.5138 6.41333 30.1138 6.96C29.7138 7.50667 29.5004 8.33333 29.4738 9.44V14H27.1138V8.32C27.1138 7.6 26.9404 7.06 26.5938 6.7C26.2471 6.32667 25.7604 6.14 25.1338 6.14C24.5071 6.14 23.9671 6.42 23.5138 6.98C23.0738 7.54 22.8404 8.38 22.8138 9.5V14H20.4538V4.28H22.5138L22.7738 5.96C23.4138 4.66667 24.4404 4.02 25.8538 4.02C26.6671 4.02 27.3404 4.20667 27.8738 4.58C28.4204 4.95333 28.8271 5.46667 29.0938 6.12ZM43.2581 4.02C43.9115 4.02 44.5248 4.12667 45.0981 4.34C45.6715 4.54 46.1648 4.85333 46.5781 5.28C47.4981 6.21333 47.9581 7.50667 47.9581 9.16C47.9581 10.7867 47.4981 12.0667 46.5781 13C45.7515 13.8533 44.6448 14.28 43.2581 14.28C41.8715 14.28 40.7515 13.8533 39.8981 13C38.9781 12.08 38.5181 10.8 38.5181 9.16C38.5181 7.49333 38.9781 6.2 39.8981 5.28C40.7381 4.44 41.8581 4.02 43.2581 4.02ZM45.5981 9.14C45.5981 8.11333 45.3981 7.34667 44.9981 6.84C44.5981 6.32 44.0381 6.06 43.3181 6.06C42.6115 6.06 42.0315 6.32 41.5781 6.84C41.1248 7.34667 40.8981 8.11333 40.8981 9.14C40.8981 10.1667 41.0981 10.94 41.4981 11.46C41.9115 11.9667 42.4715 12.22 43.1781 12.22C43.8848 12.22 44.4648 11.9667 44.9181 11.46C45.3715 10.94 45.5981 10.1667 45.5981 9.14ZM52.0863 11.04C52.1129 11.96 52.7863 12.42 54.1063 12.42C54.6129 12.42 55.0263 12.3133 55.3463 12.1C55.6796 11.8733 55.8463 11.6133 55.8463 11.32C55.8463 11.0267 55.7463 10.8 55.5463 10.64C55.3463 10.48 55.0329 10.3333 54.6063 10.2L52.4863 9.44C50.9129 8.89333 50.1263 8 50.1263 6.76C50.1263 5.93333 50.4929 5.27333 51.2263 4.78C51.9729 4.27333 52.9663 4.02 54.2063 4.02C55.4596 4.02 56.4196 4.29333 57.0863 4.84C57.7663 5.38667 58.1196 6.07333 58.1463 6.9H55.9263C55.8996 6.58 55.7463 6.32667 55.4663 6.14C55.1863 5.95333 54.7863 5.86 54.2663 5.86C53.7463 5.86 53.3396 5.96667 53.0463 6.18C52.7663 6.38 52.6263 6.61333 52.6263 6.88C52.6263 7.34667 53.0196 7.69333 53.8063 7.92L56.1063 8.78C56.8663 9.03333 57.4463 9.36 57.8463 9.76C58.2596 10.1467 58.4663 10.6533 58.4663 11.28C58.4663 12.08 58.0863 12.7733 57.3263 13.36C56.5396 13.9733 55.4996 14.28 54.2063 14.28C52.9129 14.28 51.8729 14 51.0863 13.44C50.2996 12.8667 49.8996 12.0667 49.8863 11.04H52.0863ZM66.7931 13.76C65.9131 14.1067 65.2198 14.28 64.7131 14.28C64.2065 14.28 63.7598 14.22 63.3731 14.1C62.9998 13.98 62.6665 13.8 62.3731 13.56C61.7598 13.0133 61.4531 12.26 61.4531 11.3V5.86H60.0931V4.28H61.4531V1.72H63.8131V4.28H66.4531V5.86H63.8131V11.22C63.8131 12.02 64.1931 12.42 64.9531 12.42C65.3398 12.42 65.8398 12.3133 66.4531 12.1L66.7931 13.76ZM80.6023 12.5C80.0023 13.6867 79.0823 14.28 77.8423 14.28C76.6023 14.28 75.5623 13.8067 74.7223 12.86C73.8557 11.8733 73.4223 10.62 73.4223 9.1C73.4223 7.58 73.8357 6.34667 74.6623 5.4C75.4757 4.48 76.489 4.02 77.7023 4.02C78.9157 4.02 79.829 4.50667 80.4423 5.48V0.279999H82.8223V14H80.8823L80.6023 12.5ZM78.1423 6.14C77.4757 6.14 76.9157 6.41333 76.4623 6.96C76.0223 7.49333 75.8023 8.21333 75.8023 9.12C75.8023 10.0267 76.029 10.76 76.4823 11.32C76.9357 11.8667 77.509 12.14 78.2023 12.14C78.7757 12.14 79.289 11.9133 79.7423 11.46C80.209 10.9933 80.4423 10.4067 80.4423 9.7V8.44C80.4157 7.74667 80.1823 7.18 79.7423 6.74C79.3423 6.34 78.809 6.14 78.1423 6.14ZM90.3675 4.02C91.0208 4.02 91.6342 4.12667 92.2075 4.34C92.7808 4.54 93.2742 4.85333 93.6875 5.28C94.6075 6.21333 95.0675 7.50667 95.0675 9.16C95.0675 10.7867 94.6075 12.0667 93.6875 13C92.8608 13.8533 91.7542 14.28 90.3675 14.28C88.9808 14.28 87.8608 13.8533 87.0075 13C86.0875 12.08 85.6275 10.8 85.6275 9.16C85.6275 7.49333 86.0875 6.2 87.0075 5.28C87.8475 4.44 88.9675 4.02 90.3675 4.02ZM92.7075 9.14C92.7075 8.11333 92.5075 7.34667 92.1075 6.84C91.7075 6.32 91.1475 6.06 90.4275 6.06C89.7208 6.06 89.1408 6.32 88.6875 6.84C88.2342 7.34667 88.0075 8.11333 88.0075 9.14C88.0075 10.1667 88.2075 10.94 88.6075 11.46C89.0208 11.9667 89.5808 12.22 90.2875 12.22C90.9942 12.22 91.5742 11.9667 92.0275 11.46C92.4808 10.94 92.7075 10.1667 92.7075 9.14ZM100.196 5.96C100.836 4.66667 101.862 4.02 103.276 4.02C104.476 4.02 105.376 4.41333 105.976 5.2C106.589 5.98667 106.896 7.02667 106.896 8.32V14H104.536V8.32C104.536 7.6 104.362 7.06 104.016 6.7C103.669 6.32667 103.182 6.14 102.556 6.14C101.929 6.14 101.389 6.42 100.936 6.98C100.496 7.54 100.262 8.38 100.236 9.5V14H97.8756V4.28H99.9356L100.196 5.96ZM117.117 5.44C117.45 5.86667 117.697 6.36 117.857 6.92C118.03 7.48 118.117 7.99333 118.117 8.46C118.117 8.92667 118.09 9.34667 118.037 9.72H111.757C111.783 10.5067 111.977 11.1467 112.337 11.64C112.697 12.1333 113.243 12.38 113.977 12.38C114.95 12.38 115.53 11.9533 115.717 11.1H118.097C117.937 12.0733 117.49 12.84 116.757 13.4C115.997 13.9867 115.07 14.28 113.977 14.28C112.697 14.28 111.623 13.8133 110.757 12.88C109.863 11.9067 109.417 10.66 109.417 9.14C109.417 7.58 109.863 6.32667 110.757 5.38C111.61 4.47333 112.683 4.02 113.977 4.02C115.323 4.02 116.37 4.49333 117.117 5.44ZM113.997 5.9C113.33 5.9 112.81 6.12 112.437 6.56C112.063 6.98667 111.843 7.54 111.777 8.22H115.917C115.917 7.16667 115.583 6.46 114.917 6.1C114.663 5.96667 114.357 5.9 113.997 5.9ZM120.802 0.719999H123.362L123.082 9.62H121.062L120.802 0.719999ZM122.082 14.18C121.602 14.18 121.209 14.0333 120.902 13.74C120.595 13.4467 120.442 13.0733 120.442 12.62C120.442 12.1667 120.595 11.7867 120.902 11.48C121.209 11.1733 121.602 11.02 122.082 11.02C122.562 11.02 122.962 11.1733 123.282 11.48C123.602 11.7867 123.762 12.1667 123.762 12.62C123.762 13.0733 123.602 13.4467 123.282 13.74C122.962 14.0333 122.562 14.18 122.082 14.18Z" fill="#7075A5"/>
<path d="M3.04 24.02L5.9 33.88L8.68 24.88H10.28L13.22 33.92L16.26 24.02H18.92L14.46 37H11.98L9.54 29.68L7.12 37H4.64L0.4 24.02H3.04ZM23.5364 28.86C24.2031 27.6333 25.1764 27.02 26.4564 27.02C27.7364 27.02 28.6764 27.4133 29.2764 28.2C29.8897 28.9867 30.1964 30.0267 30.1964 31.32V37H27.8364V31.32C27.8364 30.6 27.6631 30.06 27.3164 29.7C26.9697 29.3267 26.4831 29.14 25.8564 29.14C25.2297 29.14 24.6897 29.42 24.2364 29.98C23.7964 30.54 23.5631 31.38 23.5364 32.5V37H21.1764V23.28H23.5364V28.86ZM36.8373 31.32C37.6107 31.32 38.504 31.4467 39.5173 31.7V30.74C39.5173 30.06 39.3773 29.56 39.0973 29.24C38.8307 28.9067 38.384 28.74 37.7573 28.74C37.144 28.74 36.6707 28.8667 36.3373 29.12C36.004 29.36 35.8373 29.7067 35.8373 30.16H33.2573C33.2573 29.0533 33.644 28.2533 34.4173 27.76C35.204 27.2667 36.2973 27.02 37.6973 27.02C39.6973 27.02 40.9907 27.72 41.5773 29.12C41.7773 29.6 41.8773 30.1667 41.8773 30.82V37H39.8173L39.6373 35.7C39.0107 36.7533 38.0507 37.28 36.7573 37.28C35.504 37.28 34.5307 36.9733 33.8373 36.36C33.1973 35.7733 32.8773 35.0333 32.8773 34.14C32.8773 33.2333 33.2307 32.54 33.9373 32.06C34.644 31.5667 35.6107 31.32 36.8373 31.32ZM39.5173 33.2C38.7307 32.9867 37.9973 32.88 37.3173 32.88C36.0373 32.88 35.3973 33.3067 35.3973 34.16C35.3973 34.52 35.544 34.8333 35.8373 35.1C36.1307 35.3533 36.5973 35.48 37.2373 35.48C37.8907 35.48 38.424 35.2667 38.8373 34.84C39.264 34.4 39.4907 33.8533 39.5173 33.2ZM50.797 36.76C49.917 37.1067 49.2237 37.28 48.717 37.28C48.2104 37.28 47.7637 37.22 47.377 37.1C47.0037 36.98 46.6704 36.8 46.377 36.56C45.7637 36.0133 45.457 35.26 45.457 34.3V28.86H44.097V27.28H45.457V24.72H47.817V27.28H50.457V28.86H47.817V34.22C47.817 35.02 48.197 35.42 48.957 35.42C49.3437 35.42 49.8437 35.3133 50.457 35.1L50.797 36.76ZM52.4277 25.38C52.4277 24.98 52.581 24.6467 52.8877 24.38C53.1943 24.1 53.6077 23.96 54.1277 23.96C54.661 23.96 55.0943 24.1733 55.4277 24.6C55.7743 25.0133 55.9477 25.5333 55.9477 26.16C55.9477 26.7733 55.7277 27.38 55.2877 27.98C54.861 28.58 54.2877 29.06 53.5677 29.42L51.9277 28.52C52.9543 28 53.5743 27.4133 53.7877 26.76C53.401 26.6933 53.0743 26.5467 52.8077 26.32C52.5543 26.0933 52.4277 25.78 52.4277 25.38ZM59.9573 34.04C59.984 34.96 60.6573 35.42 61.9773 35.42C62.484 35.42 62.8973 35.3133 63.2173 35.1C63.5507 34.8733 63.7173 34.6133 63.7173 34.32C63.7173 34.0267 63.6173 33.8 63.4173 33.64C63.2173 33.48 62.904 33.3333 62.4773 33.2L60.3573 32.44C58.784 31.8933 57.9973 31 57.9973 29.76C57.9973 28.9333 58.364 28.2733 59.0973 27.78C59.844 27.2733 60.8373 27.02 62.0773 27.02C63.3307 27.02 64.2907 27.2933 64.9573 27.84C65.6373 28.3867 65.9907 29.0733 66.0173 29.9H63.7973C63.7707 29.58 63.6173 29.3267 63.3373 29.14C63.0573 28.9533 62.6573 28.86 62.1373 28.86C61.6173 28.86 61.2107 28.9667 60.9173 29.18C60.6373 29.38 60.4973 29.6133 60.4973 29.88C60.4973 30.3467 60.8907 30.6933 61.6773 30.92L63.9773 31.78C64.7373 32.0333 65.3173 32.36 65.7173 32.76C66.1307 33.1467 66.3373 33.6533 66.3373 34.28C66.3373 35.08 65.9573 35.7733 65.1973 36.36C64.4107 36.9733 63.3707 37.28 62.0773 37.28C60.784 37.28 59.744 37 58.9573 36.44C58.1707 35.8667 57.7707 35.0667 57.7573 34.04H59.9573ZM75.4428 27.28L77.7828 34.28L79.8228 27.28H82.2228L78.5028 38.76C78.1161 39.92 77.6428 40.7533 77.0828 41.26C76.5361 41.7667 75.8361 42.02 74.9828 42.02C74.1161 42.02 73.2495 41.8067 72.3828 41.38V39.3C73.0761 39.74 73.7761 39.96 74.4828 39.96C74.9495 39.96 75.3295 39.7733 75.6228 39.4C75.9295 39.0267 76.1761 38.54 76.3628 37.94L76.6628 37L72.7628 27.28H75.4428ZM88.1409 27.02C88.7943 27.02 89.4076 27.1267 89.9809 27.34C90.5543 27.54 91.0476 27.8533 91.4609 28.28C92.3809 29.2133 92.8409 30.5067 92.8409 32.16C92.8409 33.7867 92.3809 35.0667 91.4609 36C90.6343 36.8533 89.5276 37.28 88.1409 37.28C86.7543 37.28 85.6343 36.8533 84.7809 36C83.8609 35.08 83.4009 33.8 83.4009 32.16C83.4009 30.4933 83.8609 29.2 84.7809 28.28C85.6209 27.44 86.7409 27.02 88.1409 27.02ZM90.4809 32.14C90.4809 31.1133 90.2809 30.3467 89.8809 29.84C89.4809 29.32 88.9209 29.06 88.2009 29.06C87.4943 29.06 86.9143 29.32 86.4609 29.84C86.0076 30.3467 85.7809 31.1133 85.7809 32.14C85.7809 33.1667 85.9809 33.94 86.3809 34.46C86.7943 34.9667 87.3543 35.22 88.0609 35.22C88.7676 35.22 89.3476 34.9667 89.8009 34.46C90.2543 33.94 90.4809 33.1667 90.4809 32.14ZM102.109 35.24C101.496 36.5333 100.509 37.18 99.1491 37.18C97.4291 37.18 96.2957 36.5067 95.7491 35.16C95.5491 34.6933 95.4491 34.1267 95.4491 33.46V27.26H97.8091V33.22C97.8091 33.86 97.9624 34.34 98.2691 34.66C98.5757 34.9667 98.9491 35.12 99.3891 35.12C99.8424 35.12 100.222 35.06 100.529 34.94C100.836 34.8067 101.102 34.6133 101.329 34.36C101.822 33.7867 102.082 33.02 102.109 32.06V27.26H104.469V37H102.109V35.24ZM110.548 29.2C111.135 27.8 112.015 27.1 113.188 27.1C113.415 27.1 113.701 27.1467 114.048 27.24L114.008 29.6C113.635 29.52 113.268 29.48 112.908 29.48C111.335 29.48 110.548 30.5667 110.548 32.74V37H108.188V27.26H110.548V29.2ZM128.347 28.44C128.68 28.8667 128.927 29.36 129.087 29.92C129.26 30.48 129.347 30.9933 129.347 31.46C129.347 31.9267 129.32 32.3467 129.267 32.72H122.987C123.014 33.5067 123.207 34.1467 123.567 34.64C123.927 35.1333 124.474 35.38 125.207 35.38C126.18 35.38 126.76 34.9533 126.947 34.1H129.327C129.167 35.0733 128.72 35.84 127.987 36.4C127.227 36.9867 126.3 37.28 125.207 37.28C123.927 37.28 122.854 36.8133 121.987 35.88C121.094 34.9067 120.647 33.66 120.647 32.14C120.647 30.58 121.094 29.3267 121.987 28.38C122.84 27.4733 123.914 27.02 125.207 27.02C126.554 27.02 127.6 27.4933 128.347 28.44ZM125.227 28.9C124.56 28.9 124.04 29.12 123.667 29.56C123.294 29.9867 123.074 30.54 123.007 31.22H127.147C127.147 30.1667 126.814 29.46 126.147 29.1C125.894 28.9667 125.587 28.9 125.227 28.9ZM140.813 29.12C141.439 27.72 142.539 27.02 144.113 27.02C145.273 27.02 146.173 27.4133 146.813 28.2C147.426 28.9467 147.733 29.9867 147.733 31.32V37H145.353V31.32C145.353 30.6 145.179 30.06 144.833 29.7C144.486 29.3267 143.999 29.14 143.373 29.14C142.746 29.14 142.233 29.4133 141.833 29.96C141.433 30.5067 141.219 31.3333 141.193 32.44V37H138.833V31.32C138.833 30.6 138.659 30.06 138.313 29.7C137.966 29.3267 137.479 29.14 136.853 29.14C136.226 29.14 135.686 29.42 135.233 29.98C134.793 30.54 134.559 31.38 134.533 32.5V37H132.173V27.28H134.233L134.493 28.96C135.133 27.6667 136.159 27.02 137.573 27.02C138.386 27.02 139.059 27.2067 139.593 27.58C140.139 27.9533 140.546 28.4667 140.813 29.12ZM154.357 31.32C155.13 31.32 156.024 31.4467 157.037 31.7V30.74C157.037 30.06 156.897 29.56 156.617 29.24C156.35 28.9067 155.904 28.74 155.277 28.74C154.664 28.74 154.19 28.8667 153.857 29.12C153.524 29.36 153.357 29.7067 153.357 30.16H150.777C150.777 29.0533 151.164 28.2533 151.937 27.76C152.724 27.2667 153.817 27.02 155.217 27.02C157.217 27.02 158.51 27.72 159.097 29.12C159.297 29.6 159.397 30.1667 159.397 30.82V37H157.337L157.157 35.7C156.53 36.7533 155.57 37.28 154.277 37.28C153.024 37.28 152.05 36.9733 151.357 36.36C150.717 35.7733 150.397 35.0333 150.397 34.14C150.397 33.2333 150.75 32.54 151.457 32.06C152.164 31.5667 153.13 31.32 154.357 31.32ZM157.037 33.2C156.25 32.9867 155.517 32.88 154.837 32.88C153.557 32.88 152.917 33.3067 152.917 34.16C152.917 34.52 153.064 34.8333 153.357 35.1C153.65 35.3533 154.117 35.48 154.757 35.48C155.41 35.48 155.944 35.2667 156.357 34.84C156.784 34.4 157.01 33.8533 157.037 33.2ZM163.037 27.26H165.397V37H163.037V27.26ZM162.757 24.14C162.757 23.7133 162.883 23.38 163.137 23.14C163.39 22.8867 163.75 22.76 164.217 22.76C164.67 22.76 165.023 22.8867 165.277 23.14C165.543 23.38 165.677 23.7133 165.677 24.14C165.677 24.5667 165.543 24.9067 165.277 25.16C165.023 25.4 164.67 25.52 164.217 25.52C163.75 25.52 163.39 25.4 163.137 25.16C162.883 24.9067 162.757 24.5667 162.757 24.14ZM169.399 23.28H171.759V37H169.399V23.28ZM183.313 27.38C183.313 28.0867 183.14 28.68 182.793 29.16C182.447 29.6267 181.9 30.0467 181.153 30.42C180.527 30.74 180.113 31.0133 179.913 31.24C179.727 31.4667 179.607 31.68 179.553 31.88C179.5 32.0667 179.473 32.2867 179.473 32.54V33.12H177.113V32.32C177.113 31.12 177.473 30.2667 178.193 29.76C178.447 29.5733 178.82 29.3533 179.313 29.1C179.807 28.8467 180.16 28.5933 180.373 28.34C180.6 28.0733 180.713 27.74 180.713 27.34C180.713 26.9267 180.547 26.5867 180.213 26.32C179.88 26.04 179.387 25.9 178.733 25.9C178.08 25.9 177.567 26.06 177.193 26.38C176.82 26.6867 176.607 27.0933 176.553 27.6H174.093C174.16 26.44 174.587 25.5133 175.373 24.82C176.16 24.1133 177.26 23.76 178.673 23.76C180.1 23.76 181.227 24.1067 182.053 24.8C182.893 25.4933 183.313 26.3533 183.313 27.38ZM176.713 35.7C176.713 35.2467 176.86 34.8733 177.153 34.58C177.46 34.2867 177.853 34.14 178.333 34.14C178.827 34.14 179.233 34.2867 179.553 34.58C179.873 34.8733 180.033 35.2467 180.033 35.7C180.033 36.1533 179.873 36.5333 179.553 36.84C179.233 37.1333 178.827 37.28 178.333 37.28C177.853 37.28 177.46 37.1333 177.153 36.84C176.86 36.5333 176.713 36.1533 176.713 35.7Z" fill="#181827"/>
</svg>
