<svg width="196" height="39" viewBox="0 0 196 39" fill="none" xmlns="http://www.w3.org/2000/svg">
<path d="M4.86 2.02H7.82L12.08 15H9.58L8.68 12.2H3.86L2.94 15H0.44L4.86 2.02ZM4.46 10.42H8.1L6.3 4.84L4.46 10.42ZM16.7395 7.2C17.3262 5.8 18.2062 5.1 19.3795 5.1C19.6062 5.1 19.8929 5.14667 20.2395 5.24L20.1995 7.6C19.8262 7.52 19.4595 7.48 19.0995 7.48C17.5262 7.48 16.7395 8.56667 16.7395 10.74V15H14.3795V5.26H16.7395V7.2ZM29.4798 6.44C29.8132 6.86667 30.0598 7.36 30.2198 7.92C30.3932 8.48 30.4798 8.99333 30.4798 9.46C30.4798 9.92667 30.4532 10.3467 30.3998 10.72H24.1198C24.1465 11.5067 24.3398 12.1467 24.6998 12.64C25.0598 13.1333 25.6065 13.38 26.3398 13.38C27.3132 13.38 27.8932 12.9533 28.0798 12.1H30.4598C30.2998 13.0733 29.8532 13.84 29.1198 14.4C28.3598 14.9867 27.4332 15.28 26.3398 15.28C25.0598 15.28 23.9865 14.8133 23.1198 13.88C22.2265 12.9067 21.7798 11.66 21.7798 10.14C21.7798 8.58 22.2265 7.32667 23.1198 6.38C23.9732 5.47333 25.0465 5.02 26.3398 5.02C27.6865 5.02 28.7332 5.49333 29.4798 6.44ZM26.3598 6.9C25.6932 6.9 25.1732 7.12 24.7998 7.56C24.4265 7.98667 24.2065 8.54 24.1398 9.22H28.2798C28.2798 8.16667 27.9465 7.46 27.2798 7.1C27.0265 6.96667 26.7198 6.9 26.3598 6.9ZM39.5639 5.28L41.9039 12.28L43.9439 5.28H46.3439L42.6239 16.76C42.2372 17.92 41.7639 18.7533 41.2039 19.26C40.6572 19.7667 39.9572 20.02 39.1039 20.02C38.2372 20.02 37.3706 19.8067 36.5039 19.38V17.3C37.1972 17.74 37.8972 17.96 38.6039 17.96C39.0706 17.96 39.4506 17.7733 39.7439 17.4C40.0506 17.0267 40.2972 16.54 40.4839 15.94L40.7839 15L36.8839 5.28H39.5639ZM52.262 5.02C52.9154 5.02 53.5287 5.12667 54.102 5.34C54.6754 5.54 55.1687 5.85333 55.582 6.28C56.502 7.21333 56.962 8.50667 56.962 10.16C56.962 11.7867 56.502 13.0667 55.582 14C54.7554 14.8533 53.6487 15.28 52.262 15.28C50.8754 15.28 49.7554 14.8533 48.902 14C47.982 13.08 47.522 11.8 47.522 10.16C47.522 8.49333 47.982 7.2 48.902 6.28C49.742 5.44 50.862 5.02 52.262 5.02ZM54.602 10.14C54.602 9.11333 54.402 8.34667 54.002 7.84C53.602 7.32 53.042 7.06 52.322 7.06C51.6154 7.06 51.0354 7.32 50.582 7.84C50.1287 8.34667 49.902 9.11333 49.902 10.14C49.902 11.1667 50.102 11.94 50.502 12.46C50.9154 12.9667 51.4754 13.22 52.182 13.22C52.8887 13.22 53.4687 12.9667 53.922 12.46C54.3754 11.94 54.602 11.1667 54.602 10.14ZM66.2302 13.24C65.6168 14.5333 64.6302 15.18 63.2702 15.18C61.5502 15.18 60.4168 14.5067 59.8702 13.16C59.6702 12.6933 59.5702 12.1267 59.5702 11.46V5.26H61.9302V11.22C61.9302 11.86 62.0835 12.34 62.3902 12.66C62.6968 12.9667 63.0702 13.12 63.5102 13.12C63.9635 13.12 64.3435 13.06 64.6502 12.94C64.9568 12.8067 65.2235 12.6133 65.4502 12.36C65.9435 11.7867 66.2035 11.02 66.2302 10.06V5.26H68.5902V15H66.2302V13.24ZM77.5678 5.26H79.9278V15H77.5678V5.26ZM77.2878 2.14C77.2878 1.71333 77.4145 1.38 77.6678 1.14C77.9211 0.886666 78.2811 0.76 78.7478 0.76C79.2011 0.76 79.5545 0.886666 79.8078 1.14C80.0745 1.38 80.2078 1.71333 80.2078 2.14C80.2078 2.56667 80.0745 2.90667 79.8078 3.16C79.5545 3.4 79.2011 3.52 78.7478 3.52C78.2811 3.52 77.9211 3.4 77.6678 3.16C77.4145 2.90667 77.2878 2.56667 77.2878 2.14ZM86.2503 6.96C86.8903 5.66667 87.917 5.02 89.3303 5.02C90.5303 5.02 91.4303 5.41333 92.0303 6.2C92.6436 6.98667 92.9503 8.02667 92.9503 9.32V15H90.5903V9.32C90.5903 8.6 90.417 8.06 90.0703 7.7C89.7236 7.32667 89.237 7.14 88.6103 7.14C87.9836 7.14 87.4436 7.42 86.9903 7.98C86.5503 8.54 86.317 9.38 86.2903 10.5V15H83.9303V5.28H85.9903L86.2503 6.96ZM101.871 14.76C100.991 15.1067 100.298 15.28 99.7913 15.28C99.2846 15.28 98.8379 15.22 98.4513 15.1C98.0779 14.98 97.7446 14.8 97.4513 14.56C96.8379 14.0133 96.5313 13.26 96.5313 12.3V6.86H95.1713V5.28H96.5313V2.72H98.8913V5.28H101.531V6.86H98.8913V12.22C98.8913 13.02 99.2713 13.42 100.031 13.42C100.418 13.42 100.918 13.3133 101.531 13.1L101.871 14.76ZM111.062 6.44C111.395 6.86667 111.642 7.36 111.802 7.92C111.975 8.48 112.062 8.99333 112.062 9.46C112.062 9.92667 112.035 10.3467 111.982 10.72H105.702C105.729 11.5067 105.922 12.1467 106.282 12.64C106.642 13.1333 107.189 13.38 107.922 13.38C108.895 13.38 109.475 12.9533 109.662 12.1H112.042C111.882 13.0733 111.435 13.84 110.702 14.4C109.942 14.9867 109.015 15.28 107.922 15.28C106.642 15.28 105.569 14.8133 104.702 13.88C103.809 12.9067 103.362 11.66 103.362 10.14C103.362 8.58 103.809 7.32667 104.702 6.38C105.555 5.47333 106.629 5.02 107.922 5.02C109.269 5.02 110.315 5.49333 111.062 6.44ZM107.942 6.9C107.275 6.9 106.755 7.12 106.382 7.56C106.009 7.98667 105.789 8.54 105.722 9.22H109.862C109.862 8.16667 109.529 7.46 108.862 7.1C108.609 6.96667 108.302 6.9 107.942 6.9ZM117.247 7.2C117.834 5.8 118.714 5.1 119.887 5.1C120.114 5.1 120.401 5.14667 120.747 5.24L120.707 7.6C120.334 7.52 119.967 7.48 119.607 7.48C118.034 7.48 117.247 8.56667 117.247 10.74V15H114.887V5.26H117.247V7.2ZM129.988 6.44C130.321 6.86667 130.568 7.36 130.728 7.92C130.901 8.48 130.988 8.99333 130.988 9.46C130.988 9.92667 130.961 10.3467 130.908 10.72H124.628C124.654 11.5067 124.848 12.1467 125.208 12.64C125.568 13.1333 126.114 13.38 126.848 13.38C127.821 13.38 128.401 12.9533 128.588 12.1H130.968C130.808 13.0733 130.361 13.84 129.628 14.4C128.868 14.9867 127.941 15.28 126.848 15.28C125.568 15.28 124.494 14.8133 123.628 13.88C122.734 12.9067 122.288 11.66 122.288 10.14C122.288 8.58 122.734 7.32667 123.628 6.38C124.481 5.47333 125.554 5.02 126.848 5.02C128.194 5.02 129.241 5.49333 129.988 6.44ZM126.868 6.9C126.201 6.9 125.681 7.12 125.308 7.56C124.934 7.98667 124.714 8.54 124.648 9.22H128.788C128.788 8.16667 128.454 7.46 127.788 7.1C127.534 6.96667 127.228 6.9 126.868 6.9ZM135.133 12.04C135.16 12.96 135.833 13.42 137.153 13.42C137.66 13.42 138.073 13.3133 138.393 13.1C138.726 12.8733 138.893 12.6133 138.893 12.32C138.893 12.0267 138.793 11.8 138.593 11.64C138.393 11.48 138.08 11.3333 137.653 11.2L135.533 10.44C133.96 9.89333 133.173 9 133.173 7.76C133.173 6.93333 133.54 6.27333 134.273 5.78C135.02 5.27333 136.013 5.02 137.253 5.02C138.506 5.02 139.466 5.29333 140.133 5.84C140.813 6.38667 141.166 7.07333 141.193 7.9H138.973C138.946 7.58 138.793 7.32667 138.513 7.14C138.233 6.95333 137.833 6.86 137.313 6.86C136.793 6.86 136.386 6.96667 136.093 7.18C135.813 7.38 135.673 7.61333 135.673 7.88C135.673 8.34667 136.066 8.69333 136.853 8.92L139.153 9.78C139.913 10.0333 140.493 10.36 140.893 10.76C141.306 11.1467 141.513 11.6533 141.513 12.28C141.513 13.08 141.133 13.7733 140.373 14.36C139.586 14.9733 138.546 15.28 137.253 15.28C135.96 15.28 134.92 15 134.133 14.44C133.346 13.8667 132.946 13.0667 132.933 12.04H135.133ZM149.84 14.76C148.96 15.1067 148.267 15.28 147.76 15.28C147.253 15.28 146.807 15.22 146.42 15.1C146.047 14.98 145.713 14.8 145.42 14.56C144.807 14.0133 144.5 13.26 144.5 12.3V6.86H143.14V5.28H144.5V2.72H146.86V5.28H149.5V6.86H146.86V12.22C146.86 13.02 147.24 13.42 148 13.42C148.387 13.42 148.887 13.3133 149.5 13.1L149.84 14.76ZM159.031 6.44C159.364 6.86667 159.611 7.36 159.771 7.92C159.944 8.48 160.031 8.99333 160.031 9.46C160.031 9.92667 160.004 10.3467 159.951 10.72H153.671C153.697 11.5067 153.891 12.1467 154.251 12.64C154.611 13.1333 155.157 13.38 155.891 13.38C156.864 13.38 157.444 12.9533 157.631 12.1H160.011C159.851 13.0733 159.404 13.84 158.671 14.4C157.911 14.9867 156.984 15.28 155.891 15.28C154.611 15.28 153.537 14.8133 152.671 13.88C151.777 12.9067 151.331 11.66 151.331 10.14C151.331 8.58 151.777 7.32667 152.671 6.38C153.524 5.47333 154.597 5.02 155.891 5.02C157.237 5.02 158.284 5.49333 159.031 6.44ZM155.911 6.9C155.244 6.9 154.724 7.12 154.351 7.56C153.977 7.98667 153.757 8.54 153.691 9.22H157.831C157.831 8.16667 157.497 7.46 156.831 7.1C156.577 6.96667 156.271 6.9 155.911 6.9ZM169.196 13.5C168.596 14.6867 167.676 15.28 166.436 15.28C165.196 15.28 164.156 14.8067 163.316 13.86C162.449 12.8733 162.016 11.62 162.016 10.1C162.016 8.58 162.429 7.34667 163.256 6.4C164.069 5.48 165.083 5.02 166.296 5.02C167.509 5.02 168.423 5.50667 169.036 6.48V1.28H171.416V15H169.476L169.196 13.5ZM166.736 7.14C166.069 7.14 165.509 7.41333 165.056 7.96C164.616 8.49333 164.396 9.21333 164.396 10.12C164.396 11.0267 164.623 11.76 165.076 12.32C165.529 12.8667 166.103 13.14 166.796 13.14C167.369 13.14 167.883 12.9133 168.336 12.46C168.803 11.9933 169.036 11.4067 169.036 10.7V9.44C169.009 8.74667 168.776 8.18 168.336 7.74C167.936 7.34 167.403 7.14 166.736 7.14ZM180.4 5.26H182.76V15H180.4V5.26ZM180.12 2.14C180.12 1.71333 180.247 1.38 180.5 1.14C180.753 0.886666 181.113 0.76 181.58 0.76C182.033 0.76 182.387 0.886666 182.64 1.14C182.907 1.38 183.04 1.71333 183.04 2.14C183.04 2.56667 182.907 2.90667 182.64 3.16C182.387 3.4 182.033 3.52 181.58 3.52C181.113 3.52 180.753 3.4 180.5 3.16C180.247 2.90667 180.12 2.56667 180.12 2.14ZM189.082 6.96C189.722 5.66667 190.749 5.02 192.162 5.02C193.362 5.02 194.262 5.41333 194.862 6.2C195.476 6.98667 195.782 8.02667 195.782 9.32V15H193.422V9.32C193.422 8.6 193.249 8.06 192.902 7.7C192.556 7.32667 192.069 7.14 191.442 7.14C190.816 7.14 190.276 7.42 189.822 7.98C189.382 8.54 189.149 9.38 189.122 10.5V15H186.762V5.28H188.822L189.082 6.96ZM1.86 25.02H10.04V27.06H4.22V30.48H9.54V32.5H4.22V38H1.86V25.02ZM18.933 29.44C19.2663 29.8667 19.513 30.36 19.673 30.92C19.8463 31.48 19.933 31.9933 19.933 32.46C19.933 32.9267 19.9063 33.3467 19.853 33.72H13.573C13.5996 34.5067 13.793 35.1467 14.153 35.64C14.513 36.1333 15.0596 36.38 15.793 36.38C16.7663 36.38 17.3463 35.9533 17.533 35.1H19.913C19.753 36.0733 19.3063 36.84 18.573 37.4C17.813 37.9867 16.8863 38.28 15.793 38.28C14.513 38.28 13.4396 37.8133 12.573 36.88C11.6796 35.9067 11.233 34.66 11.233 33.14C11.233 31.58 11.6796 30.3267 12.573 29.38C13.4263 28.4733 14.4996 28.02 15.793 28.02C17.1396 28.02 18.1863 28.4933 18.933 29.44ZM15.813 29.9C15.1463 29.9 14.6263 30.12 14.253 30.56C13.8796 30.9867 13.6596 31.54 13.593 32.22H17.733C17.733 31.1667 17.3996 30.46 16.733 30.1C16.4796 29.9667 16.173 29.9 15.813 29.9ZM31.3984 30.12C32.0251 28.72 33.1251 28.02 34.6984 28.02C35.8584 28.02 36.7584 28.4133 37.3984 29.2C38.0118 29.9467 38.3184 30.9867 38.3184 32.32V38H35.9384V32.32C35.9384 31.6 35.7651 31.06 35.4184 30.7C35.0718 30.3267 34.5851 30.14 33.9584 30.14C33.3318 30.14 32.8184 30.4133 32.4184 30.96C32.0184 31.5067 31.8051 32.3333 31.7784 33.44V38H29.4184V32.32C29.4184 31.6 29.2451 31.06 28.8984 30.7C28.5518 30.3267 28.0651 30.14 27.4384 30.14C26.8118 30.14 26.2718 30.42 25.8184 30.98C25.3784 31.54 25.1451 32.38 25.1184 33.5V38H22.7584V28.28H24.8184L25.0784 29.96C25.7184 28.6667 26.7451 28.02 28.1584 28.02C28.9718 28.02 29.6451 28.2067 30.1784 28.58C30.7251 28.9533 31.1318 29.4667 31.3984 30.12ZM44.9428 32.32C45.7161 32.32 46.6095 32.4467 47.6228 32.7V31.74C47.6228 31.06 47.4828 30.56 47.2028 30.24C46.9361 29.9067 46.4895 29.74 45.8628 29.74C45.2495 29.74 44.7761 29.8667 44.4428 30.12C44.1095 30.36 43.9428 30.7067 43.9428 31.16H41.3628C41.3628 30.0533 41.7495 29.2533 42.5228 28.76C43.3095 28.2667 44.4028 28.02 45.8028 28.02C47.8028 28.02 49.0961 28.72 49.6828 30.12C49.8828 30.6 49.9828 31.1667 49.9828 31.82V38H47.9228L47.7428 36.7C47.1161 37.7533 46.1561 38.28 44.8628 38.28C43.6095 38.28 42.6361 37.9733 41.9428 37.36C41.3028 36.7733 40.9828 36.0333 40.9828 35.14C40.9828 34.2333 41.3361 33.54 42.0428 33.06C42.7495 32.5667 43.7161 32.32 44.9428 32.32ZM47.6228 34.2C46.8361 33.9867 46.1028 33.88 45.4228 33.88C44.1428 33.88 43.5028 34.3067 43.5028 35.16C43.5028 35.52 43.6495 35.8333 43.9428 36.1C44.2361 36.3533 44.7028 36.48 45.3428 36.48C45.9961 36.48 46.5295 36.2667 46.9428 35.84C47.3695 35.4 47.5961 34.8533 47.6228 34.2ZM53.4225 24.28H55.7825V38H53.4225V24.28ZM66.2767 29.44C66.6101 29.8667 66.8567 30.36 67.0167 30.92C67.1901 31.48 67.2767 31.9933 67.2767 32.46C67.2767 32.9267 67.2501 33.3467 67.1967 33.72H60.9167C60.9434 34.5067 61.1367 35.1467 61.4967 35.64C61.8567 36.1333 62.4034 36.38 63.1367 36.38C64.1101 36.38 64.6901 35.9533 64.8767 35.1H67.2567C67.0967 36.0733 66.6501 36.84 65.9167 37.4C65.1567 37.9867 64.2301 38.28 63.1367 38.28C61.8567 38.28 60.7834 37.8133 59.9167 36.88C59.0234 35.9067 58.5767 34.66 58.5767 33.14C58.5767 31.58 59.0234 30.3267 59.9167 29.38C60.7701 28.4733 61.8434 28.02 63.1367 28.02C64.4834 28.02 65.5301 28.4933 66.2767 29.44ZM63.1567 29.9C62.4901 29.9 61.9701 30.12 61.5967 30.56C61.2234 30.9867 61.0034 31.54 60.9367 32.22H65.0767C65.0767 31.1667 64.7434 30.46 64.0767 30.1C63.8234 29.9667 63.5167 29.9 63.1567 29.9ZM71.4222 35.04C71.4489 35.96 72.1222 36.42 73.4422 36.42C73.9489 36.42 74.3622 36.3133 74.6822 36.1C75.0155 35.8733 75.1822 35.6133 75.1822 35.32C75.1822 35.0267 75.0822 34.8 74.8822 34.64C74.6822 34.48 74.3689 34.3333 73.9422 34.2L71.8222 33.44C70.2489 32.8933 69.4622 32 69.4622 30.76C69.4622 29.9333 69.8289 29.2733 70.5622 28.78C71.3089 28.2733 72.3022 28.02 73.5422 28.02C74.7955 28.02 75.7555 28.2933 76.4222 28.84C77.1022 29.3867 77.4555 30.0733 77.4822 30.9H75.2622C75.2355 30.58 75.0822 30.3267 74.8022 30.14C74.5222 29.9533 74.1222 29.86 73.6022 29.86C73.0822 29.86 72.6755 29.9667 72.3822 30.18C72.1022 30.38 71.9622 30.6133 71.9622 30.88C71.9622 31.3467 72.3555 31.6933 73.1422 31.92L75.4422 32.78C76.2022 33.0333 76.7822 33.36 77.1822 33.76C77.5955 34.1467 77.8022 34.6533 77.8022 35.28C77.8022 36.08 77.4222 36.7733 76.6622 37.36C75.8755 37.9733 74.8355 38.28 73.5422 38.28C72.2489 38.28 71.2089 38 70.4222 37.44C69.6355 36.8667 69.2355 36.0667 69.2222 35.04H71.4222ZM89.5277 28.02C90.181 28.02 90.7943 28.1267 91.3677 28.34C91.941 28.54 92.4343 28.8533 92.8477 29.28C93.7677 30.2133 94.2277 31.5067 94.2277 33.16C94.2277 34.7867 93.7677 36.0667 92.8477 37C92.021 37.8533 90.9143 38.28 89.5277 38.28C88.141 38.28 87.021 37.8533 86.1677 37C85.2477 36.08 84.7877 34.8 84.7877 33.16C84.7877 31.4933 85.2477 30.2 86.1677 29.28C87.0077 28.44 88.1277 28.02 89.5277 28.02ZM91.8677 33.14C91.8677 32.1133 91.6677 31.3467 91.2677 30.84C90.8677 30.32 90.3077 30.06 89.5877 30.06C88.881 30.06 88.301 30.32 87.8477 30.84C87.3943 31.3467 87.1677 32.1133 87.1677 33.14C87.1677 34.1667 87.3677 34.94 87.7677 35.46C88.181 35.9667 88.741 36.22 89.4477 36.22C90.1543 36.22 90.7343 35.9667 91.1877 35.46C91.641 34.94 91.8677 34.1667 91.8677 33.14ZM99.3958 30.2C99.9824 28.8 100.862 28.1 102.036 28.1C102.262 28.1 102.549 28.1467 102.896 28.24L102.856 30.6C102.482 30.52 102.116 30.48 101.756 30.48C100.182 30.48 99.3958 31.5667 99.3958 33.74V38H97.0358V28.26H99.3958V30.2ZM113.795 25.02L117.355 32.74L120.915 25.02H124.175V38H121.795V28.14L118.115 36.58H116.575L112.775 27.86V38H110.415V25.02H113.795ZM131.095 32.32C131.868 32.32 132.762 32.4467 133.775 32.7V31.74C133.775 31.06 133.635 30.56 133.355 30.24C133.088 29.9067 132.642 29.74 132.015 29.74C131.402 29.74 130.928 29.8667 130.595 30.12C130.262 30.36 130.095 30.7067 130.095 31.16H127.515C127.515 30.0533 127.902 29.2533 128.675 28.76C129.462 28.2667 130.555 28.02 131.955 28.02C133.955 28.02 135.248 28.72 135.835 30.12C136.035 30.6 136.135 31.1667 136.135 31.82V38H134.075L133.895 36.7C133.268 37.7533 132.308 38.28 131.015 38.28C129.762 38.28 128.788 37.9733 128.095 37.36C127.455 36.7733 127.135 36.0333 127.135 35.14C127.135 34.2333 127.488 33.54 128.195 33.06C128.902 32.5667 129.868 32.32 131.095 32.32ZM133.775 34.2C132.988 33.9867 132.255 33.88 131.575 33.88C130.295 33.88 129.655 34.3067 129.655 35.16C129.655 35.52 129.802 35.8333 130.095 36.1C130.388 36.3533 130.855 36.48 131.495 36.48C132.148 36.48 132.682 36.2667 133.095 35.84C133.522 35.4 133.748 34.8533 133.775 34.2ZM139.575 24.28H141.935V38H139.575V24.28ZM152.429 29.44C152.762 29.8667 153.009 30.36 153.169 30.92C153.342 31.48 153.429 31.9933 153.429 32.46C153.429 32.9267 153.402 33.3467 153.349 33.72H147.069C147.096 34.5067 147.289 35.1467 147.649 35.64C148.009 36.1333 148.556 36.38 149.289 36.38C150.262 36.38 150.842 35.9533 151.029 35.1H153.409C153.249 36.0733 152.802 36.84 152.069 37.4C151.309 37.9867 150.382 38.28 149.289 38.28C148.009 38.28 146.936 37.8133 146.069 36.88C145.176 35.9067 144.729 34.66 144.729 33.14C144.729 31.58 145.176 30.3267 146.069 29.38C146.922 28.4733 147.996 28.02 149.289 28.02C150.636 28.02 151.682 28.4933 152.429 29.44ZM149.309 29.9C148.642 29.9 148.122 30.12 147.749 30.56C147.376 30.9867 147.156 31.54 147.089 32.22H151.229C151.229 31.1667 150.896 30.46 150.229 30.1C149.976 29.9667 149.669 29.9 149.309 29.9ZM157.575 35.04C157.601 35.96 158.275 36.42 159.595 36.42C160.101 36.42 160.515 36.3133 160.835 36.1C161.168 35.8733 161.335 35.6133 161.335 35.32C161.335 35.0267 161.235 34.8 161.035 34.64C160.835 34.48 160.521 34.3333 160.095 34.2L157.975 33.44C156.401 32.8933 155.615 32 155.615 30.76C155.615 29.9333 155.981 29.2733 156.715 28.78C157.461 28.2733 158.455 28.02 159.695 28.02C160.948 28.02 161.908 28.2933 162.575 28.84C163.255 29.3867 163.608 30.0733 163.635 30.9H161.415C161.388 30.58 161.235 30.3267 160.955 30.14C160.675 29.9533 160.275 29.86 159.755 29.86C159.235 29.86 158.828 29.9667 158.535 30.18C158.255 30.38 158.115 30.6133 158.115 30.88C158.115 31.3467 158.508 31.6933 159.295 31.92L161.595 32.78C162.355 33.0333 162.935 33.36 163.335 33.76C163.748 34.1467 163.955 34.6533 163.955 35.28C163.955 36.08 163.575 36.7733 162.815 37.36C162.028 37.9733 160.988 38.28 159.695 38.28C158.401 38.28 157.361 38 156.575 37.44C155.788 36.8667 155.388 36.0667 155.375 35.04H157.575ZM174.641 28.38C174.641 29.0867 174.468 29.68 174.121 30.16C173.775 30.6267 173.228 31.0467 172.481 31.42C171.855 31.74 171.441 32.0133 171.241 32.24C171.055 32.4667 170.935 32.68 170.881 32.88C170.828 33.0667 170.801 33.2867 170.801 33.54V34.12H168.441V33.32C168.441 32.12 168.801 31.2667 169.521 30.76C169.775 30.5733 170.148 30.3533 170.641 30.1C171.135 29.8467 171.488 29.5933 171.701 29.34C171.928 29.0733 172.041 28.74 172.041 28.34C172.041 27.9267 171.875 27.5867 171.541 27.32C171.208 27.04 170.715 26.9 170.061 26.9C169.408 26.9 168.895 27.06 168.521 27.38C168.148 27.6867 167.935 28.0933 167.881 28.6H165.421C165.488 27.44 165.915 26.5133 166.701 25.82C167.488 25.1133 168.588 24.76 170.001 24.76C171.428 24.76 172.555 25.1067 173.381 25.8C174.221 26.4933 174.641 27.3533 174.641 28.38ZM168.041 36.7C168.041 36.2467 168.188 35.8733 168.481 35.58C168.788 35.2867 169.181 35.14 169.661 35.14C170.155 35.14 170.561 35.2867 170.881 35.58C171.201 35.8733 171.361 36.2467 171.361 36.7C171.361 37.1533 171.201 37.5333 170.881 37.84C170.561 38.1333 170.155 38.28 169.661 38.28C169.181 38.28 168.788 38.1333 168.481 37.84C168.188 37.5333 168.041 37.1533 168.041 36.7Z" fill="#181827"/>
</svg>
