<svg width="234" height="155" viewBox="0 0 234 155" fill="none" xmlns="http://www.w3.org/2000/svg">
<path fill-rule="evenodd" clip-rule="evenodd" d="M117 155C181.617 155 234 120.302 234 77.5C234 34.6979 181.617 0 117 0C52.3827 0 0 34.6979 0 77.5C0 93.4755 7.2974 108.322 19.8047 120.657L8.36784 139.704H47.2005C66.6859 149.313 90.8404 155 117 155Z" fill="white"/>
<path d="M17.22 70.94H22.56V73H14.86V60.02H17.22V70.94ZM31.5228 64.44C31.8561 64.8667 32.1028 65.36 32.2628 65.92C32.4361 66.48 32.5228 66.9933 32.5228 67.46C32.5228 67.9267 32.4961 68.3467 32.4428 68.72H26.1628C26.1895 69.5067 26.3828 70.1467 26.7428 70.64C27.1028 71.1333 27.6495 71.38 28.3828 71.38C29.3561 71.38 29.9361 70.9533 30.1228 70.1H32.5028C32.3428 71.0733 31.8961 71.84 31.1628 72.4C30.4028 72.9867 29.4761 73.28 28.3828 73.28C27.1028 73.28 26.0295 72.8133 25.1628 71.88C24.2695 70.9067 23.8228 69.66 23.8228 68.14C23.8228 66.58 24.2695 65.3267 25.1628 64.38C26.0161 63.4733 27.0895 63.02 28.3828 63.02C29.7295 63.02 30.7761 63.4933 31.5228 64.44ZM28.4028 64.9C27.7361 64.9 27.2161 65.12 26.8428 65.56C26.4695 65.9867 26.2495 66.54 26.1828 67.22H30.3228C30.3228 66.1667 29.9895 65.46 29.3228 65.1C29.0695 64.9667 28.7628 64.9 28.4028 64.9ZM40.8283 72.76C39.9483 73.1067 39.2549 73.28 38.7483 73.28C38.2416 73.28 37.7949 73.22 37.4083 73.1C37.0349 72.98 36.7016 72.8 36.4083 72.56C35.7949 72.0133 35.4883 71.26 35.4883 70.3V64.86H34.1283V63.28H35.4883V60.72H37.8483V63.28H40.4883V64.86H37.8483V70.22C37.8483 71.02 38.2283 71.42 38.9883 71.42C39.3749 71.42 39.8749 71.3133 40.4883 71.1L40.8283 72.76ZM42.4589 61.38C42.4589 60.98 42.6122 60.6467 42.9189 60.38C43.2256 60.1 43.6389 59.96 44.1589 59.96C44.6922 59.96 45.1256 60.1733 45.4589 60.6C45.8056 61.0133 45.9789 61.5333 45.9789 62.16C45.9789 62.7733 45.7589 63.38 45.3189 63.98C44.8922 64.58 44.3189 65.06 43.5989 65.42L41.9589 64.52C42.9856 64 43.6056 63.4133 43.8189 62.76C43.4322 62.6933 43.1056 62.5467 42.8389 62.32C42.5856 62.0933 42.4589 61.78 42.4589 61.38ZM49.9886 70.04C50.0153 70.96 50.6886 71.42 52.0086 71.42C52.5153 71.42 52.9286 71.3133 53.2486 71.1C53.5819 70.8733 53.7486 70.6133 53.7486 70.32C53.7486 70.0267 53.6486 69.8 53.4486 69.64C53.2486 69.48 52.9353 69.3333 52.5086 69.2L50.3886 68.44C48.8153 67.8933 48.0286 67 48.0286 65.76C48.0286 64.9333 48.3953 64.2733 49.1286 63.78C49.8753 63.2733 50.8686 63.02 52.1086 63.02C53.3619 63.02 54.3219 63.2933 54.9886 63.84C55.6686 64.3867 56.0219 65.0733 56.0486 65.9H53.8286C53.8019 65.58 53.6486 65.3267 53.3686 65.14C53.0886 64.9533 52.6886 64.86 52.1686 64.86C51.6486 64.86 51.2419 64.9667 50.9486 65.18C50.6686 65.38 50.5286 65.6133 50.5286 65.88C50.5286 66.3467 50.9219 66.6933 51.7086 66.92L54.0086 67.78C54.7686 68.0333 55.3486 68.36 55.7486 68.76C56.1619 69.1467 56.3686 69.6533 56.3686 70.28C56.3686 71.08 55.9886 71.7733 55.2286 72.36C54.4419 72.9733 53.4019 73.28 52.1086 73.28C50.8153 73.28 49.7753 73 48.9886 72.44C48.2019 71.8667 47.8019 71.0667 47.7886 70.04H49.9886ZM63.2141 63.28H64.6541V62.14C64.6541 61.14 64.9474 60.3733 65.5341 59.84C66.0674 59.36 66.7607 59.12 67.6141 59.12C68.1607 59.12 68.8341 59.2 69.6341 59.36L69.1741 61.18C68.8007 61.0467 68.4607 60.98 68.1541 60.98C67.8607 60.98 67.6007 61.0667 67.3741 61.24C67.1474 61.4 67.0341 61.7067 67.0341 62.16V63.28H68.8141V64.86H67.0341V73H64.6541V64.86H63.2141V63.28ZM71.7983 63.26H74.1583V73H71.7983V63.26ZM71.5183 60.14C71.5183 59.7133 71.6449 59.38 71.8983 59.14C72.1516 58.8867 72.5116 58.76 72.9783 58.76C73.4316 58.76 73.7849 58.8867 74.0383 59.14C74.3049 59.38 74.4383 59.7133 74.4383 60.14C74.4383 60.5667 74.3049 60.9067 74.0383 61.16C73.7849 61.4 73.4316 61.52 72.9783 61.52C72.5116 61.52 72.1516 61.4 71.8983 61.16C71.6449 60.9067 71.5183 60.5667 71.5183 60.14ZM80.4808 64.96C81.1208 63.6667 82.1474 63.02 83.5608 63.02C84.7608 63.02 85.6608 63.4133 86.2608 64.2C86.8741 64.9867 87.1808 66.0267 87.1808 67.32V73H84.8208V67.32C84.8208 66.6 84.6474 66.06 84.3008 65.7C83.9541 65.3267 83.4674 65.14 82.8408 65.14C82.2141 65.14 81.6741 65.42 81.2208 65.98C80.7808 66.54 80.5474 67.38 80.5208 68.5V73H78.1608V63.28H80.2208L80.4808 64.96ZM96.9617 71.5C96.3617 72.6867 95.4417 73.28 94.2017 73.28C92.9617 73.28 91.9217 72.8067 91.0817 71.86C90.2151 70.8733 89.7817 69.62 89.7817 68.1C89.7817 66.58 90.1951 65.3467 91.0217 64.4C91.8351 63.48 92.8484 63.02 94.0617 63.02C95.2751 63.02 96.1884 63.5067 96.8017 64.48V59.28H99.1817V73H97.2417L96.9617 71.5ZM94.5017 65.14C93.8351 65.14 93.2751 65.4133 92.8217 65.96C92.3817 66.4933 92.1617 67.2133 92.1617 68.12C92.1617 69.0267 92.3884 69.76 92.8417 70.32C93.2951 70.8667 93.8684 71.14 94.5617 71.14C95.1351 71.14 95.6484 70.9133 96.1017 70.46C96.5684 69.9933 96.8017 69.4067 96.8017 68.7V67.44C96.7751 66.7467 96.5417 66.18 96.1017 65.74C95.7017 65.34 95.1684 65.14 94.5017 65.14ZM116.605 65.12C117.232 63.72 118.332 63.02 119.905 63.02C121.065 63.02 121.965 63.4133 122.605 64.2C123.219 64.9467 123.525 65.9867 123.525 67.32V73H121.145V67.32C121.145 66.6 120.972 66.06 120.625 65.7C120.279 65.3267 119.792 65.14 119.165 65.14C118.539 65.14 118.025 65.4133 117.625 65.96C117.225 66.5067 117.012 67.3333 116.985 68.44V73H114.625V67.32C114.625 66.6 114.452 66.06 114.105 65.7C113.759 65.3267 113.272 65.14 112.645 65.14C112.019 65.14 111.479 65.42 111.025 65.98C110.585 66.54 110.352 67.38 110.325 68.5V73H107.965V63.28H110.025L110.285 64.96C110.925 63.6667 111.952 63.02 113.365 63.02C114.179 63.02 114.852 63.2067 115.385 63.58C115.932 63.9533 116.339 64.4667 116.605 65.12ZM133.73 64.44C134.063 64.8667 134.31 65.36 134.47 65.92C134.643 66.48 134.73 66.9933 134.73 67.46C134.73 67.9267 134.703 68.3467 134.65 68.72H128.37C128.397 69.5067 128.59 70.1467 128.95 70.64C129.31 71.1333 129.857 71.38 130.59 71.38C131.563 71.38 132.143 70.9533 132.33 70.1H134.71C134.55 71.0733 134.103 71.84 133.37 72.4C132.61 72.9867 131.683 73.28 130.59 73.28C129.31 73.28 128.237 72.8133 127.37 71.88C126.477 70.9067 126.03 69.66 126.03 68.14C126.03 66.58 126.477 65.3267 127.37 64.38C128.223 63.4733 129.297 63.02 130.59 63.02C131.937 63.02 132.983 63.4933 133.73 64.44ZM130.61 64.9C129.943 64.9 129.423 65.12 129.05 65.56C128.677 65.9867 128.457 66.54 128.39 67.22H132.53C132.53 66.1667 132.197 65.46 131.53 65.1C131.277 64.9667 130.97 64.9 130.61 64.9ZM139.875 64.96C140.515 63.6667 141.542 63.02 142.955 63.02C144.155 63.02 145.055 63.4133 145.655 64.2C146.269 64.9867 146.575 66.0267 146.575 67.32V73H144.215V67.32C144.215 66.6 144.042 66.06 143.695 65.7C143.349 65.3267 142.862 65.14 142.235 65.14C141.609 65.14 141.069 65.42 140.615 65.98C140.175 66.54 139.942 67.38 139.915 68.5V73H137.555V63.28H139.615L139.875 64.96ZM157.395 64.96C158.035 63.6667 159.062 63.02 160.475 63.02C161.675 63.02 162.575 63.4133 163.175 64.2C163.788 64.9867 164.095 66.0267 164.095 67.32V73H161.735V67.32C161.735 66.6 161.562 66.06 161.215 65.7C160.868 65.3267 160.382 65.14 159.755 65.14C159.128 65.14 158.588 65.42 158.135 65.98C157.695 66.54 157.462 67.38 157.435 68.5V73H155.075V63.28H157.135L157.395 64.96ZM174.316 64.44C174.649 64.8667 174.896 65.36 175.056 65.92C175.229 66.48 175.316 66.9933 175.316 67.46C175.316 67.9267 175.289 68.3467 175.236 68.72H168.956C168.982 69.5067 169.176 70.1467 169.536 70.64C169.896 71.1333 170.442 71.38 171.176 71.38C172.149 71.38 172.729 70.9533 172.916 70.1H175.296C175.136 71.0733 174.689 71.84 173.956 72.4C173.196 72.9867 172.269 73.28 171.176 73.28C169.896 73.28 168.822 72.8133 167.956 71.88C167.062 70.9067 166.616 69.66 166.616 68.14C166.616 66.58 167.062 65.3267 167.956 64.38C168.809 63.4733 169.882 63.02 171.176 63.02C172.522 63.02 173.569 63.4933 174.316 64.44ZM171.196 64.9C170.529 64.9 170.009 65.12 169.636 65.56C169.262 65.9867 169.042 66.54 168.976 67.22H173.116C173.116 66.1667 172.782 65.46 172.116 65.1C171.862 64.9667 171.556 64.9 171.196 64.9ZM181.341 67.32C182.115 67.32 183.008 67.4467 184.021 67.7V66.74C184.021 66.06 183.881 65.56 183.601 65.24C183.335 64.9067 182.888 64.74 182.261 64.74C181.648 64.74 181.175 64.8667 180.841 65.12C180.508 65.36 180.341 65.7067 180.341 66.16H177.761C177.761 65.0533 178.148 64.2533 178.921 63.76C179.708 63.2667 180.801 63.02 182.201 63.02C184.201 63.02 185.495 63.72 186.081 65.12C186.281 65.6 186.381 66.1667 186.381 66.82V73H184.321L184.141 71.7C183.515 72.7533 182.555 73.28 181.261 73.28C180.008 73.28 179.035 72.9733 178.341 72.36C177.701 71.7733 177.381 71.0333 177.381 70.14C177.381 69.2333 177.735 68.54 178.441 68.06C179.148 67.5667 180.115 67.32 181.341 67.32ZM184.021 69.2C183.235 68.9867 182.501 68.88 181.821 68.88C180.541 68.88 179.901 69.3067 179.901 70.16C179.901 70.52 180.048 70.8333 180.341 71.1C180.635 71.3533 181.101 71.48 181.741 71.48C182.395 71.48 182.928 71.2667 183.341 70.84C183.768 70.4 183.995 69.8533 184.021 69.2ZM192.181 65.2C192.768 63.8 193.648 63.1 194.821 63.1C195.048 63.1 195.334 63.1467 195.681 63.24L195.641 65.6C195.268 65.52 194.901 65.48 194.541 65.48C192.968 65.48 192.181 66.5667 192.181 68.74V73H189.821V63.26H192.181V65.2ZM16.06 86.28L18.4 93.28L20.44 86.28H22.84L19.12 97.76C18.7333 98.92 18.26 99.7533 17.7 100.26C17.1533 100.767 16.4533 101.02 15.6 101.02C14.7333 101.02 13.8667 100.807 13 100.38V98.3C13.6933 98.74 14.3933 98.96 15.1 98.96C15.5667 98.96 15.9467 98.7733 16.24 98.4C16.5467 98.0267 16.7933 97.54 16.98 96.94L17.28 96L13.38 86.28H16.06ZM28.7581 86.02C29.4115 86.02 30.0248 86.1267 30.5981 86.34C31.1715 86.54 31.6648 86.8533 32.0781 87.28C32.9981 88.2133 33.4581 89.5067 33.4581 91.16C33.4581 92.7867 32.9981 94.0667 32.0781 95C31.2515 95.8533 30.1448 96.28 28.7581 96.28C27.3715 96.28 26.2515 95.8533 25.3981 95C24.4781 94.08 24.0181 92.8 24.0181 91.16C24.0181 89.4933 24.4781 88.2 25.3981 87.28C26.2381 86.44 27.3581 86.02 28.7581 86.02ZM31.0981 91.14C31.0981 90.1133 30.8981 89.3467 30.4981 88.84C30.0981 88.32 29.5381 88.06 28.8181 88.06C28.1115 88.06 27.5315 88.32 27.0781 88.84C26.6248 89.3467 26.3981 90.1133 26.3981 91.14C26.3981 92.1667 26.5981 92.94 26.9981 93.46C27.4115 93.9667 27.9715 94.22 28.6781 94.22C29.3848 94.22 29.9648 93.9667 30.4181 93.46C30.8715 92.94 31.0981 92.1667 31.0981 91.14ZM42.7263 94.24C42.1129 95.5333 41.1263 96.18 39.7663 96.18C38.0463 96.18 36.9129 95.5067 36.3663 94.16C36.1663 93.6933 36.0663 93.1267 36.0663 92.46V86.26H38.4263V92.22C38.4263 92.86 38.5796 93.34 38.8863 93.66C39.1929 93.9667 39.5663 94.12 40.0063 94.12C40.4596 94.12 40.8396 94.06 41.1463 93.94C41.4529 93.8067 41.7196 93.6133 41.9463 93.36C42.4396 92.7867 42.6996 92.02 42.7263 91.06V86.26H45.0863V96H42.7263V94.24ZM49.0653 96.18C48.5853 96.18 48.192 96.0333 47.8853 95.74C47.5786 95.4467 47.4253 95.0733 47.4253 94.62C47.4253 94.1667 47.5786 93.7867 47.8853 93.48C48.192 93.1733 48.5853 93.02 49.0653 93.02C49.5453 93.02 49.9453 93.1733 50.2653 93.48C50.5853 93.7867 50.7453 94.1667 50.7453 94.62C50.7453 95.0733 50.5853 95.4467 50.2653 95.74C49.9453 96.0333 49.5453 96.18 49.0653 96.18ZM59.3408 83.02L62.2008 92.88L64.9808 83.88H66.5808L69.5208 92.92L72.5608 83.02H75.2208L70.7608 96H68.2808L65.8408 88.68L63.4208 96H60.9408L56.7008 83.02H59.3408ZM79.8372 87.86C80.5039 86.6333 81.4772 86.02 82.7572 86.02C84.0372 86.02 84.9772 86.4133 85.5772 87.2C86.1905 87.9867 86.4972 89.0267 86.4972 90.32V96H84.1372V90.32C84.1372 89.6 83.9639 89.06 83.6172 88.7C83.2705 88.3267 82.7839 88.14 82.1572 88.14C81.5305 88.14 80.9905 88.42 80.5372 88.98C80.0972 89.54 79.8639 90.38 79.8372 91.5V96H77.4772V82.28H79.8372V87.86ZM93.1381 90.32C93.9115 90.32 94.8048 90.4467 95.8181 90.7V89.74C95.8181 89.06 95.6781 88.56 95.3981 88.24C95.1315 87.9067 94.6848 87.74 94.0581 87.74C93.4448 87.74 92.9715 87.8667 92.6381 88.12C92.3048 88.36 92.1381 88.7067 92.1381 89.16H89.5581C89.5581 88.0533 89.9448 87.2533 90.7181 86.76C91.5048 86.2667 92.5981 86.02 93.9981 86.02C95.9981 86.02 97.2915 86.72 97.8781 88.12C98.0781 88.6 98.1781 89.1667 98.1781 89.82V96H96.1181L95.9381 94.7C95.3115 95.7533 94.3515 96.28 93.0581 96.28C91.8048 96.28 90.8315 95.9733 90.1381 95.36C89.4981 94.7733 89.1781 94.0333 89.1781 93.14C89.1781 92.2333 89.5315 91.54 90.2381 91.06C90.9448 90.5667 91.9115 90.32 93.1381 90.32ZM95.8181 92.2C95.0315 91.9867 94.2981 91.88 93.6181 91.88C92.3381 91.88 91.6981 92.3067 91.6981 93.16C91.6981 93.52 91.8448 93.8333 92.1381 94.1C92.4315 94.3533 92.8981 94.48 93.5381 94.48C94.1915 94.48 94.7248 94.2667 95.1381 93.84C95.5648 93.4 95.7915 92.8533 95.8181 92.2ZM107.098 95.76C106.218 96.1067 105.524 96.28 105.018 96.28C104.511 96.28 104.064 96.22 103.678 96.1C103.304 95.98 102.971 95.8 102.678 95.56C102.064 95.0133 101.758 94.26 101.758 93.3V87.86H100.398V86.28H101.758V83.72H104.118V86.28H106.758V87.86H104.118V93.22C104.118 94.02 104.498 94.42 105.258 94.42C105.644 94.42 106.144 94.3133 106.758 94.1L107.098 95.76ZM108.728 84.38C108.728 83.98 108.882 83.6467 109.188 83.38C109.495 83.1 109.908 82.96 110.428 82.96C110.962 82.96 111.395 83.1733 111.728 83.6C112.075 84.0133 112.248 84.5333 112.248 85.16C112.248 85.7733 112.028 86.38 111.588 86.98C111.162 87.58 110.588 88.06 109.868 88.42L108.228 87.52C109.255 87 109.875 86.4133 110.088 85.76C109.702 85.6933 109.375 85.5467 109.108 85.32C108.855 85.0933 108.728 84.78 108.728 84.38ZM116.258 93.04C116.285 93.96 116.958 94.42 118.278 94.42C118.785 94.42 119.198 94.3133 119.518 94.1C119.851 93.8733 120.018 93.6133 120.018 93.32C120.018 93.0267 119.918 92.8 119.718 92.64C119.518 92.48 119.205 92.3333 118.778 92.2L116.658 91.44C115.085 90.8933 114.298 90 114.298 88.76C114.298 87.9333 114.665 87.2733 115.398 86.78C116.145 86.2733 117.138 86.02 118.378 86.02C119.631 86.02 120.591 86.2933 121.258 86.84C121.938 87.3867 122.291 88.0733 122.318 88.9H120.098C120.071 88.58 119.918 88.3267 119.638 88.14C119.358 87.9533 118.958 87.86 118.438 87.86C117.918 87.86 117.511 87.9667 117.218 88.18C116.938 88.38 116.798 88.6133 116.798 88.88C116.798 89.3467 117.191 89.6933 117.978 89.92L120.278 90.78C121.038 91.0333 121.618 91.36 122.018 91.76C122.431 92.1467 122.638 92.6533 122.638 93.28C122.638 94.08 122.258 94.7733 121.498 95.36C120.711 95.9733 119.671 96.28 118.378 96.28C117.085 96.28 116.045 96 115.258 95.44C114.471 94.8667 114.071 94.0667 114.058 93.04H116.258ZM131.744 86.28L134.084 93.28L136.124 86.28H138.524L134.804 97.76C134.417 98.92 133.944 99.7533 133.384 100.26C132.837 100.767 132.137 101.02 131.284 101.02C130.417 101.02 129.55 100.807 128.684 100.38V98.3C129.377 98.74 130.077 98.96 130.784 98.96C131.25 98.96 131.63 98.7733 131.924 98.4C132.23 98.0267 132.477 97.54 132.664 96.94L132.964 96L129.064 86.28H131.744ZM144.442 86.02C145.095 86.02 145.708 86.1267 146.282 86.34C146.855 86.54 147.348 86.8533 147.762 87.28C148.682 88.2133 149.142 89.5067 149.142 91.16C149.142 92.7867 148.682 94.0667 147.762 95C146.935 95.8533 145.828 96.28 144.442 96.28C143.055 96.28 141.935 95.8533 141.082 95C140.162 94.08 139.702 92.8 139.702 91.16C139.702 89.4933 140.162 88.2 141.082 87.28C141.922 86.44 143.042 86.02 144.442 86.02ZM146.782 91.14C146.782 90.1133 146.582 89.3467 146.182 88.84C145.782 88.32 145.222 88.06 144.502 88.06C143.795 88.06 143.215 88.32 142.762 88.84C142.308 89.3467 142.082 90.1133 142.082 91.14C142.082 92.1667 142.282 92.94 142.682 93.46C143.095 93.9667 143.655 94.22 144.362 94.22C145.068 94.22 145.648 93.9667 146.102 93.46C146.555 92.94 146.782 92.1667 146.782 91.14ZM158.41 94.24C157.797 95.5333 156.81 96.18 155.45 96.18C153.73 96.18 152.597 95.5067 152.05 94.16C151.85 93.6933 151.75 93.1267 151.75 92.46V86.26H154.11V92.22C154.11 92.86 154.263 93.34 154.57 93.66C154.877 93.9667 155.25 94.12 155.69 94.12C156.143 94.12 156.523 94.06 156.83 93.94C157.137 93.8067 157.403 93.6133 157.63 93.36C158.123 92.7867 158.383 92.02 158.41 91.06V86.26H160.77V96H158.41V94.24ZM166.849 88.2C167.436 86.8 168.316 86.1 169.489 86.1C169.716 86.1 170.002 86.1467 170.349 86.24L170.309 88.6C169.936 88.52 169.569 88.48 169.209 88.48C167.636 88.48 166.849 89.5667 166.849 91.74V96H164.489V86.26H166.849V88.2ZM177.148 94.08L182.188 88.2H177.148V86.28H184.788V88.2L179.908 94.08H184.788V96H177.148V94.08ZM187.97 86.26H190.33V96H187.97V86.26ZM187.69 83.14C187.69 82.7133 187.817 82.38 188.07 82.14C188.323 81.8867 188.683 81.76 189.15 81.76C189.603 81.76 189.957 81.8867 190.21 82.14C190.477 82.38 190.61 82.7133 190.61 83.14C190.61 83.5667 190.477 83.9067 190.21 84.16C189.957 84.4 189.603 84.52 189.15 84.52C188.683 84.52 188.323 84.4 188.07 84.16C187.817 83.9067 187.69 83.5667 187.69 83.14ZM196.493 87.6C197.106 86.5467 198.039 86.02 199.293 86.02C200.493 86.02 201.519 86.4733 202.373 87.38C203.279 88.34 203.733 89.5933 203.733 91.14C203.733 92.7 203.273 93.96 202.353 94.92C201.499 95.8267 200.479 96.28 199.293 96.28C198.106 96.28 197.239 95.9267 196.693 95.22V100.74H194.333V86.28H196.273L196.493 87.6ZM198.873 94.14C199.153 94.14 199.439 94.08 199.733 93.96C200.039 93.84 200.313 93.6533 200.553 93.4C201.086 92.84 201.353 92.0933 201.353 91.16C201.353 90.2133 201.119 89.4733 200.653 88.94C200.199 88.4067 199.639 88.14 198.973 88.14C198.319 88.14 197.779 88.3333 197.353 88.72C196.939 89.0933 196.719 89.6333 196.693 90.34V92.08C196.693 92.7067 196.913 93.2133 197.353 93.6C197.766 93.96 198.273 94.14 198.873 94.14ZM214.38 86.38C214.38 87.0867 214.206 87.68 213.86 88.16C213.513 88.6267 212.966 89.0467 212.22 89.42C211.593 89.74 211.18 90.0133 210.98 90.24C210.793 90.4667 210.673 90.68 210.62 90.88C210.566 91.0667 210.54 91.2867 210.54 91.54V92.12H208.18V91.32C208.18 90.12 208.54 89.2667 209.26 88.76C209.513 88.5733 209.886 88.3533 210.38 88.1C210.873 87.8467 211.226 87.5933 211.44 87.34C211.666 87.0733 211.78 86.74 211.78 86.34C211.78 85.9267 211.613 85.5867 211.28 85.32C210.946 85.04 210.453 84.9 209.8 84.9C209.146 84.9 208.633 85.06 208.26 85.38C207.886 85.6867 207.673 86.0933 207.62 86.6H205.16C205.226 85.44 205.653 84.5133 206.44 83.82C207.226 83.1133 208.326 82.76 209.74 82.76C211.166 82.76 212.293 83.1067 213.12 83.8C213.96 84.4933 214.38 85.3533 214.38 86.38ZM207.78 94.7C207.78 94.2467 207.926 93.8733 208.22 93.58C208.526 93.2867 208.92 93.14 209.4 93.14C209.893 93.14 210.3 93.2867 210.62 93.58C210.94 93.8733 211.1 94.2467 211.1 94.7C211.1 95.1533 210.94 95.5333 210.62 95.84C210.3 96.1333 209.893 96.28 209.4 96.28C208.92 96.28 208.526 96.1333 208.22 95.84C207.926 95.5333 207.78 95.1533 207.78 94.7Z" fill="#181827"/>
</svg>
