<svg width="234" height="155" viewBox="0 0 234 155" fill="none" xmlns="http://www.w3.org/2000/svg">
<path fill-rule="evenodd" clip-rule="evenodd" d="M117 155C181.617 155 234 120.302 234 77.5C234 34.6979 181.617 0 117 0C52.3827 0 0 34.6979 0 77.5C0 93.4755 7.2974 108.322 19.8047 120.657L8.36784 139.704H47.2005C66.6859 149.313 90.8404 155 117 155Z" fill="white"/>
<path d="M36.04 46.02L38.9 55.88L41.68 46.88H43.28L46.22 55.92L49.26 46.02H51.92L47.46 59H44.98L42.54 51.68L40.12 59H37.64L33.4 46.02H36.04ZM56.5364 50.86C57.2031 49.6333 58.1764 49.02 59.4564 49.02C60.7364 49.02 61.6764 49.4133 62.2764 50.2C62.8897 50.9867 63.1964 52.0267 63.1964 53.32V59H60.8364V53.32C60.8364 52.6 60.6631 52.06 60.3164 51.7C59.9697 51.3267 59.4831 51.14 58.8564 51.14C58.2297 51.14 57.6897 51.42 57.2364 51.98C56.7964 52.54 56.5631 53.38 56.5364 54.5V59H54.1764V45.28H56.5364V50.86ZM69.8373 53.32C70.6107 53.32 71.504 53.4467 72.5173 53.7V52.74C72.5173 52.06 72.3773 51.56 72.0973 51.24C71.8307 50.9067 71.384 50.74 70.7573 50.74C70.144 50.74 69.6707 50.8667 69.3373 51.12C69.004 51.36 68.8373 51.7067 68.8373 52.16H66.2573C66.2573 51.0533 66.644 50.2533 67.4173 49.76C68.204 49.2667 69.2973 49.02 70.6973 49.02C72.6973 49.02 73.9907 49.72 74.5773 51.12C74.7773 51.6 74.8773 52.1667 74.8773 52.82V59H72.8173L72.6373 57.7C72.0107 58.7533 71.0507 59.28 69.7573 59.28C68.504 59.28 67.5307 58.9733 66.8373 58.36C66.1973 57.7733 65.8773 57.0333 65.8773 56.14C65.8773 55.2333 66.2307 54.54 66.9373 54.06C67.644 53.5667 68.6107 53.32 69.8373 53.32ZM72.5173 55.2C71.7307 54.9867 70.9973 54.88 70.3173 54.88C69.0373 54.88 68.3973 55.3067 68.3973 56.16C68.3973 56.52 68.544 56.8333 68.8373 57.1C69.1307 57.3533 69.5973 57.48 70.2373 57.48C70.8907 57.48 71.424 57.2667 71.8373 56.84C72.264 56.4 72.4907 55.8533 72.5173 55.2ZM83.797 58.76C82.917 59.1067 82.2237 59.28 81.717 59.28C81.2104 59.28 80.7637 59.22 80.377 59.1C80.0037 58.98 79.6704 58.8 79.377 58.56C78.7637 58.0133 78.457 57.26 78.457 56.3V50.86H77.097V49.28H78.457V46.72H80.817V49.28H83.457V50.86H80.817V56.22C80.817 57.02 81.197 57.42 81.957 57.42C82.3437 57.42 82.8437 57.3133 83.457 57.1L83.797 58.76ZM85.4277 47.38C85.4277 46.98 85.581 46.6467 85.8877 46.38C86.1943 46.1 86.6077 45.96 87.1277 45.96C87.661 45.96 88.0943 46.1733 88.4277 46.6C88.7743 47.0133 88.9477 47.5333 88.9477 48.16C88.9477 48.7733 88.7277 49.38 88.2877 49.98C87.861 50.58 87.2877 51.06 86.5677 51.42L84.9277 50.52C85.9543 50 86.5743 49.4133 86.7877 48.76C86.401 48.6933 86.0743 48.5467 85.8077 48.32C85.5543 48.0933 85.4277 47.78 85.4277 47.38ZM92.9573 56.04C92.984 56.96 93.6573 57.42 94.9773 57.42C95.484 57.42 95.8973 57.3133 96.2173 57.1C96.5507 56.8733 96.7173 56.6133 96.7173 56.32C96.7173 56.0267 96.6173 55.8 96.4173 55.64C96.2173 55.48 95.904 55.3333 95.4773 55.2L93.3573 54.44C91.784 53.8933 90.9973 53 90.9973 51.76C90.9973 50.9333 91.364 50.2733 92.0973 49.78C92.844 49.2733 93.8373 49.02 95.0773 49.02C96.3307 49.02 97.2907 49.2933 97.9573 49.84C98.6373 50.3867 98.9907 51.0733 99.0173 51.9H96.7973C96.7707 51.58 96.6173 51.3267 96.3373 51.14C96.0573 50.9533 95.6573 50.86 95.1373 50.86C94.6173 50.86 94.2107 50.9667 93.9173 51.18C93.6373 51.38 93.4973 51.6133 93.4973 51.88C93.4973 52.3467 93.8907 52.6933 94.6773 52.92L96.9773 53.78C97.7373 54.0333 98.3173 54.36 98.7173 54.76C99.1307 55.1467 99.3373 55.6533 99.3373 56.28C99.3373 57.08 98.9573 57.7733 98.1973 58.36C97.4107 58.9733 96.3707 59.28 95.0773 59.28C93.784 59.28 92.744 59 91.9573 58.44C91.1707 57.8667 90.7707 57.0667 90.7573 56.04H92.9573ZM108.443 49.28L110.783 56.28L112.823 49.28H115.223L111.503 60.76C111.116 61.92 110.643 62.7533 110.083 63.26C109.536 63.7667 108.836 64.02 107.983 64.02C107.116 64.02 106.249 63.8067 105.383 63.38V61.3C106.076 61.74 106.776 61.96 107.483 61.96C107.949 61.96 108.329 61.7733 108.623 61.4C108.929 61.0267 109.176 60.54 109.363 59.94L109.663 59L105.763 49.28H108.443ZM121.141 49.02C121.794 49.02 122.408 49.1267 122.981 49.34C123.554 49.54 124.048 49.8533 124.461 50.28C125.381 51.2133 125.841 52.5067 125.841 54.16C125.841 55.7867 125.381 57.0667 124.461 58C123.634 58.8533 122.528 59.28 121.141 59.28C119.754 59.28 118.634 58.8533 117.781 58C116.861 57.08 116.401 55.8 116.401 54.16C116.401 52.4933 116.861 51.2 117.781 50.28C118.621 49.44 119.741 49.02 121.141 49.02ZM123.481 54.14C123.481 53.1133 123.281 52.3467 122.881 51.84C122.481 51.32 121.921 51.06 121.201 51.06C120.494 51.06 119.914 51.32 119.461 51.84C119.008 52.3467 118.781 53.1133 118.781 54.14C118.781 55.1667 118.981 55.94 119.381 56.46C119.794 56.9667 120.354 57.22 121.061 57.22C121.768 57.22 122.348 56.9667 122.801 56.46C123.254 55.94 123.481 55.1667 123.481 54.14ZM135.109 57.24C134.496 58.5333 133.509 59.18 132.149 59.18C130.429 59.18 129.296 58.5067 128.749 57.16C128.549 56.6933 128.449 56.1267 128.449 55.46V49.26H130.809V55.22C130.809 55.86 130.962 56.34 131.269 56.66C131.576 56.9667 131.949 57.12 132.389 57.12C132.842 57.12 133.222 57.06 133.529 56.94C133.836 56.8067 134.102 56.6133 134.329 56.36C134.822 55.7867 135.082 55.02 135.109 54.06V49.26H137.469V59H135.109V57.24ZM143.548 51.2C144.135 49.8 145.015 49.1 146.188 49.1C146.415 49.1 146.701 49.1467 147.048 49.24L147.008 51.6C146.635 51.52 146.268 51.48 145.908 51.48C144.335 51.48 143.548 52.5667 143.548 54.74V59H141.188V49.26H143.548V51.2ZM156.887 50.96C157.527 49.6667 158.554 49.02 159.967 49.02C161.167 49.02 162.067 49.4133 162.667 50.2C163.28 50.9867 163.587 52.0267 163.587 53.32V59H161.227V53.32C161.227 52.6 161.054 52.06 160.707 51.7C160.36 51.3267 159.874 51.14 159.247 51.14C158.62 51.14 158.08 51.42 157.627 51.98C157.187 52.54 156.954 53.38 156.927 54.5V59H154.567V49.28H156.627L156.887 50.96ZM170.228 53.32C171.001 53.32 171.895 53.4467 172.908 53.7V52.74C172.908 52.06 172.768 51.56 172.488 51.24C172.221 50.9067 171.775 50.74 171.148 50.74C170.535 50.74 170.061 50.8667 169.728 51.12C169.395 51.36 169.228 51.7067 169.228 52.16H166.648C166.648 51.0533 167.035 50.2533 167.808 49.76C168.595 49.2667 169.688 49.02 171.088 49.02C173.088 49.02 174.381 49.72 174.968 51.12C175.168 51.6 175.268 52.1667 175.268 52.82V59H173.208L173.028 57.7C172.401 58.7533 171.441 59.28 170.148 59.28C168.895 59.28 167.921 58.9733 167.228 58.36C166.588 57.7733 166.268 57.0333 166.268 56.14C166.268 55.2333 166.621 54.54 167.328 54.06C168.035 53.5667 169.001 53.32 170.228 53.32ZM172.908 55.2C172.121 54.9867 171.388 54.88 170.708 54.88C169.428 54.88 168.788 55.3067 168.788 56.16C168.788 56.52 168.935 56.8333 169.228 57.1C169.521 57.3533 169.988 57.48 170.628 57.48C171.281 57.48 171.815 57.2667 172.228 56.84C172.655 56.4 172.881 55.8533 172.908 55.2ZM187.348 51.12C187.974 49.72 189.074 49.02 190.648 49.02C191.808 49.02 192.708 49.4133 193.348 50.2C193.961 50.9467 194.268 51.9867 194.268 53.32V59H191.888V53.32C191.888 52.6 191.714 52.06 191.368 51.7C191.021 51.3267 190.534 51.14 189.908 51.14C189.281 51.14 188.768 51.4133 188.368 51.96C187.968 52.5067 187.754 53.3333 187.728 54.44V59H185.368V53.32C185.368 52.6 185.194 52.06 184.848 51.7C184.501 51.3267 184.014 51.14 183.388 51.14C182.761 51.14 182.221 51.42 181.768 51.98C181.328 52.54 181.094 53.38 181.068 54.5V59H178.708V49.28H180.768L181.028 50.96C181.668 49.6667 182.694 49.02 184.108 49.02C184.921 49.02 185.594 49.2067 186.128 49.58C186.674 49.9533 187.081 50.4667 187.348 51.12ZM204.472 50.44C204.805 50.8667 205.052 51.36 205.212 51.92C205.385 52.48 205.472 52.9933 205.472 53.46C205.472 53.9267 205.445 54.3467 205.392 54.72H199.112C199.139 55.5067 199.332 56.1467 199.692 56.64C200.052 57.1333 200.599 57.38 201.332 57.38C202.305 57.38 202.885 56.9533 203.072 56.1H205.452C205.292 57.0733 204.845 57.84 204.112 58.4C203.352 58.9867 202.425 59.28 201.332 59.28C200.052 59.28 198.979 58.8133 198.112 57.88C197.219 56.9067 196.772 55.66 196.772 54.14C196.772 52.58 197.219 51.3267 198.112 50.38C198.965 49.4733 200.039 49.02 201.332 49.02C202.679 49.02 203.725 49.4933 204.472 50.44ZM201.352 50.9C200.685 50.9 200.165 51.12 199.792 51.56C199.419 51.9867 199.199 52.54 199.132 53.22H203.272C203.272 52.1667 202.939 51.46 202.272 51.1C202.019 50.9667 201.712 50.9 201.352 50.9ZM38.64 84.36C35.8533 81.88 34.46 78.9733 34.46 75.64C34.46 72.28 35.8533 69.3733 38.64 66.92L40.34 68.16C39.1933 69.36 38.3333 70.5667 37.76 71.78C37.1867 72.98 36.9 74.2667 36.9 75.64C36.9 77.0133 37.1867 78.3 37.76 79.5C38.3333 80.6867 39.1933 81.88 40.34 83.08L38.64 84.36ZM46.6878 72.02C47.3411 72.02 47.9545 72.1267 48.5278 72.34C49.1011 72.54 49.5945 72.8533 50.0078 73.28C50.9278 74.2133 51.3878 75.5067 51.3878 77.16C51.3878 78.7867 50.9278 80.0667 50.0078 81C49.1811 81.8533 48.0745 82.28 46.6878 82.28C45.3011 82.28 44.1811 81.8533 43.3278 81C42.4078 80.08 41.9478 78.8 41.9478 77.16C41.9478 75.4933 42.4078 74.2 43.3278 73.28C44.1678 72.44 45.2878 72.02 46.6878 72.02ZM49.0278 77.14C49.0278 76.1133 48.8278 75.3467 48.4278 74.84C48.0278 74.32 47.4678 74.06 46.7478 74.06C46.0411 74.06 45.4611 74.32 45.0078 74.84C44.5545 75.3467 44.3278 76.1133 44.3278 77.14C44.3278 78.1667 44.5278 78.94 44.9278 79.46C45.3411 79.9667 45.9011 80.22 46.6078 80.22C47.3145 80.22 47.8945 79.9667 48.3478 79.46C48.8011 78.94 49.0278 78.1667 49.0278 77.14ZM56.5559 74.2C57.1426 72.8 58.0226 72.1 59.1959 72.1C59.4226 72.1 59.7093 72.1467 60.0559 72.24L60.0159 74.6C59.6426 74.52 59.2759 74.48 58.9159 74.48C57.3426 74.48 56.5559 75.5667 56.5559 77.74V82H54.1959V72.26H56.5559V74.2ZM70.7748 76.32C71.5482 76.32 72.4415 76.4467 73.4548 76.7V75.74C73.4548 75.06 73.3148 74.56 73.0348 74.24C72.7682 73.9067 72.3215 73.74 71.6948 73.74C71.0815 73.74 70.6082 73.8667 70.2748 74.12C69.9415 74.36 69.7748 74.7067 69.7748 75.16H67.1948C67.1948 74.0533 67.5815 73.2533 68.3548 72.76C69.1415 72.2667 70.2348 72.02 71.6348 72.02C73.6348 72.02 74.9282 72.72 75.5148 74.12C75.7148 74.6 75.8148 75.1667 75.8148 75.82V82H73.7548L73.5748 80.7C72.9482 81.7533 71.9882 82.28 70.6948 82.28C69.4415 82.28 68.4682 81.9733 67.7748 81.36C67.1348 80.7733 66.8148 80.0333 66.8148 79.14C66.8148 78.2333 67.1682 77.54 67.8748 77.06C68.5815 76.5667 69.5482 76.32 70.7748 76.32ZM73.4548 78.2C72.6682 77.9867 71.9348 77.88 71.2548 77.88C69.9748 77.88 69.3348 78.3067 69.3348 79.16C69.3348 79.52 69.4815 79.8333 69.7748 80.1C70.0682 80.3533 70.5348 80.48 71.1748 80.48C71.8282 80.48 72.3615 80.2667 72.7748 79.84C73.2015 79.4 73.4282 78.8533 73.4548 78.2ZM86.6331 73.96C87.2731 72.6667 88.2998 72.02 89.7131 72.02C90.9131 72.02 91.8131 72.4133 92.4131 73.2C93.0265 73.9867 93.3331 75.0267 93.3331 76.32V82H90.9731V76.32C90.9731 75.6 90.7998 75.06 90.4531 74.7C90.1065 74.3267 89.6198 74.14 88.9931 74.14C88.3665 74.14 87.8265 74.42 87.3731 74.98C86.9331 75.54 86.6998 76.38 86.6731 77.5V82H84.3131V72.28H86.3731L86.6331 73.96ZM96.9741 72.26H99.3341V82H96.9741V72.26ZM96.6941 69.14C96.6941 68.7133 96.8207 68.38 97.0741 68.14C97.3274 67.8867 97.6874 67.76 98.1541 67.76C98.6074 67.76 98.9607 67.8867 99.2141 68.14C99.4807 68.38 99.6141 68.7133 99.6141 69.14C99.6141 69.5667 99.4807 69.9067 99.2141 70.16C98.9607 70.4 98.6074 70.52 98.1541 70.52C97.6874 70.52 97.3274 70.4 97.0741 70.16C96.8207 69.9067 96.6941 69.5667 96.6941 69.14ZM107.037 72.02C107.65 72.02 108.197 72.1267 108.677 72.34C109.17 72.54 109.583 72.8067 109.917 73.14C110.583 73.78 110.977 74.5867 111.097 75.56L108.717 75.62C108.61 75.1933 108.41 74.84 108.117 74.56C107.837 74.28 107.51 74.14 107.137 74.14C106.763 74.14 106.443 74.2 106.177 74.32C105.91 74.4267 105.677 74.6 105.477 74.84C105.023 75.4 104.797 76.1733 104.797 77.16C104.797 78.1467 105.01 78.8933 105.437 79.4C105.863 79.8933 106.377 80.14 106.977 80.14C107.59 80.14 108.03 80 108.297 79.72C108.577 79.4267 108.717 79.0333 108.717 78.54H111.097C111.097 79.6067 110.743 80.4933 110.037 81.2C109.317 81.92 108.31 82.28 107.017 82.28C105.737 82.28 104.663 81.8133 103.797 80.88C102.877 79.88 102.417 78.6333 102.417 77.14C102.417 75.5667 102.877 74.3067 103.797 73.36C104.663 72.4667 105.743 72.02 107.037 72.02ZM117.382 77.26L116.302 78.16V82H113.942V68.28H116.302V75.7L120.142 72.28H123.342L119.042 75.88L123.582 82H120.702L117.382 77.26ZM127.766 73.96C128.406 72.6667 129.433 72.02 130.846 72.02C132.046 72.02 132.946 72.4133 133.546 73.2C134.159 73.9867 134.466 75.0267 134.466 76.32V82H132.106V76.32C132.106 75.6 131.933 75.06 131.586 74.7C131.239 74.3267 130.753 74.14 130.126 74.14C129.499 74.14 128.959 74.42 128.506 74.98C128.066 75.54 127.833 76.38 127.806 77.5V82H125.446V72.28H127.506L127.766 73.96ZM141.107 76.32C141.88 76.32 142.774 76.4467 143.787 76.7V75.74C143.787 75.06 143.647 74.56 143.367 74.24C143.1 73.9067 142.654 73.74 142.027 73.74C141.414 73.74 140.94 73.8667 140.607 74.12C140.274 74.36 140.107 74.7067 140.107 75.16H137.527C137.527 74.0533 137.914 73.2533 138.687 72.76C139.474 72.2667 140.567 72.02 141.967 72.02C143.967 72.02 145.26 72.72 145.847 74.12C146.047 74.6 146.147 75.1667 146.147 75.82V82H144.087L143.907 80.7C143.28 81.7533 142.32 82.28 141.027 82.28C139.774 82.28 138.8 81.9733 138.107 81.36C137.467 80.7733 137.147 80.0333 137.147 79.14C137.147 78.2333 137.5 77.54 138.207 77.06C138.914 76.5667 139.88 76.32 141.107 76.32ZM143.787 78.2C143 77.9867 142.267 77.88 141.587 77.88C140.307 77.88 139.667 78.3067 139.667 79.16C139.667 79.52 139.814 79.8333 140.107 80.1C140.4 80.3533 140.867 80.48 141.507 80.48C142.16 80.48 142.694 80.2667 143.107 79.84C143.534 79.4 143.76 78.8533 143.787 78.2ZM158.227 74.12C158.853 72.72 159.953 72.02 161.527 72.02C162.687 72.02 163.587 72.4133 164.227 73.2C164.84 73.9467 165.147 74.9867 165.147 76.32V82H162.767V76.32C162.767 75.6 162.593 75.06 162.247 74.7C161.9 74.3267 161.413 74.14 160.787 74.14C160.16 74.14 159.647 74.4133 159.247 74.96C158.847 75.5067 158.633 76.3333 158.607 77.44V82H156.247V76.32C156.247 75.6 156.073 75.06 155.727 74.7C155.38 74.3267 154.893 74.14 154.267 74.14C153.64 74.14 153.1 74.42 152.647 74.98C152.207 75.54 151.973 76.38 151.947 77.5V82H149.587V72.28H151.647L151.907 73.96C152.547 72.6667 153.573 72.02 154.987 72.02C155.8 72.02 156.473 72.2067 157.007 72.58C157.553 72.9533 157.96 73.4667 158.227 74.12ZM175.351 73.44C175.684 73.8667 175.931 74.36 176.091 74.92C176.264 75.48 176.351 75.9933 176.351 76.46C176.351 76.9267 176.324 77.3467 176.271 77.72H169.991C170.018 78.5067 170.211 79.1467 170.571 79.64C170.931 80.1333 171.478 80.38 172.211 80.38C173.184 80.38 173.764 79.9533 173.951 79.1H176.331C176.171 80.0733 175.724 80.84 174.991 81.4C174.231 81.9867 173.304 82.28 172.211 82.28C170.931 82.28 169.858 81.8133 168.991 80.88C168.098 79.9067 167.651 78.66 167.651 77.14C167.651 75.58 168.098 74.3267 168.991 73.38C169.844 72.4733 170.918 72.02 172.211 72.02C173.558 72.02 174.604 72.4933 175.351 73.44ZM172.231 73.9C171.564 73.9 171.044 74.12 170.671 74.56C170.298 74.9867 170.078 75.54 170.011 76.22H174.151C174.151 75.1667 173.818 74.46 173.151 74.1C172.898 73.9667 172.591 73.9 172.231 73.9ZM184.435 72.26H186.795V82H184.435V72.26ZM184.155 69.14C184.155 68.7133 184.282 68.38 184.535 68.14C184.788 67.8867 185.148 67.76 185.615 67.76C186.068 67.76 186.422 67.8867 186.675 68.14C186.942 68.38 187.075 68.7133 187.075 69.14C187.075 69.5667 186.942 69.9067 186.675 70.16C186.422 70.4 186.068 70.52 185.615 70.52C185.148 70.52 184.788 70.4 184.535 70.16C184.282 69.9067 184.155 69.5667 184.155 69.14ZM189.738 72.28H191.178V71.14C191.178 70.14 191.471 69.3733 192.058 68.84C192.591 68.36 193.284 68.12 194.138 68.12C194.684 68.12 195.358 68.2 196.158 68.36L195.698 70.18C195.324 70.0467 194.984 69.98 194.678 69.98C194.384 69.98 194.124 70.0667 193.898 70.24C193.671 70.4 193.558 70.7067 193.558 71.16V72.28H195.338V73.86H193.558V82H191.178V73.86H189.738V72.28ZM40.34 104.76C39.46 105.107 38.7667 105.28 38.26 105.28C37.7533 105.28 37.3067 105.22 36.92 105.1C36.5467 104.98 36.2133 104.8 35.92 104.56C35.3067 104.013 35 103.26 35 102.3V96.86H33.64V95.28H35V92.72H37.36V95.28H40V96.86H37.36V102.22C37.36 103.02 37.74 103.42 38.5 103.42C38.8867 103.42 39.3867 103.313 40 103.1L40.34 104.76ZM45.1106 96.86C45.7773 95.6333 46.7506 95.02 48.0306 95.02C49.3106 95.02 50.2506 95.4133 50.8506 96.2C51.464 96.9867 51.7706 98.0267 51.7706 99.32V105H49.4106V99.32C49.4106 98.6 49.2373 98.06 48.8906 97.7C48.544 97.3267 48.0573 97.14 47.4306 97.14C46.804 97.14 46.264 97.42 45.8106 97.98C45.3706 98.54 45.1373 99.38 45.1106 100.5V105H42.7506V91.28H45.1106V96.86ZM58.4116 99.32C59.1849 99.32 60.0782 99.4467 61.0916 99.7V98.74C61.0916 98.06 60.9516 97.56 60.6716 97.24C60.4049 96.9067 59.9582 96.74 59.3316 96.74C58.7182 96.74 58.2449 96.8667 57.9116 97.12C57.5782 97.36 57.4116 97.7067 57.4116 98.16H54.8316C54.8316 97.0533 55.2182 96.2533 55.9916 95.76C56.7782 95.2667 57.8716 95.02 59.2716 95.02C61.2716 95.02 62.5649 95.72 63.1516 97.12C63.3516 97.6 63.4516 98.1667 63.4516 98.82V105H61.3916L61.2116 103.7C60.5849 104.753 59.6249 105.28 58.3316 105.28C57.0782 105.28 56.1049 104.973 55.4116 104.36C54.7716 103.773 54.4516 103.033 54.4516 102.14C54.4516 101.233 54.8049 100.54 55.5116 100.06C56.2182 99.5667 57.1849 99.32 58.4116 99.32ZM61.0916 101.2C60.3049 100.987 59.5716 100.88 58.8916 100.88C57.6116 100.88 56.9716 101.307 56.9716 102.16C56.9716 102.52 57.1182 102.833 57.4116 103.1C57.7049 103.353 58.1716 103.48 58.8116 103.48C59.4649 103.48 59.9982 103.267 60.4116 102.84C60.8382 102.4 61.0649 101.853 61.0916 101.2ZM72.3713 104.76C71.4913 105.107 70.7979 105.28 70.2913 105.28C69.7846 105.28 69.3379 105.22 68.9513 105.1C68.5779 104.98 68.2446 104.8 67.9513 104.56C67.3379 104.013 67.0313 103.26 67.0313 102.3V96.86H65.6713V95.28H67.0313V92.72H69.3913V95.28H72.0313V96.86H69.3913V102.22C69.3913 103.02 69.7713 103.42 70.5313 103.42C70.9179 103.42 71.4179 103.313 72.0313 103.1L72.3713 104.76ZM74.0019 93.38C74.0019 92.98 74.1552 92.6467 74.4619 92.38C74.7685 92.1 75.1819 91.96 75.7019 91.96C76.2352 91.96 76.6685 92.1733 77.0019 92.6C77.3485 93.0133 77.5219 93.5333 77.5219 94.16C77.5219 94.7733 77.3019 95.38 76.8619 95.98C76.4352 96.58 75.8619 97.06 75.1419 97.42L73.5019 96.52C74.5285 96 75.1485 95.4133 75.3619 94.76C74.9752 94.6933 74.6485 94.5467 74.3819 94.32C74.1285 94.0933 74.0019 93.78 74.0019 93.38ZM81.5316 102.04C81.5582 102.96 82.2316 103.42 83.5516 103.42C84.0582 103.42 84.4716 103.313 84.7916 103.1C85.1249 102.873 85.2916 102.613 85.2916 102.32C85.2916 102.027 85.1916 101.8 84.9916 101.64C84.7916 101.48 84.4782 101.333 84.0516 101.2L81.9316 100.44C80.3582 99.8933 79.5716 99 79.5716 97.76C79.5716 96.9333 79.9382 96.2733 80.6716 95.78C81.4182 95.2733 82.4116 95.02 83.6516 95.02C84.9049 95.02 85.8649 95.2933 86.5316 95.84C87.2116 96.3867 87.5649 97.0733 87.5916 97.9H85.3716C85.3449 97.58 85.1916 97.3267 84.9116 97.14C84.6316 96.9533 84.2316 96.86 83.7116 96.86C83.1916 96.86 82.7849 96.9667 82.4916 97.18C82.2116 97.38 82.0716 97.6133 82.0716 97.88C82.0716 98.3467 82.4649 98.6933 83.2516 98.92L85.5516 99.78C86.3116 100.033 86.8916 100.36 87.2916 100.76C87.7049 101.147 87.9116 101.653 87.9116 102.28C87.9116 103.08 87.5316 103.773 86.7716 104.36C85.9849 104.973 84.9449 105.28 83.6516 105.28C82.3582 105.28 81.3182 105 80.5316 104.44C79.7449 103.867 79.3449 103.067 79.3316 102.04H81.5316ZM102.597 96.44C102.93 96.8667 103.177 97.36 103.337 97.92C103.51 98.48 103.597 98.9933 103.597 99.46C103.597 99.9267 103.57 100.347 103.517 100.72H97.237C97.2637 101.507 97.457 102.147 97.817 102.64C98.177 103.133 98.7237 103.38 99.457 103.38C100.43 103.38 101.01 102.953 101.197 102.1H103.577C103.417 103.073 102.97 103.84 102.237 104.4C101.477 104.987 100.55 105.28 99.457 105.28C98.177 105.28 97.1037 104.813 96.237 103.88C95.3437 102.907 94.897 101.66 94.897 100.14C94.897 98.58 95.3437 97.3267 96.237 96.38C97.0904 95.4733 98.1637 95.02 99.457 95.02C100.804 95.02 101.85 95.4933 102.597 96.44ZM99.477 96.9C98.8104 96.9 98.2904 97.12 97.917 97.56C97.5437 97.9867 97.3237 98.54 97.257 99.22H101.397C101.397 98.1667 101.064 97.46 100.397 97.1C100.144 96.9667 99.837 96.9 99.477 96.9ZM109.623 99.32C110.396 99.32 111.289 99.4467 112.303 99.7V98.74C112.303 98.06 112.163 97.56 111.883 97.24C111.616 96.9067 111.169 96.74 110.543 96.74C109.929 96.74 109.456 96.8667 109.123 97.12C108.789 97.36 108.623 97.7067 108.623 98.16H106.043C106.043 97.0533 106.429 96.2533 107.202 95.76C107.989 95.2667 109.083 95.02 110.483 95.02C112.483 95.02 113.776 95.72 114.363 97.12C114.562 97.6 114.662 98.1667 114.662 98.82V105H112.603L112.423 103.7C111.796 104.753 110.836 105.28 109.543 105.28C108.289 105.28 107.316 104.973 106.623 104.36C105.983 103.773 105.663 103.033 105.663 102.14C105.663 101.233 106.016 100.54 106.723 100.06C107.429 99.5667 108.396 99.32 109.623 99.32ZM112.303 101.2C111.516 100.987 110.783 100.88 110.103 100.88C108.823 100.88 108.183 101.307 108.183 102.16C108.183 102.52 108.329 102.833 108.623 103.1C108.916 103.353 109.383 103.48 110.023 103.48C110.676 103.48 111.209 103.267 111.623 102.84C112.049 102.4 112.276 101.853 112.303 101.2ZM119.422 102.04C119.449 102.96 120.122 103.42 121.442 103.42C121.949 103.42 122.362 103.313 122.682 103.1C123.016 102.873 123.182 102.613 123.182 102.32C123.182 102.027 123.082 101.8 122.882 101.64C122.682 101.48 122.369 101.333 121.942 101.2L119.822 100.44C118.249 99.8933 117.462 99 117.462 97.76C117.462 96.9333 117.829 96.2733 118.562 95.78C119.309 95.2733 120.302 95.02 121.542 95.02C122.796 95.02 123.756 95.2933 124.422 95.84C125.102 96.3867 125.456 97.0733 125.482 97.9H123.262C123.236 97.58 123.082 97.3267 122.802 97.14C122.522 96.9533 122.122 96.86 121.602 96.86C121.082 96.86 120.676 96.9667 120.382 97.18C120.102 97.38 119.962 97.6133 119.962 97.88C119.962 98.3467 120.356 98.6933 121.142 98.92L123.442 99.78C124.202 100.033 124.782 100.36 125.182 100.76C125.596 101.147 125.802 101.653 125.802 102.28C125.802 103.08 125.422 103.773 124.662 104.36C123.876 104.973 122.836 105.28 121.542 105.28C120.249 105.28 119.209 105 118.422 104.44C117.636 103.867 117.236 103.067 117.222 102.04H119.422ZM128.849 95.26H131.209V105H128.849V95.26ZM128.569 92.14C128.569 91.7133 128.696 91.38 128.949 91.14C129.202 90.8867 129.562 90.76 130.029 90.76C130.482 90.76 130.836 90.8867 131.089 91.14C131.356 91.38 131.489 91.7133 131.489 92.14C131.489 92.5667 131.356 92.9067 131.089 93.16C130.836 93.4 130.482 93.52 130.029 93.52C129.562 93.52 129.202 93.4 128.949 93.16C128.696 92.9067 128.569 92.5667 128.569 92.14ZM141.992 96.44C142.325 96.8667 142.572 97.36 142.732 97.92C142.905 98.48 142.992 98.9933 142.992 99.46C142.992 99.9267 142.965 100.347 142.912 100.72H136.632C136.658 101.507 136.852 102.147 137.212 102.64C137.572 103.133 138.118 103.38 138.852 103.38C139.825 103.38 140.405 102.953 140.592 102.1H142.972C142.812 103.073 142.365 103.84 141.632 104.4C140.872 104.987 139.945 105.28 138.852 105.28C137.572 105.28 136.498 104.813 135.632 103.88C134.738 102.907 134.292 101.66 134.292 100.14C134.292 98.58 134.738 97.3267 135.632 96.38C136.485 95.4733 137.558 95.02 138.852 95.02C140.198 95.02 141.245 95.4933 141.992 96.44ZM138.872 96.9C138.205 96.9 137.685 97.12 137.312 97.56C136.938 97.9867 136.718 98.54 136.652 99.22H140.792C140.792 98.1667 140.458 97.46 139.792 97.1C139.538 96.9667 139.232 96.9 138.872 96.9ZM148.177 97.2C148.764 95.8 149.644 95.1 150.817 95.1C151.044 95.1 151.33 95.1467 151.677 95.24L151.637 97.6C151.264 97.52 150.897 97.48 150.537 97.48C148.964 97.48 148.177 98.5667 148.177 100.74V105H145.817V95.26H148.177V97.2ZM154.637 89.92C157.424 92.4 158.817 95.3067 158.817 98.64C158.817 101.947 157.424 104.853 154.637 107.36L152.917 106.08C154.077 104.88 154.944 103.687 155.517 102.5C156.091 101.3 156.377 100.013 156.377 98.64C156.377 97.2667 156.084 95.98 155.497 94.78C154.924 93.5667 154.064 92.36 152.917 91.16L154.637 89.92ZM169.985 95.38C169.985 96.0867 169.812 96.68 169.465 97.16C169.118 97.6267 168.572 98.0467 167.825 98.42C167.198 98.74 166.785 99.0133 166.585 99.24C166.398 99.4667 166.278 99.68 166.225 99.88C166.172 100.067 166.145 100.287 166.145 100.54V101.12H163.785V100.32C163.785 99.12 164.145 98.2667 164.865 97.76C165.118 97.5733 165.492 97.3533 165.985 97.1C166.478 96.8467 166.832 96.5933 167.045 96.34C167.272 96.0733 167.385 95.74 167.385 95.34C167.385 94.9267 167.218 94.5867 166.885 94.32C166.552 94.04 166.058 93.9 165.405 93.9C164.752 93.9 164.238 94.06 163.865 94.38C163.492 94.6867 163.278 95.0933 163.225 95.6H160.765C160.832 94.44 161.258 93.5133 162.045 92.82C162.832 92.1133 163.932 91.76 165.345 91.76C166.772 91.76 167.898 92.1067 168.725 92.8C169.565 93.4933 169.985 94.3533 169.985 95.38ZM163.385 103.7C163.385 103.247 163.532 102.873 163.825 102.58C164.132 102.287 164.525 102.14 165.005 102.14C165.498 102.14 165.905 102.287 166.225 102.58C166.545 102.873 166.705 103.247 166.705 103.7C166.705 104.153 166.545 104.533 166.225 104.84C165.905 105.133 165.498 105.28 165.005 105.28C164.525 105.28 164.132 105.133 163.825 104.84C163.532 104.533 163.385 104.153 163.385 103.7Z" fill="black"/>
</svg>
