<svg width="234" height="155" viewBox="0 0 234 155" fill="none" xmlns="http://www.w3.org/2000/svg">
<path fill-rule="evenodd" clip-rule="evenodd" d="M117 155C181.617 155 234 120.302 234 77.5C234 34.6979 181.617 0 117 0C52.3827 0 0 34.6979 0 77.5C0 93.4755 7.2974 108.322 19.8047 120.657L8.36784 139.704H47.2005C66.6859 149.313 90.8404 155 117 155Z" fill="white"/>
<path d="M38.86 59.02H41.82L46.08 72H43.58L42.68 69.2H37.86L36.94 72H34.44L38.86 59.02ZM38.46 67.42H42.1L40.3 61.84L38.46 67.42ZM48.3795 58.28H50.7395V72H48.3795V58.28ZM63.0938 64.12C63.7204 62.72 64.8204 62.02 66.3938 62.02C67.5538 62.02 68.4538 62.4133 69.0938 63.2C69.7071 63.9467 70.0138 64.9867 70.0138 66.32V72H67.6338V66.32C67.6338 65.6 67.4604 65.06 67.1138 64.7C66.7671 64.3267 66.2804 64.14 65.6538 64.14C65.0271 64.14 64.5138 64.4133 64.1138 64.96C63.7138 65.5067 63.5004 66.3333 63.4738 67.44V72H61.1138V66.32C61.1138 65.6 60.9404 65.06 60.5938 64.7C60.2471 64.3267 59.7604 64.14 59.1338 64.14C58.5071 64.14 57.9671 64.42 57.5138 64.98C57.0738 65.54 56.8404 66.38 56.8138 67.5V72H54.4538V62.28H56.5138L56.7738 63.96C57.4138 62.6667 58.4404 62.02 59.8538 62.02C60.6671 62.02 61.3404 62.2067 61.8738 62.58C62.4204 62.9533 62.8271 63.4667 63.0938 64.12ZM77.2581 62.02C77.9115 62.02 78.5248 62.1267 79.0981 62.34C79.6715 62.54 80.1648 62.8533 80.5781 63.28C81.4981 64.2133 81.9581 65.5067 81.9581 67.16C81.9581 68.7867 81.4981 70.0667 80.5781 71C79.7515 71.8533 78.6448 72.28 77.2581 72.28C75.8715 72.28 74.7515 71.8533 73.8981 71C72.9781 70.08 72.5181 68.8 72.5181 67.16C72.5181 65.4933 72.9781 64.2 73.8981 63.28C74.7381 62.44 75.8581 62.02 77.2581 62.02ZM79.5981 67.14C79.5981 66.1133 79.3981 65.3467 78.9981 64.84C78.5981 64.32 78.0381 64.06 77.3181 64.06C76.6115 64.06 76.0315 64.32 75.5781 64.84C75.1248 65.3467 74.8981 66.1133 74.8981 67.14C74.8981 68.1667 75.0981 68.94 75.4981 69.46C75.9115 69.9667 76.4715 70.22 77.1781 70.22C77.8848 70.22 78.4648 69.9667 78.9181 69.46C79.3715 68.94 79.5981 68.1667 79.5981 67.14ZM86.0863 69.04C86.1129 69.96 86.7863 70.42 88.1063 70.42C88.6129 70.42 89.0263 70.3133 89.3463 70.1C89.6796 69.8733 89.8463 69.6133 89.8463 69.32C89.8463 69.0267 89.7463 68.8 89.5463 68.64C89.3463 68.48 89.0329 68.3333 88.6063 68.2L86.4863 67.44C84.9129 66.8933 84.1263 66 84.1263 64.76C84.1263 63.9333 84.4929 63.2733 85.2263 62.78C85.9729 62.2733 86.9663 62.02 88.2063 62.02C89.4596 62.02 90.4196 62.2933 91.0863 62.84C91.7663 63.3867 92.1196 64.0733 92.1463 64.9H89.9263C89.8996 64.58 89.7463 64.3267 89.4663 64.14C89.1863 63.9533 88.7863 63.86 88.2663 63.86C87.7463 63.86 87.3396 63.9667 87.0463 64.18C86.7663 64.38 86.6263 64.6133 86.6263 64.88C86.6263 65.3467 87.0196 65.6933 87.8063 65.92L90.1063 66.78C90.8663 67.0333 91.4463 67.36 91.8463 67.76C92.2596 68.1467 92.4663 68.6533 92.4663 69.28C92.4663 70.08 92.0863 70.7733 91.3263 71.36C90.5396 71.9733 89.4996 72.28 88.2063 72.28C86.9129 72.28 85.8729 72 85.0863 71.44C84.2996 70.8667 83.8996 70.0667 83.8863 69.04H86.0863ZM100.793 71.76C99.9131 72.1067 99.2198 72.28 98.7131 72.28C98.2065 72.28 97.7598 72.22 97.3731 72.1C96.9998 71.98 96.6665 71.8 96.3731 71.56C95.7598 71.0133 95.4531 70.26 95.4531 69.3V63.86H94.0931V62.28H95.4531V59.72H97.8131V62.28H100.453V63.86H97.8131V69.22C97.8131 70.02 98.1931 70.42 98.9531 70.42C99.3398 70.42 99.8398 70.3133 100.453 70.1L100.793 71.76ZM114.602 70.5C114.002 71.6867 113.082 72.28 111.842 72.28C110.602 72.28 109.562 71.8067 108.722 70.86C107.856 69.8733 107.422 68.62 107.422 67.1C107.422 65.58 107.836 64.3467 108.662 63.4C109.476 62.48 110.489 62.02 111.702 62.02C112.916 62.02 113.829 62.5067 114.442 63.48V58.28H116.822V72H114.882L114.602 70.5ZM112.142 64.14C111.476 64.14 110.916 64.4133 110.462 64.96C110.022 65.4933 109.802 66.2133 109.802 67.12C109.802 68.0267 110.029 68.76 110.482 69.32C110.936 69.8667 111.509 70.14 112.202 70.14C112.776 70.14 113.289 69.9133 113.742 69.46C114.209 68.9933 114.442 68.4067 114.442 67.7V66.44C114.416 65.7467 114.182 65.18 113.742 64.74C113.342 64.34 112.809 64.14 112.142 64.14ZM124.368 62.02C125.021 62.02 125.634 62.1267 126.208 62.34C126.781 62.54 127.274 62.8533 127.688 63.28C128.608 64.2133 129.068 65.5067 129.068 67.16C129.068 68.7867 128.608 70.0667 127.688 71C126.861 71.8533 125.754 72.28 124.368 72.28C122.981 72.28 121.861 71.8533 121.008 71C120.088 70.08 119.628 68.8 119.628 67.16C119.628 65.4933 120.088 64.2 121.008 63.28C121.848 62.44 122.968 62.02 124.368 62.02ZM126.708 67.14C126.708 66.1133 126.508 65.3467 126.108 64.84C125.708 64.32 125.148 64.06 124.428 64.06C123.721 64.06 123.141 64.32 122.688 64.84C122.234 65.3467 122.008 66.1133 122.008 67.14C122.008 68.1667 122.208 68.94 122.608 69.46C123.021 69.9667 123.581 70.22 124.288 70.22C124.994 70.22 125.574 69.9667 126.028 69.46C126.481 68.94 126.708 68.1667 126.708 67.14ZM134.196 63.96C134.836 62.6667 135.862 62.02 137.276 62.02C138.476 62.02 139.376 62.4133 139.976 63.2C140.589 63.9867 140.896 65.0267 140.896 66.32V72H138.536V66.32C138.536 65.6 138.362 65.06 138.016 64.7C137.669 64.3267 137.182 64.14 136.556 64.14C135.929 64.14 135.389 64.42 134.936 64.98C134.496 65.54 134.262 66.38 134.236 67.5V72H131.876V62.28H133.936L134.196 63.96ZM151.117 63.44C151.45 63.8667 151.697 64.36 151.857 64.92C152.03 65.48 152.117 65.9933 152.117 66.46C152.117 66.9267 152.09 67.3467 152.037 67.72H145.757C145.783 68.5067 145.977 69.1467 146.337 69.64C146.697 70.1333 147.243 70.38 147.977 70.38C148.95 70.38 149.53 69.9533 149.717 69.1H152.097C151.937 70.0733 151.49 70.84 150.757 71.4C149.997 71.9867 149.07 72.28 147.977 72.28C146.697 72.28 145.623 71.8133 144.757 70.88C143.863 69.9067 143.417 68.66 143.417 67.14C143.417 65.58 143.863 64.3267 144.757 63.38C145.61 62.4733 146.683 62.02 147.977 62.02C149.323 62.02 150.37 62.4933 151.117 63.44ZM147.997 63.9C147.33 63.9 146.81 64.12 146.437 64.56C146.063 64.9867 145.843 65.54 145.777 66.22H149.917C149.917 65.1667 149.583 64.46 148.917 64.1C148.663 63.9667 148.357 63.9 147.997 63.9ZM154.802 58.72H157.362L157.082 67.62H155.062L154.802 58.72ZM156.082 72.18C155.602 72.18 155.209 72.0333 154.902 71.74C154.595 71.4467 154.442 71.0733 154.442 70.62C154.442 70.1667 154.595 69.7867 154.902 69.48C155.209 69.1733 155.602 69.02 156.082 69.02C156.562 69.02 156.962 69.1733 157.282 69.48C157.602 69.7867 157.762 70.1667 157.762 70.62C157.762 71.0733 157.602 71.4467 157.282 71.74C156.962 72.0333 156.562 72.18 156.082 72.18Z" fill="#7075A5"/>
<path d="M37.04 82.02L39.9 91.88L42.68 82.88H44.28L47.22 91.92L50.26 82.02H52.92L48.46 95H45.98L43.54 87.68L41.12 95H38.64L34.4 82.02H37.04ZM57.5364 86.86C58.2031 85.6333 59.1764 85.02 60.4564 85.02C61.7364 85.02 62.6764 85.4133 63.2764 86.2C63.8897 86.9867 64.1964 88.0267 64.1964 89.32V95H61.8364V89.32C61.8364 88.6 61.6631 88.06 61.3164 87.7C60.9697 87.3267 60.4831 87.14 59.8564 87.14C59.2297 87.14 58.6897 87.42 58.2364 87.98C57.7964 88.54 57.5631 89.38 57.5364 90.5V95H55.1764V81.28H57.5364V86.86ZM70.8373 89.32C71.6107 89.32 72.504 89.4467 73.5173 89.7V88.74C73.5173 88.06 73.3773 87.56 73.0973 87.24C72.8307 86.9067 72.384 86.74 71.7573 86.74C71.144 86.74 70.6707 86.8667 70.3373 87.12C70.004 87.36 69.8373 87.7067 69.8373 88.16H67.2573C67.2573 87.0533 67.644 86.2533 68.4173 85.76C69.204 85.2667 70.2973 85.02 71.6973 85.02C73.6973 85.02 74.9907 85.72 75.5773 87.12C75.7773 87.6 75.8773 88.1667 75.8773 88.82V95H73.8173L73.6373 93.7C73.0107 94.7533 72.0507 95.28 70.7573 95.28C69.504 95.28 68.5307 94.9733 67.8373 94.36C67.1973 93.7733 66.8773 93.0333 66.8773 92.14C66.8773 91.2333 67.2307 90.54 67.9373 90.06C68.644 89.5667 69.6107 89.32 70.8373 89.32ZM73.5173 91.2C72.7307 90.9867 71.9973 90.88 71.3173 90.88C70.0373 90.88 69.3973 91.3067 69.3973 92.16C69.3973 92.52 69.544 92.8333 69.8373 93.1C70.1307 93.3533 70.5973 93.48 71.2373 93.48C71.8907 93.48 72.424 93.2667 72.8373 92.84C73.264 92.4 73.4907 91.8533 73.5173 91.2ZM84.797 94.76C83.917 95.1067 83.2237 95.28 82.717 95.28C82.2104 95.28 81.7637 95.22 81.377 95.1C81.0037 94.98 80.6704 94.8 80.377 94.56C79.7637 94.0133 79.457 93.26 79.457 92.3V86.86H78.097V85.28H79.457V82.72H81.817V85.28H84.457V86.86H81.817V92.22C81.817 93.02 82.197 93.42 82.957 93.42C83.3437 93.42 83.8437 93.3133 84.457 93.1L84.797 94.76ZM86.4277 83.38C86.4277 82.98 86.581 82.6467 86.8877 82.38C87.1943 82.1 87.6077 81.96 88.1277 81.96C88.661 81.96 89.0943 82.1733 89.4277 82.6C89.7743 83.0133 89.9477 83.5333 89.9477 84.16C89.9477 84.7733 89.7277 85.38 89.2877 85.98C88.861 86.58 88.2877 87.06 87.5677 87.42L85.9277 86.52C86.9543 86 87.5743 85.4133 87.7877 84.76C87.401 84.6933 87.0743 84.5467 86.8077 84.32C86.5543 84.0933 86.4277 83.78 86.4277 83.38ZM93.9573 92.04C93.984 92.96 94.6573 93.42 95.9773 93.42C96.484 93.42 96.8973 93.3133 97.2173 93.1C97.5507 92.8733 97.7173 92.6133 97.7173 92.32C97.7173 92.0267 97.6173 91.8 97.4173 91.64C97.2173 91.48 96.904 91.3333 96.4773 91.2L94.3573 90.44C92.784 89.8933 91.9973 89 91.9973 87.76C91.9973 86.9333 92.364 86.2733 93.0973 85.78C93.844 85.2733 94.8373 85.02 96.0773 85.02C97.3307 85.02 98.2907 85.2933 98.9573 85.84C99.6373 86.3867 99.9907 87.0733 100.017 87.9H97.7973C97.7707 87.58 97.6173 87.3267 97.3373 87.14C97.0573 86.9533 96.6573 86.86 96.1373 86.86C95.6173 86.86 95.2107 86.9667 94.9173 87.18C94.6373 87.38 94.4973 87.6133 94.4973 87.88C94.4973 88.3467 94.8907 88.6933 95.6773 88.92L97.9773 89.78C98.7373 90.0333 99.3173 90.36 99.7173 90.76C100.131 91.1467 100.337 91.6533 100.337 92.28C100.337 93.08 99.9573 93.7733 99.1973 94.36C98.4107 94.9733 97.3707 95.28 96.0773 95.28C94.784 95.28 93.744 95 92.9573 94.44C92.1707 93.8667 91.7707 93.0667 91.7573 92.04H93.9573ZM109.443 85.28L111.783 92.28L113.823 85.28H116.223L112.503 96.76C112.116 97.92 111.643 98.7533 111.083 99.26C110.536 99.7667 109.836 100.02 108.983 100.02C108.116 100.02 107.249 99.8067 106.383 99.38V97.3C107.076 97.74 107.776 97.96 108.483 97.96C108.949 97.96 109.329 97.7733 109.623 97.4C109.929 97.0267 110.176 96.54 110.363 95.94L110.663 95L106.763 85.28H109.443ZM122.141 85.02C122.794 85.02 123.408 85.1267 123.981 85.34C124.554 85.54 125.048 85.8533 125.461 86.28C126.381 87.2133 126.841 88.5067 126.841 90.16C126.841 91.7867 126.381 93.0667 125.461 94C124.634 94.8533 123.528 95.28 122.141 95.28C120.754 95.28 119.634 94.8533 118.781 94C117.861 93.08 117.401 91.8 117.401 90.16C117.401 88.4933 117.861 87.2 118.781 86.28C119.621 85.44 120.741 85.02 122.141 85.02ZM124.481 90.14C124.481 89.1133 124.281 88.3467 123.881 87.84C123.481 87.32 122.921 87.06 122.201 87.06C121.494 87.06 120.914 87.32 120.461 87.84C120.008 88.3467 119.781 89.1133 119.781 90.14C119.781 91.1667 119.981 91.94 120.381 92.46C120.794 92.9667 121.354 93.22 122.061 93.22C122.768 93.22 123.348 92.9667 123.801 92.46C124.254 91.94 124.481 91.1667 124.481 90.14ZM136.109 93.24C135.496 94.5333 134.509 95.18 133.149 95.18C131.429 95.18 130.296 94.5067 129.749 93.16C129.549 92.6933 129.449 92.1267 129.449 91.46V85.26H131.809V91.22C131.809 91.86 131.962 92.34 132.269 92.66C132.576 92.9667 132.949 93.12 133.389 93.12C133.842 93.12 134.222 93.06 134.529 92.94C134.836 92.8067 135.102 92.6133 135.329 92.36C135.822 91.7867 136.082 91.02 136.109 90.06V85.26H138.469V95H136.109V93.24ZM144.548 87.2C145.135 85.8 146.015 85.1 147.188 85.1C147.415 85.1 147.701 85.1467 148.048 85.24L148.008 87.6C147.635 87.52 147.268 87.48 146.908 87.48C145.335 87.48 144.548 88.5667 144.548 90.74V95H142.188V85.26H144.548V87.2ZM162.347 86.44C162.68 86.8667 162.927 87.36 163.087 87.92C163.26 88.48 163.347 88.9933 163.347 89.46C163.347 89.9267 163.32 90.3467 163.267 90.72H156.987C157.014 91.5067 157.207 92.1467 157.567 92.64C157.927 93.1333 158.474 93.38 159.207 93.38C160.18 93.38 160.76 92.9533 160.947 92.1H163.327C163.167 93.0733 162.72 93.84 161.987 94.4C161.227 94.9867 160.3 95.28 159.207 95.28C157.927 95.28 156.854 94.8133 155.987 93.88C155.094 92.9067 154.647 91.66 154.647 90.14C154.647 88.58 155.094 87.3267 155.987 86.38C156.84 85.4733 157.914 85.02 159.207 85.02C160.554 85.02 161.6 85.4933 162.347 86.44ZM159.227 86.9C158.56 86.9 158.04 87.12 157.667 87.56C157.294 87.9867 157.074 88.54 157.007 89.22H161.147C161.147 88.1667 160.814 87.46 160.147 87.1C159.894 86.9667 159.587 86.9 159.227 86.9ZM174.813 87.12C175.439 85.72 176.539 85.02 178.113 85.02C179.273 85.02 180.173 85.4133 180.813 86.2C181.426 86.9467 181.733 87.9867 181.733 89.32V95H179.353V89.32C179.353 88.6 179.179 88.06 178.833 87.7C178.486 87.3267 177.999 87.14 177.373 87.14C176.746 87.14 176.233 87.4133 175.833 87.96C175.433 88.5067 175.219 89.3333 175.193 90.44V95H172.833V89.32C172.833 88.6 172.659 88.06 172.313 87.7C171.966 87.3267 171.479 87.14 170.853 87.14C170.226 87.14 169.686 87.42 169.233 87.98C168.793 88.54 168.559 89.38 168.533 90.5V95H166.173V85.28H168.233L168.493 86.96C169.133 85.6667 170.159 85.02 171.573 85.02C172.386 85.02 173.059 85.2067 173.593 85.58C174.139 85.9533 174.546 86.4667 174.813 87.12ZM188.357 89.32C189.13 89.32 190.024 89.4467 191.037 89.7V88.74C191.037 88.06 190.897 87.56 190.617 87.24C190.35 86.9067 189.904 86.74 189.277 86.74C188.664 86.74 188.19 86.8667 187.857 87.12C187.524 87.36 187.357 87.7067 187.357 88.16H184.777C184.777 87.0533 185.164 86.2533 185.937 85.76C186.724 85.2667 187.817 85.02 189.217 85.02C191.217 85.02 192.51 85.72 193.097 87.12C193.297 87.6 193.397 88.1667 193.397 88.82V95H191.337L191.157 93.7C190.53 94.7533 189.57 95.28 188.277 95.28C187.024 95.28 186.05 94.9733 185.357 94.36C184.717 93.7733 184.397 93.0333 184.397 92.14C184.397 91.2333 184.75 90.54 185.457 90.06C186.164 89.5667 187.13 89.32 188.357 89.32ZM191.037 91.2C190.25 90.9867 189.517 90.88 188.837 90.88C187.557 90.88 186.917 91.3067 186.917 92.16C186.917 92.52 187.064 92.8333 187.357 93.1C187.65 93.3533 188.117 93.48 188.757 93.48C189.41 93.48 189.944 93.2667 190.357 92.84C190.784 92.4 191.01 91.8533 191.037 91.2ZM197.037 85.26H199.397V95H197.037V85.26ZM196.757 82.14C196.757 81.7133 196.883 81.38 197.137 81.14C197.39 80.8867 197.75 80.76 198.217 80.76C198.67 80.76 199.023 80.8867 199.277 81.14C199.543 81.38 199.677 81.7133 199.677 82.14C199.677 82.5667 199.543 82.9067 199.277 83.16C199.023 83.4 198.67 83.52 198.217 83.52C197.75 83.52 197.39 83.4 197.137 83.16C196.883 82.9067 196.757 82.5667 196.757 82.14ZM203.399 81.28H205.759V95H203.399V81.28ZM217.313 85.38C217.313 86.0867 217.14 86.68 216.793 87.16C216.447 87.6267 215.9 88.0467 215.153 88.42C214.527 88.74 214.113 89.0133 213.913 89.24C213.727 89.4667 213.607 89.68 213.553 89.88C213.5 90.0667 213.473 90.2867 213.473 90.54V91.12H211.113V90.32C211.113 89.12 211.473 88.2667 212.193 87.76C212.447 87.5733 212.82 87.3533 213.313 87.1C213.807 86.8467 214.16 86.5933 214.373 86.34C214.6 86.0733 214.713 85.74 214.713 85.34C214.713 84.9267 214.547 84.5867 214.213 84.32C213.88 84.04 213.387 83.9 212.733 83.9C212.08 83.9 211.567 84.06 211.193 84.38C210.82 84.6867 210.607 85.0933 210.553 85.6H208.093C208.16 84.44 208.587 83.5133 209.373 82.82C210.16 82.1133 211.26 81.76 212.673 81.76C214.1 81.76 215.227 82.1067 216.053 82.8C216.893 83.4933 217.313 84.3533 217.313 85.38ZM210.713 93.7C210.713 93.2467 210.86 92.8733 211.153 92.58C211.46 92.2867 211.853 92.14 212.333 92.14C212.827 92.14 213.233 92.2867 213.553 92.58C213.873 92.8733 214.033 93.2467 214.033 93.7C214.033 94.1533 213.873 94.5333 213.553 94.84C213.233 95.1333 212.827 95.28 212.333 95.28C211.853 95.28 211.46 95.1333 211.153 94.84C210.86 94.5333 210.713 94.1533 210.713 93.7Z" fill="#181827"/>
</svg>
