<svg width="234" height="155" viewBox="0 0 234 155" fill="none" xmlns="http://www.w3.org/2000/svg">
<path fill-rule="evenodd" clip-rule="evenodd" d="M117 155C181.617 155 234 120.302 234 77.5C234 34.6979 181.617 0 117 0C52.3827 0 0 34.6979 0 77.5C0 93.4755 7.29737 108.322 19.8046 120.657L8.36772 139.704H47.2005C66.6859 149.313 90.8404 155 117 155Z" fill="white"/>
<path d="M17.86 60.02H20.82L25.08 73H22.58L21.68 70.2H16.86L15.94 73H13.44L17.86 60.02ZM17.46 68.42H21.1L19.3 62.84L17.46 68.42ZM29.7395 65.2C30.3262 63.8 31.2062 63.1 32.3795 63.1C32.6062 63.1 32.8929 63.1467 33.2395 63.24L33.1995 65.6C32.8262 65.52 32.4595 65.48 32.0995 65.48C30.5262 65.48 29.7395 66.5667 29.7395 68.74V73H27.3795V63.26H29.7395V65.2ZM42.4798 64.44C42.8132 64.8667 43.0598 65.36 43.2198 65.92C43.3932 66.48 43.4798 66.9933 43.4798 67.46C43.4798 67.9267 43.4532 68.3467 43.3998 68.72H37.1198C37.1465 69.5067 37.3398 70.1467 37.6998 70.64C38.0598 71.1333 38.6065 71.38 39.3398 71.38C40.3132 71.38 40.8932 70.9533 41.0798 70.1H43.4598C43.2998 71.0733 42.8532 71.84 42.1198 72.4C41.3598 72.9867 40.4332 73.28 39.3398 73.28C38.0598 73.28 36.9865 72.8133 36.1198 71.88C35.2265 70.9067 34.7798 69.66 34.7798 68.14C34.7798 66.58 35.2265 65.3267 36.1198 64.38C36.9732 63.4733 38.0465 63.02 39.3398 63.02C40.6865 63.02 41.7332 63.4933 42.4798 64.44ZM39.3598 64.9C38.6932 64.9 38.1732 65.12 37.7998 65.56C37.4265 65.9867 37.2065 66.54 37.1398 67.22H41.2798C41.2798 66.1667 40.9465 65.46 40.2798 65.1C40.0265 64.9667 39.7198 64.9 39.3598 64.9ZM52.5639 63.28L54.9039 70.28L56.9439 63.28H59.3439L55.6239 74.76C55.2372 75.92 54.7639 76.7533 54.2039 77.26C53.6572 77.7667 52.9572 78.02 52.1039 78.02C51.2372 78.02 50.3706 77.8067 49.5039 77.38V75.3C50.1972 75.74 50.8972 75.96 51.6039 75.96C52.0706 75.96 52.4506 75.7733 52.7439 75.4C53.0506 75.0267 53.2972 74.54 53.4839 73.94L53.7839 73L49.8839 63.28H52.5639ZM65.262 63.02C65.9154 63.02 66.5287 63.1267 67.102 63.34C67.6754 63.54 68.1687 63.8533 68.582 64.28C69.502 65.2133 69.962 66.5067 69.962 68.16C69.962 69.7867 69.502 71.0667 68.582 72C67.7554 72.8533 66.6487 73.28 65.262 73.28C63.8754 73.28 62.7554 72.8533 61.902 72C60.982 71.08 60.522 69.8 60.522 68.16C60.522 66.4933 60.982 65.2 61.902 64.28C62.742 63.44 63.862 63.02 65.262 63.02ZM67.602 68.14C67.602 67.1133 67.402 66.3467 67.002 65.84C66.602 65.32 66.042 65.06 65.322 65.06C64.6154 65.06 64.0354 65.32 63.582 65.84C63.1287 66.3467 62.902 67.1133 62.902 68.14C62.902 69.1667 63.102 69.94 63.502 70.46C63.9154 70.9667 64.4754 71.22 65.182 71.22C65.8887 71.22 66.4687 70.9667 66.922 70.46C67.3754 69.94 67.602 69.1667 67.602 68.14ZM79.2302 71.24C78.6168 72.5333 77.6302 73.18 76.2702 73.18C74.5502 73.18 73.4168 72.5067 72.8702 71.16C72.6702 70.6933 72.5702 70.1267 72.5702 69.46V63.26H74.9302V69.22C74.9302 69.86 75.0835 70.34 75.3902 70.66C75.6968 70.9667 76.0702 71.12 76.5102 71.12C76.9635 71.12 77.3435 71.06 77.6502 70.94C77.9568 70.8067 78.2235 70.6133 78.4502 70.36C78.9435 69.7867 79.2035 69.02 79.2302 68.06V63.26H81.5902V73H79.2302V71.24ZM90.5678 63.26H92.9278V73H90.5678V63.26ZM90.2878 60.14C90.2878 59.7133 90.4145 59.38 90.6678 59.14C90.9211 58.8867 91.2811 58.76 91.7478 58.76C92.2011 58.76 92.5545 58.8867 92.8078 59.14C93.0745 59.38 93.2078 59.7133 93.2078 60.14C93.2078 60.5667 93.0745 60.9067 92.8078 61.16C92.5545 61.4 92.2011 61.52 91.7478 61.52C91.2811 61.52 90.9211 61.4 90.6678 61.16C90.4145 60.9067 90.2878 60.5667 90.2878 60.14ZM99.2503 64.96C99.8903 63.6667 100.917 63.02 102.33 63.02C103.53 63.02 104.43 63.4133 105.03 64.2C105.644 64.9867 105.95 66.0267 105.95 67.32V73H103.59V67.32C103.59 66.6 103.417 66.06 103.07 65.7C102.724 65.3267 102.237 65.14 101.61 65.14C100.984 65.14 100.444 65.42 99.9903 65.98C99.5503 66.54 99.317 67.38 99.2903 68.5V73H96.9303V63.28H98.9903L99.2503 64.96ZM114.871 72.76C113.991 73.1067 113.298 73.28 112.791 73.28C112.285 73.28 111.838 73.22 111.451 73.1C111.078 72.98 110.745 72.8 110.451 72.56C109.838 72.0133 109.531 71.26 109.531 70.3V64.86H108.171V63.28H109.531V60.72H111.891V63.28H114.531V64.86H111.891V70.22C111.891 71.02 112.271 71.42 113.031 71.42C113.418 71.42 113.918 71.3133 114.531 71.1L114.871 72.76ZM124.062 64.44C124.395 64.8667 124.642 65.36 124.802 65.92C124.975 66.48 125.062 66.9933 125.062 67.46C125.062 67.9267 125.035 68.3467 124.982 68.72H118.702C118.729 69.5067 118.922 70.1467 119.282 70.64C119.642 71.1333 120.189 71.38 120.922 71.38C121.895 71.38 122.475 70.9533 122.662 70.1H125.042C124.882 71.0733 124.435 71.84 123.702 72.4C122.942 72.9867 122.015 73.28 120.922 73.28C119.642 73.28 118.569 72.8133 117.702 71.88C116.809 70.9067 116.362 69.66 116.362 68.14C116.362 66.58 116.809 65.3267 117.702 64.38C118.555 63.4733 119.629 63.02 120.922 63.02C122.269 63.02 123.315 63.4933 124.062 64.44ZM120.942 64.9C120.275 64.9 119.755 65.12 119.382 65.56C119.009 65.9867 118.789 66.54 118.722 67.22H122.862C122.862 66.1667 122.529 65.46 121.862 65.1C121.609 64.9667 121.302 64.9 120.942 64.9ZM130.247 65.2C130.834 63.8 131.714 63.1 132.887 63.1C133.114 63.1 133.401 63.1467 133.747 63.24L133.707 65.6C133.334 65.52 132.967 65.48 132.607 65.48C131.034 65.48 130.247 66.5667 130.247 68.74V73H127.887V63.26H130.247V65.2ZM142.988 64.44C143.321 64.8667 143.568 65.36 143.728 65.92C143.901 66.48 143.988 66.9933 143.988 67.46C143.988 67.9267 143.961 68.3467 143.908 68.72H137.628C137.654 69.5067 137.848 70.1467 138.208 70.64C138.568 71.1333 139.114 71.38 139.848 71.38C140.821 71.38 141.401 70.9533 141.588 70.1H143.968C143.808 71.0733 143.361 71.84 142.628 72.4C141.868 72.9867 140.941 73.28 139.848 73.28C138.568 73.28 137.494 72.8133 136.628 71.88C135.734 70.9067 135.288 69.66 135.288 68.14C135.288 66.58 135.734 65.3267 136.628 64.38C137.481 63.4733 138.554 63.02 139.848 63.02C141.194 63.02 142.241 63.4933 142.988 64.44ZM139.868 64.9C139.201 64.9 138.681 65.12 138.308 65.56C137.934 65.9867 137.714 66.54 137.648 67.22H141.788C141.788 66.1667 141.454 65.46 140.788 65.1C140.534 64.9667 140.228 64.9 139.868 64.9ZM148.133 70.04C148.16 70.96 148.833 71.42 150.153 71.42C150.66 71.42 151.073 71.3133 151.393 71.1C151.726 70.8733 151.893 70.6133 151.893 70.32C151.893 70.0267 151.793 69.8 151.593 69.64C151.393 69.48 151.08 69.3333 150.653 69.2L148.533 68.44C146.96 67.8933 146.173 67 146.173 65.76C146.173 64.9333 146.54 64.2733 147.273 63.78C148.02 63.2733 149.013 63.02 150.253 63.02C151.506 63.02 152.466 63.2933 153.133 63.84C153.813 64.3867 154.166 65.0733 154.193 65.9H151.973C151.946 65.58 151.793 65.3267 151.513 65.14C151.233 64.9533 150.833 64.86 150.313 64.86C149.793 64.86 149.386 64.9667 149.093 65.18C148.813 65.38 148.673 65.6133 148.673 65.88C148.673 66.3467 149.066 66.6933 149.853 66.92L152.153 67.78C152.913 68.0333 153.493 68.36 153.893 68.76C154.306 69.1467 154.513 69.6533 154.513 70.28C154.513 71.08 154.133 71.7733 153.373 72.36C152.586 72.9733 151.546 73.28 150.253 73.28C148.96 73.28 147.92 73 147.133 72.44C146.346 71.8667 145.946 71.0667 145.933 70.04H148.133ZM162.84 72.76C161.96 73.1067 161.267 73.28 160.76 73.28C160.253 73.28 159.807 73.22 159.42 73.1C159.047 72.98 158.713 72.8 158.42 72.56C157.807 72.0133 157.5 71.26 157.5 70.3V64.86H156.14V63.28H157.5V60.72H159.86V63.28H162.5V64.86H159.86V70.22C159.86 71.02 160.24 71.42 161 71.42C161.387 71.42 161.887 71.3133 162.5 71.1L162.84 72.76ZM172.031 64.44C172.364 64.8667 172.611 65.36 172.771 65.92C172.944 66.48 173.031 66.9933 173.031 67.46C173.031 67.9267 173.004 68.3467 172.951 68.72H166.671C166.697 69.5067 166.891 70.1467 167.251 70.64C167.611 71.1333 168.157 71.38 168.891 71.38C169.864 71.38 170.444 70.9533 170.631 70.1H173.011C172.851 71.0733 172.404 71.84 171.671 72.4C170.911 72.9867 169.984 73.28 168.891 73.28C167.611 73.28 166.537 72.8133 165.671 71.88C164.777 70.9067 164.331 69.66 164.331 68.14C164.331 66.58 164.777 65.3267 165.671 64.38C166.524 63.4733 167.597 63.02 168.891 63.02C170.237 63.02 171.284 63.4933 172.031 64.44ZM168.911 64.9C168.244 64.9 167.724 65.12 167.351 65.56C166.977 65.9867 166.757 66.54 166.691 67.22H170.831C170.831 66.1667 170.497 65.46 169.831 65.1C169.577 64.9667 169.271 64.9 168.911 64.9ZM182.196 71.5C181.596 72.6867 180.676 73.28 179.436 73.28C178.196 73.28 177.156 72.8067 176.316 71.86C175.449 70.8733 175.016 69.62 175.016 68.1C175.016 66.58 175.429 65.3467 176.256 64.4C177.069 63.48 178.083 63.02 179.296 63.02C180.509 63.02 181.423 63.5067 182.036 64.48V59.28H184.416V73H182.476L182.196 71.5ZM179.736 65.14C179.069 65.14 178.509 65.4133 178.056 65.96C177.616 66.4933 177.396 67.2133 177.396 68.12C177.396 69.0267 177.623 69.76 178.076 70.32C178.529 70.8667 179.103 71.14 179.796 71.14C180.369 71.14 180.883 70.9133 181.336 70.46C181.803 69.9933 182.036 69.4067 182.036 68.7V67.44C182.009 66.7467 181.776 66.18 181.336 65.74C180.936 65.34 180.403 65.14 179.736 65.14ZM193.4 63.26H195.76V73H193.4V63.26ZM193.12 60.14C193.12 59.7133 193.247 59.38 193.5 59.14C193.753 58.8867 194.113 58.76 194.58 58.76C195.033 58.76 195.387 58.8867 195.64 59.14C195.907 59.38 196.04 59.7133 196.04 60.14C196.04 60.5667 195.907 60.9067 195.64 61.16C195.387 61.4 195.033 61.52 194.58 61.52C194.113 61.52 193.753 61.4 193.5 61.16C193.247 60.9067 193.12 60.5667 193.12 60.14ZM202.082 64.96C202.722 63.6667 203.749 63.02 205.162 63.02C206.362 63.02 207.262 63.4133 207.862 64.2C208.476 64.9867 208.782 66.0267 208.782 67.32V73H206.422V67.32C206.422 66.6 206.249 66.06 205.902 65.7C205.556 65.3267 205.069 65.14 204.442 65.14C203.816 65.14 203.276 65.42 202.822 65.98C202.382 66.54 202.149 67.38 202.122 68.5V73H199.762V63.28H201.822L202.082 64.96ZM14.86 83.02H23.04V85.06H17.22V88.48H22.54V90.5H17.22V96H14.86V83.02ZM31.933 87.44C32.2663 87.8667 32.513 88.36 32.673 88.92C32.8463 89.48 32.933 89.9933 32.933 90.46C32.933 90.9267 32.9063 91.3467 32.853 91.72H26.573C26.5996 92.5067 26.793 93.1467 27.153 93.64C27.513 94.1333 28.0596 94.38 28.793 94.38C29.7663 94.38 30.3463 93.9533 30.533 93.1H32.913C32.753 94.0733 32.3063 94.84 31.573 95.4C30.813 95.9867 29.8863 96.28 28.793 96.28C27.513 96.28 26.4396 95.8133 25.573 94.88C24.6796 93.9067 24.233 92.66 24.233 91.14C24.233 89.58 24.6796 88.3267 25.573 87.38C26.4263 86.4733 27.4996 86.02 28.793 86.02C30.1396 86.02 31.1863 86.4933 31.933 87.44ZM28.813 87.9C28.1463 87.9 27.6263 88.12 27.253 88.56C26.8796 88.9867 26.6596 89.54 26.593 90.22H30.733C30.733 89.1667 30.3996 88.46 29.733 88.1C29.4796 87.9667 29.173 87.9 28.813 87.9ZM44.3984 88.12C45.0251 86.72 46.1251 86.02 47.6984 86.02C48.8584 86.02 49.7584 86.4133 50.3984 87.2C51.0118 87.9467 51.3184 88.9867 51.3184 90.32V96H48.9384V90.32C48.9384 89.6 48.7651 89.06 48.4184 88.7C48.0718 88.3267 47.5851 88.14 46.9584 88.14C46.3318 88.14 45.8184 88.4133 45.4184 88.96C45.0184 89.5067 44.8051 90.3333 44.7784 91.44V96H42.4184V90.32C42.4184 89.6 42.2451 89.06 41.8984 88.7C41.5518 88.3267 41.0651 88.14 40.4384 88.14C39.8118 88.14 39.2718 88.42 38.8184 88.98C38.3784 89.54 38.1451 90.38 38.1184 91.5V96H35.7584V86.28H37.8184L38.0784 87.96C38.7184 86.6667 39.7451 86.02 41.1584 86.02C41.9718 86.02 42.6451 86.2067 43.1784 86.58C43.7251 86.9533 44.1318 87.4667 44.3984 88.12ZM57.9428 90.32C58.7161 90.32 59.6095 90.4467 60.6228 90.7V89.74C60.6228 89.06 60.4828 88.56 60.2028 88.24C59.9361 87.9067 59.4895 87.74 58.8628 87.74C58.2495 87.74 57.7761 87.8667 57.4428 88.12C57.1095 88.36 56.9428 88.7067 56.9428 89.16H54.3628C54.3628 88.0533 54.7495 87.2533 55.5228 86.76C56.3095 86.2667 57.4028 86.02 58.8028 86.02C60.8028 86.02 62.0961 86.72 62.6828 88.12C62.8828 88.6 62.9828 89.1667 62.9828 89.82V96H60.9228L60.7428 94.7C60.1161 95.7533 59.1561 96.28 57.8628 96.28C56.6095 96.28 55.6361 95.9733 54.9428 95.36C54.3028 94.7733 53.9828 94.0333 53.9828 93.14C53.9828 92.2333 54.3361 91.54 55.0428 91.06C55.7495 90.5667 56.7161 90.32 57.9428 90.32ZM60.6228 92.2C59.8361 91.9867 59.1028 91.88 58.4228 91.88C57.1428 91.88 56.5028 92.3067 56.5028 93.16C56.5028 93.52 56.6495 93.8333 56.9428 94.1C57.2361 94.3533 57.7028 94.48 58.3428 94.48C58.9961 94.48 59.5295 94.2667 59.9428 93.84C60.3695 93.4 60.5961 92.8533 60.6228 92.2ZM66.4225 82.28H68.7825V96H66.4225V82.28ZM79.2767 87.44C79.6101 87.8667 79.8567 88.36 80.0167 88.92C80.1901 89.48 80.2767 89.9933 80.2767 90.46C80.2767 90.9267 80.2501 91.3467 80.1967 91.72H73.9167C73.9434 92.5067 74.1367 93.1467 74.4967 93.64C74.8567 94.1333 75.4034 94.38 76.1367 94.38C77.1101 94.38 77.6901 93.9533 77.8767 93.1H80.2567C80.0967 94.0733 79.6501 94.84 78.9167 95.4C78.1567 95.9867 77.2301 96.28 76.1367 96.28C74.8567 96.28 73.7834 95.8133 72.9167 94.88C72.0234 93.9067 71.5767 92.66 71.5767 91.14C71.5767 89.58 72.0234 88.3267 72.9167 87.38C73.7701 86.4733 74.8434 86.02 76.1367 86.02C77.4834 86.02 78.5301 86.4933 79.2767 87.44ZM76.1567 87.9C75.4901 87.9 74.9701 88.12 74.5967 88.56C74.2234 88.9867 74.0034 89.54 73.9367 90.22H78.0767C78.0767 89.1667 77.7434 88.46 77.0767 88.1C76.8234 87.9667 76.5167 87.9 76.1567 87.9ZM84.4222 93.04C84.4489 93.96 85.1222 94.42 86.4422 94.42C86.9489 94.42 87.3622 94.3133 87.6822 94.1C88.0155 93.8733 88.1822 93.6133 88.1822 93.32C88.1822 93.0267 88.0822 92.8 87.8822 92.64C87.6822 92.48 87.3689 92.3333 86.9422 92.2L84.8222 91.44C83.2489 90.8933 82.4622 90 82.4622 88.76C82.4622 87.9333 82.8289 87.2733 83.5622 86.78C84.3089 86.2733 85.3022 86.02 86.5422 86.02C87.7955 86.02 88.7555 86.2933 89.4222 86.84C90.1022 87.3867 90.4555 88.0733 90.4822 88.9H88.2622C88.2355 88.58 88.0822 88.3267 87.8022 88.14C87.5222 87.9533 87.1222 87.86 86.6022 87.86C86.0822 87.86 85.6755 87.9667 85.3822 88.18C85.1022 88.38 84.9622 88.6133 84.9622 88.88C84.9622 89.3467 85.3555 89.6933 86.1422 89.92L88.4422 90.78C89.2022 91.0333 89.7822 91.36 90.1822 91.76C90.5955 92.1467 90.8022 92.6533 90.8022 93.28C90.8022 94.08 90.4222 94.7733 89.6622 95.36C88.8755 95.9733 87.8355 96.28 86.5422 96.28C85.2489 96.28 84.2089 96 83.4222 95.44C82.6355 94.8667 82.2355 94.0667 82.2222 93.04H84.4222ZM102.528 86.02C103.181 86.02 103.794 86.1267 104.368 86.34C104.941 86.54 105.434 86.8533 105.848 87.28C106.768 88.2133 107.228 89.5067 107.228 91.16C107.228 92.7867 106.768 94.0667 105.848 95C105.021 95.8533 103.914 96.28 102.528 96.28C101.141 96.28 100.021 95.8533 99.1677 95C98.2477 94.08 97.7877 92.8 97.7877 91.16C97.7877 89.4933 98.2477 88.2 99.1677 87.28C100.008 86.44 101.128 86.02 102.528 86.02ZM104.868 91.14C104.868 90.1133 104.668 89.3467 104.268 88.84C103.868 88.32 103.308 88.06 102.588 88.06C101.881 88.06 101.301 88.32 100.848 88.84C100.394 89.3467 100.168 90.1133 100.168 91.14C100.168 92.1667 100.368 92.94 100.768 93.46C101.181 93.9667 101.741 94.22 102.448 94.22C103.154 94.22 103.734 93.9667 104.188 93.46C104.641 92.94 104.868 92.1667 104.868 91.14ZM112.396 88.2C112.982 86.8 113.862 86.1 115.036 86.1C115.262 86.1 115.549 86.1467 115.896 86.24L115.856 88.6C115.482 88.52 115.116 88.48 114.756 88.48C113.182 88.48 112.396 89.5667 112.396 91.74V96H110.036V86.26H112.396V88.2ZM126.795 83.02L130.355 90.74L133.915 83.02H137.175V96H134.795V86.14L131.115 94.58H129.575L125.775 85.86V96H123.415V83.02H126.795ZM144.095 90.32C144.868 90.32 145.762 90.4467 146.775 90.7V89.74C146.775 89.06 146.635 88.56 146.355 88.24C146.088 87.9067 145.642 87.74 145.015 87.74C144.402 87.74 143.928 87.8667 143.595 88.12C143.262 88.36 143.095 88.7067 143.095 89.16H140.515C140.515 88.0533 140.902 87.2533 141.675 86.76C142.462 86.2667 143.555 86.02 144.955 86.02C146.955 86.02 148.248 86.72 148.835 88.12C149.035 88.6 149.135 89.1667 149.135 89.82V96H147.075L146.895 94.7C146.268 95.7533 145.308 96.28 144.015 96.28C142.762 96.28 141.788 95.9733 141.095 95.36C140.455 94.7733 140.135 94.0333 140.135 93.14C140.135 92.2333 140.488 91.54 141.195 91.06C141.902 90.5667 142.868 90.32 144.095 90.32ZM146.775 92.2C145.988 91.9867 145.255 91.88 144.575 91.88C143.295 91.88 142.655 92.3067 142.655 93.16C142.655 93.52 142.802 93.8333 143.095 94.1C143.388 94.3533 143.855 94.48 144.495 94.48C145.148 94.48 145.682 94.2667 146.095 93.84C146.522 93.4 146.748 92.8533 146.775 92.2ZM152.575 82.28H154.935V96H152.575V82.28ZM165.429 87.44C165.762 87.8667 166.009 88.36 166.169 88.92C166.342 89.48 166.429 89.9933 166.429 90.46C166.429 90.9267 166.402 91.3467 166.349 91.72H160.069C160.096 92.5067 160.289 93.1467 160.649 93.64C161.009 94.1333 161.556 94.38 162.289 94.38C163.262 94.38 163.842 93.9533 164.029 93.1H166.409C166.249 94.0733 165.802 94.84 165.069 95.4C164.309 95.9867 163.382 96.28 162.289 96.28C161.009 96.28 159.936 95.8133 159.069 94.88C158.176 93.9067 157.729 92.66 157.729 91.14C157.729 89.58 158.176 88.3267 159.069 87.38C159.922 86.4733 160.996 86.02 162.289 86.02C163.636 86.02 164.682 86.4933 165.429 87.44ZM162.309 87.9C161.642 87.9 161.122 88.12 160.749 88.56C160.376 88.9867 160.156 89.54 160.089 90.22H164.229C164.229 89.1667 163.896 88.46 163.229 88.1C162.976 87.9667 162.669 87.9 162.309 87.9ZM170.575 93.04C170.601 93.96 171.275 94.42 172.595 94.42C173.101 94.42 173.515 94.3133 173.835 94.1C174.168 93.8733 174.335 93.6133 174.335 93.32C174.335 93.0267 174.235 92.8 174.035 92.64C173.835 92.48 173.521 92.3333 173.095 92.2L170.975 91.44C169.401 90.8933 168.615 90 168.615 88.76C168.615 87.9333 168.981 87.2733 169.715 86.78C170.461 86.2733 171.455 86.02 172.695 86.02C173.948 86.02 174.908 86.2933 175.575 86.84C176.255 87.3867 176.608 88.0733 176.635 88.9H174.415C174.388 88.58 174.235 88.3267 173.955 88.14C173.675 87.9533 173.275 87.86 172.755 87.86C172.235 87.86 171.828 87.9667 171.535 88.18C171.255 88.38 171.115 88.6133 171.115 88.88C171.115 89.3467 171.508 89.6933 172.295 89.92L174.595 90.78C175.355 91.0333 175.935 91.36 176.335 91.76C176.748 92.1467 176.955 92.6533 176.955 93.28C176.955 94.08 176.575 94.7733 175.815 95.36C175.028 95.9733 173.988 96.28 172.695 96.28C171.401 96.28 170.361 96 169.575 95.44C168.788 94.8667 168.388 94.0667 168.375 93.04H170.575ZM187.641 86.38C187.641 87.0867 187.468 87.68 187.121 88.16C186.775 88.6267 186.228 89.0467 185.481 89.42C184.855 89.74 184.441 90.0133 184.241 90.24C184.055 90.4667 183.935 90.68 183.881 90.88C183.828 91.0667 183.801 91.2867 183.801 91.54V92.12H181.441V91.32C181.441 90.12 181.801 89.2667 182.521 88.76C182.775 88.5733 183.148 88.3533 183.641 88.1C184.135 87.8467 184.488 87.5933 184.701 87.34C184.928 87.0733 185.041 86.74 185.041 86.34C185.041 85.9267 184.875 85.5867 184.541 85.32C184.208 85.04 183.715 84.9 183.061 84.9C182.408 84.9 181.895 85.06 181.521 85.38C181.148 85.6867 180.935 86.0933 180.881 86.6H178.421C178.488 85.44 178.915 84.5133 179.701 83.82C180.488 83.1133 181.588 82.76 183.001 82.76C184.428 82.76 185.555 83.1067 186.381 83.8C187.221 84.4933 187.641 85.3533 187.641 86.38ZM181.041 94.7C181.041 94.2467 181.188 93.8733 181.481 93.58C181.788 93.2867 182.181 93.14 182.661 93.14C183.155 93.14 183.561 93.2867 183.881 93.58C184.201 93.8733 184.361 94.2467 184.361 94.7C184.361 95.1533 184.201 95.5333 183.881 95.84C183.561 96.1333 183.155 96.28 182.661 96.28C182.181 96.28 181.788 96.1333 181.481 95.84C181.188 95.5333 181.041 95.1533 181.041 94.7Z" fill="#181827"/>
</svg>
