<svg width="234" height="155" viewBox="0 0 234 155" fill="none" xmlns="http://www.w3.org/2000/svg">
<path fill-rule="evenodd" clip-rule="evenodd" d="M117 155C181.617 155 234 120.302 234 77.5C234 34.6979 181.617 0 117 0C52.3827 0 0 34.6979 0 77.5C0 93.4755 7.29737 108.322 19.8046 120.657L8.36772 139.704H47.2005C66.6859 149.313 90.8404 155 117 155Z" fill="white"/>
<path d="M27.22 52.02V57.44H32.88V52.02H35.24V65H32.88V59.5H27.22V65H24.86V52.02H27.22ZM39.1811 55.26H41.5411V65H39.1811V55.26ZM38.9011 52.14C38.9011 51.7133 39.0278 51.38 39.2811 51.14C39.5344 50.8867 39.8944 50.76 40.3611 50.76C40.8144 50.76 41.1678 50.8867 41.4211 51.14C41.6878 51.38 41.8211 51.7133 41.8211 52.14C41.8211 52.5667 41.6878 52.9067 41.4211 53.16C41.1678 53.4 40.8144 53.52 40.3611 53.52C39.8944 53.52 39.5344 53.4 39.2811 53.16C39.0278 52.9067 38.9011 52.5667 38.9011 52.14ZM45.4036 51.72H47.9636L47.6836 60.62H45.6636L45.4036 51.72ZM46.6836 65.18C46.2036 65.18 45.8103 65.0333 45.5036 64.74C45.1969 64.4467 45.0436 64.0733 45.0436 63.62C45.0436 63.1667 45.1969 62.7867 45.5036 62.48C45.8103 62.1733 46.2036 62.02 46.6836 62.02C47.1636 62.02 47.5636 62.1733 47.8836 62.48C48.2036 62.7867 48.3636 63.1667 48.3636 63.62C48.3636 64.0733 48.2036 64.4467 47.8836 64.74C47.5636 65.0333 47.1636 65.18 46.6836 65.18ZM58.8216 62.94H64.1616V65H56.4616V52.02H58.8216V62.94ZM73.1244 56.44C73.4577 56.8667 73.7044 57.36 73.8644 57.92C74.0377 58.48 74.1244 58.9933 74.1244 59.46C74.1244 59.9267 74.0977 60.3467 74.0444 60.72H67.7644C67.791 61.5067 67.9844 62.1467 68.3444 62.64C68.7044 63.1333 69.251 63.38 69.9844 63.38C70.9577 63.38 71.5377 62.9533 71.7244 62.1H74.1044C73.9444 63.0733 73.4977 63.84 72.7644 64.4C72.0044 64.9867 71.0777 65.28 69.9844 65.28C68.7044 65.28 67.631 64.8133 66.7644 63.88C65.871 62.9067 65.4244 61.66 65.4244 60.14C65.4244 58.58 65.871 57.3267 66.7644 56.38C67.6177 55.4733 68.691 55.02 69.9844 55.02C71.331 55.02 72.3777 55.4933 73.1244 56.44ZM70.0044 56.9C69.3377 56.9 68.8177 57.12 68.4444 57.56C68.071 57.9867 67.851 58.54 67.7844 59.22H71.9244C71.9244 58.1667 71.591 57.46 70.9244 57.1C70.671 56.9667 70.3644 56.9 70.0044 56.9ZM82.4298 64.76C81.5498 65.1067 80.8565 65.28 80.3498 65.28C79.8432 65.28 79.3965 65.22 79.0098 65.1C78.6365 64.98 78.3032 64.8 78.0098 64.56C77.3965 64.0133 77.0898 63.26 77.0898 62.3V56.86H75.7298V55.28H77.0898V52.72H79.4498V55.28H82.0898V56.86H79.4498V62.22C79.4498 63.02 79.8298 63.42 80.5898 63.42C80.9765 63.42 81.4765 63.3133 82.0898 63.1L82.4298 64.76ZM84.0605 53.38C84.0605 52.98 84.2138 52.6467 84.5205 52.38C84.8271 52.1 85.2405 51.96 85.7605 51.96C86.2938 51.96 86.7271 52.1733 87.0605 52.6C87.4071 53.0133 87.5805 53.5333 87.5805 54.16C87.5805 54.7733 87.3605 55.38 86.9205 55.98C86.4938 56.58 85.9205 57.06 85.2005 57.42L83.5605 56.52C84.5871 56 85.2071 55.4133 85.4205 54.76C85.0338 54.6933 84.7071 54.5467 84.4405 54.32C84.1871 54.0933 84.0605 53.78 84.0605 53.38ZM91.5902 62.04C91.6168 62.96 92.2902 63.42 93.6102 63.42C94.1168 63.42 94.5302 63.3133 94.8502 63.1C95.1835 62.8733 95.3502 62.6133 95.3502 62.32C95.3502 62.0267 95.2502 61.8 95.0502 61.64C94.8502 61.48 94.5368 61.3333 94.1102 61.2L91.9902 60.44C90.4168 59.8933 89.6302 59 89.6302 57.76C89.6302 56.9333 89.9968 56.2733 90.7302 55.78C91.4768 55.2733 92.4702 55.02 93.7102 55.02C94.9635 55.02 95.9235 55.2933 96.5902 55.84C97.2702 56.3867 97.6235 57.0733 97.6502 57.9H95.4302C95.4035 57.58 95.2502 57.3267 94.9702 57.14C94.6902 56.9533 94.2902 56.86 93.7702 56.86C93.2502 56.86 92.8435 56.9667 92.5502 57.18C92.2702 57.38 92.1302 57.6133 92.1302 57.88C92.1302 58.3467 92.5235 58.6933 93.3102 58.92L95.6102 59.78C96.3702 60.0333 96.9502 60.36 97.3502 60.76C97.7635 61.1467 97.9702 61.6533 97.9702 62.28C97.9702 63.08 97.5902 63.7733 96.8302 64.36C96.0435 64.9733 95.0035 65.28 93.7102 65.28C92.4168 65.28 91.3768 65 90.5902 64.44C89.8035 63.8667 89.4035 63.0667 89.3902 62.04H91.5902ZM106.716 61.02C105.929 60.3533 105.536 59.52 105.536 58.52C105.536 57.4667 105.949 56.6133 106.776 55.96C107.576 55.3333 108.489 55.02 109.516 55.02C110.556 55.02 111.422 55.2133 112.116 55.6C112.196 54.84 112.522 54.2267 113.096 53.76C113.656 53.2933 114.316 53.06 115.076 53.06L114.956 55.32C113.809 55.32 113.216 55.7 113.176 56.46C113.669 57.0733 113.916 57.7 113.916 58.34C113.916 58.98 113.802 59.52 113.576 59.96C113.349 60.3867 113.042 60.7467 112.656 61.04C111.856 61.68 110.882 62 109.736 62C109.082 62 108.489 61.9 107.956 61.7C107.422 61.86 107.156 62.18 107.156 62.66C107.156 63.26 107.662 63.56 108.676 63.56H111.936C114.149 63.56 115.256 64.3333 115.256 65.88C115.256 66.4 115.122 66.9067 114.856 67.4C114.602 67.9067 114.229 68.3533 113.736 68.74C112.642 69.5933 111.269 70.02 109.616 70.02C108.016 70.02 106.716 69.6933 105.716 69.04C104.782 68.4133 104.316 67.6467 104.316 66.74C104.316 66.14 104.496 65.66 104.856 65.3C105.229 64.9533 105.716 64.7333 106.316 64.64C105.529 64.16 105.136 63.5667 105.136 62.86C105.136 62.3933 105.282 62.0067 105.576 61.7C105.869 61.38 106.249 61.1533 106.716 61.02ZM108.516 65.22C107.262 65.2733 106.636 65.7467 106.636 66.64C106.636 67.0933 106.896 67.4533 107.416 67.72C107.949 68 108.576 68.14 109.296 68.14C110.016 68.14 110.576 68.08 110.976 67.96C111.389 67.84 111.736 67.68 112.016 67.48C112.616 67.08 112.916 66.6 112.916 66.04C112.916 65.8 112.829 65.6 112.656 65.44C112.496 65.2933 112.256 65.22 111.936 65.22H108.516ZM111.576 58.5C111.576 57.9533 111.422 57.5133 111.116 57.18C110.822 56.8333 110.369 56.66 109.756 56.66C109.142 56.66 108.676 56.8333 108.356 57.18C108.036 57.5133 107.876 57.9533 107.876 58.5C107.876 59.0333 108.036 59.4733 108.356 59.82C108.676 60.1667 109.142 60.34 109.756 60.34C110.369 60.34 110.822 60.1667 111.116 59.82C111.422 59.4733 111.576 59.0333 111.576 58.5ZM124.296 56.44C124.63 56.8667 124.876 57.36 125.036 57.92C125.21 58.48 125.296 58.9933 125.296 59.46C125.296 59.9267 125.27 60.3467 125.216 60.72H118.936C118.963 61.5067 119.156 62.1467 119.516 62.64C119.876 63.1333 120.423 63.38 121.156 63.38C122.13 63.38 122.71 62.9533 122.896 62.1H125.276C125.116 63.0733 124.67 63.84 123.936 64.4C123.176 64.9867 122.25 65.28 121.156 65.28C119.876 65.28 118.803 64.8133 117.936 63.88C117.043 62.9067 116.596 61.66 116.596 60.14C116.596 58.58 117.043 57.3267 117.936 56.38C118.79 55.4733 119.863 55.02 121.156 55.02C122.503 55.02 123.55 55.4933 124.296 56.44ZM121.176 56.9C120.51 56.9 119.99 57.12 119.616 57.56C119.243 57.9867 119.023 58.54 118.956 59.22H123.096C123.096 58.1667 122.763 57.46 122.096 57.1C121.843 56.9667 121.536 56.9 121.176 56.9ZM133.602 64.76C132.722 65.1067 132.028 65.28 131.522 65.28C131.015 65.28 130.568 65.22 130.182 65.1C129.808 64.98 129.475 64.8 129.182 64.56C128.568 64.0133 128.262 63.26 128.262 62.3V56.86H126.902V55.28H128.262V52.72H130.622V55.28H133.262V56.86H130.622V62.22C130.622 63.02 131.002 63.42 131.762 63.42C132.148 63.42 132.648 63.3133 133.262 63.1L133.602 64.76ZM142.391 62.04C142.418 62.96 143.091 63.42 144.411 63.42C144.918 63.42 145.331 63.3133 145.651 63.1C145.984 62.8733 146.151 62.6133 146.151 62.32C146.151 62.0267 146.051 61.8 145.851 61.64C145.651 61.48 145.338 61.3333 144.911 61.2L142.791 60.44C141.218 59.8933 140.431 59 140.431 57.76C140.431 56.9333 140.798 56.2733 141.531 55.78C142.278 55.2733 143.271 55.02 144.511 55.02C145.764 55.02 146.724 55.2933 147.391 55.84C148.071 56.3867 148.424 57.0733 148.451 57.9H146.231C146.204 57.58 146.051 57.3267 145.771 57.14C145.491 56.9533 145.091 56.86 144.571 56.86C144.051 56.86 143.644 56.9667 143.351 57.18C143.071 57.38 142.931 57.6133 142.931 57.88C142.931 58.3467 143.324 58.6933 144.111 58.92L146.411 59.78C147.171 60.0333 147.751 60.36 148.151 60.76C148.564 61.1467 148.771 61.6533 148.771 62.28C148.771 63.08 148.391 63.7733 147.631 64.36C146.844 64.9733 145.804 65.28 144.511 65.28C143.218 65.28 142.178 65 141.391 64.44C140.604 63.8667 140.204 63.0667 140.191 62.04H142.391ZM157.098 64.76C156.218 65.1067 155.524 65.28 155.018 65.28C154.511 65.28 154.064 65.22 153.678 65.1C153.304 64.98 152.971 64.8 152.678 64.56C152.064 64.0133 151.758 63.26 151.758 62.3V56.86H150.398V55.28H151.758V52.72H154.118V55.28H156.758V56.86H154.118V62.22C154.118 63.02 154.498 63.42 155.258 63.42C155.644 63.42 156.144 63.3133 156.758 63.1L157.098 64.76ZM162.708 59.32C163.482 59.32 164.375 59.4467 165.388 59.7V58.74C165.388 58.06 165.248 57.56 164.968 57.24C164.702 56.9067 164.255 56.74 163.628 56.74C163.015 56.74 162.542 56.8667 162.208 57.12C161.875 57.36 161.708 57.7067 161.708 58.16H159.128C159.128 57.0533 159.515 56.2533 160.288 55.76C161.075 55.2667 162.168 55.02 163.568 55.02C165.568 55.02 166.862 55.72 167.448 57.12C167.648 57.6 167.748 58.1667 167.748 58.82V65H165.688L165.508 63.7C164.882 64.7533 163.922 65.28 162.628 65.28C161.375 65.28 160.402 64.9733 159.708 64.36C159.068 63.7733 158.748 63.0333 158.748 62.14C158.748 61.2333 159.102 60.54 159.808 60.06C160.515 59.5667 161.482 59.32 162.708 59.32ZM165.388 61.2C164.602 60.9867 163.868 60.88 163.188 60.88C161.908 60.88 161.268 61.3067 161.268 62.16C161.268 62.52 161.415 62.8333 161.708 63.1C162.002 63.3533 162.468 63.48 163.108 63.48C163.762 63.48 164.295 63.2667 164.708 62.84C165.135 62.4 165.362 61.8533 165.388 61.2ZM173.548 57.2C174.135 55.8 175.015 55.1 176.188 55.1C176.415 55.1 176.701 55.1467 177.048 55.24L177.008 57.6C176.635 57.52 176.268 57.48 175.908 57.48C174.335 57.48 173.548 58.5667 173.548 60.74V65H171.188V55.26H173.548V57.2ZM184.988 64.76C184.108 65.1067 183.415 65.28 182.908 65.28C182.402 65.28 181.955 65.22 181.568 65.1C181.195 64.98 180.862 64.8 180.568 64.56C179.955 64.0133 179.648 63.26 179.648 62.3V56.86H178.288V55.28H179.648V52.72H182.008V55.28H184.648V56.86H182.008V62.22C182.008 63.02 182.388 63.42 183.148 63.42C183.535 63.42 184.035 63.3133 184.648 63.1L184.988 64.76ZM194.179 56.44C194.512 56.8667 194.759 57.36 194.919 57.92C195.092 58.48 195.179 58.9933 195.179 59.46C195.179 59.9267 195.152 60.3467 195.099 60.72H188.819C188.846 61.5067 189.039 62.1467 189.399 62.64C189.759 63.1333 190.306 63.38 191.039 63.38C192.012 63.38 192.592 62.9533 192.779 62.1H195.159C194.999 63.0733 194.552 63.84 193.819 64.4C193.059 64.9867 192.132 65.28 191.039 65.28C189.759 65.28 188.686 64.8133 187.819 63.88C186.926 62.9067 186.479 61.66 186.479 60.14C186.479 58.58 186.926 57.3267 187.819 56.38C188.672 55.4733 189.746 55.02 191.039 55.02C192.386 55.02 193.432 55.4933 194.179 56.44ZM191.059 56.9C190.392 56.9 189.872 57.12 189.499 57.56C189.126 57.9867 188.906 58.54 188.839 59.22H192.979C192.979 58.1667 192.646 57.46 191.979 57.1C191.726 56.9667 191.419 56.9 191.059 56.9ZM204.345 63.5C203.745 64.6867 202.825 65.28 201.585 65.28C200.345 65.28 199.305 64.8067 198.465 63.86C197.598 62.8733 197.165 61.62 197.165 60.1C197.165 58.58 197.578 57.3467 198.405 56.4C199.218 55.48 200.231 55.02 201.445 55.02C202.658 55.02 203.571 55.5067 204.185 56.48V51.28H206.565V65H204.625L204.345 63.5ZM201.885 57.14C201.218 57.14 200.658 57.4133 200.205 57.96C199.765 58.4933 199.545 59.2133 199.545 60.12C199.545 61.0267 199.771 61.76 200.225 62.32C200.678 62.8667 201.251 63.14 201.945 63.14C202.518 63.14 203.031 62.9133 203.485 62.46C203.951 61.9933 204.185 61.4067 204.185 60.7V59.44C204.158 58.7467 203.925 58.18 203.485 57.74C203.085 57.34 202.551 57.14 201.885 57.14ZM210.55 65.18C210.07 65.18 209.676 65.0333 209.37 64.74C209.063 64.4467 208.91 64.0733 208.91 63.62C208.91 63.1667 209.063 62.7867 209.37 62.48C209.676 62.1733 210.07 62.02 210.55 62.02C211.03 62.02 211.43 62.1733 211.75 62.48C212.07 62.7867 212.23 63.1667 212.23 63.62C212.23 64.0733 212.07 64.4467 211.75 64.74C211.43 65.0333 211.03 65.18 210.55 65.18Z" fill="#7075A5"/>
<path d="M26.04 75.02L28.9 84.88L31.68 75.88H33.28L36.22 84.92L39.26 75.02H41.92L37.46 88H34.98L32.54 80.68L30.12 88H27.64L23.4 75.02H26.04ZM46.5364 79.86C47.2031 78.6333 48.1764 78.02 49.4564 78.02C50.7364 78.02 51.6764 78.4133 52.2764 79.2C52.8897 79.9867 53.1964 81.0267 53.1964 82.32V88H50.8364V82.32C50.8364 81.6 50.6631 81.06 50.3164 80.7C49.9697 80.3267 49.4831 80.14 48.8564 80.14C48.2297 80.14 47.6897 80.42 47.2364 80.98C46.7964 81.54 46.5631 82.38 46.5364 83.5V88H44.1764V74.28H46.5364V79.86ZM59.8373 82.32C60.6107 82.32 61.504 82.4467 62.5173 82.7V81.74C62.5173 81.06 62.3773 80.56 62.0973 80.24C61.8307 79.9067 61.384 79.74 60.7573 79.74C60.144 79.74 59.6707 79.8667 59.3373 80.12C59.004 80.36 58.8373 80.7067 58.8373 81.16H56.2573C56.2573 80.0533 56.644 79.2533 57.4173 78.76C58.204 78.2667 59.2973 78.02 60.6973 78.02C62.6973 78.02 63.9907 78.72 64.5773 80.12C64.7773 80.6 64.8773 81.1667 64.8773 81.82V88H62.8173L62.6373 86.7C62.0107 87.7533 61.0507 88.28 59.7573 88.28C58.504 88.28 57.5307 87.9733 56.8373 87.36C56.1973 86.7733 55.8773 86.0333 55.8773 85.14C55.8773 84.2333 56.2307 83.54 56.9373 83.06C57.644 82.5667 58.6107 82.32 59.8373 82.32ZM62.5173 84.2C61.7307 83.9867 60.9973 83.88 60.3173 83.88C59.0373 83.88 58.3973 84.3067 58.3973 85.16C58.3973 85.52 58.544 85.8333 58.8373 86.1C59.1307 86.3533 59.5973 86.48 60.2373 86.48C60.8907 86.48 61.424 86.2667 61.8373 85.84C62.264 85.4 62.4907 84.8533 62.5173 84.2ZM73.797 87.76C72.917 88.1067 72.2237 88.28 71.717 88.28C71.2104 88.28 70.7637 88.22 70.377 88.1C70.0037 87.98 69.6704 87.8 69.377 87.56C68.7637 87.0133 68.457 86.26 68.457 85.3V79.86H67.097V78.28H68.457V75.72H70.817V78.28H73.457V79.86H70.817V85.22C70.817 86.02 71.197 86.42 71.957 86.42C72.3437 86.42 72.8437 86.3133 73.457 86.1L73.797 87.76ZM82.1063 84.02C81.3196 83.3533 80.9263 82.52 80.9263 81.52C80.9263 80.4667 81.3396 79.6133 82.1663 78.96C82.9663 78.3333 83.8796 78.02 84.9063 78.02C85.9463 78.02 86.8129 78.2133 87.5063 78.6C87.5863 77.84 87.9129 77.2267 88.4863 76.76C89.0463 76.2933 89.7063 76.06 90.4663 76.06L90.3463 78.32C89.1996 78.32 88.6063 78.7 88.5663 79.46C89.0596 80.0733 89.3063 80.7 89.3063 81.34C89.3063 81.98 89.1929 82.52 88.9663 82.96C88.7396 83.3867 88.4329 83.7467 88.0463 84.04C87.2463 84.68 86.2729 85 85.1263 85C84.4729 85 83.8796 84.9 83.3463 84.7C82.8129 84.86 82.5463 85.18 82.5463 85.66C82.5463 86.26 83.0529 86.56 84.0663 86.56H87.3263C89.5396 86.56 90.6463 87.3333 90.6463 88.88C90.6463 89.4 90.5129 89.9067 90.2463 90.4C89.9929 90.9067 89.6196 91.3533 89.1263 91.74C88.0329 92.5933 86.6596 93.02 85.0063 93.02C83.4063 93.02 82.1063 92.6933 81.1063 92.04C80.1729 91.4133 79.7063 90.6467 79.7063 89.74C79.7063 89.14 79.8863 88.66 80.2463 88.3C80.6196 87.9533 81.1063 87.7333 81.7063 87.64C80.9196 87.16 80.5263 86.5667 80.5263 85.86C80.5263 85.3933 80.6729 85.0067 80.9663 84.7C81.2596 84.38 81.6396 84.1533 82.1063 84.02ZM83.9063 88.22C82.6529 88.2733 82.0263 88.7467 82.0263 89.64C82.0263 90.0933 82.2863 90.4533 82.8063 90.72C83.3396 91 83.9663 91.14 84.6862 91.14C85.4063 91.14 85.9663 91.08 86.3663 90.96C86.7796 90.84 87.1263 90.68 87.4063 90.48C88.0063 90.08 88.3063 89.6 88.3063 89.04C88.3063 88.8 88.2196 88.6 88.0463 88.44C87.8863 88.2933 87.6463 88.22 87.3263 88.22H83.9063ZM86.9663 81.5C86.9663 80.9533 86.8129 80.5133 86.5063 80.18C86.2129 79.8333 85.7596 79.66 85.1463 79.66C84.5329 79.66 84.0663 79.8333 83.7463 80.18C83.4263 80.5133 83.2663 80.9533 83.2663 81.5C83.2663 82.0333 83.4263 82.4733 83.7463 82.82C84.0663 83.1667 84.5329 83.34 85.1463 83.34C85.7596 83.34 86.2129 83.1667 86.5063 82.82C86.8129 82.4733 86.9663 82.0333 86.9663 81.5ZM99.6869 79.44C100.02 79.8667 100.267 80.36 100.427 80.92C100.6 81.48 100.687 81.9933 100.687 82.46C100.687 82.9267 100.66 83.3467 100.607 83.72H94.3269C94.3535 84.5067 94.5469 85.1467 94.9069 85.64C95.2669 86.1333 95.8135 86.38 96.5469 86.38C97.5202 86.38 98.1002 85.9533 98.2869 85.1H100.667C100.507 86.0733 100.06 86.84 99.3269 87.4C98.5669 87.9867 97.6402 88.28 96.5469 88.28C95.2669 88.28 94.1935 87.8133 93.3269 86.88C92.4335 85.9067 91.9869 84.66 91.9869 83.14C91.9869 81.58 92.4335 80.3267 93.3269 79.38C94.1802 78.4733 95.2535 78.02 96.5469 78.02C97.8935 78.02 98.9402 78.4933 99.6869 79.44ZM96.5669 79.9C95.9002 79.9 95.3802 80.12 95.0069 80.56C94.6335 80.9867 94.4135 81.54 94.3469 82.22H98.4869C98.4869 81.1667 98.1535 80.46 97.4869 80.1C97.2335 79.9667 96.9269 79.9 96.5669 79.9ZM105.832 79.96C106.472 78.6667 107.499 78.02 108.912 78.02C110.112 78.02 111.012 78.4133 111.612 79.2C112.226 79.9867 112.532 81.0267 112.532 82.32V88H110.172V82.32C110.172 81.6 109.999 81.06 109.652 80.7C109.306 80.3267 108.819 80.14 108.192 80.14C107.566 80.14 107.026 80.42 106.572 80.98C106.132 81.54 105.899 82.38 105.872 83.5V88H103.512V78.28H105.572L105.832 79.96ZM122.313 86.5C121.713 87.6867 120.793 88.28 119.553 88.28C118.313 88.28 117.273 87.8067 116.433 86.86C115.567 85.8733 115.133 84.62 115.133 83.1C115.133 81.58 115.547 80.3467 116.373 79.4C117.187 78.48 118.2 78.02 119.413 78.02C120.627 78.02 121.54 78.5067 122.153 79.48V74.28H124.533V88H122.593L122.313 86.5ZM119.853 80.14C119.187 80.14 118.627 80.4133 118.173 80.96C117.733 81.4933 117.513 82.2133 117.513 83.12C117.513 84.0267 117.74 84.76 118.193 85.32C118.647 85.8667 119.22 86.14 119.913 86.14C120.487 86.14 121 85.9133 121.453 85.46C121.92 84.9933 122.153 84.4067 122.153 83.7V82.44C122.127 81.7467 121.893 81.18 121.453 80.74C121.053 80.34 120.52 80.14 119.853 80.14ZM135.038 79.44C135.372 79.8667 135.618 80.36 135.778 80.92C135.952 81.48 136.038 81.9933 136.038 82.46C136.038 82.9267 136.012 83.3467 135.958 83.72H129.678C129.705 84.5067 129.898 85.1467 130.258 85.64C130.618 86.1333 131.165 86.38 131.898 86.38C132.872 86.38 133.452 85.9533 133.638 85.1H136.018C135.858 86.0733 135.412 86.84 134.678 87.4C133.918 87.9867 132.992 88.28 131.898 88.28C130.618 88.28 129.545 87.8133 128.678 86.88C127.785 85.9067 127.338 84.66 127.338 83.14C127.338 81.58 127.785 80.3267 128.678 79.38C129.532 78.4733 130.605 78.02 131.898 78.02C133.245 78.02 134.292 78.4933 135.038 79.44ZM131.918 79.9C131.252 79.9 130.732 80.12 130.358 80.56C129.985 80.9867 129.765 81.54 129.698 82.22H133.838C133.838 81.1667 133.505 80.46 132.838 80.1C132.585 79.9667 132.278 79.9 131.918 79.9ZM141.224 80.2C141.811 78.8 142.691 78.1 143.864 78.1C144.091 78.1 144.377 78.1467 144.724 78.24L144.684 80.6C144.311 80.52 143.944 80.48 143.584 80.48C142.011 80.48 141.224 81.5667 141.224 83.74V88H138.864V78.26H141.224V80.2ZM158.583 86.5C157.983 87.6867 157.063 88.28 155.823 88.28C154.583 88.28 153.543 87.8067 152.703 86.86C151.836 85.8733 151.403 84.62 151.403 83.1C151.403 81.58 151.816 80.3467 152.643 79.4C153.456 78.48 154.469 78.02 155.683 78.02C156.896 78.02 157.809 78.5067 158.423 79.48V74.28H160.803V88H158.863L158.583 86.5ZM156.123 80.14C155.456 80.14 154.896 80.4133 154.443 80.96C154.003 81.4933 153.783 82.2133 153.783 83.12C153.783 84.0267 154.009 84.76 154.463 85.32C154.916 85.8667 155.489 86.14 156.183 86.14C156.756 86.14 157.269 85.9133 157.723 85.46C158.189 84.9933 158.423 84.4067 158.423 83.7V82.44C158.396 81.7467 158.163 81.18 157.723 80.74C157.323 80.34 156.789 80.14 156.123 80.14ZM168.348 78.02C169.001 78.02 169.615 78.1267 170.188 78.34C170.761 78.54 171.255 78.8533 171.668 79.28C172.588 80.2133 173.048 81.5067 173.048 83.16C173.048 84.7867 172.588 86.0667 171.668 87C170.841 87.8533 169.735 88.28 168.348 88.28C166.961 88.28 165.841 87.8533 164.988 87C164.068 86.08 163.608 84.8 163.608 83.16C163.608 81.4933 164.068 80.2 164.988 79.28C165.828 78.44 166.948 78.02 168.348 78.02ZM170.688 83.14C170.688 82.1133 170.488 81.3467 170.088 80.84C169.688 80.32 169.128 80.06 168.408 80.06C167.701 80.06 167.121 80.32 166.668 80.84C166.215 81.3467 165.988 82.1133 165.988 83.14C165.988 84.1667 166.188 84.94 166.588 85.46C167.001 85.9667 167.561 86.22 168.268 86.22C168.975 86.22 169.555 85.9667 170.008 85.46C170.461 84.94 170.688 84.1667 170.688 83.14ZM182.115 78.28L184.455 85.28L186.495 78.28H188.895L185.175 89.76C184.788 90.92 184.315 91.7533 183.755 92.26C183.208 92.7667 182.508 93.02 181.655 93.02C180.788 93.02 179.921 92.8067 179.055 92.38V90.3C179.748 90.74 180.448 90.96 181.155 90.96C181.621 90.96 182.001 90.7733 182.295 90.4C182.601 90.0267 182.848 89.54 183.035 88.94L183.335 88L179.435 78.28H182.115ZM194.813 78.02C195.466 78.02 196.079 78.1267 196.653 78.34C197.226 78.54 197.719 78.8533 198.133 79.28C199.053 80.2133 199.513 81.5067 199.513 83.16C199.513 84.7867 199.053 86.0667 198.133 87C197.306 87.8533 196.199 88.28 194.813 88.28C193.426 88.28 192.306 87.8533 191.453 87C190.533 86.08 190.073 84.8 190.073 83.16C190.073 81.4933 190.533 80.2 191.453 79.28C192.293 78.44 193.413 78.02 194.813 78.02ZM197.153 83.14C197.153 82.1133 196.953 81.3467 196.553 80.84C196.153 80.32 195.593 80.06 194.873 80.06C194.166 80.06 193.586 80.32 193.133 80.84C192.679 81.3467 192.453 82.1133 192.453 83.14C192.453 84.1667 192.653 84.94 193.053 85.46C193.466 85.9667 194.026 86.22 194.733 86.22C195.439 86.22 196.019 85.9667 196.473 85.46C196.926 84.94 197.153 84.1667 197.153 83.14ZM208.781 86.24C208.168 87.5333 207.181 88.18 205.821 88.18C204.101 88.18 202.968 87.5067 202.421 86.16C202.221 85.6933 202.121 85.1267 202.121 84.46V78.26H204.481V84.22C204.481 84.86 204.634 85.34 204.941 85.66C205.248 85.9667 205.621 86.12 206.061 86.12C206.514 86.12 206.894 86.06 207.201 85.94C207.508 85.8067 207.774 85.6133 208.001 85.36C208.494 84.7867 208.754 84.02 208.781 83.06V78.26H211.141V88H208.781V86.24ZM25.06 101.26H27.42V111H25.06V101.26ZM24.78 98.14C24.78 97.7133 24.9067 97.38 25.16 97.14C25.4133 96.8867 25.7733 96.76 26.24 96.76C26.6933 96.76 27.0467 96.8867 27.3 97.14C27.5667 97.38 27.7 97.7133 27.7 98.14C27.7 98.5667 27.5667 98.9067 27.3 99.16C27.0467 99.4 26.6933 99.52 26.24 99.52C25.7733 99.52 25.4133 99.4 25.16 99.16C24.9067 98.9067 24.78 98.5667 24.78 98.14ZM37.7625 109.5C37.1625 110.687 36.2425 111.28 35.0025 111.28C33.7625 111.28 32.7225 110.807 31.8825 109.86C31.0158 108.873 30.5825 107.62 30.5825 106.1C30.5825 104.58 30.9958 103.347 31.8225 102.4C32.6358 101.48 33.6492 101.02 34.8625 101.02C36.0758 101.02 36.9892 101.507 37.6025 102.48V97.28H39.9825V111H38.0425L37.7625 109.5ZM35.3025 103.14C34.6358 103.14 34.0758 103.413 33.6225 103.96C33.1825 104.493 32.9625 105.213 32.9625 106.12C32.9625 107.027 33.1892 107.76 33.6425 108.32C34.0958 108.867 34.6692 109.14 35.3625 109.14C35.9358 109.14 36.4492 108.913 36.9025 108.46C37.3692 107.993 37.6025 107.407 37.6025 106.7V105.44C37.5758 104.747 37.3425 104.18 36.9025 103.74C36.5025 103.34 35.9692 103.14 35.3025 103.14ZM50.4877 102.44C50.821 102.867 51.0677 103.36 51.2277 103.92C51.401 104.48 51.4877 104.993 51.4877 105.46C51.4877 105.927 51.461 106.347 51.4077 106.72H45.1277C45.1543 107.507 45.3477 108.147 45.7077 108.64C46.0677 109.133 46.6143 109.38 47.3477 109.38C48.321 109.38 48.901 108.953 49.0877 108.1H51.4677C51.3077 109.073 50.861 109.84 50.1277 110.4C49.3677 110.987 48.441 111.28 47.3477 111.28C46.0677 111.28 44.9943 110.813 44.1277 109.88C43.2343 108.907 42.7877 107.66 42.7877 106.14C42.7877 104.58 43.2343 103.327 44.1277 102.38C44.981 101.473 46.0543 101.02 47.3477 101.02C48.6943 101.02 49.741 101.493 50.4877 102.44ZM47.3677 102.9C46.701 102.9 46.181 103.12 45.8077 103.56C45.4343 103.987 45.2143 104.54 45.1477 105.22H49.2877C49.2877 104.167 48.9543 103.46 48.2877 103.1C48.0343 102.967 47.7277 102.9 47.3677 102.9ZM56.6331 102.96C57.2731 101.667 58.2998 101.02 59.7131 101.02C60.9131 101.02 61.8131 101.413 62.4131 102.2C63.0265 102.987 63.3331 104.027 63.3331 105.32V111H60.9731V105.32C60.9731 104.6 60.7998 104.06 60.4531 103.7C60.1065 103.327 59.6198 103.14 58.9931 103.14C58.3665 103.14 57.8265 103.42 57.3731 103.98C56.9331 104.54 56.6998 105.38 56.6731 106.5V111H54.3131V101.28H56.3731L56.6331 102.96ZM72.2541 110.76C71.3741 111.107 70.6807 111.28 70.1741 111.28C69.6674 111.28 69.2207 111.22 68.8341 111.1C68.4607 110.98 68.1274 110.8 67.8341 110.56C67.2207 110.013 66.9141 109.26 66.9141 108.3V102.86H65.5541V101.28H66.9141V98.72H69.2741V101.28H71.9141V102.86H69.2741V108.22C69.2741 109.02 69.6541 109.42 70.4141 109.42C70.8007 109.42 71.3007 109.313 71.9141 109.1L72.2541 110.76ZM74.8647 101.26H77.2247V111H74.8647V101.26ZM74.5847 98.14C74.5847 97.7133 74.7114 97.38 74.9647 97.14C75.218 96.8867 75.578 96.76 76.0447 96.76C76.498 96.76 76.8514 96.8867 77.1047 97.14C77.3714 97.38 77.5047 97.7133 77.5047 98.14C77.5047 98.5667 77.3714 98.9067 77.1047 99.16C76.8514 99.4 76.498 99.52 76.0447 99.52C75.578 99.52 75.218 99.4 74.9647 99.16C74.7114 98.9067 74.5847 98.5667 74.5847 98.14ZM80.1672 101.28H81.6072V100.14C81.6072 99.14 81.9005 98.3733 82.4872 97.84C83.0205 97.36 83.7139 97.12 84.5672 97.12C85.1139 97.12 85.7872 97.2 86.5872 97.36L86.1272 99.18C85.7539 99.0467 85.4139 98.98 85.1072 98.98C84.8139 98.98 84.5539 99.0667 84.3272 99.24C84.1005 99.4 83.9872 99.7067 83.9872 100.16V101.28H85.7672V102.86H83.9872V111H81.6072V102.86H80.1672V101.28ZM89.7514 101.28L92.0914 108.28L94.1314 101.28H96.5314L92.8114 112.76C92.4247 113.92 91.9514 114.753 91.3914 115.26C90.8447 115.767 90.1447 116.02 89.2914 116.02C88.4247 116.02 87.5581 115.807 86.6914 115.38V113.3C87.3847 113.74 88.0847 113.96 88.7914 113.96C89.2581 113.96 89.6381 113.773 89.9314 113.4C90.2381 113.027 90.4847 112.54 90.6714 111.94L90.9714 111L87.0714 101.28H89.7514ZM104.548 101.28L106.508 108.22L108.368 101.82H110.508L112.368 108.24L114.348 101.28H116.708L113.508 111H111.188L109.388 105.18L107.628 111H105.288L102.068 101.28H104.548ZM119.044 101.26H121.404V111H119.044V101.26ZM118.764 98.14C118.764 97.7133 118.891 97.38 119.144 97.14C119.398 96.8867 119.758 96.76 120.224 96.76C120.678 96.76 121.031 96.8867 121.284 97.14C121.551 97.38 121.684 97.7133 121.684 98.14C121.684 98.5667 121.551 98.9067 121.284 99.16C121.031 99.4 120.678 99.52 120.224 99.52C119.758 99.52 119.398 99.4 119.144 99.16C118.891 98.9067 118.764 98.5667 118.764 98.14ZM130.887 110.76C130.007 111.107 129.314 111.28 128.807 111.28C128.3 111.28 127.854 111.22 127.467 111.1C127.094 110.98 126.76 110.8 126.467 110.56C125.854 110.013 125.547 109.26 125.547 108.3V102.86H124.187V101.28H125.547V98.72H127.907V101.28H130.547V102.86H127.907V108.22C127.907 109.02 128.287 109.42 129.047 109.42C129.434 109.42 129.934 109.313 130.547 109.1L130.887 110.76ZM135.658 102.86C136.324 101.633 137.298 101.02 138.578 101.02C139.858 101.02 140.798 101.413 141.398 102.2C142.011 102.987 142.318 104.027 142.318 105.32V111H139.958V105.32C139.958 104.6 139.784 104.06 139.438 103.7C139.091 103.327 138.604 103.14 137.978 103.14C137.351 103.14 136.811 103.42 136.358 103.98C135.918 104.54 135.684 105.38 135.658 106.5V111H133.298V97.28H135.658V102.86ZM153.598 101.38C153.598 102.087 153.425 102.68 153.078 103.16C152.732 103.627 152.185 104.047 151.438 104.42C150.812 104.74 150.398 105.013 150.198 105.24C150.012 105.467 149.892 105.68 149.838 105.88C149.785 106.067 149.758 106.287 149.758 106.54V107.12H147.398V106.32C147.398 105.12 147.758 104.267 148.478 103.76C148.732 103.573 149.105 103.353 149.598 103.1C150.092 102.847 150.445 102.593 150.658 102.34C150.885 102.073 150.998 101.74 150.998 101.34C150.998 100.927 150.832 100.587 150.498 100.32C150.165 100.04 149.672 99.9 149.018 99.9C148.365 99.9 147.852 100.06 147.478 100.38C147.105 100.687 146.892 101.093 146.838 101.6H144.378C144.445 100.44 144.872 99.5133 145.658 98.82C146.445 98.1133 147.545 97.76 148.958 97.76C150.385 97.76 151.512 98.1067 152.338 98.8C153.178 99.4933 153.598 100.353 153.598 101.38ZM146.998 109.7C146.998 109.247 147.145 108.873 147.438 108.58C147.745 108.287 148.138 108.14 148.618 108.14C149.112 108.14 149.518 108.287 149.838 108.58C150.158 108.873 150.318 109.247 150.318 109.7C150.318 110.153 150.158 110.533 149.838 110.84C149.518 111.133 149.112 111.28 148.618 111.28C148.138 111.28 147.745 111.133 147.438 110.84C147.145 110.533 146.998 110.153 146.998 109.7Z" fill="#181827"/>
</svg>
