<svg width="234" height="155" viewBox="0 0 234 155" fill="none" xmlns="http://www.w3.org/2000/svg">
<path fill-rule="evenodd" clip-rule="evenodd" d="M117 155C181.617 155 234 120.302 234 77.5C234 34.6979 181.617 0 117 0C52.3827 0 0 34.6979 0 77.5C0 93.4755 7.2974 108.322 19.8047 120.657L8.36784 139.704H47.2005C66.6859 149.313 90.8404 155 117 155Z" fill="white"/>
<path d="M23.82 70.94C23.26 72.5 22.1867 73.28 20.6 73.28C18.9733 73.28 17.6333 72.6667 16.58 71.44C15.4867 70.1733 14.94 68.5533 14.94 66.58C14.94 64.5 15.5267 62.8333 16.7 61.58C17.8333 60.3667 19.2933 59.76 21.08 59.76C22.2933 59.76 23.3067 60.0267 24.12 60.56C24.9467 61.08 25.5933 61.9067 26.06 63.04L23.64 63.6C22.9333 62.4667 22.04 61.9 20.96 61.9C19.9733 61.9 19.1533 62.32 18.5 63.16C17.82 64.0133 17.48 65.1533 17.48 66.58C17.48 67.9267 17.7867 69.02 18.4 69.86C19 70.6867 19.8 71.1 20.8 71.1C21.6533 71.1 22.3533 70.8267 22.9 70.28C23.46 69.72 23.74 68.9533 23.74 67.98V67.9L20.82 67.84V66.32H26V73H24.08L23.82 70.94ZM33.2152 63.02C33.8685 63.02 34.4818 63.1267 35.0552 63.34C35.6285 63.54 36.1218 63.8533 36.5352 64.28C37.4552 65.2133 37.9152 66.5067 37.9152 68.16C37.9152 69.7867 37.4552 71.0667 36.5352 72C35.7085 72.8533 34.6018 73.28 33.2152 73.28C31.8285 73.28 30.7085 72.8533 29.8552 72C28.9352 71.08 28.4752 69.8 28.4752 68.16C28.4752 66.4933 28.9352 65.2 29.8552 64.28C30.6952 63.44 31.8152 63.02 33.2152 63.02ZM35.5552 68.14C35.5552 67.1133 35.3552 66.3467 34.9552 65.84C34.5552 65.32 33.9952 65.06 33.2752 65.06C32.5685 65.06 31.9885 65.32 31.5352 65.84C31.0818 66.3467 30.8552 67.1133 30.8552 68.14C30.8552 69.1667 31.0552 69.94 31.4552 70.46C31.8685 70.9667 32.4285 71.22 33.1352 71.22C33.8418 71.22 34.4218 70.9667 34.8752 70.46C35.3285 69.94 35.5552 69.1667 35.5552 68.14ZM46.2033 72.76C45.3233 73.1067 44.6299 73.28 44.1233 73.28C43.6166 73.28 43.1699 73.22 42.7833 73.1C42.4099 72.98 42.0766 72.8 41.7833 72.56C41.1699 72.0133 40.8633 71.26 40.8633 70.3V64.86H39.5033V63.28H40.8633V60.72H43.2233V63.28H45.8633V64.86H43.2233V70.22C43.2233 71.02 43.6033 71.42 44.3633 71.42C44.7499 71.42 45.2499 71.3133 45.8633 71.1L46.2033 72.76ZM53.8725 63.26H56.2325V73H53.8725V63.26ZM53.5925 60.14C53.5925 59.7133 53.7192 59.38 53.9725 59.14C54.2258 58.8867 54.5858 58.76 55.0525 58.76C55.5058 58.76 55.8592 58.8867 56.1125 59.14C56.3792 59.38 56.5125 59.7133 56.5125 60.14C56.5125 60.5667 56.3792 60.9067 56.1125 61.16C55.8592 61.4 55.5058 61.52 55.0525 61.52C54.5858 61.52 54.2258 61.4 53.9725 61.16C53.7192 60.9067 53.5925 60.5667 53.5925 60.14ZM65.715 72.76C64.835 73.1067 64.1417 73.28 63.635 73.28C63.1283 73.28 62.6817 73.22 62.295 73.1C61.9217 72.98 61.5883 72.8 61.295 72.56C60.6817 72.0133 60.375 71.26 60.375 70.3V64.86H59.015V63.28H60.375V60.72H62.735V63.28H65.375V64.86H62.735V70.22C62.735 71.02 63.115 71.42 63.875 71.42C64.2617 71.42 64.7617 71.3133 65.375 71.1L65.715 72.76ZM67.9856 59.72H70.5456L70.2656 68.62H68.2456L67.9856 59.72ZM69.2656 73.18C68.7856 73.18 68.3923 73.0333 68.0856 72.74C67.779 72.4467 67.6256 72.0733 67.6256 71.62C67.6256 71.1667 67.779 70.7867 68.0856 70.48C68.3923 70.1733 68.7856 70.02 69.2656 70.02C69.7456 70.02 70.1456 70.1733 70.4656 70.48C70.7856 70.7867 70.9456 71.1667 70.9456 71.62C70.9456 72.0733 70.7856 72.4467 70.4656 72.74C70.1456 73.0333 69.7456 73.18 69.2656 73.18Z" fill="#7075A5"/>
<path d="M80.2236 60.02L83.0836 69.88L85.8636 60.88H87.4636L90.4036 69.92L93.4436 60.02H96.1036L91.6436 73H89.1636L86.7236 65.68L84.3036 73H81.8236L77.5836 60.02H80.2236ZM100.72 64.86C101.387 63.6333 102.36 63.02 103.64 63.02C104.92 63.02 105.86 63.4133 106.46 64.2C107.073 64.9867 107.38 66.0267 107.38 67.32V73H105.02V67.32C105.02 66.6 104.847 66.06 104.5 65.7C104.153 65.3267 103.667 65.14 103.04 65.14C102.413 65.14 101.873 65.42 101.42 65.98C100.98 66.54 100.747 67.38 100.72 68.5V73H98.36V59.28H100.72V64.86ZM114.021 67.32C114.794 67.32 115.688 67.4467 116.701 67.7V66.74C116.701 66.06 116.561 65.56 116.281 65.24C116.014 64.9067 115.568 64.74 114.941 64.74C114.328 64.74 113.854 64.8667 113.521 65.12C113.188 65.36 113.021 65.7067 113.021 66.16H110.441C110.441 65.0533 110.828 64.2533 111.601 63.76C112.388 63.2667 113.481 63.02 114.881 63.02C116.881 63.02 118.174 63.72 118.761 65.12C118.961 65.6 119.061 66.1667 119.061 66.82V73H117.001L116.821 71.7C116.194 72.7533 115.234 73.28 113.941 73.28C112.688 73.28 111.714 72.9733 111.021 72.36C110.381 71.7733 110.061 71.0333 110.061 70.14C110.061 69.2333 110.414 68.54 111.121 68.06C111.828 67.5667 112.794 67.32 114.021 67.32ZM116.701 69.2C115.914 68.9867 115.181 68.88 114.501 68.88C113.221 68.88 112.581 69.3067 112.581 70.16C112.581 70.52 112.728 70.8333 113.021 71.1C113.314 71.3533 113.781 71.48 114.421 71.48C115.074 71.48 115.608 71.2667 116.021 70.84C116.448 70.4 116.674 69.8533 116.701 69.2ZM127.981 72.76C127.101 73.1067 126.407 73.28 125.901 73.28C125.394 73.28 124.947 73.22 124.561 73.1C124.187 72.98 123.854 72.8 123.561 72.56C122.947 72.0133 122.641 71.26 122.641 70.3V64.86H121.281V63.28H122.641V60.72H125.001V63.28H127.641V64.86H125.001V70.22C125.001 71.02 125.381 71.42 126.141 71.42C126.527 71.42 127.027 71.3133 127.641 71.1L127.981 72.76ZM129.611 61.38C129.611 60.98 129.765 60.6467 130.071 60.38C130.378 60.1 130.791 59.96 131.311 59.96C131.845 59.96 132.278 60.1733 132.611 60.6C132.958 61.0133 133.131 61.5333 133.131 62.16C133.131 62.7733 132.911 63.38 132.471 63.98C132.045 64.58 131.471 65.06 130.751 65.42L129.111 64.52C130.138 64 130.758 63.4133 130.971 62.76C130.585 62.6933 130.258 62.5467 129.991 62.32C129.738 62.0933 129.611 61.78 129.611 61.38ZM137.141 70.04C137.168 70.96 137.841 71.42 139.161 71.42C139.668 71.42 140.081 71.3133 140.401 71.1C140.734 70.8733 140.901 70.6133 140.901 70.32C140.901 70.0267 140.801 69.8 140.601 69.64C140.401 69.48 140.088 69.3333 139.661 69.2L137.541 68.44C135.968 67.8933 135.181 67 135.181 65.76C135.181 64.9333 135.548 64.2733 136.281 63.78C137.028 63.2733 138.021 63.02 139.261 63.02C140.514 63.02 141.474 63.2933 142.141 63.84C142.821 64.3867 143.174 65.0733 143.201 65.9H140.981C140.954 65.58 140.801 65.3267 140.521 65.14C140.241 64.9533 139.841 64.86 139.321 64.86C138.801 64.86 138.394 64.9667 138.101 65.18C137.821 65.38 137.681 65.6133 137.681 65.88C137.681 66.3467 138.074 66.6933 138.861 66.92L141.161 67.78C141.921 68.0333 142.501 68.36 142.901 68.76C143.314 69.1467 143.521 69.6533 143.521 70.28C143.521 71.08 143.141 71.7733 142.381 72.36C141.594 72.9733 140.554 73.28 139.261 73.28C137.968 73.28 136.928 73 136.141 72.44C135.354 71.8667 134.954 71.0667 134.941 70.04H137.141ZM152.626 63.28L154.966 70.28L157.006 63.28H159.406L155.686 74.76C155.3 75.92 154.826 76.7533 154.266 77.26C153.72 77.7667 153.02 78.02 152.166 78.02C151.3 78.02 150.433 77.8067 149.566 77.38V75.3C150.26 75.74 150.96 75.96 151.666 75.96C152.133 75.96 152.513 75.7733 152.806 75.4C153.113 75.0267 153.36 74.54 153.546 73.94L153.846 73L149.946 63.28H152.626ZM165.325 63.02C165.978 63.02 166.591 63.1267 167.165 63.34C167.738 63.54 168.231 63.8533 168.645 64.28C169.565 65.2133 170.025 66.5067 170.025 68.16C170.025 69.7867 169.565 71.0667 168.645 72C167.818 72.8533 166.711 73.28 165.325 73.28C163.938 73.28 162.818 72.8533 161.965 72C161.045 71.08 160.585 69.8 160.585 68.16C160.585 66.4933 161.045 65.2 161.965 64.28C162.805 63.44 163.925 63.02 165.325 63.02ZM167.665 68.14C167.665 67.1133 167.465 66.3467 167.065 65.84C166.665 65.32 166.105 65.06 165.385 65.06C164.678 65.06 164.098 65.32 163.645 65.84C163.191 66.3467 162.965 67.1133 162.965 68.14C162.965 69.1667 163.165 69.94 163.565 70.46C163.978 70.9667 164.538 71.22 165.245 71.22C165.951 71.22 166.531 70.9667 166.985 70.46C167.438 69.94 167.665 69.1667 167.665 68.14ZM179.293 71.24C178.679 72.5333 177.693 73.18 176.333 73.18C174.613 73.18 173.479 72.5067 172.933 71.16C172.733 70.6933 172.633 70.1267 172.633 69.46V63.26H174.993V69.22C174.993 69.86 175.146 70.34 175.453 70.66C175.759 70.9667 176.133 71.12 176.573 71.12C177.026 71.12 177.406 71.06 177.713 70.94C178.019 70.8067 178.286 70.6133 178.513 70.36C179.006 69.7867 179.266 69.02 179.293 68.06V63.26H181.653V73H179.293V71.24ZM187.732 65.2C188.318 63.8 189.198 63.1 190.372 63.1C190.598 63.1 190.885 63.1467 191.232 63.24L191.192 65.6C190.818 65.52 190.452 65.48 190.092 65.48C188.518 65.48 187.732 66.5667 187.732 68.74V73H185.372V63.26H187.732V65.2ZM24.02 87.42C24.8467 88.3533 25.26 89.58 25.26 91.1C25.26 92.62 24.8267 93.8733 23.96 94.86C23.12 95.8067 22.0733 96.28 20.82 96.28C20.22 96.28 19.6667 96.12 19.16 95.8C18.6667 95.48 18.2733 94.9867 17.98 94.32L17.4 96H15.86V82.28H18.22V87.5C18.8333 86.5133 19.7467 86.02 20.96 86.02C22.1867 86.02 23.2067 86.4867 24.02 87.42ZM18.22 90.54V91.82C18.2467 92.5 18.4933 93.06 18.96 93.5C19.4 93.9267 19.9333 94.14 20.56 94.14C21.2 94.14 21.7467 93.8667 22.2 93.32C22.6533 92.76 22.88 92.0267 22.88 91.12C22.88 90.2133 22.6533 89.4933 22.2 88.96C21.76 88.4133 21.2067 88.14 20.54 88.14C19.8733 88.14 19.32 88.36 18.88 88.8C18.44 89.24 18.22 89.82 18.22 90.54ZM28.3452 86.26H30.7052V96H28.3452V86.26ZM28.0652 83.14C28.0652 82.7133 28.1918 82.38 28.4452 82.14C28.6985 81.8867 29.0585 81.76 29.5252 81.76C29.9785 81.76 30.3318 81.8867 30.5852 82.14C30.8518 82.38 30.9852 82.7133 30.9852 83.14C30.9852 83.5667 30.8518 83.9067 30.5852 84.16C30.3318 84.4 29.9785 84.52 29.5252 84.52C29.0585 84.52 28.6985 84.4 28.4452 84.16C28.1918 83.9067 28.0652 83.5667 28.0652 83.14ZM37.0677 88.2C37.6543 86.8 38.5343 86.1 39.7077 86.1C39.9343 86.1 40.221 86.1467 40.5677 86.24L40.5277 88.6C40.1543 88.52 39.7877 88.48 39.4277 88.48C37.8543 88.48 37.0677 89.5667 37.0677 91.74V96H34.7077V86.26H37.0677V88.2ZM48.508 95.76C47.628 96.1067 46.9346 96.28 46.428 96.28C45.9213 96.28 45.4746 96.22 45.088 96.1C44.7146 95.98 44.3813 95.8 44.088 95.56C43.4746 95.0133 43.168 94.26 43.168 93.3V87.86H41.808V86.28H43.168V83.72H45.528V86.28H48.168V87.86H45.528V93.22C45.528 94.02 45.908 94.42 46.668 94.42C47.0546 94.42 47.5546 94.3133 48.168 94.1L48.508 95.76ZM53.2786 87.86C53.9453 86.6333 54.9186 86.02 56.1986 86.02C57.4786 86.02 58.4186 86.4133 59.0186 87.2C59.6319 87.9867 59.9386 89.0267 59.9386 90.32V96H57.5786V90.32C57.5786 89.6 57.4053 89.06 57.0586 88.7C56.7119 88.3267 56.2253 88.14 55.5986 88.14C54.9719 88.14 54.4319 88.42 53.9786 88.98C53.5386 89.54 53.3053 90.38 53.2786 91.5V96H50.9186V82.28H53.2786V87.86ZM69.7195 94.5C69.1195 95.6867 68.1995 96.28 66.9595 96.28C65.7195 96.28 64.6795 95.8067 63.8395 94.86C62.9729 93.8733 62.5395 92.62 62.5395 91.1C62.5395 89.58 62.9529 88.3467 63.7795 87.4C64.5929 86.48 65.6062 86.02 66.8195 86.02C68.0329 86.02 68.9462 86.5067 69.5595 87.48V82.28H71.9395V96H69.9995L69.7195 94.5ZM67.2595 88.14C66.5929 88.14 66.0329 88.4133 65.5795 88.96C65.1395 89.4933 64.9195 90.2133 64.9195 91.12C64.9195 92.0267 65.1462 92.76 65.5995 93.32C66.0529 93.8667 66.6262 94.14 67.3195 94.14C67.8929 94.14 68.4062 93.9133 68.8595 93.46C69.3262 92.9933 69.5595 92.4067 69.5595 91.7V90.44C69.5329 89.7467 69.2995 89.18 68.8595 88.74C68.4595 88.34 67.9262 88.14 67.2595 88.14ZM78.8647 90.32C79.638 90.32 80.5314 90.4467 81.5447 90.7V89.74C81.5447 89.06 81.4047 88.56 81.1247 88.24C80.858 87.9067 80.4114 87.74 79.7847 87.74C79.1714 87.74 78.698 87.8667 78.3647 88.12C78.0314 88.36 77.8647 88.7067 77.8647 89.16H75.2847C75.2847 88.0533 75.6714 87.2533 76.4447 86.76C77.2314 86.2667 78.3247 86.02 79.7247 86.02C81.7247 86.02 83.018 86.72 83.6047 88.12C83.8047 88.6 83.9047 89.1667 83.9047 89.82V96H81.8447L81.6647 94.7C81.038 95.7533 80.078 96.28 78.7847 96.28C77.5314 96.28 76.558 95.9733 75.8647 95.36C75.2247 94.7733 74.9047 94.0333 74.9047 93.14C74.9047 92.2333 75.258 91.54 75.9647 91.06C76.6714 90.5667 77.638 90.32 78.8647 90.32ZM81.5447 92.2C80.758 91.9867 80.0247 91.88 79.3447 91.88C78.0647 91.88 77.4247 92.3067 77.4247 93.16C77.4247 93.52 77.5714 93.8333 77.8647 94.1C78.158 94.3533 78.6247 94.48 79.2647 94.48C79.918 94.48 80.4514 94.2667 80.8647 93.84C81.2914 93.4 81.518 92.8533 81.5447 92.2ZM92.8244 95.76C91.9444 96.1067 91.251 96.28 90.7444 96.28C90.2377 96.28 89.791 96.22 89.4044 96.1C89.031 95.98 88.6977 95.8 88.4044 95.56C87.791 95.0133 87.4844 94.26 87.4844 93.3V87.86H86.1244V86.28H87.4844V83.72H89.8444V86.28H92.4844V87.86H89.8444V93.22C89.8444 94.02 90.2244 94.42 90.9844 94.42C91.371 94.42 91.871 94.3133 92.4844 94.1L92.8244 95.76ZM102.015 87.44C102.348 87.8667 102.595 88.36 102.755 88.92C102.928 89.48 103.015 89.9933 103.015 90.46C103.015 90.9267 102.988 91.3467 102.935 91.72H96.655C96.6817 92.5067 96.875 93.1467 97.235 93.64C97.595 94.1333 98.1417 94.38 98.875 94.38C99.8483 94.38 100.428 93.9533 100.615 93.1H102.995C102.835 94.0733 102.388 94.84 101.655 95.4C100.895 95.9867 99.9683 96.28 98.875 96.28C97.595 96.28 96.5217 95.8133 95.655 94.88C94.7617 93.9067 94.315 92.66 94.315 91.14C94.315 89.58 94.7617 88.3267 95.655 87.38C96.5083 86.4733 97.5817 86.02 98.875 86.02C100.222 86.02 101.268 86.4933 102.015 87.44ZM98.895 87.9C98.2283 87.9 97.7083 88.12 97.335 88.56C96.9617 88.9867 96.7417 89.54 96.675 90.22H100.815C100.815 89.1667 100.482 88.46 99.815 88.1C99.5617 87.9667 99.255 87.9 98.895 87.9ZM113.68 86.38C113.68 87.0867 113.507 87.68 113.16 88.16C112.814 88.6267 112.267 89.0467 111.52 89.42C110.894 89.74 110.48 90.0133 110.28 90.24C110.094 90.4667 109.974 90.68 109.92 90.88C109.867 91.0667 109.84 91.2867 109.84 91.54V92.12H107.48V91.32C107.48 90.12 107.84 89.2667 108.56 88.76C108.814 88.5733 109.187 88.3533 109.68 88.1C110.174 87.8467 110.527 87.5933 110.74 87.34C110.967 87.0733 111.08 86.74 111.08 86.34C111.08 85.9267 110.914 85.5867 110.58 85.32C110.247 85.04 109.754 84.9 109.1 84.9C108.447 84.9 107.934 85.06 107.56 85.38C107.187 85.6867 106.974 86.0933 106.92 86.6H104.46C104.527 85.44 104.954 84.5133 105.74 83.82C106.527 83.1133 107.627 82.76 109.04 82.76C110.467 82.76 111.594 83.1067 112.42 83.8C113.26 84.4933 113.68 85.3533 113.68 86.38ZM107.08 94.7C107.08 94.2467 107.227 93.8733 107.52 93.58C107.827 93.2867 108.22 93.14 108.7 93.14C109.194 93.14 109.6 93.2867 109.92 93.58C110.24 93.8733 110.4 94.2467 110.4 94.7C110.4 95.1533 110.24 95.5333 109.92 95.84C109.6 96.1333 109.194 96.28 108.7 96.28C108.22 96.28 107.827 96.1333 107.52 95.84C107.227 95.5333 107.08 95.1533 107.08 94.7Z" fill="black"/>
</svg>
