<svg width="234" height="155" viewBox="0 0 234 155" fill="none" xmlns="http://www.w3.org/2000/svg">
<path fill-rule="evenodd" clip-rule="evenodd" d="M117 155C181.617 155 234 120.302 234 77.5C234 34.6979 181.617 0 117 0C52.3827 0 0 34.6979 0 77.5C0 93.4755 7.2974 108.322 19.8047 120.657L8.36784 139.704H47.2005C66.6859 149.313 90.8404 155 117 155Z" fill="white"/>
<path d="M36.12 27.02H46.52V29.06H42.5V40H40.14V29.06H36.12V27.02ZM50.8645 31.86C51.5312 30.6333 52.5045 30.02 53.7845 30.02C55.0645 30.02 56.0045 30.4133 56.6045 31.2C57.2179 31.9867 57.5245 33.0267 57.5245 34.32V40H55.1645V34.32C55.1645 33.6 54.9912 33.06 54.6445 32.7C54.2979 32.3267 53.8112 32.14 53.1845 32.14C52.5579 32.14 52.0179 32.42 51.5645 32.98C51.1245 33.54 50.8912 34.38 50.8645 35.5V40H48.5045V26.28H50.8645V31.86ZM64.1655 34.32C64.9388 34.32 65.8321 34.4467 66.8455 34.7V33.74C66.8455 33.06 66.7055 32.56 66.4255 32.24C66.1588 31.9067 65.7121 31.74 65.0855 31.74C64.4721 31.74 63.9988 31.8667 63.6655 32.12C63.3321 32.36 63.1655 32.7067 63.1655 33.16H60.5855C60.5855 32.0533 60.9721 31.2533 61.7455 30.76C62.5321 30.2667 63.6255 30.02 65.0255 30.02C67.0255 30.02 68.3188 30.72 68.9055 32.12C69.1055 32.6 69.2055 33.1667 69.2055 33.82V40H67.1455L66.9655 38.7C66.3388 39.7533 65.3788 40.28 64.0855 40.28C62.8321 40.28 61.8588 39.9733 61.1655 39.36C60.5255 38.7733 60.2055 38.0333 60.2055 37.14C60.2055 36.2333 60.5588 35.54 61.2655 35.06C61.9721 34.5667 62.9388 34.32 64.1655 34.32ZM66.8455 36.2C66.0588 35.9867 65.3255 35.88 64.6455 35.88C63.3655 35.88 62.7255 36.3067 62.7255 37.16C62.7255 37.52 62.8721 37.8333 63.1655 38.1C63.4588 38.3533 63.9255 38.48 64.5655 38.48C65.2188 38.48 65.7521 38.2667 66.1655 37.84C66.5921 37.4 66.8188 36.8533 66.8455 36.2ZM74.9652 31.96C75.6052 30.6667 76.6318 30.02 78.0452 30.02C79.2452 30.02 80.1452 30.4133 80.7452 31.2C81.3585 31.9867 81.6652 33.0267 81.6652 34.32V40H79.3052V34.32C79.3052 33.6 79.1318 33.06 78.7852 32.7C78.4385 32.3267 77.9518 32.14 77.3252 32.14C76.6985 32.14 76.1585 32.42 75.7052 32.98C75.2652 33.54 75.0318 34.38 75.0052 35.5V40H72.6452V30.28H74.7052L74.9652 31.96ZM88.5461 35.26L87.4661 36.16V40H85.1061V26.28H87.4661V33.7L91.3061 30.28H94.5061L90.2061 33.88L94.7461 40H91.8661L88.5461 35.26ZM97.93 37.04C97.9567 37.96 98.63 38.42 99.95 38.42C100.457 38.42 100.87 38.3133 101.19 38.1C101.523 37.8733 101.69 37.6133 101.69 37.32C101.69 37.0267 101.59 36.8 101.39 36.64C101.19 36.48 100.877 36.3333 100.45 36.2L98.33 35.44C96.7567 34.8933 95.97 34 95.97 32.76C95.97 31.9333 96.3367 31.2733 97.07 30.78C97.8167 30.2733 98.81 30.02 100.05 30.02C101.303 30.02 102.263 30.2933 102.93 30.84C103.61 31.3867 103.963 32.0733 103.99 32.9H101.77C101.743 32.58 101.59 32.3267 101.31 32.14C101.03 31.9533 100.63 31.86 100.11 31.86C99.59 31.86 99.1833 31.9667 98.89 32.18C98.61 32.38 98.47 32.6133 98.47 32.88C98.47 33.3467 98.8633 33.6933 99.65 33.92L101.95 34.78C102.71 35.0333 103.29 35.36 103.69 35.76C104.103 36.1467 104.31 36.6533 104.31 37.28C104.31 38.08 103.93 38.7733 103.17 39.36C102.383 39.9733 101.343 40.28 100.05 40.28C98.7567 40.28 97.7167 40 96.93 39.44C96.1433 38.8667 95.7433 38.0667 95.73 37.04H97.93ZM107.017 26.72H109.577L109.297 35.62H107.277L107.017 26.72ZM108.297 40.18C107.817 40.18 107.424 40.0333 107.117 39.74C106.81 39.4467 106.657 39.0733 106.657 38.62C106.657 38.1667 106.81 37.7867 107.117 37.48C107.424 37.1733 107.817 37.02 108.297 37.02C108.777 37.02 109.177 37.1733 109.497 37.48C109.817 37.7867 109.977 38.1667 109.977 38.62C109.977 39.0733 109.817 39.4467 109.497 39.74C109.177 40.0333 108.777 40.18 108.297 40.18ZM119.255 27.02L122.115 36.88L124.895 27.88H126.495L129.435 36.92L132.475 27.02H135.135L130.675 40H128.195L125.755 32.68L123.335 40H120.855L116.615 27.02H119.255ZM139.751 31.86C140.418 30.6333 141.391 30.02 142.671 30.02C143.951 30.02 144.891 30.4133 145.491 31.2C146.105 31.9867 146.411 33.0267 146.411 34.32V40H144.051V34.32C144.051 33.6 143.878 33.06 143.531 32.7C143.185 32.3267 142.698 32.14 142.071 32.14C141.445 32.14 140.905 32.42 140.451 32.98C140.011 33.54 139.778 34.38 139.751 35.5V40H137.391V26.28H139.751V31.86ZM153.052 34.32C153.826 34.32 154.719 34.4467 155.732 34.7V33.74C155.732 33.06 155.592 32.56 155.312 32.24C155.046 31.9067 154.599 31.74 153.972 31.74C153.359 31.74 152.886 31.8667 152.552 32.12C152.219 32.36 152.052 32.7067 152.052 33.16H149.472C149.472 32.0533 149.859 31.2533 150.632 30.76C151.419 30.2667 152.512 30.02 153.912 30.02C155.912 30.02 157.206 30.72 157.792 32.12C157.992 32.6 158.092 33.1667 158.092 33.82V40H156.032L155.852 38.7C155.226 39.7533 154.266 40.28 152.972 40.28C151.719 40.28 150.746 39.9733 150.052 39.36C149.412 38.7733 149.092 38.0333 149.092 37.14C149.092 36.2333 149.446 35.54 150.152 35.06C150.859 34.5667 151.826 34.32 153.052 34.32ZM155.732 36.2C154.946 35.9867 154.212 35.88 153.532 35.88C152.252 35.88 151.612 36.3067 151.612 37.16C151.612 37.52 151.759 37.8333 152.052 38.1C152.346 38.3533 152.812 38.48 153.452 38.48C154.106 38.48 154.639 38.2667 155.052 37.84C155.479 37.4 155.706 36.8533 155.732 36.2ZM167.012 39.76C166.132 40.1067 165.439 40.28 164.932 40.28C164.425 40.28 163.979 40.22 163.592 40.1C163.219 39.98 162.885 39.8 162.592 39.56C161.979 39.0133 161.672 38.26 161.672 37.3V31.86H160.312V30.28H161.672V27.72H164.032V30.28H166.672V31.86H164.032V37.22C164.032 38.02 164.412 38.42 165.172 38.42C165.559 38.42 166.059 38.3133 166.672 38.1L167.012 39.76ZM168.643 28.38C168.643 27.98 168.796 27.6467 169.103 27.38C169.409 27.1 169.823 26.96 170.343 26.96C170.876 26.96 171.309 27.1733 171.643 27.6C171.989 28.0133 172.163 28.5333 172.163 29.16C172.163 29.7733 171.943 30.38 171.503 30.98C171.076 31.58 170.503 32.06 169.783 32.42L168.143 31.52C169.169 31 169.789 30.4133 170.003 29.76C169.616 29.6933 169.289 29.5467 169.023 29.32C168.769 29.0933 168.643 28.78 168.643 28.38ZM176.172 37.04C176.199 37.96 176.872 38.42 178.192 38.42C178.699 38.42 179.112 38.3133 179.432 38.1C179.766 37.8733 179.932 37.6133 179.932 37.32C179.932 37.0267 179.832 36.8 179.632 36.64C179.432 36.48 179.119 36.3333 178.692 36.2L176.572 35.44C174.999 34.8933 174.212 34 174.212 32.76C174.212 31.9333 174.579 31.2733 175.312 30.78C176.059 30.2733 177.052 30.02 178.292 30.02C179.546 30.02 180.506 30.2933 181.172 30.84C181.852 31.3867 182.206 32.0733 182.232 32.9H180.012C179.986 32.58 179.832 32.3267 179.552 32.14C179.272 31.9533 178.872 31.86 178.352 31.86C177.832 31.86 177.426 31.9667 177.132 32.18C176.852 32.38 176.712 32.6133 176.712 32.88C176.712 33.3467 177.106 33.6933 177.892 33.92L180.192 34.78C180.952 35.0333 181.532 35.36 181.932 35.76C182.346 36.1467 182.552 36.6533 182.552 37.28C182.552 38.08 182.172 38.7733 181.412 39.36C180.626 39.9733 179.586 40.28 178.292 40.28C176.999 40.28 175.959 40 175.172 39.44C174.386 38.8667 173.986 38.0667 173.972 37.04H176.172ZM39.06 53.28L41.4 60.28L43.44 53.28H45.84L42.12 64.76C41.7333 65.92 41.26 66.7533 40.7 67.26C40.1533 67.7667 39.4533 68.02 38.6 68.02C37.7333 68.02 36.8667 67.8067 36 67.38V65.3C36.6933 65.74 37.3933 65.96 38.1 65.96C38.5667 65.96 38.9467 65.7733 39.24 65.4C39.5467 65.0267 39.7933 64.54 39.98 63.94L40.28 63L36.38 53.28H39.06ZM51.7581 53.02C52.4115 53.02 53.0248 53.1267 53.5981 53.34C54.1715 53.54 54.6648 53.8533 55.0781 54.28C55.9981 55.2133 56.4581 56.5067 56.4581 58.16C56.4581 59.7867 55.9981 61.0667 55.0781 62C54.2515 62.8533 53.1448 63.28 51.7581 63.28C50.3715 63.28 49.2515 62.8533 48.3981 62C47.4781 61.08 47.0181 59.8 47.0181 58.16C47.0181 56.4933 47.4781 55.2 48.3981 54.28C49.2381 53.44 50.3581 53.02 51.7581 53.02ZM54.0981 58.14C54.0981 57.1133 53.8981 56.3467 53.4981 55.84C53.0981 55.32 52.5381 55.06 51.8181 55.06C51.1115 55.06 50.5315 55.32 50.0781 55.84C49.6248 56.3467 49.3981 57.1133 49.3981 58.14C49.3981 59.1667 49.5981 59.94 49.9981 60.46C50.4115 60.9667 50.9715 61.22 51.6781 61.22C52.3848 61.22 52.9648 60.9667 53.4181 60.46C53.8715 59.94 54.0981 59.1667 54.0981 58.14ZM65.7263 61.24C65.1129 62.5333 64.1263 63.18 62.7663 63.18C61.0463 63.18 59.9129 62.5067 59.3663 61.16C59.1663 60.6933 59.0663 60.1267 59.0663 59.46V53.26H61.4263V59.22C61.4263 59.86 61.5796 60.34 61.8863 60.66C62.1929 60.9667 62.5663 61.12 63.0063 61.12C63.4596 61.12 63.8396 61.06 64.1463 60.94C64.4529 60.8067 64.7196 60.6133 64.9463 60.36C65.4396 59.7867 65.6996 59.02 65.7263 58.06V53.26H68.0863V63H65.7263V61.24ZM74.1653 55.2C74.752 53.8 75.632 53.1 76.8053 53.1C77.032 53.1 77.3186 53.1467 77.6653 53.24L77.6253 55.6C77.252 55.52 76.8853 55.48 76.5253 55.48C74.952 55.48 74.1653 56.5667 74.1653 58.74V63H71.8053V53.26H74.1653V55.2ZM90.6642 62.76C89.7842 63.1067 89.0909 63.28 88.5842 63.28C88.0776 63.28 87.6309 63.22 87.2442 63.1C86.8709 62.98 86.5376 62.8 86.2442 62.56C85.6309 62.0133 85.3242 61.26 85.3242 60.3V54.86H83.9642V53.28H85.3242V50.72H87.6842V53.28H90.3242V54.86H87.6842V60.22C87.6842 61.02 88.0642 61.42 88.8242 61.42C89.2109 61.42 89.7109 61.3133 90.3242 61.1L90.6642 62.76ZM93.2748 53.26H95.6348V63H93.2748V53.26ZM92.9948 50.14C92.9948 49.7133 93.1215 49.38 93.3748 49.14C93.6282 48.8867 93.9882 48.76 94.4548 48.76C94.9082 48.76 95.2615 48.8867 95.5148 49.14C95.7815 49.38 95.9148 49.7133 95.9148 50.14C95.9148 50.5667 95.7815 50.9067 95.5148 51.16C95.2615 51.4 94.9082 51.52 94.4548 51.52C93.9882 51.52 93.6282 51.4 93.3748 51.16C93.1215 50.9067 92.9948 50.5667 92.9948 50.14ZM108.277 55.12C108.904 53.72 110.004 53.02 111.577 53.02C112.737 53.02 113.637 53.4133 114.277 54.2C114.891 54.9467 115.197 55.9867 115.197 57.32V63H112.817V57.32C112.817 56.6 112.644 56.06 112.297 55.7C111.951 55.3267 111.464 55.14 110.837 55.14C110.211 55.14 109.697 55.4133 109.297 55.96C108.897 56.5067 108.684 57.3333 108.657 58.44V63H106.297V57.32C106.297 56.6 106.124 56.06 105.777 55.7C105.431 55.3267 104.944 55.14 104.317 55.14C103.691 55.14 103.151 55.42 102.697 55.98C102.257 56.54 102.024 57.38 101.997 58.5V63H99.6373V53.28H101.697L101.957 54.96C102.597 53.6667 103.624 53.02 105.037 53.02C105.851 53.02 106.524 53.2067 107.057 53.58C107.604 53.9533 108.011 54.4667 108.277 55.12ZM125.402 54.44C125.735 54.8667 125.982 55.36 126.142 55.92C126.315 56.48 126.402 56.9933 126.402 57.46C126.402 57.9267 126.375 58.3467 126.322 58.72H120.042C120.068 59.5067 120.262 60.1467 120.622 60.64C120.982 61.1333 121.528 61.38 122.262 61.38C123.235 61.38 123.815 60.9533 124.002 60.1H126.382C126.222 61.0733 125.775 61.84 125.042 62.4C124.282 62.9867 123.355 63.28 122.262 63.28C120.982 63.28 119.908 62.8133 119.042 61.88C118.148 60.9067 117.702 59.66 117.702 58.14C117.702 56.58 118.148 55.3267 119.042 54.38C119.895 53.4733 120.968 53.02 122.262 53.02C123.608 53.02 124.655 53.4933 125.402 54.44ZM122.282 54.9C121.615 54.9 121.095 55.12 120.722 55.56C120.348 55.9867 120.128 56.54 120.062 57.22H124.202C124.202 56.1667 123.868 55.46 123.202 55.1C122.948 54.9667 122.642 54.9 122.282 54.9ZM138.106 53.02C138.759 53.02 139.372 53.1267 139.946 53.34C140.519 53.54 141.012 53.8533 141.426 54.28C142.346 55.2133 142.806 56.5067 142.806 58.16C142.806 59.7867 142.346 61.0667 141.426 62C140.599 62.8533 139.492 63.28 138.106 63.28C136.719 63.28 135.599 62.8533 134.746 62C133.826 61.08 133.366 59.8 133.366 58.16C133.366 56.4933 133.826 55.2 134.746 54.28C135.586 53.44 136.706 53.02 138.106 53.02ZM140.446 58.14C140.446 57.1133 140.246 56.3467 139.846 55.84C139.446 55.32 138.886 55.06 138.166 55.06C137.459 55.06 136.879 55.32 136.426 55.84C135.972 56.3467 135.746 57.1133 135.746 58.14C135.746 59.1667 135.946 59.94 136.346 60.46C136.759 60.9667 137.319 61.22 138.026 61.22C138.732 61.22 139.312 60.9667 139.766 60.46C140.219 59.94 140.446 59.1667 140.446 58.14ZM144.554 53.28H145.994V52.14C145.994 51.14 146.287 50.3733 146.874 49.84C147.407 49.36 148.101 49.12 148.954 49.12C149.501 49.12 150.174 49.2 150.974 49.36L150.514 51.18C150.141 51.0467 149.801 50.98 149.494 50.98C149.201 50.98 148.941 51.0667 148.714 51.24C148.487 51.4 148.374 51.7067 148.374 52.16V53.28H150.154V54.86H148.374V63H145.994V54.86H144.554V53.28ZM46.02 77.42C46.8467 78.3533 47.26 79.58 47.26 81.1C47.26 82.62 46.8267 83.8733 45.96 84.86C45.12 85.8067 44.0733 86.28 42.82 86.28C42.22 86.28 41.6667 86.12 41.16 85.8C40.6667 85.48 40.2733 84.9867 39.98 84.32L39.4 86H37.86V72.28H40.22V77.5C40.8333 76.5133 41.7467 76.02 42.96 76.02C44.1867 76.02 45.2067 76.4867 46.02 77.42ZM40.22 80.54V81.82C40.2467 82.5 40.4933 83.06 40.96 83.5C41.4 83.9267 41.9333 84.14 42.56 84.14C43.2 84.14 43.7467 83.8667 44.2 83.32C44.6533 82.76 44.88 82.0267 44.88 81.12C44.88 80.2133 44.6533 79.4933 44.2 78.96C43.76 78.4133 43.2067 78.14 42.54 78.14C41.8733 78.14 41.32 78.36 40.88 78.8C40.44 79.24 40.22 79.82 40.22 80.54ZM50.3452 76.26H52.7052V86H50.3452V76.26ZM50.0652 73.14C50.0652 72.7133 50.1918 72.38 50.4452 72.14C50.6985 71.8867 51.0585 71.76 51.5252 71.76C51.9785 71.76 52.3318 71.8867 52.5852 72.14C52.8518 72.38 52.9852 72.7133 52.9852 73.14C52.9852 73.5667 52.8518 73.9067 52.5852 74.16C52.3318 74.4 51.9785 74.52 51.5252 74.52C51.0585 74.52 50.6985 74.4 50.4452 74.16C50.1918 73.9067 50.0652 73.5667 50.0652 73.14ZM59.0677 78.2C59.6543 76.8 60.5343 76.1 61.7077 76.1C61.9343 76.1 62.221 76.1467 62.5677 76.24L62.5277 78.6C62.1543 78.52 61.7877 78.48 61.4277 78.48C59.8543 78.48 59.0677 79.5667 59.0677 81.74V86H56.7077V76.26H59.0677V78.2ZM70.508 85.76C69.628 86.1067 68.9346 86.28 68.428 86.28C67.9213 86.28 67.4746 86.22 67.088 86.1C66.7146 85.98 66.3813 85.8 66.088 85.56C65.4746 85.0133 65.168 84.26 65.168 83.3V77.86H63.808V76.28H65.168V73.72H67.528V76.28H70.168V77.86H67.528V83.22C67.528 84.02 67.908 84.42 68.668 84.42C69.0546 84.42 69.5546 84.3133 70.168 84.1L70.508 85.76ZM75.2786 77.86C75.9453 76.6333 76.9186 76.02 78.1986 76.02C79.4786 76.02 80.4186 76.4133 81.0186 77.2C81.6319 77.9867 81.9386 79.0267 81.9386 80.32V86H79.5786V80.32C79.5786 79.6 79.4053 79.06 79.0586 78.7C78.7119 78.3267 78.2253 78.14 77.5986 78.14C76.9719 78.14 76.4319 78.42 75.9786 78.98C75.5386 79.54 75.3053 80.38 75.2786 81.5V86H72.9186V72.28H75.2786V77.86ZM93.2195 76.38C93.2195 77.0867 93.0462 77.68 92.6995 78.16C92.3529 78.6267 91.8062 79.0467 91.0595 79.42C90.4329 79.74 90.0195 80.0133 89.8195 80.24C89.6329 80.4667 89.5129 80.68 89.4595 80.88C89.4062 81.0667 89.3795 81.2867 89.3795 81.54V82.12H87.0195V81.32C87.0195 80.12 87.3795 79.2667 88.0995 78.76C88.3529 78.5733 88.7262 78.3533 89.2195 78.1C89.7129 77.8467 90.0662 77.5933 90.2795 77.34C90.5062 77.0733 90.6195 76.74 90.6195 76.34C90.6195 75.9267 90.4529 75.5867 90.1195 75.32C89.7862 75.04 89.2929 74.9 88.6395 74.9C87.9862 74.9 87.4729 75.06 87.0995 75.38C86.7262 75.6867 86.5129 76.0933 86.4595 76.6H83.9995C84.0662 75.44 84.4929 74.5133 85.2795 73.82C86.0662 73.1133 87.1662 72.76 88.5795 72.76C90.0062 72.76 91.1329 73.1067 91.9595 73.8C92.7995 74.4933 93.2195 75.3533 93.2195 76.38ZM86.6195 84.7C86.6195 84.2467 86.7662 83.8733 87.0595 83.58C87.3662 83.2867 87.7595 83.14 88.2395 83.14C88.7329 83.14 89.1395 83.2867 89.4595 83.58C89.7795 83.8733 89.9395 84.2467 89.9395 84.7C89.9395 85.1533 89.7795 85.5333 89.4595 85.84C89.1395 86.1333 88.7329 86.28 88.2395 86.28C87.7595 86.28 87.3662 86.1333 87.0595 85.84C86.7662 85.5333 86.6195 85.1533 86.6195 84.7ZM199.496 128.162C199.196 128.162 198.944 128.066 198.74 127.874C198.548 127.67 198.452 127.43 198.452 127.154C198.452 126.866 198.548 126.626 198.74 126.434C198.944 126.23 199.196 126.128 199.496 126.128C199.808 126.128 200.066 126.23 200.27 126.434C200.474 126.626 200.576 126.866 200.576 127.154C200.576 127.43 200.474 127.67 200.27 127.874C200.066 128.066 199.808 128.162 199.496 128.162Z" fill="#181827"/>
<path d="M39.114 97.712L37.008 96.992L37.44 96.02L39.348 96.992L39.168 94.688H40.284L40.104 96.992L42.012 96.02L42.444 96.992L40.356 97.712L41.976 99.314L41.184 100.016L39.744 98.144L38.304 100.016L37.494 99.314L39.114 97.712ZM43.526 95.678H52.328V96.902H48.638V107H47.216V96.902H43.526V95.678ZM55.6755 99.98C56.2515 98.78 57.2055 98.18 58.5375 98.18C59.5575 98.18 60.3495 98.516 60.9135 99.188C61.4895 99.86 61.7775 100.778 61.7775 101.942V107H60.3735V101.942C60.3735 101.114 60.1755 100.49 59.7795 100.07C59.3955 99.65 58.8375 99.44 58.1055 99.44C57.3735 99.44 56.7855 99.752 56.3415 100.376C55.8975 100.988 55.6755 101.84 55.6755 102.932V107H54.2535V94.742H55.6755V99.98ZM65.2068 98.378H66.6288V107H65.2068V98.378ZM65.9088 96.362C65.6208 96.362 65.3928 96.284 65.2248 96.128C65.0688 95.96 64.9908 95.744 64.9908 95.48C64.9908 95.204 65.0688 94.988 65.2248 94.832C65.3928 94.664 65.6208 94.58 65.9088 94.58C66.1968 94.58 66.4248 94.664 66.5928 94.832C66.7728 94.988 66.8628 95.204 66.8628 95.48C66.8628 95.744 66.7728 95.96 66.5928 96.128C66.4248 96.284 66.1968 96.362 65.9088 96.362ZM70.0457 100.502C70.0457 99.794 70.3457 99.23 70.9457 98.81C71.5577 98.39 72.3797 98.18 73.4117 98.18C74.4437 98.18 75.2477 98.396 75.8237 98.828C76.4117 99.26 76.7177 99.806 76.7417 100.466H75.3557C75.2477 99.686 74.5877 99.296 73.3757 99.296C72.7877 99.296 72.3317 99.428 72.0077 99.692C71.6957 99.956 71.5397 100.244 71.5397 100.556C71.5397 100.856 71.6597 101.114 71.8997 101.33C72.1397 101.534 72.5237 101.714 73.0517 101.87L74.7797 102.446C75.5117 102.674 76.0697 102.968 76.4537 103.328C76.8497 103.676 77.0477 104.162 77.0477 104.786C77.0477 105.398 76.7297 105.956 76.0937 106.46C75.4577 106.952 74.5697 107.198 73.4297 107.198C72.2897 107.198 71.4017 106.946 70.7657 106.442C70.1297 105.926 69.7937 105.266 69.7577 104.462H71.1257C71.1497 105.002 71.3657 105.41 71.7737 105.686C72.1937 105.95 72.7157 106.082 73.3397 106.082C73.9637 106.082 74.4797 105.95 74.8877 105.686C75.2957 105.422 75.4997 105.11 75.4997 104.75C75.4997 104.378 75.3797 104.096 75.1397 103.904C74.8997 103.712 74.5097 103.544 73.9697 103.4L72.2957 102.842C70.7957 102.398 70.0457 101.618 70.0457 100.502ZM84.3494 98.378H85.7714V107H84.3494V98.378ZM85.0514 96.362C84.7634 96.362 84.5354 96.284 84.3674 96.128C84.2114 95.96 84.1334 95.744 84.1334 95.48C84.1334 95.204 84.2114 94.988 84.3674 94.832C84.5354 94.664 84.7634 94.58 85.0514 94.58C85.3394 94.58 85.5674 94.664 85.7354 94.832C85.9154 94.988 86.0054 95.204 86.0054 95.48C86.0054 95.744 85.9154 95.96 85.7354 96.128C85.5674 96.284 85.3394 96.362 85.0514 96.362ZM91.0063 100.052C91.5703 98.804 92.5363 98.18 93.9043 98.18C94.9243 98.18 95.7163 98.516 96.2803 99.188C96.8563 99.86 97.1443 100.778 97.1443 101.942V107H95.7403V101.942C95.7403 101.114 95.5423 100.49 95.1463 100.07C94.7623 99.65 94.2103 99.44 93.4903 99.44C92.7703 99.44 92.1883 99.734 91.7443 100.322C91.3003 100.91 91.0663 101.726 91.0423 102.77V107H89.6203V98.396H90.8443L91.0063 100.052ZM104.66 95.948C104.264 95.792 103.952 95.714 103.724 95.714C103.304 95.714 102.974 95.816 102.734 96.02C102.494 96.224 102.374 96.584 102.374 97.1V98.396H104.156V99.368H102.374V107H100.97V99.368H99.548V98.396H100.97V97.082C100.97 96.23 101.204 95.606 101.672 95.21C102.14 94.802 102.68 94.598 103.292 94.598C103.904 94.598 104.444 94.676 104.912 94.832L104.66 95.948ZM109.75 98.18C110.95 98.18 111.916 98.57 112.648 99.35C113.392 100.13 113.764 101.246 113.764 102.698C113.764 104.138 113.392 105.248 112.648 106.028C111.916 106.808 110.95 107.198 109.75 107.198C108.55 107.198 107.578 106.808 106.834 106.028C106.102 105.248 105.736 104.138 105.736 102.698C105.736 101.246 106.102 100.13 106.834 99.35C107.578 98.57 108.55 98.18 109.75 98.18ZM112.324 102.698C112.324 101.666 112.108 100.862 111.676 100.286C111.244 99.698 110.608 99.404 109.768 99.404C108.94 99.404 108.304 99.698 107.86 100.286C107.416 100.862 107.194 101.666 107.194 102.698C107.194 103.718 107.404 104.522 107.824 105.11C108.244 105.686 108.868 105.974 109.696 105.974C110.536 105.974 111.184 105.686 111.64 105.11C112.096 104.522 112.324 103.718 112.324 102.698ZM120.859 98.378H122.281V107H120.859V98.378ZM121.561 96.362C121.273 96.362 121.045 96.284 120.877 96.128C120.721 95.96 120.643 95.744 120.643 95.48C120.643 95.204 120.721 94.988 120.877 94.832C121.045 94.664 121.273 94.58 121.561 94.58C121.849 94.58 122.077 94.664 122.245 94.832C122.425 94.988 122.515 95.204 122.515 95.48C122.515 95.744 122.425 95.96 122.245 96.128C122.077 96.284 121.849 96.362 121.561 96.362ZM125.698 100.502C125.698 99.794 125.998 99.23 126.598 98.81C127.21 98.39 128.032 98.18 129.064 98.18C130.096 98.18 130.9 98.396 131.476 98.828C132.064 99.26 132.37 99.806 132.394 100.466H131.008C130.9 99.686 130.24 99.296 129.028 99.296C128.44 99.296 127.984 99.428 127.66 99.692C127.348 99.956 127.192 100.244 127.192 100.556C127.192 100.856 127.312 101.114 127.552 101.33C127.792 101.534 128.176 101.714 128.704 101.87L130.432 102.446C131.164 102.674 131.722 102.968 132.106 103.328C132.502 103.676 132.7 104.162 132.7 104.786C132.7 105.398 132.382 105.956 131.746 106.46C131.11 106.952 130.222 107.198 129.082 107.198C127.942 107.198 127.054 106.946 126.418 106.442C125.782 105.926 125.446 105.266 125.41 104.462H126.778C126.802 105.002 127.018 105.41 127.426 105.686C127.846 105.95 128.368 106.082 128.992 106.082C129.616 106.082 130.132 105.95 130.54 105.686C130.948 105.422 131.152 105.11 131.152 104.75C131.152 104.378 131.032 104.096 130.792 103.904C130.552 103.712 130.162 103.544 129.622 103.4L127.948 102.842C126.448 102.398 125.698 101.618 125.698 100.502ZM141.28 100.052C141.844 98.804 142.81 98.18 144.178 98.18C145.198 98.18 145.99 98.516 146.554 99.188C147.13 99.86 147.418 100.778 147.418 101.942V107H146.014V101.942C146.014 101.114 145.816 100.49 145.42 100.07C145.036 99.65 144.484 99.44 143.764 99.44C143.044 99.44 142.462 99.734 142.018 100.322C141.574 100.91 141.34 101.726 141.316 102.77V107H139.894V98.396H141.118L141.28 100.052ZM153.727 106.046C154.915 106.046 155.593 105.524 155.761 104.48H157.219C157.087 105.344 156.703 106.016 156.067 106.496C155.443 106.964 154.663 107.198 153.727 107.198C152.575 107.198 151.639 106.79 150.919 105.974C150.199 105.146 149.839 104.048 149.839 102.68C149.839 101.312 150.199 100.22 150.919 99.404C151.651 98.588 152.617 98.18 153.817 98.18C155.029 98.18 155.929 98.648 156.517 99.584C157.117 100.52 157.327 101.66 157.147 103.004H151.261C151.261 103.892 151.477 104.624 151.909 105.2C152.341 105.764 152.947 106.046 153.727 106.046ZM154.771 99.53C154.495 99.386 154.159 99.314 153.763 99.314C153.031 99.314 152.449 99.566 152.017 100.07C151.597 100.562 151.351 101.18 151.279 101.924H155.869C155.869 100.724 155.503 99.926 154.771 99.53ZM162.991 106.046C164.179 106.046 164.857 105.524 165.025 104.48H166.483C166.351 105.344 165.967 106.016 165.331 106.496C164.707 106.964 163.927 107.198 162.991 107.198C161.839 107.198 160.903 106.79 160.183 105.974C159.463 105.146 159.103 104.048 159.103 102.68C159.103 101.312 159.463 100.22 160.183 99.404C160.915 98.588 161.881 98.18 163.081 98.18C164.293 98.18 165.193 98.648 165.781 99.584C166.381 100.52 166.591 101.66 166.411 103.004H160.525C160.525 103.892 160.741 104.624 161.173 105.2C161.605 105.764 162.211 106.046 162.991 106.046ZM164.035 99.53C163.759 99.386 163.423 99.314 163.027 99.314C162.295 99.314 161.713 99.566 161.281 100.07C160.861 100.562 160.615 101.18 160.543 101.924H165.133C165.133 100.724 164.767 99.926 164.035 99.53ZM174.919 99.674V94.742H176.323V107H175.171L174.991 105.56C174.715 106.1 174.349 106.508 173.893 106.784C173.437 107.06 172.939 107.198 172.399 107.198C171.307 107.198 170.389 106.778 169.645 105.938C168.913 105.098 168.547 104.006 168.547 102.662C168.547 101.306 168.907 100.22 169.627 99.404C170.359 98.588 171.277 98.18 172.381 98.18C173.497 98.18 174.343 98.678 174.919 99.674ZM172.471 99.44C171.775 99.44 171.187 99.734 170.707 100.322C170.239 100.91 170.005 101.696 170.005 102.68C170.005 103.664 170.245 104.456 170.725 105.056C171.205 105.644 171.781 105.938 172.453 105.938C173.125 105.938 173.695 105.716 174.163 105.272C174.643 104.816 174.895 104.21 174.919 103.454V102.05C174.919 101.246 174.685 100.61 174.217 100.142C173.749 99.674 173.167 99.44 172.471 99.44ZM182.942 106.046C184.13 106.046 184.808 105.524 184.976 104.48H186.434C186.302 105.344 185.918 106.016 185.282 106.496C184.658 106.964 183.878 107.198 182.942 107.198C181.79 107.198 180.854 106.79 180.134 105.974C179.414 105.146 179.054 104.048 179.054 102.68C179.054 101.312 179.414 100.22 180.134 99.404C180.866 98.588 181.832 98.18 183.032 98.18C184.244 98.18 185.144 98.648 185.732 99.584C186.332 100.52 186.542 101.66 186.362 103.004H180.476C180.476 103.892 180.692 104.624 181.124 105.2C181.556 105.764 182.162 106.046 182.942 106.046ZM183.986 99.53C183.71 99.386 183.374 99.314 182.978 99.314C182.246 99.314 181.664 99.566 181.232 100.07C180.812 100.562 180.566 101.18 180.494 101.924H185.084C185.084 100.724 184.718 99.926 183.986 99.53ZM194.87 99.674V94.742H196.274V107H195.122L194.942 105.56C194.666 106.1 194.3 106.508 193.844 106.784C193.388 107.06 192.89 107.198 192.35 107.198C191.258 107.198 190.34 106.778 189.596 105.938C188.864 105.098 188.498 104.006 188.498 102.662C188.498 101.306 188.858 100.22 189.578 99.404C190.31 98.588 191.228 98.18 192.332 98.18C193.448 98.18 194.294 98.678 194.87 99.674ZM192.422 99.44C191.726 99.44 191.138 99.734 190.658 100.322C190.19 100.91 189.956 101.696 189.956 102.68C189.956 103.664 190.196 104.456 190.676 105.056C191.156 105.644 191.732 105.938 192.404 105.938C193.076 105.938 193.646 105.716 194.114 105.272C194.594 104.816 194.846 104.21 194.87 103.454V102.05C194.87 101.246 194.636 100.61 194.168 100.142C193.7 99.674 193.118 99.44 192.422 99.44ZM41.994 116.948C41.598 116.792 41.286 116.714 41.058 116.714C40.638 116.714 40.308 116.816 40.068 117.02C39.828 117.224 39.708 117.584 39.708 118.1V119.396H41.49V120.368H39.708V128H38.304V120.368H36.882V119.396H38.304V118.082C38.304 117.23 38.538 116.606 39.006 116.21C39.474 115.802 40.014 115.598 40.626 115.598C41.238 115.598 41.778 115.676 42.246 115.832L41.994 116.948ZM47.0839 119.18C48.2839 119.18 49.2499 119.57 49.9819 120.35C50.7259 121.13 51.0979 122.246 51.0979 123.698C51.0979 125.138 50.7259 126.248 49.9819 127.028C49.2499 127.808 48.2839 128.198 47.0839 128.198C45.8839 128.198 44.9119 127.808 44.1679 127.028C43.4359 126.248 43.0699 125.138 43.0699 123.698C43.0699 122.246 43.4359 121.13 44.1679 120.35C44.9119 119.57 45.8839 119.18 47.0839 119.18ZM49.6579 123.698C49.6579 122.666 49.4419 121.862 49.0099 121.286C48.5779 120.698 47.9419 120.404 47.1019 120.404C46.2739 120.404 45.6379 120.698 45.1939 121.286C44.7499 121.862 44.5279 122.666 44.5279 123.698C44.5279 124.718 44.7379 125.522 45.1579 126.11C45.5779 126.686 46.2019 126.974 47.0299 126.974C47.8699 126.974 48.5179 126.686 48.9739 126.11C49.4299 125.522 49.6579 124.718 49.6579 123.698ZM57.3241 120.602C55.9681 120.602 55.2661 121.67 55.2181 123.806V128H53.7961V119.378H55.2181V121.034C55.6501 119.834 56.4121 119.234 57.5041 119.234C57.8521 119.234 58.1821 119.288 58.4941 119.396L58.4221 120.782C58.0621 120.662 57.6961 120.602 57.3241 120.602ZM63.2306 130.502C63.8186 130.958 64.4366 131.186 65.0846 131.186C65.5646 131.186 65.9786 130.946 66.3266 130.466C66.5786 130.118 66.8066 129.59 67.0106 128.882L67.2626 128L63.7346 119.396H65.3186L67.9286 126.254L69.9626 119.396H71.4026L68.1806 129.71C67.9046 130.586 67.5386 131.258 67.0826 131.726C66.6386 132.194 66.0686 132.428 65.3726 132.428C64.6886 132.428 63.9746 132.218 63.2306 131.798V130.502ZM76.7734 119.18C77.9734 119.18 78.9394 119.57 79.6714 120.35C80.4154 121.13 80.7874 122.246 80.7874 123.698C80.7874 125.138 80.4154 126.248 79.6714 127.028C78.9394 127.808 77.9734 128.198 76.7734 128.198C75.5734 128.198 74.6014 127.808 73.8574 127.028C73.1254 126.248 72.7594 125.138 72.7594 123.698C72.7594 122.246 73.1254 121.13 73.8574 120.35C74.6014 119.57 75.5734 119.18 76.7734 119.18ZM79.3474 123.698C79.3474 122.666 79.1314 121.862 78.6994 121.286C78.2674 120.698 77.6314 120.404 76.7914 120.404C75.9634 120.404 75.3274 120.698 74.8834 121.286C74.4394 121.862 74.2174 122.666 74.2174 123.698C74.2174 124.718 74.4274 125.522 74.8474 126.11C75.2674 126.686 75.8914 126.974 76.7194 126.974C77.5594 126.974 78.2074 126.686 78.6634 126.11C79.1194 125.522 79.3474 124.718 79.3474 123.698ZM89.3535 126.29C88.7655 127.538 87.8115 128.162 86.4915 128.162C85.5195 128.162 84.7335 127.892 84.1335 127.352C83.5455 126.812 83.2515 125.978 83.2515 124.85V119.378H84.6735V124.742C84.6735 126.194 85.3455 126.92 86.6895 126.92C87.4695 126.92 88.0995 126.62 88.5795 126.02C89.0715 125.42 89.3295 124.652 89.3535 123.716V119.378H90.7755V128H89.3535V126.29ZM97.9296 120.602C96.5736 120.602 95.8716 121.67 95.8236 123.806V128H94.4016V119.378H95.8236V121.034C96.2556 119.834 97.0176 119.234 98.1096 119.234C98.4576 119.234 98.7876 119.288 99.0996 119.396L99.0276 120.782C98.6676 120.662 98.3016 120.602 97.9296 120.602ZM107.22 116.678L112.836 125.768V116.678H114.258V128H112.674L106.968 118.784V128H105.528V116.678H107.22ZM123.214 122.42C123.214 121.64 123.052 121.082 122.728 120.746C122.404 120.41 121.93 120.242 121.306 120.242C120.694 120.242 120.196 120.368 119.812 120.62C119.44 120.86 119.254 121.244 119.254 121.772H117.688C117.688 120.452 118.396 119.636 119.812 119.324C120.244 119.228 120.712 119.18 121.216 119.18C122.284 119.18 123.118 119.45 123.718 119.99C124.318 120.53 124.618 121.352 124.618 122.456V128H123.394L123.25 126.56C122.722 127.652 121.768 128.198 120.388 128.198C119.464 128.198 118.72 127.94 118.156 127.424C117.604 126.908 117.328 126.266 117.328 125.498C117.328 124.73 117.634 124.13 118.246 123.698C118.87 123.266 119.644 123.05 120.568 123.05C121.492 123.05 122.374 123.206 123.214 123.518V122.42ZM123.214 124.418C122.362 124.178 121.618 124.058 120.982 124.058C120.346 124.058 119.83 124.172 119.434 124.4C119.038 124.628 118.84 124.988 118.84 125.48C118.84 126.56 119.452 127.1 120.676 127.1C121.372 127.1 121.966 126.854 122.458 126.362C122.962 125.858 123.214 125.21 123.214 124.418ZM132.459 127.748C131.427 128.228 130.485 128.33 129.633 128.054C129.021 127.862 128.589 127.46 128.337 126.848C128.205 126.548 128.139 126.188 128.139 125.768V120.476H126.753V119.396H128.139V117.002H129.543V119.396H132.243V120.476H129.543V125.75C129.543 126.626 129.951 127.064 130.767 127.064C131.211 127.064 131.709 126.956 132.261 126.74L132.459 127.748ZM140.054 122.42C140.054 121.64 139.892 121.082 139.568 120.746C139.244 120.41 138.77 120.242 138.146 120.242C137.534 120.242 137.036 120.368 136.652 120.62C136.28 120.86 136.094 121.244 136.094 121.772H134.528C134.528 120.452 135.236 119.636 136.652 119.324C137.084 119.228 137.552 119.18 138.056 119.18C139.124 119.18 139.958 119.45 140.558 119.99C141.158 120.53 141.458 121.352 141.458 122.456V128H140.234L140.09 126.56C139.562 127.652 138.608 128.198 137.228 128.198C136.304 128.198 135.56 127.94 134.996 127.424C134.444 126.908 134.168 126.266 134.168 125.498C134.168 124.73 134.474 124.13 135.086 123.698C135.71 123.266 136.484 123.05 137.408 123.05C138.332 123.05 139.214 123.206 140.054 123.518V122.42ZM140.054 124.418C139.202 124.178 138.458 124.058 137.822 124.058C137.186 124.058 136.67 124.172 136.274 124.4C135.878 124.628 135.68 124.988 135.68 125.48C135.68 126.56 136.292 127.1 137.516 127.1C138.212 127.1 138.806 126.854 139.298 126.362C139.802 125.858 140.054 125.21 140.054 124.418ZM144.798 115.742H146.22V128H144.798V115.742ZM158.056 116.48C159.268 116.48 160.24 116.786 160.972 117.398C161.716 117.998 162.226 118.784 162.502 119.756L160.972 120.062C160.732 119.354 160.354 118.796 159.838 118.388C159.334 117.968 158.74 117.758 158.056 117.758C157.108 117.758 156.322 118.154 155.698 118.946C155.074 119.738 154.762 120.842 154.762 122.258C154.762 123.662 155.038 124.79 155.59 125.642C156.154 126.494 156.976 126.92 158.056 126.92C158.956 126.92 159.664 126.686 160.18 126.218C160.708 125.738 160.972 125.108 160.972 124.328H162.502C162.502 125.516 162.094 126.458 161.278 127.154C160.474 127.85 159.364 128.198 157.948 128.198C156.544 128.198 155.404 127.658 154.528 126.578C153.664 125.498 153.232 124.052 153.232 122.24C153.232 120.428 153.682 119.018 154.582 118.01C155.482 116.99 156.64 116.48 158.056 116.48ZM166.594 120.98C167.17 119.78 168.124 119.18 169.456 119.18C170.476 119.18 171.268 119.516 171.832 120.188C172.408 120.86 172.696 121.778 172.696 122.942V128H171.292V122.942C171.292 122.114 171.094 121.49 170.698 121.07C170.314 120.65 169.756 120.44 169.024 120.44C168.292 120.44 167.704 120.752 167.26 121.376C166.816 121.988 166.594 122.84 166.594 123.932V128H165.172V115.742H166.594V120.98ZM181.363 122.42C181.363 121.64 181.201 121.082 180.877 120.746C180.553 120.41 180.079 120.242 179.455 120.242C178.843 120.242 178.345 120.368 177.961 120.62C177.589 120.86 177.403 121.244 177.403 121.772H175.837C175.837 120.452 176.545 119.636 177.961 119.324C178.393 119.228 178.861 119.18 179.365 119.18C180.433 119.18 181.267 119.45 181.867 119.99C182.467 120.53 182.767 121.352 182.767 122.456V128H181.543L181.399 126.56C180.871 127.652 179.917 128.198 178.537 128.198C177.613 128.198 176.869 127.94 176.305 127.424C175.753 126.908 175.477 126.266 175.477 125.498C175.477 124.73 175.783 124.13 176.395 123.698C177.019 123.266 177.793 123.05 178.717 123.05C179.641 123.05 180.523 123.206 181.363 123.518V122.42ZM181.363 124.418C180.511 124.178 179.767 124.058 179.131 124.058C178.495 124.058 177.979 124.172 177.583 124.4C177.187 124.628 176.989 124.988 176.989 125.48C176.989 126.56 177.601 127.1 178.825 127.1C179.521 127.1 180.115 126.854 180.607 126.362C181.111 125.858 181.363 125.21 181.363 124.418ZM189.617 120.602C188.261 120.602 187.559 121.67 187.511 123.806V128H186.089V119.378H187.511V121.034C187.943 119.834 188.705 119.234 189.797 119.234C190.145 119.234 190.475 119.288 190.787 119.396L190.715 120.782C190.355 120.662 189.989 120.602 189.617 120.602ZM197.463 127.748C196.431 128.228 195.489 128.33 194.637 128.054C194.025 127.862 193.593 127.46 193.341 126.848C193.209 126.548 193.143 126.188 193.143 125.768V120.476H191.757V119.396H193.143V117.002H194.547V119.396H197.247V120.476H194.547V125.75C194.547 126.626 194.955 127.064 195.771 127.064C196.215 127.064 196.713 126.956 197.265 126.74L197.463 127.748Z" fill="#7075A5"/>
</svg>
