<svg width="234" height="155" viewBox="0 0 234 155" fill="none" xmlns="http://www.w3.org/2000/svg">
<path fill-rule="evenodd" clip-rule="evenodd" d="M117 155C181.617 155 234 120.302 234 77.5C234 34.6979 181.617 0 117 0C52.3827 0 0 34.6979 0 77.5C0 93.4755 7.2974 108.322 19.8047 120.657L8.36784 139.704H47.2005C66.6859 149.313 90.8404 155 117 155Z" fill="white"/>
<path d="M41.22 49.94H46.56V52H38.86V39.02H41.22V49.94ZM51.9428 46.32C52.7161 46.32 53.6095 46.4467 54.6228 46.7V45.74C54.6228 45.06 54.4828 44.56 54.2028 44.24C53.9361 43.9067 53.4895 43.74 52.8628 43.74C52.2495 43.74 51.7761 43.8667 51.4428 44.12C51.1095 44.36 50.9428 44.7067 50.9428 45.16H48.3628C48.3628 44.0533 48.7495 43.2533 49.5228 42.76C50.3095 42.2667 51.4028 42.02 52.8028 42.02C54.8028 42.02 56.0961 42.72 56.6828 44.12C56.8828 44.6 56.9828 45.1667 56.9828 45.82V52H54.9228L54.7428 50.7C54.1161 51.7533 53.1561 52.28 51.8628 52.28C50.6095 52.28 49.6361 51.9733 48.9428 51.36C48.3028 50.7733 47.9828 50.0333 47.9828 49.14C47.9828 48.2333 48.3361 47.54 49.0428 47.06C49.7495 46.5667 50.7161 46.32 51.9428 46.32ZM54.6228 48.2C53.8361 47.9867 53.1028 47.88 52.4228 47.88C51.1428 47.88 50.5028 48.3067 50.5028 49.16C50.5028 49.52 50.6495 49.8333 50.9428 50.1C51.2361 50.3533 51.7028 50.48 52.3428 50.48C52.9961 50.48 53.5295 50.2667 53.9428 49.84C54.3695 49.4 54.5961 48.8533 54.6228 48.2ZM61.7425 49.04C61.7692 49.96 62.4425 50.42 63.7625 50.42C64.2692 50.42 64.6825 50.3133 65.0025 50.1C65.3358 49.8733 65.5025 49.6133 65.5025 49.32C65.5025 49.0267 65.4025 48.8 65.2025 48.64C65.0025 48.48 64.6892 48.3333 64.2625 48.2L62.1425 47.44C60.5692 46.8933 59.7825 46 59.7825 44.76C59.7825 43.9333 60.1492 43.2733 60.8825 42.78C61.6292 42.2733 62.6225 42.02 63.8625 42.02C65.1158 42.02 66.0758 42.2933 66.7425 42.84C67.4225 43.3867 67.7758 44.0733 67.8025 44.9H65.5825C65.5558 44.58 65.4025 44.3267 65.1225 44.14C64.8425 43.9533 64.4425 43.86 63.9225 43.86C63.4025 43.86 62.9958 43.9667 62.7025 44.18C62.4225 44.38 62.2825 44.6133 62.2825 44.88C62.2825 45.3467 62.6758 45.6933 63.4625 45.92L65.7625 46.78C66.5225 47.0333 67.1025 47.36 67.5025 47.76C67.9158 48.1467 68.1225 48.6533 68.1225 49.28C68.1225 50.08 67.7425 50.7733 66.9825 51.36C66.1958 51.9733 65.1558 52.28 63.8625 52.28C62.5692 52.28 61.5292 52 60.7425 51.44C59.9558 50.8667 59.5558 50.0667 59.5425 49.04H61.7425ZM76.4494 51.76C75.5694 52.1067 74.876 52.28 74.3694 52.28C73.8627 52.28 73.416 52.22 73.0294 52.1C72.656 51.98 72.3227 51.8 72.0294 51.56C71.416 51.0133 71.1094 50.26 71.1094 49.3V43.86H69.7494V42.28H71.1094V39.72H73.4694V42.28H76.1094V43.86H73.4694V49.22C73.4694 50.02 73.8494 50.42 74.6094 50.42C74.996 50.42 75.496 50.3133 76.1094 50.1L76.4494 51.76ZM90.0186 50.74C89.5386 51.7667 88.7119 52.28 87.5386 52.28C86.2853 52.28 85.2319 51.8267 84.3786 50.92C83.4586 49.96 82.9986 48.7 82.9986 47.14C82.9986 45.6067 83.4453 44.3533 84.3386 43.38C85.1786 42.4733 86.2053 42.02 87.4186 42.02C88.0186 42.02 88.5719 42.1667 89.0786 42.46C89.5986 42.74 90.0186 43.18 90.3386 43.78L90.8586 42.28H92.3986V53.5C92.3986 54.0733 92.4653 54.4533 92.5986 54.64C92.7453 54.8267 92.9053 54.96 93.0786 55.04C93.2519 55.1333 93.4653 55.22 93.7186 55.3L93.0386 57.02C91.9453 56.7533 91.1653 56.3267 90.6986 55.74C90.2453 55.1533 90.0186 54.3467 90.0186 53.32V50.74ZM90.0186 46.44C90.0186 45.7067 89.8053 45.14 89.3786 44.74C88.9519 44.34 88.4053 44.14 87.7386 44.14C87.0853 44.14 86.5253 44.4067 86.0586 44.94C85.6053 45.4733 85.3786 46.2067 85.3786 47.14C85.3786 48.0867 85.6453 48.84 86.1786 49.4C86.6453 49.8933 87.2119 50.14 87.8786 50.14C88.4253 50.14 88.9053 49.9733 89.3186 49.64C89.7586 49.2667 89.9919 48.78 90.0186 48.18V46.44ZM102.586 50.24C101.972 51.5333 100.986 52.18 99.6256 52.18C97.9056 52.18 96.7723 51.5067 96.2256 50.16C96.0256 49.6933 95.9256 49.1267 95.9256 48.46V42.26H98.2856V48.22C98.2856 48.86 98.439 49.34 98.7456 49.66C99.0523 49.9667 99.4256 50.12 99.8656 50.12C100.319 50.12 100.699 50.06 101.006 49.94C101.312 49.8067 101.579 49.6133 101.806 49.36C102.299 48.7867 102.559 48.02 102.586 47.06V42.26H104.946V52H102.586V50.24ZM115.445 43.44C115.778 43.8667 116.025 44.36 116.185 44.92C116.358 45.48 116.445 45.9933 116.445 46.46C116.445 46.9267 116.418 47.3467 116.365 47.72H110.085C110.111 48.5067 110.305 49.1467 110.665 49.64C111.025 50.1333 111.571 50.38 112.305 50.38C113.278 50.38 113.858 49.9533 114.045 49.1H116.425C116.265 50.0733 115.818 50.84 115.085 51.4C114.325 51.9867 113.398 52.28 112.305 52.28C111.025 52.28 109.951 51.8133 109.085 50.88C108.191 49.9067 107.745 48.66 107.745 47.14C107.745 45.58 108.191 44.3267 109.085 43.38C109.938 42.4733 111.011 42.02 112.305 42.02C113.651 42.02 114.698 42.4933 115.445 43.44ZM112.325 43.9C111.658 43.9 111.138 44.12 110.765 44.56C110.391 44.9867 110.171 45.54 110.105 46.22H114.245C114.245 45.1667 113.911 44.46 113.245 44.1C112.991 43.9667 112.685 43.9 112.325 43.9ZM120.59 49.04C120.617 49.96 121.29 50.42 122.61 50.42C123.117 50.42 123.53 50.3133 123.85 50.1C124.183 49.8733 124.35 49.6133 124.35 49.32C124.35 49.0267 124.25 48.8 124.05 48.64C123.85 48.48 123.537 48.3333 123.11 48.2L120.99 47.44C119.417 46.8933 118.63 46 118.63 44.76C118.63 43.9333 118.997 43.2733 119.73 42.78C120.477 42.2733 121.47 42.02 122.71 42.02C123.963 42.02 124.923 42.2933 125.59 42.84C126.27 43.3867 126.623 44.0733 126.65 44.9H124.43C124.403 44.58 124.25 44.3267 123.97 44.14C123.69 43.9533 123.29 43.86 122.77 43.86C122.25 43.86 121.843 43.9667 121.55 44.18C121.27 44.38 121.13 44.6133 121.13 44.88C121.13 45.3467 121.523 45.6933 122.31 45.92L124.61 46.78C125.37 47.0333 125.95 47.36 126.35 47.76C126.763 48.1467 126.97 48.6533 126.97 49.28C126.97 50.08 126.59 50.7733 125.83 51.36C125.043 51.9733 124.003 52.28 122.71 52.28C121.417 52.28 120.377 52 119.59 51.44C118.803 50.8667 118.403 50.0667 118.39 49.04H120.59ZM135.297 51.76C134.417 52.1067 133.724 52.28 133.217 52.28C132.71 52.28 132.264 52.22 131.877 52.1C131.504 51.98 131.17 51.8 130.877 51.56C130.264 51.0133 129.957 50.26 129.957 49.3V43.86H128.597V42.28H129.957V39.72H132.317V42.28H134.957V43.86H132.317V49.22C132.317 50.02 132.697 50.42 133.457 50.42C133.844 50.42 134.344 50.3133 134.957 50.1L135.297 51.76ZM137.908 42.26H140.268V52H137.908V42.26ZM137.628 39.14C137.628 38.7133 137.754 38.38 138.008 38.14C138.261 37.8867 138.621 37.76 139.088 37.76C139.541 37.76 139.894 37.8867 140.148 38.14C140.414 38.38 140.548 38.7133 140.548 39.14C140.548 39.5667 140.414 39.9067 140.148 40.16C139.894 40.4 139.541 40.52 139.088 40.52C138.621 40.52 138.261 40.4 138.008 40.16C137.754 39.9067 137.628 39.5667 137.628 39.14ZM148.09 42.02C148.743 42.02 149.357 42.1267 149.93 42.34C150.503 42.54 150.997 42.8533 151.41 43.28C152.33 44.2133 152.79 45.5067 152.79 47.16C152.79 48.7867 152.33 50.0667 151.41 51C150.583 51.8533 149.477 52.28 148.09 52.28C146.703 52.28 145.583 51.8533 144.73 51C143.81 50.08 143.35 48.8 143.35 47.16C143.35 45.4933 143.81 44.2 144.73 43.28C145.57 42.44 146.69 42.02 148.09 42.02ZM150.43 47.14C150.43 46.1133 150.23 45.3467 149.83 44.84C149.43 44.32 148.87 44.06 148.15 44.06C147.443 44.06 146.863 44.32 146.41 44.84C145.957 45.3467 145.73 46.1133 145.73 47.14C145.73 48.1667 145.93 48.94 146.33 49.46C146.743 49.9667 147.303 50.22 148.01 50.22C148.717 50.22 149.297 49.9667 149.75 49.46C150.203 48.94 150.43 48.1667 150.43 47.14ZM157.918 43.96C158.558 42.6667 159.585 42.02 160.998 42.02C162.198 42.02 163.098 42.4133 163.698 43.2C164.312 43.9867 164.618 45.0267 164.618 46.32V52H162.258V46.32C162.258 45.6 162.085 45.06 161.738 44.7C161.392 44.3267 160.905 44.14 160.278 44.14C159.652 44.14 159.112 44.42 158.658 44.98C158.218 45.54 157.985 46.38 157.958 47.5V52H155.598V42.28H157.658L157.918 43.96ZM167.919 38.72H170.479L170.199 47.62H168.179L167.919 38.72ZM169.199 52.18C168.719 52.18 168.326 52.0333 168.019 51.74C167.713 51.4467 167.559 51.0733 167.559 50.62C167.559 50.1667 167.713 49.7867 168.019 49.48C168.326 49.1733 168.719 49.02 169.199 49.02C169.679 49.02 170.079 49.1733 170.399 49.48C170.719 49.7867 170.879 50.1667 170.879 50.62C170.879 51.0733 170.719 51.4467 170.399 51.74C170.079 52.0333 169.679 52.18 169.199 52.18Z" fill="#7075A5"/>
<path d="M40.04 62.02L42.9 71.88L45.68 62.88H47.28L50.22 71.92L53.26 62.02H55.92L51.46 75H48.98L46.54 67.68L44.12 75H41.64L37.4 62.02H40.04ZM60.5364 66.86C61.2031 65.6333 62.1764 65.02 63.4564 65.02C64.7364 65.02 65.6764 65.4133 66.2764 66.2C66.8897 66.9867 67.1964 68.0267 67.1964 69.32V75H64.8364V69.32C64.8364 68.6 64.6631 68.06 64.3164 67.7C63.9697 67.3267 63.4831 67.14 62.8564 67.14C62.2297 67.14 61.6897 67.42 61.2364 67.98C60.7964 68.54 60.5631 69.38 60.5364 70.5V75H58.1764V61.28H60.5364V66.86ZM73.8373 69.32C74.6107 69.32 75.504 69.4467 76.5173 69.7V68.74C76.5173 68.06 76.3773 67.56 76.0973 67.24C75.8307 66.9067 75.384 66.74 74.7573 66.74C74.144 66.74 73.6707 66.8667 73.3373 67.12C73.004 67.36 72.8373 67.7067 72.8373 68.16H70.2573C70.2573 67.0533 70.644 66.2533 71.4173 65.76C72.204 65.2667 73.2973 65.02 74.6973 65.02C76.6973 65.02 77.9907 65.72 78.5773 67.12C78.7773 67.6 78.8773 68.1667 78.8773 68.82V75H76.8173L76.6373 73.7C76.0107 74.7533 75.0507 75.28 73.7573 75.28C72.504 75.28 71.5307 74.9733 70.8373 74.36C70.1973 73.7733 69.8773 73.0333 69.8773 72.14C69.8773 71.2333 70.2307 70.54 70.9373 70.06C71.644 69.5667 72.6107 69.32 73.8373 69.32ZM76.5173 71.2C75.7307 70.9867 74.9973 70.88 74.3173 70.88C73.0373 70.88 72.3973 71.3067 72.3973 72.16C72.3973 72.52 72.544 72.8333 72.8373 73.1C73.1307 73.3533 73.5973 73.48 74.2373 73.48C74.8907 73.48 75.424 73.2667 75.8373 72.84C76.264 72.4 76.4907 71.8533 76.5173 71.2ZM87.797 74.76C86.917 75.1067 86.2237 75.28 85.717 75.28C85.2104 75.28 84.7637 75.22 84.377 75.1C84.0037 74.98 83.6704 74.8 83.377 74.56C82.7637 74.0133 82.457 73.26 82.457 72.3V66.86H81.097V65.28H82.457V62.72H84.817V65.28H87.457V66.86H84.817V72.22C84.817 73.02 85.197 73.42 85.957 73.42C86.3437 73.42 86.8437 73.3133 87.457 73.1L87.797 74.76ZM97.4263 66.6C98.0396 65.5467 98.9729 65.02 100.226 65.02C101.426 65.02 102.453 65.4733 103.306 66.38C104.213 67.34 104.666 68.5933 104.666 70.14C104.666 71.7 104.206 72.96 103.286 73.92C102.433 74.8267 101.413 75.28 100.226 75.28C99.0396 75.28 98.1729 74.9267 97.6263 74.22V79.74H95.2663V65.28H97.2063L97.4263 66.6ZM99.8063 73.14C100.086 73.14 100.373 73.08 100.666 72.96C100.973 72.84 101.246 72.6533 101.486 72.4C102.02 71.84 102.286 71.0933 102.286 70.16C102.286 69.2133 102.053 68.4733 101.586 67.94C101.133 67.4067 100.573 67.14 99.9063 67.14C99.2529 67.14 98.7129 67.3333 98.2863 67.72C97.8729 68.0933 97.6529 68.6333 97.6263 69.34V71.08C97.6263 71.7067 97.8463 72.2133 98.2863 72.6C98.6996 72.96 99.2063 73.14 99.8063 73.14ZM110.673 69.32C111.447 69.32 112.34 69.4467 113.353 69.7V68.74C113.353 68.06 113.213 67.56 112.933 67.24C112.667 66.9067 112.22 66.74 111.593 66.74C110.98 66.74 110.507 66.8667 110.173 67.12C109.84 67.36 109.673 67.7067 109.673 68.16H107.093C107.093 67.0533 107.48 66.2533 108.253 65.76C109.04 65.2667 110.133 65.02 111.533 65.02C113.533 65.02 114.827 65.72 115.413 67.12C115.613 67.6 115.713 68.1667 115.713 68.82V75H113.653L113.473 73.7C112.847 74.7533 111.887 75.28 110.593 75.28C109.34 75.28 108.367 74.9733 107.673 74.36C107.033 73.7733 106.713 73.0333 106.713 72.14C106.713 71.2333 107.067 70.54 107.773 70.06C108.48 69.5667 109.447 69.32 110.673 69.32ZM113.353 71.2C112.567 70.9867 111.833 70.88 111.153 70.88C109.873 70.88 109.233 71.3067 109.233 72.16C109.233 72.52 109.38 72.8333 109.673 73.1C109.967 73.3533 110.433 73.48 111.073 73.48C111.727 73.48 112.26 73.2667 112.673 72.84C113.1 72.4 113.327 71.8533 113.353 71.2ZM120.473 72.04C120.5 72.96 121.173 73.42 122.493 73.42C123 73.42 123.413 73.3133 123.733 73.1C124.066 72.8733 124.233 72.6133 124.233 72.32C124.233 72.0267 124.133 71.8 123.933 71.64C123.733 71.48 123.42 71.3333 122.993 71.2L120.873 70.44C119.3 69.8933 118.513 69 118.513 67.76C118.513 66.9333 118.88 66.2733 119.613 65.78C120.36 65.2733 121.353 65.02 122.593 65.02C123.846 65.02 124.806 65.2933 125.473 65.84C126.153 66.3867 126.506 67.0733 126.533 67.9H124.313C124.286 67.58 124.133 67.3267 123.853 67.14C123.573 66.9533 123.173 66.86 122.653 66.86C122.133 66.86 121.726 66.9667 121.433 67.18C121.153 67.38 121.013 67.6133 121.013 67.88C121.013 68.3467 121.406 68.6933 122.193 68.92L124.493 69.78C125.253 70.0333 125.833 70.36 126.233 70.76C126.646 71.1467 126.853 71.6533 126.853 72.28C126.853 73.08 126.473 73.7733 125.713 74.36C124.926 74.9733 123.886 75.28 122.593 75.28C121.3 75.28 120.26 75 119.473 74.44C118.686 73.8667 118.286 73.0667 118.273 72.04H120.473ZM131.02 72.04C131.047 72.96 131.72 73.42 133.04 73.42C133.547 73.42 133.96 73.3133 134.28 73.1C134.613 72.8733 134.78 72.6133 134.78 72.32C134.78 72.0267 134.68 71.8 134.48 71.64C134.28 71.48 133.967 71.3333 133.54 71.2L131.42 70.44C129.847 69.8933 129.06 69 129.06 67.76C129.06 66.9333 129.427 66.2733 130.16 65.78C130.907 65.2733 131.9 65.02 133.14 65.02C134.393 65.02 135.353 65.2933 136.02 65.84C136.7 66.3867 137.053 67.0733 137.08 67.9H134.86C134.833 67.58 134.68 67.3267 134.4 67.14C134.12 66.9533 133.72 66.86 133.2 66.86C132.68 66.86 132.273 66.9667 131.98 67.18C131.7 67.38 131.56 67.6133 131.56 67.88C131.56 68.3467 131.953 68.6933 132.74 68.92L135.04 69.78C135.8 70.0333 136.38 70.36 136.78 70.76C137.193 71.1467 137.4 71.6533 137.4 72.28C137.4 73.08 137.02 73.7733 136.26 74.36C135.473 74.9733 134.433 75.28 133.14 75.28C131.847 75.28 130.807 75 130.02 74.44C129.233 73.8667 128.833 73.0667 128.82 72.04H131.02ZM141.107 65.28L143.067 72.22L144.927 65.82H147.067L148.927 72.24L150.907 65.28H153.267L150.067 75H147.747L145.947 69.18L144.187 75H141.847L138.627 65.28H141.107ZM159.223 65.02C159.876 65.02 160.49 65.1267 161.063 65.34C161.636 65.54 162.13 65.8533 162.543 66.28C163.463 67.2133 163.923 68.5067 163.923 70.16C163.923 71.7867 163.463 73.0667 162.543 74C161.716 74.8533 160.61 75.28 159.223 75.28C157.836 75.28 156.716 74.8533 155.863 74C154.943 73.08 154.483 71.8 154.483 70.16C154.483 68.4933 154.943 67.2 155.863 66.28C156.703 65.44 157.823 65.02 159.223 65.02ZM161.563 70.14C161.563 69.1133 161.363 68.3467 160.963 67.84C160.563 67.32 160.003 67.06 159.283 67.06C158.576 67.06 157.996 67.32 157.543 67.84C157.09 68.3467 156.863 69.1133 156.863 70.14C156.863 71.1667 157.063 71.94 157.463 72.46C157.876 72.9667 158.436 73.22 159.143 73.22C159.85 73.22 160.43 72.9667 160.883 72.46C161.336 71.94 161.563 71.1667 161.563 70.14ZM169.091 67.2C169.678 65.8 170.558 65.1 171.731 65.1C171.958 65.1 172.244 65.1467 172.591 65.24L172.551 67.6C172.178 67.52 171.811 67.48 171.451 67.48C169.878 67.48 169.091 68.5667 169.091 70.74V75H166.731V65.26H169.091V67.2ZM181.391 73.5C180.791 74.6867 179.871 75.28 178.631 75.28C177.391 75.28 176.351 74.8067 175.511 73.86C174.645 72.8733 174.211 71.62 174.211 70.1C174.211 68.58 174.625 67.3467 175.451 66.4C176.265 65.48 177.278 65.02 178.491 65.02C179.705 65.02 180.618 65.5067 181.231 66.48V61.28H183.611V75H181.671L181.391 73.5ZM178.931 67.14C178.265 67.14 177.705 67.4133 177.251 67.96C176.811 68.4933 176.591 69.2133 176.591 70.12C176.591 71.0267 176.818 71.76 177.271 72.32C177.725 72.8667 178.298 73.14 178.991 73.14C179.565 73.14 180.078 72.9133 180.531 72.46C180.998 71.9933 181.231 71.4067 181.231 70.7V69.44C181.205 68.7467 180.971 68.18 180.531 67.74C180.131 67.34 179.598 67.14 178.931 67.14ZM39.72 88.28L41.68 95.22L43.54 88.82H45.68L47.54 95.24L49.52 88.28H51.88L48.68 98H46.36L44.56 92.18L42.8 98H40.46L37.24 88.28H39.72ZM57.8363 88.02C58.4896 88.02 59.1029 88.1267 59.6763 88.34C60.2496 88.54 60.7429 88.8533 61.1563 89.28C62.0763 90.2133 62.5363 91.5067 62.5363 93.16C62.5363 94.7867 62.0763 96.0667 61.1563 97C60.3296 97.8533 59.2229 98.28 57.8363 98.28C56.4496 98.28 55.3296 97.8533 54.4763 97C53.5563 96.08 53.0963 94.8 53.0963 93.16C53.0963 91.4933 53.5563 90.2 54.4763 89.28C55.3163 88.44 56.4363 88.02 57.8363 88.02ZM60.1763 93.14C60.1763 92.1133 59.9763 91.3467 59.5763 90.84C59.1763 90.32 58.6163 90.06 57.8963 90.06C57.1896 90.06 56.6096 90.32 56.1563 90.84C55.7029 91.3467 55.4763 92.1133 55.4763 93.14C55.4763 94.1667 55.6763 94.94 56.0763 95.46C56.4896 95.9667 57.0496 96.22 57.7563 96.22C58.4629 96.22 59.0429 95.9667 59.4963 95.46C59.9496 94.94 60.1763 94.1667 60.1763 93.14ZM71.8044 96.24C71.191 97.5333 70.2044 98.18 68.8444 98.18C67.1244 98.18 65.991 97.5067 65.4444 96.16C65.2444 95.6933 65.1444 95.1267 65.1444 94.46V88.26H67.5044V94.22C67.5044 94.86 67.6577 95.34 67.9644 95.66C68.271 95.9667 68.6444 96.12 69.0844 96.12C69.5377 96.12 69.9177 96.06 70.2244 95.94C70.531 95.8067 70.7977 95.6133 71.0244 95.36C71.5177 94.7867 71.7777 94.02 71.8044 93.06V88.26H74.1644V98H71.8044V96.24ZM77.8834 84.28H80.2434V98H77.8834V84.28ZM90.2977 96.5C89.6977 97.6867 88.7777 98.28 87.5377 98.28C86.2977 98.28 85.2577 97.8067 84.4177 96.86C83.551 95.8733 83.1177 94.62 83.1177 93.1C83.1177 91.58 83.531 90.3467 84.3577 89.4C85.171 88.48 86.1843 88.02 87.3977 88.02C88.611 88.02 89.5243 88.5067 90.1377 89.48V84.28H92.5177V98H90.5777L90.2977 96.5ZM87.8377 90.14C87.171 90.14 86.611 90.4133 86.1577 90.96C85.7177 91.4933 85.4977 92.2133 85.4977 93.12C85.4977 94.0267 85.7243 94.76 86.1777 95.32C86.631 95.8667 87.2043 96.14 87.8977 96.14C88.471 96.14 88.9843 95.9133 89.4377 95.46C89.9043 94.9933 90.1377 94.4067 90.1377 93.7V92.44C90.111 91.7467 89.8777 91.18 89.4377 90.74C89.0377 90.34 88.5043 90.14 87.8377 90.14ZM102.501 88.28L104.841 95.28L106.881 88.28H109.281L105.561 99.76C105.175 100.92 104.701 101.753 104.141 102.26C103.595 102.767 102.895 103.02 102.041 103.02C101.175 103.02 100.308 102.807 99.4414 102.38V100.3C100.135 100.74 100.835 100.96 101.541 100.96C102.008 100.96 102.388 100.773 102.681 100.4C102.988 100.027 103.235 99.54 103.421 98.94L103.721 98L99.8214 88.28H102.501ZM115.2 88.02C115.853 88.02 116.466 88.1267 117.04 88.34C117.613 88.54 118.106 88.8533 118.52 89.28C119.44 90.2133 119.9 91.5067 119.9 93.16C119.9 94.7867 119.44 96.0667 118.52 97C117.693 97.8533 116.586 98.28 115.2 98.28C113.813 98.28 112.693 97.8533 111.84 97C110.92 96.08 110.46 94.8 110.46 93.16C110.46 91.4933 110.92 90.2 111.84 89.28C112.68 88.44 113.8 88.02 115.2 88.02ZM117.54 93.14C117.54 92.1133 117.34 91.3467 116.94 90.84C116.54 90.32 115.98 90.06 115.26 90.06C114.553 90.06 113.973 90.32 113.52 90.84C113.066 91.3467 112.84 92.1133 112.84 93.14C112.84 94.1667 113.04 94.94 113.44 95.46C113.853 95.9667 114.413 96.22 115.12 96.22C115.826 96.22 116.406 95.9667 116.86 95.46C117.313 94.94 117.54 94.1667 117.54 93.14ZM129.168 96.24C128.554 97.5333 127.568 98.18 126.208 98.18C124.488 98.18 123.354 97.5067 122.808 96.16C122.608 95.6933 122.508 95.1267 122.508 94.46V88.26H124.868V94.22C124.868 94.86 125.021 95.34 125.328 95.66C125.634 95.9667 126.008 96.12 126.448 96.12C126.901 96.12 127.281 96.06 127.588 95.94C127.894 95.8067 128.161 95.6133 128.388 95.36C128.881 94.7867 129.141 94.02 129.168 93.06V88.26H131.528V98H129.168V96.24ZM140.305 84.28H142.665V98H140.305V84.28ZM146.58 88.26H148.94V98H146.58V88.26ZM146.3 85.14C146.3 84.7133 146.426 84.38 146.68 84.14C146.933 83.8867 147.293 83.76 147.76 83.76C148.213 83.76 148.566 83.8867 148.82 84.14C149.086 84.38 149.22 84.7133 149.22 85.14C149.22 85.5667 149.086 85.9067 148.82 86.16C148.566 86.4 148.213 86.52 147.76 86.52C147.293 86.52 146.933 86.4 146.68 86.16C146.426 85.9067 146.3 85.5667 146.3 85.14ZM156.382 93.26L155.302 94.16V98H152.942V84.28H155.302V91.7L159.142 88.28H162.342L158.042 91.88L162.582 98H159.702L156.382 93.26ZM171.226 89.44C171.559 89.8667 171.806 90.36 171.966 90.92C172.139 91.48 172.226 91.9933 172.226 92.46C172.226 92.9267 172.199 93.3467 172.146 93.72H165.866C165.893 94.5067 166.086 95.1467 166.446 95.64C166.806 96.1333 167.353 96.38 168.086 96.38C169.059 96.38 169.639 95.9533 169.826 95.1H172.206C172.046 96.0733 171.599 96.84 170.866 97.4C170.106 97.9867 169.179 98.28 168.086 98.28C166.806 98.28 165.733 97.8133 164.866 96.88C163.973 95.9067 163.526 94.66 163.526 93.14C163.526 91.58 163.973 90.3267 164.866 89.38C165.719 88.4733 166.793 88.02 168.086 88.02C169.433 88.02 170.479 88.4933 171.226 89.44ZM168.106 89.9C167.439 89.9 166.919 90.12 166.546 90.56C166.173 90.9867 165.953 91.54 165.886 92.22H170.026C170.026 91.1667 169.693 90.46 169.026 90.1C168.773 89.9667 168.466 89.9 168.106 89.9ZM44.34 120.76C43.46 121.107 42.7667 121.28 42.26 121.28C41.7533 121.28 41.3067 121.22 40.92 121.1C40.5467 120.98 40.2133 120.8 39.92 120.56C39.3067 120.013 39 119.26 39 118.3V112.86H37.64V111.28H39V108.72H41.36V111.28H44V112.86H41.36V118.22C41.36 119.02 41.74 119.42 42.5 119.42C42.8867 119.42 43.3867 119.313 44 119.1L44.34 120.76ZM50.5706 111.02C51.224 111.02 51.8373 111.127 52.4106 111.34C52.984 111.54 53.4773 111.853 53.8906 112.28C54.8106 113.213 55.2706 114.507 55.2706 116.16C55.2706 117.787 54.8106 119.067 53.8906 120C53.064 120.853 51.9573 121.28 50.5706 121.28C49.184 121.28 48.064 120.853 47.2106 120C46.2906 119.08 45.8306 117.8 45.8306 116.16C45.8306 114.493 46.2906 113.2 47.2106 112.28C48.0506 111.44 49.1706 111.02 50.5706 111.02ZM52.9106 116.14C52.9106 115.113 52.7106 114.347 52.3106 113.84C51.9106 113.32 51.3506 113.06 50.6306 113.06C49.924 113.06 49.344 113.32 48.8906 113.84C48.4373 114.347 48.2106 115.113 48.2106 116.14C48.2106 117.167 48.4106 117.94 48.8106 118.46C49.224 118.967 49.784 119.22 50.4906 119.22C51.1973 119.22 51.7773 118.967 52.2306 118.46C52.684 117.94 52.9106 117.167 52.9106 116.14ZM69.5973 119.24C68.984 120.533 67.9973 121.18 66.6373 121.18C64.9173 121.18 63.784 120.507 63.2373 119.16C63.0373 118.693 62.9373 118.127 62.9373 117.46V111.26H65.2973V117.22C65.2973 117.86 65.4507 118.34 65.7573 118.66C66.064 118.967 66.4373 119.12 66.8773 119.12C67.3307 119.12 67.7107 119.06 68.0173 118.94C68.324 118.807 68.5907 118.613 68.8173 118.36C69.3107 117.787 69.5707 117.02 69.5973 116.06V111.26H71.9573V121H69.5973V119.24ZM76.9964 118.04C77.0231 118.96 77.6964 119.42 79.0164 119.42C79.5231 119.42 79.9364 119.313 80.2564 119.1C80.5897 118.873 80.7564 118.613 80.7564 118.32C80.7564 118.027 80.6564 117.8 80.4564 117.64C80.2564 117.48 79.9431 117.333 79.5164 117.2L77.3964 116.44C75.8231 115.893 75.0364 115 75.0364 113.76C75.0364 112.933 75.4031 112.273 76.1364 111.78C76.8831 111.273 77.8764 111.02 79.1164 111.02C80.3697 111.02 81.3297 111.293 81.9964 111.84C82.6764 112.387 83.0297 113.073 83.0564 113.9H80.8364C80.8097 113.58 80.6564 113.327 80.3764 113.14C80.0964 112.953 79.6964 112.86 79.1764 112.86C78.6564 112.86 78.2497 112.967 77.9564 113.18C77.6764 113.38 77.5364 113.613 77.5364 113.88C77.5364 114.347 77.9297 114.693 78.7164 114.92L81.0164 115.78C81.7764 116.033 82.3564 116.36 82.7564 116.76C83.1697 117.147 83.3764 117.653 83.3764 118.28C83.3764 119.08 82.9964 119.773 82.2364 120.36C81.4497 120.973 80.4097 121.28 79.1164 121.28C77.8231 121.28 76.7831 121 75.9964 120.44C75.2097 119.867 74.8097 119.067 74.7964 118.04H76.9964ZM93.0033 112.44C93.3366 112.867 93.5833 113.36 93.7433 113.92C93.9166 114.48 94.0033 114.993 94.0033 115.46C94.0033 115.927 93.9766 116.347 93.9233 116.72H87.6433C87.6699 117.507 87.8633 118.147 88.2233 118.64C88.5833 119.133 89.1299 119.38 89.8633 119.38C90.8366 119.38 91.4166 118.953 91.6033 118.1H93.9833C93.8233 119.073 93.3766 119.84 92.6433 120.4C91.8833 120.987 90.9566 121.28 89.8633 121.28C88.5833 121.28 87.5099 120.813 86.6433 119.88C85.7499 118.907 85.3033 117.66 85.3033 116.14C85.3033 114.58 85.7499 113.327 86.6433 112.38C87.4966 111.473 88.5699 111.02 89.8633 111.02C91.2099 111.02 92.2566 111.493 93.0033 112.44ZM89.8833 112.9C89.2166 112.9 88.6966 113.12 88.3233 113.56C87.9499 113.987 87.7299 114.54 87.6633 115.22H91.8033C91.8033 114.167 91.4699 113.46 90.8033 113.1C90.5499 112.967 90.2433 112.9 89.8833 112.9ZM104.669 111.38C104.669 112.087 104.495 112.68 104.149 113.16C103.802 113.627 103.255 114.047 102.509 114.42C101.882 114.74 101.469 115.013 101.269 115.24C101.082 115.467 100.962 115.68 100.909 115.88C100.855 116.067 100.829 116.287 100.829 116.54V117.12H98.4688V116.32C98.4688 115.12 98.8288 114.267 99.5488 113.76C99.8021 113.573 100.175 113.353 100.669 113.1C101.162 112.847 101.515 112.593 101.729 112.34C101.955 112.073 102.069 111.74 102.069 111.34C102.069 110.927 101.902 110.587 101.569 110.32C101.235 110.04 100.742 109.9 100.089 109.9C99.4354 109.9 98.9221 110.06 98.5488 110.38C98.1754 110.687 97.9621 111.093 97.9087 111.6H95.4488C95.5154 110.44 95.9421 109.513 96.7288 108.82C97.5154 108.113 98.6154 107.76 100.029 107.76C101.455 107.76 102.582 108.107 103.409 108.8C104.249 109.493 104.669 110.353 104.669 111.38ZM98.0688 119.7C98.0688 119.247 98.2154 118.873 98.5088 118.58C98.8154 118.287 99.2088 118.14 99.6888 118.14C100.182 118.14 100.589 118.287 100.909 118.58C101.229 118.873 101.389 119.247 101.389 119.7C101.389 120.153 101.229 120.533 100.909 120.84C100.589 121.133 100.182 121.28 99.6888 121.28C99.2088 121.28 98.8154 121.133 98.5088 120.84C98.2154 120.533 98.0688 120.153 98.0688 119.7Z" fill="#181827"/>
</svg>
