<svg width="374" height="44" viewBox="0 0 374 44" fill="none" xmlns="http://www.w3.org/2000/svg">
<rect x="0.5" y="0.5" width="373" height="43" rx="19.5" fill="#DFBC60" stroke="#181827"/>
<path d="M142.91 14.112C143.87 14.112 144.702 14.232 145.406 14.472C146.11 14.696 146.718 15.016 147.23 15.432C148.238 16.248 148.894 17.392 149.198 18.864L146.174 19.416C145.918 18.6 145.518 17.944 144.974 17.448C144.446 16.936 143.782 16.68 142.982 16.68C141.894 16.68 141.014 17.136 140.342 18.048C139.622 19.04 139.262 20.416 139.262 22.176C139.262 23.92 139.582 25.288 140.222 26.28C140.862 27.256 141.734 27.744 142.838 27.744C143.942 27.744 144.774 27.48 145.334 26.952C145.894 26.408 146.174 25.712 146.174 24.864H149.222C149.222 26.608 148.662 27.96 147.542 28.92C146.438 29.864 144.918 30.336 142.982 30.336C140.918 30.336 139.278 29.616 138.062 28.176C136.83 26.704 136.214 24.704 136.214 22.176C136.214 19.616 136.846 17.616 138.11 16.176C139.326 14.8 140.926 14.112 142.91 14.112ZM157.113 18.024C157.897 18.024 158.633 18.152 159.321 18.408C160.009 18.648 160.601 19.024 161.097 19.536C162.201 20.656 162.753 22.208 162.753 24.192C162.753 26.144 162.201 27.68 161.097 28.8C160.105 29.824 158.777 30.336 157.113 30.336C155.449 30.336 154.105 29.824 153.081 28.8C151.977 27.696 151.425 26.16 151.425 24.192C151.425 22.192 151.977 20.64 153.081 19.536C154.089 18.528 155.433 18.024 157.113 18.024ZM159.921 24.168C159.921 22.936 159.681 22.016 159.201 21.408C158.721 20.784 158.049 20.472 157.185 20.472C156.337 20.472 155.641 20.784 155.097 21.408C154.553 22.016 154.281 22.936 154.281 24.168C154.281 25.4 154.521 26.328 155.001 26.952C155.497 27.56 156.169 27.864 157.017 27.864C157.865 27.864 158.561 27.56 159.105 26.952C159.649 26.328 159.921 25.4 159.921 24.168ZM168.907 20.352C169.675 18.8 170.907 18.024 172.603 18.024C174.043 18.024 175.123 18.496 175.843 19.44C176.579 20.384 176.947 21.632 176.947 23.184V30H174.115V23.184C174.115 22.32 173.907 21.672 173.491 21.24C173.075 20.792 172.491 20.568 171.739 20.568C170.987 20.568 170.339 20.904 169.795 21.576C169.267 22.248 168.987 23.256 168.955 24.6V30H166.123V18.336H168.595L168.907 20.352ZM187.652 29.712C186.596 30.128 185.764 30.336 185.156 30.336C184.548 30.336 184.012 30.264 183.548 30.12C183.1 29.976 182.7 29.76 182.348 29.472C181.612 28.816 181.244 27.912 181.244 26.76V20.232H179.612V18.336H181.244V15.264H184.076V18.336H187.244V20.232H184.076V26.664C184.076 27.624 184.532 28.104 185.444 28.104C185.908 28.104 186.508 27.976 187.244 27.72L187.652 29.712ZM190.785 18.312H193.617V30H190.785V18.312ZM190.449 14.568C190.449 14.056 190.601 13.656 190.905 13.368C191.209 13.064 191.641 12.912 192.201 12.912C192.745 12.912 193.169 13.064 193.473 13.368C193.793 13.656 193.953 14.056 193.953 14.568C193.953 15.08 193.793 15.488 193.473 15.792C193.169 16.08 192.745 16.224 192.201 16.224C191.641 16.224 191.209 16.08 190.905 15.792C190.601 15.488 190.449 15.08 190.449 14.568ZM201.204 20.352C201.972 18.8 203.204 18.024 204.9 18.024C206.34 18.024 207.42 18.496 208.14 19.44C208.876 20.384 209.244 21.632 209.244 23.184V30H206.412V23.184C206.412 22.32 206.204 21.672 205.788 21.24C205.372 20.792 204.788 20.568 204.036 20.568C203.284 20.568 202.636 20.904 202.092 21.576C201.564 22.248 201.284 23.256 201.252 24.6V30H198.42V18.336H200.892L201.204 20.352ZM221.125 27.888C220.389 29.44 219.205 30.216 217.573 30.216C215.509 30.216 214.149 29.408 213.493 27.792C213.253 27.232 213.133 26.552 213.133 25.752V18.312H215.965V25.464C215.965 26.232 216.149 26.808 216.517 27.192C216.885 27.56 217.333 27.744 217.861 27.744C218.405 27.744 218.861 27.672 219.229 27.528C219.597 27.368 219.917 27.136 220.189 26.832C220.781 26.144 221.093 25.224 221.125 24.072V18.312H223.957V30H221.125V27.888ZM236.556 19.728C236.956 20.24 237.252 20.832 237.444 21.504C237.652 22.176 237.756 22.792 237.756 23.352C237.756 23.912 237.724 24.416 237.66 24.864H230.124C230.156 25.808 230.388 26.576 230.82 27.168C231.252 27.76 231.908 28.056 232.788 28.056C233.956 28.056 234.652 27.544 234.876 26.52H237.732C237.54 27.688 237.004 28.608 236.124 29.28C235.212 29.984 234.1 30.336 232.788 30.336C231.252 30.336 229.964 29.776 228.924 28.656C227.852 27.488 227.316 25.992 227.316 24.168C227.316 22.296 227.852 20.792 228.924 19.656C229.948 18.568 231.236 18.024 232.788 18.024C234.404 18.024 235.66 18.592 236.556 19.728ZM232.812 20.28C232.012 20.28 231.388 20.544 230.94 21.072C230.492 21.584 230.228 22.248 230.148 23.064H235.116C235.116 21.8 234.716 20.952 233.916 20.52C233.612 20.36 233.244 20.28 232.812 20.28Z" fill="#181827"/>
</svg>
