<svg width="374" height="44" viewBox="0 0 374 44" fill="none" xmlns="http://www.w3.org/2000/svg">
<rect x="0.5" y="0.5" width="373" height="43" rx="19.5" fill="#DFBC60" stroke="#181827"/>
<path d="M96.2515 27.528H102.66V30H93.4195V14.424H96.2515V27.528ZM113.415 19.728C113.815 20.24 114.111 20.832 114.303 21.504C114.511 22.176 114.615 22.792 114.615 23.352C114.615 23.912 114.583 24.416 114.519 24.864H106.983C107.015 25.808 107.247 26.576 107.679 27.168C108.111 27.76 108.767 28.056 109.647 28.056C110.815 28.056 111.511 27.544 111.735 26.52H114.591C114.399 27.688 113.863 28.608 112.983 29.28C112.071 29.984 110.959 30.336 109.647 30.336C108.111 30.336 106.823 29.776 105.783 28.656C104.711 27.488 104.175 25.992 104.175 24.168C104.175 22.296 104.711 20.792 105.783 19.656C106.807 18.568 108.095 18.024 109.647 18.024C111.263 18.024 112.519 18.592 113.415 19.728ZM109.671 20.28C108.871 20.28 108.247 20.544 107.799 21.072C107.351 21.584 107.087 22.248 107.007 23.064H111.975C111.975 21.8 111.575 20.952 110.775 20.52C110.471 20.36 110.103 20.28 109.671 20.28ZM124.581 29.712C123.525 30.128 122.693 30.336 122.085 30.336C121.477 30.336 120.941 30.264 120.477 30.12C120.029 29.976 119.629 29.76 119.277 29.472C118.541 28.816 118.173 27.912 118.173 26.76V20.232H116.541V18.336H118.173V15.264H121.005V18.336H124.173V20.232H121.005V26.664C121.005 27.624 121.461 28.104 122.373 28.104C122.837 28.104 123.437 27.976 124.173 27.72L124.581 29.712ZM126.538 16.056C126.538 15.576 126.722 15.176 127.09 14.856C127.458 14.52 127.954 14.352 128.578 14.352C129.218 14.352 129.738 14.608 130.138 15.12C130.554 15.616 130.762 16.24 130.762 16.992C130.762 17.728 130.498 18.456 129.97 19.176C129.458 19.896 128.77 20.472 127.906 20.904L125.938 19.824C127.17 19.2 127.914 18.496 128.17 17.712C127.706 17.632 127.314 17.456 126.994 17.184C126.69 16.912 126.538 16.536 126.538 16.056ZM135.574 26.448C135.606 27.552 136.414 28.104 137.998 28.104C138.606 28.104 139.102 27.976 139.486 27.72C139.886 27.448 140.086 27.136 140.086 26.784C140.086 26.432 139.966 26.16 139.726 25.968C139.486 25.776 139.11 25.6 138.598 25.44L136.054 24.528C134.166 23.872 133.222 22.8 133.222 21.312C133.222 20.32 133.662 19.528 134.542 18.936C135.438 18.328 136.63 18.024 138.118 18.024C139.622 18.024 140.774 18.352 141.574 19.008C142.39 19.664 142.814 20.488 142.846 21.48H140.182C140.15 21.096 139.966 20.792 139.63 20.568C139.294 20.344 138.814 20.232 138.19 20.232C137.566 20.232 137.078 20.36 136.726 20.616C136.39 20.856 136.222 21.136 136.222 21.456C136.222 22.016 136.694 22.432 137.638 22.704L140.398 23.736C141.31 24.04 142.006 24.432 142.486 24.912C142.982 25.376 143.23 25.984 143.23 26.736C143.23 27.696 142.774 28.528 141.862 29.232C140.918 29.968 139.67 30.336 138.118 30.336C136.566 30.336 135.318 30 134.374 29.328C133.43 28.64 132.95 27.68 132.934 26.448H135.574ZM153.724 25.224C152.78 24.424 152.308 23.424 152.308 22.224C152.308 20.96 152.804 19.936 153.796 19.152C154.756 18.4 155.852 18.024 157.084 18.024C158.332 18.024 159.372 18.256 160.204 18.72C160.3 17.808 160.692 17.072 161.38 16.512C162.052 15.952 162.844 15.672 163.756 15.672L163.612 18.384C162.236 18.384 161.524 18.84 161.476 19.752C162.068 20.488 162.364 21.24 162.364 22.008C162.364 22.776 162.228 23.424 161.956 23.952C161.684 24.464 161.316 24.896 160.852 25.248C159.892 26.016 158.724 26.4 157.348 26.4C156.564 26.4 155.852 26.28 155.212 26.04C154.572 26.232 154.252 26.616 154.252 27.192C154.252 27.912 154.86 28.272 156.076 28.272H159.988C162.644 28.272 163.972 29.2 163.972 31.056C163.972 31.68 163.812 32.288 163.492 32.88C163.188 33.488 162.74 34.024 162.148 34.488C160.836 35.512 159.188 36.024 157.204 36.024C155.284 36.024 153.724 35.632 152.524 34.848C151.404 34.096 150.844 33.176 150.844 32.088C150.844 31.368 151.06 30.792 151.492 30.36C151.94 29.944 152.524 29.68 153.244 29.568C152.3 28.992 151.828 28.28 151.828 27.432C151.828 26.872 152.004 26.408 152.356 26.04C152.708 25.656 153.164 25.384 153.724 25.224ZM155.884 30.264C154.38 30.328 153.628 30.896 153.628 31.968C153.628 32.512 153.94 32.944 154.564 33.264C155.204 33.6 155.956 33.768 156.82 33.768C157.684 33.768 158.356 33.696 158.836 33.552C159.332 33.408 159.748 33.216 160.084 32.976C160.804 32.496 161.164 31.92 161.164 31.248C161.164 30.96 161.06 30.72 160.852 30.528C160.66 30.352 160.372 30.264 159.988 30.264H155.884ZM159.556 22.2C159.556 21.544 159.372 21.016 159.004 20.616C158.652 20.2 158.108 19.992 157.372 19.992C156.636 19.992 156.076 20.2 155.692 20.616C155.308 21.016 155.116 21.544 155.116 22.2C155.116 22.84 155.308 23.368 155.692 23.784C156.076 24.2 156.636 24.408 157.372 24.408C158.108 24.408 158.652 24.2 159.004 23.784C159.372 23.368 159.556 22.84 159.556 22.2ZM174.821 19.728C175.221 20.24 175.517 20.832 175.709 21.504C175.917 22.176 176.021 22.792 176.021 23.352C176.021 23.912 175.989 24.416 175.925 24.864H168.389C168.421 25.808 168.653 26.576 169.085 27.168C169.517 27.76 170.173 28.056 171.053 28.056C172.221 28.056 172.917 27.544 173.141 26.52H175.997C175.805 27.688 175.269 28.608 174.389 29.28C173.477 29.984 172.365 30.336 171.053 30.336C169.517 30.336 168.229 29.776 167.189 28.656C166.117 27.488 165.581 25.992 165.581 24.168C165.581 22.296 166.117 20.792 167.189 19.656C168.213 18.568 169.501 18.024 171.053 18.024C172.669 18.024 173.925 18.592 174.821 19.728ZM171.077 20.28C170.277 20.28 169.653 20.544 169.205 21.072C168.757 21.584 168.493 22.248 168.413 23.064H173.381C173.381 21.8 172.981 20.952 172.181 20.52C171.877 20.36 171.509 20.28 171.077 20.28ZM185.988 29.712C184.932 30.128 184.1 30.336 183.492 30.336C182.884 30.336 182.348 30.264 181.884 30.12C181.436 29.976 181.036 29.76 180.684 29.472C179.948 28.816 179.58 27.912 179.58 26.76V20.232H177.948V18.336H179.58V15.264H182.412V18.336H185.58V20.232H182.412V26.664C182.412 27.624 182.868 28.104 183.78 28.104C184.244 28.104 184.844 27.976 185.58 27.72L185.988 29.712ZM196.535 26.448C196.567 27.552 197.375 28.104 198.959 28.104C199.567 28.104 200.063 27.976 200.447 27.72C200.847 27.448 201.047 27.136 201.047 26.784C201.047 26.432 200.927 26.16 200.687 25.968C200.447 25.776 200.071 25.6 199.559 25.44L197.015 24.528C195.127 23.872 194.183 22.8 194.183 21.312C194.183 20.32 194.623 19.528 195.503 18.936C196.399 18.328 197.591 18.024 199.079 18.024C200.583 18.024 201.735 18.352 202.535 19.008C203.351 19.664 203.775 20.488 203.807 21.48H201.143C201.111 21.096 200.927 20.792 200.591 20.568C200.255 20.344 199.775 20.232 199.151 20.232C198.527 20.232 198.039 20.36 197.687 20.616C197.351 20.856 197.183 21.136 197.183 21.456C197.183 22.016 197.655 22.432 198.599 22.704L201.359 23.736C202.271 24.04 202.967 24.432 203.447 24.912C203.943 25.376 204.191 25.984 204.191 26.736C204.191 27.696 203.735 28.528 202.823 29.232C201.879 29.968 200.631 30.336 199.079 30.336C197.527 30.336 196.279 30 195.335 29.328C194.391 28.64 193.911 27.68 193.895 26.448H196.535ZM214.183 29.712C213.127 30.128 212.295 30.336 211.687 30.336C211.079 30.336 210.543 30.264 210.079 30.12C209.631 29.976 209.231 29.76 208.879 29.472C208.143 28.816 207.775 27.912 207.775 26.76V20.232H206.143V18.336H207.775V15.264H210.607V18.336H213.775V20.232H210.607V26.664C210.607 27.624 211.063 28.104 211.975 28.104C212.439 28.104 213.039 27.976 213.775 27.72L214.183 29.712ZM220.916 23.184C221.844 23.184 222.916 23.336 224.132 23.64V22.488C224.132 21.672 223.964 21.072 223.628 20.688C223.308 20.288 222.772 20.088 222.02 20.088C221.284 20.088 220.716 20.24 220.316 20.544C219.916 20.832 219.716 21.248 219.716 21.792H216.62C216.62 20.464 217.084 19.504 218.012 18.912C218.956 18.32 220.268 18.024 221.948 18.024C224.348 18.024 225.9 18.864 226.604 20.544C226.844 21.12 226.964 21.8 226.964 22.584V30H224.492L224.276 28.44C223.524 29.704 222.372 30.336 220.82 30.336C219.316 30.336 218.148 29.968 217.316 29.232C216.548 28.528 216.164 27.64 216.164 26.568C216.164 25.48 216.588 24.648 217.436 24.072C218.284 23.48 219.444 23.184 220.916 23.184ZM224.132 25.44C223.188 25.184 222.308 25.056 221.492 25.056C219.956 25.056 219.188 25.568 219.188 26.592C219.188 27.024 219.364 27.4 219.716 27.72C220.068 28.024 220.628 28.176 221.396 28.176C222.18 28.176 222.82 27.92 223.316 27.408C223.828 26.88 224.1 26.224 224.132 25.44ZM233.923 20.64C234.627 18.96 235.683 18.12 237.091 18.12C237.363 18.12 237.707 18.176 238.123 18.288L238.075 21.12C237.627 21.024 237.187 20.976 236.755 20.976C234.867 20.976 233.923 22.28 233.923 24.888V30H231.091V18.312H233.923V20.64ZM247.652 29.712C246.596 30.128 245.764 30.336 245.156 30.336C244.548 30.336 244.012 30.264 243.548 30.12C243.1 29.976 242.7 29.76 242.348 29.472C241.612 28.816 241.244 27.912 241.244 26.76V20.232H239.612V18.336H241.244V15.264H244.076V18.336H247.244V20.232H244.076V26.664C244.076 27.624 244.532 28.104 245.444 28.104C245.908 28.104 246.508 27.976 247.244 27.72L247.652 29.712ZM258.681 19.728C259.081 20.24 259.377 20.832 259.569 21.504C259.777 22.176 259.881 22.792 259.881 23.352C259.881 23.912 259.849 24.416 259.785 24.864H252.249C252.281 25.808 252.513 26.576 252.945 27.168C253.377 27.76 254.033 28.056 254.913 28.056C256.081 28.056 256.777 27.544 257.001 26.52H259.857C259.665 27.688 259.129 28.608 258.249 29.28C257.337 29.984 256.225 30.336 254.913 30.336C253.377 30.336 252.089 29.776 251.049 28.656C249.977 27.488 249.441 25.992 249.441 24.168C249.441 22.296 249.977 20.792 251.049 19.656C252.073 18.568 253.361 18.024 254.913 18.024C256.529 18.024 257.785 18.592 258.681 19.728ZM254.937 20.28C254.137 20.28 253.513 20.544 253.065 21.072C252.617 21.584 252.353 22.248 252.273 23.064H257.241C257.241 21.8 256.841 20.952 256.041 20.52C255.737 20.36 255.369 20.28 254.937 20.28ZM270.879 28.2C270.159 29.624 269.055 30.336 267.567 30.336C266.079 30.336 264.831 29.768 263.823 28.632C262.783 27.448 262.263 25.944 262.263 24.12C262.263 22.296 262.759 20.816 263.751 19.68C264.727 18.576 265.943 18.024 267.399 18.024C268.855 18.024 269.951 18.608 270.687 19.776V13.536H273.543V30H271.215L270.879 28.2ZM267.927 20.568C267.127 20.568 266.455 20.896 265.911 21.552C265.383 22.192 265.119 23.056 265.119 24.144C265.119 25.232 265.391 26.112 265.935 26.784C266.479 27.44 267.167 27.768 267.999 27.768C268.687 27.768 269.303 27.496 269.847 26.952C270.407 26.392 270.687 25.688 270.687 24.84V23.328C270.655 22.496 270.375 21.816 269.847 21.288C269.367 20.808 268.727 20.568 267.927 20.568ZM277.845 14.064H280.917L280.581 24.744H278.157L277.845 14.064ZM279.381 30.216C278.805 30.216 278.333 30.04 277.965 29.688C277.597 29.336 277.413 28.888 277.413 28.344C277.413 27.8 277.597 27.344 277.965 26.976C278.333 26.608 278.805 26.424 279.381 26.424C279.957 26.424 280.437 26.608 280.821 26.976C281.205 27.344 281.397 27.8 281.397 28.344C281.397 28.888 281.205 29.336 280.821 29.688C280.437 30.04 279.957 30.216 279.381 30.216Z" fill="#181827"/>
</svg>
