<svg width="395" height="681" viewBox="0 0 395 681" fill="none" xmlns="http://www.w3.org/2000/svg">
<path d="M27.7928 545.858C14.6729 545.858 4 535.123 4 521.93C4 508.734 14.6735 498 27.7928 498C30.4337 498 33.0291 498.434 35.5103 499.289L40.3232 500.947L35.5109 502.607C27.3056 505.435 21.7926 513.201 21.7926 521.93C21.7926 530.658 27.3056 538.423 35.5103 541.252L40.3238 542.911L35.5103 544.569C33.0297 545.425 30.4331 545.858 27.7928 545.858ZM27.7928 501.506C16.5959 501.506 7.48709 510.668 7.48709 521.929C7.48709 533.19 16.5959 542.35 27.7928 542.35C28.3847 542.35 28.9749 542.325 29.5609 542.274C22.669 537.977 18.3049 530.335 18.3049 521.929C18.3049 513.523 22.669 505.879 29.5609 501.583C28.9749 501.533 28.3847 501.506 27.7928 501.506Z" fill="#A32E87"/>
<path d="M80.0676 184.702C80.0686 184.702 80.6941 184.172 81.7871 183.245C82.3339 182.782 82.998 182.221 83.759 181.576C84.1398 181.253 84.5451 180.91 84.9722 180.548C85.0789 180.458 85.187 180.366 85.2965 180.274C85.3472 180.231 85.3993 180.188 85.451 180.144C85.4597 180.143 85.4597 180.133 85.4698 180.132C85.4968 180.111 85.5581 180.089 85.6344 180.081C85.7087 180.075 85.797 180.086 85.8496 180.111C85.8795 180.12 85.8959 180.136 85.9104 180.144C85.9123 180.147 85.9157 180.149 85.9201 180.15L86.0108 180.23L86.1951 180.394C86.6898 180.834 87.2013 181.289 87.7269 181.757C88.2524 182.225 88.7925 182.705 89.3445 183.196C89.6201 183.442 89.8995 183.69 90.1809 183.94L90.3922 184.129L90.4989 184.223L90.5254 184.247L90.5655 184.281L90.6712 184.368C90.9554 184.594 91.273 184.769 91.6016 184.888C92.2609 185.121 92.9592 185.155 93.6386 184.983C93.9779 184.895 94.3123 184.752 94.6231 184.55C94.7013 184.5 94.7781 184.448 94.8509 184.388L94.961 184.299L95.0131 184.255L95.0406 184.231L95.2616 184.034C95.8513 183.509 96.4488 182.978 97.0506 182.442C97.6529 181.906 98.26 181.367 98.869 180.824L99.326 180.418L99.5552 180.214L99.6122 180.163L99.6267 180.151C99.6296 180.148 99.6286 180.15 99.6296 180.149L99.6329 180.148C99.6378 180.147 99.6368 180.139 99.6436 180.139C99.6735 180.112 99.7661 180.082 99.8593 180.089C99.9539 180.094 100.023 180.13 100.045 180.149C100.35 180.421 100.655 180.692 100.96 180.963C101.568 181.505 102.175 182.045 102.778 182.581C103.379 183.116 103.977 183.647 104.567 184.172L104.692 184.282C104.764 184.342 104.838 184.401 104.913 184.458C105.066 184.566 105.223 184.663 105.387 184.742C105.713 184.902 106.055 185.004 106.398 185.055C107.083 185.155 107.782 185.05 108.421 184.736C108.581 184.658 108.734 184.562 108.883 184.459C108.955 184.404 109.027 184.347 109.097 184.288L109.168 184.226L109.221 184.179C109.363 184.052 109.504 183.926 109.645 183.801C109.927 183.55 110.206 183.303 110.482 183.057C111.034 182.566 111.574 182.086 112.099 181.618C112.625 181.151 113.135 180.695 113.631 180.255L113.723 180.173L113.746 180.152C113.754 180.145 113.75 180.149 113.752 180.148L113.757 180.145C113.76 180.138 113.771 180.138 113.777 180.13C113.796 180.122 113.818 180.11 113.848 180.101C113.909 180.087 113.99 180.08 114.05 180.097C114.115 180.108 114.147 180.137 114.166 180.148C114.384 180.341 114.597 180.531 114.804 180.715C115.222 181.087 115.619 181.439 115.992 181.772C116.738 182.434 117.388 183.013 117.923 183.489C118.995 184.442 119.607 184.986 119.607 184.987C119.858 185.154 120.478 184.808 121.02 184.192C121.562 183.575 121.828 182.914 121.633 182.685C121.632 182.684 121.02 182.139 119.95 181.186C119.414 180.71 118.764 180.131 118.019 179.468C117.646 179.136 117.25 178.784 116.831 178.411C116.62 178.223 116.404 178.032 116.183 177.835C115.756 177.464 115.24 177.206 114.704 177.093C114.168 176.973 113.606 176.984 113.05 177.131C112.773 177.207 112.498 177.323 112.234 177.474C112.104 177.556 111.973 177.637 111.853 177.738L111.761 177.812L111.697 177.868L111.605 177.951C111.11 178.39 110.598 178.846 110.073 179.313C109.547 179.781 109.007 180.261 108.455 180.752C108.18 180.998 107.9 181.246 107.619 181.496C107.478 181.621 107.337 181.748 107.195 181.873L107.141 181.921C107.125 181.936 107.1 181.959 107.104 181.953C107.1 181.954 107.097 181.957 107.095 181.961C107.085 181.965 107.077 181.972 107.065 181.978C107.018 182.001 106.92 182.026 106.835 182.008C106.794 182.002 106.757 181.99 106.732 181.978C106.719 181.972 106.711 181.965 106.701 181.961C106.699 181.956 106.696 181.953 106.691 181.952H106.689L106.677 181.94L106.649 181.916L106.594 181.867C106.004 181.341 105.407 180.81 104.805 180.275C104.203 179.739 103.596 179.199 102.987 178.657C102.682 178.386 102.376 178.114 102.071 177.842C101.477 177.317 100.739 177.052 100.02 177.015C99.3009 176.978 98.5582 177.156 97.9159 177.598C97.8343 177.649 97.759 177.714 97.6833 177.774L97.6263 177.822L97.5853 177.857L97.5279 177.907L97.2991 178.111L96.8416 178.518C96.2331 179.06 95.626 179.6 95.0237 180.136C94.4214 180.672 93.8245 181.203 93.2342 181.727L93.0132 181.924L92.9857 181.949C92.9799 181.953 92.9818 181.951 92.9799 181.951C92.978 181.952 92.9761 181.953 92.9746 181.955C92.9732 181.96 92.9674 181.961 92.963 181.964C92.9452 181.975 92.9172 181.989 92.88 182C92.8047 182.02 92.701 182.012 92.6378 181.99C92.6069 181.978 92.5871 181.964 92.574 181.954C92.5726 181.953 92.5707 181.952 92.5683 181.951L92.5663 181.951L92.5543 181.94L92.5272 181.916L92.4211 181.822L92.2097 181.634C91.9283 181.382 91.6489 181.135 91.3738 180.889C90.8213 180.398 90.2817 179.918 89.7557 179.45C89.2302 178.982 88.7191 178.527 88.2244 178.087L88.0391 177.923L87.9465 177.84C87.8871 177.79 87.8268 177.741 87.7655 177.692C87.5203 177.507 87.2563 177.356 86.9885 177.251C86.4514 177.034 85.9003 176.968 85.3665 177.013C84.8333 177.062 84.3077 177.227 83.8396 177.525C83.7218 177.595 83.6118 177.684 83.5037 177.769C83.4444 177.819 83.3855 177.868 83.3266 177.918C83.2171 178.01 83.1094 178.102 83.0023 178.192C82.5752 178.553 82.1703 178.897 81.7891 179.219C81.028 179.864 80.3644 180.426 79.8177 180.889C78.7236 181.816 78.0987 182.345 78.0982 182.346C77.8603 182.547 78.1083 183.238 78.6522 183.889C79.1956 184.54 79.8292 184.903 80.0676 184.702Z" fill="#26ABC4"/>
<path d="M119.942 189.909C119.407 189.433 118.757 188.854 118.011 188.191C117.638 187.859 117.242 187.506 116.823 187.133C116.612 186.946 116.396 186.754 116.175 186.557C115.749 186.186 115.233 185.928 114.697 185.815C114.16 185.695 113.598 185.706 113.043 185.854C112.765 185.929 112.49 186.045 112.226 186.195C112.096 186.277 111.966 186.359 111.845 186.46L111.754 186.535L111.689 186.59L111.597 186.672C111.102 187.113 110.591 187.567 110.065 188.035C109.54 188.503 109 188.983 108.447 189.474C108.172 189.719 107.892 189.968 107.611 190.218C107.47 190.344 107.329 190.47 107.187 190.596L107.133 190.643C107.117 190.658 107.092 190.681 107.097 190.675C107.092 190.676 107.089 190.679 107.087 190.683C107.077 190.686 107.07 190.695 107.057 190.7C107.01 190.724 106.912 190.748 106.827 190.73C106.786 190.724 106.75 190.712 106.724 190.7C106.711 190.695 106.703 190.687 106.693 190.683C106.691 190.678 106.688 190.676 106.684 190.675L106.682 190.674L106.67 190.663L106.642 190.639L106.586 190.589C105.996 190.064 105.399 189.533 104.797 188.998C104.195 188.462 103.588 187.921 102.979 187.379C102.674 187.108 102.368 186.837 102.063 186.565C101.469 186.04 100.731 185.775 100.013 185.738C99.2931 185.7 98.5504 185.878 97.9081 186.321C97.8265 186.371 97.7512 186.436 97.6755 186.497L97.6185 186.544L97.5775 186.579L97.5201 186.63L97.2913 186.834L96.8338 187.241C96.2253 187.782 95.6182 188.323 95.0159 188.858C94.4136 189.394 93.8166 189.925 93.2264 190.45L93.0054 190.646L92.9779 190.671C92.9721 190.675 92.974 190.673 92.9721 190.674C92.9702 190.675 92.9682 190.676 92.9668 190.678C92.9653 190.682 92.9596 190.684 92.9552 190.686C92.9374 190.698 92.9094 190.712 92.8722 190.723C92.7969 190.742 92.6932 190.735 92.6299 190.712C92.5991 190.701 92.5793 190.687 92.5662 190.677C92.5648 190.675 92.5629 190.674 92.5604 190.674L92.5585 190.673L92.5465 190.662L92.5194 190.639L92.4133 190.545L92.2019 190.356C91.9205 190.105 91.6411 189.857 91.366 189.611C90.8135 189.12 90.2739 188.64 89.7479 188.173C89.2224 187.705 88.7113 187.25 88.2166 186.81L88.0313 186.645L87.9387 186.563C87.8793 186.512 87.819 186.463 87.7577 186.415C87.5125 186.229 87.2486 186.078 86.9807 185.974C86.4436 185.756 85.8925 185.69 85.3587 185.736C84.8255 185.784 84.2999 185.95 83.8318 186.248C83.714 186.319 83.604 186.406 83.4959 186.492C83.4365 186.541 83.3777 186.591 83.3188 186.64C83.2092 186.733 83.1016 186.824 82.9945 186.915C82.5674 187.277 82.1625 187.62 81.7812 187.942C81.0202 188.587 80.3566 189.149 79.8099 189.611C78.7158 190.538 78.0909 191.068 78.0904 191.068C77.8525 191.27 78.1005 191.961 78.6444 192.611C79.1892 193.261 79.8229 193.625 80.0618 193.423C80.0627 193.422 80.6882 192.893 81.7812 191.967C82.328 191.504 82.9921 190.942 83.7531 190.296C84.1339 189.974 84.5393 189.631 84.9664 189.269C85.073 189.179 85.1811 189.087 85.2907 188.995C85.3413 188.952 85.3935 188.908 85.4451 188.865C85.4538 188.864 85.4538 188.854 85.4639 188.853C85.4909 188.833 85.5522 188.809 85.6285 188.803C85.7028 188.796 85.7911 188.807 85.8437 188.832C85.8736 188.841 85.89 188.856 85.9045 188.865C85.9065 188.868 85.9098 188.87 85.9142 188.871L86.0049 188.951L86.1893 189.116C86.6839 189.555 87.1955 190.011 87.721 190.479C88.2466 190.946 88.7866 191.426 89.3387 191.917C89.6142 192.163 89.8936 192.411 90.175 192.661L90.3864 192.849L90.493 192.944L90.5196 192.968L90.5596 193.002L90.6653 193.088C90.9496 193.315 91.2671 193.49 91.5957 193.61C92.255 193.843 92.9533 193.876 93.6328 193.704C93.972 193.616 94.3065 193.473 94.6173 193.271C94.6955 193.221 94.7722 193.169 94.845 193.109L94.9551 193.02L95.0072 192.976L95.0347 192.952L95.2557 192.755C95.8455 192.23 96.4429 191.699 97.0447 191.163C97.647 190.628 98.2541 190.088 98.8631 189.546L99.3201 189.139L99.5494 188.935L99.6063 188.885L99.6208 188.872C99.6237 188.87 99.6227 188.871 99.6237 188.87L99.6271 188.869C99.6319 188.868 99.6309 188.861 99.6377 188.86C99.6676 188.834 99.7603 188.804 99.8534 188.81C99.948 188.815 100.017 188.851 100.039 188.87C100.344 189.142 100.649 189.413 100.954 189.683C101.562 190.226 102.169 190.765 102.772 191.302C103.373 191.837 103.971 192.368 104.561 192.893L104.686 193.003C104.758 193.064 104.832 193.122 104.907 193.18C105.06 193.286 105.217 193.384 105.381 193.463C105.707 193.623 106.049 193.725 106.393 193.776C107.077 193.876 107.776 193.771 108.416 193.457C108.575 193.379 108.728 193.283 108.877 193.18C108.949 193.125 109.021 193.068 109.091 193.009L109.162 192.948L109.215 192.9C109.357 192.773 109.499 192.648 109.639 192.522C109.921 192.272 110.2 192.023 110.476 191.778C111.028 191.287 111.568 190.807 112.093 190.339C112.619 189.871 113.13 189.417 113.625 188.976L113.717 188.894L113.74 188.873C113.748 188.866 113.744 188.871 113.746 188.869L113.752 188.867C113.754 188.859 113.766 188.858 113.771 188.851C113.79 188.843 113.812 188.831 113.842 188.821C113.903 188.807 113.984 188.802 114.045 188.818C114.109 188.829 114.142 188.858 114.16 188.869C114.379 189.062 114.591 189.252 114.798 189.436C115.216 189.808 115.613 190.16 115.986 190.493C116.732 191.156 117.382 191.734 117.917 192.21C118.989 193.163 119.601 193.707 119.602 193.708C119.852 193.875 120.472 193.529 121.014 192.913C121.557 192.296 121.822 191.636 121.628 191.406C121.625 191.407 121.013 190.862 119.942 189.909Z" fill="#26ABC4"/>
<path d="M80.6613 342.497C80.6583 342.497 77.2294 342.497 72.5728 342.496C72.6251 340.432 72.8829 338.398 73.306 336.507C73.4489 335.929 73.5559 335.352 73.7369 334.806C73.8192 334.532 73.9 334.259 73.9804 333.991C74.0198 333.857 74.0603 333.723 74.0997 333.59C74.1401 333.458 74.1929 333.33 74.2383 333.201C74.4271 332.687 74.6105 332.188 74.7889 331.704C74.995 331.231 75.1952 330.774 75.3875 330.335C75.5664 329.891 75.7962 329.49 75.9914 329.098C76.1946 328.71 76.373 328.335 76.5653 327.995C76.9656 327.322 77.3142 326.734 77.6011 326.25C78.2342 325.316 78.5965 324.781 78.597 324.781C78.6927 324.564 78.2381 324.028 77.5553 323.561C76.8715 323.094 76.1995 322.88 76.0205 323.069C76.02 323.069 75.6286 323.647 74.9428 324.658C74.6312 325.184 74.2526 325.821 73.8182 326.552C73.6087 326.922 73.4124 327.331 73.1916 327.754C72.9786 328.181 72.7306 328.618 72.5329 329.104C72.3234 329.583 72.105 330.082 71.8792 330.599C71.6839 331.129 71.4828 331.676 71.2752 332.239C71.2254 332.381 71.1682 332.521 71.1234 332.666C71.0795 332.812 71.0361 332.957 70.9917 333.105C70.9035 333.4 70.8147 333.698 70.7245 333.999C70.5288 334.598 70.407 335.23 70.2517 335.865C69.7819 337.96 69.4994 340.217 69.4466 342.496C66.0975 342.495 62.4201 342.495 59.042 342.495C58.9897 340.216 58.7062 337.959 58.2369 335.864C58.0816 335.229 57.9598 334.598 57.7641 333.999C57.6738 333.697 57.5846 333.399 57.4969 333.105C57.4525 332.957 57.4081 332.811 57.3647 332.665C57.3199 332.52 57.2627 332.38 57.2129 332.239C57.0058 331.676 56.8046 331.129 56.6094 330.599C56.3836 330.082 56.1652 329.583 55.9557 329.103C55.758 328.617 55.51 328.18 55.297 327.753C55.0761 327.331 54.8789 326.922 54.6704 326.552C54.2365 325.821 53.8579 325.183 53.5458 324.658C52.86 323.647 52.4686 323.069 52.4681 323.068C52.2891 322.88 51.6166 323.094 50.9333 323.561C50.25 324.028 49.7954 324.563 49.8906 324.78C49.8911 324.781 50.2534 325.315 50.887 326.25C51.1744 326.733 51.523 327.321 51.9228 327.995C52.1156 328.335 52.2935 328.71 52.4967 329.098C52.6914 329.489 52.9216 329.891 53.1006 330.335C53.2929 330.774 53.4926 331.23 53.6996 331.703C53.8771 332.187 54.061 332.687 54.2498 333.201C54.2957 333.33 54.3479 333.457 54.3889 333.59C54.4283 333.722 54.4677 333.856 54.5082 333.991C54.588 334.259 54.6694 334.531 54.7512 334.806C54.9322 335.352 55.0397 335.929 55.1826 336.507C55.6051 338.397 55.8635 340.431 55.9152 342.495C51.022 342.495 47.3604 342.495 47.3589 342.495C47.1607 342.495 47 343.174 47 344.012C47 344.85 47.1602 345.53 47.3589 345.53C47.3609 345.53 50.9856 345.53 55.8423 345.53C55.6983 347.527 55.3833 349.496 54.9465 351.339C54.3741 353.674 53.6281 355.807 52.8704 357.586C52.1082 359.364 51.3563 360.795 50.7948 361.768C50.5137 362.253 50.285 362.629 50.1253 362.879C49.9665 363.131 49.8797 363.26 49.8797 363.26C49.7486 363.46 50.2303 363.977 50.9343 364.464C51.6373 364.951 52.3616 365.13 52.5095 364.902C52.5095 364.902 52.6115 364.751 52.7885 364.47C52.967 364.19 53.2184 363.777 53.5251 363.248C54.135 362.19 54.9425 360.653 55.7594 358.745C56.5724 356.837 57.3731 354.548 57.9904 352.029C58.4775 349.979 58.8255 347.774 58.9734 345.53C62.3935 345.53 66.1247 345.53 69.5137 345.53C69.6626 347.774 70.0106 349.979 70.4972 352.029C71.114 354.549 71.9147 356.837 72.7281 358.745C73.5456 360.653 74.3526 362.19 74.963 363.248C75.2692 363.777 75.5206 364.19 75.6996 364.47C75.8766 364.751 75.9786 364.902 75.9786 364.902C76.127 365.13 76.8512 364.951 77.5538 364.464C78.2573 363.977 78.739 363.46 78.6084 363.26C78.6084 363.26 78.5216 363.131 78.3628 362.879C78.2031 362.629 77.9743 362.253 77.6928 361.768C77.1313 360.795 76.3799 359.364 75.6172 357.586C74.859 355.807 74.114 353.674 73.5411 351.339C73.1038 349.496 72.7893 347.526 72.6458 345.529C77.2644 345.528 80.6578 345.528 80.6598 345.528C80.8501 345.487 81 344.824 81 344.012C81.0005 343.201 80.8506 342.539 80.6613 342.497Z" fill="#B28F58"/>
<path d="M65.5549 226.663C64.463 225.99 63.2975 225.651 62.0894 225.651C60.0234 225.651 58.1064 226.636 56.6677 228.346C56.5695 227.624 56.4549 226.865 56.3171 226.071C55.8291 223.245 55.079 219.99 53.9793 216.643C53.8482 216.221 53.6891 215.813 53.544 215.392C53.3922 214.971 53.2519 214.561 53.087 214.122C52.749 213.223 52.3273 212.303 51.79 211.444C50.7304 209.735 49.1064 208.139 46.907 208.001C46.818 207.995 46.73 208.015 46.641 208.021L46.4456 208.043C46.3189 208.055 46.1956 208.089 46.0708 208.113C45.9461 208.136 45.8242 208.175 45.7023 208.213C45.5805 208.251 45.4596 208.289 45.342 208.341C44.8657 208.527 44.4188 208.795 44.0107 209.109C43.1842 209.734 42.5274 210.555 41.9863 211.41C41.4471 212.268 41.022 213.187 40.682 214.086C40.6356 214.201 40.5964 214.308 40.5601 214.412L40.4479 214.729C40.3725 214.94 40.2975 215.149 40.223 215.358C40.0765 215.778 39.9193 216.187 39.7868 216.608C39.0677 218.792 38.5004 220.933 38.0555 222.945C37.8485 222.002 37.6183 221.052 37.363 220.109C37.231 219.633 37.0984 219.157 36.9674 218.682C36.83 218.211 36.6763 217.749 36.5341 217.285C36.256 216.353 35.9199 215.475 35.6176 214.611C35.5789 214.504 35.5412 214.396 35.5035 214.291C35.4643 214.183 35.4145 214.065 35.3724 213.954C35.2815 213.73 35.1979 213.506 35.1011 213.287C35.0001 213.069 34.9 212.853 34.8018 212.64C34.7027 212.426 34.5847 212.224 34.4778 212.02C34.0309 211.213 33.5207 210.487 32.9646 209.892C32.407 209.296 31.7962 208.849 31.2139 208.55C30.9271 208.39 30.6365 208.293 30.371 208.201C30.0992 208.128 29.8496 208.062 29.617 208.041C29.3878 208.003 29.1808 208.002 29.0004 208.002C28.82 207.995 28.6677 208.017 28.5444 208.029C28.2953 208.05 28.1657 208.086 28.1657 208.086C28.0656 208.107 28.0052 208.341 28.0003 208.698C27.9955 209.055 28.0463 209.534 28.1381 210.056C28.2305 210.577 28.3413 211.043 28.4302 211.379C28.5207 211.715 28.5913 211.92 28.6363 211.909C28.6363 211.909 28.6957 211.889 28.8094 211.884C28.866 211.879 28.9361 211.863 29.0183 211.871C29.1005 211.871 29.1948 211.867 29.3007 211.888C29.5126 211.91 29.7684 211.981 30.0556 212.131C30.3429 212.281 30.6645 212.504 30.9919 212.854C31.3179 213.204 31.6487 213.667 31.9611 214.231C32.036 214.377 32.1197 214.514 32.1927 214.671C32.2657 214.829 32.3388 214.988 32.4132 215.148C32.4853 215.313 32.5511 215.493 32.6226 215.667C32.6575 215.757 32.6933 215.838 32.7286 215.937C32.7643 216.036 32.8001 216.136 32.8354 216.236C33.1169 217.042 33.4332 217.863 33.6885 218.726C33.8215 219.155 33.9642 219.584 34.0919 220.022C34.2137 220.462 34.3366 220.903 34.4589 221.347C35.4218 224.894 36.0108 228.595 36.2778 231.379C36.4098 232.771 36.4741 233.933 36.5017 234.739C36.5128 235.141 36.5215 235.457 36.5215 235.666C36.5225 235.875 36.5229 235.985 36.5229 235.985C36.5491 236.087 36.817 236.171 37.2126 236.234C37.4549 236.301 37.7441 236.334 38.0545 236.317C38.8723 236.363 39.5436 236.205 39.5866 236.012C39.5866 236.012 39.5876 235.908 39.5866 235.723C39.5876 235.712 39.5905 235.702 39.5905 235.69C39.5905 235.69 39.5914 235.636 39.5924 235.531C39.5924 235.427 39.5953 235.27 39.6021 235.063C39.6069 234.858 39.6127 234.604 39.6287 234.303C39.6403 234.002 39.6572 233.656 39.6838 233.268C39.7859 231.717 39.9856 229.484 40.4445 226.854C40.8986 224.226 41.5984 221.2 42.6188 218.097C42.7417 217.708 42.8901 217.325 43.026 216.934C43.0962 216.739 43.1658 216.543 43.2359 216.346L43.3409 216.051C43.3762 215.95 43.4115 215.854 43.4463 215.77C43.7181 215.048 44.0295 214.39 44.3932 213.812C44.7554 213.238 45.1626 212.745 45.6022 212.417C45.8198 212.249 46.0442 212.113 46.2725 212.027C46.3291 212 46.3862 211.984 46.4437 211.966C46.5012 211.948 46.5578 211.927 46.6159 211.92C46.6734 211.91 46.7305 211.889 46.788 211.887L46.8683 211.878C46.8712 211.877 46.8751 211.876 46.8785 211.876L46.8838 211.877C46.8862 211.878 46.8828 211.877 46.9026 211.88L46.9897 211.888C47.0472 211.898 47.1048 211.913 47.1619 211.924C47.2204 211.93 47.2765 211.958 47.334 211.973C47.3916 211.986 47.4482 212.01 47.5052 212.035C47.6203 212.076 47.7311 212.144 47.8447 212.201C47.955 212.276 48.0681 212.339 48.176 212.431C48.6151 212.759 49.0204 213.26 49.3826 213.834C49.7458 214.414 50.0558 215.074 50.3266 215.797C50.4664 216.17 50.6071 216.579 50.7459 216.964C50.8808 217.356 51.0312 217.739 51.1521 218.13C52.1711 221.233 52.8694 224.259 53.3235 226.887C53.7012 229.066 53.9034 230.972 54.0189 232.443C53.9865 232.493 53.9551 232.541 53.9222 232.591C53.5518 233.167 53.1494 233.792 52.7243 234.453C52.5125 234.783 52.2939 235.122 52.0705 235.469C51.8485 235.825 51.6212 236.189 51.3905 236.558C51.1599 236.929 50.9258 237.308 50.6888 237.689C50.4465 238.071 50.2183 238.457 49.991 238.844C49.5311 239.62 49.0682 240.397 48.6006 241.156C47.6682 242.679 46.7063 244.072 45.7173 245.184C44.7337 246.302 43.6929 247.103 42.7417 247.698C41.7943 248.299 40.9223 248.653 40.3207 248.916C40.0175 249.041 39.7689 249.121 39.6055 249.185C39.4391 249.246 39.3511 249.278 39.3511 249.278C39.2341 249.376 39.3037 250.23 39.5136 251.23C39.7244 252.228 40.0103 253.002 40.1679 253C40.1684 253 40.2675 252.964 40.4537 252.896C40.6399 252.825 40.9132 252.737 41.2594 252.593C41.949 252.295 42.9448 251.891 44.0958 251.165C45.2419 250.454 46.5564 249.435 47.7523 248.077C48.9517 246.729 50.0427 245.127 51.0196 243.534C51.5109 242.736 51.9873 241.938 52.4477 241.16C52.5628 240.965 52.6779 240.771 52.7925 240.578C52.9057 240.387 53.0217 240.207 53.1354 240.023C53.3632 239.656 53.588 239.295 53.8091 238.939C54.0107 238.617 54.2076 238.301 54.4024 237.988C54.9417 240.773 56.4205 243.249 58.6185 244.601C59.7105 245.274 60.8765 245.614 62.0841 245.614C65.1366 245.614 67.8632 243.465 69.2018 240.007C71.1111 235.063 69.4775 229.075 65.5549 226.663ZM66.4061 238.291C65.5927 240.392 63.9363 241.697 62.0807 241.697C61.349 241.697 60.6415 241.489 59.9775 241.081C57.5952 239.615 56.6024 235.979 57.7645 232.974C57.8448 232.768 57.9357 232.57 58.0314 232.379C58.5005 231.66 58.7714 231.245 58.7723 231.244C58.7752 231.239 58.7762 231.232 58.7781 231.227C59.6539 230.175 60.8257 229.569 62.0899 229.569C62.8221 229.569 63.5296 229.775 64.1936 230.184C66.5754 231.65 67.5677 235.286 66.4061 238.291Z" fill="#2E4094"/>
<path d="M375.986 655.896C375.921 654.646 375.543 653.411 374.915 652.326C374.281 651.243 373.403 650.308 372.369 649.598C371.334 648.888 370.147 648.398 368.912 648.163C368.291 648.048 367.672 647.994 367.034 648.003C366.376 648.014 365.72 648.118 365.098 648.302C363.85 648.669 362.747 649.338 361.828 650.152C360.907 650.969 360.155 651.934 359.574 652.987C359.548 653.033 359.525 653.08 359.5 653.128C359.465 653.062 359.432 652.997 359.396 652.932C358.809 651.883 358.053 650.924 357.127 650.112C356.205 649.304 355.096 648.642 353.845 648.284C353.222 648.105 352.566 648.006 351.908 648C351.277 647.995 350.653 648.051 350.036 648.173C348.804 648.413 347.621 648.908 346.591 649.623C345.563 650.34 344.687 651.276 344.063 652.363C343.44 653.45 343.066 654.685 343.011 655.935C342.997 656.256 342.997 656.54 343.007 656.829C343.016 657.118 343.035 657.406 343.059 657.692C343.108 658.264 343.188 658.83 343.29 659.39C343.389 659.951 343.523 660.501 343.666 661.049C343.818 661.594 343.981 662.134 344.172 662.665C344.546 663.727 344.995 664.759 345.501 665.759C346.511 667.761 347.759 669.623 349.141 671.365C350.526 673.105 352.06 674.716 353.676 676.227C354.08 676.607 354.498 676.969 354.909 677.341L356.172 678.415L357.465 679.452L359.5 681C360.179 680.484 360.858 679.967 361.537 679.45L362.831 678.413C363.252 678.054 363.678 677.699 364.096 677.337C364.507 676.965 364.926 676.603 365.329 676.223C366.947 674.709 368.483 673.096 369.869 671.352C371.251 669.608 372.5 667.743 373.51 665.738C374.016 664.736 374.463 663.703 374.838 662.638C375.028 662.108 375.191 661.566 375.343 661.021C375.483 660.471 375.618 659.92 375.716 659.358C375.816 658.797 375.895 658.231 375.943 657.659C375.967 657.372 375.985 657.084 375.993 656.794C375.998 656.649 376 656.504 376 656.359C375.999 656.215 375.99 656.05 375.986 655.896ZM359.5 678.051L359.5 678.052L359.5 678.051ZM373.615 656.728C373.608 656.973 373.593 657.22 373.573 657.467C373.531 657.962 373.462 658.457 373.373 658.951C373.287 659.446 373.167 659.938 373.042 660.427C372.905 660.916 372.76 661.403 372.588 661.883C372.25 662.844 371.842 663.786 371.378 664.705C370.452 666.545 369.291 668.283 367.992 669.921C366.69 671.559 365.234 673.089 363.689 674.535C363.305 674.897 362.903 675.244 362.511 675.6L361.298 676.631L360.054 677.63L359.5 678.051L358.947 677.631L357.704 676.634L356.492 675.603C356.1 675.248 355.699 674.901 355.315 674.54C353.773 673.097 352.318 671.568 351.016 669.932C349.718 668.296 348.558 666.561 347.631 664.724C347.167 663.807 346.758 662.866 346.42 661.905C346.247 661.426 346.102 660.94 345.965 660.453C345.839 659.964 345.717 659.473 345.631 658.979C345.542 658.485 345.471 657.99 345.43 657.496C345.409 657.25 345.393 657.002 345.386 656.757C345.376 656.512 345.377 656.26 345.387 656.047C345.426 655.157 345.692 654.285 346.136 653.507C346.583 652.727 347.218 652.048 347.968 651.523C348.722 651.001 349.591 650.637 350.502 650.458C350.955 650.369 351.426 650.326 351.887 650.33C352.321 650.335 352.755 650.4 353.18 650.521C354.03 650.764 354.839 651.235 355.542 651.85C356.946 653.083 357.953 654.873 358.236 656.684C358.274 656.943 358.426 657.16 358.651 657.329C358.843 657.474 359.098 657.584 359.379 657.61C359.418 657.613 359.459 657.616 359.5 657.615C359.539 657.615 359.579 657.613 359.618 657.61C359.624 657.61 359.63 657.608 359.636 657.608C359.901 657.581 360.142 657.48 360.328 657.345C360.548 657.185 360.703 656.977 360.755 656.734C360.886 655.828 361.207 654.923 361.666 654.092C362.124 653.262 362.722 652.5 363.423 651.879C364.123 651.258 364.932 650.781 365.781 650.531C366.207 650.406 366.641 650.338 367.076 650.331C367.532 650.324 368.007 650.364 368.461 650.45C369.374 650.622 370.245 650.984 371.003 651.503C371.76 652.022 372.395 652.703 372.85 653.479C373.299 654.257 373.567 655.129 373.613 656.019C373.615 656.133 373.622 656.236 373.622 656.359C373.621 656.482 373.619 656.605 373.615 656.728Z" fill="#FC7B8F"/>
<path d="M26.2188 379.158C26.2188 378.221 26.4922 377.439 27.0391 376.814C27.6055 376.189 28.4453 375.877 29.5586 375.877C30.6719 375.877 31.5117 376.189 32.0781 376.814C32.6641 377.439 32.957 378.221 32.957 379.158C32.957 380.057 32.6641 380.809 32.0781 381.414C31.5117 382.02 30.6719 382.322 29.5586 382.322C28.4453 382.322 27.6055 382.02 27.0391 381.414C26.4922 380.809 26.2188 380.057 26.2188 379.158Z" fill="#F5FDFC"/>
<path d="M356.219 460.158C356.219 459.221 356.492 458.439 357.039 457.814C357.605 457.189 358.445 456.877 359.559 456.877C360.672 456.877 361.512 457.189 362.078 457.814C362.664 458.439 362.957 459.221 362.957 460.158C362.957 461.057 362.664 461.809 362.078 462.414C361.512 463.02 360.672 463.322 359.559 463.322C358.445 463.322 357.605 463.02 357.039 462.414C356.492 461.809 356.219 461.057 356.219 460.158Z" fill="#F5FDFC"/>
<path d="M361.219 383.158C361.219 382.221 361.492 381.439 362.039 380.814C362.605 380.189 363.445 379.877 364.559 379.877C365.672 379.877 366.512 380.189 367.078 380.814C367.664 381.439 367.957 382.221 367.957 383.158C367.957 384.057 367.664 384.809 367.078 385.414C366.512 386.02 365.672 386.322 364.559 386.322C363.445 386.322 362.605 386.02 362.039 385.414C361.492 384.809 361.219 384.057 361.219 383.158Z" fill="#F5FDFC"/>
<path d="M74.2188 524.158C74.2188 523.221 74.4922 522.439 75.0391 521.814C75.6055 521.189 76.4453 520.877 77.5586 520.877C78.6719 520.877 79.5117 521.189 80.0781 521.814C80.6641 522.439 80.957 523.221 80.957 524.158C80.957 525.057 80.6641 525.809 80.0781 526.414C79.5117 527.02 78.6719 527.322 77.5586 527.322C76.4453 527.322 75.6055 527.02 75.0391 526.414C74.4922 525.809 74.2188 525.057 74.2188 524.158Z" fill="#F5FDFC"/>
<path d="M191.219 645.158C191.219 644.221 191.492 643.439 192.039 642.814C192.605 642.189 193.445 641.877 194.559 641.877C195.672 641.877 196.512 642.189 197.078 642.814C197.664 643.439 197.957 644.221 197.957 645.158C197.957 646.057 197.664 646.809 197.078 647.414C196.512 648.02 195.672 648.322 194.559 648.322C193.445 648.322 192.605 648.02 192.039 647.414C191.492 646.809 191.219 646.057 191.219 645.158Z" fill="#F5FDFC"/>
<path d="M96.2188 142.158C96.2188 141.221 96.4922 140.439 97.0391 139.814C97.6055 139.189 98.4453 138.877 99.5586 138.877C100.672 138.877 101.512 139.189 102.078 139.814C102.664 140.439 102.957 141.221 102.957 142.158C102.957 143.057 102.664 143.809 102.078 144.414C101.512 145.02 100.672 145.322 99.5586 145.322C98.4453 145.322 97.6055 145.02 97.0391 144.414C96.4922 143.809 96.2188 143.057 96.2188 142.158Z" fill="#F5FDFC"/>
<path d="M73.2188 297.158C73.2188 296.221 73.4922 295.439 74.0391 294.814C74.6055 294.189 75.4453 293.877 76.5586 293.877C77.6719 293.877 78.5117 294.189 79.0781 294.814C79.6641 295.439 79.957 296.221 79.957 297.158C79.957 298.057 79.6641 298.809 79.0781 299.414C78.5117 300.02 77.6719 300.322 76.5586 300.322C75.4453 300.322 74.6055 300.02 74.0391 299.414C73.4922 298.809 73.2188 298.057 73.2188 297.158Z" fill="#F5FDFC"/>
<path d="M240.219 566.158C240.219 565.221 240.492 564.439 241.039 563.814C241.605 563.189 242.445 562.877 243.559 562.877C244.672 562.877 245.512 563.189 246.078 563.814C246.664 564.439 246.957 565.221 246.957 566.158C246.957 567.057 246.664 567.809 246.078 568.414C245.512 569.02 244.672 569.322 243.559 569.322C242.445 569.322 241.605 569.02 241.039 568.414C240.492 567.809 240.219 567.057 240.219 566.158Z" fill="#F5FDFC"/>
<path d="M305.219 538.158C305.219 537.221 305.492 536.439 306.039 535.814C306.605 535.189 307.445 534.877 308.559 534.877C309.672 534.877 310.512 535.189 311.078 535.814C311.664 536.439 311.957 537.221 311.957 538.158C311.957 539.057 311.664 539.809 311.078 540.414C310.512 541.02 309.672 541.322 308.559 541.322C307.445 541.322 306.605 541.02 306.039 540.414C305.492 539.809 305.219 539.057 305.219 538.158Z" fill="#F5FDFC"/>
<path d="M90.2188 566.158C90.2188 565.221 90.4922 564.439 91.0391 563.814C91.6055 563.189 92.4453 562.877 93.5586 562.877C94.6719 562.877 95.5117 563.189 96.0781 563.814C96.6641 564.439 96.957 565.221 96.957 566.158C96.957 567.057 96.6641 567.809 96.0781 568.414C95.5117 569.02 94.6719 569.322 93.5586 569.322C92.4453 569.322 91.6055 569.02 91.0391 568.414C90.4922 567.809 90.2188 567.057 90.2188 566.158Z" fill="#F5FDFC"/>
<path d="M318.219 488.158C318.219 487.221 318.492 486.439 319.039 485.814C319.605 485.189 320.445 484.877 321.559 484.877C322.672 484.877 323.512 485.189 324.078 485.814C324.664 486.439 324.957 487.221 324.957 488.158C324.957 489.057 324.664 489.809 324.078 490.414C323.512 491.02 322.672 491.322 321.559 491.322C320.445 491.322 319.605 491.02 319.039 490.414C318.492 489.809 318.219 489.057 318.219 488.158Z" fill="#F5FDFC"/>
<path d="M155.219 566.158C155.219 565.221 155.492 564.439 156.039 563.814C156.605 563.189 157.445 562.877 158.559 562.877C159.672 562.877 160.512 563.189 161.078 563.814C161.664 564.439 161.957 565.221 161.957 566.158C161.957 567.057 161.664 567.809 161.078 568.414C160.512 569.02 159.672 569.322 158.559 569.322C157.445 569.322 156.605 569.02 156.039 568.414C155.492 567.809 155.219 567.057 155.219 566.158Z" fill="#F5FDFC"/>
<path d="M384.219 262.158C384.219 261.221 384.492 260.439 385.039 259.814C385.605 259.189 386.445 258.877 387.559 258.877C388.672 258.877 389.512 259.189 390.078 259.814C390.664 260.439 390.957 261.221 390.957 262.158C390.957 263.057 390.664 263.809 390.078 264.414C389.512 265.02 388.672 265.322 387.559 265.322C386.445 265.322 385.605 265.02 385.039 264.414C384.492 263.809 384.219 263.057 384.219 262.158Z" fill="#F5FDFC"/>
<path d="M355.219 234.158C355.219 233.221 355.492 232.439 356.039 231.814C356.605 231.189 357.445 230.877 358.559 230.877C359.672 230.877 360.512 231.189 361.078 231.814C361.664 232.439 361.957 233.221 361.957 234.158C361.957 235.057 361.664 235.809 361.078 236.414C360.512 237.02 359.672 237.322 358.559 237.322C357.445 237.322 356.605 237.02 356.039 236.414C355.492 235.809 355.219 235.057 355.219 234.158Z" fill="#F5FDFC"/>
<path d="M385.219 204.158C385.219 203.221 385.492 202.439 386.039 201.814C386.605 201.189 387.445 200.877 388.559 200.877C389.672 200.877 390.512 201.189 391.078 201.814C391.664 202.439 391.957 203.221 391.957 204.158C391.957 205.057 391.664 205.809 391.078 206.414C390.512 207.02 389.672 207.322 388.559 207.322C387.445 207.322 386.605 207.02 386.039 206.414C385.492 205.809 385.219 205.057 385.219 204.158Z" fill="#F5FDFC"/>
<path d="M381.219 467.158C381.219 466.221 381.492 465.439 382.039 464.814C382.605 464.189 383.445 463.877 384.559 463.877C385.672 463.877 386.512 464.189 387.078 464.814C387.664 465.439 387.957 466.221 387.957 467.158C387.957 468.057 387.664 468.809 387.078 469.414C386.512 470.02 385.672 470.322 384.559 470.322C383.445 470.322 382.605 470.02 382.039 469.414C381.492 468.809 381.219 468.057 381.219 467.158Z" fill="#F5FDFC"/>
<path d="M349.219 573.158C349.219 572.221 349.492 571.439 350.039 570.814C350.605 570.189 351.445 569.877 352.559 569.877C353.672 569.877 354.512 570.189 355.078 570.814C355.664 571.439 355.957 572.221 355.957 573.158C355.957 574.057 355.664 574.809 355.078 575.414C354.512 576.02 353.672 576.322 352.559 576.322C351.445 576.322 350.605 576.02 350.039 575.414C349.492 574.809 349.219 574.057 349.219 573.158Z" fill="#F5FDFC"/>
<path d="M384.219 552.158C384.219 551.221 384.492 550.439 385.039 549.814C385.605 549.189 386.445 548.877 387.559 548.877C388.672 548.877 389.512 549.189 390.078 549.814C390.664 550.439 390.957 551.221 390.957 552.158C390.957 553.057 390.664 553.809 390.078 554.414C389.512 555.02 388.672 555.322 387.559 555.322C386.445 555.322 385.605 555.02 385.039 554.414C384.492 553.809 384.219 553.057 384.219 552.158Z" fill="#F5FDFC"/>
<path d="M379.219 439.158C379.219 438.221 379.492 437.439 380.039 436.814C380.605 436.189 381.445 435.877 382.559 435.877C383.672 435.877 384.512 436.189 385.078 436.814C385.664 437.439 385.957 438.221 385.957 439.158C385.957 440.057 385.664 440.809 385.078 441.414C384.512 442.02 383.672 442.322 382.559 442.322C381.445 442.322 380.605 442.02 380.039 441.414C379.492 440.809 379.219 440.057 379.219 439.158Z" fill="#F5FDFC"/>
<path d="M371.219 356.158C371.219 355.221 371.492 354.439 372.039 353.814C372.605 353.189 373.445 352.877 374.559 352.877C375.672 352.877 376.512 353.189 377.078 353.814C377.664 354.439 377.957 355.221 377.957 356.158C377.957 357.057 377.664 357.809 377.078 358.414C376.512 359.02 375.672 359.322 374.559 359.322C373.445 359.322 372.605 359.02 372.039 358.414C371.492 357.809 371.219 357.057 371.219 356.158Z" fill="#F5FDFC"/>
<path d="M102.219 538.158C102.219 537.221 102.492 536.439 103.039 535.814C103.605 535.189 104.445 534.877 105.559 534.877C106.672 534.877 107.512 535.189 108.078 535.814C108.664 536.439 108.957 537.221 108.957 538.158C108.957 539.057 108.664 539.809 108.078 540.414C107.512 541.02 106.672 541.322 105.559 541.322C104.445 541.322 103.605 541.02 103.039 540.414C102.492 539.809 102.219 539.057 102.219 538.158Z" fill="#F5FDFC"/>
<path d="M61.2188 559.158C61.2188 558.221 61.4922 557.439 62.0391 556.814C62.6055 556.189 63.4453 555.877 64.5586 555.877C65.6719 555.877 66.5117 556.189 67.0781 556.814C67.6641 557.439 67.957 558.221 67.957 559.158C67.957 560.057 67.6641 560.809 67.0781 561.414C66.5117 562.02 65.6719 562.322 64.5586 562.322C63.4453 562.322 62.6055 562.02 62.0391 561.414C61.4922 560.809 61.2188 560.057 61.2188 559.158Z" fill="#F5FDFC"/>
<path d="M252.219 578.158C252.219 577.221 252.492 576.439 253.039 575.814C253.605 575.189 254.445 574.877 255.559 574.877C256.672 574.877 257.512 575.189 258.078 575.814C258.664 576.439 258.957 577.221 258.957 578.158C258.957 579.057 258.664 579.809 258.078 580.414C257.512 581.02 256.672 581.322 255.559 581.322C254.445 581.322 253.605 581.02 253.039 580.414C252.492 579.809 252.219 579.057 252.219 578.158Z" fill="#F5FDFC"/>
<path d="M272.219 655.158C272.219 654.221 272.492 653.439 273.039 652.814C273.605 652.189 274.445 651.877 275.559 651.877C276.672 651.877 277.512 652.189 278.078 652.814C278.664 653.439 278.957 654.221 278.957 655.158C278.957 656.057 278.664 656.809 278.078 657.414C277.512 658.02 276.672 658.322 275.559 658.322C274.445 658.322 273.605 658.02 273.039 657.414C272.492 656.809 272.219 656.057 272.219 655.158Z" fill="#F5FDFC"/>
<path d="M301.219 661.158C301.219 660.221 301.492 659.439 302.039 658.814C302.605 658.189 303.445 657.877 304.559 657.877C305.672 657.877 306.512 658.189 307.078 658.814C307.664 659.439 307.957 660.221 307.957 661.158C307.957 662.057 307.664 662.809 307.078 663.414C306.512 664.02 305.672 664.322 304.559 664.322C303.445 664.322 302.605 664.02 302.039 663.414C301.492 662.809 301.219 662.057 301.219 661.158Z" fill="#F5FDFC"/>
<path d="M10.2188 467.158C10.2188 466.221 10.4922 465.439 11.0391 464.814C11.6055 464.189 12.4453 463.877 13.5586 463.877C14.6719 463.877 15.5117 464.189 16.0781 464.814C16.6641 465.439 16.957 466.221 16.957 467.158C16.957 468.057 16.6641 468.809 16.0781 469.414C15.5117 470.02 14.6719 470.322 13.5586 470.322C12.4453 470.322 11.6055 470.02 11.0391 469.414C10.4922 468.809 10.2188 468.057 10.2188 467.158Z" fill="#F5FDFC"/>
<path d="M139.219 663.158C139.219 662.221 139.492 661.439 140.039 660.814C140.605 660.189 141.445 659.877 142.559 659.877C143.672 659.877 144.512 660.189 145.078 660.814C145.664 661.439 145.957 662.221 145.957 663.158C145.957 664.057 145.664 664.809 145.078 665.414C144.512 666.02 143.672 666.322 142.559 666.322C141.445 666.322 140.605 666.02 140.039 665.414C139.492 664.809 139.219 664.057 139.219 663.158Z" fill="#F5FDFC"/>
<path d="M189.219 559.158C189.219 558.221 189.492 557.439 190.039 556.814C190.605 556.189 191.445 555.877 192.559 555.877C193.672 555.877 194.512 556.189 195.078 556.814C195.664 557.439 195.957 558.221 195.957 559.158C195.957 560.057 195.664 560.809 195.078 561.414C194.512 562.02 193.672 562.322 192.559 562.322C191.445 562.322 190.605 562.02 190.039 561.414C189.492 560.809 189.219 560.057 189.219 559.158Z" fill="#F5FDFC"/>
<path d="M10.2188 564.158C10.2188 563.221 10.4922 562.439 11.0391 561.814C11.6055 561.189 12.4453 560.877 13.5586 560.877C14.6719 560.877 15.5117 561.189 16.0781 561.814C16.6641 562.439 16.957 563.221 16.957 564.158C16.957 565.057 16.6641 565.809 16.0781 566.414C15.5117 567.02 14.6719 567.322 13.5586 567.322C12.4453 567.322 11.6055 567.02 11.0391 566.414C10.4922 565.809 10.2188 565.057 10.2188 564.158Z" fill="#F5FDFC"/>
<path d="M35.1896 276.081C35.1962 276.026 35.1849 275.96 35.1557 275.886L34.9326 274.607L12.9431 273C12.7017 273.013 12.4585 273.484 12.392 274.077C12.3254 274.67 12.4598 275.168 12.6947 275.216L30.8045 276.541C26.7852 279.788 18.4334 286.534 11.4473 292.177C8.04037 289.424 4.964 286.938 4.96269 286.937C4.87048 286.863 4.35855 287.155 3.82053 287.591C3.28163 288.025 2.91975 288.439 3.01196 288.513C3.01327 288.515 6.09007 290.999 9.49787 293.752C4.17457 298.052 0.0660792 301.371 0.0634696 301.373C-0.133561 301.532 0.1435 302.014 0.681962 302.449C1.22042 302.884 1.81717 303.108 2.0142 302.949C2.01637 302.947 6.1253 299.627 11.4477 295.327C15.0621 298.247 18.4686 300.998 18.4704 300.999C18.5847 301.049 19.081 300.761 19.6025 300.34C20.124 299.919 20.4798 299.518 20.4185 299.425C20.4172 299.424 17.0115 296.672 13.3972 293.752C20.385 288.107 28.7403 281.357 32.7579 278.111L35.2666 292.561C35.3014 292.76 35.9412 292.853 36.6954 292.768C37.4496 292.682 38.0333 292.451 37.9985 292.251L35.1896 276.081Z" fill="#F67791"/>
<path d="M321.112 199.59C321.022 199.492 320.324 200.094 319.554 200.936C318.782 201.777 318.229 202.537 318.319 202.636L322.433 207.122C321.709 207.103 320.892 207.063 320.008 206.963C319.71 206.921 319.398 206.893 319.088 206.835C318.933 206.809 318.775 206.782 318.614 206.754C318.457 206.722 318.297 206.688 318.136 206.654C317.495 206.513 316.833 206.334 316.2 206.078C315.566 205.826 314.942 205.513 314.422 205.11C313.893 204.716 313.472 204.238 313.218 203.734C313.091 203.487 313.006 203.213 312.978 203.009C312.977 203.003 312.976 202.996 312.976 202.991C313.211 202.995 313.312 202.995 312.975 202.982C312.973 202.968 312.971 202.955 312.972 202.948C312.971 202.942 312.969 202.931 312.97 202.933C312.97 202.933 312.972 202.933 312.97 202.933L312.97 202.898L312.97 202.849V202.752V202.557C312.97 202.296 312.97 202.034 312.97 201.771C312.968 200.717 312.967 199.64 312.965 198.544C312.954 194.164 312.932 189.488 312.857 184.803C312.818 182.459 312.765 180.114 312.684 177.797C312.602 175.48 312.494 173.193 312.311 170.953C312.222 169.835 312.106 168.725 311.954 167.621C311.802 166.518 311.608 165.419 311.285 164.284C311.197 163.996 311.104 163.71 311.001 163.42C310.876 163.12 310.778 162.836 310.61 162.527C310.528 162.374 310.467 162.23 310.364 162.075C310.266 161.921 310.167 161.769 310.066 161.618C309.949 161.467 309.822 161.317 309.698 161.173C309.576 161.027 309.412 160.892 309.267 160.758C309.123 160.621 308.947 160.514 308.781 160.403C308.614 160.286 308.44 160.205 308.265 160.123C308.088 160.034 307.918 159.978 307.748 159.925C307.662 159.9 307.576 159.871 307.493 159.85L307.253 159.801L307.015 159.756C306.936 159.742 306.867 159.738 306.794 159.729C306.652 159.716 306.495 159.695 306.368 159.695C306.235 159.691 306.103 159.688 305.972 159.684C305.804 159.692 305.638 159.702 305.471 159.717C304.815 159.797 304.206 160.001 303.697 160.271C303.192 160.543 302.746 160.855 302.377 161.184C301.621 161.838 301.07 162.522 300.604 163.17C300.326 163.562 300.081 163.941 299.858 164.309C299.843 164.259 299.831 164.21 299.817 164.159C299.741 163.925 299.667 163.694 299.587 163.463C299.488 163.22 299.399 162.986 299.288 162.745L299.101 162.376L299.006 162.192C298.971 162.131 298.929 162.067 298.89 162.006L298.646 161.637C298.557 161.513 298.451 161.39 298.351 161.271L298.197 161.093C298.14 161.036 298.078 160.98 298.018 160.924C297.896 160.814 297.779 160.7 297.646 160.603C297.511 160.507 297.374 160.416 297.236 160.329C297.098 160.244 296.954 160.181 296.811 160.113C296.243 159.861 295.678 159.748 295.221 159.714L295.042 159.699L294.879 159.693C294.77 159.689 294.662 159.687 294.554 159.684C294.418 159.689 294.278 159.698 294.141 159.709C294.003 159.717 293.868 159.731 293.738 159.762C293.606 159.789 293.475 159.816 293.345 159.846C293.217 159.879 293.099 159.924 292.976 159.965C292.727 160.045 292.512 160.153 292.291 160.26C291.429 160.703 290.801 161.276 290.27 161.83C289.88 162.247 289.544 162.661 289.246 163.068C289.228 163.012 289.21 162.957 289.192 162.902C289.167 162.832 289.142 162.764 289.117 162.696C289.066 162.558 289.01 162.435 288.957 162.311C288.845 162.067 288.73 161.841 288.609 161.635C288.369 161.223 288.123 160.874 287.885 160.585C287.408 160 286.985 159.625 286.696 159.384C286.549 159.264 286.437 159.175 286.361 159.113C286.283 159.058 286.243 159.028 286.243 159.027C286.121 158.941 285.889 159.064 285.625 159.344C285.36 159.621 285.064 160.054 284.784 160.565C284.503 161.074 284.287 161.563 284.149 161.932C284.014 162.3 283.96 162.548 284.032 162.599C284.032 162.599 284.058 162.614 284.102 162.649C284.145 162.683 284.21 162.736 284.293 162.804C284.46 162.941 284.69 163.149 284.926 163.439C285.045 163.582 285.159 163.748 285.264 163.927C285.318 164.019 285.365 164.111 285.41 164.208C285.428 164.255 285.453 164.304 285.469 164.35L285.495 164.42C285.501 164.437 285.512 164.475 285.509 164.464C285.51 164.463 285.509 164.463 285.509 164.463C285.509 164.663 285.509 164.871 285.509 165.083C285.509 165.538 285.509 166.016 285.509 166.516C285.509 170.512 285.509 175.84 285.51 181.169C285.51 191.825 285.512 202.48 285.512 202.484C285.566 202.727 286.428 202.921 287.484 202.921C288.541 202.921 289.403 202.729 289.457 202.486C289.457 202.482 289.457 191.825 289.459 181.169C289.459 177.869 289.459 174.566 289.459 171.583C289.487 171.562 289.507 171.538 289.518 171.509C289.518 171.508 289.584 171.322 289.71 170.973C289.839 170.625 290.033 170.113 290.306 169.479C290.578 168.846 290.929 168.089 291.374 167.281C291.82 166.485 292.37 165.608 293.017 164.926C293.336 164.589 293.679 164.301 293.977 164.157C294.05 164.125 294.124 164.079 294.189 164.065C294.223 164.056 294.256 164.037 294.288 164.03C294.319 164.026 294.349 164.021 294.379 164.013C294.41 164.001 294.439 164.001 294.467 164.003C294.496 164.001 294.522 163.997 294.553 163.992L294.732 163.997L294.821 164L294.895 164.008C295.114 164.02 295.231 164.066 295.308 164.097C295.383 164.123 295.407 164.151 295.487 164.239C295.505 164.264 295.526 164.278 295.547 164.308C295.569 164.347 295.591 164.382 295.616 164.418C295.628 164.437 295.64 164.45 295.654 164.473L295.689 164.548L295.767 164.698C295.818 164.809 295.866 164.945 295.921 165.067C295.969 165.212 296.016 165.358 296.064 165.504C296.247 166.123 296.391 166.845 296.518 167.593C296.635 168.354 296.739 169.14 296.819 169.952C296.984 171.572 297.094 173.257 297.181 174.948C297.346 178.337 297.427 181.759 297.479 184.971C297.531 188.184 297.552 191.187 297.568 193.764C297.582 198.919 297.591 202.356 297.591 202.359C297.646 202.672 298.508 202.921 299.564 202.921C300.62 202.921 301.483 202.672 301.536 202.357C301.536 202.355 301.528 198.908 301.516 193.738C301.501 191.151 301.479 188.133 301.426 184.894C301.373 181.655 301.293 178.196 301.124 174.712C301.068 173.629 301.002 172.543 300.918 171.457C300.962 171.421 300.995 171.377 301.013 171.327C301.013 171.327 301.1 171.073 301.281 170.603C301.463 170.132 301.735 169.442 302.131 168.604C302.525 167.772 303.04 166.773 303.715 165.826C304.051 165.355 304.432 164.901 304.826 164.564C305.022 164.386 305.218 164.265 305.399 164.162C305.58 164.063 305.736 164.028 305.876 164.005C305.91 164.005 305.944 164.002 305.978 163.995C306.05 163.996 306.121 163.999 306.194 164.001C306.273 163.999 306.32 164.013 306.384 164.016C306.413 164.019 306.448 164.019 306.472 164.024L306.541 164.039C306.73 164.081 306.779 164.114 306.845 164.165C306.86 164.19 306.881 164.185 306.903 164.221C306.924 164.251 306.947 164.274 306.975 164.305C307 164.352 307.028 164.396 307.059 164.439C307.091 164.477 307.119 164.556 307.151 164.612C307.217 164.719 307.274 164.9 307.341 165.047C307.401 165.218 307.46 165.401 307.519 165.59C307.741 166.37 307.916 167.299 308.049 168.276C308.183 169.255 308.293 170.284 308.376 171.345C308.55 173.464 308.656 175.694 308.737 177.968C308.817 180.242 308.869 182.561 308.907 184.884C308.982 189.533 309.005 194.19 309.015 198.56C309.016 199.653 309.018 200.727 309.02 201.779C309.02 202.042 309.02 202.302 309.02 202.563V202.916L309.021 203.064L309.025 203.16C309.028 203.226 309.033 203.279 309.038 203.336C309.046 203.454 309.06 203.552 309.073 203.66C309.191 204.473 309.436 205.167 309.75 205.798C310.384 207.056 311.276 207.981 312.169 208.653C313.067 209.337 313.981 209.782 314.852 210.131C315.726 210.481 316.563 210.706 317.354 210.88C317.552 210.921 317.747 210.962 317.939 211.002C318.131 211.035 318.32 211.067 318.507 211.099C318.881 211.169 319.24 211.201 319.589 211.249C320.665 211.373 321.621 211.415 322.455 211.433C321.073 212.941 319.691 214.448 318.31 215.954C318.263 216.089 318.805 216.828 319.552 217.642C320.299 218.457 320.976 219.048 321.1 218.997L330 209.293C327.038 206.053 324.075 202.821 321.112 199.59Z" fill="#25B0C5"/>
<path d="M50.9074 651.097C50.8403 650.754 50.7144 650.418 50.5644 650.086C50.4062 649.755 50.2085 649.435 49.9781 649.126C49.7411 648.822 49.4743 648.527 49.1732 648.253C48.8686 647.982 48.5383 647.723 48.1763 647.49C47.8113 647.258 47.4237 647.043 47.0084 646.857C46.5917 646.673 46.1529 646.51 45.6926 646.38C45.2307 646.252 44.7515 646.151 44.2579 646.085C43.7633 646.024 43.2574 645.993 42.7475 646.001C42.238 646.014 41.726 646.059 41.2211 646.144C40.7199 646.234 40.2207 646.349 39.7455 646.508C38.7891 646.818 37.9197 647.266 37.1471 647.781C35.6105 648.827 34.4923 650.14 33.6382 651.485C33.5363 651.652 33.4283 651.823 33.3321 651.987L33.0581 652.473C32.8753 652.798 32.6931 653.122 32.5108 653.446C32.1314 654.087 31.8221 654.752 31.4939 655.403C31.3347 655.731 31.1616 656.053 31.0167 656.381C30.8729 656.709 30.729 657.036 30.5871 657.36C30.4453 657.686 30.305 658.009 30.1652 658.329C30.0408 658.654 29.9174 658.976 29.794 659.296C29.281 660.63 28.855 661.93 28.5002 663.171C28.1454 661.93 27.7183 660.629 27.2058 659.296C27.0834 658.976 26.9595 658.654 26.8346 658.329C26.6953 658.009 26.5545 657.686 26.4127 657.361C26.2709 657.036 26.127 656.709 25.9831 656.381C25.8382 656.053 25.6652 655.731 25.5064 655.403C25.1777 654.752 24.8685 654.087 24.4891 653.446C24.3073 653.122 24.1245 652.798 23.9422 652.473L23.6678 651.987C23.5715 651.823 23.463 651.652 23.3616 651.485C22.5076 650.14 21.3893 648.826 19.8528 647.781C19.0802 647.266 18.2108 646.818 17.2538 646.508C16.7792 646.349 16.28 646.234 15.7787 646.144C15.2739 646.059 14.7618 646.014 14.2524 646.001C13.7424 645.993 13.2366 646.024 12.7419 646.085C12.2479 646.151 11.7686 646.252 11.3073 646.38C10.847 646.51 10.4082 646.673 9.99141 646.857C9.57566 647.043 9.18806 647.258 8.82402 647.49C8.461 647.723 8.13076 647.982 7.82611 648.253C7.52453 648.527 7.25829 648.822 7.02174 649.126C6.79082 649.435 6.59318 649.755 6.43497 650.086C6.28495 650.418 6.15899 650.754 6.09192 651.097C5.9419 651.779 5.98491 652.464 6.15285 653.083C6.32437 653.704 6.63312 654.252 6.98231 654.717C7.33304 655.183 7.73087 655.566 8.12052 655.884C8.31252 656.049 8.51169 656.186 8.69755 656.323C8.887 656.453 9.07388 656.57 9.24899 656.682C9.9612 657.115 10.5582 657.372 10.9607 657.552C11.1639 657.635 11.3206 657.699 11.4261 657.742C11.531 657.786 11.5868 657.805 11.5868 657.805C11.9273 657.93 12.487 657.496 12.8367 656.837C13.1864 656.179 13.256 655.565 12.9908 655.469C12.9908 655.469 12.9447 655.454 12.8628 655.419C12.7798 655.385 12.6564 655.335 12.4957 655.268C12.1854 655.13 11.7205 654.929 11.2167 654.621C11.0953 654.542 10.9637 654.46 10.8342 654.372C10.7113 654.279 10.5731 654.188 10.4538 654.082C10.2003 653.876 9.95916 653.642 9.76408 653.379C9.36471 652.857 9.14608 652.226 9.29405 651.529C9.42973 650.836 9.97861 650.073 10.868 649.502C11.7486 648.929 12.9462 648.565 14.1787 648.591C14.4869 648.6 14.7972 648.626 15.1059 648.678C15.4131 648.735 15.7224 648.803 16.0234 648.906C16.6297 649.101 17.2103 649.397 17.7556 649.759C18.8426 650.496 19.7478 651.52 20.4641 652.654C20.5522 652.799 20.6423 652.939 20.7299 653.09L20.9915 653.555C21.1666 653.865 21.3402 654.175 21.5148 654.483C21.8788 655.097 22.1707 655.728 22.4835 656.348C22.6346 656.66 22.8004 656.965 22.9377 657.278C23.0749 657.59 23.2111 657.901 23.3463 658.21C23.4809 658.52 23.6156 658.827 23.7487 659.132C23.8665 659.442 23.9847 659.748 24.1015 660.053C25.0379 662.488 25.6805 664.816 26.0968 666.825C26.5146 668.835 26.7097 670.526 26.7982 671.704C26.8448 672.292 26.8597 672.753 26.871 673.066C26.8761 673.378 26.8781 673.543 26.8781 673.543C26.8802 673.553 26.8843 673.562 26.8884 673.571C26.9319 673.696 27.1126 673.805 27.3835 673.881C27.6733 673.968 28.065 674.01 28.493 673.998C28.4966 673.998 28.5002 673.997 28.5038 673.998C28.5048 673.998 28.5058 673.998 28.5073 673.998C28.9354 674.01 29.3266 673.968 29.6164 673.881C29.8867 673.805 30.0675 673.696 30.112 673.571C30.1156 673.563 30.1207 673.553 30.1217 673.543C30.1217 673.543 30.1248 673.378 30.1299 673.066C30.1407 672.754 30.155 672.293 30.2021 671.704C30.2907 670.525 30.4853 668.836 30.9036 666.826C31.3198 664.816 31.9624 662.488 32.8989 660.054C33.0156 659.749 33.1329 659.442 33.2517 659.132C33.3848 658.827 33.5184 658.52 33.6541 658.21C33.7898 657.901 33.925 657.59 34.0627 657.278C34.2004 656.965 34.3658 656.66 34.5168 656.348C34.8292 655.728 35.122 655.097 35.4861 654.483C35.6602 654.175 35.8348 653.865 36.0089 653.555L36.271 653.09C36.3586 652.939 36.4482 652.799 36.5367 652.654C37.253 651.52 38.1583 650.497 39.2453 649.759C39.7901 649.397 40.3712 649.101 40.9774 648.906C41.2785 648.803 41.5867 648.736 41.8944 648.678C42.2037 648.626 42.5135 648.601 42.8217 648.591C44.0546 648.565 45.2517 648.929 46.1329 649.502C47.0218 650.073 47.5711 650.836 47.7073 651.529C47.8553 652.226 47.6367 652.857 47.2373 653.379C47.0417 653.642 46.8011 653.876 46.5476 654.081C46.4288 654.188 46.2896 654.279 46.1667 654.372C46.0377 654.461 45.9061 654.542 45.7847 654.621C45.2814 654.929 44.816 655.13 44.5057 655.268C44.3455 655.335 44.2221 655.385 44.1386 655.419C44.0567 655.454 44.0106 655.469 44.0106 655.469C43.7454 655.565 43.8145 656.178 44.1647 656.837C44.5144 657.496 45.074 657.93 45.4135 657.805C45.4135 657.805 45.4693 657.786 45.5748 657.742C45.6803 657.699 45.8364 657.635 46.0402 657.552C46.4427 657.372 47.0392 657.115 47.7519 656.682C47.9275 656.571 48.1134 656.453 48.3028 656.323C48.4892 656.186 48.6884 656.049 48.8804 655.884C49.2705 655.566 49.6683 655.183 50.0186 654.717C50.3683 654.252 50.6765 653.704 50.8475 653.083C51.0149 652.464 51.0585 651.778 50.9074 651.097Z" fill="#3E2A70"/>
<path d="M45.6174 42.7414C46.7506 43.2973 47.9613 43.5796 49.214 43.5796C52.3821 43.5796 55.2125 41.8015 56.601 38.9391C57.5628 36.956 57.699 34.7152 56.9851 32.6286C56.2707 30.542 54.7918 28.8604 52.8199 27.893C52.7884 27.8777 52.7556 27.8641 52.7236 27.8492C52.7727 27.8353 52.8204 27.8213 52.87 27.8068C53.7901 27.578 54.7696 27.3553 55.805 27.2248C55.9338 27.2062 56.0636 27.1871 56.1933 27.1685C56.3244 27.155 56.4555 27.141 56.588 27.1275C56.8521 27.1018 57.1176 27.0711 57.3858 27.0478C57.9247 27.017 58.4677 26.9709 59.0199 26.9667C59.5708 26.9439 60.1286 26.9588 60.6878 26.9639C60.9677 26.9709 61.2484 26.9881 61.5287 26.9998L61.9503 27.0194L62.3719 27.0529C64.6218 27.2146 66.8623 27.6088 68.9324 28.1078C71.0024 28.6162 72.8992 29.2387 74.4958 29.8473C76.0932 30.4554 77.3872 31.0532 78.2837 31.487C78.7308 31.7065 79.083 31.8784 79.3169 32.0056C79.5537 32.1296 79.6797 32.1957 79.6802 32.1957C79.8817 32.2554 80.3316 31.7638 80.7041 31.0686C81.0775 30.3733 81.2262 29.7238 81.0483 29.5845C81.0474 29.5845 80.9135 29.5136 80.6614 29.3813C80.4113 29.2453 80.0369 29.0621 79.5611 28.8287C78.6076 28.3669 77.233 27.7318 75.5377 27.0865C73.8434 26.4406 71.8299 25.779 69.625 25.2371C67.4183 24.7049 65.0216 24.2823 62.5888 24.1066L62.1338 24.0708L61.6765 24.0493C61.3721 24.0367 61.0682 24.0186 60.7638 24.0106C60.155 24.0041 59.5481 23.9892 58.9444 24.013C58.3412 24.0181 57.7426 24.0675 57.1514 24.1024C56.8553 24.1281 56.5616 24.1611 56.2702 24.19C56.1247 24.2049 55.9792 24.2203 55.8347 24.2352C55.6901 24.2557 55.5465 24.2767 55.4029 24.2972C54.2548 24.4431 53.1549 24.6895 52.1194 24.9491C51.8618 25.0232 51.6084 25.0959 51.3582 25.1681C51.2331 25.2049 51.109 25.238 50.9871 25.2771C50.8653 25.3186 50.7448 25.3596 50.6253 25.4006C50.3862 25.4826 50.1518 25.5628 49.9206 25.642C49.6917 25.7277 49.4702 25.8204 49.2525 25.9066C47.5054 26.607 46.1409 27.421 45.2236 28.0347C44.8506 28.2942 44.5416 28.5044 44.3169 28.6772C44.1913 28.7714 44.0676 28.8683 43.9472 28.9694C43.8661 29.0332 43.8225 29.0677 43.8225 29.0677C43.8086 29.078 43.798 29.092 43.7892 29.1073C42.9914 29.8156 42.3242 30.6879 41.8359 31.6948C40.8741 33.678 40.7374 35.9188 41.4513 38.0053C42.1662 40.0924 43.6456 41.774 45.6174 42.7414ZM54.1714 33.6029C54.6259 34.9333 54.5393 36.3624 53.9259 37.627C53.0405 39.4521 51.235 40.5868 49.214 40.5868C48.4162 40.5868 47.6457 40.4064 46.923 40.0518C45.6656 39.4349 44.7223 38.3623 44.2668 37.0324C43.8119 35.7021 43.899 34.273 44.5124 33.0084C45.3978 31.1832 47.2028 30.049 49.2242 30.049C50.0211 30.049 50.7925 30.2289 51.5153 30.584C52.7722 31.2004 53.7155 32.2726 54.1714 33.6029Z" fill="#CAA060"/>
<path d="M82.5967 39.9926C81.8823 37.906 80.4034 36.2243 78.4316 35.257C77.2983 34.7011 76.0882 34.4192 74.8349 34.4192C71.6669 34.4192 68.8365 36.1973 67.4484 39.0592C65.4622 43.1527 67.1584 48.1082 71.2286 50.1058C71.2605 50.1212 71.293 50.1347 71.3249 50.1496C71.2758 50.164 71.2281 50.178 71.1785 50.1915C70.2589 50.4208 69.2794 50.644 68.2439 50.774C68.1151 50.7931 67.985 50.8113 67.8557 50.8308C67.7246 50.8439 67.593 50.8583 67.4609 50.8714C67.1969 50.8975 66.9309 50.9282 66.6631 50.9515C66.1243 50.9823 65.5808 51.0284 65.0286 51.0326C64.4782 51.0554 63.9199 51.04 63.3607 51.0354C63.0808 51.0284 62.8001 51.0107 62.5198 50.9995L62.0982 50.9799L61.677 50.9464C59.4277 50.7852 57.1867 50.3905 55.1161 49.8915C53.0465 49.3831 51.1493 48.7601 49.5532 48.1525C47.9557 47.5444 46.6617 46.9466 45.7652 46.5123C45.3177 46.2928 44.9656 46.1214 44.7316 45.9941C44.4953 45.8702 44.3688 45.8045 44.3688 45.8045C44.1673 45.7444 43.7174 46.236 43.3444 46.9317C42.9715 47.6264 42.8228 48.2764 43.0007 48.4158C43.0011 48.4158 43.136 48.4861 43.3871 48.6184C43.6377 48.754 44.0116 48.9376 44.4874 49.1715C45.4409 49.6328 46.8155 50.2684 48.5108 50.9133C50.2051 51.5601 52.2186 52.2213 54.424 52.7636C56.6307 53.2953 59.0269 53.7184 61.4597 53.8941L61.9152 53.9295L62.372 53.9514C62.6764 53.964 62.9803 53.9821 63.2852 53.9896C63.8944 53.9961 64.5004 54.011 65.1041 53.9877C65.7073 53.9821 66.3064 53.9332 66.8976 53.8983C67.1936 53.8726 67.4869 53.8391 67.7788 53.8102C67.9243 53.7953 68.0697 53.7804 68.2143 53.765C68.3588 53.744 68.5025 53.7231 68.6461 53.7026C69.7942 53.5572 70.8945 53.3102 71.9291 53.0507C72.1867 52.9771 72.4406 52.9044 72.6903 52.8321C72.8154 52.7949 72.94 52.7622 73.0623 52.7226C73.1837 52.6812 73.3037 52.6402 73.4233 52.5992C73.6628 52.5171 73.8972 52.437 74.1279 52.3573C74.3563 52.2721 74.5783 52.1793 74.796 52.0931C76.5431 51.3928 77.9071 50.5797 78.8245 49.9646C79.2021 49.7027 79.5139 49.4903 79.74 49.3165C79.8623 49.2247 79.9818 49.131 80.0986 49.0327C80.1815 48.967 80.2255 48.9325 80.2255 48.9325C80.2394 48.9213 80.2501 48.9069 80.2589 48.892C81.0562 48.1837 81.7234 47.3114 82.2122 46.3049C83.1735 44.3204 83.3102 42.0787 82.5967 39.9926ZM70.1231 40.3714C71.008 38.5462 72.814 37.4121 74.8349 37.4121C75.6323 37.4121 76.4032 37.5924 77.126 37.947C78.3839 38.5639 79.3267 39.6361 79.7817 40.9664C80.2371 42.2967 80.15 43.7258 79.537 44.9905C78.6517 46.8156 76.8457 47.9498 74.8247 47.9498C74.0274 47.9498 73.2564 47.7704 72.5332 47.4153C69.9382 46.1419 68.8574 42.9822 70.1231 40.3714Z" fill="#CAA060"/>
<path d="M133.219 53.1582C133.219 52.2207 133.492 51.4395 134.039 50.8145C134.605 50.1895 135.445 49.877 136.559 49.877C137.672 49.877 138.512 50.1895 139.078 50.8145C139.664 51.4395 139.957 52.2207 139.957 53.1582C139.957 54.0566 139.664 54.8086 139.078 55.4141C138.512 56.0195 137.672 56.3223 136.559 56.3223C135.445 56.3223 134.605 56.0195 134.039 55.4141C133.492 54.8086 133.219 54.0566 133.219 53.1582Z" fill="#E5FAF5"/>
<path d="M51.2188 101.158C51.2188 100.221 51.4922 99.4395 52.0391 98.8145C52.6055 98.1895 53.4453 97.877 54.5586 97.877C55.6719 97.877 56.5117 98.1895 57.0781 98.8145C57.6641 99.4395 57.957 100.221 57.957 101.158C57.957 102.057 57.6641 102.809 57.0781 103.414C56.5117 104.02 55.6719 104.322 54.5586 104.322C53.4453 104.322 52.6055 104.02 52.0391 103.414C51.4922 102.809 51.2188 102.057 51.2188 101.158Z" fill="#F5FDFC"/>
<path d="M156.219 36.1582C156.219 35.2207 156.492 34.4395 157.039 33.8145C157.605 33.1895 158.445 32.877 159.559 32.877C160.672 32.877 161.512 33.1895 162.078 33.8145C162.664 34.4395 162.957 35.2207 162.957 36.1582C162.957 37.0566 162.664 37.8086 162.078 38.4141C161.512 39.0195 160.672 39.3223 159.559 39.3223C158.445 39.3223 157.605 39.0195 157.039 38.4141C156.492 37.8086 156.219 37.0566 156.219 36.1582Z" fill="#E5FAF5"/>
<path d="M324.219 51.1582C324.219 50.2207 324.492 49.4395 325.039 48.8145C325.605 48.1895 326.445 47.877 327.559 47.877C328.672 47.877 329.512 48.1895 330.078 48.8145C330.664 49.4395 330.957 50.2207 330.957 51.1582C330.957 52.0566 330.664 52.8086 330.078 53.4141C329.512 54.0195 328.672 54.3223 327.559 54.3223C326.445 54.3223 325.605 54.0195 325.039 53.4141C324.492 52.8086 324.219 52.0566 324.219 51.1582Z" fill="#E5F7F4"/>
<path d="M303.219 14.1582C303.219 13.2207 303.492 12.4395 304.039 11.8145C304.605 11.1895 305.445 10.877 306.559 10.877C307.672 10.877 308.512 11.1895 309.078 11.8145C309.664 12.4395 309.957 13.2207 309.957 14.1582C309.957 15.0566 309.664 15.8086 309.078 16.4141C308.512 17.0195 307.672 17.3223 306.559 17.3223C305.445 17.3223 304.605 17.0195 304.039 16.4141C303.492 15.8086 303.219 15.0566 303.219 14.1582Z" fill="#E5F7F4"/>
<path d="M377.219 27.1582C377.219 26.2207 377.492 25.4395 378.039 24.8145C378.605 24.1895 379.445 23.877 380.559 23.877C381.672 23.877 382.512 24.1895 383.078 24.8145C383.664 25.4395 383.957 26.2207 383.957 27.1582C383.957 28.0566 383.664 28.8086 383.078 29.4141C382.512 30.0195 381.672 30.3223 380.559 30.3223C379.445 30.3223 378.605 30.0195 378.039 29.4141C377.492 28.8086 377.219 28.0566 377.219 27.1582Z" fill="#E5F7F4"/>
<path d="M136.219 12.1582C136.219 11.2207 136.492 10.4395 137.039 9.81445C137.605 9.18945 138.445 8.87695 139.559 8.87695C140.672 8.87695 141.512 9.18945 142.078 9.81445C142.664 10.4395 142.957 11.2207 142.957 12.1582C142.957 13.0566 142.664 13.8086 142.078 14.4141C141.512 15.0195 140.672 15.3223 139.559 15.3223C138.445 15.3223 137.605 15.0195 137.039 14.4141C136.492 13.8086 136.219 13.0566 136.219 12.1582Z" fill="#E5FAF5"/>
<path d="M394.872 156.069C394.872 156.069 394.429 155.978 393.654 155.818C393.265 155.747 392.793 155.661 392.251 155.563C391.979 155.52 391.689 155.474 391.384 155.426C391.231 155.401 391.075 155.377 390.915 155.352C390.754 155.33 390.59 155.307 390.422 155.285C389.433 155.142 388.318 155.014 387.124 154.909C387.124 150.968 387.126 138.964 387.126 137.089C388.319 136.985 389.434 136.857 390.422 136.714C390.59 136.692 390.754 136.669 390.915 136.647C391.075 136.622 391.231 136.597 391.384 136.573C391.689 136.525 391.979 136.479 392.251 136.436C392.793 136.338 393.265 136.252 393.654 136.181C394.429 136.022 394.872 135.931 394.872 135.931C395.027 135.871 395.044 135.422 394.907 134.907C394.771 134.391 394.537 133.994 394.375 134C394.375 134 393.95 134.087 393.205 134.241C392.831 134.308 392.377 134.391 391.856 134.485C391.594 134.526 391.316 134.57 391.022 134.617C390.875 134.64 390.724 134.664 390.57 134.688C390.416 134.709 390.257 134.731 390.095 134.753C387.51 135.126 384.018 135.397 380.519 135.38C377.018 135.373 373.521 135.082 370.927 134.73C369.629 134.559 368.556 134.376 367.811 134.238C367.064 134.1 366.65 134.007 366.65 134.007C366.492 133.973 366.255 134.376 366.101 134.907C365.946 135.437 365.975 135.902 366.147 135.94C366.147 135.94 366.261 135.964 366.471 136.008C366.681 136.051 366.988 136.113 367.378 136.185C368.158 136.329 369.271 136.518 370.613 136.695C371.71 136.844 372.963 136.982 374.306 137.094C374.306 138.98 374.308 150.964 374.308 154.907C372.964 155.018 371.711 155.156 370.613 155.305C369.271 155.481 368.158 155.671 367.378 155.815C366.988 155.887 366.681 155.949 366.471 155.992C366.261 156.037 366.147 156.061 366.147 156.061C365.975 156.097 365.947 156.563 366.101 157.093C366.254 157.623 366.492 158.027 366.65 157.993C366.65 157.993 367.064 157.9 367.811 157.762C368.556 157.624 369.629 157.441 370.927 157.27C373.521 156.917 377.018 156.627 380.519 156.62C384.018 156.603 387.51 156.874 390.095 157.247C390.257 157.269 390.416 157.291 390.57 157.312C390.724 157.336 390.875 157.36 391.022 157.383C391.315 157.43 391.594 157.474 391.856 157.516C392.377 157.61 392.831 157.691 393.205 157.759C393.949 157.912 394.375 158 394.375 158C394.536 158.006 394.771 157.61 394.907 157.093C395.044 156.577 395.027 156.129 394.872 156.069ZM380.51 154.634C379.149 154.636 377.789 154.681 376.479 154.754C376.48 150.764 376.48 139.518 376.48 137.245C377.79 137.318 379.149 137.363 380.51 137.365C382.013 137.373 383.516 137.328 384.952 137.246C384.952 139.521 384.953 150.763 384.954 154.754C383.517 154.671 382.014 154.626 380.51 154.634Z" fill="#B68DCB"/>
<path d="M46.6999 151.677C46.5105 151.589 46.2467 151.54 45.9545 151.541C45.6622 151.541 45.396 151.587 45.2023 151.65C45.0086 151.716 44.8874 151.799 44.885 151.897C44.885 151.898 44.884 151.93 44.8827 151.992C44.8793 152.055 44.8697 152.147 44.86 152.268C44.855 152.328 44.8496 152.395 44.8436 152.469C44.8333 152.543 44.8216 152.623 44.8092 152.709C44.7952 152.796 44.7878 152.89 44.7668 152.988C44.7474 153.086 44.7267 153.19 44.7043 153.3C44.6065 153.739 44.4572 154.265 44.2117 154.837C43.9672 155.409 43.6272 156.026 43.1793 156.639C42.7355 157.254 42.17 157.849 41.5167 158.4C40.8625 158.951 40.105 159.434 39.2844 159.842C37.6365 160.642 35.713 161.076 33.7859 161.033C31.8594 161.009 29.9477 160.507 28.3292 159.637C27.5206 159.202 26.7855 158.678 26.1512 158.102C25.521 157.521 24.9823 156.898 24.5668 156.26C24.1486 155.625 23.8407 154.99 23.6269 154.404C23.4122 153.818 23.293 153.283 23.2198 152.84C23.2041 152.728 23.1887 152.623 23.1747 152.523C23.1607 152.424 23.1577 152.329 23.1487 152.242C23.1413 152.155 23.1346 152.074 23.1283 152C23.1263 151.925 23.1243 151.858 23.123 151.797C23.1203 151.676 23.1153 151.584 23.1156 151.52C23.1176 151.458 23.1186 151.425 23.1186 151.425C23.0949 151.242 22.6367 151.056 22.0716 151.008C21.5071 150.961 21.0389 151.126 21.0035 151.384C21.0035 151.385 21.0025 151.428 21.0001 151.513C20.9991 151.598 21.0048 151.723 21.0085 151.887C21.0108 151.969 21.0135 152.059 21.0165 152.16C21.0245 152.26 21.0332 152.37 21.0425 152.488C21.0539 152.605 21.0609 152.733 21.0786 152.867C21.0976 153.001 21.1173 153.144 21.1391 153.294C21.2356 153.892 21.3979 154.612 21.6818 155.386C21.9637 156.159 22.3655 156.983 22.8958 157.788C23.4232 158.595 24.0892 159.365 24.8547 160.07C25.6232 160.769 26.4993 161.39 27.4498 161.902C27.9685 162.18 28.5099 162.424 29.067 162.634C25.9602 164.678 23.8554 168.585 23.8554 173.061C23.8554 179.644 28.4087 185 34.0053 185C39.6023 185 44.1559 179.644 44.1559 173.061C44.1559 168.586 42.0515 164.679 38.9457 162.635C39.3378 162.488 39.7215 162.323 40.0949 162.142C41.0565 161.666 41.9526 161.094 42.7415 160.431C43.5294 159.768 44.2231 159.039 44.7818 158.266C45.3443 157.498 45.7831 156.705 46.1034 155.957C46.4247 155.207 46.6258 154.504 46.7564 153.916C46.7858 153.767 46.8138 153.627 46.8399 153.494C46.8666 153.363 46.8796 153.236 46.8976 153.119C46.914 153.002 46.9287 152.894 46.9427 152.794C46.9514 152.694 46.9594 152.603 46.9661 152.522C46.9795 152.359 46.9912 152.234 46.9958 152.149C46.9985 152.065 46.9998 152.021 46.9998 152.02C47.0049 151.889 46.8896 151.764 46.6999 151.677ZM42.1239 173.063C42.1239 178.327 38.4825 182.61 34.006 182.61C29.5302 182.61 25.8884 178.328 25.8884 173.063C25.8884 167.913 29.3732 163.705 33.7148 163.524C33.7278 163.524 33.7415 163.524 33.7545 163.524C33.9402 163.529 34.1252 163.527 34.3109 163.524C38.6464 163.713 42.1239 167.918 42.1239 173.063Z" fill="#A32E87"/>
<path d="M246.661 19.4969C246.658 19.4969 243.229 19.4969 238.573 19.4964C238.625 17.4324 238.883 15.3982 239.306 13.507C239.449 12.9293 239.556 12.3525 239.737 11.8063C239.819 11.5316 239.9 11.2592 239.98 10.9912C240.02 10.8567 240.06 10.7226 240.1 10.5901C240.14 10.458 240.193 10.3302 240.238 10.2014C240.427 9.68732 240.61 9.1876 240.789 8.70368C240.995 8.23125 241.195 7.77413 241.387 7.3352C241.566 6.89101 241.796 6.4899 241.991 6.09836C242.195 5.71017 242.373 5.33538 242.565 4.99506C242.966 4.32207 243.314 3.73428 243.601 3.25036C244.234 2.31554 244.597 1.78136 244.597 1.78089C244.693 1.56405 244.238 1.02844 243.555 0.561271C242.871 0.0941033 242.199 -0.119856 242.021 0.0687346C242.02 0.0692133 241.629 0.647429 240.943 1.65835C240.631 2.18391 240.253 2.82148 239.818 3.55239C239.609 3.92239 239.412 4.33116 239.192 4.75381C238.979 5.18077 238.731 5.61827 238.533 6.10362C238.323 6.58324 238.105 7.08247 237.879 7.59942C237.684 8.12881 237.483 8.6764 237.275 9.2393C237.225 9.3805 237.168 9.52074 237.123 9.66578C237.079 9.81177 237.036 9.95728 236.992 10.1052C236.903 10.3996 236.815 10.6978 236.725 10.9993C236.529 11.5981 236.407 12.2299 236.252 12.8646C235.782 14.9597 235.499 17.217 235.447 19.4959C232.098 19.4954 228.42 19.4954 225.042 19.4954C224.99 17.2161 224.706 14.9592 224.237 12.8642C224.082 12.2295 223.96 11.5976 223.764 10.9988C223.674 10.6973 223.585 10.3991 223.497 10.1047C223.452 9.9568 223.408 9.81129 223.365 9.6653C223.32 9.52027 223.263 9.38002 223.213 9.23882C223.006 8.67592 222.805 8.12881 222.609 7.59894C222.384 7.082 222.165 6.58276 221.956 6.10314C221.758 5.61731 221.51 5.1803 221.297 4.75334C221.076 4.33068 220.879 3.92239 220.67 3.55191C220.237 2.821 219.858 2.18343 219.546 1.65787C218.86 0.647429 218.469 0.0692133 218.468 0.068256C218.289 -0.120334 217.617 0.0941033 216.933 0.560792C216.25 1.02796 215.795 1.5631 215.891 1.77993C215.891 1.78089 216.253 2.31507 216.887 3.24988C217.174 3.73332 217.523 4.32063 217.923 4.99458C218.116 5.3349 218.294 5.70969 218.497 6.09788C218.691 6.48942 218.922 6.89053 219.101 7.33472C219.293 7.77365 219.493 8.23029 219.7 8.7032C219.877 9.18712 220.061 9.68684 220.25 10.2009C220.296 10.3302 220.348 10.4575 220.389 10.5896C220.428 10.7222 220.468 10.8562 220.508 10.9907C220.588 11.2592 220.669 11.5311 220.751 11.8058C220.932 12.352 221.04 12.9288 221.183 13.5065C221.605 15.3967 221.863 17.431 221.915 19.495C217.022 19.4945 213.36 19.4945 213.359 19.4945C213.161 19.4945 213 20.1742 213 21.0123C213 21.8504 213.16 22.5301 213.359 22.5301C213.361 22.5301 216.986 22.5301 221.842 22.5301C221.698 24.5271 221.383 26.4958 220.946 28.3386C220.374 30.674 219.628 32.8073 218.87 34.5855C218.108 36.3637 217.356 37.7949 216.795 38.768C216.514 39.2534 216.285 39.6291 216.125 39.8785C215.966 40.1308 215.88 40.26 215.88 40.26C215.749 40.4601 216.23 40.977 216.934 41.4643C217.637 41.9506 218.362 42.1301 218.509 41.9018C218.509 41.9018 218.612 41.7505 218.789 41.47C218.967 41.1896 219.218 40.7774 219.525 40.248C220.135 39.1897 220.943 37.6528 221.759 35.7453C222.572 33.8374 223.373 31.548 223.99 29.0293C224.477 26.9787 224.826 24.7741 224.973 22.5296C228.394 22.5296 232.125 22.5296 235.514 22.5296C235.663 24.7741 236.011 26.9787 236.497 29.0293C237.114 31.5485 237.915 33.8374 238.728 35.7453C239.546 37.6528 240.353 39.1897 240.963 40.248C241.269 40.777 241.521 41.1896 241.7 41.47C241.877 41.7505 241.979 41.9018 241.979 41.9018C242.127 42.1301 242.851 41.9506 243.554 41.4643C244.257 40.977 244.739 40.4601 244.608 40.26C244.608 40.26 244.522 40.1308 244.363 39.8785C244.203 39.6291 243.974 39.2529 243.693 38.768C243.131 37.7949 242.38 36.3637 241.617 34.5855C240.859 32.8073 240.114 30.674 239.541 28.3386C239.104 26.4958 238.789 24.5261 238.646 22.5287C243.264 22.5282 246.658 22.5282 246.66 22.5282C246.85 22.487 247 21.8241 247 21.0123C247 20.2015 246.851 19.539 246.661 19.4969Z" fill="#1CA8BE"/>
</svg>
