<svg width="174" height="14" viewBox="0 0 174 14" fill="none" xmlns="http://www.w3.org/2000/svg">
<path opacity="0.4" d="M0.656 1.318H8.18V3.154H2.78V6.232H7.838V8.068H2.78V11.146H8.18V13H0.656V1.318ZM13.3089 5.764C13.8849 4.6 14.8089 4.018 16.0809 4.018C17.1609 4.018 17.9709 4.372 18.5109 5.08C19.0629 5.788 19.3389 6.724 19.3389 7.888V13H17.2149V7.888C17.2149 7.24 17.0589 6.754 16.7469 6.43C16.4349 6.094 15.9969 5.926 15.4329 5.926C14.8689 5.926 14.3829 6.178 13.9749 6.682C13.5789 7.186 13.3689 7.942 13.3449 8.95V13H11.2209V4.252H13.0749L13.3089 5.764ZM27.3677 12.784C26.5757 13.096 25.9517 13.252 25.4957 13.252C25.0397 13.252 24.6377 13.198 24.2897 13.09C23.9537 12.982 23.6537 12.82 23.3897 12.604C22.8377 12.112 22.5617 11.434 22.5617 10.57V5.674H21.3377V4.252H22.5617V1.948H24.6857V4.252H27.0617V5.674H24.6857V10.498C24.6857 11.218 25.0277 11.578 25.7117 11.578C26.0597 11.578 26.5097 11.482 27.0617 11.29L27.3677 12.784ZM35.6393 5.296C35.9393 5.68 36.1613 6.124 36.3053 6.628C36.4613 7.132 36.5393 7.594 36.5393 8.014C36.5393 8.434 36.5153 8.812 36.4673 9.148H30.8153C30.8393 9.856 31.0133 10.432 31.3373 10.876C31.6613 11.32 32.1533 11.542 32.8133 11.542C33.6893 11.542 34.2113 11.158 34.3793 10.39H36.5213C36.3773 11.266 35.9753 11.956 35.3153 12.46C34.6313 12.988 33.7973 13.252 32.8133 13.252C31.6613 13.252 30.6953 12.832 29.9153 11.992C29.1113 11.116 28.7093 9.994 28.7093 8.626C28.7093 7.222 29.1113 6.094 29.9153 5.242C30.6833 4.426 31.6493 4.018 32.8133 4.018C34.0253 4.018 34.9673 4.444 35.6393 5.296ZM32.8313 5.71C32.2313 5.71 31.7633 5.908 31.4273 6.304C31.0913 6.688 30.8933 7.186 30.8333 7.798H34.5593C34.5593 6.85 34.2593 6.214 33.6593 5.89C33.4313 5.77 33.1553 5.71 32.8313 5.71ZM41.2062 5.98C41.7342 4.72 42.5262 4.09 43.5822 4.09C43.7862 4.09 44.0442 4.132 44.3562 4.216L44.3202 6.34C43.9842 6.268 43.6542 6.232 43.3302 6.232C41.9142 6.232 41.2062 7.21 41.2062 9.166V13H39.0822V4.234H41.2062V5.98ZM52.2572 1.318L54.8312 5.98L57.5312 1.318H60.0332L55.8752 8.176V13H53.7512V8.176L49.7372 1.318H52.2572ZM63.9655 4.018C64.5535 4.018 65.1055 4.114 65.6215 4.306C66.1375 4.486 66.5815 4.768 66.9535 5.152C67.7815 5.992 68.1955 7.156 68.1955 8.644C68.1955 10.108 67.7815 11.26 66.9535 12.1C66.2095 12.868 65.2135 13.252 63.9655 13.252C62.7175 13.252 61.7095 12.868 60.9415 12.1C60.1135 11.272 59.6995 10.12 59.6995 8.644C59.6995 7.144 60.1135 5.98 60.9415 5.152C61.6975 4.396 62.7055 4.018 63.9655 4.018ZM66.0715 8.626C66.0715 7.702 65.8915 7.012 65.5315 6.556C65.1715 6.088 64.6675 5.854 64.0195 5.854C63.3835 5.854 62.8615 6.088 62.4535 6.556C62.0455 7.012 61.8415 7.702 61.8415 8.626C61.8415 9.55 62.0215 10.246 62.3815 10.714C62.7535 11.17 63.2575 11.398 63.8935 11.398C64.5295 11.398 65.0515 11.17 65.4595 10.714C65.8675 10.246 66.0715 9.55 66.0715 8.626ZM76.5368 11.416C75.9848 12.58 75.0968 13.162 73.8728 13.162C72.3248 13.162 71.3048 12.556 70.8128 11.344C70.6328 10.924 70.5428 10.414 70.5428 9.814V4.234H72.6668V9.598C72.6668 10.174 72.8048 10.606 73.0808 10.894C73.3568 11.17 73.6928 11.308 74.0888 11.308C74.4968 11.308 74.8388 11.254 75.1148 11.146C75.3908 11.026 75.6308 10.852 75.8348 10.624C76.2788 10.108 76.5128 9.418 76.5368 8.554V4.234H78.6608V13H76.5368V11.416ZM84.132 5.98C84.66 4.72 85.452 4.09 86.508 4.09C86.712 4.09 86.97 4.132 87.282 4.216L87.246 6.34C86.91 6.268 86.58 6.232 86.256 6.232C84.84 6.232 84.132 7.21 84.132 9.166V13H82.008V4.234H84.132V5.98ZM94.049 1.318H98.765C100.061 1.318 101.063 1.624 101.771 2.236C102.443 2.8 102.779 3.526 102.779 4.414C102.779 5.074 102.593 5.638 102.221 6.106C101.861 6.574 101.351 6.904 100.691 7.096C101.351 7.228 101.897 7.528 102.329 7.996C102.761 8.452 102.977 9.04 102.977 9.76C102.977 11.2 102.263 12.184 100.835 12.712C100.295 12.904 99.611 13 98.783 13H94.049V1.318ZM98.729 11.146C99.413 11.146 99.905 11.008 100.205 10.732C100.517 10.456 100.673 10.09 100.673 9.634C100.673 9.178 100.511 8.812 100.187 8.536C99.875 8.248 99.389 8.104 98.729 8.104H96.173V11.146H98.729ZM96.173 6.25H98.675C99.311 6.25 99.791 6.112 100.115 5.836C100.439 5.56 100.601 5.188 100.601 4.72C100.601 4.24 100.439 3.862 100.115 3.586C99.803 3.298 99.329 3.154 98.693 3.154H96.173V6.25ZM105.901 4.234H108.025V13H105.901V4.234ZM105.649 1.426C105.649 1.042 105.763 0.742 105.991 0.526C106.219 0.298 106.543 0.184 106.963 0.184C107.371 0.184 107.689 0.298 107.917 0.526C108.157 0.742 108.277 1.042 108.277 1.426C108.277 1.81 108.157 2.116 107.917 2.344C107.689 2.56 107.371 2.668 106.963 2.668C106.543 2.668 106.219 2.56 105.991 2.344C105.763 2.116 105.649 1.81 105.649 1.426ZM113.751 5.98C114.279 4.72 115.071 4.09 116.127 4.09C116.331 4.09 116.589 4.132 116.901 4.216L116.865 6.34C116.529 6.268 116.199 6.232 115.875 6.232C114.459 6.232 113.751 7.21 113.751 9.166V13H111.627V4.234H113.751V5.98ZM124.047 12.784C123.255 13.096 122.631 13.252 122.175 13.252C121.719 13.252 121.317 13.198 120.969 13.09C120.633 12.982 120.333 12.82 120.069 12.604C119.517 12.112 119.241 11.434 119.241 10.57V5.674H118.017V4.252H119.241V1.948H121.365V4.252H123.741V5.674H121.365V10.498C121.365 11.218 121.707 11.578 122.391 11.578C122.739 11.578 123.189 11.482 123.741 11.29L124.047 12.784ZM128.341 5.674C128.941 4.57 129.817 4.018 130.969 4.018C132.121 4.018 132.967 4.372 133.507 5.08C134.059 5.788 134.335 6.724 134.335 7.888V13H132.211V7.888C132.211 7.24 132.055 6.754 131.743 6.43C131.431 6.094 130.993 5.926 130.429 5.926C129.865 5.926 129.379 6.178 128.971 6.682C128.575 7.186 128.365 7.942 128.341 8.95V13H126.217V0.651999H128.341V5.674ZM143.138 11.65C142.598 12.718 141.77 13.252 140.654 13.252C139.538 13.252 138.602 12.826 137.846 11.974C137.066 11.086 136.676 9.958 136.676 8.59C136.676 7.222 137.048 6.112 137.792 5.26C138.524 4.432 139.436 4.018 140.528 4.018C141.62 4.018 142.442 4.456 142.994 5.332V0.651999H145.136V13H143.39L143.138 11.65ZM140.924 5.926C140.324 5.926 139.82 6.172 139.412 6.664C139.016 7.144 138.818 7.792 138.818 8.608C138.818 9.424 139.022 10.084 139.43 10.588C139.838 11.08 140.354 11.326 140.978 11.326C141.494 11.326 141.956 11.122 142.364 10.714C142.784 10.294 142.994 9.766 142.994 9.13V7.996C142.97 7.372 142.76 6.862 142.364 6.466C142.004 6.106 141.524 5.926 140.924 5.926ZM151.368 7.888C152.064 7.888 152.868 8.002 153.78 8.23V7.366C153.78 6.754 153.654 6.304 153.402 6.016C153.162 5.716 152.76 5.566 152.196 5.566C151.644 5.566 151.218 5.68 150.918 5.908C150.618 6.124 150.468 6.436 150.468 6.844H148.146C148.146 5.848 148.494 5.128 149.19 4.684C149.898 4.24 150.882 4.018 152.142 4.018C153.942 4.018 155.106 4.648 155.634 5.908C155.814 6.34 155.904 6.85 155.904 7.438V13H154.05L153.888 11.83C153.324 12.778 152.46 13.252 151.296 13.252C150.168 13.252 149.292 12.976 148.668 12.424C148.092 11.896 147.804 11.23 147.804 10.426C147.804 9.61 148.122 8.986 148.758 8.554C149.394 8.11 150.264 7.888 151.368 7.888ZM153.78 9.58C153.072 9.388 152.412 9.292 151.8 9.292C150.648 9.292 150.072 9.676 150.072 10.444C150.072 10.768 150.204 11.05 150.468 11.29C150.732 11.518 151.152 11.632 151.728 11.632C152.316 11.632 152.796 11.44 153.168 11.056C153.552 10.66 153.756 10.168 153.78 9.58ZM163.932 12.784C163.14 13.096 162.516 13.252 162.06 13.252C161.604 13.252 161.202 13.198 160.854 13.09C160.518 12.982 160.218 12.82 159.954 12.604C159.402 12.112 159.126 11.434 159.126 10.57V5.674H157.902V4.252H159.126V1.948H161.25V4.252H163.626V5.674H161.25V10.498C161.25 11.218 161.592 11.578 162.276 11.578C162.624 11.578 163.074 11.482 163.626 11.29L163.932 12.784ZM172.204 5.296C172.504 5.68 172.726 6.124 172.87 6.628C173.026 7.132 173.104 7.594 173.104 8.014C173.104 8.434 173.08 8.812 173.032 9.148H167.38C167.404 9.856 167.578 10.432 167.902 10.876C168.226 11.32 168.718 11.542 169.378 11.542C170.254 11.542 170.776 11.158 170.944 10.39H173.086C172.942 11.266 172.54 11.956 171.88 12.46C171.196 12.988 170.362 13.252 169.378 13.252C168.226 13.252 167.26 12.832 166.48 11.992C165.676 11.116 165.274 9.994 165.274 8.626C165.274 7.222 165.676 6.094 166.48 5.242C167.248 4.426 168.214 4.018 169.378 4.018C170.59 4.018 171.532 4.444 172.204 5.296ZM169.396 5.71C168.796 5.71 168.328 5.908 167.992 6.304C167.656 6.688 167.458 7.186 167.398 7.798H171.124C171.124 6.85 170.824 6.214 170.224 5.89C169.996 5.77 169.72 5.71 169.396 5.71Z" fill="#181827"/>
</svg>
