<svg width="203" height="14" viewBox="0 0 203 14" fill="none" xmlns="http://www.w3.org/2000/svg">
<path opacity="0.4" d="M0.656 1.318H8.18V3.154H2.78V6.232H7.838V8.068H2.78V11.146H8.18V13H0.656V1.318ZM13.3089 5.764C13.8849 4.6 14.8089 4.018 16.0809 4.018C17.1609 4.018 17.9709 4.372 18.5109 5.08C19.0629 5.788 19.3389 6.724 19.3389 7.888V13H17.2149V7.888C17.2149 7.24 17.0589 6.754 16.7469 6.43C16.4349 6.094 15.9969 5.926 15.4329 5.926C14.8689 5.926 14.3829 6.178 13.9749 6.682C13.5789 7.186 13.3689 7.942 13.3449 8.95V13H11.2209V4.252H13.0749L13.3089 5.764ZM27.3677 12.784C26.5757 13.096 25.9517 13.252 25.4957 13.252C25.0397 13.252 24.6377 13.198 24.2897 13.09C23.9537 12.982 23.6537 12.82 23.3897 12.604C22.8377 12.112 22.5617 11.434 22.5617 10.57V5.674H21.3377V4.252H22.5617V1.948H24.6857V4.252H27.0617V5.674H24.6857V10.498C24.6857 11.218 25.0277 11.578 25.7117 11.578C26.0597 11.578 26.5097 11.482 27.0617 11.29L27.3677 12.784ZM35.6393 5.296C35.9393 5.68 36.1613 6.124 36.3053 6.628C36.4613 7.132 36.5393 7.594 36.5393 8.014C36.5393 8.434 36.5153 8.812 36.4673 9.148H30.8153C30.8393 9.856 31.0133 10.432 31.3373 10.876C31.6613 11.32 32.1533 11.542 32.8133 11.542C33.6893 11.542 34.2113 11.158 34.3793 10.39H36.5213C36.3773 11.266 35.9753 11.956 35.3153 12.46C34.6313 12.988 33.7973 13.252 32.8133 13.252C31.6613 13.252 30.6953 12.832 29.9153 11.992C29.1113 11.116 28.7093 9.994 28.7093 8.626C28.7093 7.222 29.1113 6.094 29.9153 5.242C30.6833 4.426 31.6493 4.018 32.8133 4.018C34.0253 4.018 34.9673 4.444 35.6393 5.296ZM32.8313 5.71C32.2313 5.71 31.7633 5.908 31.4273 6.304C31.0913 6.688 30.8933 7.186 30.8333 7.798H34.5593C34.5593 6.85 34.2593 6.214 33.6593 5.89C33.4313 5.77 33.1553 5.71 32.8313 5.71ZM41.2062 5.98C41.7342 4.72 42.5262 4.09 43.5822 4.09C43.7862 4.09 44.0442 4.132 44.3562 4.216L44.3202 6.34C43.9842 6.268 43.6542 6.232 43.3302 6.232C41.9142 6.232 41.2062 7.21 41.2062 9.166V13H39.0822V4.234H41.2062V5.98ZM52.2572 1.318L54.8312 5.98L57.5312 1.318H60.0332L55.8752 8.176V13H53.7512V8.176L49.7372 1.318H52.2572ZM63.9655 4.018C64.5535 4.018 65.1055 4.114 65.6215 4.306C66.1375 4.486 66.5815 4.768 66.9535 5.152C67.7815 5.992 68.1955 7.156 68.1955 8.644C68.1955 10.108 67.7815 11.26 66.9535 12.1C66.2095 12.868 65.2135 13.252 63.9655 13.252C62.7175 13.252 61.7095 12.868 60.9415 12.1C60.1135 11.272 59.6995 10.12 59.6995 8.644C59.6995 7.144 60.1135 5.98 60.9415 5.152C61.6975 4.396 62.7055 4.018 63.9655 4.018ZM66.0715 8.626C66.0715 7.702 65.8915 7.012 65.5315 6.556C65.1715 6.088 64.6675 5.854 64.0195 5.854C63.3835 5.854 62.8615 6.088 62.4535 6.556C62.0455 7.012 61.8415 7.702 61.8415 8.626C61.8415 9.55 62.0215 10.246 62.3815 10.714C62.7535 11.17 63.2575 11.398 63.8935 11.398C64.5295 11.398 65.0515 11.17 65.4595 10.714C65.8675 10.246 66.0715 9.55 66.0715 8.626ZM76.5368 11.416C75.9848 12.58 75.0968 13.162 73.8728 13.162C72.3248 13.162 71.3048 12.556 70.8128 11.344C70.6328 10.924 70.5428 10.414 70.5428 9.814V4.234H72.6668V9.598C72.6668 10.174 72.8048 10.606 73.0808 10.894C73.3568 11.17 73.6928 11.308 74.0888 11.308C74.4968 11.308 74.8388 11.254 75.1148 11.146C75.3908 11.026 75.6308 10.852 75.8348 10.624C76.2788 10.108 76.5128 9.418 76.5368 8.554V4.234H78.6608V13H76.5368V11.416ZM84.132 5.98C84.66 4.72 85.452 4.09 86.508 4.09C86.712 4.09 86.97 4.132 87.282 4.216L87.246 6.34C86.91 6.268 86.58 6.232 86.256 6.232C84.84 6.232 84.132 7.21 84.132 9.166V13H82.008V4.234H84.132V5.98ZM92.483 1.318H101.843V3.154H98.225V13H96.101V3.154H92.483V1.318ZM103.809 4.234H105.933V13H103.809V4.234ZM103.557 1.426C103.557 1.042 103.671 0.742 103.899 0.526C104.127 0.298 104.451 0.184 104.871 0.184C105.279 0.184 105.597 0.298 105.825 0.526C106.065 0.742 106.185 1.042 106.185 1.426C106.185 1.81 106.065 2.116 105.825 2.344C105.597 2.56 105.279 2.668 104.871 2.668C104.451 2.668 104.127 2.56 103.899 2.344C103.671 2.116 103.557 1.81 103.557 1.426ZM117.311 5.908C117.875 4.648 118.865 4.018 120.281 4.018C121.325 4.018 122.135 4.372 122.711 5.08C123.263 5.752 123.539 6.688 123.539 7.888V13H121.397V7.888C121.397 7.24 121.241 6.754 120.929 6.43C120.617 6.094 120.179 5.926 119.615 5.926C119.051 5.926 118.589 6.172 118.229 6.664C117.869 7.156 117.677 7.9 117.653 8.896V13H115.529V7.888C115.529 7.24 115.373 6.754 115.061 6.43C114.749 6.094 114.311 5.926 113.747 5.926C113.183 5.926 112.697 6.178 112.289 6.682C111.893 7.186 111.683 7.942 111.659 8.95V13H109.535V4.252H111.389L111.623 5.764C112.199 4.6 113.123 4.018 114.395 4.018C115.127 4.018 115.733 4.186 116.213 4.522C116.705 4.858 117.071 5.32 117.311 5.908ZM132.723 5.296C133.023 5.68 133.245 6.124 133.389 6.628C133.545 7.132 133.623 7.594 133.623 8.014C133.623 8.434 133.599 8.812 133.551 9.148H127.899C127.923 9.856 128.097 10.432 128.421 10.876C128.745 11.32 129.237 11.542 129.897 11.542C130.773 11.542 131.295 11.158 131.463 10.39H133.605C133.461 11.266 133.059 11.956 132.399 12.46C131.715 12.988 130.881 13.252 129.897 13.252C128.745 13.252 127.779 12.832 126.999 11.992C126.195 11.116 125.793 9.994 125.793 8.626C125.793 7.222 126.195 6.094 126.999 5.242C127.767 4.426 128.733 4.018 129.897 4.018C131.109 4.018 132.051 4.444 132.723 5.296ZM129.915 5.71C129.315 5.71 128.847 5.908 128.511 6.304C128.175 6.688 127.977 7.186 127.917 7.798H131.643C131.643 6.85 131.343 6.214 130.743 5.89C130.515 5.77 130.239 5.71 129.915 5.71ZM144.157 4.018C144.745 4.018 145.297 4.114 145.813 4.306C146.329 4.486 146.773 4.768 147.145 5.152C147.973 5.992 148.387 7.156 148.387 8.644C148.387 10.108 147.973 11.26 147.145 12.1C146.401 12.868 145.405 13.252 144.157 13.252C142.909 13.252 141.901 12.868 141.133 12.1C140.305 11.272 139.891 10.12 139.891 8.644C139.891 7.144 140.305 5.98 141.133 5.152C141.889 4.396 142.897 4.018 144.157 4.018ZM146.263 8.626C146.263 7.702 146.083 7.012 145.723 6.556C145.363 6.088 144.859 5.854 144.211 5.854C143.575 5.854 143.053 6.088 142.645 6.556C142.237 7.012 142.033 7.702 142.033 8.626C142.033 9.55 142.213 10.246 142.573 10.714C142.945 11.17 143.449 11.398 144.085 11.398C144.721 11.398 145.243 11.17 145.651 10.714C146.059 10.246 146.263 9.55 146.263 8.626ZM149.96 4.252H151.256V3.226C151.256 2.326 151.52 1.636 152.048 1.156C152.528 0.724 153.152 0.508 153.92 0.508C154.412 0.508 155.018 0.58 155.738 0.723999L155.324 2.362C154.988 2.242 154.682 2.182 154.406 2.182C154.142 2.182 153.908 2.26 153.704 2.416C153.5 2.56 153.398 2.836 153.398 3.244V4.252H155V5.674H153.398V13H151.256V5.674H149.96V4.252ZM162.059 1.318H166.775C168.071 1.318 169.073 1.624 169.781 2.236C170.453 2.8 170.789 3.526 170.789 4.414C170.789 5.074 170.603 5.638 170.231 6.106C169.871 6.574 169.361 6.904 168.701 7.096C169.361 7.228 169.907 7.528 170.339 7.996C170.771 8.452 170.987 9.04 170.987 9.76C170.987 11.2 170.273 12.184 168.845 12.712C168.305 12.904 167.621 13 166.793 13H162.059V1.318ZM166.739 11.146C167.423 11.146 167.915 11.008 168.215 10.732C168.527 10.456 168.683 10.09 168.683 9.634C168.683 9.178 168.521 8.812 168.197 8.536C167.885 8.248 167.399 8.104 166.739 8.104H164.183V11.146H166.739ZM164.183 6.25H166.685C167.321 6.25 167.801 6.112 168.125 5.836C168.449 5.56 168.611 5.188 168.611 4.72C168.611 4.24 168.449 3.862 168.125 3.586C167.813 3.298 167.339 3.154 166.703 3.154H164.183V6.25ZM173.911 4.234H176.035V13H173.911V4.234ZM173.659 1.426C173.659 1.042 173.773 0.742 174.001 0.526C174.229 0.298 174.553 0.184 174.973 0.184C175.381 0.184 175.699 0.298 175.927 0.526C176.167 0.742 176.287 1.042 176.287 1.426C176.287 1.81 176.167 2.116 175.927 2.344C175.699 2.56 175.381 2.668 174.973 2.668C174.553 2.668 174.229 2.56 174.001 2.344C173.773 2.116 173.659 1.81 173.659 1.426ZM181.761 5.98C182.289 4.72 183.081 4.09 184.137 4.09C184.341 4.09 184.599 4.132 184.911 4.216L184.875 6.34C184.539 6.268 184.209 6.232 183.885 6.232C182.469 6.232 181.761 7.21 181.761 9.166V13H179.637V4.234H181.761V5.98ZM192.057 12.784C191.265 13.096 190.641 13.252 190.185 13.252C189.729 13.252 189.327 13.198 188.979 13.09C188.643 12.982 188.343 12.82 188.079 12.604C187.527 12.112 187.251 11.434 187.251 10.57V5.674H186.027V4.252H187.251V1.948H189.375V4.252H191.751V5.674H189.375V10.498C189.375 11.218 189.717 11.578 190.401 11.578C190.749 11.578 191.199 11.482 191.751 11.29L192.057 12.784ZM196.351 5.674C196.951 4.57 197.827 4.018 198.979 4.018C200.131 4.018 200.977 4.372 201.517 5.08C202.069 5.788 202.345 6.724 202.345 7.888V13H200.221V7.888C200.221 7.24 200.065 6.754 199.753 6.43C199.441 6.094 199.003 5.926 198.439 5.926C197.875 5.926 197.389 6.178 196.981 6.682C196.585 7.186 196.375 7.942 196.351 8.95V13H194.227V0.651999H196.351V5.674Z" fill="#181827"/>
</svg>
