<svg width="374" height="44" viewBox="0 0 374 44" fill="none" xmlns="http://www.w3.org/2000/svg">
<rect width="374" height="44" rx="3" fill="white"/>
<path opacity="0.4" d="M17.656 17.318H25.18V19.154H19.78V22.232H24.838V24.068H19.78V27.146H25.18V29H17.656V17.318ZM30.3089 21.764C30.8849 20.6 31.8089 20.018 33.0809 20.018C34.1609 20.018 34.9709 20.372 35.5109 21.08C36.0629 21.788 36.3389 22.724 36.3389 23.888V29H34.2149V23.888C34.2149 23.24 34.0589 22.754 33.7469 22.43C33.4349 22.094 32.9969 21.926 32.4329 21.926C31.8689 21.926 31.3829 22.178 30.9749 22.682C30.5789 23.186 30.3689 23.942 30.3449 24.95V29H28.2209V20.252H30.0749L30.3089 21.764ZM44.3677 28.784C43.5757 29.096 42.9517 29.252 42.4957 29.252C42.0397 29.252 41.6377 29.198 41.2897 29.09C40.9537 28.982 40.6537 28.82 40.3897 28.604C39.8377 28.112 39.5617 27.434 39.5617 26.57V21.674H38.3377V20.252H39.5617V17.948H41.6857V20.252H44.0617V21.674H41.6857V26.498C41.6857 27.218 42.0277 27.578 42.7117 27.578C43.0597 27.578 43.5097 27.482 44.0617 27.29L44.3677 28.784ZM52.6393 21.296C52.9393 21.68 53.1613 22.124 53.3053 22.628C53.4613 23.132 53.5393 23.594 53.5393 24.014C53.5393 24.434 53.5153 24.812 53.4673 25.148H47.8153C47.8393 25.856 48.0133 26.432 48.3373 26.876C48.6613 27.32 49.1533 27.542 49.8133 27.542C50.6893 27.542 51.2113 27.158 51.3793 26.39H53.5213C53.3773 27.266 52.9753 27.956 52.3153 28.46C51.6313 28.988 50.7973 29.252 49.8133 29.252C48.6613 29.252 47.6953 28.832 46.9153 27.992C46.1113 27.116 45.7093 25.994 45.7093 24.626C45.7093 23.222 46.1113 22.094 46.9153 21.242C47.6833 20.426 48.6493 20.018 49.8133 20.018C51.0253 20.018 51.9673 20.444 52.6393 21.296ZM49.8313 21.71C49.2313 21.71 48.7633 21.908 48.4273 22.304C48.0913 22.688 47.8933 23.186 47.8333 23.798H51.5593C51.5593 22.85 51.2593 22.214 50.6593 21.89C50.4313 21.77 50.1553 21.71 49.8313 21.71ZM58.2062 21.98C58.7342 20.72 59.5262 20.09 60.5822 20.09C60.7862 20.09 61.0442 20.132 61.3562 20.216L61.3202 22.34C60.9842 22.268 60.6542 22.232 60.3302 22.232C58.9142 22.232 58.2062 23.21 58.2062 25.166V29H56.0822V20.234H58.2062V21.98ZM69.2572 17.318L71.8312 21.98L74.5312 17.318H77.0332L72.8752 24.176V29H70.7512V24.176L66.7372 17.318H69.2572ZM80.9655 20.018C81.5535 20.018 82.1055 20.114 82.6215 20.306C83.1375 20.486 83.5815 20.768 83.9535 21.152C84.7815 21.992 85.1955 23.156 85.1955 24.644C85.1955 26.108 84.7815 27.26 83.9535 28.1C83.2095 28.868 82.2135 29.252 80.9655 29.252C79.7175 29.252 78.7095 28.868 77.9415 28.1C77.1135 27.272 76.6995 26.12 76.6995 24.644C76.6995 23.144 77.1135 21.98 77.9415 21.152C78.6975 20.396 79.7055 20.018 80.9655 20.018ZM83.0715 24.626C83.0715 23.702 82.8915 23.012 82.5315 22.556C82.1715 22.088 81.6675 21.854 81.0195 21.854C80.3835 21.854 79.8615 22.088 79.4535 22.556C79.0455 23.012 78.8415 23.702 78.8415 24.626C78.8415 25.55 79.0215 26.246 79.3815 26.714C79.7535 27.17 80.2575 27.398 80.8935 27.398C81.5295 27.398 82.0515 27.17 82.4595 26.714C82.8675 26.246 83.0715 25.55 83.0715 24.626ZM93.5368 27.416C92.9848 28.58 92.0968 29.162 90.8728 29.162C89.3248 29.162 88.3048 28.556 87.8128 27.344C87.6328 26.924 87.5428 26.414 87.5428 25.814V20.234H89.6668V25.598C89.6668 26.174 89.8048 26.606 90.0808 26.894C90.3568 27.17 90.6928 27.308 91.0888 27.308C91.4968 27.308 91.8388 27.254 92.1148 27.146C92.3908 27.026 92.6308 26.852 92.8348 26.624C93.2788 26.108 93.5128 25.418 93.5368 24.554V20.234H95.6608V29H93.5368V27.416ZM101.132 21.98C101.66 20.72 102.452 20.09 103.508 20.09C103.712 20.09 103.97 20.132 104.282 20.216L104.246 22.34C103.91 22.268 103.58 22.232 103.256 22.232C101.84 22.232 101.132 23.21 101.132 25.166V29H99.008V20.234H101.132V21.98ZM111.049 17.318H115.765C117.061 17.318 118.063 17.624 118.771 18.236C119.443 18.8 119.779 19.526 119.779 20.414C119.779 21.074 119.593 21.638 119.221 22.106C118.861 22.574 118.351 22.904 117.691 23.096C118.351 23.228 118.897 23.528 119.329 23.996C119.761 24.452 119.977 25.04 119.977 25.76C119.977 27.2 119.263 28.184 117.835 28.712C117.295 28.904 116.611 29 115.783 29H111.049V17.318ZM115.729 27.146C116.413 27.146 116.905 27.008 117.205 26.732C117.517 26.456 117.673 26.09 117.673 25.634C117.673 25.178 117.511 24.812 117.187 24.536C116.875 24.248 116.389 24.104 115.729 24.104H113.173V27.146H115.729ZM113.173 22.25H115.675C116.311 22.25 116.791 22.112 117.115 21.836C117.439 21.56 117.601 21.188 117.601 20.72C117.601 20.24 117.439 19.862 117.115 19.586C116.803 19.298 116.329 19.154 115.693 19.154H113.173V22.25ZM122.901 20.234H125.025V29H122.901V20.234ZM122.649 17.426C122.649 17.042 122.763 16.742 122.991 16.526C123.219 16.298 123.543 16.184 123.963 16.184C124.371 16.184 124.689 16.298 124.917 16.526C125.157 16.742 125.277 17.042 125.277 17.426C125.277 17.81 125.157 18.116 124.917 18.344C124.689 18.56 124.371 18.668 123.963 18.668C123.543 18.668 123.219 18.56 122.991 18.344C122.763 18.116 122.649 17.81 122.649 17.426ZM130.751 21.98C131.279 20.72 132.071 20.09 133.127 20.09C133.331 20.09 133.589 20.132 133.901 20.216L133.865 22.34C133.529 22.268 133.199 22.232 132.875 22.232C131.459 22.232 130.751 23.21 130.751 25.166V29H128.627V20.234H130.751V21.98ZM141.047 28.784C140.255 29.096 139.631 29.252 139.175 29.252C138.719 29.252 138.317 29.198 137.969 29.09C137.633 28.982 137.333 28.82 137.069 28.604C136.517 28.112 136.241 27.434 136.241 26.57V21.674H135.017V20.252H136.241V17.948H138.365V20.252H140.741V21.674H138.365V26.498C138.365 27.218 138.707 27.578 139.391 27.578C139.739 27.578 140.189 27.482 140.741 27.29L141.047 28.784ZM145.341 21.674C145.941 20.57 146.817 20.018 147.969 20.018C149.121 20.018 149.967 20.372 150.507 21.08C151.059 21.788 151.335 22.724 151.335 23.888V29H149.211V23.888C149.211 23.24 149.055 22.754 148.743 22.43C148.431 22.094 147.993 21.926 147.429 21.926C146.865 21.926 146.379 22.178 145.971 22.682C145.575 23.186 145.365 23.942 145.341 24.95V29H143.217V16.652H145.341V21.674ZM160.138 27.65C159.598 28.718 158.77 29.252 157.654 29.252C156.538 29.252 155.602 28.826 154.846 27.974C154.066 27.086 153.676 25.958 153.676 24.59C153.676 23.222 154.048 22.112 154.792 21.26C155.524 20.432 156.436 20.018 157.528 20.018C158.62 20.018 159.442 20.456 159.994 21.332V16.652H162.136V29H160.39L160.138 27.65ZM157.924 21.926C157.324 21.926 156.82 22.172 156.412 22.664C156.016 23.144 155.818 23.792 155.818 24.608C155.818 25.424 156.022 26.084 156.43 26.588C156.838 27.08 157.354 27.326 157.978 27.326C158.494 27.326 158.956 27.122 159.364 26.714C159.784 26.294 159.994 25.766 159.994 25.13V23.996C159.97 23.372 159.76 22.862 159.364 22.466C159.004 22.106 158.524 21.926 157.924 21.926ZM168.368 23.888C169.064 23.888 169.868 24.002 170.78 24.23V23.366C170.78 22.754 170.654 22.304 170.402 22.016C170.162 21.716 169.76 21.566 169.196 21.566C168.644 21.566 168.218 21.68 167.918 21.908C167.618 22.124 167.468 22.436 167.468 22.844H165.146C165.146 21.848 165.494 21.128 166.19 20.684C166.898 20.24 167.882 20.018 169.142 20.018C170.942 20.018 172.106 20.648 172.634 21.908C172.814 22.34 172.904 22.85 172.904 23.438V29H171.05L170.888 27.83C170.324 28.778 169.46 29.252 168.296 29.252C167.168 29.252 166.292 28.976 165.668 28.424C165.092 27.896 164.804 27.23 164.804 26.426C164.804 25.61 165.122 24.986 165.758 24.554C166.394 24.11 167.264 23.888 168.368 23.888ZM170.78 25.58C170.072 25.388 169.412 25.292 168.8 25.292C167.648 25.292 167.072 25.676 167.072 26.444C167.072 26.768 167.204 27.05 167.468 27.29C167.732 27.518 168.152 27.632 168.728 27.632C169.316 27.632 169.796 27.44 170.168 27.056C170.552 26.66 170.756 26.168 170.78 25.58ZM180.932 28.784C180.14 29.096 179.516 29.252 179.06 29.252C178.604 29.252 178.202 29.198 177.854 29.09C177.518 28.982 177.218 28.82 176.954 28.604C176.402 28.112 176.126 27.434 176.126 26.57V21.674H174.902V20.252H176.126V17.948H178.25V20.252H180.626V21.674H178.25V26.498C178.25 27.218 178.592 27.578 179.276 27.578C179.624 27.578 180.074 27.482 180.626 27.29L180.932 28.784ZM189.204 21.296C189.504 21.68 189.726 22.124 189.87 22.628C190.026 23.132 190.104 23.594 190.104 24.014C190.104 24.434 190.08 24.812 190.032 25.148H184.38C184.404 25.856 184.578 26.432 184.902 26.876C185.226 27.32 185.718 27.542 186.378 27.542C187.254 27.542 187.776 27.158 187.944 26.39H190.086C189.942 27.266 189.54 27.956 188.88 28.46C188.196 28.988 187.362 29.252 186.378 29.252C185.226 29.252 184.26 28.832 183.48 27.992C182.676 27.116 182.274 25.994 182.274 24.626C182.274 23.222 182.676 22.094 183.48 21.242C184.248 20.426 185.214 20.018 186.378 20.018C187.59 20.018 188.532 20.444 189.204 21.296ZM186.396 21.71C185.796 21.71 185.328 21.908 184.992 22.304C184.656 22.688 184.458 23.186 184.398 23.798H188.124C188.124 22.85 187.824 22.214 187.224 21.89C186.996 21.77 186.72 21.71 186.396 21.71Z" fill="#181827"/>
</svg>
