<svg width="374" height="44" viewBox="0 0 374 44" fill="none" xmlns="http://www.w3.org/2000/svg">
<rect width="374" height="44" rx="3" fill="white"/>
<path opacity="0.4" d="M17.656 18.318H25.18V20.154H19.78V23.232H24.838V25.068H19.78V28.146H25.18V30H17.656V18.318ZM30.3089 22.764C30.8849 21.6 31.8089 21.018 33.0809 21.018C34.1609 21.018 34.9709 21.372 35.5109 22.08C36.0629 22.788 36.3389 23.724 36.3389 24.888V30H34.2149V24.888C34.2149 24.24 34.0589 23.754 33.7469 23.43C33.4349 23.094 32.9969 22.926 32.4329 22.926C31.8689 22.926 31.3829 23.178 30.9749 23.682C30.5789 24.186 30.3689 24.942 30.3449 25.95V30H28.2209V21.252H30.0749L30.3089 22.764ZM44.3677 29.784C43.5757 30.096 42.9517 30.252 42.4957 30.252C42.0397 30.252 41.6377 30.198 41.2897 30.09C40.9537 29.982 40.6537 29.82 40.3897 29.604C39.8377 29.112 39.5617 28.434 39.5617 27.57V22.674H38.3377V21.252H39.5617V18.948H41.6857V21.252H44.0617V22.674H41.6857V27.498C41.6857 28.218 42.0277 28.578 42.7117 28.578C43.0597 28.578 43.5097 28.482 44.0617 28.29L44.3677 29.784ZM52.6393 22.296C52.9393 22.68 53.1613 23.124 53.3053 23.628C53.4613 24.132 53.5393 24.594 53.5393 25.014C53.5393 25.434 53.5153 25.812 53.4673 26.148H47.8153C47.8393 26.856 48.0133 27.432 48.3373 27.876C48.6613 28.32 49.1533 28.542 49.8133 28.542C50.6893 28.542 51.2113 28.158 51.3793 27.39H53.5213C53.3773 28.266 52.9753 28.956 52.3153 29.46C51.6313 29.988 50.7973 30.252 49.8133 30.252C48.6613 30.252 47.6953 29.832 46.9153 28.992C46.1113 28.116 45.7093 26.994 45.7093 25.626C45.7093 24.222 46.1113 23.094 46.9153 22.242C47.6833 21.426 48.6493 21.018 49.8133 21.018C51.0253 21.018 51.9673 21.444 52.6393 22.296ZM49.8313 22.71C49.2313 22.71 48.7633 22.908 48.4273 23.304C48.0913 23.688 47.8933 24.186 47.8333 24.798H51.5593C51.5593 23.85 51.2593 23.214 50.6593 22.89C50.4313 22.77 50.1553 22.71 49.8313 22.71ZM58.2062 22.98C58.7342 21.72 59.5262 21.09 60.5822 21.09C60.7862 21.09 61.0442 21.132 61.3562 21.216L61.3202 23.34C60.9842 23.268 60.6542 23.232 60.3302 23.232C58.9142 23.232 58.2062 24.21 58.2062 26.166V30H56.0822V21.234H58.2062V22.98ZM69.2572 18.318L71.8312 22.98L74.5312 18.318H77.0332L72.8752 25.176V30H70.7512V25.176L66.7372 18.318H69.2572ZM80.9655 21.018C81.5535 21.018 82.1055 21.114 82.6215 21.306C83.1375 21.486 83.5815 21.768 83.9535 22.152C84.7815 22.992 85.1955 24.156 85.1955 25.644C85.1955 27.108 84.7815 28.26 83.9535 29.1C83.2095 29.868 82.2135 30.252 80.9655 30.252C79.7175 30.252 78.7095 29.868 77.9415 29.1C77.1135 28.272 76.6995 27.12 76.6995 25.644C76.6995 24.144 77.1135 22.98 77.9415 22.152C78.6975 21.396 79.7055 21.018 80.9655 21.018ZM83.0715 25.626C83.0715 24.702 82.8915 24.012 82.5315 23.556C82.1715 23.088 81.6675 22.854 81.0195 22.854C80.3835 22.854 79.8615 23.088 79.4535 23.556C79.0455 24.012 78.8415 24.702 78.8415 25.626C78.8415 26.55 79.0215 27.246 79.3815 27.714C79.7535 28.17 80.2575 28.398 80.8935 28.398C81.5295 28.398 82.0515 28.17 82.4595 27.714C82.8675 27.246 83.0715 26.55 83.0715 25.626ZM93.5368 28.416C92.9848 29.58 92.0968 30.162 90.8728 30.162C89.3248 30.162 88.3048 29.556 87.8128 28.344C87.6328 27.924 87.5428 27.414 87.5428 26.814V21.234H89.6668V26.598C89.6668 27.174 89.8048 27.606 90.0808 27.894C90.3568 28.17 90.6928 28.308 91.0888 28.308C91.4968 28.308 91.8388 28.254 92.1148 28.146C92.3908 28.026 92.6308 27.852 92.8348 27.624C93.2788 27.108 93.5128 26.418 93.5368 25.554V21.234H95.6608V30H93.5368V28.416ZM101.132 22.98C101.66 21.72 102.452 21.09 103.508 21.09C103.712 21.09 103.97 21.132 104.282 21.216L104.246 23.34C103.91 23.268 103.58 23.232 103.256 23.232C101.84 23.232 101.132 24.21 101.132 26.166V30H99.008V21.234H101.132V22.98ZM109.483 18.318H118.843V20.154H115.225V30H113.101V20.154H109.483V18.318ZM120.809 21.234H122.933V30H120.809V21.234ZM120.557 18.426C120.557 18.042 120.671 17.742 120.899 17.526C121.127 17.298 121.451 17.184 121.871 17.184C122.279 17.184 122.597 17.298 122.825 17.526C123.065 17.742 123.185 18.042 123.185 18.426C123.185 18.81 123.065 19.116 122.825 19.344C122.597 19.56 122.279 19.668 121.871 19.668C121.451 19.668 121.127 19.56 120.899 19.344C120.671 19.116 120.557 18.81 120.557 18.426ZM134.311 22.908C134.875 21.648 135.865 21.018 137.281 21.018C138.325 21.018 139.135 21.372 139.711 22.08C140.263 22.752 140.539 23.688 140.539 24.888V30H138.397V24.888C138.397 24.24 138.241 23.754 137.929 23.43C137.617 23.094 137.179 22.926 136.615 22.926C136.051 22.926 135.589 23.172 135.229 23.664C134.869 24.156 134.677 24.9 134.653 25.896V30H132.529V24.888C132.529 24.24 132.373 23.754 132.061 23.43C131.749 23.094 131.311 22.926 130.747 22.926C130.183 22.926 129.697 23.178 129.289 23.682C128.893 24.186 128.683 24.942 128.659 25.95V30H126.535V21.252H128.389L128.623 22.764C129.199 21.6 130.123 21.018 131.395 21.018C132.127 21.018 132.733 21.186 133.213 21.522C133.705 21.858 134.071 22.32 134.311 22.908ZM149.723 22.296C150.023 22.68 150.245 23.124 150.389 23.628C150.545 24.132 150.623 24.594 150.623 25.014C150.623 25.434 150.599 25.812 150.551 26.148H144.899C144.923 26.856 145.097 27.432 145.421 27.876C145.745 28.32 146.237 28.542 146.897 28.542C147.773 28.542 148.295 28.158 148.463 27.39H150.605C150.461 28.266 150.059 28.956 149.399 29.46C148.715 29.988 147.881 30.252 146.897 30.252C145.745 30.252 144.779 29.832 143.999 28.992C143.195 28.116 142.793 26.994 142.793 25.626C142.793 24.222 143.195 23.094 143.999 22.242C144.767 21.426 145.733 21.018 146.897 21.018C148.109 21.018 149.051 21.444 149.723 22.296ZM146.915 22.71C146.315 22.71 145.847 22.908 145.511 23.304C145.175 23.688 144.977 24.186 144.917 24.798H148.643C148.643 23.85 148.343 23.214 147.743 22.89C147.515 22.77 147.239 22.71 146.915 22.71ZM161.157 21.018C161.745 21.018 162.297 21.114 162.813 21.306C163.329 21.486 163.773 21.768 164.145 22.152C164.973 22.992 165.387 24.156 165.387 25.644C165.387 27.108 164.973 28.26 164.145 29.1C163.401 29.868 162.405 30.252 161.157 30.252C159.909 30.252 158.901 29.868 158.133 29.1C157.305 28.272 156.891 27.12 156.891 25.644C156.891 24.144 157.305 22.98 158.133 22.152C158.889 21.396 159.897 21.018 161.157 21.018ZM163.263 25.626C163.263 24.702 163.083 24.012 162.723 23.556C162.363 23.088 161.859 22.854 161.211 22.854C160.575 22.854 160.053 23.088 159.645 23.556C159.237 24.012 159.033 24.702 159.033 25.626C159.033 26.55 159.213 27.246 159.573 27.714C159.945 28.17 160.449 28.398 161.085 28.398C161.721 28.398 162.243 28.17 162.651 27.714C163.059 27.246 163.263 26.55 163.263 25.626ZM166.96 21.252H168.256V20.226C168.256 19.326 168.52 18.636 169.048 18.156C169.528 17.724 170.152 17.508 170.92 17.508C171.412 17.508 172.018 17.58 172.738 17.724L172.324 19.362C171.988 19.242 171.682 19.182 171.406 19.182C171.142 19.182 170.908 19.26 170.704 19.416C170.5 19.56 170.398 19.836 170.398 20.244V21.252H172V22.674H170.398V30H168.256V22.674H166.96V21.252ZM179.059 18.318H183.775C185.071 18.318 186.073 18.624 186.781 19.236C187.453 19.8 187.789 20.526 187.789 21.414C187.789 22.074 187.603 22.638 187.231 23.106C186.871 23.574 186.361 23.904 185.701 24.096C186.361 24.228 186.907 24.528 187.339 24.996C187.771 25.452 187.987 26.04 187.987 26.76C187.987 28.2 187.273 29.184 185.845 29.712C185.305 29.904 184.621 30 183.793 30H179.059V18.318ZM183.739 28.146C184.423 28.146 184.915 28.008 185.215 27.732C185.527 27.456 185.683 27.09 185.683 26.634C185.683 26.178 185.521 25.812 185.197 25.536C184.885 25.248 184.399 25.104 183.739 25.104H181.183V28.146H183.739ZM181.183 23.25H183.685C184.321 23.25 184.801 23.112 185.125 22.836C185.449 22.56 185.611 22.188 185.611 21.72C185.611 21.24 185.449 20.862 185.125 20.586C184.813 20.298 184.339 20.154 183.703 20.154H181.183V23.25ZM190.911 21.234H193.035V30H190.911V21.234ZM190.659 18.426C190.659 18.042 190.773 17.742 191.001 17.526C191.229 17.298 191.553 17.184 191.973 17.184C192.381 17.184 192.699 17.298 192.927 17.526C193.167 17.742 193.287 18.042 193.287 18.426C193.287 18.81 193.167 19.116 192.927 19.344C192.699 19.56 192.381 19.668 191.973 19.668C191.553 19.668 191.229 19.56 191.001 19.344C190.773 19.116 190.659 18.81 190.659 18.426ZM198.761 22.98C199.289 21.72 200.081 21.09 201.137 21.09C201.341 21.09 201.599 21.132 201.911 21.216L201.875 23.34C201.539 23.268 201.209 23.232 200.885 23.232C199.469 23.232 198.761 24.21 198.761 26.166V30H196.637V21.234H198.761V22.98ZM209.057 29.784C208.265 30.096 207.641 30.252 207.185 30.252C206.729 30.252 206.327 30.198 205.979 30.09C205.643 29.982 205.343 29.82 205.079 29.604C204.527 29.112 204.251 28.434 204.251 27.57V22.674H203.027V21.252H204.251V18.948H206.375V21.252H208.751V22.674H206.375V27.498C206.375 28.218 206.717 28.578 207.401 28.578C207.749 28.578 208.199 28.482 208.751 28.29L209.057 29.784ZM213.351 22.674C213.951 21.57 214.827 21.018 215.979 21.018C217.131 21.018 217.977 21.372 218.517 22.08C219.069 22.788 219.345 23.724 219.345 24.888V30H217.221V24.888C217.221 24.24 217.065 23.754 216.753 23.43C216.441 23.094 216.003 22.926 215.439 22.926C214.875 22.926 214.389 23.178 213.981 23.682C213.585 24.186 213.375 24.942 213.351 25.95V30H211.227V17.652H213.351V22.674Z" fill="#181827"/>
</svg>
