<svg width="374" height="44" viewBox="0 0 374 44" fill="none" xmlns="http://www.w3.org/2000/svg">
<rect width="374" height="44" rx="3" fill="white"/>
<path d="M16.288 28.514V26.39C17.212 26.918 18.106 27.182 18.97 27.182C19.486 27.182 19.858 27.032 20.086 26.732C20.326 26.432 20.446 25.976 20.446 25.364V17.318H22.588V25.364C22.588 26.708 22.264 27.71 21.616 28.37C21.04 28.958 20.248 29.252 19.24 29.252C18.232 29.252 17.248 29.006 16.288 28.514ZM28.552 23.888C29.248 23.888 30.052 24.002 30.964 24.23V23.366C30.964 22.754 30.838 22.304 30.586 22.016C30.346 21.716 29.944 21.566 29.38 21.566C28.828 21.566 28.402 21.68 28.102 21.908C27.802 22.124 27.652 22.436 27.652 22.844H25.33C25.33 21.848 25.678 21.128 26.374 20.684C27.082 20.24 28.066 20.018 29.326 20.018C31.126 20.018 32.29 20.648 32.818 21.908C32.998 22.34 33.088 22.85 33.088 23.438V29H31.234L31.072 27.83C30.508 28.778 29.644 29.252 28.48 29.252C27.352 29.252 26.476 28.976 25.852 28.424C25.276 27.896 24.988 27.23 24.988 26.426C24.988 25.61 25.306 24.986 25.942 24.554C26.578 24.11 27.448 23.888 28.552 23.888ZM30.964 25.58C30.256 25.388 29.596 25.292 28.984 25.292C27.832 25.292 27.256 25.676 27.256 26.444C27.256 26.768 27.388 27.05 27.652 27.29C27.916 27.518 28.336 27.632 28.912 27.632C29.5 27.632 29.98 27.44 30.352 27.056C30.736 26.66 30.94 26.168 30.964 25.58ZM38.2718 21.764C38.8478 20.6 39.7718 20.018 41.0438 20.018C42.1238 20.018 42.9338 20.372 43.4738 21.08C44.0258 21.788 44.3018 22.724 44.3018 23.888V29H42.1778V23.888C42.1778 23.24 42.0218 22.754 41.7098 22.43C41.3978 22.094 40.9598 21.926 40.3958 21.926C39.8318 21.926 39.3458 22.178 38.9378 22.682C38.5418 23.186 38.3318 23.942 38.3078 24.95V29H36.1838V20.252H38.0378L38.2718 21.764ZM53.2126 27.416C52.6606 28.58 51.7726 29.162 50.5486 29.162C49.0006 29.162 47.9806 28.556 47.4886 27.344C47.3086 26.924 47.2186 26.414 47.2186 25.814V20.234H49.3426V25.598C49.3426 26.174 49.4806 26.606 49.7566 26.894C50.0326 27.17 50.3686 27.308 50.7646 27.308C51.1726 27.308 51.5146 27.254 51.7906 27.146C52.0666 27.026 52.3066 26.852 52.5106 26.624C52.9546 26.108 53.1886 25.418 53.2126 24.554V20.234H55.3366V29H53.2126V27.416ZM61.5638 23.888C62.2598 23.888 63.0638 24.002 63.9758 24.23V23.366C63.9758 22.754 63.8498 22.304 63.5978 22.016C63.3578 21.716 62.9558 21.566 62.3918 21.566C61.8398 21.566 61.4138 21.68 61.1138 21.908C60.8138 22.124 60.6638 22.436 60.6638 22.844H58.3418C58.3418 21.848 58.6898 21.128 59.3858 20.684C60.0938 20.24 61.0778 20.018 62.3378 20.018C64.1378 20.018 65.3018 20.648 65.8298 21.908C66.0098 22.34 66.0998 22.85 66.0998 23.438V29H64.2458L64.0838 27.83C63.5198 28.778 62.6558 29.252 61.4918 29.252C60.3638 29.252 59.4878 28.976 58.8638 28.424C58.2878 27.896 57.9998 27.23 57.9998 26.426C57.9998 25.61 58.3178 24.986 58.9538 24.554C59.5898 24.11 60.4598 23.888 61.5638 23.888ZM63.9758 25.58C63.2678 25.388 62.6078 25.292 61.9958 25.292C60.8438 25.292 60.2678 25.676 60.2678 26.444C60.2678 26.768 60.3998 27.05 60.6638 27.29C60.9278 27.518 61.3478 27.632 61.9238 27.632C62.5118 27.632 62.9918 27.44 63.3638 27.056C63.7478 26.66 63.9518 26.168 63.9758 25.58ZM71.3195 21.98C71.8475 20.72 72.6395 20.09 73.6955 20.09C73.8995 20.09 74.1575 20.132 74.4695 20.216L74.4335 22.34C74.0975 22.268 73.7675 22.232 73.4435 22.232C72.0275 22.232 71.3195 23.21 71.3195 25.166V29H69.1955V20.234H71.3195V21.98ZM77.7638 20.252L79.8698 26.552L81.7058 20.252H83.8658L80.5178 30.584C80.1698 31.628 79.7438 32.378 79.2398 32.834C78.7478 33.29 78.1178 33.518 77.3498 33.518C76.5698 33.518 75.7898 33.326 75.0098 32.942V31.07C75.6338 31.466 76.2638 31.664 76.8998 31.664C77.3198 31.664 77.6618 31.496 77.9258 31.16C78.2018 30.824 78.4238 30.386 78.5918 29.846L78.8618 29L75.3518 20.252H77.7638ZM89.3888 18.2C90.2888 18.068 91.0808 17.75 91.7648 17.246H93.3668V29H91.2428V19.784C90.6308 20.084 90.0128 20.234 89.3888 20.234V18.2ZM97.1544 29.09C96.8184 29.03 96.5304 28.898 96.2904 28.694C96.0624 28.478 95.9484 28.196 95.9484 27.848C95.9484 27.488 96.0864 27.182 96.3624 26.93C96.6384 26.678 97.0164 26.552 97.4964 26.552C97.9764 26.552 98.3664 26.738 98.6664 27.11C98.9664 27.482 99.1164 27.938 99.1164 28.478C99.1164 29.354 98.7204 30.152 97.9284 30.872C97.6764 31.1 97.3944 31.292 97.0824 31.448L95.4984 30.656C95.8944 30.452 96.2424 30.224 96.5424 29.972C96.8544 29.72 97.0584 29.426 97.1544 29.09ZM104.928 18.2C105.828 18.068 106.62 17.75 107.304 17.246H108.906V29H106.782V19.784C106.17 20.084 105.552 20.234 104.928 20.234V18.2ZM115.879 27.29C117.703 27.29 118.615 25.79 118.615 22.79C118.615 22.466 118.591 22.112 118.543 21.728C118.387 22.664 117.997 23.372 117.373 23.852C116.821 24.272 116.119 24.482 115.267 24.482C114.175 24.482 113.281 24.14 112.585 23.456C111.901 22.76 111.559 21.872 111.559 20.792C111.559 19.688 111.949 18.794 112.729 18.11C113.509 17.426 114.523 17.084 115.771 17.084C117.187 17.084 118.369 17.624 119.317 18.704C120.277 19.808 120.757 21.23 120.757 22.97C120.757 25.982 119.857 27.932 118.057 28.82C117.457 29.108 116.803 29.252 116.095 29.252C115.399 29.252 114.787 29.162 114.259 28.982C113.743 28.802 113.293 28.55 112.909 28.226C112.093 27.542 111.685 26.648 111.685 25.544H113.899C113.923 26.084 114.115 26.51 114.475 26.822C114.847 27.134 115.315 27.29 115.879 27.29ZM115.789 19.028C115.213 19.028 114.727 19.196 114.331 19.532C113.947 19.856 113.755 20.312 113.755 20.9C113.755 21.476 113.947 21.926 114.331 22.25C114.727 22.574 115.213 22.736 115.789 22.736C116.353 22.736 116.833 22.568 117.229 22.232C117.625 21.872 117.823 21.422 117.823 20.882C117.823 20.33 117.625 19.88 117.229 19.532C116.845 19.196 116.365 19.028 115.789 19.028ZM127.262 17.084C128.63 17.084 129.752 17.402 130.628 18.038C131.504 18.662 131.942 19.46 131.942 20.432C131.942 21.02 131.738 21.548 131.33 22.016C130.934 22.472 130.358 22.766 129.602 22.898C130.598 23.294 131.288 23.696 131.672 24.104C132.128 24.584 132.356 25.184 132.356 25.904C132.356 26.9 131.924 27.704 131.06 28.316C130.16 28.94 128.942 29.252 127.406 29.252C125.93 29.252 124.736 28.928 123.824 28.28C122.924 27.656 122.474 26.846 122.474 25.85C122.474 25.118 122.726 24.53 123.23 24.086C123.746 23.63 124.4 23.354 125.192 23.258C124.148 22.754 123.44 22.1 123.068 21.296C122.936 20.996 122.87 20.654 122.87 20.27C122.87 19.286 123.26 18.512 124.04 17.948C124.832 17.372 125.906 17.084 127.262 17.084ZM127.046 23.996C125.954 24.068 125.216 24.416 124.832 25.04C124.724 25.22 124.67 25.43 124.67 25.67C124.67 25.91 124.742 26.132 124.886 26.336C125.03 26.54 125.228 26.714 125.48 26.858C125.96 27.146 126.632 27.29 127.496 27.29C128.372 27.29 129.032 27.176 129.476 26.948C129.932 26.708 130.16 26.42 130.16 26.084C130.16 25.736 130.046 25.46 129.818 25.256C129.602 25.04 129.302 24.854 128.918 24.698L127.046 23.996ZM126.254 21.602L127.604 22.124C128.18 22.124 128.684 21.98 129.116 21.692C129.536 21.404 129.746 21.026 129.746 20.558C129.746 20.09 129.53 19.718 129.098 19.442C128.666 19.154 128.102 19.01 127.406 19.01C126.734 19.01 126.176 19.136 125.732 19.388C125.288 19.64 125.066 19.994 125.066 20.45C125.066 20.894 125.462 21.278 126.254 21.602ZM138.934 17.084C139.654 17.084 140.308 17.21 140.896 17.462C141.496 17.702 142.006 18.074 142.426 18.578C143.338 19.646 143.794 21.176 143.794 23.168C143.794 25.16 143.338 26.69 142.426 27.758C141.586 28.754 140.428 29.252 138.952 29.252C137.464 29.252 136.294 28.754 135.442 27.758C134.542 26.714 134.092 25.184 134.092 23.168C134.092 21.152 134.542 19.622 135.442 18.578C136.294 17.582 137.458 17.084 138.934 17.084ZM141.598 23.168C141.598 21.824 141.364 20.798 140.896 20.09C140.44 19.37 139.786 19.01 138.934 19.01C138.094 19.01 137.44 19.37 136.972 20.09C136.516 20.798 136.288 21.824 136.288 23.168C136.288 24.512 136.516 25.538 136.972 26.246C137.44 26.942 138.094 27.29 138.934 27.29C139.786 27.29 140.44 26.942 140.896 26.246C141.364 25.538 141.598 24.512 141.598 23.168Z" fill="#181827"/>
</svg>
