<svg width="73" height="17" viewBox="0 0 73 17" fill="none" xmlns="http://www.w3.org/2000/svg">
<path d="M0.046 1.722H9.044V3.966H2.642V7.728H8.494V9.95H2.642V16H0.046V1.722ZM18.8263 6.584C19.1929 7.05333 19.4643 7.596 19.6403 8.212C19.8309 8.828 19.9263 9.39267 19.9263 9.906C19.9263 10.4193 19.8969 10.8813 19.8383 11.292H12.9303C12.9596 12.1573 13.1723 12.8613 13.5683 13.404C13.9643 13.9467 14.5656 14.218 15.3723 14.218C16.4429 14.218 17.0809 13.7487 17.2863 12.81H19.9043C19.7283 13.8807 19.2369 14.724 18.4303 15.34C17.5943 15.9853 16.5749 16.308 15.3723 16.308C13.9643 16.308 12.7836 15.7947 11.8303 14.768C10.8476 13.6973 10.3563 12.326 10.3563 10.654C10.3563 8.938 10.8476 7.55933 11.8303 6.518C12.7689 5.52067 13.9496 5.022 15.3723 5.022C16.8536 5.022 18.0049 5.54267 18.8263 6.584ZM15.3943 7.09C14.6609 7.09 14.0889 7.332 13.6783 7.816C13.2676 8.28533 13.0256 8.894 12.9523 9.642H17.5063C17.5063 8.48333 17.1396 7.706 16.4063 7.31C16.1276 7.16333 15.7903 7.09 15.3943 7.09ZM32.5383 7.332C33.2276 5.792 34.4376 5.022 36.1683 5.022C37.4443 5.022 38.4343 5.45467 39.1383 6.32C39.8129 7.14133 40.1503 8.28533 40.1503 9.752V16H37.5323V9.752C37.5323 8.96 37.3416 8.366 36.9603 7.97C36.5789 7.55933 36.0436 7.354 35.3543 7.354C34.6649 7.354 34.1003 7.65467 33.6603 8.256C33.2203 8.85733 32.9856 9.76667 32.9563 10.984V16H30.3603V9.752C30.3603 8.96 30.1696 8.366 29.7883 7.97C29.4069 7.55933 28.8716 7.354 28.1823 7.354C27.4929 7.354 26.8989 7.662 26.4003 8.278C25.9163 8.894 25.6596 9.818 25.6303 11.05V16H23.0343V5.308H25.3003L25.5863 7.156C26.2903 5.73333 27.4196 5.022 28.9743 5.022C29.8689 5.022 30.6096 5.22733 31.1963 5.638C31.7976 6.04867 32.2449 6.61333 32.5383 7.332ZM47.4371 9.752C48.2878 9.752 49.2704 9.89133 50.3851 10.17V9.114C50.3851 8.366 50.2311 7.816 49.9231 7.464C49.6298 7.09733 49.1384 6.914 48.4491 6.914C47.7744 6.914 47.2538 7.05333 46.8871 7.332C46.5204 7.596 46.3371 7.97733 46.3371 8.476H43.4991C43.4991 7.25867 43.9244 6.37867 44.7751 5.836C45.6404 5.29333 46.8431 5.022 48.3831 5.022C50.5831 5.022 52.0058 5.792 52.6511 7.332C52.8711 7.86 52.9811 8.48333 52.9811 9.202V16H50.7151L50.5171 14.57C49.8278 15.7287 48.7718 16.308 47.3491 16.308C45.9704 16.308 44.8998 15.9707 44.1371 15.296C43.4331 14.6507 43.0811 13.8367 43.0811 12.854C43.0811 11.8567 43.4698 11.094 44.2471 10.566C45.0244 10.0233 46.0878 9.752 47.4371 9.752ZM50.3851 11.82C49.5198 11.5853 48.7131 11.468 47.9651 11.468C46.5571 11.468 45.8531 11.9373 45.8531 12.876C45.8531 13.272 46.0144 13.6167 46.3371 13.91C46.6598 14.1887 47.1731 14.328 47.8771 14.328C48.5958 14.328 49.1824 14.0933 49.6371 13.624C50.1064 13.14 50.3558 12.5387 50.3851 11.82ZM56.7648 0.907999H59.3608V16H56.7648V0.907999ZM70.9044 6.584C71.2711 7.05333 71.5424 7.596 71.7184 8.212C71.9091 8.828 72.0044 9.39267 72.0044 9.906C72.0044 10.4193 71.9751 10.8813 71.9164 11.292H65.0084C65.0377 12.1573 65.2504 12.8613 65.6464 13.404C66.0424 13.9467 66.6437 14.218 67.4504 14.218C68.5211 14.218 69.1591 13.7487 69.3644 12.81H71.9824C71.8064 13.8807 71.3151 14.724 70.5084 15.34C69.6724 15.9853 68.6531 16.308 67.4504 16.308C66.0424 16.308 64.8617 15.7947 63.9084 14.768C62.9257 13.6973 62.4344 12.326 62.4344 10.654C62.4344 8.938 62.9257 7.55933 63.9084 6.518C64.8471 5.52067 66.0277 5.022 67.4504 5.022C68.9317 5.022 70.0831 5.54267 70.9044 6.584ZM67.4724 7.09C66.7391 7.09 66.1671 7.332 65.7564 7.816C65.3457 8.28533 65.1037 8.894 65.0304 9.642H69.5844C69.5844 8.48333 69.2177 7.706 68.4844 7.31C68.2057 7.16333 67.8684 7.09 67.4724 7.09Z" fill="#181827"/>
</svg>
