<svg width="106" height="106" viewBox="0 0 106 106" fill="none" xmlns="http://www.w3.org/2000/svg">
<circle cx="53" cy="53" r="53" fill="white"/>
<path d="M17.046 47.722H26.044V49.966H19.642V53.728H25.494V55.95H19.642V62H17.046V47.722ZM35.8263 52.584C36.1929 53.0533 36.4643 53.596 36.6403 54.212C36.8309 54.828 36.9263 55.3927 36.9263 55.906C36.9263 56.4193 36.8969 56.8813 36.8383 57.292H29.9303C29.9596 58.1573 30.1723 58.8613 30.5683 59.404C30.9643 59.9467 31.5656 60.218 32.3723 60.218C33.4429 60.218 34.0809 59.7487 34.2863 58.81H36.9043C36.7283 59.8807 36.2369 60.724 35.4303 61.34C34.5943 61.9853 33.5749 62.308 32.3723 62.308C30.9643 62.308 29.7836 61.7947 28.8303 60.768C27.8476 59.6973 27.3563 58.326 27.3563 56.654C27.3563 54.938 27.8476 53.5593 28.8303 52.518C29.7689 51.5207 30.9496 51.022 32.3723 51.022C33.8536 51.022 35.0049 51.5427 35.8263 52.584ZM32.3943 53.09C31.6609 53.09 31.0889 53.332 30.6783 53.816C30.2676 54.2853 30.0256 54.894 29.9523 55.642H34.5063C34.5063 54.4833 34.1396 53.706 33.4063 53.31C33.1276 53.1633 32.7903 53.09 32.3943 53.09ZM49.5383 53.332C50.2276 51.792 51.4376 51.022 53.1683 51.022C54.4443 51.022 55.4343 51.4547 56.1383 52.32C56.8129 53.1413 57.1503 54.2853 57.1503 55.752V62H54.5323V55.752C54.5323 54.96 54.3416 54.366 53.9603 53.97C53.5789 53.5593 53.0436 53.354 52.3543 53.354C51.6649 53.354 51.1003 53.6547 50.6603 54.256C50.2203 54.8573 49.9856 55.7667 49.9563 56.984V62H47.3603V55.752C47.3603 54.96 47.1696 54.366 46.7883 53.97C46.4069 53.5593 45.8716 53.354 45.1823 53.354C44.4929 53.354 43.8989 53.662 43.4003 54.278C42.9163 54.894 42.6596 55.818 42.6303 57.05V62H40.0343V51.308H42.3003L42.5863 53.156C43.2903 51.7333 44.4196 51.022 45.9743 51.022C46.8689 51.022 47.6096 51.2273 48.1963 51.638C48.7976 52.0487 49.2449 52.6133 49.5383 53.332ZM64.4371 55.752C65.2878 55.752 66.2704 55.8913 67.3851 56.17V55.114C67.3851 54.366 67.2311 53.816 66.9231 53.464C66.6298 53.0973 66.1384 52.914 65.4491 52.914C64.7744 52.914 64.2538 53.0533 63.8871 53.332C63.5204 53.596 63.3371 53.9773 63.3371 54.476H60.4991C60.4991 53.2587 60.9244 52.3787 61.7751 51.836C62.6404 51.2933 63.8431 51.022 65.3831 51.022C67.5831 51.022 69.0058 51.792 69.6511 53.332C69.8711 53.86 69.9811 54.4833 69.9811 55.202V62H67.7151L67.5171 60.57C66.8278 61.7287 65.7718 62.308 64.3491 62.308C62.9704 62.308 61.8998 61.9707 61.1371 61.296C60.4331 60.6507 60.0811 59.8367 60.0811 58.854C60.0811 57.8567 60.4698 57.094 61.2471 56.566C62.0244 56.0233 63.0878 55.752 64.4371 55.752ZM67.3851 57.82C66.5198 57.5853 65.7131 57.468 64.9651 57.468C63.5571 57.468 62.8531 57.9373 62.8531 58.876C62.8531 59.272 63.0144 59.6167 63.3371 59.91C63.6598 60.1887 64.1731 60.328 64.8771 60.328C65.5958 60.328 66.1824 60.0933 66.6371 59.624C67.1064 59.14 67.3558 58.5387 67.3851 57.82ZM73.7648 46.908H76.3608V62H73.7648V46.908ZM87.9044 52.584C88.2711 53.0533 88.5424 53.596 88.7184 54.212C88.9091 54.828 89.0044 55.3927 89.0044 55.906C89.0044 56.4193 88.9751 56.8813 88.9164 57.292H82.0084C82.0377 58.1573 82.2504 58.8613 82.6464 59.404C83.0424 59.9467 83.6437 60.218 84.4504 60.218C85.5211 60.218 86.1591 59.7487 86.3644 58.81H88.9824C88.8064 59.8807 88.3151 60.724 87.5084 61.34C86.6724 61.9853 85.6531 62.308 84.4504 62.308C83.0424 62.308 81.8617 61.7947 80.9084 60.768C79.9257 59.6973 79.4344 58.326 79.4344 56.654C79.4344 54.938 79.9257 53.5593 80.9084 52.518C81.8471 51.5207 83.0277 51.022 84.4504 51.022C85.9317 51.022 87.0831 51.5427 87.9044 52.584ZM84.4724 53.09C83.7391 53.09 83.1671 53.332 82.7564 53.816C82.3457 54.2853 82.1037 54.894 82.0304 55.642H86.5844C86.5844 54.4833 86.2177 53.706 85.4844 53.31C85.2057 53.1633 84.8684 53.09 84.4724 53.09Z" fill="#181827"/>
</svg>
