<svg width="178" height="39" viewBox="0 0 178 39" fill="none" xmlns="http://www.w3.org/2000/svg">
<path d="M9.82 12.94C9.26 14.5 8.18667 15.28 6.6 15.28C4.97333 15.28 3.63333 14.6667 2.58 13.44C1.48667 12.1733 0.94 10.5533 0.94 8.58C0.94 6.5 1.52667 4.83333 2.7 3.58C3.83333 2.36667 5.29333 1.76 7.08 1.76C8.29333 1.76 9.30667 2.02667 10.12 2.56C10.9467 3.08 11.5933 3.90667 12.06 5.04L9.64 5.6C8.93333 4.46667 8.04 3.9 6.96 3.9C5.97333 3.9 5.15333 4.32 4.5 5.16C3.82 6.01333 3.48 7.15333 3.48 8.58C3.48 9.92667 3.78667 11.02 4.4 11.86C5 12.6867 5.8 13.1 6.8 13.1C7.65333 13.1 8.35333 12.8267 8.9 12.28C9.46 11.72 9.74 10.9533 9.74 9.98V9.9L6.82 9.84V8.32H12V15H10.08L9.82 12.94ZM19.2152 5.02C19.8685 5.02 20.4818 5.12667 21.0552 5.34C21.6285 5.54 22.1218 5.85333 22.5352 6.28C23.4552 7.21333 23.9152 8.50667 23.9152 10.16C23.9152 11.7867 23.4552 13.0667 22.5352 14C21.7085 14.8533 20.6018 15.28 19.2152 15.28C17.8285 15.28 16.7085 14.8533 15.8552 14C14.9352 13.08 14.4752 11.8 14.4752 10.16C14.4752 8.49333 14.9352 7.2 15.8552 6.28C16.6952 5.44 17.8152 5.02 19.2152 5.02ZM21.5552 10.14C21.5552 9.11333 21.3552 8.34667 20.9552 7.84C20.5552 7.32 19.9952 7.06 19.2752 7.06C18.5685 7.06 17.9885 7.32 17.5352 7.84C17.0818 8.34667 16.8552 9.11333 16.8552 10.14C16.8552 11.1667 17.0552 11.94 17.4552 12.46C17.8685 12.9667 18.4285 13.22 19.1352 13.22C19.8418 13.22 20.4218 12.9667 20.8752 12.46C21.3285 11.94 21.5552 11.1667 21.5552 10.14ZM32.2033 14.76C31.3233 15.1067 30.6299 15.28 30.1233 15.28C29.6166 15.28 29.1699 15.22 28.7833 15.1C28.4099 14.98 28.0766 14.8 27.7833 14.56C27.1699 14.0133 26.8633 13.26 26.8633 12.3V6.86H25.5033V5.28H26.8633V2.72H29.2233V5.28H31.8633V6.86H29.2233V12.22C29.2233 13.02 29.6033 13.42 30.3633 13.42C30.7499 13.42 31.2499 13.3133 31.8633 13.1L32.2033 14.76ZM39.8725 5.26H42.2325V15H39.8725V5.26ZM39.5925 2.14C39.5925 1.71333 39.7192 1.38 39.9725 1.14C40.2258 0.886666 40.5858 0.76 41.0525 0.76C41.5058 0.76 41.8592 0.886666 42.1125 1.14C42.3792 1.38 42.5125 1.71333 42.5125 2.14C42.5125 2.56667 42.3792 2.90667 42.1125 3.16C41.8592 3.4 41.5058 3.52 41.0525 3.52C40.5858 3.52 40.2258 3.4 39.9725 3.16C39.7192 2.90667 39.5925 2.56667 39.5925 2.14ZM51.715 14.76C50.835 15.1067 50.1417 15.28 49.635 15.28C49.1283 15.28 48.6817 15.22 48.295 15.1C47.9217 14.98 47.5883 14.8 47.295 14.56C46.6817 14.0133 46.375 13.26 46.375 12.3V6.86H45.015V5.28H46.375V2.72H48.735V5.28H51.375V6.86H48.735V12.22C48.735 13.02 49.115 13.42 49.875 13.42C50.2617 13.42 50.7617 13.3133 51.375 13.1L51.715 14.76ZM53.9856 1.72H56.5456L56.2656 10.62H54.2456L53.9856 1.72ZM55.2656 15.18C54.7856 15.18 54.3923 15.0333 54.0856 14.74C53.779 14.4467 53.6256 14.0733 53.6256 13.62C53.6256 13.1667 53.779 12.7867 54.0856 12.48C54.3923 12.1733 54.7856 12.02 55.2656 12.02C55.7456 12.02 56.1456 12.1733 56.4656 12.48C56.7856 12.7867 56.9456 13.1667 56.9456 13.62C56.9456 14.0733 56.7856 14.4467 56.4656 14.74C56.1456 15.0333 55.7456 15.18 55.2656 15.18Z" fill="#7075A5"/>
<path d="M66.2236 2.02L69.0836 11.88L71.8636 2.88H73.4636L76.4036 11.92L79.4436 2.02H82.1036L77.6436 15H75.1636L72.7236 7.68L70.3036 15H67.8236L63.5836 2.02H66.2236ZM86.72 6.86C87.3867 5.63333 88.36 5.02 89.64 5.02C90.92 5.02 91.86 5.41333 92.46 6.2C93.0733 6.98667 93.38 8.02667 93.38 9.32V15H91.02V9.32C91.02 8.6 90.8467 8.06 90.5 7.7C90.1533 7.32667 89.6667 7.14 89.04 7.14C88.4133 7.14 87.8733 7.42 87.42 7.98C86.98 8.54 86.7467 9.38 86.72 10.5V15H84.36V1.28H86.72V6.86ZM100.021 9.32C100.794 9.32 101.688 9.44667 102.701 9.7V8.74C102.701 8.06 102.561 7.56 102.281 7.24C102.014 6.90667 101.568 6.74 100.941 6.74C100.328 6.74 99.8543 6.86667 99.5209 7.12C99.1876 7.36 99.0209 7.70667 99.0209 8.16H96.4409C96.4409 7.05333 96.8276 6.25333 97.6009 5.76C98.3876 5.26667 99.4809 5.02 100.881 5.02C102.881 5.02 104.174 5.72 104.761 7.12C104.961 7.6 105.061 8.16667 105.061 8.82V15H103.001L102.821 13.7C102.194 14.7533 101.234 15.28 99.9409 15.28C98.6876 15.28 97.7143 14.9733 97.0209 14.36C96.3809 13.7733 96.0609 13.0333 96.0609 12.14C96.0609 11.2333 96.4143 10.54 97.1209 10.06C97.8276 9.56667 98.7943 9.32 100.021 9.32ZM102.701 11.2C101.914 10.9867 101.181 10.88 100.501 10.88C99.2209 10.88 98.5809 11.3067 98.5809 12.16C98.5809 12.52 98.7276 12.8333 99.0209 13.1C99.3143 13.3533 99.7809 13.48 100.421 13.48C101.074 13.48 101.608 13.2667 102.021 12.84C102.448 12.4 102.674 11.8533 102.701 11.2ZM113.981 14.76C113.101 15.1067 112.407 15.28 111.901 15.28C111.394 15.28 110.947 15.22 110.561 15.1C110.187 14.98 109.854 14.8 109.561 14.56C108.947 14.0133 108.641 13.26 108.641 12.3V6.86H107.281V5.28H108.641V2.72H111.001V5.28H113.641V6.86H111.001V12.22C111.001 13.02 111.381 13.42 112.141 13.42C112.527 13.42 113.027 13.3133 113.641 13.1L113.981 14.76ZM115.611 3.38C115.611 2.98 115.765 2.64667 116.071 2.38C116.378 2.1 116.791 1.96 117.311 1.96C117.845 1.96 118.278 2.17333 118.611 2.6C118.958 3.01333 119.131 3.53333 119.131 4.16C119.131 4.77333 118.911 5.38 118.471 5.98C118.045 6.58 117.471 7.06 116.751 7.42L115.111 6.52C116.138 6 116.758 5.41333 116.971 4.76C116.585 4.69333 116.258 4.54667 115.991 4.32C115.738 4.09333 115.611 3.78 115.611 3.38ZM123.141 12.04C123.168 12.96 123.841 13.42 125.161 13.42C125.668 13.42 126.081 13.3133 126.401 13.1C126.734 12.8733 126.901 12.6133 126.901 12.32C126.901 12.0267 126.801 11.8 126.601 11.64C126.401 11.48 126.088 11.3333 125.661 11.2L123.541 10.44C121.968 9.89333 121.181 9 121.181 7.76C121.181 6.93333 121.548 6.27333 122.281 5.78C123.028 5.27333 124.021 5.02 125.261 5.02C126.514 5.02 127.474 5.29333 128.141 5.84C128.821 6.38667 129.174 7.07333 129.201 7.9H126.981C126.954 7.58 126.801 7.32667 126.521 7.14C126.241 6.95333 125.841 6.86 125.321 6.86C124.801 6.86 124.394 6.96667 124.101 7.18C123.821 7.38 123.681 7.61333 123.681 7.88C123.681 8.34667 124.074 8.69333 124.861 8.92L127.161 9.78C127.921 10.0333 128.501 10.36 128.901 10.76C129.314 11.1467 129.521 11.6533 129.521 12.28C129.521 13.08 129.141 13.7733 128.381 14.36C127.594 14.9733 126.554 15.28 125.261 15.28C123.968 15.28 122.928 15 122.141 14.44C121.354 13.8667 120.954 13.0667 120.941 12.04H123.141ZM138.626 5.28L140.966 12.28L143.006 5.28H145.406L141.686 16.76C141.3 17.92 140.826 18.7533 140.266 19.26C139.72 19.7667 139.02 20.02 138.166 20.02C137.3 20.02 136.433 19.8067 135.566 19.38V17.3C136.26 17.74 136.96 17.96 137.666 17.96C138.133 17.96 138.513 17.7733 138.806 17.4C139.113 17.0267 139.36 16.54 139.546 15.94L139.846 15L135.946 5.28H138.626ZM151.325 5.02C151.978 5.02 152.591 5.12667 153.165 5.34C153.738 5.54 154.231 5.85333 154.645 6.28C155.565 7.21333 156.025 8.50667 156.025 10.16C156.025 11.7867 155.565 13.0667 154.645 14C153.818 14.8533 152.711 15.28 151.325 15.28C149.938 15.28 148.818 14.8533 147.965 14C147.045 13.08 146.585 11.8 146.585 10.16C146.585 8.49333 147.045 7.2 147.965 6.28C148.805 5.44 149.925 5.02 151.325 5.02ZM153.665 10.14C153.665 9.11333 153.465 8.34667 153.065 7.84C152.665 7.32 152.105 7.06 151.385 7.06C150.678 7.06 150.098 7.32 149.645 7.84C149.191 8.34667 148.965 9.11333 148.965 10.14C148.965 11.1667 149.165 11.94 149.565 12.46C149.978 12.9667 150.538 13.22 151.245 13.22C151.951 13.22 152.531 12.9667 152.985 12.46C153.438 11.94 153.665 11.1667 153.665 10.14ZM165.293 13.24C164.679 14.5333 163.693 15.18 162.333 15.18C160.613 15.18 159.479 14.5067 158.933 13.16C158.733 12.6933 158.633 12.1267 158.633 11.46V5.26H160.993V11.22C160.993 11.86 161.146 12.34 161.453 12.66C161.759 12.9667 162.133 13.12 162.573 13.12C163.026 13.12 163.406 13.06 163.713 12.94C164.019 12.8067 164.286 12.6133 164.513 12.36C165.006 11.7867 165.266 11.02 165.293 10.06V5.26H167.653V15H165.293V13.24ZM173.732 7.2C174.318 5.8 175.198 5.1 176.372 5.1C176.598 5.1 176.885 5.14667 177.232 5.24L177.192 7.6C176.818 7.52 176.452 7.48 176.092 7.48C174.518 7.48 173.732 8.56667 173.732 10.74V15H171.372V5.26H173.732V7.2ZM10.02 29.42C10.8467 30.3533 11.26 31.58 11.26 33.1C11.26 34.62 10.8267 35.8733 9.96 36.86C9.12 37.8067 8.07333 38.28 6.82 38.28C6.22 38.28 5.66667 38.12 5.16 37.8C4.66667 37.48 4.27333 36.9867 3.98 36.32L3.4 38H1.86V24.28H4.22V29.5C4.83333 28.5133 5.74667 28.02 6.96 28.02C8.18667 28.02 9.20667 28.4867 10.02 29.42ZM4.22 32.54V33.82C4.24667 34.5 4.49333 35.06 4.96 35.5C5.4 35.9267 5.93333 36.14 6.56 36.14C7.2 36.14 7.74667 35.8667 8.2 35.32C8.65333 34.76 8.88 34.0267 8.88 33.12C8.88 32.2133 8.65333 31.4933 8.2 30.96C7.76 30.4133 7.20667 30.14 6.54 30.14C5.87333 30.14 5.32 30.36 4.88 30.8C4.44 31.24 4.22 31.82 4.22 32.54ZM14.3452 28.26H16.7052V38H14.3452V28.26ZM14.0652 25.14C14.0652 24.7133 14.1918 24.38 14.4452 24.14C14.6985 23.8867 15.0585 23.76 15.5252 23.76C15.9785 23.76 16.3318 23.8867 16.5852 24.14C16.8518 24.38 16.9852 24.7133 16.9852 25.14C16.9852 25.5667 16.8518 25.9067 16.5852 26.16C16.3318 26.4 15.9785 26.52 15.5252 26.52C15.0585 26.52 14.6985 26.4 14.4452 26.16C14.1918 25.9067 14.0652 25.5667 14.0652 25.14ZM23.0677 30.2C23.6543 28.8 24.5343 28.1 25.7077 28.1C25.9343 28.1 26.221 28.1467 26.5677 28.24L26.5277 30.6C26.1543 30.52 25.7877 30.48 25.4277 30.48C23.8543 30.48 23.0677 31.5667 23.0677 33.74V38H20.7077V28.26H23.0677V30.2ZM34.508 37.76C33.628 38.1067 32.9346 38.28 32.428 38.28C31.9213 38.28 31.4746 38.22 31.088 38.1C30.7146 37.98 30.3813 37.8 30.088 37.56C29.4746 37.0133 29.168 36.26 29.168 35.3V29.86H27.808V28.28H29.168V25.72H31.528V28.28H34.168V29.86H31.528V35.22C31.528 36.02 31.908 36.42 32.668 36.42C33.0546 36.42 33.5546 36.3133 34.168 36.1L34.508 37.76ZM39.2786 29.86C39.9453 28.6333 40.9186 28.02 42.1986 28.02C43.4786 28.02 44.4186 28.4133 45.0186 29.2C45.6319 29.9867 45.9386 31.0267 45.9386 32.32V38H43.5786V32.32C43.5786 31.6 43.4053 31.06 43.0586 30.7C42.7119 30.3267 42.2253 30.14 41.5986 30.14C40.9719 30.14 40.4319 30.42 39.9786 30.98C39.5386 31.54 39.3053 32.38 39.2786 33.5V38H36.9186V24.28H39.2786V29.86ZM55.7195 36.5C55.1195 37.6867 54.1995 38.28 52.9595 38.28C51.7195 38.28 50.6795 37.8067 49.8395 36.86C48.9729 35.8733 48.5395 34.62 48.5395 33.1C48.5395 31.58 48.9529 30.3467 49.7795 29.4C50.5929 28.48 51.6062 28.02 52.8195 28.02C54.0329 28.02 54.9462 28.5067 55.5595 29.48V24.28H57.9395V38H55.9995L55.7195 36.5ZM53.2595 30.14C52.5929 30.14 52.0329 30.4133 51.5795 30.96C51.1395 31.4933 50.9195 32.2133 50.9195 33.12C50.9195 34.0267 51.1462 34.76 51.5995 35.32C52.0529 35.8667 52.6262 36.14 53.3195 36.14C53.8929 36.14 54.4062 35.9133 54.8595 35.46C55.3262 34.9933 55.5595 34.4067 55.5595 33.7V32.44C55.5329 31.7467 55.2995 31.18 54.8595 30.74C54.4595 30.34 53.9262 30.14 53.2595 30.14ZM64.8647 32.32C65.638 32.32 66.5314 32.4467 67.5447 32.7V31.74C67.5447 31.06 67.4047 30.56 67.1247 30.24C66.858 29.9067 66.4114 29.74 65.7847 29.74C65.1714 29.74 64.698 29.8667 64.3647 30.12C64.0314 30.36 63.8647 30.7067 63.8647 31.16H61.2847C61.2847 30.0533 61.6714 29.2533 62.4447 28.76C63.2314 28.2667 64.3247 28.02 65.7247 28.02C67.7247 28.02 69.018 28.72 69.6047 30.12C69.8047 30.6 69.9047 31.1667 69.9047 31.82V38H67.8447L67.6647 36.7C67.038 37.7533 66.078 38.28 64.7847 38.28C63.5314 38.28 62.558 37.9733 61.8647 37.36C61.2247 36.7733 60.9047 36.0333 60.9047 35.14C60.9047 34.2333 61.258 33.54 61.9647 33.06C62.6714 32.5667 63.638 32.32 64.8647 32.32ZM67.5447 34.2C66.758 33.9867 66.0247 33.88 65.3447 33.88C64.0647 33.88 63.4247 34.3067 63.4247 35.16C63.4247 35.52 63.5714 35.8333 63.8647 36.1C64.158 36.3533 64.6247 36.48 65.2647 36.48C65.918 36.48 66.4514 36.2667 66.8647 35.84C67.2914 35.4 67.518 34.8533 67.5447 34.2ZM78.8244 37.76C77.9444 38.1067 77.251 38.28 76.7444 38.28C76.2377 38.28 75.791 38.22 75.4044 38.1C75.031 37.98 74.6977 37.8 74.4044 37.56C73.791 37.0133 73.4844 36.26 73.4844 35.3V29.86H72.1244V28.28H73.4844V25.72H75.8444V28.28H78.4844V29.86H75.8444V35.22C75.8444 36.02 76.2244 36.42 76.9844 36.42C77.371 36.42 77.871 36.3133 78.4844 36.1L78.8244 37.76ZM88.015 29.44C88.3483 29.8667 88.595 30.36 88.755 30.92C88.9283 31.48 89.015 31.9933 89.015 32.46C89.015 32.9267 88.9883 33.3467 88.935 33.72H82.655C82.6817 34.5067 82.875 35.1467 83.235 35.64C83.595 36.1333 84.1417 36.38 84.875 36.38C85.8483 36.38 86.4283 35.9533 86.615 35.1H88.995C88.835 36.0733 88.3883 36.84 87.655 37.4C86.895 37.9867 85.9683 38.28 84.875 38.28C83.595 38.28 82.5217 37.8133 81.655 36.88C80.7617 35.9067 80.315 34.66 80.315 33.14C80.315 31.58 80.7617 30.3267 81.655 29.38C82.5083 28.4733 83.5817 28.02 84.875 28.02C86.2217 28.02 87.2683 28.4933 88.015 29.44ZM84.895 29.9C84.2283 29.9 83.7083 30.12 83.335 30.56C82.9617 30.9867 82.7417 31.54 82.675 32.22H86.815C86.815 31.1667 86.4817 30.46 85.815 30.1C85.5617 29.9667 85.255 29.9 84.895 29.9ZM99.6805 28.38C99.6805 29.0867 99.5071 29.68 99.1605 30.16C98.8138 30.6267 98.2671 31.0467 97.5205 31.42C96.8938 31.74 96.4805 32.0133 96.2805 32.24C96.0938 32.4667 95.9738 32.68 95.9205 32.88C95.8671 33.0667 95.8405 33.2867 95.8405 33.54V34.12H93.4805V33.32C93.4805 32.12 93.8405 31.2667 94.5605 30.76C94.8138 30.5733 95.1871 30.3533 95.6805 30.1C96.1738 29.8467 96.5271 29.5933 96.7405 29.34C96.9671 29.0733 97.0805 28.74 97.0805 28.34C97.0805 27.9267 96.9138 27.5867 96.5805 27.32C96.2471 27.04 95.7538 26.9 95.1005 26.9C94.4471 26.9 93.9338 27.06 93.5605 27.38C93.1871 27.6867 92.9738 28.0933 92.9205 28.6H90.4605C90.5271 27.44 90.9538 26.5133 91.7405 25.82C92.5271 25.1133 93.6271 24.76 95.0405 24.76C96.4671 24.76 97.5938 25.1067 98.4205 25.8C99.2605 26.4933 99.6805 27.3533 99.6805 28.38ZM93.0805 36.7C93.0805 36.2467 93.2271 35.8733 93.5205 35.58C93.8271 35.2867 94.2205 35.14 94.7005 35.14C95.1938 35.14 95.6005 35.2867 95.9205 35.58C96.2405 35.8733 96.4005 36.2467 96.4005 36.7C96.4005 37.1533 96.2405 37.5333 95.9205 37.84C95.6005 38.1333 95.1938 38.28 94.7005 38.28C94.2205 38.28 93.8271 38.1333 93.5205 37.84C93.2271 37.5333 93.0805 37.1533 93.0805 36.7Z" fill="black"/>
</svg>
