<svg width="190" height="67" viewBox="0 0 190 67" fill="none" xmlns="http://www.w3.org/2000/svg">
<path d="M4.22 2.02V7.44H9.88V2.02H12.24V15H9.88V9.5H4.22V15H1.86V2.02H4.22ZM16.1811 5.26H18.5411V15H16.1811V5.26ZM15.9011 2.14C15.9011 1.71333 16.0278 1.38 16.2811 1.14C16.5344 0.886666 16.8944 0.76 17.3611 0.76C17.8144 0.76 18.1678 0.886666 18.4211 1.14C18.6878 1.38 18.8211 1.71333 18.8211 2.14C18.8211 2.56667 18.6878 2.90667 18.4211 3.16C18.1678 3.4 17.8144 3.52 17.3611 3.52C16.8944 3.52 16.5344 3.4 16.2811 3.16C16.0278 2.90667 15.9011 2.56667 15.9011 2.14ZM22.4036 1.72H24.9636L24.6836 10.62H22.6636L22.4036 1.72ZM23.6836 15.18C23.2036 15.18 22.8103 15.0333 22.5036 14.74C22.1969 14.4467 22.0436 14.0733 22.0436 13.62C22.0436 13.1667 22.1969 12.7867 22.5036 12.48C22.8103 12.1733 23.2036 12.02 23.6836 12.02C24.1636 12.02 24.5636 12.1733 24.8836 12.48C25.2036 12.7867 25.3636 13.1667 25.3636 13.62C25.3636 14.0733 25.2036 14.4467 24.8836 14.74C24.5636 15.0333 24.1636 15.18 23.6836 15.18ZM35.8216 12.94H41.1616V15H33.4616V2.02H35.8216V12.94ZM50.1244 6.44C50.4577 6.86667 50.7044 7.36 50.8644 7.92C51.0377 8.48 51.1244 8.99333 51.1244 9.46C51.1244 9.92667 51.0977 10.3467 51.0444 10.72H44.7644C44.791 11.5067 44.9844 12.1467 45.3444 12.64C45.7044 13.1333 46.251 13.38 46.9844 13.38C47.9577 13.38 48.5377 12.9533 48.7244 12.1H51.1044C50.9444 13.0733 50.4977 13.84 49.7644 14.4C49.0044 14.9867 48.0777 15.28 46.9844 15.28C45.7044 15.28 44.631 14.8133 43.7644 13.88C42.871 12.9067 42.4244 11.66 42.4244 10.14C42.4244 8.58 42.871 7.32667 43.7644 6.38C44.6177 5.47333 45.691 5.02 46.9844 5.02C48.331 5.02 49.3777 5.49333 50.1244 6.44ZM47.0044 6.9C46.3377 6.9 45.8177 7.12 45.4444 7.56C45.071 7.98667 44.851 8.54 44.7844 9.22H48.9244C48.9244 8.16667 48.591 7.46 47.9244 7.1C47.671 6.96667 47.3644 6.9 47.0044 6.9ZM59.4298 14.76C58.5498 15.1067 57.8565 15.28 57.3498 15.28C56.8432 15.28 56.3965 15.22 56.0098 15.1C55.6365 14.98 55.3032 14.8 55.0098 14.56C54.3965 14.0133 54.0898 13.26 54.0898 12.3V6.86H52.7298V5.28H54.0898V2.72H56.4498V5.28H59.0898V6.86H56.4498V12.22C56.4498 13.02 56.8298 13.42 57.5898 13.42C57.9765 13.42 58.4765 13.3133 59.0898 13.1L59.4298 14.76ZM61.0605 3.38C61.0605 2.98 61.2138 2.64667 61.5205 2.38C61.8271 2.1 62.2405 1.96 62.7605 1.96C63.2938 1.96 63.7271 2.17333 64.0605 2.6C64.4071 3.01333 64.5805 3.53333 64.5805 4.16C64.5805 4.77333 64.3605 5.38 63.9205 5.98C63.4938 6.58 62.9205 7.06 62.2005 7.42L60.5605 6.52C61.5871 6 62.2071 5.41333 62.4205 4.76C62.0338 4.69333 61.7071 4.54667 61.4405 4.32C61.1871 4.09333 61.0605 3.78 61.0605 3.38ZM68.5902 12.04C68.6168 12.96 69.2902 13.42 70.6102 13.42C71.1168 13.42 71.5302 13.3133 71.8502 13.1C72.1835 12.8733 72.3502 12.6133 72.3502 12.32C72.3502 12.0267 72.2502 11.8 72.0502 11.64C71.8502 11.48 71.5368 11.3333 71.1102 11.2L68.9902 10.44C67.4168 9.89333 66.6302 9 66.6302 7.76C66.6302 6.93333 66.9968 6.27333 67.7302 5.78C68.4768 5.27333 69.4702 5.02 70.7102 5.02C71.9635 5.02 72.9235 5.29333 73.5902 5.84C74.2702 6.38667 74.6235 7.07333 74.6502 7.9H72.4302C72.4035 7.58 72.2502 7.32667 71.9702 7.14C71.6902 6.95333 71.2902 6.86 70.7702 6.86C70.2502 6.86 69.8435 6.96667 69.5502 7.18C69.2702 7.38 69.1302 7.61333 69.1302 7.88C69.1302 8.34667 69.5235 8.69333 70.3102 8.92L72.6102 9.78C73.3702 10.0333 73.9502 10.36 74.3502 10.76C74.7635 11.1467 74.9702 11.6533 74.9702 12.28C74.9702 13.08 74.5902 13.7733 73.8302 14.36C73.0435 14.9733 72.0035 15.28 70.7102 15.28C69.4168 15.28 68.3768 15 67.5902 14.44C66.8035 13.8667 66.4035 13.0667 66.3902 12.04H68.5902ZM83.7156 11.02C82.929 10.3533 82.5356 9.52 82.5356 8.52C82.5356 7.46667 82.949 6.61333 83.7756 5.96C84.5756 5.33333 85.489 5.02 86.5156 5.02C87.5556 5.02 88.4223 5.21333 89.1156 5.6C89.1956 4.84 89.5223 4.22667 90.0956 3.76C90.6556 3.29333 91.3156 3.06 92.0756 3.06L91.9556 5.32C90.809 5.32 90.2156 5.7 90.1756 6.46C90.669 7.07333 90.9156 7.7 90.9156 8.34C90.9156 8.98 90.8023 9.52 90.5756 9.96C90.349 10.3867 90.0423 10.7467 89.6556 11.04C88.8556 11.68 87.8823 12 86.7356 12C86.0823 12 85.489 11.9 84.9556 11.7C84.4223 11.86 84.1556 12.18 84.1556 12.66C84.1556 13.26 84.6623 13.56 85.6756 13.56H88.9356C91.149 13.56 92.2556 14.3333 92.2556 15.88C92.2556 16.4 92.1223 16.9067 91.8556 17.4C91.6023 17.9067 91.229 18.3533 90.7356 18.74C89.6423 19.5933 88.269 20.02 86.6156 20.02C85.0156 20.02 83.7156 19.6933 82.7156 19.04C81.7823 18.4133 81.3156 17.6467 81.3156 16.74C81.3156 16.14 81.4956 15.66 81.8556 15.3C82.229 14.9533 82.7156 14.7333 83.3156 14.64C82.529 14.16 82.1356 13.5667 82.1356 12.86C82.1356 12.3933 82.2823 12.0067 82.5756 11.7C82.869 11.38 83.249 11.1533 83.7156 11.02ZM85.5156 15.22C84.2623 15.2733 83.6356 15.7467 83.6356 16.64C83.6356 17.0933 83.8956 17.4533 84.4156 17.72C84.949 18 85.5756 18.14 86.2956 18.14C87.0156 18.14 87.5756 18.08 87.9756 17.96C88.389 17.84 88.7356 17.68 89.0156 17.48C89.6156 17.08 89.9156 16.6 89.9156 16.04C89.9156 15.8 89.829 15.6 89.6556 15.44C89.4956 15.2933 89.2556 15.22 88.9356 15.22H85.5156ZM88.5756 8.5C88.5756 7.95333 88.4223 7.51333 88.1156 7.18C87.8223 6.83333 87.369 6.66 86.7556 6.66C86.1423 6.66 85.6756 6.83333 85.3556 7.18C85.0356 7.51333 84.8756 7.95333 84.8756 8.5C84.8756 9.03333 85.0356 9.47333 85.3556 9.82C85.6756 10.1667 86.1423 10.34 86.7556 10.34C87.369 10.34 87.8223 10.1667 88.1156 9.82C88.4223 9.47333 88.5756 9.03333 88.5756 8.5ZM101.296 6.44C101.63 6.86667 101.876 7.36 102.036 7.92C102.21 8.48 102.296 8.99333 102.296 9.46C102.296 9.92667 102.27 10.3467 102.216 10.72H95.9363C95.9629 11.5067 96.1563 12.1467 96.5163 12.64C96.8763 13.1333 97.4229 13.38 98.1563 13.38C99.1296 13.38 99.7096 12.9533 99.8963 12.1H102.276C102.116 13.0733 101.67 13.84 100.936 14.4C100.176 14.9867 99.2496 15.28 98.1563 15.28C96.8763 15.28 95.8029 14.8133 94.9363 13.88C94.0429 12.9067 93.5963 11.66 93.5963 10.14C93.5963 8.58 94.0429 7.32667 94.9363 6.38C95.7896 5.47333 96.8629 5.02 98.1563 5.02C99.5029 5.02 100.55 5.49333 101.296 6.44ZM98.1763 6.9C97.5096 6.9 96.9896 7.12 96.6163 7.56C96.2429 7.98667 96.0229 8.54 95.9563 9.22H100.096C100.096 8.16667 99.7629 7.46 99.0963 7.1C98.8429 6.96667 98.5363 6.9 98.1763 6.9ZM110.602 14.76C109.722 15.1067 109.028 15.28 108.522 15.28C108.015 15.28 107.568 15.22 107.182 15.1C106.808 14.98 106.475 14.8 106.182 14.56C105.568 14.0133 105.262 13.26 105.262 12.3V6.86H103.902V5.28H105.262V2.72H107.622V5.28H110.262V6.86H107.622V12.22C107.622 13.02 108.002 13.42 108.762 13.42C109.148 13.42 109.648 13.3133 110.262 13.1L110.602 14.76ZM119.391 12.04C119.418 12.96 120.091 13.42 121.411 13.42C121.918 13.42 122.331 13.3133 122.651 13.1C122.984 12.8733 123.151 12.6133 123.151 12.32C123.151 12.0267 123.051 11.8 122.851 11.64C122.651 11.48 122.338 11.3333 121.911 11.2L119.791 10.44C118.218 9.89333 117.431 9 117.431 7.76C117.431 6.93333 117.798 6.27333 118.531 5.78C119.278 5.27333 120.271 5.02 121.511 5.02C122.764 5.02 123.724 5.29333 124.391 5.84C125.071 6.38667 125.424 7.07333 125.451 7.9H123.231C123.204 7.58 123.051 7.32667 122.771 7.14C122.491 6.95333 122.091 6.86 121.571 6.86C121.051 6.86 120.644 6.96667 120.351 7.18C120.071 7.38 119.931 7.61333 119.931 7.88C119.931 8.34667 120.324 8.69333 121.111 8.92L123.411 9.78C124.171 10.0333 124.751 10.36 125.151 10.76C125.564 11.1467 125.771 11.6533 125.771 12.28C125.771 13.08 125.391 13.7733 124.631 14.36C123.844 14.9733 122.804 15.28 121.511 15.28C120.218 15.28 119.178 15 118.391 14.44C117.604 13.8667 117.204 13.0667 117.191 12.04H119.391ZM134.098 14.76C133.218 15.1067 132.524 15.28 132.018 15.28C131.511 15.28 131.064 15.22 130.678 15.1C130.304 14.98 129.971 14.8 129.678 14.56C129.064 14.0133 128.758 13.26 128.758 12.3V6.86H127.398V5.28H128.758V2.72H131.118V5.28H133.758V6.86H131.118V12.22C131.118 13.02 131.498 13.42 132.258 13.42C132.644 13.42 133.144 13.3133 133.758 13.1L134.098 14.76ZM139.708 9.32C140.482 9.32 141.375 9.44667 142.388 9.7V8.74C142.388 8.06 142.248 7.56 141.968 7.24C141.702 6.90667 141.255 6.74 140.628 6.74C140.015 6.74 139.542 6.86667 139.208 7.12C138.875 7.36 138.708 7.70667 138.708 8.16H136.128C136.128 7.05333 136.515 6.25333 137.288 5.76C138.075 5.26667 139.168 5.02 140.568 5.02C142.568 5.02 143.862 5.72 144.448 7.12C144.648 7.6 144.748 8.16667 144.748 8.82V15H142.688L142.508 13.7C141.882 14.7533 140.922 15.28 139.628 15.28C138.375 15.28 137.402 14.9733 136.708 14.36C136.068 13.7733 135.748 13.0333 135.748 12.14C135.748 11.2333 136.102 10.54 136.808 10.06C137.515 9.56667 138.482 9.32 139.708 9.32ZM142.388 11.2C141.602 10.9867 140.868 10.88 140.188 10.88C138.908 10.88 138.268 11.3067 138.268 12.16C138.268 12.52 138.415 12.8333 138.708 13.1C139.002 13.3533 139.468 13.48 140.108 13.48C140.762 13.48 141.295 13.2667 141.708 12.84C142.135 12.4 142.362 11.8533 142.388 11.2ZM150.548 7.2C151.135 5.8 152.015 5.1 153.188 5.1C153.415 5.1 153.701 5.14667 154.048 5.24L154.008 7.6C153.635 7.52 153.268 7.48 152.908 7.48C151.335 7.48 150.548 8.56667 150.548 10.74V15H148.188V5.26H150.548V7.2ZM161.988 14.76C161.108 15.1067 160.415 15.28 159.908 15.28C159.402 15.28 158.955 15.22 158.568 15.1C158.195 14.98 157.862 14.8 157.568 14.56C156.955 14.0133 156.648 13.26 156.648 12.3V6.86H155.288V5.28H156.648V2.72H159.008V5.28H161.648V6.86H159.008V12.22C159.008 13.02 159.388 13.42 160.148 13.42C160.535 13.42 161.035 13.3133 161.648 13.1L161.988 14.76ZM171.179 6.44C171.512 6.86667 171.759 7.36 171.919 7.92C172.092 8.48 172.179 8.99333 172.179 9.46C172.179 9.92667 172.152 10.3467 172.099 10.72H165.819C165.846 11.5067 166.039 12.1467 166.399 12.64C166.759 13.1333 167.306 13.38 168.039 13.38C169.012 13.38 169.592 12.9533 169.779 12.1H172.159C171.999 13.0733 171.552 13.84 170.819 14.4C170.059 14.9867 169.132 15.28 168.039 15.28C166.759 15.28 165.686 14.8133 164.819 13.88C163.926 12.9067 163.479 11.66 163.479 10.14C163.479 8.58 163.926 7.32667 164.819 6.38C165.672 5.47333 166.746 5.02 168.039 5.02C169.386 5.02 170.432 5.49333 171.179 6.44ZM168.059 6.9C167.392 6.9 166.872 7.12 166.499 7.56C166.126 7.98667 165.906 8.54 165.839 9.22H169.979C169.979 8.16667 169.646 7.46 168.979 7.1C168.726 6.96667 168.419 6.9 168.059 6.9ZM181.345 13.5C180.745 14.6867 179.825 15.28 178.585 15.28C177.345 15.28 176.305 14.8067 175.465 13.86C174.598 12.8733 174.165 11.62 174.165 10.1C174.165 8.58 174.578 7.34667 175.405 6.4C176.218 5.48 177.231 5.02 178.445 5.02C179.658 5.02 180.571 5.50667 181.185 6.48V1.28H183.565V15H181.625L181.345 13.5ZM178.885 7.14C178.218 7.14 177.658 7.41333 177.205 7.96C176.765 8.49333 176.545 9.21333 176.545 10.12C176.545 11.0267 176.771 11.76 177.225 12.32C177.678 12.8667 178.251 13.14 178.945 13.14C179.518 13.14 180.031 12.9133 180.485 12.46C180.951 11.9933 181.185 11.4067 181.185 10.7V9.44C181.158 8.74667 180.925 8.18 180.485 7.74C180.085 7.34 179.551 7.14 178.885 7.14ZM187.55 15.18C187.07 15.18 186.676 15.0333 186.37 14.74C186.063 14.4467 185.91 14.0733 185.91 13.62C185.91 13.1667 186.063 12.7867 186.37 12.48C186.676 12.1733 187.07 12.02 187.55 12.02C188.03 12.02 188.43 12.1733 188.75 12.48C189.07 12.7867 189.23 13.1667 189.23 13.62C189.23 14.0733 189.07 14.4467 188.75 14.74C188.43 15.0333 188.03 15.18 187.55 15.18Z" fill="#7075A5"/>
<path d="M3.04 25.02L5.9 34.88L8.68 25.88H10.28L13.22 34.92L16.26 25.02H18.92L14.46 38H11.98L9.54 30.68L7.12 38H4.64L0.4 25.02H3.04ZM23.5364 29.86C24.2031 28.6333 25.1764 28.02 26.4564 28.02C27.7364 28.02 28.6764 28.4133 29.2764 29.2C29.8897 29.9867 30.1964 31.0267 30.1964 32.32V38H27.8364V32.32C27.8364 31.6 27.6631 31.06 27.3164 30.7C26.9697 30.3267 26.4831 30.14 25.8564 30.14C25.2297 30.14 24.6897 30.42 24.2364 30.98C23.7964 31.54 23.5631 32.38 23.5364 33.5V38H21.1764V24.28H23.5364V29.86ZM36.8373 32.32C37.6107 32.32 38.504 32.4467 39.5173 32.7V31.74C39.5173 31.06 39.3773 30.56 39.0973 30.24C38.8307 29.9067 38.384 29.74 37.7573 29.74C37.144 29.74 36.6707 29.8667 36.3373 30.12C36.004 30.36 35.8373 30.7067 35.8373 31.16H33.2573C33.2573 30.0533 33.644 29.2533 34.4173 28.76C35.204 28.2667 36.2973 28.02 37.6973 28.02C39.6973 28.02 40.9907 28.72 41.5773 30.12C41.7773 30.6 41.8773 31.1667 41.8773 31.82V38H39.8173L39.6373 36.7C39.0107 37.7533 38.0507 38.28 36.7573 38.28C35.504 38.28 34.5307 37.9733 33.8373 37.36C33.1973 36.7733 32.8773 36.0333 32.8773 35.14C32.8773 34.2333 33.2307 33.54 33.9373 33.06C34.644 32.5667 35.6107 32.32 36.8373 32.32ZM39.5173 34.2C38.7307 33.9867 37.9973 33.88 37.3173 33.88C36.0373 33.88 35.3973 34.3067 35.3973 35.16C35.3973 35.52 35.544 35.8333 35.8373 36.1C36.1307 36.3533 36.5973 36.48 37.2373 36.48C37.8907 36.48 38.424 36.2667 38.8373 35.84C39.264 35.4 39.4907 34.8533 39.5173 34.2ZM50.797 37.76C49.917 38.1067 49.2237 38.28 48.717 38.28C48.2104 38.28 47.7637 38.22 47.377 38.1C47.0037 37.98 46.6704 37.8 46.377 37.56C45.7637 37.0133 45.457 36.26 45.457 35.3V29.86H44.097V28.28H45.457V25.72H47.817V28.28H50.457V29.86H47.817V35.22C47.817 36.02 48.197 36.42 48.957 36.42C49.3437 36.42 49.8437 36.3133 50.457 36.1L50.797 37.76ZM59.1063 34.02C58.3196 33.3533 57.9263 32.52 57.9263 31.52C57.9263 30.4667 58.3396 29.6133 59.1663 28.96C59.9663 28.3333 60.8796 28.02 61.9063 28.02C62.9463 28.02 63.8129 28.2133 64.5063 28.6C64.5863 27.84 64.9129 27.2267 65.4863 26.76C66.0463 26.2933 66.7063 26.06 67.4663 26.06L67.3463 28.32C66.1996 28.32 65.6063 28.7 65.5663 29.46C66.0596 30.0733 66.3063 30.7 66.3063 31.34C66.3063 31.98 66.1929 32.52 65.9663 32.96C65.7396 33.3867 65.4329 33.7467 65.0463 34.04C64.2463 34.68 63.2729 35 62.1263 35C61.4729 35 60.8796 34.9 60.3463 34.7C59.8129 34.86 59.5463 35.18 59.5463 35.66C59.5463 36.26 60.0529 36.56 61.0663 36.56H64.3263C66.5396 36.56 67.6463 37.3333 67.6463 38.88C67.6463 39.4 67.5129 39.9067 67.2463 40.4C66.9929 40.9067 66.6196 41.3533 66.1263 41.74C65.0329 42.5933 63.6596 43.02 62.0063 43.02C60.4063 43.02 59.1063 42.6933 58.1063 42.04C57.1729 41.4133 56.7063 40.6467 56.7063 39.74C56.7063 39.14 56.8863 38.66 57.2463 38.3C57.6196 37.9533 58.1063 37.7333 58.7063 37.64C57.9196 37.16 57.5263 36.5667 57.5263 35.86C57.5263 35.3933 57.6729 35.0067 57.9663 34.7C58.2596 34.38 58.6396 34.1533 59.1063 34.02ZM60.9063 38.22C59.6529 38.2733 59.0263 38.7467 59.0263 39.64C59.0263 40.0933 59.2863 40.4533 59.8063 40.72C60.3396 41 60.9663 41.14 61.6862 41.14C62.4063 41.14 62.9663 41.08 63.3663 40.96C63.7796 40.84 64.1263 40.68 64.4063 40.48C65.0063 40.08 65.3063 39.6 65.3063 39.04C65.3063 38.8 65.2196 38.6 65.0463 38.44C64.8863 38.2933 64.6463 38.22 64.3263 38.22H60.9063ZM63.9663 31.5C63.9663 30.9533 63.8129 30.5133 63.5063 30.18C63.2129 29.8333 62.7596 29.66 62.1463 29.66C61.5329 29.66 61.0663 29.8333 60.7463 30.18C60.4263 30.5133 60.2663 30.9533 60.2663 31.5C60.2663 32.0333 60.4263 32.4733 60.7463 32.82C61.0663 33.1667 61.5329 33.34 62.1463 33.34C62.7596 33.34 63.2129 33.1667 63.5063 32.82C63.8129 32.4733 63.9663 32.0333 63.9663 31.5ZM76.6869 29.44C77.0202 29.8667 77.2669 30.36 77.4269 30.92C77.6002 31.48 77.6869 31.9933 77.6869 32.46C77.6869 32.9267 77.6602 33.3467 77.6069 33.72H71.3269C71.3535 34.5067 71.5469 35.1467 71.9069 35.64C72.2669 36.1333 72.8135 36.38 73.5469 36.38C74.5202 36.38 75.1002 35.9533 75.2869 35.1H77.6669C77.5069 36.0733 77.0602 36.84 76.3269 37.4C75.5669 37.9867 74.6402 38.28 73.5469 38.28C72.2669 38.28 71.1935 37.8133 70.3269 36.88C69.4335 35.9067 68.9869 34.66 68.9869 33.14C68.9869 31.58 69.4335 30.3267 70.3269 29.38C71.1802 28.4733 72.2535 28.02 73.5469 28.02C74.8935 28.02 75.9402 28.4933 76.6869 29.44ZM73.5669 29.9C72.9002 29.9 72.3802 30.12 72.0069 30.56C71.6335 30.9867 71.4135 31.54 71.3469 32.22H75.4869C75.4869 31.1667 75.1535 30.46 74.4869 30.1C74.2335 29.9667 73.9269 29.9 73.5669 29.9ZM82.8323 29.96C83.4723 28.6667 84.499 28.02 85.9123 28.02C87.1123 28.02 88.0123 28.4133 88.6123 29.2C89.2257 29.9867 89.5323 31.0267 89.5323 32.32V38H87.1723V32.32C87.1723 31.6 86.999 31.06 86.6523 30.7C86.3057 30.3267 85.819 30.14 85.1923 30.14C84.5657 30.14 84.0257 30.42 83.5723 30.98C83.1323 31.54 82.899 32.38 82.8723 33.5V38H80.5123V28.28H82.5723L82.8323 29.96ZM99.3133 36.5C98.7133 37.6867 97.7933 38.28 96.5533 38.28C95.3133 38.28 94.2733 37.8067 93.4333 36.86C92.5666 35.8733 92.1333 34.62 92.1333 33.1C92.1333 31.58 92.5466 30.3467 93.3733 29.4C94.1866 28.48 95.1999 28.02 96.4133 28.02C97.6266 28.02 98.5399 28.5067 99.1533 29.48V24.28H101.533V38H99.5933L99.3133 36.5ZM96.8533 30.14C96.1866 30.14 95.6266 30.4133 95.1733 30.96C94.7333 31.4933 94.5133 32.2133 94.5133 33.12C94.5133 34.0267 94.7399 34.76 95.1933 35.32C95.6466 35.8667 96.2199 36.14 96.9133 36.14C97.4866 36.14 97.9999 35.9133 98.4533 35.46C98.9199 34.9933 99.1533 34.4067 99.1533 33.7V32.44C99.1266 31.7467 98.8933 31.18 98.4533 30.74C98.0533 30.34 97.5199 30.14 96.8533 30.14ZM112.038 29.44C112.372 29.8667 112.618 30.36 112.778 30.92C112.952 31.48 113.038 31.9933 113.038 32.46C113.038 32.9267 113.012 33.3467 112.958 33.72H106.678C106.705 34.5067 106.898 35.1467 107.258 35.64C107.618 36.1333 108.165 36.38 108.898 36.38C109.872 36.38 110.452 35.9533 110.638 35.1H113.018C112.858 36.0733 112.412 36.84 111.678 37.4C110.918 37.9867 109.992 38.28 108.898 38.28C107.618 38.28 106.545 37.8133 105.678 36.88C104.785 35.9067 104.338 34.66 104.338 33.14C104.338 31.58 104.785 30.3267 105.678 29.38C106.532 28.4733 107.605 28.02 108.898 28.02C110.245 28.02 111.292 28.4933 112.038 29.44ZM108.918 29.9C108.252 29.9 107.732 30.12 107.358 30.56C106.985 30.9867 106.765 31.54 106.698 32.22H110.838C110.838 31.1667 110.505 30.46 109.838 30.1C109.585 29.9667 109.278 29.9 108.918 29.9ZM118.224 30.2C118.811 28.8 119.691 28.1 120.864 28.1C121.091 28.1 121.377 28.1467 121.724 28.24L121.684 30.6C121.311 30.52 120.944 30.48 120.584 30.48C119.011 30.48 118.224 31.5667 118.224 33.74V38H115.864V28.26H118.224V30.2ZM135.583 36.5C134.983 37.6867 134.063 38.28 132.823 38.28C131.583 38.28 130.543 37.8067 129.703 36.86C128.836 35.8733 128.403 34.62 128.403 33.1C128.403 31.58 128.816 30.3467 129.643 29.4C130.456 28.48 131.469 28.02 132.683 28.02C133.896 28.02 134.809 28.5067 135.423 29.48V24.28H137.803V38H135.863L135.583 36.5ZM133.123 30.14C132.456 30.14 131.896 30.4133 131.443 30.96C131.003 31.4933 130.783 32.2133 130.783 33.12C130.783 34.0267 131.009 34.76 131.463 35.32C131.916 35.8667 132.489 36.14 133.183 36.14C133.756 36.14 134.269 35.9133 134.723 35.46C135.189 34.9933 135.423 34.4067 135.423 33.7V32.44C135.396 31.7467 135.163 31.18 134.723 30.74C134.323 30.34 133.789 30.14 133.123 30.14ZM145.348 28.02C146.001 28.02 146.615 28.1267 147.188 28.34C147.761 28.54 148.255 28.8533 148.668 29.28C149.588 30.2133 150.048 31.5067 150.048 33.16C150.048 34.7867 149.588 36.0667 148.668 37C147.841 37.8533 146.735 38.28 145.348 38.28C143.961 38.28 142.841 37.8533 141.988 37C141.068 36.08 140.608 34.8 140.608 33.16C140.608 31.4933 141.068 30.2 141.988 29.28C142.828 28.44 143.948 28.02 145.348 28.02ZM147.688 33.14C147.688 32.1133 147.488 31.3467 147.088 30.84C146.688 30.32 146.128 30.06 145.408 30.06C144.701 30.06 144.121 30.32 143.668 30.84C143.215 31.3467 142.988 32.1133 142.988 33.14C142.988 34.1667 143.188 34.94 143.588 35.46C144.001 35.9667 144.561 36.22 145.268 36.22C145.975 36.22 146.555 35.9667 147.008 35.46C147.461 34.94 147.688 34.1667 147.688 33.14ZM159.115 28.28L161.455 35.28L163.495 28.28H165.895L162.175 39.76C161.788 40.92 161.315 41.7533 160.755 42.26C160.208 42.7667 159.508 43.02 158.655 43.02C157.788 43.02 156.921 42.8067 156.055 42.38V40.3C156.748 40.74 157.448 40.96 158.155 40.96C158.621 40.96 159.001 40.7733 159.295 40.4C159.601 40.0267 159.848 39.54 160.035 38.94L160.335 38L156.435 28.28H159.115ZM171.813 28.02C172.466 28.02 173.079 28.1267 173.653 28.34C174.226 28.54 174.719 28.8533 175.133 29.28C176.053 30.2133 176.513 31.5067 176.513 33.16C176.513 34.7867 176.053 36.0667 175.133 37C174.306 37.8533 173.199 38.28 171.813 38.28C170.426 38.28 169.306 37.8533 168.453 37C167.533 36.08 167.073 34.8 167.073 33.16C167.073 31.4933 167.533 30.2 168.453 29.28C169.293 28.44 170.413 28.02 171.813 28.02ZM174.153 33.14C174.153 32.1133 173.953 31.3467 173.553 30.84C173.153 30.32 172.593 30.06 171.873 30.06C171.166 30.06 170.586 30.32 170.133 30.84C169.679 31.3467 169.453 32.1133 169.453 33.14C169.453 34.1667 169.653 34.94 170.053 35.46C170.466 35.9667 171.026 36.22 171.733 36.22C172.439 36.22 173.019 35.9667 173.473 35.46C173.926 34.94 174.153 34.1667 174.153 33.14ZM185.781 36.24C185.168 37.5333 184.181 38.18 182.821 38.18C181.101 38.18 179.968 37.5067 179.421 36.16C179.221 35.6933 179.121 35.1267 179.121 34.46V28.26H181.481V34.22C181.481 34.86 181.634 35.34 181.941 35.66C182.248 35.9667 182.621 36.12 183.061 36.12C183.514 36.12 183.894 36.06 184.201 35.94C184.508 35.8067 184.774 35.6133 185.001 35.36C185.494 34.7867 185.754 34.02 185.781 33.06V28.26H188.141V38H185.781V36.24ZM2.06 51.26H4.42V61H2.06V51.26ZM1.78 48.14C1.78 47.7133 1.90667 47.38 2.16 47.14C2.41333 46.8867 2.77333 46.76 3.24 46.76C3.69333 46.76 4.04667 46.8867 4.3 47.14C4.56667 47.38 4.7 47.7133 4.7 48.14C4.7 48.5667 4.56667 48.9067 4.3 49.16C4.04667 49.4 3.69333 49.52 3.24 49.52C2.77333 49.52 2.41333 49.4 2.16 49.16C1.90667 48.9067 1.78 48.5667 1.78 48.14ZM14.7625 59.5C14.1625 60.6867 13.2425 61.28 12.0025 61.28C10.7625 61.28 9.7225 60.8067 8.8825 59.86C8.01583 58.8733 7.5825 57.62 7.5825 56.1C7.5825 54.58 7.99583 53.3467 8.8225 52.4C9.63583 51.48 10.6492 51.02 11.8625 51.02C13.0758 51.02 13.9892 51.5067 14.6025 52.48V47.28H16.9825V61H15.0425L14.7625 59.5ZM12.3025 53.14C11.6358 53.14 11.0758 53.4133 10.6225 53.96C10.1825 54.4933 9.9625 55.2133 9.9625 56.12C9.9625 57.0267 10.1892 57.76 10.6425 58.32C11.0958 58.8667 11.6692 59.14 12.3625 59.14C12.9358 59.14 13.4492 58.9133 13.9025 58.46C14.3692 57.9933 14.6025 57.4067 14.6025 56.7V55.44C14.5758 54.7467 14.3425 54.18 13.9025 53.74C13.5025 53.34 12.9692 53.14 12.3025 53.14ZM27.4877 52.44C27.821 52.8667 28.0677 53.36 28.2277 53.92C28.401 54.48 28.4877 54.9933 28.4877 55.46C28.4877 55.9267 28.461 56.3467 28.4077 56.72H22.1277C22.1543 57.5067 22.3477 58.1467 22.7077 58.64C23.0677 59.1333 23.6143 59.38 24.3477 59.38C25.321 59.38 25.901 58.9533 26.0877 58.1H28.4677C28.3077 59.0733 27.861 59.84 27.1277 60.4C26.3677 60.9867 25.441 61.28 24.3477 61.28C23.0677 61.28 21.9943 60.8133 21.1277 59.88C20.2343 58.9067 19.7877 57.66 19.7877 56.14C19.7877 54.58 20.2343 53.3267 21.1277 52.38C21.981 51.4733 23.0543 51.02 24.3477 51.02C25.6943 51.02 26.741 51.4933 27.4877 52.44ZM24.3677 52.9C23.701 52.9 23.181 53.12 22.8077 53.56C22.4343 53.9867 22.2143 54.54 22.1477 55.22H26.2877C26.2877 54.1667 25.9543 53.46 25.2877 53.1C25.0343 52.9667 24.7277 52.9 24.3677 52.9ZM33.6331 52.96C34.2731 51.6667 35.2998 51.02 36.7131 51.02C37.9131 51.02 38.8131 51.4133 39.4131 52.2C40.0265 52.9867 40.3331 54.0267 40.3331 55.32V61H37.9731V55.32C37.9731 54.6 37.7998 54.06 37.4531 53.7C37.1065 53.3267 36.6198 53.14 35.9931 53.14C35.3665 53.14 34.8265 53.42 34.3731 53.98C33.9331 54.54 33.6998 55.38 33.6731 56.5V61H31.3131V51.28H33.3731L33.6331 52.96ZM49.2541 60.76C48.3741 61.1067 47.6807 61.28 47.1741 61.28C46.6674 61.28 46.2207 61.22 45.8341 61.1C45.4607 60.98 45.1274 60.8 44.8341 60.56C44.2207 60.0133 43.9141 59.26 43.9141 58.3V52.86H42.5541V51.28H43.9141V48.72H46.2741V51.28H48.9141V52.86H46.2741V58.22C46.2741 59.02 46.6541 59.42 47.4141 59.42C47.8007 59.42 48.3007 59.3133 48.9141 59.1L49.2541 60.76ZM51.8647 51.26H54.2247V61H51.8647V51.26ZM51.5847 48.14C51.5847 47.7133 51.7114 47.38 51.9647 47.14C52.218 46.8867 52.578 46.76 53.0447 46.76C53.498 46.76 53.8514 46.8867 54.1047 47.14C54.3714 47.38 54.5047 47.7133 54.5047 48.14C54.5047 48.5667 54.3714 48.9067 54.1047 49.16C53.8514 49.4 53.498 49.52 53.0447 49.52C52.578 49.52 52.218 49.4 51.9647 49.16C51.7114 48.9067 51.5847 48.5667 51.5847 48.14ZM57.1672 51.28H58.6072V50.14C58.6072 49.14 58.9005 48.3733 59.4872 47.84C60.0205 47.36 60.7139 47.12 61.5672 47.12C62.1139 47.12 62.7872 47.2 63.5872 47.36L63.1272 49.18C62.7539 49.0467 62.4139 48.98 62.1072 48.98C61.8139 48.98 61.5539 49.0667 61.3272 49.24C61.1005 49.4 60.9872 49.7067 60.9872 50.16V51.28H62.7672V52.86H60.9872V61H58.6072V52.86H57.1672V51.28ZM66.7514 51.28L69.0914 58.28L71.1314 51.28H73.5314L69.8114 62.76C69.4247 63.92 68.9514 64.7533 68.3914 65.26C67.8447 65.7667 67.1447 66.02 66.2914 66.02C65.4247 66.02 64.5581 65.8067 63.6914 65.38V63.3C64.3847 63.74 65.0847 63.96 65.7914 63.96C66.2581 63.96 66.6381 63.7733 66.9314 63.4C67.2381 63.0267 67.4847 62.54 67.6714 61.94L67.9714 61L64.0714 51.28H66.7514ZM81.5481 51.28L83.5081 58.22L85.3681 51.82H87.5081L89.3681 58.24L91.3481 51.28H93.7081L90.5081 61H88.1881L86.3881 55.18L84.6281 61H82.2881L79.0681 51.28H81.5481ZM96.0444 51.26H98.4044V61H96.0444V51.26ZM95.7644 48.14C95.7644 47.7133 95.891 47.38 96.1444 47.14C96.3977 46.8867 96.7577 46.76 97.2244 46.76C97.6777 46.76 98.031 46.8867 98.2844 47.14C98.551 47.38 98.6844 47.7133 98.6844 48.14C98.6844 48.5667 98.551 48.9067 98.2844 49.16C98.031 49.4 97.6777 49.52 97.2244 49.52C96.7577 49.52 96.3977 49.4 96.1444 49.16C95.891 48.9067 95.7644 48.5667 95.7644 48.14ZM107.887 60.76C107.007 61.1067 106.314 61.28 105.807 61.28C105.3 61.28 104.854 61.22 104.467 61.1C104.094 60.98 103.76 60.8 103.467 60.56C102.854 60.0133 102.547 59.26 102.547 58.3V52.86H101.187V51.28H102.547V48.72H104.907V51.28H107.547V52.86H104.907V58.22C104.907 59.02 105.287 59.42 106.047 59.42C106.434 59.42 106.934 59.3133 107.547 59.1L107.887 60.76ZM112.658 52.86C113.324 51.6333 114.298 51.02 115.578 51.02C116.858 51.02 117.798 51.4133 118.398 52.2C119.011 52.9867 119.318 54.0267 119.318 55.32V61H116.958V55.32C116.958 54.6 116.784 54.06 116.438 53.7C116.091 53.3267 115.604 53.14 114.978 53.14C114.351 53.14 113.811 53.42 113.358 53.98C112.918 54.54 112.684 55.38 112.658 56.5V61H110.298V47.28H112.658V52.86ZM130.598 51.38C130.598 52.0867 130.425 52.68 130.078 53.16C129.732 53.6267 129.185 54.0467 128.438 54.42C127.812 54.74 127.398 55.0133 127.198 55.24C127.012 55.4667 126.892 55.68 126.838 55.88C126.785 56.0667 126.758 56.2867 126.758 56.54V57.12H124.398V56.32C124.398 55.12 124.758 54.2667 125.478 53.76C125.732 53.5733 126.105 53.3533 126.598 53.1C127.092 52.8467 127.445 52.5933 127.658 52.34C127.885 52.0733 127.998 51.74 127.998 51.34C127.998 50.9267 127.832 50.5867 127.498 50.32C127.165 50.04 126.672 49.9 126.018 49.9C125.365 49.9 124.852 50.06 124.478 50.38C124.105 50.6867 123.892 51.0933 123.838 51.6H121.378C121.445 50.44 121.872 49.5133 122.658 48.82C123.445 48.1133 124.545 47.76 125.958 47.76C127.385 47.76 128.512 48.1067 129.338 48.8C130.178 49.4933 130.598 50.3533 130.598 51.38ZM123.998 59.7C123.998 59.2467 124.145 58.8733 124.438 58.58C124.745 58.2867 125.138 58.14 125.618 58.14C126.112 58.14 126.518 58.2867 126.838 58.58C127.158 58.8733 127.318 59.2467 127.318 59.7C127.318 60.1533 127.158 60.5333 126.838 60.84C126.518 61.1333 126.112 61.28 125.618 61.28C125.138 61.28 124.745 61.1333 124.438 60.84C124.145 60.5333 123.998 60.1533 123.998 59.7Z" fill="#181827"/>
</svg>
