<svg width="128" height="17" viewBox="0 0 128 17" fill="none" xmlns="http://www.w3.org/2000/svg">
<path d="M0.288 11.514V9.39C1.212 9.918 2.106 10.182 2.97 10.182C3.486 10.182 3.858 10.032 4.086 9.732C4.326 9.432 4.446 8.976 4.446 8.364V0.317999H6.588V8.364C6.588 9.708 6.264 10.71 5.616 11.37C5.04 11.958 4.248 12.252 3.24 12.252C2.232 12.252 1.248 12.006 0.288 11.514ZM12.552 6.888C13.248 6.888 14.052 7.002 14.964 7.23V6.366C14.964 5.754 14.838 5.304 14.586 5.016C14.346 4.716 13.944 4.566 13.38 4.566C12.828 4.566 12.402 4.68 12.102 4.908C11.802 5.124 11.652 5.436 11.652 5.844H9.33005C9.33005 4.848 9.67805 4.128 10.374 3.684C11.082 3.24 12.066 3.018 13.326 3.018C15.126 3.018 16.29 3.648 16.818 4.908C16.998 5.34 17.088 5.85 17.088 6.438V12H15.234L15.072 10.83C14.508 11.778 13.644 12.252 12.48 12.252C11.352 12.252 10.476 11.976 9.85205 11.424C9.27605 10.896 8.98805 10.23 8.98805 9.426C8.98805 8.61 9.30605 7.986 9.94205 7.554C10.578 7.11 11.448 6.888 12.552 6.888ZM14.964 8.58C14.256 8.388 13.596 8.292 12.984 8.292C11.832 8.292 11.256 8.676 11.256 9.444C11.256 9.768 11.388 10.05 11.652 10.29C11.916 10.518 12.336 10.632 12.912 10.632C13.5 10.632 13.98 10.44 14.352 10.056C14.736 9.66 14.94 9.168 14.964 8.58ZM22.2718 4.764C22.8478 3.6 23.7718 3.018 25.0438 3.018C26.1238 3.018 26.9338 3.372 27.4738 4.08C28.0258 4.788 28.3018 5.724 28.3018 6.888V12H26.1778V6.888C26.1778 6.24 26.0218 5.754 25.7098 5.43C25.3978 5.094 24.9598 4.926 24.3958 4.926C23.8318 4.926 23.3458 5.178 22.9378 5.682C22.5418 6.186 22.3318 6.942 22.3078 7.95V12H20.1838V3.252H22.0378L22.2718 4.764ZM37.2126 10.416C36.6606 11.58 35.7726 12.162 34.5486 12.162C33.0006 12.162 31.9806 11.556 31.4886 10.344C31.3086 9.924 31.2186 9.414 31.2186 8.814V3.234H33.3426V8.598C33.3426 9.174 33.4806 9.606 33.7566 9.894C34.0326 10.17 34.3686 10.308 34.7646 10.308C35.1726 10.308 35.5146 10.254 35.7906 10.146C36.0666 10.026 36.3066 9.852 36.5106 9.624C36.9546 9.108 37.1886 8.418 37.2126 7.554V3.234H39.3366V12H37.2126V10.416ZM45.5638 6.888C46.2598 6.888 47.0638 7.002 47.9758 7.23V6.366C47.9758 5.754 47.8498 5.304 47.5978 5.016C47.3578 4.716 46.9558 4.566 46.3918 4.566C45.8398 4.566 45.4138 4.68 45.1138 4.908C44.8138 5.124 44.6638 5.436 44.6638 5.844H42.3418C42.3418 4.848 42.6898 4.128 43.3858 3.684C44.0938 3.24 45.0778 3.018 46.3378 3.018C48.1378 3.018 49.3018 3.648 49.8298 4.908C50.0098 5.34 50.0998 5.85 50.0998 6.438V12H48.2458L48.0838 10.83C47.5198 11.778 46.6558 12.252 45.4918 12.252C44.3638 12.252 43.4878 11.976 42.8638 11.424C42.2878 10.896 41.9998 10.23 41.9998 9.426C41.9998 8.61 42.3178 7.986 42.9538 7.554C43.5898 7.11 44.4598 6.888 45.5638 6.888ZM47.9758 8.58C47.2678 8.388 46.6078 8.292 45.9958 8.292C44.8438 8.292 44.2678 8.676 44.2678 9.444C44.2678 9.768 44.3998 10.05 44.6638 10.29C44.9278 10.518 45.3478 10.632 45.9238 10.632C46.5118 10.632 46.9918 10.44 47.3638 10.056C47.7478 9.66 47.9518 9.168 47.9758 8.58ZM55.3195 4.98C55.8475 3.72 56.6395 3.09 57.6955 3.09C57.8995 3.09 58.1575 3.132 58.4695 3.216L58.4335 5.34C58.0975 5.268 57.7675 5.232 57.4435 5.232C56.0275 5.232 55.3195 6.21 55.3195 8.166V12H53.1955V3.234H55.3195V4.98ZM61.7638 3.252L63.8698 9.552L65.7058 3.252H67.8658L64.5178 13.584C64.1698 14.628 63.7438 15.378 63.2398 15.834C62.7478 16.29 62.1178 16.518 61.3498 16.518C60.5698 16.518 59.7898 16.326 59.0098 15.942V14.07C59.6338 14.466 60.2638 14.664 60.8998 14.664C61.3198 14.664 61.6618 14.496 61.9258 14.16C62.2018 13.824 62.4238 13.386 62.5918 12.846L62.8618 12L59.3518 3.252H61.7638ZM73.3888 1.2C74.2888 1.068 75.0808 0.75 75.7648 0.245999H77.3668V12H75.2428V2.784C74.6308 3.084 74.0128 3.234 73.3888 3.234V1.2ZM81.1544 12.09C80.8184 12.03 80.5304 11.898 80.2904 11.694C80.0624 11.478 79.9484 11.196 79.9484 10.848C79.9484 10.488 80.0864 10.182 80.3624 9.93C80.6384 9.678 81.0164 9.552 81.4964 9.552C81.9764 9.552 82.3664 9.738 82.6664 10.11C82.9664 10.482 83.1164 10.938 83.1164 11.478C83.1164 12.354 82.7204 13.152 81.9284 13.872C81.6764 14.1 81.3944 14.292 81.0824 14.448L79.4984 13.656C79.8944 13.452 80.2424 13.224 80.5424 12.972C80.8544 12.72 81.0584 12.426 81.1544 12.09ZM88.9279 1.2C89.8279 1.068 90.6199 0.75 91.3039 0.245999H92.9059V12H90.7819V2.784C90.1699 3.084 89.5519 3.234 88.9279 3.234V1.2ZM99.8795 10.29C101.703 10.29 102.615 8.79 102.615 5.79C102.615 5.466 102.591 5.112 102.543 4.728C102.387 5.664 101.997 6.372 101.373 6.852C100.821 7.272 100.119 7.482 99.2675 7.482C98.1755 7.482 97.2815 7.14 96.5855 6.456C95.9015 5.76 95.5595 4.872 95.5595 3.792C95.5595 2.688 95.9495 1.794 96.7295 1.11C97.5095 0.425999 98.5235 0.0839989 99.7715 0.0839989C101.187 0.0839989 102.369 0.623999 103.317 1.704C104.277 2.808 104.757 4.23 104.757 5.97C104.757 8.982 103.857 10.932 102.057 11.82C101.457 12.108 100.803 12.252 100.095 12.252C99.3995 12.252 98.7875 12.162 98.2595 11.982C97.7435 11.802 97.2935 11.55 96.9095 11.226C96.0935 10.542 95.6855 9.648 95.6855 8.544H97.8995C97.9235 9.084 98.1155 9.51 98.4755 9.822C98.8475 10.134 99.3155 10.29 99.8795 10.29ZM99.7895 2.028C99.2135 2.028 98.7275 2.196 98.3315 2.532C97.9475 2.856 97.7555 3.312 97.7555 3.9C97.7555 4.476 97.9475 4.926 98.3315 5.25C98.7275 5.574 99.2135 5.736 99.7895 5.736C100.353 5.736 100.833 5.568 101.229 5.232C101.625 4.872 101.823 4.422 101.823 3.882C101.823 3.33 101.625 2.88 101.229 2.532C100.845 2.196 100.365 2.028 99.7895 2.028ZM111.262 0.0839989C112.63 0.0839989 113.752 0.401999 114.628 1.038C115.504 1.662 115.942 2.46 115.942 3.432C115.942 4.02 115.738 4.548 115.33 5.016C114.934 5.472 114.358 5.766 113.602 5.898C114.598 6.294 115.288 6.696 115.672 7.104C116.128 7.584 116.356 8.184 116.356 8.904C116.356 9.9 115.924 10.704 115.06 11.316C114.16 11.94 112.942 12.252 111.406 12.252C109.93 12.252 108.736 11.928 107.824 11.28C106.924 10.656 106.474 9.846 106.474 8.85C106.474 8.118 106.726 7.53 107.23 7.086C107.746 6.63 108.4 6.354 109.192 6.258C108.148 5.754 107.44 5.1 107.068 4.296C106.936 3.996 106.87 3.654 106.87 3.27C106.87 2.286 107.26 1.512 108.04 0.948C108.832 0.371999 109.906 0.0839989 111.262 0.0839989ZM111.046 6.996C109.954 7.068 109.216 7.416 108.832 8.04C108.724 8.22 108.67 8.43 108.67 8.67C108.67 8.91 108.742 9.132 108.886 9.336C109.03 9.54 109.228 9.714 109.48 9.858C109.96 10.146 110.632 10.29 111.496 10.29C112.372 10.29 113.032 10.176 113.476 9.948C113.932 9.708 114.16 9.42 114.16 9.084C114.16 8.736 114.046 8.46 113.818 8.256C113.602 8.04 113.302 7.854 112.918 7.698L111.046 6.996ZM110.254 4.602L111.604 5.124C112.18 5.124 112.684 4.98 113.116 4.692C113.536 4.404 113.746 4.026 113.746 3.558C113.746 3.09 113.53 2.718 113.098 2.442C112.666 2.154 112.102 2.01 111.406 2.01C110.734 2.01 110.176 2.136 109.732 2.388C109.288 2.64 109.066 2.994 109.066 3.45C109.066 3.894 109.462 4.278 110.254 4.602ZM122.934 0.0839989C123.654 0.0839989 124.308 0.209999 124.896 0.461999C125.496 0.701999 126.006 1.074 126.426 1.578C127.338 2.646 127.794 4.176 127.794 6.168C127.794 8.16 127.338 9.69 126.426 10.758C125.586 11.754 124.428 12.252 122.952 12.252C121.464 12.252 120.294 11.754 119.442 10.758C118.542 9.714 118.092 8.184 118.092 6.168C118.092 4.152 118.542 2.622 119.442 1.578C120.294 0.581999 121.458 0.0839989 122.934 0.0839989ZM125.598 6.168C125.598 4.824 125.364 3.798 124.896 3.09C124.44 2.37 123.786 2.01 122.934 2.01C122.094 2.01 121.44 2.37 120.972 3.09C120.516 3.798 120.288 4.824 120.288 6.168C120.288 7.512 120.516 8.538 120.972 9.246C121.44 9.942 122.094 10.29 122.934 10.29C123.786 10.29 124.44 9.942 124.896 9.246C125.364 8.538 125.598 7.512 125.598 6.168Z" fill="#181827"/>
</svg>
