<svg width="147" height="85" viewBox="0 0 147 85" fill="none" xmlns="http://www.w3.org/2000/svg">
<path d="M4.22 12.94H9.56V15H1.86V2.02H4.22V12.94ZM14.9428 9.32C15.7161 9.32 16.6095 9.44667 17.6228 9.7V8.74C17.6228 8.06 17.4828 7.56 17.2028 7.24C16.9361 6.90667 16.4895 6.74 15.8628 6.74C15.2495 6.74 14.7761 6.86667 14.4428 7.12C14.1095 7.36 13.9428 7.70667 13.9428 8.16H11.3628C11.3628 7.05333 11.7495 6.25333 12.5228 5.76C13.3095 5.26667 14.4028 5.02 15.8028 5.02C17.8028 5.02 19.0961 5.72 19.6828 7.12C19.8828 7.6 19.9828 8.16667 19.9828 8.82V15H17.9228L17.7428 13.7C17.1161 14.7533 16.1561 15.28 14.8628 15.28C13.6095 15.28 12.6361 14.9733 11.9428 14.36C11.3028 13.7733 10.9828 13.0333 10.9828 12.14C10.9828 11.2333 11.3361 10.54 12.0428 10.06C12.7495 9.56667 13.7161 9.32 14.9428 9.32ZM17.6228 11.2C16.8361 10.9867 16.1028 10.88 15.4228 10.88C14.1428 10.88 13.5028 11.3067 13.5028 12.16C13.5028 12.52 13.6495 12.8333 13.9428 13.1C14.2361 13.3533 14.7028 13.48 15.3428 13.48C15.9961 13.48 16.5295 13.2667 16.9428 12.84C17.3695 12.4 17.5961 11.8533 17.6228 11.2ZM24.7425 12.04C24.7692 12.96 25.4425 13.42 26.7625 13.42C27.2692 13.42 27.6825 13.3133 28.0025 13.1C28.3358 12.8733 28.5025 12.6133 28.5025 12.32C28.5025 12.0267 28.4025 11.8 28.2025 11.64C28.0025 11.48 27.6892 11.3333 27.2625 11.2L25.1425 10.44C23.5692 9.89333 22.7825 9 22.7825 7.76C22.7825 6.93333 23.1492 6.27333 23.8825 5.78C24.6292 5.27333 25.6225 5.02 26.8625 5.02C28.1158 5.02 29.0758 5.29333 29.7425 5.84C30.4225 6.38667 30.7758 7.07333 30.8025 7.9H28.5825C28.5558 7.58 28.4025 7.32667 28.1225 7.14C27.8425 6.95333 27.4425 6.86 26.9225 6.86C26.4025 6.86 25.9958 6.96667 25.7025 7.18C25.4225 7.38 25.2825 7.61333 25.2825 7.88C25.2825 8.34667 25.6758 8.69333 26.4625 8.92L28.7625 9.78C29.5225 10.0333 30.1025 10.36 30.5025 10.76C30.9158 11.1467 31.1225 11.6533 31.1225 12.28C31.1225 13.08 30.7425 13.7733 29.9825 14.36C29.1958 14.9733 28.1558 15.28 26.8625 15.28C25.5692 15.28 24.5292 15 23.7425 14.44C22.9558 13.8667 22.5558 13.0667 22.5425 12.04H24.7425ZM39.4494 14.76C38.5694 15.1067 37.876 15.28 37.3694 15.28C36.8627 15.28 36.416 15.22 36.0294 15.1C35.656 14.98 35.3227 14.8 35.0294 14.56C34.416 14.0133 34.1094 13.26 34.1094 12.3V6.86H32.7494V5.28H34.1094V2.72H36.4694V5.28H39.1094V6.86H36.4694V12.22C36.4694 13.02 36.8494 13.42 37.6094 13.42C37.996 13.42 38.496 13.3133 39.1094 13.1L39.4494 14.76ZM53.0186 13.74C52.5386 14.7667 51.7119 15.28 50.5386 15.28C49.2853 15.28 48.2319 14.8267 47.3786 13.92C46.4586 12.96 45.9986 11.7 45.9986 10.14C45.9986 8.60667 46.4453 7.35333 47.3386 6.38C48.1786 5.47333 49.2053 5.02 50.4186 5.02C51.0186 5.02 51.5719 5.16667 52.0786 5.46C52.5986 5.74 53.0186 6.18 53.3386 6.78L53.8586 5.28H55.3986V16.5C55.3986 17.0733 55.4653 17.4533 55.5986 17.64C55.7453 17.8267 55.9053 17.96 56.0786 18.04C56.2519 18.1333 56.4653 18.22 56.7186 18.3L56.0386 20.02C54.9453 19.7533 54.1653 19.3267 53.6986 18.74C53.2453 18.1533 53.0186 17.3467 53.0186 16.32V13.74ZM53.0186 9.44C53.0186 8.70667 52.8053 8.14 52.3786 7.74C51.9519 7.34 51.4053 7.14 50.7386 7.14C50.0853 7.14 49.5253 7.40667 49.0586 7.94C48.6053 8.47333 48.3786 9.20667 48.3786 10.14C48.3786 11.0867 48.6453 11.84 49.1786 12.4C49.6453 12.8933 50.2119 13.14 50.8786 13.14C51.4253 13.14 51.9053 12.9733 52.3186 12.64C52.7586 12.2667 52.9919 11.78 53.0186 11.18V9.44ZM65.5856 13.24C64.9723 14.5333 63.9856 15.18 62.6256 15.18C60.9056 15.18 59.7723 14.5067 59.2256 13.16C59.0256 12.6933 58.9256 12.1267 58.9256 11.46V5.26H61.2856V11.22C61.2856 11.86 61.439 12.34 61.7456 12.66C62.0523 12.9667 62.4256 13.12 62.8656 13.12C63.319 13.12 63.699 13.06 64.0056 12.94C64.3123 12.8067 64.579 12.6133 64.8056 12.36C65.299 11.7867 65.559 11.02 65.5856 10.06V5.26H67.9456V15H65.5856V13.24ZM78.4447 6.44C78.778 6.86667 79.0247 7.36 79.1847 7.92C79.358 8.48 79.4447 8.99333 79.4447 9.46C79.4447 9.92667 79.418 10.3467 79.3647 10.72H73.0847C73.1114 11.5067 73.3047 12.1467 73.6647 12.64C74.0247 13.1333 74.5714 13.38 75.3047 13.38C76.278 13.38 76.858 12.9533 77.0447 12.1H79.4247C79.2647 13.0733 78.818 13.84 78.0847 14.4C77.3247 14.9867 76.398 15.28 75.3047 15.28C74.0247 15.28 72.9514 14.8133 72.0847 13.88C71.1914 12.9067 70.7447 11.66 70.7447 10.14C70.7447 8.58 71.1914 7.32667 72.0847 6.38C72.938 5.47333 74.0114 5.02 75.3047 5.02C76.6514 5.02 77.698 5.49333 78.4447 6.44ZM75.3247 6.9C74.658 6.9 74.138 7.12 73.7647 7.56C73.3914 7.98667 73.1714 8.54 73.1047 9.22H77.2447C77.2447 8.16667 76.9114 7.46 76.2447 7.1C75.9914 6.96667 75.6847 6.9 75.3247 6.9ZM83.5902 12.04C83.6168 12.96 84.2902 13.42 85.6102 13.42C86.1168 13.42 86.5302 13.3133 86.8502 13.1C87.1835 12.8733 87.3502 12.6133 87.3502 12.32C87.3502 12.0267 87.2502 11.8 87.0502 11.64C86.8502 11.48 86.5368 11.3333 86.1102 11.2L83.9902 10.44C82.4168 9.89333 81.6302 9 81.6302 7.76C81.6302 6.93333 81.9968 6.27333 82.7302 5.78C83.4768 5.27333 84.4702 5.02 85.7102 5.02C86.9635 5.02 87.9235 5.29333 88.5902 5.84C89.2702 6.38667 89.6235 7.07333 89.6502 7.9H87.4302C87.4035 7.58 87.2502 7.32667 86.9702 7.14C86.6902 6.95333 86.2902 6.86 85.7702 6.86C85.2502 6.86 84.8435 6.96667 84.5502 7.18C84.2702 7.38 84.1302 7.61333 84.1302 7.88C84.1302 8.34667 84.5235 8.69333 85.3102 8.92L87.6102 9.78C88.3702 10.0333 88.9502 10.36 89.3502 10.76C89.7635 11.1467 89.9702 11.6533 89.9702 12.28C89.9702 13.08 89.5902 13.7733 88.8302 14.36C88.0435 14.9733 87.0035 15.28 85.7102 15.28C84.4168 15.28 83.3768 15 82.5902 14.44C81.8035 13.8667 81.4035 13.0667 81.3902 12.04H83.5902ZM98.297 14.76C97.417 15.1067 96.7237 15.28 96.217 15.28C95.7104 15.28 95.2637 15.22 94.877 15.1C94.5037 14.98 94.1704 14.8 93.877 14.56C93.2637 14.0133 92.957 13.26 92.957 12.3V6.86H91.597V5.28H92.957V2.72H95.317V5.28H97.957V6.86H95.317V12.22C95.317 13.02 95.697 13.42 96.457 13.42C96.8437 13.42 97.3437 13.3133 97.957 13.1L98.297 14.76ZM100.908 5.26H103.268V15H100.908V5.26ZM100.628 2.14C100.628 1.71333 100.754 1.38 101.008 1.14C101.261 0.886666 101.621 0.76 102.088 0.76C102.541 0.76 102.894 0.886666 103.148 1.14C103.414 1.38 103.548 1.71333 103.548 2.14C103.548 2.56667 103.414 2.90667 103.148 3.16C102.894 3.4 102.541 3.52 102.088 3.52C101.621 3.52 101.261 3.4 101.008 3.16C100.754 2.90667 100.628 2.56667 100.628 2.14ZM111.09 5.02C111.743 5.02 112.357 5.12667 112.93 5.34C113.503 5.54 113.997 5.85333 114.41 6.28C115.33 7.21333 115.79 8.50667 115.79 10.16C115.79 11.7867 115.33 13.0667 114.41 14C113.583 14.8533 112.477 15.28 111.09 15.28C109.703 15.28 108.583 14.8533 107.73 14C106.81 13.08 106.35 11.8 106.35 10.16C106.35 8.49333 106.81 7.2 107.73 6.28C108.57 5.44 109.69 5.02 111.09 5.02ZM113.43 10.14C113.43 9.11333 113.23 8.34667 112.83 7.84C112.43 7.32 111.87 7.06 111.15 7.06C110.443 7.06 109.863 7.32 109.41 7.84C108.957 8.34667 108.73 9.11333 108.73 10.14C108.73 11.1667 108.93 11.94 109.33 12.46C109.743 12.9667 110.303 13.22 111.01 13.22C111.717 13.22 112.297 12.9667 112.75 12.46C113.203 11.94 113.43 11.1667 113.43 10.14ZM120.918 6.96C121.558 5.66667 122.585 5.02 123.998 5.02C125.198 5.02 126.098 5.41333 126.698 6.2C127.312 6.98667 127.618 8.02667 127.618 9.32V15H125.258V9.32C125.258 8.6 125.085 8.06 124.738 7.7C124.392 7.32667 123.905 7.14 123.278 7.14C122.652 7.14 122.112 7.42 121.658 7.98C121.218 8.54 120.985 9.38 120.958 10.5V15H118.598V5.28H120.658L120.918 6.96ZM130.919 1.72H133.479L133.199 10.62H131.179L130.919 1.72ZM132.199 15.18C131.719 15.18 131.326 15.0333 131.019 14.74C130.713 14.4467 130.559 14.0733 130.559 13.62C130.559 13.1667 130.713 12.7867 131.019 12.48C131.326 12.1733 131.719 12.02 132.199 12.02C132.679 12.02 133.079 12.1733 133.399 12.48C133.719 12.7867 133.879 13.1667 133.879 13.62C133.879 14.0733 133.719 14.4467 133.399 14.74C133.079 15.0333 132.679 15.18 132.199 15.18Z" fill="#7075A5"/>
<path d="M3.04 25.02L5.9 34.88L8.68 25.88H10.28L13.22 34.92L16.26 25.02H18.92L14.46 38H11.98L9.54 30.68L7.12 38H4.64L0.4 25.02H3.04ZM23.5364 29.86C24.2031 28.6333 25.1764 28.02 26.4564 28.02C27.7364 28.02 28.6764 28.4133 29.2764 29.2C29.8897 29.9867 30.1964 31.0267 30.1964 32.32V38H27.8364V32.32C27.8364 31.6 27.6631 31.06 27.3164 30.7C26.9697 30.3267 26.4831 30.14 25.8564 30.14C25.2297 30.14 24.6897 30.42 24.2364 30.98C23.7964 31.54 23.5631 32.38 23.5364 33.5V38H21.1764V24.28H23.5364V29.86ZM36.8373 32.32C37.6107 32.32 38.504 32.4467 39.5173 32.7V31.74C39.5173 31.06 39.3773 30.56 39.0973 30.24C38.8307 29.9067 38.384 29.74 37.7573 29.74C37.144 29.74 36.6707 29.8667 36.3373 30.12C36.004 30.36 35.8373 30.7067 35.8373 31.16H33.2573C33.2573 30.0533 33.644 29.2533 34.4173 28.76C35.204 28.2667 36.2973 28.02 37.6973 28.02C39.6973 28.02 40.9907 28.72 41.5773 30.12C41.7773 30.6 41.8773 31.1667 41.8773 31.82V38H39.8173L39.6373 36.7C39.0107 37.7533 38.0507 38.28 36.7573 38.28C35.504 38.28 34.5307 37.9733 33.8373 37.36C33.1973 36.7733 32.8773 36.0333 32.8773 35.14C32.8773 34.2333 33.2307 33.54 33.9373 33.06C34.644 32.5667 35.6107 32.32 36.8373 32.32ZM39.5173 34.2C38.7307 33.9867 37.9973 33.88 37.3173 33.88C36.0373 33.88 35.3973 34.3067 35.3973 35.16C35.3973 35.52 35.544 35.8333 35.8373 36.1C36.1307 36.3533 36.5973 36.48 37.2373 36.48C37.8907 36.48 38.424 36.2667 38.8373 35.84C39.264 35.4 39.4907 34.8533 39.5173 34.2ZM50.797 37.76C49.917 38.1067 49.2237 38.28 48.717 38.28C48.2104 38.28 47.7637 38.22 47.377 38.1C47.0037 37.98 46.6704 37.8 46.377 37.56C45.7637 37.0133 45.457 36.26 45.457 35.3V29.86H44.097V28.28H45.457V25.72H47.817V28.28H50.457V29.86H47.817V35.22C47.817 36.02 48.197 36.42 48.957 36.42C49.3437 36.42 49.8437 36.3133 50.457 36.1L50.797 37.76ZM60.4263 29.6C61.0396 28.5467 61.9729 28.02 63.2263 28.02C64.4263 28.02 65.4529 28.4733 66.3063 29.38C67.2129 30.34 67.6663 31.5933 67.6663 33.14C67.6663 34.7 67.2063 35.96 66.2863 36.92C65.4329 37.8267 64.4129 38.28 63.2263 38.28C62.0396 38.28 61.1729 37.9267 60.6263 37.22V42.74H58.2663V28.28H60.2063L60.4263 29.6ZM62.8063 36.14C63.0863 36.14 63.3729 36.08 63.6663 35.96C63.9729 35.84 64.2463 35.6533 64.4863 35.4C65.0196 34.84 65.2863 34.0933 65.2863 33.16C65.2863 32.2133 65.0529 31.4733 64.5863 30.94C64.1329 30.4067 63.5729 30.14 62.9063 30.14C62.2529 30.14 61.7129 30.3333 61.2863 30.72C60.8729 31.0933 60.6529 31.6333 60.6263 32.34V34.08C60.6263 34.7067 60.8463 35.2133 61.2863 35.6C61.6996 35.96 62.2063 36.14 62.8063 36.14ZM73.6733 32.32C74.4466 32.32 75.3399 32.4467 76.3533 32.7V31.74C76.3533 31.06 76.2133 30.56 75.9333 30.24C75.6666 29.9067 75.2199 29.74 74.5933 29.74C73.9799 29.74 73.5066 29.8667 73.1733 30.12C72.8399 30.36 72.6733 30.7067 72.6733 31.16H70.0933C70.0933 30.0533 70.4799 29.2533 71.2533 28.76C72.0399 28.2667 73.1333 28.02 74.5333 28.02C76.5333 28.02 77.8266 28.72 78.4133 30.12C78.6133 30.6 78.7133 31.1667 78.7133 31.82V38H76.6533L76.4733 36.7C75.8466 37.7533 74.8866 38.28 73.5933 38.28C72.3399 38.28 71.3666 37.9733 70.6733 37.36C70.0333 36.7733 69.7133 36.0333 69.7133 35.14C69.7133 34.2333 70.0666 33.54 70.7733 33.06C71.4799 32.5667 72.4466 32.32 73.6733 32.32ZM76.3533 34.2C75.5666 33.9867 74.8333 33.88 74.1533 33.88C72.8733 33.88 72.2333 34.3067 72.2333 35.16C72.2333 35.52 72.3799 35.8333 72.6733 36.1C72.9666 36.3533 73.4333 36.48 74.0733 36.48C74.7266 36.48 75.2599 36.2667 75.6733 35.84C76.0999 35.4 76.3266 34.8533 76.3533 34.2ZM83.473 35.04C83.4996 35.96 84.173 36.42 85.493 36.42C85.9996 36.42 86.413 36.3133 86.733 36.1C87.0663 35.8733 87.233 35.6133 87.233 35.32C87.233 35.0267 87.133 34.8 86.933 34.64C86.733 34.48 86.4196 34.3333 85.993 34.2L83.873 33.44C82.2996 32.8933 81.513 32 81.513 30.76C81.513 29.9333 81.8796 29.2733 82.613 28.78C83.3596 28.2733 84.353 28.02 85.593 28.02C86.8463 28.02 87.8063 28.2933 88.473 28.84C89.153 29.3867 89.5063 30.0733 89.533 30.9H87.313C87.2863 30.58 87.133 30.3267 86.853 30.14C86.573 29.9533 86.173 29.86 85.653 29.86C85.133 29.86 84.7263 29.9667 84.433 30.18C84.153 30.38 84.013 30.6133 84.013 30.88C84.013 31.3467 84.4063 31.6933 85.193 31.92L87.493 32.78C88.253 33.0333 88.833 33.36 89.233 33.76C89.6463 34.1467 89.853 34.6533 89.853 35.28C89.853 36.08 89.473 36.7733 88.713 37.36C87.9263 37.9733 86.8863 38.28 85.593 38.28C84.2996 38.28 83.2596 38 82.473 37.44C81.6863 36.8667 81.2863 36.0667 81.273 35.04H83.473ZM94.0198 35.04C94.0465 35.96 94.7198 36.42 96.0398 36.42C96.5465 36.42 96.9598 36.3133 97.2798 36.1C97.6132 35.8733 97.7798 35.6133 97.7798 35.32C97.7798 35.0267 97.6798 34.8 97.4798 34.64C97.2798 34.48 96.9665 34.3333 96.5398 34.2L94.4198 33.44C92.8465 32.8933 92.0598 32 92.0598 30.76C92.0598 29.9333 92.4265 29.2733 93.1598 28.78C93.9065 28.2733 94.8998 28.02 96.1398 28.02C97.3932 28.02 98.3532 28.2933 99.0198 28.84C99.6998 29.3867 100.053 30.0733 100.08 30.9H97.8598C97.8332 30.58 97.6798 30.3267 97.3998 30.14C97.1198 29.9533 96.7198 29.86 96.1998 29.86C95.6798 29.86 95.2732 29.9667 94.9798 30.18C94.6998 30.38 94.5598 30.6133 94.5598 30.88C94.5598 31.3467 94.9532 31.6933 95.7398 31.92L98.0398 32.78C98.7998 33.0333 99.3798 33.36 99.7798 33.76C100.193 34.1467 100.4 34.6533 100.4 35.28C100.4 36.08 100.02 36.7733 99.2598 37.36C98.4732 37.9733 97.4332 38.28 96.1398 38.28C94.8465 38.28 93.8065 38 93.0198 37.44C92.2332 36.8667 91.8332 36.0667 91.8198 35.04H94.0198ZM104.107 28.28L106.067 35.22L107.927 28.82H110.067L111.927 35.24L113.907 28.28H116.267L113.067 38H110.747L108.947 32.18L107.187 38H104.847L101.627 28.28H104.107ZM122.223 28.02C122.876 28.02 123.49 28.1267 124.063 28.34C124.636 28.54 125.13 28.8533 125.543 29.28C126.463 30.2133 126.923 31.5067 126.923 33.16C126.923 34.7867 126.463 36.0667 125.543 37C124.716 37.8533 123.61 38.28 122.223 38.28C120.836 38.28 119.716 37.8533 118.863 37C117.943 36.08 117.483 34.8 117.483 33.16C117.483 31.4933 117.943 30.2 118.863 29.28C119.703 28.44 120.823 28.02 122.223 28.02ZM124.563 33.14C124.563 32.1133 124.363 31.3467 123.963 30.84C123.563 30.32 123.003 30.06 122.283 30.06C121.576 30.06 120.996 30.32 120.543 30.84C120.09 31.3467 119.863 32.1133 119.863 33.14C119.863 34.1667 120.063 34.94 120.463 35.46C120.876 35.9667 121.436 36.22 122.143 36.22C122.85 36.22 123.43 35.9667 123.883 35.46C124.336 34.94 124.563 34.1667 124.563 33.14ZM132.091 30.2C132.678 28.8 133.558 28.1 134.731 28.1C134.958 28.1 135.244 28.1467 135.591 28.24L135.551 30.6C135.178 30.52 134.811 30.48 134.451 30.48C132.878 30.48 132.091 31.5667 132.091 33.74V38H129.731V28.26H132.091V30.2ZM144.391 36.5C143.791 37.6867 142.871 38.28 141.631 38.28C140.391 38.28 139.351 37.8067 138.511 36.86C137.645 35.8733 137.211 34.62 137.211 33.1C137.211 31.58 137.625 30.3467 138.451 29.4C139.265 28.48 140.278 28.02 141.491 28.02C142.705 28.02 143.618 28.5067 144.231 29.48V24.28H146.611V38H144.671L144.391 36.5ZM141.931 30.14C141.265 30.14 140.705 30.4133 140.251 30.96C139.811 31.4933 139.591 32.2133 139.591 33.12C139.591 34.0267 139.818 34.76 140.271 35.32C140.725 35.8667 141.298 36.14 141.991 36.14C142.565 36.14 143.078 35.9133 143.531 35.46C143.998 34.9933 144.231 34.4067 144.231 33.7V32.44C144.205 31.7467 143.971 31.18 143.531 30.74C143.131 30.34 142.598 30.14 141.931 30.14ZM2.72 51.28L4.68 58.22L6.54 51.82H8.68L10.54 58.24L12.52 51.28H14.88L11.68 61H9.36L7.56 55.18L5.8 61H3.46L0.24 51.28H2.72ZM20.8363 51.02C21.4896 51.02 22.1029 51.1267 22.6763 51.34C23.2496 51.54 23.7429 51.8533 24.1563 52.28C25.0763 53.2133 25.5363 54.5067 25.5363 56.16C25.5363 57.7867 25.0763 59.0667 24.1563 60C23.3296 60.8533 22.2229 61.28 20.8363 61.28C19.4496 61.28 18.3296 60.8533 17.4763 60C16.5563 59.08 16.0963 57.8 16.0963 56.16C16.0963 54.4933 16.5563 53.2 17.4763 52.28C18.3163 51.44 19.4363 51.02 20.8363 51.02ZM23.1763 56.14C23.1763 55.1133 22.9763 54.3467 22.5763 53.84C22.1763 53.32 21.6163 53.06 20.8963 53.06C20.1896 53.06 19.6096 53.32 19.1563 53.84C18.7029 54.3467 18.4763 55.1133 18.4763 56.14C18.4763 57.1667 18.6763 57.94 19.0763 58.46C19.4896 58.9667 20.0496 59.22 20.7563 59.22C21.4629 59.22 22.0429 58.9667 22.4963 58.46C22.9496 57.94 23.1763 57.1667 23.1763 56.14ZM34.8044 59.24C34.191 60.5333 33.2044 61.18 31.8444 61.18C30.1244 61.18 28.991 60.5067 28.4444 59.16C28.2444 58.6933 28.1444 58.1267 28.1444 57.46V51.26H30.5044V57.22C30.5044 57.86 30.6577 58.34 30.9644 58.66C31.271 58.9667 31.6444 59.12 32.0844 59.12C32.5377 59.12 32.9177 59.06 33.2244 58.94C33.531 58.8067 33.7977 58.6133 34.0244 58.36C34.5177 57.7867 34.7777 57.02 34.8044 56.06V51.26H37.1644V61H34.8044V59.24ZM40.8834 47.28H43.2434V61H40.8834V47.28ZM53.2977 59.5C52.6977 60.6867 51.7777 61.28 50.5377 61.28C49.2977 61.28 48.2577 60.8067 47.4177 59.86C46.551 58.8733 46.1177 57.62 46.1177 56.1C46.1177 54.58 46.531 53.3467 47.3577 52.4C48.171 51.48 49.1843 51.02 50.3977 51.02C51.611 51.02 52.5243 51.5067 53.1377 52.48V47.28H55.5177V61H53.5777L53.2977 59.5ZM50.8377 53.14C50.171 53.14 49.611 53.4133 49.1577 53.96C48.7177 54.4933 48.4977 55.2133 48.4977 56.12C48.4977 57.0267 48.7243 57.76 49.1777 58.32C49.631 58.8667 50.2043 59.14 50.8977 59.14C51.471 59.14 51.9843 58.9133 52.4377 58.46C52.9043 57.9933 53.1377 57.4067 53.1377 56.7V55.44C53.111 54.7467 52.8777 54.18 52.4377 53.74C52.0377 53.34 51.5043 53.14 50.8377 53.14ZM65.5014 51.28L67.8414 58.28L69.8814 51.28H72.2814L68.5614 62.76C68.1747 63.92 67.7014 64.7533 67.1414 65.26C66.5947 65.7667 65.8947 66.02 65.0414 66.02C64.1747 66.02 63.3081 65.8067 62.4414 65.38V63.3C63.1347 63.74 63.8347 63.96 64.5414 63.96C65.0081 63.96 65.3881 63.7733 65.6814 63.4C65.9881 63.0267 66.2347 62.54 66.4214 61.94L66.7214 61L62.8214 51.28H65.5014ZM78.1995 51.02C78.8529 51.02 79.4662 51.1267 80.0395 51.34C80.6129 51.54 81.1062 51.8533 81.5195 52.28C82.4395 53.2133 82.8995 54.5067 82.8995 56.16C82.8995 57.7867 82.4395 59.0667 81.5195 60C80.6929 60.8533 79.5862 61.28 78.1995 61.28C76.8129 61.28 75.6929 60.8533 74.8395 60C73.9195 59.08 73.4595 57.8 73.4595 56.16C73.4595 54.4933 73.9195 53.2 74.8395 52.28C75.6795 51.44 76.7995 51.02 78.1995 51.02ZM80.5395 56.14C80.5395 55.1133 80.3395 54.3467 79.9395 53.84C79.5395 53.32 78.9795 53.06 78.2595 53.06C77.5529 53.06 76.9729 53.32 76.5195 53.84C76.0662 54.3467 75.8395 55.1133 75.8395 56.14C75.8395 57.1667 76.0395 57.94 76.4395 58.46C76.8529 58.9667 77.4129 59.22 78.1195 59.22C78.8262 59.22 79.4062 58.9667 79.8595 58.46C80.3129 57.94 80.5395 57.1667 80.5395 56.14ZM92.1677 59.24C91.5543 60.5333 90.5677 61.18 89.2077 61.18C87.4877 61.18 86.3543 60.5067 85.8077 59.16C85.6077 58.6933 85.5077 58.1267 85.5077 57.46V51.26H87.8677V57.22C87.8677 57.86 88.021 58.34 88.3277 58.66C88.6343 58.9667 89.0077 59.12 89.4477 59.12C89.901 59.12 90.281 59.06 90.5877 58.94C90.8943 58.8067 91.161 58.6133 91.3877 58.36C91.881 57.7867 92.141 57.02 92.1677 56.06V51.26H94.5277V61H92.1677V59.24ZM103.305 47.28H105.665V61H103.305V47.28ZM109.58 51.26H111.94V61H109.58V51.26ZM109.3 48.14C109.3 47.7133 109.426 47.38 109.68 47.14C109.933 46.8867 110.293 46.76 110.76 46.76C111.213 46.76 111.566 46.8867 111.82 47.14C112.086 47.38 112.22 47.7133 112.22 48.14C112.22 48.5667 112.086 48.9067 111.82 49.16C111.566 49.4 111.213 49.52 110.76 49.52C110.293 49.52 109.933 49.4 109.68 49.16C109.426 48.9067 109.3 48.5667 109.3 48.14ZM119.382 56.26L118.302 57.16V61H115.942V47.28H118.302V54.7L122.142 51.28H125.342L121.042 54.88L125.582 61H122.702L119.382 56.26ZM134.226 52.44C134.559 52.8667 134.806 53.36 134.966 53.92C135.139 54.48 135.226 54.9933 135.226 55.46C135.226 55.9267 135.199 56.3467 135.146 56.72H128.866C128.893 57.5067 129.086 58.1467 129.446 58.64C129.806 59.1333 130.353 59.38 131.086 59.38C132.059 59.38 132.639 58.9533 132.826 58.1H135.206C135.046 59.0733 134.599 59.84 133.866 60.4C133.106 60.9867 132.179 61.28 131.086 61.28C129.806 61.28 128.733 60.8133 127.866 59.88C126.973 58.9067 126.526 57.66 126.526 56.14C126.526 54.58 126.973 53.3267 127.866 52.38C128.719 51.4733 129.793 51.02 131.086 51.02C132.433 51.02 133.479 51.4933 134.226 52.44ZM131.106 52.9C130.439 52.9 129.919 53.12 129.546 53.56C129.173 53.9867 128.953 54.54 128.886 55.22H133.026C133.026 54.1667 132.693 53.46 132.026 53.1C131.773 52.9667 131.466 52.9 131.106 52.9ZM7.34 83.76C6.46 84.1067 5.76667 84.28 5.26 84.28C4.75333 84.28 4.30667 84.22 3.92 84.1C3.54667 83.98 3.21333 83.8 2.92 83.56C2.30667 83.0133 2 82.26 2 81.3V75.86H0.64V74.28H2V71.72H4.36V74.28H7V75.86H4.36V81.22C4.36 82.02 4.74 82.42 5.5 82.42C5.88667 82.42 6.38667 82.3133 7 82.1L7.34 83.76ZM13.5706 74.02C14.224 74.02 14.8373 74.1267 15.4106 74.34C15.984 74.54 16.4773 74.8533 16.8906 75.28C17.8106 76.2133 18.2706 77.5067 18.2706 79.16C18.2706 80.7867 17.8106 82.0667 16.8906 83C16.064 83.8533 14.9573 84.28 13.5706 84.28C12.184 84.28 11.064 83.8533 10.2106 83C9.29063 82.08 8.83063 80.8 8.83063 79.16C8.83063 77.4933 9.29063 76.2 10.2106 75.28C11.0506 74.44 12.1706 74.02 13.5706 74.02ZM15.9106 79.14C15.9106 78.1133 15.7106 77.3467 15.3106 76.84C14.9106 76.32 14.3506 76.06 13.6306 76.06C12.924 76.06 12.344 76.32 11.8906 76.84C11.4373 77.3467 11.2106 78.1133 11.2106 79.14C11.2106 80.1667 11.4106 80.94 11.8106 81.46C12.224 81.9667 12.784 82.22 13.4906 82.22C14.1973 82.22 14.7773 81.9667 15.2306 81.46C15.684 80.94 15.9106 80.1667 15.9106 79.14ZM32.5973 82.24C31.984 83.5333 30.9973 84.18 29.6373 84.18C27.9173 84.18 26.784 83.5067 26.2373 82.16C26.0373 81.6933 25.9373 81.1267 25.9373 80.46V74.26H28.2973V80.22C28.2973 80.86 28.4507 81.34 28.7573 81.66C29.064 81.9667 29.4373 82.12 29.8773 82.12C30.3307 82.12 30.7107 82.06 31.0173 81.94C31.324 81.8067 31.5907 81.6133 31.8173 81.36C32.3107 80.7867 32.5707 80.02 32.5973 79.06V74.26H34.9573V84H32.5973V82.24ZM39.9964 81.04C40.0231 81.96 40.6964 82.42 42.0164 82.42C42.5231 82.42 42.9364 82.3133 43.2564 82.1C43.5897 81.8733 43.7564 81.6133 43.7564 81.32C43.7564 81.0267 43.6564 80.8 43.4564 80.64C43.2564 80.48 42.9431 80.3333 42.5164 80.2L40.3964 79.44C38.8231 78.8933 38.0364 78 38.0364 76.76C38.0364 75.9333 38.4031 75.2733 39.1364 74.78C39.8831 74.2733 40.8764 74.02 42.1164 74.02C43.3697 74.02 44.3297 74.2933 44.9964 74.84C45.6764 75.3867 46.0297 76.0733 46.0564 76.9H43.8364C43.8097 76.58 43.6564 76.3267 43.3764 76.14C43.0964 75.9533 42.6964 75.86 42.1764 75.86C41.6564 75.86 41.2497 75.9667 40.9564 76.18C40.6764 76.38 40.5364 76.6133 40.5364 76.88C40.5364 77.3467 40.9297 77.6933 41.7164 77.92L44.0164 78.78C44.7764 79.0333 45.3564 79.36 45.7564 79.76C46.1697 80.1467 46.3764 80.6533 46.3764 81.28C46.3764 82.08 45.9964 82.7733 45.2364 83.36C44.4497 83.9733 43.4097 84.28 42.1164 84.28C40.8231 84.28 39.7831 84 38.9964 83.44C38.2097 82.8667 37.8097 82.0667 37.7964 81.04H39.9964ZM56.0033 75.44C56.3366 75.8667 56.5833 76.36 56.7433 76.92C56.9166 77.48 57.0033 77.9933 57.0033 78.46C57.0033 78.9267 56.9766 79.3467 56.9233 79.72H50.6433C50.6699 80.5067 50.8633 81.1467 51.2233 81.64C51.5833 82.1333 52.1299 82.38 52.8633 82.38C53.8366 82.38 54.4166 81.9533 54.6033 81.1H56.9833C56.8233 82.0733 56.3766 82.84 55.6433 83.4C54.8833 83.9867 53.9566 84.28 52.8633 84.28C51.5833 84.28 50.5099 83.8133 49.6433 82.88C48.7499 81.9067 48.3033 80.66 48.3033 79.14C48.3033 77.58 48.7499 76.3267 49.6433 75.38C50.4966 74.4733 51.5699 74.02 52.8633 74.02C54.2099 74.02 55.2566 74.4933 56.0033 75.44ZM52.8833 75.9C52.2166 75.9 51.6966 76.12 51.3233 76.56C50.9499 76.9867 50.7299 77.54 50.6633 78.22H54.8033C54.8033 77.1667 54.4699 76.46 53.8033 76.1C53.5499 75.9667 53.2433 75.9 52.8833 75.9ZM67.6688 74.38C67.6688 75.0867 67.4954 75.68 67.1488 76.16C66.8021 76.6267 66.2554 77.0467 65.5088 77.42C64.8821 77.74 64.4688 78.0133 64.2688 78.24C64.0821 78.4667 63.9621 78.68 63.9088 78.88C63.8554 79.0667 63.8288 79.2867 63.8288 79.54V80.12H61.4688V79.32C61.4688 78.12 61.8288 77.2667 62.5488 76.76C62.8021 76.5733 63.1754 76.3533 63.6688 76.1C64.1621 75.8467 64.5154 75.5933 64.7288 75.34C64.9554 75.0733 65.0688 74.74 65.0688 74.34C65.0688 73.9267 64.9021 73.5867 64.5688 73.32C64.2354 73.04 63.7421 72.9 63.0888 72.9C62.4354 72.9 61.9221 73.06 61.5488 73.38C61.1754 73.6867 60.9621 74.0933 60.9087 74.6H58.4488C58.5154 73.44 58.9421 72.5133 59.7288 71.82C60.5154 71.1133 61.6154 70.76 63.0288 70.76C64.4554 70.76 65.5821 71.1067 66.4088 71.8C67.2488 72.4933 67.6688 73.3533 67.6688 74.38ZM61.0688 82.7C61.0688 82.2467 61.2154 81.8733 61.5088 81.58C61.8154 81.2867 62.2088 81.14 62.6888 81.14C63.1821 81.14 63.5888 81.2867 63.9088 81.58C64.2288 81.8733 64.3888 82.2467 64.3888 82.7C64.3888 83.1533 64.2288 83.5333 63.9088 83.84C63.5888 84.1333 63.1821 84.28 62.6888 84.28C62.2088 84.28 61.8154 84.1333 61.5088 83.84C61.2154 83.5333 61.0688 83.1533 61.0688 82.7Z" fill="#181827"/>
</svg>
