<svg width="281" height="17" viewBox="0 0 281 17" fill="none" xmlns="http://www.w3.org/2000/svg">
<path d="M3.064 13.528H9.472V16H0.232V0.423999H3.064V13.528ZM12.0674 0.423999H22.0994V2.872H14.8994V6.976H21.6434V9.424H14.8994V13.528H22.0994V16H12.0674V0.423999ZM24.0659 0.423999H36.5459V2.872H31.7219V16H28.8899V2.872H24.0659V0.423999ZM37.9913 2.056C37.9913 1.576 38.1753 1.176 38.5433 0.855999C38.9113 0.52 39.4073 0.352 40.0313 0.352C40.6713 0.352 41.1913 0.608 41.5913 1.12C42.0073 1.616 42.2153 2.24 42.2153 2.992C42.2153 3.728 41.9513 4.456 41.4233 5.176C40.9113 5.896 40.2233 6.472 39.3593 6.904L37.3913 5.824C38.6233 5.2 39.3673 4.496 39.6233 3.712C39.1593 3.632 38.7673 3.456 38.4473 3.184C38.1433 2.912 37.9913 2.536 37.9913 2.056ZM53.6269 4.72C53.3709 3.36 52.4109 2.68 50.7469 2.68C49.9309 2.68 49.2909 2.848 48.8269 3.184C48.3789 3.504 48.1549 3.896 48.1549 4.36C48.1549 4.824 48.2989 5.192 48.5869 5.464C48.8909 5.72 49.3549 5.96 49.9789 6.184L53.3629 7.504C54.5149 7.952 55.4029 8.52 56.0269 9.208C56.6509 9.88 56.9629 10.728 56.9629 11.752C56.9629 13.16 56.4349 14.28 55.3789 15.112C54.3229 15.928 52.8189 16.336 50.8669 16.336C49.1389 16.336 47.7389 15.912 46.6669 15.064C45.4669 14.136 44.8349 12.824 44.7709 11.128H47.5789C47.5789 12.408 48.2429 13.216 49.5709 13.552C49.9709 13.664 50.4989 13.72 51.1549 13.72C51.8109 13.72 52.4189 13.56 52.9789 13.24C53.5389 12.904 53.8189 12.464 53.8189 11.92C53.8189 11.36 53.6669 10.936 53.3629 10.648C53.0589 10.344 52.5629 10.064 51.8749 9.808L48.7789 8.584C47.5789 8.12 46.6589 7.576 46.0189 6.952C45.3789 6.328 45.0589 5.464 45.0589 4.36C45.0589 3.064 45.5629 2.04 46.5709 1.288C47.5949 0.503999 48.9789 0.111999 50.7229 0.111999C52.4829 0.111999 53.8349 0.519999 54.7789 1.336C55.7389 2.136 56.2909 3.264 56.4349 4.72H53.6269ZM76.3699 13.528C75.6979 15.4 74.4099 16.336 72.5059 16.336C70.5539 16.336 68.9459 15.6 67.6819 14.128C66.3699 12.608 65.7139 10.664 65.7139 8.296C65.7139 5.8 66.4179 3.8 67.8259 2.296C69.1859 0.839999 70.9379 0.111999 73.0819 0.111999C74.5379 0.111999 75.7539 0.431999 76.7299 1.072C77.7219 1.696 78.4979 2.688 79.0579 4.048L76.1539 4.72C75.3059 3.36 74.2339 2.68 72.9379 2.68C71.7539 2.68 70.7699 3.184 69.9859 4.192C69.1699 5.216 68.7619 6.584 68.7619 8.296C68.7619 9.912 69.1299 11.224 69.8659 12.232C70.5859 13.224 71.5459 13.72 72.7459 13.72C73.7699 13.72 74.6099 13.392 75.2659 12.736C75.9379 12.064 76.2739 11.144 76.2739 9.976V9.88L72.7699 9.808V7.984H78.9859V16H76.6819L76.3699 13.528ZM83.0361 0.423999H93.0681V2.872H85.8681V6.976H92.6121V9.424H85.8681V13.528H93.0681V16H83.0361V0.423999ZM95.0346 0.423999H107.515V2.872H102.691V16H99.8586V2.872H95.0346V0.423999ZM113.878 0.423999H126.358V2.872H121.534V16H118.702V2.872H113.878V0.423999ZM134.716 0.111999C135.756 0.111999 136.708 0.287999 137.572 0.639999C138.436 0.975999 139.18 1.48 139.804 2.152C141.116 3.56 141.772 5.576 141.772 8.2C141.772 10.84 141.116 12.88 139.804 14.32C138.556 15.664 136.852 16.336 134.692 16.336C132.548 16.336 130.852 15.648 129.604 14.272C128.292 12.848 127.636 10.824 127.636 8.2C127.636 5.544 128.292 3.512 129.604 2.104C130.836 0.775999 132.54 0.111999 134.716 0.111999ZM138.844 8.248C138.844 6.456 138.468 5.08 137.716 4.12C136.98 3.144 135.98 2.656 134.716 2.656C133.452 2.656 132.444 3.144 131.692 4.12C130.94 5.08 130.564 6.456 130.564 8.248C130.564 10.024 130.94 11.392 131.692 12.352C132.444 13.296 133.452 13.768 134.716 13.768C135.98 13.768 136.98 13.296 137.716 12.352C138.468 11.392 138.844 10.024 138.844 8.248ZM154.049 0.423999V6.832L160.193 0.423999H164.081L157.217 7.432L164.537 16H160.865L155.321 9.4L154.049 10.696V16H151.193V0.423999H154.049ZM169.944 0.423999L176.808 11.464V0.423999H179.64V16H176.76L169.68 4.576V16H166.848V0.423999H169.944ZM190.075 0.111999C191.115 0.111999 192.067 0.287999 192.931 0.639999C193.795 0.975999 194.539 1.48 195.163 2.152C196.475 3.56 197.131 5.576 197.131 8.2C197.131 10.84 196.475 12.88 195.163 14.32C193.915 15.664 192.211 16.336 190.051 16.336C187.907 16.336 186.211 15.648 184.963 14.272C183.651 12.848 182.995 10.824 182.995 8.2C182.995 5.544 183.651 3.512 184.963 2.104C186.195 0.775999 187.899 0.111999 190.075 0.111999ZM194.203 8.248C194.203 6.456 193.827 5.08 193.075 4.12C192.339 3.144 191.339 2.656 190.075 2.656C188.811 2.656 187.803 3.144 187.051 4.12C186.299 5.08 185.923 6.456 185.923 8.248C185.923 10.024 186.299 11.392 187.051 12.352C187.803 13.296 188.811 13.768 190.075 13.768C191.339 13.768 192.339 13.296 193.075 12.352C193.827 11.392 194.203 10.024 194.203 8.248ZM201.898 0.423999L205.33 12.256L208.666 1.456H210.586L214.114 12.304L217.762 0.423999H220.954L215.602 16H212.626L209.698 7.216L206.794 16H203.818L198.73 0.423999H201.898ZM231.244 0.423999L234.676 6.64L238.276 0.423999H241.612L236.068 9.568V16H233.236V9.568L227.884 0.423999H231.244ZM250.192 0.111999C251.232 0.111999 252.184 0.287999 253.048 0.639999C253.912 0.975999 254.656 1.48 255.28 2.152C256.592 3.56 257.248 5.576 257.248 8.2C257.248 10.84 256.592 12.88 255.28 14.32C254.032 15.664 252.328 16.336 250.168 16.336C248.024 16.336 246.328 15.648 245.08 14.272C243.768 12.848 243.112 10.824 243.112 8.2C243.112 5.544 243.768 3.512 245.08 2.104C246.312 0.775999 248.016 0.111999 250.192 0.111999ZM254.32 8.248C254.32 6.456 253.944 5.08 253.192 4.12C252.456 3.144 251.456 2.656 250.192 2.656C248.928 2.656 247.92 3.144 247.168 4.12C246.416 5.08 246.04 6.456 246.04 8.248C246.04 10.024 246.416 11.392 247.168 12.352C247.92 13.296 248.928 13.768 250.192 13.768C251.456 13.768 252.456 13.296 253.192 12.352C253.944 11.392 254.32 10.024 254.32 8.248ZM263.191 0.423999V10.12C263.191 11.4 263.511 12.32 264.151 12.88C264.807 13.44 265.647 13.72 266.671 13.72C267.695 13.72 268.527 13.44 269.167 12.88C269.823 12.32 270.151 11.4 270.151 10.12V0.423999H272.983V10.12C272.983 12.104 272.431 13.64 271.327 14.728C270.223 15.8 268.671 16.336 266.671 16.336C264.671 16.336 263.119 15.8 262.015 14.728C260.911 13.64 260.359 12.104 260.359 10.12V0.423999H263.191ZM277.002 0.0639992H280.074L279.738 10.744H277.314L277.002 0.0639992ZM278.538 16.216C277.962 16.216 277.49 16.04 277.122 15.688C276.754 15.336 276.57 14.888 276.57 14.344C276.57 13.8 276.754 13.344 277.122 12.976C277.49 12.608 277.962 12.424 278.538 12.424C279.114 12.424 279.594 12.608 279.978 12.976C280.362 13.344 280.554 13.8 280.554 14.344C280.554 14.888 280.362 15.336 279.978 15.688C279.594 16.04 279.114 16.216 278.538 16.216Z" fill="white"/>
</svg>
