<svg width="202" height="44" viewBox="0 0 202 44" fill="none" xmlns="http://www.w3.org/2000/svg">
<path d="M4.22 12.94H9.56V15H1.86V2.02H4.22V12.94ZM18.5228 6.44C18.8561 6.86667 19.1028 7.36 19.2628 7.92C19.4361 8.48 19.5228 8.99333 19.5228 9.46C19.5228 9.92667 19.4961 10.3467 19.4428 10.72H13.1628C13.1895 11.5067 13.3828 12.1467 13.7428 12.64C14.1028 13.1333 14.6495 13.38 15.3828 13.38C16.3561 13.38 16.9361 12.9533 17.1228 12.1H19.5028C19.3428 13.0733 18.8961 13.84 18.1628 14.4C17.4028 14.9867 16.4761 15.28 15.3828 15.28C14.1028 15.28 13.0295 14.8133 12.1628 13.88C11.2695 12.9067 10.8228 11.66 10.8228 10.14C10.8228 8.58 11.2695 7.32667 12.1628 6.38C13.0161 5.47333 14.0895 5.02 15.3828 5.02C16.7295 5.02 17.7761 5.49333 18.5228 6.44ZM15.4028 6.9C14.7361 6.9 14.2161 7.12 13.8428 7.56C13.4695 7.98667 13.2495 8.54 13.1828 9.22H17.3228C17.3228 8.16667 16.9895 7.46 16.3228 7.1C16.0695 6.96667 15.7628 6.9 15.4028 6.9ZM27.8283 14.76C26.9483 15.1067 26.2549 15.28 25.7483 15.28C25.2416 15.28 24.7949 15.22 24.4083 15.1C24.0349 14.98 23.7016 14.8 23.4083 14.56C22.7949 14.0133 22.4883 13.26 22.4883 12.3V6.86H21.1283V5.28H22.4883V2.72H24.8483V5.28H27.4883V6.86H24.8483V12.22C24.8483 13.02 25.2283 13.42 25.9883 13.42C26.3749 13.42 26.8749 13.3133 27.4883 13.1L27.8283 14.76ZM29.4589 3.38C29.4589 2.98 29.6122 2.64667 29.9189 2.38C30.2256 2.1 30.6389 1.96 31.1589 1.96C31.6922 1.96 32.1256 2.17333 32.4589 2.6C32.8056 3.01333 32.9789 3.53333 32.9789 4.16C32.9789 4.77333 32.7589 5.38 32.3189 5.98C31.8922 6.58 31.3189 7.06 30.5989 7.42L28.9589 6.52C29.9856 6 30.6056 5.41333 30.8189 4.76C30.4322 4.69333 30.1056 4.54667 29.8389 4.32C29.5856 4.09333 29.4589 3.78 29.4589 3.38ZM36.9886 12.04C37.0153 12.96 37.6886 13.42 39.0086 13.42C39.5153 13.42 39.9286 13.3133 40.2486 13.1C40.5819 12.8733 40.7486 12.6133 40.7486 12.32C40.7486 12.0267 40.6486 11.8 40.4486 11.64C40.2486 11.48 39.9353 11.3333 39.5086 11.2L37.3886 10.44C35.8153 9.89333 35.0286 9 35.0286 7.76C35.0286 6.93333 35.3953 6.27333 36.1286 5.78C36.8753 5.27333 37.8686 5.02 39.1086 5.02C40.3619 5.02 41.3219 5.29333 41.9886 5.84C42.6686 6.38667 43.0219 7.07333 43.0486 7.9H40.8286C40.8019 7.58 40.6486 7.32667 40.3686 7.14C40.0886 6.95333 39.6886 6.86 39.1686 6.86C38.6486 6.86 38.2419 6.96667 37.9486 7.18C37.6686 7.38 37.5286 7.61333 37.5286 7.88C37.5286 8.34667 37.9219 8.69333 38.7086 8.92L41.0086 9.78C41.7686 10.0333 42.3486 10.36 42.7486 10.76C43.1619 11.1467 43.3686 11.6533 43.3686 12.28C43.3686 13.08 42.9886 13.7733 42.2286 14.36C41.4419 14.9733 40.4019 15.28 39.1086 15.28C37.8153 15.28 36.7753 15 35.9886 14.44C35.2019 13.8667 34.8019 13.0667 34.7886 12.04H36.9886ZM50.2141 5.28H51.6541V4.14C51.6541 3.14 51.9474 2.37333 52.5341 1.84C53.0674 1.36 53.7607 1.12 54.6141 1.12C55.1607 1.12 55.8341 1.2 56.6341 1.36L56.1741 3.18C55.8007 3.04667 55.4607 2.98 55.1541 2.98C54.8607 2.98 54.6007 3.06667 54.3741 3.24C54.1474 3.4 54.0341 3.70667 54.0341 4.16V5.28H55.8141V6.86H54.0341V15H51.6541V6.86H50.2141V5.28ZM58.7983 5.26H61.1583V15H58.7983V5.26ZM58.5183 2.14C58.5183 1.71333 58.6449 1.38 58.8983 1.14C59.1516 0.886666 59.5116 0.76 59.9783 0.76C60.4316 0.76 60.7849 0.886666 61.0383 1.14C61.3049 1.38 61.4383 1.71333 61.4383 2.14C61.4383 2.56667 61.3049 2.90667 61.0383 3.16C60.7849 3.4 60.4316 3.52 59.9783 3.52C59.5116 3.52 59.1516 3.4 58.8983 3.16C58.6449 2.90667 58.5183 2.56667 58.5183 2.14ZM67.4808 6.96C68.1208 5.66667 69.1474 5.02 70.5608 5.02C71.7608 5.02 72.6608 5.41333 73.2608 6.2C73.8741 6.98667 74.1808 8.02667 74.1808 9.32V15H71.8208V9.32C71.8208 8.6 71.6474 8.06 71.3008 7.7C70.9541 7.32667 70.4674 7.14 69.8408 7.14C69.2141 7.14 68.6741 7.42 68.2208 7.98C67.7808 8.54 67.5474 9.38 67.5208 10.5V15H65.1608V5.28H67.2208L67.4808 6.96ZM83.9617 13.5C83.3617 14.6867 82.4417 15.28 81.2017 15.28C79.9617 15.28 78.9217 14.8067 78.0817 13.86C77.2151 12.8733 76.7817 11.62 76.7817 10.1C76.7817 8.58 77.1951 7.34667 78.0217 6.4C78.8351 5.48 79.8484 5.02 81.0617 5.02C82.2751 5.02 83.1884 5.50667 83.8017 6.48V1.28H86.1817V15H84.2417L83.9617 13.5ZM81.5017 7.14C80.8351 7.14 80.2751 7.41333 79.8217 7.96C79.3817 8.49333 79.1617 9.21333 79.1617 10.12C79.1617 11.0267 79.3884 11.76 79.8417 12.32C80.2951 12.8667 80.8684 13.14 81.5617 13.14C82.1351 13.14 82.6484 12.9133 83.1017 12.46C83.5684 11.9933 83.8017 11.4067 83.8017 10.7V9.44C83.7751 8.74667 83.5417 8.18 83.1017 7.74C82.7017 7.34 82.1684 7.14 81.5017 7.14ZM103.605 7.12C104.232 5.72 105.332 5.02 106.905 5.02C108.065 5.02 108.965 5.41333 109.605 6.2C110.219 6.94667 110.525 7.98667 110.525 9.32V15H108.145V9.32C108.145 8.6 107.972 8.06 107.625 7.7C107.279 7.32667 106.792 7.14 106.165 7.14C105.539 7.14 105.025 7.41333 104.625 7.96C104.225 8.50667 104.012 9.33333 103.985 10.44V15H101.625V9.32C101.625 8.6 101.452 8.06 101.105 7.7C100.759 7.32667 100.272 7.14 99.6455 7.14C99.0188 7.14 98.4788 7.42 98.0255 7.98C97.5855 8.54 97.3521 9.38 97.3255 10.5V15H94.9655V5.28H97.0255L97.2855 6.96C97.9255 5.66667 98.9521 5.02 100.365 5.02C101.179 5.02 101.852 5.20667 102.385 5.58C102.932 5.95333 103.339 6.46667 103.605 7.12ZM120.73 6.44C121.063 6.86667 121.31 7.36 121.47 7.92C121.643 8.48 121.73 8.99333 121.73 9.46C121.73 9.92667 121.703 10.3467 121.65 10.72H115.37C115.397 11.5067 115.59 12.1467 115.95 12.64C116.31 13.1333 116.857 13.38 117.59 13.38C118.563 13.38 119.143 12.9533 119.33 12.1H121.71C121.55 13.0733 121.103 13.84 120.37 14.4C119.61 14.9867 118.683 15.28 117.59 15.28C116.31 15.28 115.237 14.8133 114.37 13.88C113.477 12.9067 113.03 11.66 113.03 10.14C113.03 8.58 113.477 7.32667 114.37 6.38C115.223 5.47333 116.297 5.02 117.59 5.02C118.937 5.02 119.983 5.49333 120.73 6.44ZM117.61 6.9C116.943 6.9 116.423 7.12 116.05 7.56C115.677 7.98667 115.457 8.54 115.39 9.22H119.53C119.53 8.16667 119.197 7.46 118.53 7.1C118.277 6.96667 117.97 6.9 117.61 6.9ZM126.875 6.96C127.515 5.66667 128.542 5.02 129.955 5.02C131.155 5.02 132.055 5.41333 132.655 6.2C133.269 6.98667 133.575 8.02667 133.575 9.32V15H131.215V9.32C131.215 8.6 131.042 8.06 130.695 7.7C130.349 7.32667 129.862 7.14 129.235 7.14C128.609 7.14 128.069 7.42 127.615 7.98C127.175 8.54 126.942 9.38 126.915 10.5V15H124.555V5.28H126.615L126.875 6.96ZM144.395 6.96C145.035 5.66667 146.062 5.02 147.475 5.02C148.675 5.02 149.575 5.41333 150.175 6.2C150.788 6.98667 151.095 8.02667 151.095 9.32V15H148.735V9.32C148.735 8.6 148.562 8.06 148.215 7.7C147.868 7.32667 147.382 7.14 146.755 7.14C146.128 7.14 145.588 7.42 145.135 7.98C144.695 8.54 144.462 9.38 144.435 10.5V15H142.075V5.28H144.135L144.395 6.96ZM161.316 6.44C161.649 6.86667 161.896 7.36 162.056 7.92C162.229 8.48 162.316 8.99333 162.316 9.46C162.316 9.92667 162.289 10.3467 162.236 10.72H155.956C155.982 11.5067 156.176 12.1467 156.536 12.64C156.896 13.1333 157.442 13.38 158.176 13.38C159.149 13.38 159.729 12.9533 159.916 12.1H162.296C162.136 13.0733 161.689 13.84 160.956 14.4C160.196 14.9867 159.269 15.28 158.176 15.28C156.896 15.28 155.822 14.8133 154.956 13.88C154.062 12.9067 153.616 11.66 153.616 10.14C153.616 8.58 154.062 7.32667 154.956 6.38C155.809 5.47333 156.882 5.02 158.176 5.02C159.522 5.02 160.569 5.49333 161.316 6.44ZM158.196 6.9C157.529 6.9 157.009 7.12 156.636 7.56C156.262 7.98667 156.042 8.54 155.976 9.22H160.116C160.116 8.16667 159.782 7.46 159.116 7.1C158.862 6.96667 158.556 6.9 158.196 6.9ZM168.341 9.32C169.115 9.32 170.008 9.44667 171.021 9.7V8.74C171.021 8.06 170.881 7.56 170.601 7.24C170.335 6.90667 169.888 6.74 169.261 6.74C168.648 6.74 168.175 6.86667 167.841 7.12C167.508 7.36 167.341 7.70667 167.341 8.16H164.761C164.761 7.05333 165.148 6.25333 165.921 5.76C166.708 5.26667 167.801 5.02 169.201 5.02C171.201 5.02 172.495 5.72 173.081 7.12C173.281 7.6 173.381 8.16667 173.381 8.82V15H171.321L171.141 13.7C170.515 14.7533 169.555 15.28 168.261 15.28C167.008 15.28 166.035 14.9733 165.341 14.36C164.701 13.7733 164.381 13.0333 164.381 12.14C164.381 11.2333 164.735 10.54 165.441 10.06C166.148 9.56667 167.115 9.32 168.341 9.32ZM171.021 11.2C170.235 10.9867 169.501 10.88 168.821 10.88C167.541 10.88 166.901 11.3067 166.901 12.16C166.901 12.52 167.048 12.8333 167.341 13.1C167.635 13.3533 168.101 13.48 168.741 13.48C169.395 13.48 169.928 13.2667 170.341 12.84C170.768 12.4 170.995 11.8533 171.021 11.2ZM179.181 7.2C179.768 5.8 180.648 5.1 181.821 5.1C182.048 5.1 182.334 5.14667 182.681 5.24L182.641 7.6C182.268 7.52 181.901 7.48 181.541 7.48C179.968 7.48 179.181 8.56667 179.181 10.74V15H176.821V5.26H179.181V7.2ZM3.06 28.28L5.4 35.28L7.44 28.28H9.84L6.12 39.76C5.73333 40.92 5.26 41.7533 4.7 42.26C4.15333 42.7667 3.45333 43.02 2.6 43.02C1.73333 43.02 0.866667 42.8067 0 42.38V40.3C0.693333 40.74 1.39333 40.96 2.1 40.96C2.56667 40.96 2.94667 40.7733 3.24 40.4C3.54667 40.0267 3.79333 39.54 3.98 38.94L4.28 38L0.38 28.28H3.06ZM15.7581 28.02C16.4115 28.02 17.0248 28.1267 17.5981 28.34C18.1715 28.54 18.6648 28.8533 19.0781 29.28C19.9981 30.2133 20.4581 31.5067 20.4581 33.16C20.4581 34.7867 19.9981 36.0667 19.0781 37C18.2515 37.8533 17.1448 38.28 15.7581 38.28C14.3715 38.28 13.2515 37.8533 12.3981 37C11.4781 36.08 11.0181 34.8 11.0181 33.16C11.0181 31.4933 11.4781 30.2 12.3981 29.28C13.2381 28.44 14.3581 28.02 15.7581 28.02ZM18.0981 33.14C18.0981 32.1133 17.8981 31.3467 17.4981 30.84C17.0981 30.32 16.5381 30.06 15.8181 30.06C15.1115 30.06 14.5315 30.32 14.0781 30.84C13.6248 31.3467 13.3981 32.1133 13.3981 33.14C13.3981 34.1667 13.5981 34.94 13.9981 35.46C14.4115 35.9667 14.9715 36.22 15.6781 36.22C16.3848 36.22 16.9648 35.9667 17.4181 35.46C17.8715 34.94 18.0981 34.1667 18.0981 33.14ZM29.7263 36.24C29.1129 37.5333 28.1263 38.18 26.7663 38.18C25.0463 38.18 23.9129 37.5067 23.3663 36.16C23.1663 35.6933 23.0663 35.1267 23.0663 34.46V28.26H25.4263V34.22C25.4263 34.86 25.5796 35.34 25.8863 35.66C26.1929 35.9667 26.5663 36.12 27.0063 36.12C27.4596 36.12 27.8396 36.06 28.1463 35.94C28.4529 35.8067 28.7196 35.6133 28.9463 35.36C29.4396 34.7867 29.6996 34.02 29.7263 33.06V28.26H32.0863V38H29.7263V36.24ZM36.0653 38.18C35.5853 38.18 35.192 38.0333 34.8853 37.74C34.5786 37.4467 34.4253 37.0733 34.4253 36.62C34.4253 36.1667 34.5786 35.7867 34.8853 35.48C35.192 35.1733 35.5853 35.02 36.0653 35.02C36.5453 35.02 36.9453 35.1733 37.2653 35.48C37.5853 35.7867 37.7453 36.1667 37.7453 36.62C37.7453 37.0733 37.5853 37.4467 37.2653 37.74C36.9453 38.0333 36.5453 38.18 36.0653 38.18ZM46.3408 25.02L49.2008 34.88L51.9808 25.88H53.5808L56.5208 34.92L59.5608 25.02H62.2208L57.7608 38H55.2808L52.8408 30.68L50.4208 38H47.9408L43.7008 25.02H46.3408ZM66.8372 29.86C67.5039 28.6333 68.4772 28.02 69.7572 28.02C71.0372 28.02 71.9772 28.4133 72.5772 29.2C73.1905 29.9867 73.4972 31.0267 73.4972 32.32V38H71.1372V32.32C71.1372 31.6 70.9639 31.06 70.6172 30.7C70.2705 30.3267 69.7839 30.14 69.1572 30.14C68.5305 30.14 67.9905 30.42 67.5372 30.98C67.0972 31.54 66.8639 32.38 66.8372 33.5V38H64.4772V24.28H66.8372V29.86ZM80.1381 32.32C80.9115 32.32 81.8048 32.4467 82.8181 32.7V31.74C82.8181 31.06 82.6781 30.56 82.3981 30.24C82.1315 29.9067 81.6848 29.74 81.0581 29.74C80.4448 29.74 79.9715 29.8667 79.6381 30.12C79.3048 30.36 79.1381 30.7067 79.1381 31.16H76.5581C76.5581 30.0533 76.9448 29.2533 77.7181 28.76C78.5048 28.2667 79.5981 28.02 80.9981 28.02C82.9981 28.02 84.2915 28.72 84.8781 30.12C85.0781 30.6 85.1781 31.1667 85.1781 31.82V38H83.1181L82.9381 36.7C82.3115 37.7533 81.3515 38.28 80.0581 38.28C78.8048 38.28 77.8315 37.9733 77.1381 37.36C76.4981 36.7733 76.1781 36.0333 76.1781 35.14C76.1781 34.2333 76.5315 33.54 77.2381 33.06C77.9448 32.5667 78.9115 32.32 80.1381 32.32ZM82.8181 34.2C82.0315 33.9867 81.2981 33.88 80.6181 33.88C79.3381 33.88 78.6981 34.3067 78.6981 35.16C78.6981 35.52 78.8448 35.8333 79.1381 36.1C79.4315 36.3533 79.8981 36.48 80.5381 36.48C81.1915 36.48 81.7248 36.2667 82.1381 35.84C82.5648 35.4 82.7915 34.8533 82.8181 34.2ZM94.0978 37.76C93.2178 38.1067 92.5245 38.28 92.0178 38.28C91.5111 38.28 91.0645 38.22 90.6778 38.1C90.3045 37.98 89.9711 37.8 89.6778 37.56C89.0645 37.0133 88.7578 36.26 88.7578 35.3V29.86H87.3978V28.28H88.7578V25.72H91.1178V28.28H93.7578V29.86H91.1178V35.22C91.1178 36.02 91.4978 36.42 92.2578 36.42C92.6445 36.42 93.1445 36.3133 93.7578 36.1L94.0978 37.76ZM95.7284 26.38C95.7284 25.98 95.8818 25.6467 96.1884 25.38C96.4951 25.1 96.9084 24.96 97.4284 24.96C97.9618 24.96 98.3951 25.1733 98.7284 25.6C99.0751 26.0133 99.2484 26.5333 99.2484 27.16C99.2484 27.7733 99.0284 28.38 98.5884 28.98C98.1618 29.58 97.5884 30.06 96.8684 30.42L95.2284 29.52C96.2551 29 96.8751 28.4133 97.0884 27.76C96.7018 27.6933 96.3751 27.5467 96.1084 27.32C95.8551 27.0933 95.7284 26.78 95.7284 26.38ZM103.258 35.04C103.285 35.96 103.958 36.42 105.278 36.42C105.785 36.42 106.198 36.3133 106.518 36.1C106.851 35.8733 107.018 35.6133 107.018 35.32C107.018 35.0267 106.918 34.8 106.718 34.64C106.518 34.48 106.205 34.3333 105.778 34.2L103.658 33.44C102.085 32.8933 101.298 32 101.298 30.76C101.298 29.9333 101.665 29.2733 102.398 28.78C103.145 28.2733 104.138 28.02 105.378 28.02C106.631 28.02 107.591 28.2933 108.258 28.84C108.938 29.3867 109.291 30.0733 109.318 30.9H107.098C107.071 30.58 106.918 30.3267 106.638 30.14C106.358 29.9533 105.958 29.86 105.438 29.86C104.918 29.86 104.511 29.9667 104.218 30.18C103.938 30.38 103.798 30.6133 103.798 30.88C103.798 31.3467 104.191 31.6933 104.978 31.92L107.278 32.78C108.038 33.0333 108.618 33.36 109.018 33.76C109.431 34.1467 109.638 34.6533 109.638 35.28C109.638 36.08 109.258 36.7733 108.498 37.36C107.711 37.9733 106.671 38.28 105.378 38.28C104.085 38.28 103.045 38 102.258 37.44C101.471 36.8667 101.071 36.0667 101.058 35.04H103.258ZM118.744 28.28L121.084 35.28L123.124 28.28H125.524L121.804 39.76C121.417 40.92 120.944 41.7533 120.384 42.26C119.837 42.7667 119.137 43.02 118.284 43.02C117.417 43.02 116.55 42.8067 115.684 42.38V40.3C116.377 40.74 117.077 40.96 117.784 40.96C118.25 40.96 118.63 40.7733 118.924 40.4C119.23 40.0267 119.477 39.54 119.664 38.94L119.964 38L116.064 28.28H118.744ZM131.442 28.02C132.095 28.02 132.708 28.1267 133.282 28.34C133.855 28.54 134.348 28.8533 134.762 29.28C135.682 30.2133 136.142 31.5067 136.142 33.16C136.142 34.7867 135.682 36.0667 134.762 37C133.935 37.8533 132.828 38.28 131.442 38.28C130.055 38.28 128.935 37.8533 128.082 37C127.162 36.08 126.702 34.8 126.702 33.16C126.702 31.4933 127.162 30.2 128.082 29.28C128.922 28.44 130.042 28.02 131.442 28.02ZM133.782 33.14C133.782 32.1133 133.582 31.3467 133.182 30.84C132.782 30.32 132.222 30.06 131.502 30.06C130.795 30.06 130.215 30.32 129.762 30.84C129.308 31.3467 129.082 32.1133 129.082 33.14C129.082 34.1667 129.282 34.94 129.682 35.46C130.095 35.9667 130.655 36.22 131.362 36.22C132.068 36.22 132.648 35.9667 133.102 35.46C133.555 34.94 133.782 34.1667 133.782 33.14ZM145.41 36.24C144.797 37.5333 143.81 38.18 142.45 38.18C140.73 38.18 139.597 37.5067 139.05 36.16C138.85 35.6933 138.75 35.1267 138.75 34.46V28.26H141.11V34.22C141.11 34.86 141.263 35.34 141.57 35.66C141.877 35.9667 142.25 36.12 142.69 36.12C143.143 36.12 143.523 36.06 143.83 35.94C144.137 35.8067 144.403 35.6133 144.63 35.36C145.123 34.7867 145.383 34.02 145.41 33.06V28.26H147.77V38H145.41V36.24ZM153.849 30.2C154.436 28.8 155.316 28.1 156.489 28.1C156.716 28.1 157.002 28.1467 157.349 28.24L157.309 30.6C156.936 30.52 156.569 30.48 156.209 30.48C154.636 30.48 153.849 31.5667 153.849 33.74V38H151.489V28.26H153.849V30.2ZM164.148 36.08L169.188 30.2H164.148V28.28H171.788V30.2L166.908 36.08H171.788V38H164.148V36.08ZM174.97 28.26H177.33V38H174.97V28.26ZM174.69 25.14C174.69 24.7133 174.817 24.38 175.07 24.14C175.323 23.8867 175.683 23.76 176.15 23.76C176.603 23.76 176.957 23.8867 177.21 24.14C177.477 24.38 177.61 24.7133 177.61 25.14C177.61 25.5667 177.477 25.9067 177.21 26.16C176.957 26.4 176.603 26.52 176.15 26.52C175.683 26.52 175.323 26.4 175.07 26.16C174.817 25.9067 174.69 25.5667 174.69 25.14ZM183.493 29.6C184.106 28.5467 185.039 28.02 186.293 28.02C187.493 28.02 188.519 28.4733 189.373 29.38C190.279 30.34 190.733 31.5933 190.733 33.14C190.733 34.7 190.273 35.96 189.353 36.92C188.499 37.8267 187.479 38.28 186.293 38.28C185.106 38.28 184.239 37.9267 183.693 37.22V42.74H181.333V28.28H183.273L183.493 29.6ZM185.873 36.14C186.153 36.14 186.439 36.08 186.733 35.96C187.039 35.84 187.313 35.6533 187.553 35.4C188.086 34.84 188.353 34.0933 188.353 33.16C188.353 32.2133 188.119 31.4733 187.653 30.94C187.199 30.4067 186.639 30.14 185.973 30.14C185.319 30.14 184.779 30.3333 184.353 30.72C183.939 31.0933 183.719 31.6333 183.693 32.34V34.08C183.693 34.7067 183.913 35.2133 184.353 35.6C184.766 35.96 185.273 36.14 185.873 36.14ZM201.38 28.38C201.38 29.0867 201.206 29.68 200.86 30.16C200.513 30.6267 199.966 31.0467 199.22 31.42C198.593 31.74 198.18 32.0133 197.98 32.24C197.793 32.4667 197.673 32.68 197.62 32.88C197.566 33.0667 197.54 33.2867 197.54 33.54V34.12H195.18V33.32C195.18 32.12 195.54 31.2667 196.26 30.76C196.513 30.5733 196.886 30.3533 197.38 30.1C197.873 29.8467 198.226 29.5933 198.44 29.34C198.666 29.0733 198.78 28.74 198.78 28.34C198.78 27.9267 198.613 27.5867 198.28 27.32C197.946 27.04 197.453 26.9 196.8 26.9C196.146 26.9 195.633 27.06 195.26 27.38C194.886 27.6867 194.673 28.0933 194.62 28.6H192.16C192.226 27.44 192.653 26.5133 193.44 25.82C194.226 25.1133 195.326 24.76 196.74 24.76C198.166 24.76 199.293 25.1067 200.12 25.8C200.96 26.4933 201.38 27.3533 201.38 28.38ZM194.78 36.7C194.78 36.2467 194.926 35.8733 195.22 35.58C195.526 35.2867 195.92 35.14 196.4 35.14C196.893 35.14 197.3 35.2867 197.62 35.58C197.94 35.8733 198.1 36.2467 198.1 36.7C198.1 37.1533 197.94 37.5333 197.62 37.84C197.3 38.1333 196.893 38.28 196.4 38.28C195.92 38.28 195.526 38.1333 195.22 37.84C194.926 37.5333 194.78 37.1533 194.78 36.7Z" fill="#181827"/>
</svg>
