<svg width="106" height="106" viewBox="0 0 106 106" fill="none" xmlns="http://www.w3.org/2000/svg">
<circle cx="53" cy="53" r="53" fill="#7075A5"/>
<path d="M32.764 47.722L36.68 56.214L40.596 47.722H44.182V62H41.564V51.154L37.516 60.438H35.822L31.642 50.846V62H29.046V47.722H32.764ZM51.7945 55.752C52.6452 55.752 53.6278 55.8913 54.7425 56.17V55.114C54.7425 54.366 54.5885 53.816 54.2805 53.464C53.9872 53.0973 53.4958 52.914 52.8065 52.914C52.1318 52.914 51.6112 53.0533 51.2445 53.332C50.8778 53.596 50.6945 53.9773 50.6945 54.476H47.8565C47.8565 53.2587 48.2818 52.3787 49.1325 51.836C49.9978 51.2933 51.2005 51.022 52.7405 51.022C54.9405 51.022 56.3632 51.792 57.0085 53.332C57.2285 53.86 57.3385 54.4833 57.3385 55.202V62H55.0725L54.8745 60.57C54.1852 61.7287 53.1292 62.308 51.7065 62.308C50.3278 62.308 49.2572 61.9707 48.4945 61.296C47.7905 60.6507 47.4385 59.8367 47.4385 58.854C47.4385 57.8567 47.8272 57.094 48.6045 56.566C49.3818 56.0233 50.4452 55.752 51.7945 55.752ZM54.7425 57.82C53.8772 57.5853 53.0705 57.468 52.3225 57.468C50.9145 57.468 50.2105 57.9373 50.2105 58.876C50.2105 59.272 50.3718 59.6167 50.6945 59.91C51.0172 60.1887 51.5305 60.328 52.2345 60.328C52.9532 60.328 53.5398 60.0933 53.9945 59.624C54.4638 59.14 54.7132 58.5387 54.7425 57.82ZM61.1222 46.908H63.7182V62H61.1222V46.908ZM75.2618 52.584C75.6285 53.0533 75.8998 53.596 76.0758 54.212C76.2665 54.828 76.3618 55.3927 76.3618 55.906C76.3618 56.4193 76.3325 56.8813 76.2738 57.292H69.3658C69.3951 58.1573 69.6078 58.8613 70.0038 59.404C70.3998 59.9467 71.0011 60.218 71.8078 60.218C72.8785 60.218 73.5165 59.7487 73.7218 58.81H76.3398C76.1638 59.8807 75.6725 60.724 74.8658 61.34C74.0298 61.9853 73.0105 62.308 71.8078 62.308C70.3998 62.308 69.2191 61.7947 68.2658 60.768C67.2831 59.6973 66.7918 58.326 66.7918 56.654C66.7918 54.938 67.2831 53.5593 68.2658 52.518C69.2045 51.5207 70.3851 51.022 71.8078 51.022C73.2891 51.022 74.4405 51.5427 75.2618 52.584ZM71.8298 53.09C71.0965 53.09 70.5245 53.332 70.1138 53.816C69.7031 54.2853 69.4611 54.894 69.3878 55.642H73.9418C73.9418 54.4833 73.5751 53.706 72.8418 53.31C72.5631 53.1633 72.2258 53.09 71.8298 53.09Z" fill="#181827"/>
</svg>
