<svg width="48" height="17" viewBox="0 0 48 17" fill="none" xmlns="http://www.w3.org/2000/svg">
<path d="M3.764 1.722L7.68 10.214L11.596 1.722H15.182V16H12.564V5.154L8.516 14.438H6.822L2.642 4.846V16H0.046V1.722H3.764ZM22.7945 9.752C23.6452 9.752 24.6278 9.89133 25.7425 10.17V9.114C25.7425 8.366 25.5885 7.816 25.2805 7.464C24.9872 7.09733 24.4958 6.914 23.8065 6.914C23.1318 6.914 22.6112 7.05333 22.2445 7.332C21.8778 7.596 21.6945 7.97733 21.6945 8.476H18.8565C18.8565 7.25867 19.2818 6.37867 20.1325 5.836C20.9978 5.29333 22.2005 5.022 23.7405 5.022C25.9405 5.022 27.3632 5.792 28.0085 7.332C28.2285 7.86 28.3385 8.48333 28.3385 9.202V16H26.0725L25.8745 14.57C25.1852 15.7287 24.1292 16.308 22.7065 16.308C21.3278 16.308 20.2572 15.9707 19.4945 15.296C18.7905 14.6507 18.4385 13.8367 18.4385 12.854C18.4385 11.8567 18.8272 11.094 19.6045 10.566C20.3818 10.0233 21.4452 9.752 22.7945 9.752ZM25.7425 11.82C24.8772 11.5853 24.0705 11.468 23.3225 11.468C21.9145 11.468 21.2105 11.9373 21.2105 12.876C21.2105 13.272 21.3718 13.6167 21.6945 13.91C22.0172 14.1887 22.5305 14.328 23.2345 14.328C23.9532 14.328 24.5398 14.0933 24.9945 13.624C25.4638 13.14 25.7132 12.5387 25.7425 11.82ZM32.1222 0.907999H34.7182V16H32.1222V0.907999ZM46.2618 6.584C46.6285 7.05333 46.8998 7.596 47.0758 8.212C47.2665 8.828 47.3618 9.39267 47.3618 9.906C47.3618 10.4193 47.3325 10.8813 47.2738 11.292H40.3658C40.3951 12.1573 40.6078 12.8613 41.0038 13.404C41.3998 13.9467 42.0011 14.218 42.8078 14.218C43.8785 14.218 44.5165 13.7487 44.7218 12.81H47.3398C47.1638 13.8807 46.6725 14.724 45.8658 15.34C45.0298 15.9853 44.0105 16.308 42.8078 16.308C41.3998 16.308 40.2191 15.7947 39.2658 14.768C38.2831 13.6973 37.7918 12.326 37.7918 10.654C37.7918 8.938 38.2831 7.55933 39.2658 6.518C40.2045 5.52067 41.3851 5.022 42.8078 5.022C44.2891 5.022 45.4405 5.54267 46.2618 6.584ZM42.8298 7.09C42.0965 7.09 41.5245 7.332 41.1138 7.816C40.7031 8.28533 40.4611 8.894 40.3878 9.642H44.9418C44.9418 8.48333 44.5751 7.706 43.8418 7.31C43.5631 7.16333 43.2258 7.09 42.8298 7.09Z" fill="#181827"/>
</svg>
