<svg width="67" height="47" viewBox="0 0 67 47" fill="none" xmlns="http://www.w3.org/2000/svg">
<path d="M12.7677 0.721999L19.0597 10.842V0.721999H21.6557V15H19.0157L12.5257 4.528V15H9.92973V0.721999H12.7677ZM29.9453 4.022C30.6639 4.022 31.3386 4.13933 31.9693 4.374C32.5999 4.594 33.1426 4.93867 33.5973 5.408C34.6093 6.43467 35.1153 7.85733 35.1153 9.676C35.1153 11.4653 34.6093 12.8733 33.5973 13.9C32.6879 14.8387 31.4706 15.308 29.9453 15.308C28.4199 15.308 27.1879 14.8387 26.2493 13.9C25.2373 12.888 24.7313 11.48 24.7313 9.676C24.7313 7.84267 25.2373 6.42 26.2493 5.408C27.1733 4.484 28.4053 4.022 29.9453 4.022ZM32.5193 9.654C32.5193 8.52467 32.2993 7.68133 31.8593 7.124C31.4193 6.552 30.8033 6.266 30.0113 6.266C29.2339 6.266 28.5959 6.552 28.0973 7.124C27.5986 7.68133 27.3493 8.52467 27.3493 9.654C27.3493 10.7833 27.5693 11.634 28.0093 12.206C28.4639 12.7633 29.0799 13.042 29.8573 13.042C30.6346 13.042 31.2726 12.7633 31.7713 12.206C32.2699 11.634 32.5193 10.7833 32.5193 9.654ZM40.7562 6.156C41.4602 4.73333 42.5895 4.022 44.1442 4.022C45.4642 4.022 46.4542 4.45467 47.1142 5.32C47.7889 6.18533 48.1262 7.32933 48.1262 8.752V15H45.5302V8.752C45.5302 7.96 45.3395 7.366 44.9582 6.97C44.5769 6.55933 44.0415 6.354 43.3522 6.354C42.6629 6.354 42.0689 6.662 41.5702 7.278C41.0862 7.894 40.8295 8.818 40.8002 10.05V15H38.2042V4.308H40.4702L40.7562 6.156ZM50.8772 7.234H57.0592V9.5H50.8772V7.234ZM0.907328 26.722H6.67133C8.25533 26.722 9.48 27.096 10.3453 27.844C11.1667 28.5333 11.5773 29.4207 11.5773 30.506C11.5773 31.3127 11.35 32.002 10.8953 32.574C10.4553 33.146 9.832 33.5493 9.02533 33.784C9.832 33.9453 10.4993 34.312 11.0273 34.884C11.5553 35.4413 11.8193 36.16 11.8193 37.04C11.8193 38.8 10.9467 40.0027 9.20133 40.648C8.54133 40.8827 7.70533 41 6.69333 41H0.907328V26.722ZM6.62733 38.734C7.46333 38.734 8.06466 38.5653 8.43133 38.228C8.81266 37.8907 9.00333 37.4433 9.00333 36.886C9.00333 36.3287 8.80533 35.8813 8.40933 35.544C8.028 35.192 7.434 35.016 6.62733 35.016H3.50333V38.734H6.62733ZM3.50333 32.75H6.56133C7.33866 32.75 7.92533 32.5813 8.32133 32.244C8.71733 31.9067 8.91533 31.452 8.91533 30.88C8.91533 30.2933 8.71733 29.8313 8.32133 29.494C7.94 29.142 7.36066 28.966 6.58333 28.966H3.50333V32.75ZM15.393 30.286H17.989V41H15.393V30.286ZM15.085 26.854C15.085 26.3847 15.2243 26.018 15.503 25.754C15.7816 25.4753 16.1776 25.336 16.691 25.336C17.1896 25.336 17.5783 25.4753 17.857 25.754C18.1503 26.018 18.297 26.3847 18.297 26.854C18.297 27.3233 18.1503 27.6973 17.857 27.976C17.5783 28.24 17.1896 28.372 16.691 28.372C16.1776 28.372 15.7816 28.24 15.503 27.976C15.2243 27.6973 15.085 27.3233 15.085 26.854ZM24.9437 32.156C25.6477 30.7333 26.777 30.022 28.3317 30.022C29.6517 30.022 30.6417 30.4547 31.3017 31.32C31.9764 32.1853 32.3137 33.3293 32.3137 34.752V41H29.7177V34.752C29.7177 33.96 29.527 33.366 29.1457 32.97C28.7644 32.5593 28.229 32.354 27.5397 32.354C26.8504 32.354 26.2564 32.662 25.7577 33.278C25.2737 33.894 25.017 34.818 24.9877 36.05V41H22.3917V30.308H24.6577L24.9437 32.156ZM39.6187 34.752C40.4694 34.752 41.4521 34.8913 42.5667 35.17V34.114C42.5667 33.366 42.4127 32.816 42.1047 32.464C41.8114 32.0973 41.3201 31.914 40.6307 31.914C39.9561 31.914 39.4354 32.0533 39.0687 32.332C38.7021 32.596 38.5187 32.9773 38.5187 33.476H35.6807C35.6807 32.2587 36.1061 31.3787 36.9567 30.836C37.8221 30.2933 39.0247 30.022 40.5647 30.022C42.7647 30.022 44.1874 30.792 44.8327 32.332C45.0527 32.86 45.1627 33.4833 45.1627 34.202V41H42.8967L42.6987 39.57C42.0094 40.7287 40.9534 41.308 39.5307 41.308C38.1521 41.308 37.0814 40.9707 36.3187 40.296C35.6147 39.6507 35.2627 38.8367 35.2627 37.854C35.2627 36.8567 35.6514 36.094 36.4287 35.566C37.2061 35.0233 38.2694 34.752 39.6187 34.752ZM42.5667 36.82C41.7014 36.5853 40.8947 36.468 40.1467 36.468C38.7387 36.468 38.0347 36.9373 38.0347 37.876C38.0347 38.272 38.1961 38.6167 38.5187 38.91C38.8414 39.1887 39.3547 39.328 40.0587 39.328C40.7774 39.328 41.3641 39.0933 41.8187 38.624C42.2881 38.14 42.5374 37.5387 42.5667 36.82ZM51.5424 32.42C52.1877 30.88 53.1557 30.11 54.4464 30.11C54.6957 30.11 55.0111 30.1613 55.3924 30.264L55.3484 32.86C54.9377 32.772 54.5344 32.728 54.1384 32.728C52.4077 32.728 51.5424 33.9233 51.5424 36.314V41H48.9464V30.286H51.5424V32.42ZM59.4187 30.308L61.9927 38.008L64.2367 30.308H66.8767L62.7847 42.936C62.3594 44.212 61.8387 45.1287 61.2227 45.686C60.6214 46.2433 59.8514 46.522 58.9127 46.522C57.9594 46.522 57.0061 46.2873 56.0527 45.818V43.53C56.8154 44.014 57.5854 44.256 58.3627 44.256C58.8761 44.256 59.2941 44.0507 59.6167 43.64C59.9541 43.2293 60.2254 42.694 60.4307 42.034L60.7607 41L56.4707 30.308H59.4187Z" fill="#181827"/>
</svg>
