<svg width="106" height="106" viewBox="0 0 106 106" fill="none" xmlns="http://www.w3.org/2000/svg">
<circle cx="53" cy="53" r="53" fill="white"/>
<path d="M32.7677 34.722L39.0597 44.842V34.722H41.6557V49H39.0157L32.5257 38.528V49H29.9297V34.722H32.7677ZM49.9453 38.022C50.6639 38.022 51.3386 38.1393 51.9693 38.374C52.5999 38.594 53.1426 38.9387 53.5973 39.408C54.6093 40.4347 55.1153 41.8573 55.1153 43.676C55.1153 45.4653 54.6093 46.8733 53.5973 47.9C52.6879 48.8387 51.4706 49.308 49.9453 49.308C48.4199 49.308 47.1879 48.8387 46.2493 47.9C45.2373 46.888 44.7313 45.48 44.7313 43.676C44.7313 41.8427 45.2373 40.42 46.2493 39.408C47.1733 38.484 48.4053 38.022 49.9453 38.022ZM52.5193 43.654C52.5193 42.5247 52.2993 41.6813 51.8593 41.124C51.4193 40.552 50.8033 40.266 50.0113 40.266C49.2339 40.266 48.5959 40.552 48.0973 41.124C47.5986 41.6813 47.3493 42.5247 47.3493 43.654C47.3493 44.7833 47.5693 45.634 48.0093 46.206C48.4639 46.7633 49.0799 47.042 49.8573 47.042C50.6346 47.042 51.2726 46.7633 51.7713 46.206C52.2699 45.634 52.5193 44.7833 52.5193 43.654ZM60.7562 40.156C61.4602 38.7333 62.5895 38.022 64.1442 38.022C65.4642 38.022 66.4542 38.4547 67.1142 39.32C67.7889 40.1853 68.1262 41.3293 68.1262 42.752V49H65.5302V42.752C65.5302 41.96 65.3395 41.366 64.9582 40.97C64.5769 40.5593 64.0415 40.354 63.3522 40.354C62.6629 40.354 62.0689 40.662 61.5702 41.278C61.0862 41.894 60.8295 42.818 60.8002 44.05V49H58.2042V38.308H60.4702L60.7562 40.156ZM70.8772 41.234H77.0592V43.5H70.8772V41.234ZM20.9073 60.722H26.6713C28.2553 60.722 29.48 61.096 30.3453 61.844C31.1667 62.5333 31.5773 63.4207 31.5773 64.506C31.5773 65.3127 31.35 66.002 30.8953 66.574C30.4553 67.146 29.832 67.5493 29.0253 67.784C29.832 67.9453 30.4993 68.312 31.0273 68.884C31.5553 69.4413 31.8193 70.16 31.8193 71.04C31.8193 72.8 30.9467 74.0027 29.2013 74.648C28.5413 74.8827 27.7053 75 26.6933 75H20.9073V60.722ZM26.6273 72.734C27.4633 72.734 28.0647 72.5653 28.4313 72.228C28.8127 71.8907 29.0033 71.4433 29.0033 70.886C29.0033 70.3287 28.8053 69.8813 28.4093 69.544C28.028 69.192 27.434 69.016 26.6273 69.016H23.5033V72.734H26.6273ZM23.5033 66.75H26.5613C27.3387 66.75 27.9253 66.5813 28.3213 66.244C28.7173 65.9067 28.9153 65.452 28.9153 64.88C28.9153 64.2933 28.7173 63.8313 28.3213 63.494C27.94 63.142 27.3607 62.966 26.5833 62.966H23.5033V66.75ZM35.393 64.286H37.989V75H35.393V64.286ZM35.085 60.854C35.085 60.3847 35.2243 60.018 35.503 59.754C35.7816 59.4753 36.1776 59.336 36.691 59.336C37.1896 59.336 37.5783 59.4753 37.857 59.754C38.1503 60.018 38.297 60.3847 38.297 60.854C38.297 61.3233 38.1503 61.6973 37.857 61.976C37.5783 62.24 37.1896 62.372 36.691 62.372C36.1776 62.372 35.7816 62.24 35.503 61.976C35.2243 61.6973 35.085 61.3233 35.085 60.854ZM44.9437 66.156C45.6477 64.7333 46.777 64.022 48.3317 64.022C49.6517 64.022 50.6417 64.4547 51.3017 65.32C51.9764 66.1853 52.3137 67.3293 52.3137 68.752V75H49.7177V68.752C49.7177 67.96 49.527 67.366 49.1457 66.97C48.7644 66.5593 48.229 66.354 47.5397 66.354C46.8504 66.354 46.2564 66.662 45.7577 67.278C45.2737 67.894 45.017 68.818 44.9877 70.05V75H42.3917V64.308H44.6577L44.9437 66.156ZM59.6187 68.752C60.4694 68.752 61.4521 68.8913 62.5667 69.17V68.114C62.5667 67.366 62.4127 66.816 62.1047 66.464C61.8114 66.0973 61.3201 65.914 60.6307 65.914C59.9561 65.914 59.4354 66.0533 59.0687 66.332C58.7021 66.596 58.5187 66.9773 58.5187 67.476H55.6807C55.6807 66.2587 56.1061 65.3787 56.9567 64.836C57.8221 64.2933 59.0247 64.022 60.5647 64.022C62.7647 64.022 64.1874 64.792 64.8327 66.332C65.0527 66.86 65.1627 67.4833 65.1627 68.202V75H62.8967L62.6987 73.57C62.0094 74.7287 60.9534 75.308 59.5307 75.308C58.1521 75.308 57.0814 74.9707 56.3187 74.296C55.6147 73.6507 55.2627 72.8367 55.2627 71.854C55.2627 70.8567 55.6514 70.094 56.4287 69.566C57.2061 69.0233 58.2694 68.752 59.6187 68.752ZM62.5667 70.82C61.7014 70.5853 60.8947 70.468 60.1467 70.468C58.7387 70.468 58.0347 70.9373 58.0347 71.876C58.0347 72.272 58.1961 72.6167 58.5187 72.91C58.8414 73.1887 59.3547 73.328 60.0587 73.328C60.7774 73.328 61.3641 73.0933 61.8187 72.624C62.2881 72.14 62.5374 71.5387 62.5667 70.82ZM71.5424 66.42C72.1877 64.88 73.1557 64.11 74.4464 64.11C74.6957 64.11 75.0111 64.1613 75.3924 64.264L75.3484 66.86C74.9377 66.772 74.5344 66.728 74.1384 66.728C72.4077 66.728 71.5424 67.9233 71.5424 70.314V75H68.9464V64.286H71.5424V66.42ZM79.4187 64.308L81.9927 72.008L84.2367 64.308H86.8767L82.7847 76.936C82.3594 78.212 81.8387 79.1287 81.2227 79.686C80.6214 80.2433 79.8514 80.522 78.9127 80.522C77.9594 80.522 77.0061 80.2873 76.0527 79.818V77.53C76.8154 78.014 77.5854 78.256 78.3627 78.256C78.8761 78.256 79.2941 78.0507 79.6167 77.64C79.9541 77.2293 80.2254 76.694 80.4307 76.034L80.7607 75L76.4707 64.308H79.4187Z" fill="#181827"/>
</svg>
