<svg width="102" height="19" viewBox="0 0 102 19" fill="none" xmlns="http://www.w3.org/2000/svg">
<path d="M6.90994 2.112C7.86994 2.112 8.70194 2.232 9.40594 2.472C10.1099 2.696 10.7179 3.016 11.2299 3.432C12.2379 4.248 12.8939 5.392 13.1979 6.864L10.1739 7.416C9.91794 6.6 9.51794 5.944 8.97394 5.448C8.44594 4.936 7.78194 4.68 6.98194 4.68C5.89394 4.68 5.01394 5.136 4.34194 6.048C3.62194 7.04 3.26194 8.416 3.26194 10.176C3.26194 11.92 3.58194 13.288 4.22194 14.28C4.86194 15.256 5.73394 15.744 6.83794 15.744C7.94194 15.744 8.77394 15.48 9.33394 14.952C9.89394 14.408 10.1739 13.712 10.1739 12.864H13.2219C13.2219 14.608 12.6619 15.96 11.5419 16.92C10.4379 17.864 8.91794 18.336 6.98194 18.336C4.91794 18.336 3.27794 17.616 2.06194 16.176C0.829938 14.704 0.213938 12.704 0.213938 10.176C0.213938 7.616 0.845938 5.616 2.10994 4.176C3.32594 2.8 4.92594 2.112 6.90994 2.112ZM21.1129 6.024C21.8969 6.024 22.6329 6.152 23.3209 6.408C24.0089 6.648 24.6009 7.024 25.0969 7.536C26.2009 8.656 26.7529 10.208 26.7529 12.192C26.7529 14.144 26.2009 15.68 25.0969 16.8C24.1049 17.824 22.7769 18.336 21.1129 18.336C19.4489 18.336 18.1049 17.824 17.0809 16.8C15.9769 15.696 15.4249 14.16 15.4249 12.192C15.4249 10.192 15.9769 8.64 17.0809 7.536C18.0889 6.528 19.4329 6.024 21.1129 6.024ZM23.9209 12.168C23.9209 10.936 23.6809 10.016 23.2009 9.408C22.7209 8.784 22.0489 8.472 21.1849 8.472C20.3369 8.472 19.6409 8.784 19.0969 9.408C18.5529 10.016 18.2809 10.936 18.2809 12.168C18.2809 13.4 18.5209 14.328 19.0009 14.952C19.4969 15.56 20.1689 15.864 21.0169 15.864C21.8649 15.864 22.5609 15.56 23.1049 14.952C23.6489 14.328 23.9209 13.4 23.9209 12.168ZM32.9066 8.352C33.6746 6.8 34.9066 6.024 36.6026 6.024C38.0426 6.024 39.1226 6.496 39.8426 7.44C40.5786 8.384 40.9466 9.632 40.9466 11.184V18H38.1146V11.184C38.1146 10.32 37.9066 9.672 37.4906 9.24C37.0746 8.792 36.4906 8.568 35.7386 8.568C34.9866 8.568 34.3386 8.904 33.7946 9.576C33.2666 10.248 32.9866 11.256 32.9546 12.6V18H30.1226V6.336H32.5946L32.9066 8.352ZM51.6518 17.712C50.5958 18.128 49.7638 18.336 49.1558 18.336C48.5478 18.336 48.0118 18.264 47.5478 18.12C47.0998 17.976 46.6998 17.76 46.3478 17.472C45.6118 16.816 45.2438 15.912 45.2438 14.76V8.232H43.6118V6.336H45.2438V3.264H48.0758V6.336H51.2438V8.232H48.0758V14.664C48.0758 15.624 48.5318 16.104 49.4438 16.104C49.9078 16.104 50.5078 15.976 51.2438 15.72L51.6518 17.712ZM54.7845 6.312H57.6165V18H54.7845V6.312ZM54.4485 2.568C54.4485 2.056 54.6005 1.656 54.9045 1.368C55.2085 1.064 55.6405 0.912 56.2005 0.912C56.7445 0.912 57.1685 1.064 57.4725 1.368C57.7925 1.656 57.9525 2.056 57.9525 2.568C57.9525 3.08 57.7925 3.488 57.4725 3.792C57.1685 4.08 56.7445 4.224 56.2005 4.224C55.6405 4.224 55.2085 4.08 54.9045 3.792C54.6005 3.488 54.4485 3.08 54.4485 2.568ZM65.2035 8.352C65.9715 6.8 67.2035 6.024 68.8995 6.024C70.3395 6.024 71.4195 6.496 72.1395 7.44C72.8755 8.384 73.2435 9.632 73.2435 11.184V18H70.4115V11.184C70.4115 10.32 70.2035 9.672 69.7875 9.24C69.3715 8.792 68.7875 8.568 68.0355 8.568C67.2835 8.568 66.6355 8.904 66.0915 9.576C65.5635 10.248 65.2835 11.256 65.2515 12.6V18H62.4195V6.336H64.8915L65.2035 8.352ZM85.1246 15.888C84.3886 17.44 83.2046 18.216 81.5726 18.216C79.5086 18.216 78.1486 17.408 77.4926 15.792C77.2526 15.232 77.1326 14.552 77.1326 13.752V6.312H79.9646V13.464C79.9646 14.232 80.1486 14.808 80.5166 15.192C80.8846 15.56 81.3326 15.744 81.8606 15.744C82.4046 15.744 82.8606 15.672 83.2286 15.528C83.5966 15.368 83.9166 15.136 84.1886 14.832C84.7806 14.144 85.0926 13.224 85.1246 12.072V6.312H87.9566V18H85.1246V15.888ZM100.556 7.728C100.956 8.24 101.252 8.832 101.444 9.504C101.652 10.176 101.756 10.792 101.756 11.352C101.756 11.912 101.724 12.416 101.66 12.864H94.1235C94.1555 13.808 94.3875 14.576 94.8195 15.168C95.2515 15.76 95.9075 16.056 96.7875 16.056C97.9555 16.056 98.6515 15.544 98.8755 14.52H101.732C101.54 15.688 101.004 16.608 100.124 17.28C99.2115 17.984 98.0995 18.336 96.7875 18.336C95.2515 18.336 93.9635 17.776 92.9235 16.656C91.8515 15.488 91.3155 13.992 91.3155 12.168C91.3155 10.296 91.8515 8.792 92.9235 7.656C93.9475 6.568 95.2355 6.024 96.7875 6.024C98.4035 6.024 99.6595 6.592 100.556 7.728ZM96.8115 8.28C96.0115 8.28 95.3875 8.544 94.9395 9.072C94.4915 9.584 94.2275 10.248 94.1475 11.064H99.1155C99.1155 9.8 98.7155 8.952 97.9155 8.52C97.6115 8.36 97.2435 8.28 96.8115 8.28Z" fill="#181827"/>
</svg>
