<svg width="189" height="24" viewBox="0 0 189 24" fill="none" xmlns="http://www.w3.org/2000/svg">
<path d="M3.2515 14.528H9.6595V17H0.4195V1.424H3.2515V14.528ZM20.4149 6.728C20.8149 7.24 21.1109 7.832 21.3029 8.504C21.5109 9.176 21.6149 9.792 21.6149 10.352C21.6149 10.912 21.5829 11.416 21.5189 11.864H13.9829C14.0149 12.808 14.2469 13.576 14.6789 14.168C15.1109 14.76 15.7669 15.056 16.6469 15.056C17.8149 15.056 18.5109 14.544 18.7349 13.52H21.5909C21.3989 14.688 20.8629 15.608 19.9829 16.28C19.0709 16.984 17.9589 17.336 16.6469 17.336C15.1109 17.336 13.8229 16.776 12.7829 15.656C11.7109 14.488 11.1749 12.992 11.1749 11.168C11.1749 9.296 11.7109 7.792 12.7829 6.656C13.8069 5.568 15.0949 5.024 16.6469 5.024C18.2629 5.024 19.5189 5.592 20.4149 6.728ZM16.6709 7.28C15.8709 7.28 15.2469 7.544 14.7989 8.072C14.3509 8.584 14.0869 9.248 14.0069 10.064H18.9749C18.9749 8.8 18.5749 7.952 17.7749 7.52C17.4709 7.36 17.1029 7.28 16.6709 7.28ZM31.5814 16.712C30.5254 17.128 29.6934 17.336 29.0854 17.336C28.4774 17.336 27.9414 17.264 27.4774 17.12C27.0294 16.976 26.6294 16.76 26.2774 16.472C25.5414 15.816 25.1734 14.912 25.1734 13.76V7.232H23.5414V5.336H25.1734V2.264H28.0054V5.336H31.1734V7.232H28.0054V13.664C28.0054 14.624 28.4614 15.104 29.3734 15.104C29.8374 15.104 30.4374 14.976 31.1734 14.72L31.5814 16.712ZM33.5382 3.056C33.5382 2.576 33.7222 2.176 34.0902 1.856C34.4582 1.52 34.9542 1.352 35.5782 1.352C36.2182 1.352 36.7382 1.608 37.1382 2.12C37.5542 2.616 37.7622 3.24 37.7622 3.992C37.7622 4.728 37.4982 5.456 36.9702 6.176C36.4582 6.896 35.7702 7.472 34.9062 7.904L32.9382 6.824C34.1702 6.2 34.9142 5.496 35.1702 4.712C34.7062 4.632 34.3142 4.456 33.9942 4.184C33.6902 3.912 33.5382 3.536 33.5382 3.056ZM42.5738 13.448C42.6058 14.552 43.4138 15.104 44.9978 15.104C45.6058 15.104 46.1018 14.976 46.4858 14.72C46.8858 14.448 47.0858 14.136 47.0858 13.784C47.0858 13.432 46.9658 13.16 46.7258 12.968C46.4858 12.776 46.1098 12.6 45.5978 12.44L43.0538 11.528C41.1658 10.872 40.2218 9.8 40.2218 8.312C40.2218 7.32 40.6618 6.528 41.5418 5.936C42.4378 5.328 43.6298 5.024 45.1178 5.024C46.6218 5.024 47.7738 5.352 48.5738 6.008C49.3898 6.664 49.8138 7.488 49.8458 8.48H47.1818C47.1498 8.096 46.9658 7.792 46.6298 7.568C46.2938 7.344 45.8138 7.232 45.1898 7.232C44.5658 7.232 44.0778 7.36 43.7258 7.616C43.3898 7.856 43.2218 8.136 43.2218 8.456C43.2218 9.016 43.6938 9.432 44.6378 9.704L47.3978 10.736C48.3098 11.04 49.0058 11.432 49.4858 11.912C49.9818 12.376 50.2298 12.984 50.2298 13.736C50.2298 14.696 49.7738 15.528 48.8618 16.232C47.9178 16.968 46.6698 17.336 45.1178 17.336C43.5658 17.336 42.3178 17 41.3738 16.328C40.4298 15.64 39.9498 14.68 39.9338 13.448H42.5738ZM60.7244 12.224C59.7804 11.424 59.3084 10.424 59.3084 9.224C59.3084 7.96 59.8044 6.936 60.7964 6.152C61.7564 5.4 62.8524 5.024 64.0844 5.024C65.3324 5.024 66.3724 5.256 67.2044 5.72C67.3004 4.808 67.6924 4.072 68.3804 3.512C69.0524 2.952 69.8444 2.672 70.7564 2.672L70.6124 5.384C69.2364 5.384 68.5244 5.84 68.4764 6.752C69.0684 7.488 69.3644 8.24 69.3644 9.008C69.3644 9.776 69.2284 10.424 68.9564 10.952C68.6844 11.464 68.3164 11.896 67.8524 12.248C66.8924 13.016 65.7244 13.4 64.3484 13.4C63.5644 13.4 62.8524 13.28 62.2124 13.04C61.5724 13.232 61.2524 13.616 61.2524 14.192C61.2524 14.912 61.8604 15.272 63.0764 15.272H66.9884C69.6444 15.272 70.9724 16.2 70.9724 18.056C70.9724 18.68 70.8124 19.288 70.4924 19.88C70.1884 20.488 69.7404 21.024 69.1484 21.488C67.8364 22.512 66.1884 23.024 64.2044 23.024C62.2844 23.024 60.7244 22.632 59.5244 21.848C58.4044 21.096 57.8444 20.176 57.8444 19.088C57.8444 18.368 58.0604 17.792 58.4924 17.36C58.9404 16.944 59.5244 16.68 60.2444 16.568C59.3004 15.992 58.8284 15.28 58.8284 14.432C58.8284 13.872 59.0044 13.408 59.3564 13.04C59.7084 12.656 60.1644 12.384 60.7244 12.224ZM62.8844 17.264C61.3804 17.328 60.6284 17.896 60.6284 18.968C60.6284 19.512 60.9404 19.944 61.5644 20.264C62.2044 20.6 62.9564 20.768 63.8204 20.768C64.6844 20.768 65.3564 20.696 65.8364 20.552C66.3324 20.408 66.7484 20.216 67.0844 19.976C67.8044 19.496 68.1644 18.92 68.1644 18.248C68.1644 17.96 68.0604 17.72 67.8524 17.528C67.6604 17.352 67.3724 17.264 66.9884 17.264H62.8844ZM66.5564 9.2C66.5564 8.544 66.3724 8.016 66.0044 7.616C65.6524 7.2 65.1084 6.992 64.3724 6.992C63.6364 6.992 63.0764 7.2 62.6924 7.616C62.3084 8.016 62.1164 8.544 62.1164 9.2C62.1164 9.84 62.3084 10.368 62.6924 10.784C63.0764 11.2 63.6364 11.408 64.3724 11.408C65.1084 11.408 65.6524 11.2 66.0044 10.784C66.3724 10.368 66.5564 9.84 66.5564 9.2ZM81.8211 6.728C82.2211 7.24 82.5171 7.832 82.7091 8.504C82.9171 9.176 83.0211 9.792 83.0211 10.352C83.0211 10.912 82.9891 11.416 82.9251 11.864H75.3891C75.4211 12.808 75.6531 13.576 76.0851 14.168C76.5171 14.76 77.1731 15.056 78.0531 15.056C79.2211 15.056 79.9171 14.544 80.1411 13.52H82.9971C82.8051 14.688 82.2691 15.608 81.3891 16.28C80.4771 16.984 79.3651 17.336 78.0531 17.336C76.5171 17.336 75.2291 16.776 74.1891 15.656C73.1171 14.488 72.5811 12.992 72.5811 11.168C72.5811 9.296 73.1171 7.792 74.1891 6.656C75.2131 5.568 76.5011 5.024 78.0531 5.024C79.6691 5.024 80.9251 5.592 81.8211 6.728ZM78.0771 7.28C77.2771 7.28 76.6531 7.544 76.2051 8.072C75.7571 8.584 75.4931 9.248 75.4131 10.064H80.3811C80.3811 8.8 79.9811 7.952 79.1811 7.52C78.8771 7.36 78.5091 7.28 78.0771 7.28ZM92.9877 16.712C91.9317 17.128 91.0997 17.336 90.4917 17.336C89.8837 17.336 89.3477 17.264 88.8837 17.12C88.4357 16.976 88.0357 16.76 87.6837 16.472C86.9477 15.816 86.5797 14.912 86.5797 13.76V7.232H84.9477V5.336H86.5797V2.264H89.4117V5.336H92.5797V7.232H89.4117V13.664C89.4117 14.624 89.8677 15.104 90.7797 15.104C91.2437 15.104 91.8437 14.976 92.5797 14.72L92.9877 16.712ZM103.535 13.448C103.567 14.552 104.375 15.104 105.959 15.104C106.567 15.104 107.063 14.976 107.447 14.72C107.847 14.448 108.047 14.136 108.047 13.784C108.047 13.432 107.927 13.16 107.687 12.968C107.447 12.776 107.071 12.6 106.559 12.44L104.015 11.528C102.127 10.872 101.183 9.8 101.183 8.312C101.183 7.32 101.623 6.528 102.503 5.936C103.399 5.328 104.591 5.024 106.079 5.024C107.583 5.024 108.735 5.352 109.535 6.008C110.351 6.664 110.775 7.488 110.807 8.48H108.143C108.111 8.096 107.927 7.792 107.591 7.568C107.255 7.344 106.775 7.232 106.151 7.232C105.527 7.232 105.039 7.36 104.687 7.616C104.351 7.856 104.183 8.136 104.183 8.456C104.183 9.016 104.655 9.432 105.599 9.704L108.359 10.736C109.271 11.04 109.967 11.432 110.447 11.912C110.943 12.376 111.191 12.984 111.191 13.736C111.191 14.696 110.735 15.528 109.823 16.232C108.879 16.968 107.631 17.336 106.079 17.336C104.527 17.336 103.279 17 102.335 16.328C101.391 15.64 100.911 14.68 100.895 13.448H103.535ZM121.183 16.712C120.127 17.128 119.295 17.336 118.687 17.336C118.079 17.336 117.543 17.264 117.079 17.12C116.631 16.976 116.231 16.76 115.879 16.472C115.143 15.816 114.775 14.912 114.775 13.76V7.232H113.143V5.336H114.775V2.264H117.607V5.336H120.775V7.232H117.607V13.664C117.607 14.624 118.063 15.104 118.975 15.104C119.439 15.104 120.039 14.976 120.775 14.72L121.183 16.712ZM127.916 10.184C128.844 10.184 129.916 10.336 131.132 10.64V9.488C131.132 8.672 130.964 8.072 130.628 7.688C130.308 7.288 129.772 7.088 129.02 7.088C128.284 7.088 127.716 7.24 127.316 7.544C126.916 7.832 126.716 8.248 126.716 8.792H123.62C123.62 7.464 124.084 6.504 125.012 5.912C125.956 5.32 127.268 5.024 128.948 5.024C131.348 5.024 132.9 5.864 133.604 7.544C133.844 8.12 133.964 8.8 133.964 9.584V17H131.492L131.276 15.44C130.524 16.704 129.372 17.336 127.82 17.336C126.316 17.336 125.148 16.968 124.316 16.232C123.548 15.528 123.164 14.64 123.164 13.568C123.164 12.48 123.588 11.648 124.436 11.072C125.284 10.48 126.444 10.184 127.916 10.184ZM131.132 12.44C130.188 12.184 129.308 12.056 128.492 12.056C126.956 12.056 126.188 12.568 126.188 13.592C126.188 14.024 126.364 14.4 126.716 14.72C127.068 15.024 127.628 15.176 128.396 15.176C129.18 15.176 129.82 14.92 130.316 14.408C130.828 13.88 131.1 13.224 131.132 12.44ZM140.923 7.64C141.627 5.96 142.683 5.12 144.091 5.12C144.363 5.12 144.707 5.176 145.123 5.288L145.075 8.12C144.627 8.024 144.187 7.976 143.755 7.976C141.867 7.976 140.923 9.28 140.923 11.888V17H138.091V5.312H140.923V7.64ZM154.652 16.712C153.596 17.128 152.764 17.336 152.156 17.336C151.548 17.336 151.012 17.264 150.548 17.12C150.1 16.976 149.7 16.76 149.348 16.472C148.612 15.816 148.244 14.912 148.244 13.76V7.232H146.612V5.336H148.244V2.264H151.076V5.336H154.244V7.232H151.076V13.664C151.076 14.624 151.532 15.104 152.444 15.104C152.908 15.104 153.508 14.976 154.244 14.72L154.652 16.712ZM165.681 6.728C166.081 7.24 166.377 7.832 166.569 8.504C166.777 9.176 166.881 9.792 166.881 10.352C166.881 10.912 166.849 11.416 166.785 11.864H159.249C159.281 12.808 159.513 13.576 159.945 14.168C160.377 14.76 161.033 15.056 161.913 15.056C163.081 15.056 163.777 14.544 164.001 13.52H166.857C166.665 14.688 166.129 15.608 165.249 16.28C164.337 16.984 163.225 17.336 161.913 17.336C160.377 17.336 159.089 16.776 158.049 15.656C156.977 14.488 156.441 12.992 156.441 11.168C156.441 9.296 156.977 7.792 158.049 6.656C159.073 5.568 160.361 5.024 161.913 5.024C163.529 5.024 164.785 5.592 165.681 6.728ZM161.937 7.28C161.137 7.28 160.513 7.544 160.065 8.072C159.617 8.584 159.353 9.248 159.273 10.064H164.241C164.241 8.8 163.841 7.952 163.041 7.52C162.737 7.36 162.369 7.28 161.937 7.28ZM177.879 15.2C177.159 16.624 176.055 17.336 174.567 17.336C173.079 17.336 171.831 16.768 170.823 15.632C169.783 14.448 169.263 12.944 169.263 11.12C169.263 9.296 169.759 7.816 170.751 6.68C171.727 5.576 172.943 5.024 174.399 5.024C175.855 5.024 176.951 5.608 177.687 6.776V0.535999H180.543V17H178.215L177.879 15.2ZM174.927 7.568C174.127 7.568 173.455 7.896 172.911 8.552C172.383 9.192 172.119 10.056 172.119 11.144C172.119 12.232 172.391 13.112 172.935 13.784C173.479 14.44 174.167 14.768 174.999 14.768C175.687 14.768 176.303 14.496 176.847 13.952C177.407 13.392 177.687 12.688 177.687 11.84V10.328C177.655 9.496 177.375 8.816 176.847 8.288C176.367 7.808 175.727 7.568 174.927 7.568ZM184.845 1.064H187.917L187.581 11.744H185.157L184.845 1.064ZM186.381 17.216C185.805 17.216 185.333 17.04 184.965 16.688C184.597 16.336 184.413 15.888 184.413 15.344C184.413 14.8 184.597 14.344 184.965 13.976C185.333 13.608 185.805 13.424 186.381 13.424C186.957 13.424 187.437 13.608 187.821 13.976C188.205 14.344 188.397 14.8 188.397 15.344C188.397 15.888 188.205 16.336 187.821 16.688C187.437 17.04 186.957 17.216 186.381 17.216Z" fill="#181827"/>
</svg>
