<svg width="108" height="24" viewBox="0 0 108 24" fill="none" xmlns="http://www.w3.org/2000/svg">
<path d="M10.8144 6.72C10.5584 5.36 9.59844 4.68 7.93444 4.68C7.11844 4.68 6.47844 4.848 6.01444 5.184C5.56644 5.504 5.34244 5.896 5.34244 6.36C5.34244 6.824 5.48644 7.192 5.77444 7.464C6.07844 7.72 6.54244 7.96 7.16644 8.184L10.5504 9.504C11.7024 9.952 12.5904 10.52 13.2144 11.208C13.8384 11.88 14.1504 12.728 14.1504 13.752C14.1504 15.16 13.6224 16.28 12.5664 17.112C11.5104 17.928 10.0064 18.336 8.05444 18.336C6.32644 18.336 4.92644 17.912 3.85444 17.064C2.65444 16.136 2.02244 14.824 1.95844 13.128H4.76644C4.76644 14.408 5.43044 15.216 6.75844 15.552C7.15844 15.664 7.68644 15.72 8.34244 15.72C8.99844 15.72 9.60644 15.56 10.1664 15.24C10.7264 14.904 11.0064 14.464 11.0064 13.92C11.0064 13.36 10.8544 12.936 10.5504 12.648C10.2464 12.344 9.75044 12.064 9.06244 11.808L5.96644 10.584C4.76644 10.12 3.84644 9.576 3.20644 8.952C2.56644 8.328 2.24644 7.464 2.24644 6.36C2.24644 5.064 2.75044 4.04 3.75844 3.288C4.78244 2.504 6.16644 2.112 7.91044 2.112C9.67044 2.112 11.0224 2.52 11.9664 3.336C12.9264 4.136 13.4784 5.264 13.6224 6.72H10.8144ZM22.0631 12.312L20.7671 13.392V18H17.9351V1.536H20.7671V10.44L25.3751 6.336H29.2151L24.0551 10.656L29.5031 18H26.0471L22.0631 12.312ZM31.9798 6.312H34.8118V18H31.9798V6.312ZM31.6438 2.568C31.6438 2.056 31.7958 1.656 32.0998 1.368C32.4038 1.064 32.8358 0.912 33.3958 0.912C33.9398 0.912 34.3638 1.064 34.6678 1.368C34.9878 1.656 35.1478 2.056 35.1478 2.568C35.1478 3.08 34.9878 3.488 34.6678 3.792C34.3638 4.08 33.9398 4.224 33.3958 4.224C32.8358 4.224 32.4038 4.08 32.0998 3.792C31.7958 3.488 31.6438 3.08 31.6438 2.568ZM42.2068 7.92C42.9428 6.656 44.0628 6.024 45.5668 6.024C47.0068 6.024 48.2388 6.568 49.2628 7.656C50.3508 8.808 50.8948 10.312 50.8948 12.168C50.8948 14.04 50.3428 15.552 49.2388 16.704C48.2148 17.792 46.9908 18.336 45.5668 18.336C44.1428 18.336 43.1028 17.912 42.4468 17.064V23.688H39.6148V6.336H41.9428L42.2068 7.92ZM45.0628 15.768C45.3988 15.768 45.7428 15.696 46.0948 15.552C46.4628 15.408 46.7908 15.184 47.0788 14.88C47.7188 14.208 48.0388 13.312 48.0388 12.192C48.0388 11.056 47.7588 10.168 47.1988 9.528C46.6548 8.888 45.9828 8.568 45.1828 8.568C44.3988 8.568 43.7508 8.8 43.2388 9.264C42.7428 9.712 42.4788 10.36 42.4468 11.208V13.296C42.4468 14.048 42.7108 14.656 43.2388 15.12C43.7348 15.552 44.3428 15.768 45.0628 15.768ZM61.9176 14.448C61.9496 15.552 62.7576 16.104 64.3416 16.104C64.9496 16.104 65.4456 15.976 65.8296 15.72C66.2296 15.448 66.4296 15.136 66.4296 14.784C66.4296 14.432 66.3096 14.16 66.0696 13.968C65.8296 13.776 65.4536 13.6 64.9416 13.44L62.3976 12.528C60.5096 11.872 59.5656 10.8 59.5656 9.312C59.5656 8.32 60.0056 7.528 60.8856 6.936C61.7816 6.328 62.9736 6.024 64.4616 6.024C65.9656 6.024 67.1176 6.352 67.9176 7.008C68.7336 7.664 69.1576 8.488 69.1896 9.48H66.5256C66.4936 9.096 66.3096 8.792 65.9736 8.568C65.6376 8.344 65.1576 8.232 64.5336 8.232C63.9096 8.232 63.4216 8.36 63.0696 8.616C62.7336 8.856 62.5656 9.136 62.5656 9.456C62.5656 10.016 63.0376 10.432 63.9816 10.704L66.7416 11.736C67.6536 12.04 68.3496 12.432 68.8296 12.912C69.3256 13.376 69.5736 13.984 69.5736 14.736C69.5736 15.696 69.1176 16.528 68.2056 17.232C67.2616 17.968 66.0136 18.336 64.4616 18.336C62.9096 18.336 61.6616 18 60.7176 17.328C59.7736 16.64 59.2936 15.68 59.2776 14.448H61.9176ZM79.5658 17.712C78.5098 18.128 77.6778 18.336 77.0698 18.336C76.4618 18.336 75.9258 18.264 75.4618 18.12C75.0138 17.976 74.6138 17.76 74.2618 17.472C73.5258 16.816 73.1578 15.912 73.1578 14.76V8.232H71.5258V6.336H73.1578V3.264H75.9898V6.336H79.1578V8.232H75.9898V14.664C75.9898 15.624 76.4458 16.104 77.3578 16.104C77.8218 16.104 78.4218 15.976 79.1578 15.72L79.5658 17.712ZM90.5946 7.728C90.9946 8.24 91.2906 8.832 91.4826 9.504C91.6906 10.176 91.7946 10.792 91.7946 11.352C91.7946 11.912 91.7626 12.416 91.6986 12.864H84.1626C84.1946 13.808 84.4266 14.576 84.8586 15.168C85.2906 15.76 85.9466 16.056 86.8266 16.056C87.9946 16.056 88.6906 15.544 88.9146 14.52H91.7706C91.5786 15.688 91.0426 16.608 90.1626 17.28C89.2506 17.984 88.1386 18.336 86.8266 18.336C85.2906 18.336 84.0026 17.776 82.9626 16.656C81.8906 15.488 81.3546 13.992 81.3546 12.168C81.3546 10.296 81.8906 8.792 82.9626 7.656C83.9866 6.568 85.2746 6.024 86.8266 6.024C88.4426 6.024 89.6986 6.592 90.5946 7.728ZM86.8506 8.28C86.0506 8.28 85.4266 8.544 84.9786 9.072C84.5306 9.584 84.2666 10.248 84.1866 11.064H89.1546C89.1546 9.8 88.7546 8.952 87.9546 8.52C87.6506 8.36 87.2826 8.28 86.8506 8.28ZM97.7771 7.92C98.5131 6.656 99.6331 6.024 101.137 6.024C102.577 6.024 103.809 6.568 104.833 7.656C105.921 8.808 106.465 10.312 106.465 12.168C106.465 14.04 105.913 15.552 104.809 16.704C103.785 17.792 102.561 18.336 101.137 18.336C99.7131 18.336 98.6731 17.912 98.0171 17.064V23.688H95.1851V6.336H97.5131L97.7771 7.92ZM100.633 15.768C100.969 15.768 101.313 15.696 101.665 15.552C102.033 15.408 102.361 15.184 102.649 14.88C103.289 14.208 103.609 13.312 103.609 12.192C103.609 11.056 103.329 10.168 102.769 9.528C102.225 8.888 101.553 8.568 100.753 8.568C99.9691 8.568 99.3211 8.8 98.8091 9.264C98.3131 9.712 98.0491 10.36 98.0171 11.208V13.296C98.0171 14.048 98.2811 14.656 98.8091 15.12C99.3051 15.552 99.9131 15.768 100.633 15.768Z" fill="white"/>
<path d="M0.398438 20.4H107.593V21.6H0.398438V20.4Z" fill="white"/>
</svg>
