<svg width="165" height="107" viewBox="0 0 165 107" fill="none" xmlns="http://www.w3.org/2000/svg">
<path d="M0.12 1.02H10.52V3.06H6.5V14H4.14V3.06H0.12V1.02ZM14.8645 5.86C15.5312 4.63333 16.5045 4.02 17.7845 4.02C19.0645 4.02 20.0045 4.41333 20.6045 5.2C21.2179 5.98667 21.5245 7.02667 21.5245 8.32V14H19.1645V8.32C19.1645 7.6 18.9912 7.06 18.6445 6.7C18.2979 6.32667 17.8112 6.14 17.1845 6.14C16.5579 6.14 16.0179 6.42 15.5645 6.98C15.1245 7.54 14.8912 8.38 14.8645 9.5V14H12.5045V0.279999H14.8645V5.86ZM28.1655 8.32C28.9388 8.32 29.8321 8.44667 30.8455 8.7V7.74C30.8455 7.06 30.7055 6.56 30.4255 6.24C30.1588 5.90667 29.7121 5.74 29.0855 5.74C28.4721 5.74 27.9988 5.86667 27.6655 6.12C27.3321 6.36 27.1655 6.70667 27.1655 7.16H24.5855C24.5855 6.05333 24.9721 5.25333 25.7455 4.76C26.5321 4.26667 27.6255 4.02 29.0255 4.02C31.0255 4.02 32.3188 4.72 32.9055 6.12C33.1055 6.6 33.2055 7.16667 33.2055 7.82V14H31.1455L30.9655 12.7C30.3388 13.7533 29.3788 14.28 28.0855 14.28C26.8321 14.28 25.8588 13.9733 25.1655 13.36C24.5255 12.7733 24.2055 12.0333 24.2055 11.14C24.2055 10.2333 24.5588 9.54 25.2655 9.06C25.9721 8.56667 26.9388 8.32 28.1655 8.32ZM30.8455 10.2C30.0588 9.98667 29.3255 9.88 28.6455 9.88C27.3655 9.88 26.7255 10.3067 26.7255 11.16C26.7255 11.52 26.8721 11.8333 27.1655 12.1C27.4588 12.3533 27.9255 12.48 28.5655 12.48C29.2188 12.48 29.7521 12.2667 30.1655 11.84C30.5921 11.4 30.8188 10.8533 30.8455 10.2ZM38.9652 5.96C39.6052 4.66667 40.6318 4.02 42.0452 4.02C43.2452 4.02 44.1452 4.41333 44.7452 5.2C45.3585 5.98667 45.6652 7.02667 45.6652 8.32V14H43.3052V8.32C43.3052 7.6 43.1318 7.06 42.7852 6.7C42.4385 6.32667 41.9518 6.14 41.3252 6.14C40.6985 6.14 40.1585 6.42 39.7052 6.98C39.2652 7.54 39.0318 8.38 39.0052 9.5V14H36.6452V4.28H38.7052L38.9652 5.96ZM52.5461 9.26L51.4661 10.16V14H49.1061V0.279999H51.4661V7.7L55.3061 4.28H58.5061L54.2061 7.88L58.7461 14H55.8661L52.5461 9.26ZM61.93 11.04C61.9567 11.96 62.63 12.42 63.95 12.42C64.4567 12.42 64.87 12.3133 65.19 12.1C65.5233 11.8733 65.69 11.6133 65.69 11.32C65.69 11.0267 65.59 10.8 65.39 10.64C65.19 10.48 64.8767 10.3333 64.45 10.2L62.33 9.44C60.7567 8.89333 59.97 8 59.97 6.76C59.97 5.93333 60.3367 5.27333 61.07 4.78C61.8167 4.27333 62.81 4.02 64.05 4.02C65.3033 4.02 66.2633 4.29333 66.93 4.84C67.61 5.38667 67.9633 6.07333 67.99 6.9H65.77C65.7433 6.58 65.59 6.32667 65.31 6.14C65.03 5.95333 64.63 5.86 64.11 5.86C63.59 5.86 63.1833 5.96667 62.89 6.18C62.61 6.38 62.47 6.61333 62.47 6.88C62.47 7.34667 62.8633 7.69333 63.65 7.92L65.95 8.78C66.71 9.03333 67.29 9.36 67.69 9.76C68.1033 10.1467 68.31 10.6533 68.31 11.28C68.31 12.08 67.93 12.7733 67.17 13.36C66.3833 13.9733 65.3433 14.28 64.05 14.28C62.7567 14.28 61.7167 14 60.93 13.44C60.1433 12.8667 59.7433 12.0667 59.73 11.04H61.93ZM71.0169 0.719999H73.5769L73.2969 9.62H71.2769L71.0169 0.719999ZM72.2969 14.18C71.8169 14.18 71.4235 14.0333 71.1169 13.74C70.8102 13.4467 70.6569 13.0733 70.6569 12.62C70.6569 12.1667 70.8102 11.7867 71.1169 11.48C71.4235 11.1733 71.8169 11.02 72.2969 11.02C72.7769 11.02 73.1769 11.1733 73.4969 11.48C73.8169 11.7867 73.9769 12.1667 73.9769 12.62C73.9769 13.0733 73.8169 13.4467 73.4969 13.74C73.1769 14.0333 72.7769 14.18 72.2969 14.18ZM83.2548 1.02L86.1148 10.88L88.8948 1.88H90.4948L93.4348 10.92L96.4748 1.02H99.1348L94.6748 14H92.1948L89.7548 6.68L87.3348 14H84.8548L80.6148 1.02H83.2548ZM103.751 5.86C104.418 4.63333 105.391 4.02 106.671 4.02C107.951 4.02 108.891 4.41333 109.491 5.2C110.105 5.98667 110.411 7.02667 110.411 8.32V14H108.051V8.32C108.051 7.6 107.878 7.06 107.531 6.7C107.185 6.32667 106.698 6.14 106.071 6.14C105.445 6.14 104.905 6.42 104.451 6.98C104.011 7.54 103.778 8.38 103.751 9.5V14H101.391V0.279999H103.751V5.86ZM117.052 8.32C117.826 8.32 118.719 8.44667 119.732 8.7V7.74C119.732 7.06 119.592 6.56 119.312 6.24C119.046 5.90667 118.599 5.74 117.972 5.74C117.359 5.74 116.886 5.86667 116.552 6.12C116.219 6.36 116.052 6.70667 116.052 7.16H113.472C113.472 6.05333 113.859 5.25333 114.632 4.76C115.419 4.26667 116.512 4.02 117.912 4.02C119.912 4.02 121.206 4.72 121.792 6.12C121.992 6.6 122.092 7.16667 122.092 7.82V14H120.032L119.852 12.7C119.226 13.7533 118.266 14.28 116.972 14.28C115.719 14.28 114.746 13.9733 114.052 13.36C113.412 12.7733 113.092 12.0333 113.092 11.14C113.092 10.2333 113.446 9.54 114.152 9.06C114.859 8.56667 115.826 8.32 117.052 8.32ZM119.732 10.2C118.946 9.98667 118.212 9.88 117.532 9.88C116.252 9.88 115.612 10.3067 115.612 11.16C115.612 11.52 115.759 11.8333 116.052 12.1C116.346 12.3533 116.812 12.48 117.452 12.48C118.106 12.48 118.639 12.2667 119.052 11.84C119.479 11.4 119.706 10.8533 119.732 10.2ZM131.012 13.76C130.132 14.1067 129.439 14.28 128.932 14.28C128.425 14.28 127.979 14.22 127.592 14.1C127.219 13.98 126.885 13.8 126.592 13.56C125.979 13.0133 125.672 12.26 125.672 11.3V5.86H124.312V4.28H125.672V1.72H128.032V4.28H130.672V5.86H128.032V11.22C128.032 12.02 128.412 12.42 129.172 12.42C129.559 12.42 130.059 12.3133 130.672 12.1L131.012 13.76ZM132.643 2.38C132.643 1.98 132.796 1.64667 133.103 1.38C133.409 1.1 133.823 0.96 134.343 0.96C134.876 0.96 135.309 1.17333 135.643 1.6C135.989 2.01333 136.163 2.53333 136.163 3.16C136.163 3.77333 135.943 4.38 135.503 4.98C135.076 5.58 134.503 6.06 133.783 6.42L132.143 5.52C133.169 5 133.789 4.41333 134.003 3.76C133.616 3.69333 133.289 3.54667 133.023 3.32C132.769 3.09333 132.643 2.78 132.643 2.38ZM140.172 11.04C140.199 11.96 140.872 12.42 142.192 12.42C142.699 12.42 143.112 12.3133 143.432 12.1C143.766 11.8733 143.932 11.6133 143.932 11.32C143.932 11.0267 143.832 10.8 143.632 10.64C143.432 10.48 143.119 10.3333 142.692 10.2L140.572 9.44C138.999 8.89333 138.212 8 138.212 6.76C138.212 5.93333 138.579 5.27333 139.312 4.78C140.059 4.27333 141.052 4.02 142.292 4.02C143.546 4.02 144.506 4.29333 145.172 4.84C145.852 5.38667 146.206 6.07333 146.232 6.9H144.012C143.986 6.58 143.832 6.32667 143.552 6.14C143.272 5.95333 142.872 5.86 142.352 5.86C141.832 5.86 141.426 5.96667 141.132 6.18C140.852 6.38 140.712 6.61333 140.712 6.88C140.712 7.34667 141.106 7.69333 141.892 7.92L144.192 8.78C144.952 9.03333 145.532 9.36 145.932 9.76C146.346 10.1467 146.552 10.6533 146.552 11.28C146.552 12.08 146.172 12.7733 145.412 13.36C144.626 13.9733 143.586 14.28 142.292 14.28C140.999 14.28 139.959 14 139.172 13.44C138.386 12.8667 137.986 12.0667 137.972 11.04H140.172ZM3.06 27.28L5.4 34.28L7.44 27.28H9.84L6.12 38.76C5.73333 39.92 5.26 40.7533 4.7 41.26C4.15333 41.7667 3.45333 42.02 2.6 42.02C1.73333 42.02 0.866667 41.8067 0 41.38V39.3C0.693333 39.74 1.39333 39.96 2.1 39.96C2.56667 39.96 2.94667 39.7733 3.24 39.4C3.54667 39.0267 3.79333 38.54 3.98 37.94L4.28 37L0.38 27.28H3.06ZM15.7581 27.02C16.4115 27.02 17.0248 27.1267 17.5981 27.34C18.1715 27.54 18.6648 27.8533 19.0781 28.28C19.9981 29.2133 20.4581 30.5067 20.4581 32.16C20.4581 33.7867 19.9981 35.0667 19.0781 36C18.2515 36.8533 17.1448 37.28 15.7581 37.28C14.3715 37.28 13.2515 36.8533 12.3981 36C11.4781 35.08 11.0181 33.8 11.0181 32.16C11.0181 30.4933 11.4781 29.2 12.3981 28.28C13.2381 27.44 14.3581 27.02 15.7581 27.02ZM18.0981 32.14C18.0981 31.1133 17.8981 30.3467 17.4981 29.84C17.0981 29.32 16.5381 29.06 15.8181 29.06C15.1115 29.06 14.5315 29.32 14.0781 29.84C13.6248 30.3467 13.3981 31.1133 13.3981 32.14C13.3981 33.1667 13.5981 33.94 13.9981 34.46C14.4115 34.9667 14.9715 35.22 15.6781 35.22C16.3848 35.22 16.9648 34.9667 17.4181 34.46C17.8715 33.94 18.0981 33.1667 18.0981 32.14ZM29.7263 35.24C29.1129 36.5333 28.1263 37.18 26.7663 37.18C25.0463 37.18 23.9129 36.5067 23.3663 35.16C23.1663 34.6933 23.0663 34.1267 23.0663 33.46V27.26H25.4263V33.22C25.4263 33.86 25.5796 34.34 25.8863 34.66C26.1929 34.9667 26.5663 35.12 27.0063 35.12C27.4596 35.12 27.8396 35.06 28.1463 34.94C28.4529 34.8067 28.7196 34.6133 28.9463 34.36C29.4396 33.7867 29.6996 33.02 29.7263 32.06V27.26H32.0863V37H29.7263V35.24ZM38.1653 29.2C38.752 27.8 39.632 27.1 40.8053 27.1C41.032 27.1 41.3186 27.1467 41.6653 27.24L41.6253 29.6C41.252 29.52 40.8853 29.48 40.5253 29.48C38.952 29.48 38.1653 30.5667 38.1653 32.74V37H35.8053V27.26H38.1653V29.2ZM54.6642 36.76C53.7842 37.1067 53.0909 37.28 52.5842 37.28C52.0776 37.28 51.6309 37.22 51.2442 37.1C50.8709 36.98 50.5376 36.8 50.2442 36.56C49.6309 36.0133 49.3242 35.26 49.3242 34.3V28.86H47.9642V27.28H49.3242V24.72H51.6842V27.28H54.3242V28.86H51.6842V34.22C51.6842 35.02 52.0642 35.42 52.8242 35.42C53.2109 35.42 53.7109 35.3133 54.3242 35.1L54.6642 36.76ZM57.2748 27.26H59.6348V37H57.2748V27.26ZM56.9948 24.14C56.9948 23.7133 57.1215 23.38 57.3748 23.14C57.6282 22.8867 57.9882 22.76 58.4548 22.76C58.9082 22.76 59.2615 22.8867 59.5148 23.14C59.7815 23.38 59.9148 23.7133 59.9148 24.14C59.9148 24.5667 59.7815 24.9067 59.5148 25.16C59.2615 25.4 58.9082 25.52 58.4548 25.52C57.9882 25.52 57.6282 25.4 57.3748 25.16C57.1215 24.9067 56.9948 24.5667 56.9948 24.14ZM72.2773 29.12C72.904 27.72 74.004 27.02 75.5773 27.02C76.7373 27.02 77.6373 27.4133 78.2773 28.2C78.8907 28.9467 79.1973 29.9867 79.1973 31.32V37H76.8173V31.32C76.8173 30.6 76.644 30.06 76.2973 29.7C75.9507 29.3267 75.464 29.14 74.8373 29.14C74.2107 29.14 73.6973 29.4133 73.2973 29.96C72.8973 30.5067 72.684 31.3333 72.6573 32.44V37H70.2973V31.32C70.2973 30.6 70.124 30.06 69.7773 29.7C69.4307 29.3267 68.944 29.14 68.3173 29.14C67.6907 29.14 67.1507 29.42 66.6973 29.98C66.2573 30.54 66.024 31.38 65.9973 32.5V37H63.6373V27.28H65.6973L65.9573 28.96C66.5973 27.6667 67.624 27.02 69.0373 27.02C69.8507 27.02 70.524 27.2067 71.0573 27.58C71.604 27.9533 72.0107 28.4667 72.2773 29.12ZM89.4017 28.44C89.7351 28.8667 89.9817 29.36 90.1417 29.92C90.3151 30.48 90.4017 30.9933 90.4017 31.46C90.4017 31.9267 90.3751 32.3467 90.3217 32.72H84.0417C84.0684 33.5067 84.2617 34.1467 84.6217 34.64C84.9817 35.1333 85.5284 35.38 86.2617 35.38C87.2351 35.38 87.8151 34.9533 88.0017 34.1H90.3817C90.2217 35.0733 89.7751 35.84 89.0417 36.4C88.2817 36.9867 87.3551 37.28 86.2617 37.28C84.9817 37.28 83.9084 36.8133 83.0417 35.88C82.1484 34.9067 81.7017 33.66 81.7017 32.14C81.7017 30.58 82.1484 29.3267 83.0417 28.38C83.8951 27.4733 84.9684 27.02 86.2617 27.02C87.6084 27.02 88.6551 27.4933 89.4017 28.44ZM86.2817 28.9C85.6151 28.9 85.0951 29.12 84.7217 29.56C84.3484 29.9867 84.1284 30.54 84.0617 31.22H88.2017C88.2017 30.1667 87.8684 29.46 87.2017 29.1C86.9484 28.9667 86.6417 28.9 86.2817 28.9ZM102.106 27.02C102.759 27.02 103.372 27.1267 103.946 27.34C104.519 27.54 105.012 27.8533 105.426 28.28C106.346 29.2133 106.806 30.5067 106.806 32.16C106.806 33.7867 106.346 35.0667 105.426 36C104.599 36.8533 103.492 37.28 102.106 37.28C100.719 37.28 99.5991 36.8533 98.7458 36C97.8258 35.08 97.3658 33.8 97.3658 32.16C97.3658 30.4933 97.8258 29.2 98.7458 28.28C99.5858 27.44 100.706 27.02 102.106 27.02ZM104.446 32.14C104.446 31.1133 104.246 30.3467 103.846 29.84C103.446 29.32 102.886 29.06 102.166 29.06C101.459 29.06 100.879 29.32 100.426 29.84C99.9724 30.3467 99.7458 31.1133 99.7458 32.14C99.7458 33.1667 99.9458 33.94 100.346 34.46C100.759 34.9667 101.319 35.22 102.026 35.22C102.732 35.22 103.312 34.9667 103.766 34.46C104.219 33.94 104.446 33.1667 104.446 32.14ZM108.554 27.28H109.994V26.14C109.994 25.14 110.287 24.3733 110.874 23.84C111.407 23.36 112.101 23.12 112.954 23.12C113.501 23.12 114.174 23.2 114.974 23.36L114.514 25.18C114.141 25.0467 113.801 24.98 113.494 24.98C113.201 24.98 112.941 25.0667 112.714 25.24C112.487 25.4 112.374 25.7067 112.374 26.16V27.28H114.154V28.86H112.374V37H109.994V28.86H108.554V27.28ZM10.02 51.42C10.8467 52.3533 11.26 53.58 11.26 55.1C11.26 56.62 10.8267 57.8733 9.96 58.86C9.12 59.8067 8.07333 60.28 6.82 60.28C6.22 60.28 5.66667 60.12 5.16 59.8C4.66667 59.48 4.27333 58.9867 3.98 58.32L3.4 60H1.86V46.28H4.22V51.5C4.83333 50.5133 5.74667 50.02 6.96 50.02C8.18667 50.02 9.20667 50.4867 10.02 51.42ZM4.22 54.54V55.82C4.24667 56.5 4.49333 57.06 4.96 57.5C5.4 57.9267 5.93333 58.14 6.56 58.14C7.2 58.14 7.74667 57.8667 8.2 57.32C8.65333 56.76 8.88 56.0267 8.88 55.12C8.88 54.2133 8.65333 53.4933 8.2 52.96C7.76 52.4133 7.20667 52.14 6.54 52.14C5.87333 52.14 5.32 52.36 4.88 52.8C4.44 53.24 4.22 53.82 4.22 54.54ZM14.3452 50.26H16.7052V60H14.3452V50.26ZM14.0652 47.14C14.0652 46.7133 14.1918 46.38 14.4452 46.14C14.6985 45.8867 15.0585 45.76 15.5252 45.76C15.9785 45.76 16.3318 45.8867 16.5852 46.14C16.8518 46.38 16.9852 46.7133 16.9852 47.14C16.9852 47.5667 16.8518 47.9067 16.5852 48.16C16.3318 48.4 15.9785 48.52 15.5252 48.52C15.0585 48.52 14.6985 48.4 14.4452 48.16C14.1918 47.9067 14.0652 47.5667 14.0652 47.14ZM23.0677 52.2C23.6543 50.8 24.5343 50.1 25.7077 50.1C25.9343 50.1 26.221 50.1467 26.5677 50.24L26.5277 52.6C26.1543 52.52 25.7877 52.48 25.4277 52.48C23.8543 52.48 23.0677 53.5667 23.0677 55.74V60H20.7077V50.26H23.0677V52.2ZM34.508 59.76C33.628 60.1067 32.9346 60.28 32.428 60.28C31.9213 60.28 31.4746 60.22 31.088 60.1C30.7146 59.98 30.3813 59.8 30.088 59.56C29.4746 59.0133 29.168 58.26 29.168 57.3V51.86H27.808V50.28H29.168V47.72H31.528V50.28H34.168V51.86H31.528V57.22C31.528 58.02 31.908 58.42 32.668 58.42C33.0546 58.42 33.5546 58.3133 34.168 58.1L34.508 59.76ZM39.2786 51.86C39.9453 50.6333 40.9186 50.02 42.1986 50.02C43.4786 50.02 44.4186 50.4133 45.0186 51.2C45.6319 51.9867 45.9386 53.0267 45.9386 54.32V60H43.5786V54.32C43.5786 53.6 43.4053 53.06 43.0586 52.7C42.7119 52.3267 42.2253 52.14 41.5986 52.14C40.9719 52.14 40.4319 52.42 39.9786 52.98C39.5386 53.54 39.3053 54.38 39.2786 55.5V60H36.9186V46.28H39.2786V51.86ZM57.2195 50.38C57.2195 51.0867 57.0462 51.68 56.6995 52.16C56.3529 52.6267 55.8062 53.0467 55.0595 53.42C54.4329 53.74 54.0195 54.0133 53.8195 54.24C53.6329 54.4667 53.5129 54.68 53.4595 54.88C53.4062 55.0667 53.3795 55.2867 53.3795 55.54V56.12H51.0195V55.32C51.0195 54.12 51.3795 53.2667 52.0995 52.76C52.3529 52.5733 52.7262 52.3533 53.2195 52.1C53.7129 51.8467 54.0662 51.5933 54.2795 51.34C54.5062 51.0733 54.6195 50.74 54.6195 50.34C54.6195 49.9267 54.4529 49.5867 54.1195 49.32C53.7862 49.04 53.2929 48.9 52.6395 48.9C51.9862 48.9 51.4729 49.06 51.0995 49.38C50.7262 49.6867 50.5129 50.0933 50.4595 50.6H47.9995C48.0662 49.44 48.4929 48.5133 49.2795 47.82C50.0662 47.1133 51.1662 46.76 52.5795 46.76C54.0062 46.76 55.1329 47.1067 55.9595 47.8C56.7995 48.4933 57.2195 49.3533 57.2195 50.38ZM50.6195 58.7C50.6195 58.2467 50.7662 57.8733 51.0595 57.58C51.3662 57.2867 51.7595 57.14 52.2395 57.14C52.7329 57.14 53.1395 57.2867 53.4595 57.58C53.7795 57.8733 53.9395 58.2467 53.9395 58.7C53.9395 59.1533 53.7795 59.5333 53.4595 59.84C53.1395 60.1333 52.7329 60.28 52.2395 60.28C51.7595 60.28 51.3662 60.1333 51.0595 59.84C50.7662 59.5333 50.6195 59.1533 50.6195 58.7ZM163.496 102.162C163.196 102.162 162.944 102.066 162.74 101.874C162.548 101.67 162.452 101.43 162.452 101.154C162.452 100.866 162.548 100.626 162.74 100.434C162.944 100.23 163.196 100.128 163.496 100.128C163.808 100.128 164.066 100.23 164.27 100.434C164.474 100.626 164.576 100.866 164.576 101.154C164.576 101.43 164.474 101.67 164.27 101.874C164.066 102.066 163.808 102.162 163.496 102.162Z" fill="#181827"/>
<path d="M3.114 71.712L1.008 70.992L1.44 70.02L3.348 70.992L3.168 68.688H4.284L4.104 70.992L6.012 70.02L6.444 70.992L4.356 71.712L5.976 73.314L5.184 74.016L3.744 72.144L2.304 74.016L1.494 73.314L3.114 71.712ZM7.52597 69.678H16.328V70.902H12.638V81H11.216V70.902H7.52597V69.678ZM19.6755 73.98C20.2515 72.78 21.2055 72.18 22.5375 72.18C23.5575 72.18 24.3495 72.516 24.9135 73.188C25.4895 73.86 25.7775 74.778 25.7775 75.942V81H24.3735V75.942C24.3735 75.114 24.1755 74.49 23.7795 74.07C23.3955 73.65 22.8375 73.44 22.1055 73.44C21.3735 73.44 20.7855 73.752 20.3415 74.376C19.8975 74.988 19.6755 75.84 19.6755 76.932V81H18.2535V68.742H19.6755V73.98ZM29.2068 72.378H30.6288V81H29.2068V72.378ZM29.9088 70.362C29.6208 70.362 29.3928 70.284 29.2248 70.128C29.0688 69.96 28.9908 69.744 28.9908 69.48C28.9908 69.204 29.0688 68.988 29.2248 68.832C29.3928 68.664 29.6208 68.58 29.9088 68.58C30.1968 68.58 30.4248 68.664 30.5928 68.832C30.7728 68.988 30.8628 69.204 30.8628 69.48C30.8628 69.744 30.7728 69.96 30.5928 70.128C30.4248 70.284 30.1968 70.362 29.9088 70.362ZM34.0457 74.502C34.0457 73.794 34.3457 73.23 34.9457 72.81C35.5577 72.39 36.3797 72.18 37.4117 72.18C38.4437 72.18 39.2477 72.396 39.8237 72.828C40.4117 73.26 40.7177 73.806 40.7417 74.466H39.3557C39.2477 73.686 38.5877 73.296 37.3757 73.296C36.7877 73.296 36.3317 73.428 36.0077 73.692C35.6957 73.956 35.5397 74.244 35.5397 74.556C35.5397 74.856 35.6597 75.114 35.8997 75.33C36.1397 75.534 36.5237 75.714 37.0517 75.87L38.7797 76.446C39.5117 76.674 40.0697 76.968 40.4537 77.328C40.8497 77.676 41.0477 78.162 41.0477 78.786C41.0477 79.398 40.7297 79.956 40.0937 80.46C39.4577 80.952 38.5697 81.198 37.4297 81.198C36.2897 81.198 35.4017 80.946 34.7657 80.442C34.1297 79.926 33.7937 79.266 33.7577 78.462H35.1257C35.1497 79.002 35.3657 79.41 35.7737 79.686C36.1937 79.95 36.7157 80.082 37.3397 80.082C37.9637 80.082 38.4797 79.95 38.8877 79.686C39.2957 79.422 39.4997 79.11 39.4997 78.75C39.4997 78.378 39.3797 78.096 39.1397 77.904C38.8997 77.712 38.5097 77.544 37.9697 77.4L36.2957 76.842C34.7957 76.398 34.0457 75.618 34.0457 74.502ZM48.3494 72.378H49.7714V81H48.3494V72.378ZM49.0514 70.362C48.7634 70.362 48.5354 70.284 48.3674 70.128C48.2114 69.96 48.1334 69.744 48.1334 69.48C48.1334 69.204 48.2114 68.988 48.3674 68.832C48.5354 68.664 48.7634 68.58 49.0514 68.58C49.3394 68.58 49.5674 68.664 49.7354 68.832C49.9154 68.988 50.0054 69.204 50.0054 69.48C50.0054 69.744 49.9154 69.96 49.7354 70.128C49.5674 70.284 49.3394 70.362 49.0514 70.362ZM55.0063 74.052C55.5703 72.804 56.5363 72.18 57.9043 72.18C58.9243 72.18 59.7163 72.516 60.2803 73.188C60.8563 73.86 61.1443 74.778 61.1443 75.942V81H59.7403V75.942C59.7403 75.114 59.5423 74.49 59.1463 74.07C58.7623 73.65 58.2103 73.44 57.4903 73.44C56.7703 73.44 56.1883 73.734 55.7443 74.322C55.3003 74.91 55.0663 75.726 55.0423 76.77V81H53.6203V72.396H54.8443L55.0063 74.052ZM68.66 69.948C68.264 69.792 67.952 69.714 67.724 69.714C67.304 69.714 66.974 69.816 66.734 70.02C66.494 70.224 66.374 70.584 66.374 71.1V72.396H68.156V73.368H66.374V81H64.97V73.368H63.548V72.396H64.97V71.082C64.97 70.23 65.204 69.606 65.672 69.21C66.14 68.802 66.68 68.598 67.292 68.598C67.904 68.598 68.444 68.676 68.912 68.832L68.66 69.948ZM73.7499 72.18C74.9499 72.18 75.9159 72.57 76.6479 73.35C77.3919 74.13 77.7639 75.246 77.7639 76.698C77.7639 78.138 77.3919 79.248 76.6479 80.028C75.9159 80.808 74.9499 81.198 73.7499 81.198C72.5499 81.198 71.5779 80.808 70.8339 80.028C70.1019 79.248 69.7359 78.138 69.7359 76.698C69.7359 75.246 70.1019 74.13 70.8339 73.35C71.5779 72.57 72.5499 72.18 73.7499 72.18ZM76.3239 76.698C76.3239 75.666 76.1079 74.862 75.6759 74.286C75.2439 73.698 74.6079 73.404 73.7679 73.404C72.9399 73.404 72.3039 73.698 71.8599 74.286C71.4159 74.862 71.1939 75.666 71.1939 76.698C71.1939 77.718 71.4039 78.522 71.8239 79.11C72.2439 79.686 72.8679 79.974 73.6959 79.974C74.5359 79.974 75.1839 79.686 75.6399 79.11C76.0959 78.522 76.3239 77.718 76.3239 76.698ZM84.8592 72.378H86.2812V81H84.8592V72.378ZM85.5612 70.362C85.2732 70.362 85.0452 70.284 84.8772 70.128C84.7212 69.96 84.6432 69.744 84.6432 69.48C84.6432 69.204 84.7212 68.988 84.8772 68.832C85.0452 68.664 85.2732 68.58 85.5612 68.58C85.8492 68.58 86.0772 68.664 86.2452 68.832C86.4252 68.988 86.5152 69.204 86.5152 69.48C86.5152 69.744 86.4252 69.96 86.2452 70.128C86.0772 70.284 85.8492 70.362 85.5612 70.362ZM89.6981 74.502C89.6981 73.794 89.9981 73.23 90.5981 72.81C91.2101 72.39 92.0321 72.18 93.0641 72.18C94.0961 72.18 94.9001 72.396 95.4761 72.828C96.0641 73.26 96.3701 73.806 96.3941 74.466H95.0081C94.9001 73.686 94.2401 73.296 93.0281 73.296C92.4401 73.296 91.9841 73.428 91.6601 73.692C91.3481 73.956 91.1921 74.244 91.1921 74.556C91.1921 74.856 91.3121 75.114 91.5521 75.33C91.7921 75.534 92.1761 75.714 92.7041 75.87L94.4321 76.446C95.1641 76.674 95.7221 76.968 96.1061 77.328C96.5021 77.676 96.7001 78.162 96.7001 78.786C96.7001 79.398 96.3821 79.956 95.7461 80.46C95.1101 80.952 94.2221 81.198 93.0821 81.198C91.9421 81.198 91.0541 80.946 90.4181 80.442C89.7821 79.926 89.4461 79.266 89.4101 78.462H90.7781C90.8021 79.002 91.0181 79.41 91.4261 79.686C91.8461 79.95 92.3681 80.082 92.9921 80.082C93.6161 80.082 94.1321 79.95 94.5401 79.686C94.9481 79.422 95.1521 79.11 95.1521 78.75C95.1521 78.378 95.0321 78.096 94.7921 77.904C94.5521 77.712 94.1621 77.544 93.6221 77.4L91.9481 76.842C90.4481 76.398 89.6981 75.618 89.6981 74.502ZM105.28 74.052C105.844 72.804 106.81 72.18 108.178 72.18C109.198 72.18 109.99 72.516 110.554 73.188C111.13 73.86 111.418 74.778 111.418 75.942V81H110.014V75.942C110.014 75.114 109.816 74.49 109.42 74.07C109.036 73.65 108.484 73.44 107.764 73.44C107.044 73.44 106.462 73.734 106.018 74.322C105.574 74.91 105.34 75.726 105.316 76.77V81H103.894V72.396H105.118L105.28 74.052ZM117.727 80.046C118.915 80.046 119.593 79.524 119.761 78.48H121.219C121.087 79.344 120.703 80.016 120.067 80.496C119.443 80.964 118.663 81.198 117.727 81.198C116.575 81.198 115.639 80.79 114.919 79.974C114.199 79.146 113.839 78.048 113.839 76.68C113.839 75.312 114.199 74.22 114.919 73.404C115.651 72.588 116.617 72.18 117.817 72.18C119.029 72.18 119.929 72.648 120.517 73.584C121.117 74.52 121.327 75.66 121.147 77.004H115.261C115.261 77.892 115.477 78.624 115.909 79.2C116.341 79.764 116.947 80.046 117.727 80.046ZM118.771 73.53C118.495 73.386 118.159 73.314 117.763 73.314C117.031 73.314 116.449 73.566 116.017 74.07C115.597 74.562 115.351 75.18 115.279 75.924H119.869C119.869 74.724 119.503 73.926 118.771 73.53ZM126.991 80.046C128.179 80.046 128.857 79.524 129.025 78.48H130.483C130.351 79.344 129.967 80.016 129.331 80.496C128.707 80.964 127.927 81.198 126.991 81.198C125.839 81.198 124.903 80.79 124.183 79.974C123.463 79.146 123.103 78.048 123.103 76.68C123.103 75.312 123.463 74.22 124.183 73.404C124.915 72.588 125.881 72.18 127.081 72.18C128.293 72.18 129.193 72.648 129.781 73.584C130.381 74.52 130.591 75.66 130.411 77.004H124.525C124.525 77.892 124.741 78.624 125.173 79.2C125.605 79.764 126.211 80.046 126.991 80.046ZM128.035 73.53C127.759 73.386 127.423 73.314 127.027 73.314C126.295 73.314 125.713 73.566 125.281 74.07C124.861 74.562 124.615 75.18 124.543 75.924H129.133C129.133 74.724 128.767 73.926 128.035 73.53ZM138.919 73.674V68.742H140.323V81H139.171L138.991 79.56C138.715 80.1 138.349 80.508 137.893 80.784C137.437 81.06 136.939 81.198 136.399 81.198C135.307 81.198 134.389 80.778 133.645 79.938C132.913 79.098 132.547 78.006 132.547 76.662C132.547 75.306 132.907 74.22 133.627 73.404C134.359 72.588 135.277 72.18 136.381 72.18C137.497 72.18 138.343 72.678 138.919 73.674ZM136.471 73.44C135.775 73.44 135.187 73.734 134.707 74.322C134.239 74.91 134.005 75.696 134.005 76.68C134.005 77.664 134.245 78.456 134.725 79.056C135.205 79.644 135.781 79.938 136.453 79.938C137.125 79.938 137.695 79.716 138.163 79.272C138.643 78.816 138.895 78.21 138.919 77.454V76.05C138.919 75.246 138.685 74.61 138.217 74.142C137.749 73.674 137.167 73.44 136.471 73.44ZM146.942 80.046C148.13 80.046 148.808 79.524 148.976 78.48H150.434C150.302 79.344 149.918 80.016 149.282 80.496C148.658 80.964 147.878 81.198 146.942 81.198C145.79 81.198 144.854 80.79 144.134 79.974C143.414 79.146 143.054 78.048 143.054 76.68C143.054 75.312 143.414 74.22 144.134 73.404C144.866 72.588 145.832 72.18 147.032 72.18C148.244 72.18 149.144 72.648 149.732 73.584C150.332 74.52 150.542 75.66 150.362 77.004H144.476C144.476 77.892 144.692 78.624 145.124 79.2C145.556 79.764 146.162 80.046 146.942 80.046ZM147.986 73.53C147.71 73.386 147.374 73.314 146.978 73.314C146.246 73.314 145.664 73.566 145.232 74.07C144.812 74.562 144.566 75.18 144.494 75.924H149.084C149.084 74.724 148.718 73.926 147.986 73.53ZM158.87 73.674V68.742H160.274V81H159.122L158.942 79.56C158.666 80.1 158.3 80.508 157.844 80.784C157.388 81.06 156.89 81.198 156.35 81.198C155.258 81.198 154.34 80.778 153.596 79.938C152.864 79.098 152.498 78.006 152.498 76.662C152.498 75.306 152.858 74.22 153.578 73.404C154.31 72.588 155.228 72.18 156.332 72.18C157.448 72.18 158.294 72.678 158.87 73.674ZM156.422 73.44C155.726 73.44 155.138 73.734 154.658 74.322C154.19 74.91 153.956 75.696 153.956 76.68C153.956 77.664 154.196 78.456 154.676 79.056C155.156 79.644 155.732 79.938 156.404 79.938C157.076 79.938 157.646 79.716 158.114 79.272C158.594 78.816 158.846 78.21 158.87 77.454V76.05C158.87 75.246 158.636 74.61 158.168 74.142C157.7 73.674 157.118 73.44 156.422 73.44ZM5.994 90.948C5.598 90.792 5.286 90.714 5.058 90.714C4.638 90.714 4.308 90.816 4.068 91.02C3.828 91.224 3.708 91.584 3.708 92.1V93.396H5.49V94.368H3.708V102H2.304V94.368H0.882V93.396H2.304V92.082C2.304 91.23 2.538 90.606 3.006 90.21C3.474 89.802 4.014 89.598 4.626 89.598C5.238 89.598 5.778 89.676 6.246 89.832L5.994 90.948ZM11.0839 93.18C12.2839 93.18 13.2499 93.57 13.9819 94.35C14.7259 95.13 15.0979 96.246 15.0979 97.698C15.0979 99.138 14.7259 100.248 13.9819 101.028C13.2499 101.808 12.2839 102.198 11.0839 102.198C9.88392 102.198 8.91192 101.808 8.16792 101.028C7.43592 100.248 7.06992 99.138 7.06992 97.698C7.06992 96.246 7.43592 95.13 8.16792 94.35C8.91192 93.57 9.88392 93.18 11.0839 93.18ZM13.6579 97.698C13.6579 96.666 13.4419 95.862 13.0099 95.286C12.5779 94.698 11.9419 94.404 11.1019 94.404C10.2739 94.404 9.63792 94.698 9.19392 95.286C8.74992 95.862 8.52792 96.666 8.52792 97.698C8.52792 98.718 8.73792 99.522 9.15792 100.11C9.57792 100.686 10.2019 100.974 11.0299 100.974C11.8699 100.974 12.5179 100.686 12.9739 100.11C13.4299 99.522 13.6579 98.718 13.6579 97.698ZM21.3241 94.602C19.9681 94.602 19.2661 95.67 19.2181 97.806V102H17.7961V93.378H19.2181V95.034C19.6501 93.834 20.4121 93.234 21.5041 93.234C21.8521 93.234 22.1821 93.288 22.4941 93.396L22.4221 94.782C22.0621 94.662 21.6961 94.602 21.3241 94.602ZM27.2306 104.502C27.8186 104.958 28.4366 105.186 29.0846 105.186C29.5646 105.186 29.9786 104.946 30.3266 104.466C30.5786 104.118 30.8066 103.59 31.0106 102.882L31.2626 102L27.7346 93.396H29.3186L31.9286 100.254L33.9626 93.396H35.4026L32.1806 103.71C31.9046 104.586 31.5386 105.258 31.0826 105.726C30.6386 106.194 30.0686 106.428 29.3726 106.428C28.6886 106.428 27.9746 106.218 27.2306 105.798V104.502ZM40.7734 93.18C41.9734 93.18 42.9394 93.57 43.6714 94.35C44.4154 95.13 44.7874 96.246 44.7874 97.698C44.7874 99.138 44.4154 100.248 43.6714 101.028C42.9394 101.808 41.9734 102.198 40.7734 102.198C39.5734 102.198 38.6014 101.808 37.8574 101.028C37.1254 100.248 36.7594 99.138 36.7594 97.698C36.7594 96.246 37.1254 95.13 37.8574 94.35C38.6014 93.57 39.5734 93.18 40.7734 93.18ZM43.3474 97.698C43.3474 96.666 43.1314 95.862 42.6994 95.286C42.2674 94.698 41.6314 94.404 40.7914 94.404C39.9634 94.404 39.3274 94.698 38.8834 95.286C38.4394 95.862 38.2174 96.666 38.2174 97.698C38.2174 98.718 38.4274 99.522 38.8474 100.11C39.2674 100.686 39.8914 100.974 40.7194 100.974C41.5594 100.974 42.2074 100.686 42.6634 100.11C43.1194 99.522 43.3474 98.718 43.3474 97.698ZM53.3535 100.29C52.7655 101.538 51.8115 102.162 50.4915 102.162C49.5195 102.162 48.7335 101.892 48.1335 101.352C47.5455 100.812 47.2515 99.978 47.2515 98.85V93.378H48.6735V98.742C48.6735 100.194 49.3455 100.92 50.6895 100.92C51.4695 100.92 52.0995 100.62 52.5795 100.02C53.0715 99.42 53.3295 98.652 53.3535 97.716V93.378H54.7755V102H53.3535V100.29ZM61.9296 94.602C60.5736 94.602 59.8716 95.67 59.8236 97.806V102H58.4016V93.378H59.8236V95.034C60.2556 93.834 61.0176 93.234 62.1096 93.234C62.4576 93.234 62.7876 93.288 63.0996 93.396L63.0276 94.782C62.6676 94.662 62.3016 94.602 61.9296 94.602ZM71.2201 90.678L76.8361 99.768V90.678H78.2581V102H76.6741L70.9681 92.784V102H69.5281V90.678H71.2201ZM87.2144 96.42C87.2144 95.64 87.0524 95.082 86.7284 94.746C86.4044 94.41 85.9304 94.242 85.3064 94.242C84.6944 94.242 84.1964 94.368 83.8124 94.62C83.4404 94.86 83.2544 95.244 83.2544 95.772H81.6884C81.6884 94.452 82.3964 93.636 83.8124 93.324C84.2444 93.228 84.7124 93.18 85.2164 93.18C86.2844 93.18 87.1184 93.45 87.7184 93.99C88.3184 94.53 88.6184 95.352 88.6184 96.456V102H87.3944L87.2504 100.56C86.7224 101.652 85.7684 102.198 84.3884 102.198C83.4644 102.198 82.7204 101.94 82.1564 101.424C81.6044 100.908 81.3284 100.266 81.3284 99.498C81.3284 98.73 81.6344 98.13 82.2464 97.698C82.8704 97.266 83.6444 97.05 84.5684 97.05C85.4924 97.05 86.3744 97.206 87.2144 97.518V96.42ZM87.2144 98.418C86.3624 98.178 85.6184 98.058 84.9824 98.058C84.3464 98.058 83.8304 98.172 83.4344 98.4C83.0384 98.628 82.8404 98.988 82.8404 99.48C82.8404 100.56 83.4524 101.1 84.6764 101.1C85.3724 101.1 85.9664 100.854 86.4584 100.362C86.9624 99.858 87.2144 99.21 87.2144 98.418ZM96.4586 101.748C95.4266 102.228 94.4846 102.33 93.6326 102.054C93.0206 101.862 92.5886 101.46 92.3366 100.848C92.2046 100.548 92.1386 100.188 92.1386 99.768V94.476H90.7526V93.396H92.1386V91.002H93.5426V93.396H96.2426V94.476H93.5426V99.75C93.5426 100.626 93.9506 101.064 94.7666 101.064C95.2106 101.064 95.7086 100.956 96.2606 100.74L96.4586 101.748ZM104.054 96.42C104.054 95.64 103.892 95.082 103.568 94.746C103.244 94.41 102.77 94.242 102.146 94.242C101.534 94.242 101.036 94.368 100.652 94.62C100.28 94.86 100.094 95.244 100.094 95.772H98.5282C98.5282 94.452 99.2362 93.636 100.652 93.324C101.084 93.228 101.552 93.18 102.056 93.18C103.124 93.18 103.958 93.45 104.558 93.99C105.158 94.53 105.458 95.352 105.458 96.456V102H104.234L104.09 100.56C103.562 101.652 102.608 102.198 101.228 102.198C100.304 102.198 99.5602 101.94 98.9962 101.424C98.4442 100.908 98.1682 100.266 98.1682 99.498C98.1682 98.73 98.4742 98.13 99.0862 97.698C99.7102 97.266 100.484 97.05 101.408 97.05C102.332 97.05 103.214 97.206 104.054 97.518V96.42ZM104.054 98.418C103.202 98.178 102.458 98.058 101.822 98.058C101.186 98.058 100.67 98.172 100.274 98.4C99.8782 98.628 99.6802 98.988 99.6802 99.48C99.6802 100.56 100.292 101.1 101.516 101.1C102.212 101.1 102.806 100.854 103.298 100.362C103.802 99.858 104.054 99.21 104.054 98.418ZM108.798 89.742H110.22V102H108.798V89.742ZM122.056 90.48C123.268 90.48 124.24 90.786 124.972 91.398C125.716 91.998 126.226 92.784 126.502 93.756L124.972 94.062C124.732 93.354 124.354 92.796 123.838 92.388C123.334 91.968 122.74 91.758 122.056 91.758C121.108 91.758 120.322 92.154 119.698 92.946C119.074 93.738 118.762 94.842 118.762 96.258C118.762 97.662 119.038 98.79 119.59 99.642C120.154 100.494 120.976 100.92 122.056 100.92C122.956 100.92 123.664 100.686 124.18 100.218C124.708 99.738 124.972 99.108 124.972 98.328H126.502C126.502 99.516 126.094 100.458 125.278 101.154C124.474 101.85 123.364 102.198 121.948 102.198C120.544 102.198 119.404 101.658 118.528 100.578C117.664 99.498 117.232 98.052 117.232 96.24C117.232 94.428 117.682 93.018 118.582 92.01C119.482 90.99 120.64 90.48 122.056 90.48ZM130.594 94.98C131.17 93.78 132.124 93.18 133.456 93.18C134.476 93.18 135.268 93.516 135.832 94.188C136.408 94.86 136.696 95.778 136.696 96.942V102H135.292V96.942C135.292 96.114 135.094 95.49 134.698 95.07C134.314 94.65 133.756 94.44 133.024 94.44C132.292 94.44 131.704 94.752 131.26 95.376C130.816 95.988 130.594 96.84 130.594 97.932V102H129.172V89.742H130.594V94.98ZM145.363 96.42C145.363 95.64 145.201 95.082 144.877 94.746C144.553 94.41 144.079 94.242 143.455 94.242C142.843 94.242 142.345 94.368 141.961 94.62C141.589 94.86 141.403 95.244 141.403 95.772H139.837C139.837 94.452 140.545 93.636 141.961 93.324C142.393 93.228 142.861 93.18 143.365 93.18C144.433 93.18 145.267 93.45 145.867 93.99C146.467 94.53 146.767 95.352 146.767 96.456V102H145.543L145.399 100.56C144.871 101.652 143.917 102.198 142.537 102.198C141.613 102.198 140.869 101.94 140.305 101.424C139.753 100.908 139.477 100.266 139.477 99.498C139.477 98.73 139.783 98.13 140.395 97.698C141.019 97.266 141.793 97.05 142.717 97.05C143.641 97.05 144.523 97.206 145.363 97.518V96.42ZM145.363 98.418C144.511 98.178 143.767 98.058 143.131 98.058C142.495 98.058 141.979 98.172 141.583 98.4C141.187 98.628 140.989 98.988 140.989 99.48C140.989 100.56 141.601 101.1 142.825 101.1C143.521 101.1 144.115 100.854 144.607 100.362C145.111 99.858 145.363 99.21 145.363 98.418ZM153.617 94.602C152.261 94.602 151.559 95.67 151.511 97.806V102H150.089V93.378H151.511V95.034C151.943 93.834 152.705 93.234 153.797 93.234C154.145 93.234 154.475 93.288 154.787 93.396L154.715 94.782C154.355 94.662 153.989 94.602 153.617 94.602ZM161.463 101.748C160.431 102.228 159.489 102.33 158.637 102.054C158.025 101.862 157.593 101.46 157.341 100.848C157.209 100.548 157.143 100.188 157.143 99.768V94.476H155.757V93.396H157.143V91.002H158.547V93.396H161.247V94.476H158.547V99.75C158.547 100.626 158.955 101.064 159.771 101.064C160.215 101.064 160.713 100.956 161.265 100.74L161.463 101.748Z" fill="#7075A5"/>
</svg>
