<svg width="173" height="63" viewBox="0 0 173 63" fill="none" xmlns="http://www.w3.org/2000/svg">
<path d="M3.04 1.02L5.9 10.88L8.68 1.88H10.28L13.22 10.92L16.26 1.02H18.92L14.46 14H11.98L9.54 6.68L7.12 14H4.64L0.4 1.02H3.04ZM23.5364 5.86C24.2031 4.63333 25.1764 4.02 26.4564 4.02C27.7364 4.02 28.6764 4.41333 29.2764 5.2C29.8897 5.98667 30.1964 7.02667 30.1964 8.32V14H27.8364V8.32C27.8364 7.6 27.6631 7.06 27.3164 6.7C26.9697 6.32667 26.4831 6.14 25.8564 6.14C25.2297 6.14 24.6897 6.42 24.2364 6.98C23.7964 7.54 23.5631 8.38 23.5364 9.5V14H21.1764V0.279999H23.5364V5.86ZM36.8373 8.32C37.6107 8.32 38.504 8.44667 39.5173 8.7V7.74C39.5173 7.06 39.3773 6.56 39.0973 6.24C38.8307 5.90667 38.384 5.74 37.7573 5.74C37.144 5.74 36.6707 5.86667 36.3373 6.12C36.004 6.36 35.8373 6.70667 35.8373 7.16H33.2573C33.2573 6.05333 33.644 5.25333 34.4173 4.76C35.204 4.26667 36.2973 4.02 37.6973 4.02C39.6973 4.02 40.9907 4.72 41.5773 6.12C41.7773 6.6 41.8773 7.16667 41.8773 7.82V14H39.8173L39.6373 12.7C39.0107 13.7533 38.0507 14.28 36.7573 14.28C35.504 14.28 34.5307 13.9733 33.8373 13.36C33.1973 12.7733 32.8773 12.0333 32.8773 11.14C32.8773 10.2333 33.2307 9.54 33.9373 9.06C34.644 8.56667 35.6107 8.32 36.8373 8.32ZM39.5173 10.2C38.7307 9.98667 37.9973 9.88 37.3173 9.88C36.0373 9.88 35.3973 10.3067 35.3973 11.16C35.3973 11.52 35.544 11.8333 35.8373 12.1C36.1307 12.3533 36.5973 12.48 37.2373 12.48C37.8907 12.48 38.424 12.2667 38.8373 11.84C39.264 11.4 39.4907 10.8533 39.5173 10.2ZM50.797 13.76C49.917 14.1067 49.2237 14.28 48.717 14.28C48.2104 14.28 47.7637 14.22 47.377 14.1C47.0037 13.98 46.6704 13.8 46.377 13.56C45.7637 13.0133 45.457 12.26 45.457 11.3V5.86H44.097V4.28H45.457V1.72H47.817V4.28H50.457V5.86H47.817V11.22C47.817 12.02 48.197 12.42 48.957 12.42C49.3437 12.42 49.8437 12.3133 50.457 12.1L50.797 13.76ZM52.4277 2.38C52.4277 1.98 52.581 1.64667 52.8877 1.38C53.1943 1.1 53.6077 0.96 54.1277 0.96C54.661 0.96 55.0943 1.17333 55.4277 1.6C55.7743 2.01333 55.9477 2.53333 55.9477 3.16C55.9477 3.77333 55.7277 4.38 55.2877 4.98C54.861 5.58 54.2877 6.06 53.5677 6.42L51.9277 5.52C52.9543 5 53.5743 4.41333 53.7877 3.76C53.401 3.69333 53.0743 3.54667 52.8077 3.32C52.5543 3.09333 52.4277 2.78 52.4277 2.38ZM59.9573 11.04C59.984 11.96 60.6573 12.42 61.9773 12.42C62.484 12.42 62.8973 12.3133 63.2173 12.1C63.5507 11.8733 63.7173 11.6133 63.7173 11.32C63.7173 11.0267 63.6173 10.8 63.4173 10.64C63.2173 10.48 62.904 10.3333 62.4773 10.2L60.3573 9.44C58.784 8.89333 57.9973 8 57.9973 6.76C57.9973 5.93333 58.364 5.27333 59.0973 4.78C59.844 4.27333 60.8373 4.02 62.0773 4.02C63.3307 4.02 64.2907 4.29333 64.9573 4.84C65.6373 5.38667 65.9907 6.07333 66.0173 6.9H63.7973C63.7707 6.58 63.6173 6.32667 63.3373 6.14C63.0573 5.95333 62.6573 5.86 62.1373 5.86C61.6173 5.86 61.2107 5.96667 60.9173 6.18C60.6373 6.38 60.4973 6.61333 60.4973 6.88C60.4973 7.34667 60.8907 7.69333 61.6773 7.92L63.9773 8.78C64.7373 9.03333 65.3173 9.36 65.7173 9.76C66.1307 10.1467 66.3373 10.6533 66.3373 11.28C66.3373 12.08 65.9573 12.7733 65.1973 13.36C64.4107 13.9733 63.3707 14.28 62.0773 14.28C60.784 14.28 59.744 14 58.9573 13.44C58.1707 12.8667 57.7707 12.0667 57.7573 11.04H59.9573ZM75.4428 4.28L77.7828 11.28L79.8228 4.28H82.2228L78.5028 15.76C78.1161 16.92 77.6428 17.7533 77.0828 18.26C76.5361 18.7667 75.8361 19.02 74.9828 19.02C74.1161 19.02 73.2495 18.8067 72.3828 18.38V16.3C73.0761 16.74 73.7761 16.96 74.4828 16.96C74.9495 16.96 75.3295 16.7733 75.6228 16.4C75.9295 16.0267 76.1761 15.54 76.3628 14.94L76.6628 14L72.7628 4.28H75.4428ZM88.1409 4.02C88.7943 4.02 89.4076 4.12667 89.9809 4.34C90.5543 4.54 91.0476 4.85333 91.4609 5.28C92.3809 6.21333 92.8409 7.50667 92.8409 9.16C92.8409 10.7867 92.3809 12.0667 91.4609 13C90.6343 13.8533 89.5276 14.28 88.1409 14.28C86.7543 14.28 85.6343 13.8533 84.7809 13C83.8609 12.08 83.4009 10.8 83.4009 9.16C83.4009 7.49333 83.8609 6.2 84.7809 5.28C85.6209 4.44 86.7409 4.02 88.1409 4.02ZM90.4809 9.14C90.4809 8.11333 90.2809 7.34667 89.8809 6.84C89.4809 6.32 88.9209 6.06 88.2009 6.06C87.4943 6.06 86.9143 6.32 86.4609 6.84C86.0076 7.34667 85.7809 8.11333 85.7809 9.14C85.7809 10.1667 85.9809 10.94 86.3809 11.46C86.7943 11.9667 87.3543 12.22 88.0609 12.22C88.7676 12.22 89.3476 11.9667 89.8009 11.46C90.2543 10.94 90.4809 10.1667 90.4809 9.14ZM102.109 12.24C101.496 13.5333 100.509 14.18 99.1491 14.18C97.4291 14.18 96.2957 13.5067 95.7491 12.16C95.5491 11.6933 95.4491 11.1267 95.4491 10.46V4.26H97.8091V10.22C97.8091 10.86 97.9624 11.34 98.2691 11.66C98.5757 11.9667 98.9491 12.12 99.3891 12.12C99.8424 12.12 100.222 12.06 100.529 11.94C100.836 11.8067 101.102 11.6133 101.329 11.36C101.822 10.7867 102.082 10.02 102.109 9.06V4.26H104.469V14H102.109V12.24ZM110.548 6.2C111.135 4.8 112.015 4.1 113.188 4.1C113.415 4.1 113.701 4.14667 114.048 4.24L114.008 6.6C113.635 6.52 113.268 6.48 112.908 6.48C111.335 6.48 110.548 7.56667 110.548 9.74V14H108.188V4.26H110.548V6.2ZM123.887 5.96C124.527 4.66667 125.554 4.02 126.967 4.02C128.167 4.02 129.067 4.41333 129.667 5.2C130.28 5.98667 130.587 7.02667 130.587 8.32V14H128.227V8.32C128.227 7.6 128.054 7.06 127.707 6.7C127.36 6.32667 126.874 6.14 126.247 6.14C125.62 6.14 125.08 6.42 124.627 6.98C124.187 7.54 123.954 8.38 123.927 9.5V14H121.567V4.28H123.627L123.887 5.96ZM137.228 8.32C138.001 8.32 138.895 8.44667 139.908 8.7V7.74C139.908 7.06 139.768 6.56 139.488 6.24C139.221 5.90667 138.775 5.74 138.148 5.74C137.535 5.74 137.061 5.86667 136.728 6.12C136.395 6.36 136.228 6.70667 136.228 7.16H133.648C133.648 6.05333 134.035 5.25333 134.808 4.76C135.595 4.26667 136.688 4.02 138.088 4.02C140.088 4.02 141.381 4.72 141.968 6.12C142.168 6.6 142.268 7.16667 142.268 7.82V14H140.208L140.028 12.7C139.401 13.7533 138.441 14.28 137.148 14.28C135.895 14.28 134.921 13.9733 134.228 13.36C133.588 12.7733 133.268 12.0333 133.268 11.14C133.268 10.2333 133.621 9.54 134.328 9.06C135.035 8.56667 136.001 8.32 137.228 8.32ZM139.908 10.2C139.121 9.98667 138.388 9.88 137.708 9.88C136.428 9.88 135.788 10.3067 135.788 11.16C135.788 11.52 135.935 11.8333 136.228 12.1C136.521 12.3533 136.988 12.48 137.628 12.48C138.281 12.48 138.815 12.2667 139.228 11.84C139.655 11.4 139.881 10.8533 139.908 10.2ZM154.348 6.12C154.974 4.72 156.074 4.02 157.648 4.02C158.808 4.02 159.708 4.41333 160.348 5.2C160.961 5.94667 161.268 6.98667 161.268 8.32V14H158.888V8.32C158.888 7.6 158.714 7.06 158.368 6.7C158.021 6.32667 157.534 6.14 156.908 6.14C156.281 6.14 155.768 6.41333 155.368 6.96C154.968 7.50667 154.754 8.33333 154.728 9.44V14H152.368V8.32C152.368 7.6 152.194 7.06 151.848 6.7C151.501 6.32667 151.014 6.14 150.388 6.14C149.761 6.14 149.221 6.42 148.768 6.98C148.328 7.54 148.094 8.38 148.068 9.5V14H145.708V4.28H147.768L148.028 5.96C148.668 4.66667 149.694 4.02 151.108 4.02C151.921 4.02 152.594 4.20667 153.128 4.58C153.674 4.95333 154.081 5.46667 154.348 6.12ZM171.472 5.44C171.805 5.86667 172.052 6.36 172.212 6.92C172.385 7.48 172.472 7.99333 172.472 8.46C172.472 8.92667 172.445 9.34667 172.392 9.72H166.112C166.139 10.5067 166.332 11.1467 166.692 11.64C167.052 12.1333 167.599 12.38 168.332 12.38C169.305 12.38 169.885 11.9533 170.072 11.1H172.452C172.292 12.0733 171.845 12.84 171.112 13.4C170.352 13.9867 169.425 14.28 168.332 14.28C167.052 14.28 165.979 13.8133 165.112 12.88C164.219 11.9067 163.772 10.66 163.772 9.14C163.772 7.58 164.219 6.32667 165.112 5.38C165.965 4.47333 167.039 4.02 168.332 4.02C169.679 4.02 170.725 4.49333 171.472 5.44ZM168.352 5.9C167.685 5.9 167.165 6.12 166.792 6.56C166.419 6.98667 166.199 7.54 166.132 8.22H170.272C170.272 7.16667 169.939 6.46 169.272 6.1C169.019 5.96667 168.712 5.9 168.352 5.9ZM5.64 39.36C2.85333 36.88 1.46 33.9733 1.46 30.64C1.46 27.28 2.85333 24.3733 5.64 21.92L7.34 23.16C6.19333 24.36 5.33333 25.5667 4.76 26.78C4.18667 27.98 3.9 29.2667 3.9 30.64C3.9 32.0133 4.18667 33.3 4.76 34.5C5.33333 35.6867 6.19333 36.88 7.34 38.08L5.64 39.36ZM13.6878 27.02C14.3411 27.02 14.9545 27.1267 15.5278 27.34C16.1011 27.54 16.5945 27.8533 17.0078 28.28C17.9278 29.2133 18.3878 30.5067 18.3878 32.16C18.3878 33.7867 17.9278 35.0667 17.0078 36C16.1811 36.8533 15.0745 37.28 13.6878 37.28C12.3011 37.28 11.1811 36.8533 10.3278 36C9.40781 35.08 8.94781 33.8 8.94781 32.16C8.94781 30.4933 9.40781 29.2 10.3278 28.28C11.1678 27.44 12.2878 27.02 13.6878 27.02ZM16.0278 32.14C16.0278 31.1133 15.8278 30.3467 15.4278 29.84C15.0278 29.32 14.4678 29.06 13.7478 29.06C13.0411 29.06 12.4611 29.32 12.0078 29.84C11.5545 30.3467 11.3278 31.1133 11.3278 32.14C11.3278 33.1667 11.5278 33.94 11.9278 34.46C12.3411 34.9667 12.9011 35.22 13.6078 35.22C14.3145 35.22 14.8945 34.9667 15.3478 34.46C15.8011 33.94 16.0278 33.1667 16.0278 32.14ZM23.5559 29.2C24.1426 27.8 25.0226 27.1 26.1959 27.1C26.4226 27.1 26.7093 27.1467 27.0559 27.24L27.0159 29.6C26.6426 29.52 26.2759 29.48 25.9159 29.48C24.3426 29.48 23.5559 30.5667 23.5559 32.74V37H21.1959V27.26H23.5559V29.2ZM37.7748 31.32C38.5482 31.32 39.4415 31.4467 40.4548 31.7V30.74C40.4548 30.06 40.3148 29.56 40.0348 29.24C39.7682 28.9067 39.3215 28.74 38.6948 28.74C38.0815 28.74 37.6082 28.8667 37.2748 29.12C36.9415 29.36 36.7748 29.7067 36.7748 30.16H34.1948C34.1948 29.0533 34.5815 28.2533 35.3548 27.76C36.1415 27.2667 37.2348 27.02 38.6348 27.02C40.6348 27.02 41.9282 27.72 42.5148 29.12C42.7148 29.6 42.8148 30.1667 42.8148 30.82V37H40.7548L40.5748 35.7C39.9482 36.7533 38.9882 37.28 37.6948 37.28C36.4415 37.28 35.4682 36.9733 34.7748 36.36C34.1348 35.7733 33.8148 35.0333 33.8148 34.14C33.8148 33.2333 34.1682 32.54 34.8748 32.06C35.5815 31.5667 36.5482 31.32 37.7748 31.32ZM40.4548 33.2C39.6682 32.9867 38.9348 32.88 38.2548 32.88C36.9748 32.88 36.3348 33.3067 36.3348 34.16C36.3348 34.52 36.4815 34.8333 36.7748 35.1C37.0682 35.3533 37.5348 35.48 38.1748 35.48C38.8282 35.48 39.3615 35.2667 39.7748 34.84C40.2015 34.4 40.4282 33.8533 40.4548 33.2ZM53.6331 28.96C54.2731 27.6667 55.2998 27.02 56.7131 27.02C57.9131 27.02 58.8131 27.4133 59.4131 28.2C60.0265 28.9867 60.3331 30.0267 60.3331 31.32V37H57.9731V31.32C57.9731 30.6 57.7998 30.06 57.4531 29.7C57.1065 29.3267 56.6198 29.14 55.9931 29.14C55.3665 29.14 54.8265 29.42 54.3731 29.98C53.9331 30.54 53.6998 31.38 53.6731 32.5V37H51.3131V27.28H53.3731L53.6331 28.96ZM63.9741 27.26H66.3341V37H63.9741V27.26ZM63.6941 24.14C63.6941 23.7133 63.8207 23.38 64.0741 23.14C64.3274 22.8867 64.6874 22.76 65.1541 22.76C65.6074 22.76 65.9607 22.8867 66.2141 23.14C66.4807 23.38 66.6141 23.7133 66.6141 24.14C66.6141 24.5667 66.4807 24.9067 66.2141 25.16C65.9607 25.4 65.6074 25.52 65.1541 25.52C64.6874 25.52 64.3274 25.4 64.0741 25.16C63.8207 24.9067 63.6941 24.5667 63.6941 24.14ZM74.0366 27.02C74.6499 27.02 75.1966 27.1267 75.6766 27.34C76.1699 27.54 76.5832 27.8067 76.9166 28.14C77.5832 28.78 77.9766 29.5867 78.0966 30.56L75.7166 30.62C75.6099 30.1933 75.4099 29.84 75.1166 29.56C74.8366 29.28 74.5099 29.14 74.1366 29.14C73.7632 29.14 73.4432 29.2 73.1766 29.32C72.9099 29.4267 72.6766 29.6 72.4766 29.84C72.0232 30.4 71.7966 31.1733 71.7966 32.16C71.7966 33.1467 72.0099 33.8933 72.4366 34.4C72.8632 34.8933 73.3766 35.14 73.9766 35.14C74.5899 35.14 75.0299 35 75.2966 34.72C75.5766 34.4267 75.7166 34.0333 75.7166 33.54H78.0966C78.0966 34.6067 77.7432 35.4933 77.0366 36.2C76.3166 36.92 75.3099 37.28 74.0166 37.28C72.7366 37.28 71.6632 36.8133 70.7966 35.88C69.8766 34.88 69.4166 33.6333 69.4166 32.14C69.4166 30.5667 69.8766 29.3067 70.7966 28.36C71.6632 27.4667 72.7432 27.02 74.0366 27.02ZM84.382 32.26L83.302 33.16V37H80.942V23.28H83.302V30.7L87.142 27.28H90.342L86.042 30.88L90.582 37H87.702L84.382 32.26ZM94.7659 28.96C95.4059 27.6667 96.4326 27.02 97.8459 27.02C99.0459 27.02 99.9459 27.4133 100.546 28.2C101.159 28.9867 101.466 30.0267 101.466 31.32V37H99.1059V31.32C99.1059 30.6 98.9326 30.06 98.5859 29.7C98.2393 29.3267 97.7526 29.14 97.1259 29.14C96.4993 29.14 95.9593 29.42 95.5059 29.98C95.0659 30.54 94.8326 31.38 94.8059 32.5V37H92.4459V27.28H94.5059L94.7659 28.96ZM108.107 31.32C108.88 31.32 109.774 31.4467 110.787 31.7V30.74C110.787 30.06 110.647 29.56 110.367 29.24C110.1 28.9067 109.654 28.74 109.027 28.74C108.414 28.74 107.94 28.8667 107.607 29.12C107.274 29.36 107.107 29.7067 107.107 30.16H104.527C104.527 29.0533 104.914 28.2533 105.687 27.76C106.474 27.2667 107.567 27.02 108.967 27.02C110.967 27.02 112.26 27.72 112.847 29.12C113.047 29.6 113.147 30.1667 113.147 30.82V37H111.087L110.907 35.7C110.28 36.7533 109.32 37.28 108.027 37.28C106.774 37.28 105.8 36.9733 105.107 36.36C104.467 35.7733 104.147 35.0333 104.147 34.14C104.147 33.2333 104.5 32.54 105.207 32.06C105.914 31.5667 106.88 31.32 108.107 31.32ZM110.787 33.2C110 32.9867 109.267 32.88 108.587 32.88C107.307 32.88 106.667 33.3067 106.667 34.16C106.667 34.52 106.814 34.8333 107.107 35.1C107.4 35.3533 107.867 35.48 108.507 35.48C109.16 35.48 109.694 35.2667 110.107 34.84C110.534 34.4 110.76 33.8533 110.787 33.2ZM125.227 29.12C125.853 27.72 126.953 27.02 128.527 27.02C129.687 27.02 130.587 27.4133 131.227 28.2C131.84 28.9467 132.147 29.9867 132.147 31.32V37H129.767V31.32C129.767 30.6 129.593 30.06 129.247 29.7C128.9 29.3267 128.413 29.14 127.787 29.14C127.16 29.14 126.647 29.4133 126.247 29.96C125.847 30.5067 125.633 31.3333 125.607 32.44V37H123.247V31.32C123.247 30.6 123.073 30.06 122.727 29.7C122.38 29.3267 121.893 29.14 121.267 29.14C120.64 29.14 120.1 29.42 119.647 29.98C119.207 30.54 118.973 31.38 118.947 32.5V37H116.587V27.28H118.647L118.907 28.96C119.547 27.6667 120.573 27.02 121.987 27.02C122.8 27.02 123.473 27.2067 124.007 27.58C124.553 27.9533 124.96 28.4667 125.227 29.12ZM142.351 28.44C142.684 28.8667 142.931 29.36 143.091 29.92C143.264 30.48 143.351 30.9933 143.351 31.46C143.351 31.9267 143.324 32.3467 143.271 32.72H136.991C137.018 33.5067 137.211 34.1467 137.571 34.64C137.931 35.1333 138.478 35.38 139.211 35.38C140.184 35.38 140.764 34.9533 140.951 34.1H143.331C143.171 35.0733 142.724 35.84 141.991 36.4C141.231 36.9867 140.304 37.28 139.211 37.28C137.931 37.28 136.858 36.8133 135.991 35.88C135.098 34.9067 134.651 33.66 134.651 32.14C134.651 30.58 135.098 29.3267 135.991 28.38C136.844 27.4733 137.918 27.02 139.211 27.02C140.558 27.02 141.604 27.4933 142.351 28.44ZM139.231 28.9C138.564 28.9 138.044 29.12 137.671 29.56C137.298 29.9867 137.078 30.54 137.011 31.22H141.151C141.151 30.1667 140.818 29.46 140.151 29.1C139.898 28.9667 139.591 28.9 139.231 28.9ZM151.435 27.26H153.795V37H151.435V27.26ZM151.155 24.14C151.155 23.7133 151.282 23.38 151.535 23.14C151.788 22.8867 152.148 22.76 152.615 22.76C153.068 22.76 153.422 22.8867 153.675 23.14C153.942 23.38 154.075 23.7133 154.075 24.14C154.075 24.5667 153.942 24.9067 153.675 25.16C153.422 25.4 153.068 25.52 152.615 25.52C152.148 25.52 151.788 25.4 151.535 25.16C151.282 24.9067 151.155 24.5667 151.155 24.14ZM156.738 27.28H158.178V26.14C158.178 25.14 158.471 24.3733 159.058 23.84C159.591 23.36 160.284 23.12 161.138 23.12C161.684 23.12 162.358 23.2 163.158 23.36L162.698 25.18C162.324 25.0467 161.984 24.98 161.678 24.98C161.384 24.98 161.124 25.0667 160.898 25.24C160.671 25.4 160.558 25.7067 160.558 26.16V27.28H162.338V28.86H160.558V37H158.178V28.86H156.738V27.28ZM7.34 59.76C6.46 60.1067 5.76667 60.28 5.26 60.28C4.75333 60.28 4.30667 60.22 3.92 60.1C3.54667 59.98 3.21333 59.8 2.92 59.56C2.30667 59.0133 2 58.26 2 57.3V51.86H0.64V50.28H2V47.72H4.36V50.28H7V51.86H4.36V57.22C4.36 58.02 4.74 58.42 5.5 58.42C5.88667 58.42 6.38667 58.3133 7 58.1L7.34 59.76ZM12.1106 51.86C12.7773 50.6333 13.7506 50.02 15.0306 50.02C16.3106 50.02 17.2506 50.4133 17.8506 51.2C18.464 51.9867 18.7706 53.0267 18.7706 54.32V60H16.4106V54.32C16.4106 53.6 16.2373 53.06 15.8906 52.7C15.544 52.3267 15.0573 52.14 14.4306 52.14C13.804 52.14 13.264 52.42 12.8106 52.98C12.3706 53.54 12.1373 54.38 12.1106 55.5V60H9.75063V46.28H12.1106V51.86ZM25.4116 54.32C26.1849 54.32 27.0782 54.4467 28.0916 54.7V53.74C28.0916 53.06 27.9516 52.56 27.6716 52.24C27.4049 51.9067 26.9582 51.74 26.3316 51.74C25.7182 51.74 25.2449 51.8667 24.9116 52.12C24.5782 52.36 24.4116 52.7067 24.4116 53.16H21.8316C21.8316 52.0533 22.2182 51.2533 22.9916 50.76C23.7782 50.2667 24.8716 50.02 26.2716 50.02C28.2716 50.02 29.5649 50.72 30.1516 52.12C30.3516 52.6 30.4516 53.1667 30.4516 53.82V60H28.3916L28.2116 58.7C27.5849 59.7533 26.6249 60.28 25.3316 60.28C24.0782 60.28 23.1049 59.9733 22.4116 59.36C21.7716 58.7733 21.4516 58.0333 21.4516 57.14C21.4516 56.2333 21.8049 55.54 22.5116 55.06C23.2182 54.5667 24.1849 54.32 25.4116 54.32ZM28.0916 56.2C27.3049 55.9867 26.5716 55.88 25.8916 55.88C24.6116 55.88 23.9716 56.3067 23.9716 57.16C23.9716 57.52 24.1182 57.8333 24.4116 58.1C24.7049 58.3533 25.1716 58.48 25.8116 58.48C26.4649 58.48 26.9982 58.2667 27.4116 57.84C27.8382 57.4 28.0649 56.8533 28.0916 56.2ZM39.3713 59.76C38.4913 60.1067 37.7979 60.28 37.2913 60.28C36.7846 60.28 36.3379 60.22 35.9513 60.1C35.5779 59.98 35.2446 59.8 34.9513 59.56C34.3379 59.0133 34.0313 58.26 34.0313 57.3V51.86H32.6713V50.28H34.0313V47.72H36.3913V50.28H39.0313V51.86H36.3913V57.22C36.3913 58.02 36.7713 58.42 37.5313 58.42C37.9179 58.42 38.4179 58.3133 39.0313 58.1L39.3713 59.76ZM41.0019 48.38C41.0019 47.98 41.1552 47.6467 41.4619 47.38C41.7685 47.1 42.1819 46.96 42.7019 46.96C43.2352 46.96 43.6685 47.1733 44.0019 47.6C44.3485 48.0133 44.5219 48.5333 44.5219 49.16C44.5219 49.7733 44.3019 50.38 43.8619 50.98C43.4352 51.58 42.8619 52.06 42.1419 52.42L40.5019 51.52C41.5285 51 42.1485 50.4133 42.3619 49.76C41.9752 49.6933 41.6485 49.5467 41.3819 49.32C41.1285 49.0933 41.0019 48.78 41.0019 48.38ZM48.5316 57.04C48.5582 57.96 49.2316 58.42 50.5516 58.42C51.0582 58.42 51.4716 58.3133 51.7916 58.1C52.1249 57.8733 52.2916 57.6133 52.2916 57.32C52.2916 57.0267 52.1916 56.8 51.9916 56.64C51.7916 56.48 51.4782 56.3333 51.0516 56.2L48.9316 55.44C47.3582 54.8933 46.5716 54 46.5716 52.76C46.5716 51.9333 46.9382 51.2733 47.6716 50.78C48.4182 50.2733 49.4116 50.02 50.6516 50.02C51.9049 50.02 52.8649 50.2933 53.5316 50.84C54.2116 51.3867 54.5649 52.0733 54.5916 52.9H52.3716C52.3449 52.58 52.1916 52.3267 51.9116 52.14C51.6316 51.9533 51.2316 51.86 50.7116 51.86C50.1916 51.86 49.7849 51.9667 49.4916 52.18C49.2116 52.38 49.0716 52.6133 49.0716 52.88C49.0716 53.3467 49.4649 53.6933 50.2516 53.92L52.5516 54.78C53.3116 55.0333 53.8916 55.36 54.2916 55.76C54.7049 56.1467 54.9116 56.6533 54.9116 57.28C54.9116 58.08 54.5316 58.7733 53.7716 59.36C52.9849 59.9733 51.9449 60.28 50.6516 60.28C49.3582 60.28 48.3182 60 47.5316 59.44C46.7449 58.8667 46.3449 58.0667 46.3316 57.04H48.5316ZM69.597 51.44C69.9304 51.8667 70.177 52.36 70.337 52.92C70.5104 53.48 70.597 53.9933 70.597 54.46C70.597 54.9267 70.5704 55.3467 70.517 55.72H64.237C64.2637 56.5067 64.457 57.1467 64.817 57.64C65.177 58.1333 65.7237 58.38 66.457 58.38C67.4304 58.38 68.0104 57.9533 68.197 57.1H70.577C70.417 58.0733 69.9704 58.84 69.237 59.4C68.477 59.9867 67.5504 60.28 66.457 60.28C65.177 60.28 64.1037 59.8133 63.237 58.88C62.3437 57.9067 61.897 56.66 61.897 55.14C61.897 53.58 62.3437 52.3267 63.237 51.38C64.0904 50.4733 65.1637 50.02 66.457 50.02C67.8037 50.02 68.8504 50.4933 69.597 51.44ZM66.477 51.9C65.8104 51.9 65.2904 52.12 64.917 52.56C64.5437 52.9867 64.3237 53.54 64.257 54.22H68.397C68.397 53.1667 68.0637 52.46 67.397 52.1C67.1437 51.9667 66.837 51.9 66.477 51.9ZM76.6225 54.32C77.3958 54.32 78.2892 54.4467 79.3025 54.7V53.74C79.3025 53.06 79.1625 52.56 78.8825 52.24C78.6158 51.9067 78.1692 51.74 77.5425 51.74C76.9292 51.74 76.4558 51.8667 76.1225 52.12C75.7892 52.36 75.6225 52.7067 75.6225 53.16H73.0425C73.0425 52.0533 73.4292 51.2533 74.2025 50.76C74.9892 50.2667 76.0825 50.02 77.4825 50.02C79.4825 50.02 80.7758 50.72 81.3625 52.12C81.5625 52.6 81.6625 53.1667 81.6625 53.82V60H79.6025L79.4225 58.7C78.7958 59.7533 77.8358 60.28 76.5425 60.28C75.2892 60.28 74.3158 59.9733 73.6225 59.36C72.9825 58.7733 72.6625 58.0333 72.6625 57.14C72.6625 56.2333 73.0158 55.54 73.7225 55.06C74.4292 54.5667 75.3958 54.32 76.6225 54.32ZM79.3025 56.2C78.5158 55.9867 77.7825 55.88 77.1025 55.88C75.8225 55.88 75.1825 56.3067 75.1825 57.16C75.1825 57.52 75.3292 57.8333 75.6225 58.1C75.9158 58.3533 76.3825 58.48 77.0225 58.48C77.6758 58.48 78.2092 58.2667 78.6225 57.84C79.0492 57.4 79.2758 56.8533 79.3025 56.2ZM86.4222 57.04C86.4489 57.96 87.1222 58.42 88.4422 58.42C88.9489 58.42 89.3622 58.3133 89.6822 58.1C90.0155 57.8733 90.1822 57.6133 90.1822 57.32C90.1822 57.0267 90.0822 56.8 89.8822 56.64C89.6822 56.48 89.3689 56.3333 88.9422 56.2L86.8222 55.44C85.2489 54.8933 84.4622 54 84.4622 52.76C84.4622 51.9333 84.8289 51.2733 85.5622 50.78C86.3089 50.2733 87.3022 50.02 88.5422 50.02C89.7955 50.02 90.7555 50.2933 91.4222 50.84C92.1022 51.3867 92.4555 52.0733 92.4822 52.9H90.2622C90.2355 52.58 90.0822 52.3267 89.8022 52.14C89.5222 51.9533 89.1222 51.86 88.6022 51.86C88.0822 51.86 87.6755 51.9667 87.3822 52.18C87.1022 52.38 86.9622 52.6133 86.9622 52.88C86.9622 53.3467 87.3555 53.6933 88.1422 53.92L90.4422 54.78C91.2022 55.0333 91.7822 55.36 92.1822 55.76C92.5955 56.1467 92.8022 56.6533 92.8022 57.28C92.8022 58.08 92.4222 58.7733 91.6622 59.36C90.8755 59.9733 89.8355 60.28 88.5422 60.28C87.2489 60.28 86.2089 60 85.4222 59.44C84.6355 58.8667 84.2355 58.0667 84.2222 57.04H86.4222ZM95.8491 50.26H98.2091V60H95.8491V50.26ZM95.5691 47.14C95.5691 46.7133 95.6957 46.38 95.9491 46.14C96.2024 45.8867 96.5624 45.76 97.0291 45.76C97.4824 45.76 97.8357 45.8867 98.0891 46.14C98.3557 46.38 98.4891 46.7133 98.4891 47.14C98.4891 47.5667 98.3557 47.9067 98.0891 48.16C97.8357 48.4 97.4824 48.52 97.0291 48.52C96.5624 48.52 96.2024 48.4 95.9491 48.16C95.6957 47.9067 95.5691 47.5667 95.5691 47.14ZM108.992 51.44C109.325 51.8667 109.572 52.36 109.732 52.92C109.905 53.48 109.992 53.9933 109.992 54.46C109.992 54.9267 109.965 55.3467 109.912 55.72H103.632C103.658 56.5067 103.852 57.1467 104.212 57.64C104.572 58.1333 105.118 58.38 105.852 58.38C106.825 58.38 107.405 57.9533 107.592 57.1H109.972C109.812 58.0733 109.365 58.84 108.632 59.4C107.872 59.9867 106.945 60.28 105.852 60.28C104.572 60.28 103.498 59.8133 102.632 58.88C101.738 57.9067 101.292 56.66 101.292 55.14C101.292 53.58 101.738 52.3267 102.632 51.38C103.485 50.4733 104.558 50.02 105.852 50.02C107.198 50.02 108.245 50.4933 108.992 51.44ZM105.872 51.9C105.205 51.9 104.685 52.12 104.312 52.56C103.938 52.9867 103.718 53.54 103.652 54.22H107.792C107.792 53.1667 107.458 52.46 106.792 52.1C106.538 51.9667 106.232 51.9 105.872 51.9ZM115.177 52.2C115.764 50.8 116.644 50.1 117.817 50.1C118.044 50.1 118.33 50.1467 118.677 50.24L118.637 52.6C118.264 52.52 117.897 52.48 117.537 52.48C115.964 52.48 115.177 53.5667 115.177 55.74V60H112.817V50.26H115.177V52.2ZM121.637 44.92C124.424 47.4 125.817 50.3067 125.817 53.64C125.817 56.9467 124.424 59.8533 121.637 62.36L119.917 61.08C121.077 59.88 121.944 58.6867 122.517 57.5C123.091 56.3 123.377 55.0133 123.377 53.64C123.377 52.2667 123.084 50.98 122.497 49.78C121.924 48.5667 121.064 47.36 119.917 46.16L121.637 44.92ZM136.985 50.38C136.985 51.0867 136.812 51.68 136.465 52.16C136.118 52.6267 135.572 53.0467 134.825 53.42C134.198 53.74 133.785 54.0133 133.585 54.24C133.398 54.4667 133.278 54.68 133.225 54.88C133.172 55.0667 133.145 55.2867 133.145 55.54V56.12H130.785V55.32C130.785 54.12 131.145 53.2667 131.865 52.76C132.118 52.5733 132.492 52.3533 132.985 52.1C133.478 51.8467 133.832 51.5933 134.045 51.34C134.272 51.0733 134.385 50.74 134.385 50.34C134.385 49.9267 134.218 49.5867 133.885 49.32C133.552 49.04 133.058 48.9 132.405 48.9C131.752 48.9 131.238 49.06 130.865 49.38C130.492 49.6867 130.278 50.0933 130.225 50.6H127.765C127.832 49.44 128.258 48.5133 129.045 47.82C129.832 47.1133 130.932 46.76 132.345 46.76C133.772 46.76 134.898 47.1067 135.725 47.8C136.565 48.4933 136.985 49.3533 136.985 50.38ZM130.385 58.7C130.385 58.2467 130.532 57.8733 130.825 57.58C131.132 57.2867 131.525 57.14 132.005 57.14C132.498 57.14 132.905 57.2867 133.225 57.58C133.545 57.8733 133.705 58.2467 133.705 58.7C133.705 59.1533 133.545 59.5333 133.225 59.84C132.905 60.1333 132.498 60.28 132.005 60.28C131.525 60.28 131.132 60.1333 130.825 59.84C130.532 59.5333 130.385 59.1533 130.385 58.7Z" fill="black"/>
</svg>
